<svg xmlns="http://www.w3.org/2000/svg" xmlns:xlink="http://www.w3.org/1999/xlink" width="198" height="210" xmlns:v="https://vecta.io/nano"><defs><path d="M32.266 16.133c0 8.91-7.223 16.133-16.133 16.133S0 25.044 0 16.133 7.222 0 16.133 0s16.133 7.223 16.133 16.133" id="A"/><path d="M.78 11.25A16.2 16.2 0 0 1 21.149.779a16.2 16.2 0 0 1 10.472 20.369c-2.733 8.517-11.853 13.206-20.37 10.473A16.2 16.2 0 0 1 .779 11.251" id="B"/><path id="C" d="M47.294 81.9H8.505C3.808 81.9 0 78.074 0 73.355V8.545C0 3.825 3.808 0 8.505 0h38.788C51.99 0 55.8 3.825 55.8 8.545v64.81c0 4.72-3.81 8.545-8.506 8.545"/><path id="D" d="M10.488 10.867a6 6 0 0 1 7.544-3.879 6 6 0 0 1 3.879 7.544 6 6 0 0 1-7.544 3.879 6 6 0 0 1-3.879-7.544"/><path id="E" d="M1.92 29.118a15 15 0 0 1 18.861-9.697 15 15 0 0 1 9.697 18.86 15 15 0 0 1-18.86 9.698 15 15 0 0 1-9.698-18.861"/></defs><g transform="translate(1)" fill="none" fill-rule="evenodd"><path d="M45.563 136.15s16.468-43.64-7.39-44.38S-11.91 85.114 5.822 52.94s44.31-70.267 82.92-44.38 38.348 31.065 64.52 31.805S216 76.238 185.34 92.5s-20.2 22.19-31.893 39.57-148.3 120.933-107.885 4.068" opacity=".222" fill="#b5c9d1"/><g transform="matrix(-1 0 0 1 196 33)"><path d="M60.766 170.147c0 3.6-11.847 6.52-26.46 6.52s-26.462-2.92-26.462-6.52 11.847-6.52 26.462-6.52 26.46 2.92 26.46 6.52" fill="#000" opacity=".1"/><path d="M47.746 82.1H9.21C4.54 82.1.757 78.263.757 73.533V8.566C.757 3.834 4.54 0 9.21 0h38.538c4.667 0 8.45 3.834 8.45 8.566v64.967c0 4.73-3.784 8.566-8.45 8.566" fill="#628eb4"/><path d="M49.59 83.36H10.527a8.57 8.57 0 0 1-8.567-8.566V9.826a8.57 8.57 0 0 1 8.567-8.566H49.59a8.57 8.57 0 0 1 8.566 8.566v64.967a8.57 8.57 0 0 1-8.566 8.566" fill="#7eb1dc"/><g transform="translate(13.926 10.043)"><mask id="F" fill="#fff"><use xlink:href="#A"/></mask><use fill="#5d99cc" xlink:href="#A"/><path d="M25.524 31.5c0 5.186-4.204 9.39-9.39 9.39s-9.392-4.204-9.392-9.39 4.204-9.39 9.392-9.39a9.39 9.39 0 0 1 9.391 9.391" fill="#b8deff" mask="url(#F)"/></g><path d="M36.656 26.176a6.6 6.6 0 0 1-6.596 6.596 6.6 6.6 0 0 1-6.596-6.596 6.6 6.6 0 0 1 6.596-6.596 6.6 6.6 0 0 1 6.596 6.596M11.17 52.52h37.78v-3.916H11.17zm6.602 6.118h24.574v-3.916H17.772z" fill="#b8deff"/><path d="M41.2 166.02l-.08 1.452-6.915-1.48.353-1.16 6.643 1.2zM38.1 70.2c-.07 2.933-3.9 3.76-3.9 3.76v1.384l-5.282-.164v-4.9c.212.513.475.877.837.916 1.43.15 6.25.605 6.703-4.143.455-4.738.988-3.397 1.855-4.818.353 2.4-.15 6.058-.202 7.983" fill="#f7aa66"/><path d="M51.047 172.653c-.554 1.1-14.535-.695-16.54-1.25-1.44-.404-.776-3.64-.292-5.413l6.915 1.48-.04.756s10.513 3.316 9.96 4.425" fill="#2d2b37"/><path d="M42.68 167.17l-8.346-1.583c.585-6.19 4.647-21.672 4.647-23.416 0-1.735-4.455-11.41-4.455-11.41-.08-.02-.15-.05-.222-.07-5.322-1.704-8.346-4.355-9.98-7.207-2.36-4.113-1.835-8.64-1.18-11.3 9.455 2.388 16.45-.585 16.45-.585l-.06.887c3.457 3.982 9.223 19.797 9.636 26.087.423 6.28-6.492 28.597-6.492 28.597" fill="#9abfc3"/><path d="M60.026 71.935l-.898 6.84-3.603-1.666 1.703-5.44s-.824-3.46 0-4.86.42 1.77.833 1.605c0 0-.04-.748.06-2.1V64.14s2.8-1.526 1.904 7.796" fill="#f7aa66"/><path d="M59.757 78.112l-.626 3.145c-.634 3.145-1.996 5.655-4.404 5.767-2.4.1-11.632-.323-11.632-.323l-3.348 22.84c-5.724 1.512-12.407.877-15.876.373.01-.03.02-.05.02-.05v-6.38s-2.32 1.16-4.255 1.352-2.71 3.488-3.095-10.836c-.393-14.314 6.2-14.506 9.475-16.25s2.46-2.56 2.46-2.56l5.815-.535.112 1.472s5.967.726 8.587.726 9.224 3.256 9.95 3.568c.737.313 2.52-4.294 2.52-4.294l4.295 1.986z" fill="#df5f4d"/><path fill="#302293" d="M30.806 165.335l-3.457-.504h3.478z"/><path d="M37.066 170.022s-9.546.28-11.763 0c-1.512-.182-.806-2.55-.212-4.022l5.675.352-.07 1.735c8.577.968 6.37 1.935 6.37 1.935" fill="#2d2b37"/><path d="M30.806 165.335l-.04 1.018L25.09 166l.534-1.17h1.724l3.457.504z" fill="#f7aa66"/><path d="M38.292 62.217v.01c-.867 1.42-1.4.08-1.855 4.818-.454 4.748-5.272 4.294-6.703 4.142-.363-.04-.625-.402-.837-.916-.595-1.523-.716-4.415-1.502-4.587-1.058-.22-.978-3.467-.978-3.467 2.41-4.586 7.46-4.294 9.415-4.516s3.316 3.084 2.46 4.516" fill="#2d3e50"/><path d="M33.992 133.37l-1.895 15.785c-.423 2.61-.423 16.864-.423 16.864l-7.752-.624.363-37.902c2.218 2.722 5.485 5.524 9.707 5.877" fill="#81a1a5"/><path d="M39.748 109.542l-.15 2.056s-6.997 2.973-16.452.585c.302-1.23.635-2.067.726-2.268 3.468.504 10.15 1.14 15.876-.373" fill="#2d2b37"/><path d="M36.258 68.042s-.37 1.926.636 1.466 1.247-.308 1.247-.308.955 3.368 0 3.912-3.962.86-3.962.86l2.08-5.928z" fill="#2d3e50"/><path fill="#a44133" d="M23.892 103.483l1.475-16.304h-2.22z"/><path d="M34.305 130.7l-.313 2.68c-4.223-.352-7.488-3.155-9.706-5.877l.04-4.01c1.633 2.853 4.657 5.504 9.98 7.206" fill="#537276"/><path fill="#251f77" d="M30.858 165.345l-.092 1.008.04-1.018z"/></g><g transform="translate(0 14)"><use xlink:href="#C" stroke="#a7bdcc" stroke-width=".9" stroke-dasharray="3.599999904632568"/><g transform="translate(11.7 24.3)"><mask id="G" fill="#fff"><use xlink:href="#B"/></mask><use fill="#fbffff" xlink:href="#B"/><g fill="#a7bdcc"><use xlink:href="#D" mask="url(#G)"/><use xlink:href="#E" mask="url(#G)"/></g></g></g><g transform="translate(67 14)"><use xlink:href="#C" stroke="#a7bdcc" stroke-width=".9" stroke-dasharray="3.599999904632568"/><g transform="translate(11 24.3)"><mask id="H" fill="#fff"><use xlink:href="#C" href="#B"/></mask><use fill="#fbffff" xlink:href="#C" href="#B"/><g fill="#a7bdcc"><use xlink:href="#D" mask="url(#H)"/><use xlink:href="#E" mask="url(#H)"/></g></g></g></g></svg>