<svg xmlns="http://www.w3.org/2000/svg" width="21" height="19" xmlns:v="https://vecta.io/nano"><path d="M20.635 14.892L12.86 1.37C12.374.522 11.474 0 10.5 0S8.625.522 8.138 1.37L.365 14.892a2.75 2.75 0 0 0 0 2.739C.852 18.478 1.752 19 2.727 19h15.546c.974 0 1.875-.522 2.362-1.37a2.75 2.75 0 0 0 0-2.739zm-9.306.37c0 .436-.352.79-.786.79H10.5c-.434 0-.785-.353-.785-.79v-.043c0-.436.352-.79.785-.79h.043c.434 0 .786.353.786.79v.043zm-.043-2.43c0 .436-.35.79-.785.79s-.785-.353-.785-.79l-.51-7.165c0-.436.86-.96 1.295-.96s1.295.524 1.295.96l-.5 7.165z" fill="#ffa11d"/></svg>