<svg xmlns="http://www.w3.org/2000/svg" width="51" height="18" xmlns:v="https://vecta.io/nano"><path d="M1.224 0l48.493.084C50.395.084 51-.014 51 1.405L50.94 17H0V1.347C0 .647.07 0 1.224 0z" fill="#aab2ab"/><path d="M50.045 0H.955A.96.96 0 0 0 0 .963v16.82c0 .12.097.217.216.217h50.57c.12 0 .216-.097.216-.217V.963A.96.96 0 0 0 50.045 0zM.955.435h49.1c.29 0 .524.237.524.528v11.7h-35.2c-1.286 2.345-3.764 3.937-6.607 3.937S3.44 15 2.154 12.652H.43V.963c0-.29.235-.528.524-.528z" fill="#000"/><path d="M31.748 14.36a2.05 2.05 0 0 1 .373.031c.112.02.208.055.288.103s.142.1.186.2a.6.6 0 0 1 .066.294.5.5 0 0 1-.098.315.7.7 0 0 1-.29.207.7.7 0 0 1 .396.233.63.63 0 0 1 .131.401c0 .126-.028.235-.084.327s-.132.167-.226.226a1.07 1.07 0 0 1-.325.13 1.67 1.67 0 0 1-.375.042h-1.4v-2.5h1.346zm-.08 1c.112 0 .204-.023.277-.07s.108-.122.108-.227a.26.26 0 0 0-.036-.143c-.024-.037-.056-.066-.096-.088s-.086-.036-.138-.044a1.06 1.06 0 0 0-.162-.012h-.6v.583h.637zm.037 1.06c.062 0 .12-.005.176-.016a.53.53 0 0 0 .15-.052c.045-.024.077-.058.102-.1a.31.31 0 0 0 .038-.16c0-.128-.04-.22-.124-.275a.59.59 0 0 0-.33-.082h-.686v.686h.673zm1.205-2.07h.704l.67.987.665-.987h.7l-1.06 1.54v.96h-.63v-.973zM14.858 8.83a5.791 5.791 0 1 1-11.581.007c-.002-3.205 2.6-5.8 5.787-5.8a5.79 5.79 0 0 1 5.794 5.787z" fill="#fff"/><path d="M13.775 4.114C15.06 5.398 15.7 6.97 15.7 8.83s-.63 3.416-1.893 4.667c-1.34 1.318-2.922 1.976-4.75 1.976-1.804 0-3.36-.653-4.666-1.96s-1.96-2.867-1.96-4.684.653-3.388 1.96-4.717C5.666 2.83 7.222 2.187 9.06 2.187c1.86 0 3.43.642 4.716 1.927zm-8.517.864C4.172 6.074 3.63 7.36 3.63 8.832s.537 2.747 1.612 3.82 2.354 1.612 3.838 1.612 2.774-.542 3.87-1.628c1.04-1.008 1.562-2.276 1.562-3.804 0-1.517-.53-2.805-1.587-3.863s-2.34-1.587-3.846-1.587a5.14 5.14 0 0 0-3.821 1.595zm2.857 3.206c-.166-.362-.414-.543-.745-.543-.585 0-.878.394-.878 1.182s.293 1.182.878 1.182c.387 0 .663-.192.828-.576L9 9.862c-.387.687-.967 1.03-1.74 1.03-.597 0-1.075-.183-1.434-.55s-.54-.87-.54-1.514c0-.632.185-1.133.555-1.505s.832-.557 1.384-.557c.818 0 1.404.322 1.758.966l-.878.45zm3.818 0c-.166-.362-.41-.543-.73-.543-.597 0-.896.394-.896 1.182s.3 1.182.896 1.182c.387 0 .658-.192.813-.576l.83.432a1.87 1.87 0 0 1-1.738 1.031c-.596 0-1.073-.183-1.432-.55s-.538-.87-.538-1.514c0-.632.182-1.133.546-1.505s.827-.557 1.4-.557c.816 0 1.4.322 1.754.966l-.896.45z" fill="#000"/><ellipse fill="#fff" cx="32.523" cy="6.131" rx="4.755" ry="4.503"/><g fill="#000"><path d="M33.898 4.828c0-.174-.15-.314-.33-.314h-2.1c-.183 0-.33.14-.33.314v1.99h.586v2.355h1.592V6.817h.586v-1.99z"/><circle cx="32.517" cy="3.572" r="1"/><path d="M32.51 1.17c-1.422 0-2.626.47-3.612 1.4-1.01.972-1.516 2.123-1.516 3.452s.505 2.472 1.516 3.428 2.215 1.434 3.612 1.434c1.414 0 2.64-.482 3.676-1.446.977-.916 1.465-2.054 1.465-3.416s-.497-2.512-1.49-3.452-2.21-1.4-3.65-1.4zm.013.875c1.165 0 2.155.39 2.97 1.167.822.77 1.234 1.7 1.234 2.82a3.61 3.61 0 0 1-1.208 2.783c-.85.794-1.846 1.19-2.994 1.19s-2.138-.393-2.97-1.18-1.247-1.718-1.247-2.796.42-2.018 1.26-2.82c.805-.778 1.79-1.167 2.956-1.167z"/></g></svg>