<svg xmlns="http://www.w3.org/2000/svg" width="16" height="20" fill="#0e65a7" fill-rule="evenodd" xmlns:v="https://vecta.io/nano"><path d="M14.428 2.355H11.76V.62a.62.62 0 0 0-.63-.62c-.034 0-.056.01-.067.023C11.052.01 11.03 0 11.018 0H4.66a.61.61 0 0 0-.619.62v1.735H1.362C.596 2.355 0 2.952 0 3.718v2.23h1.182v12.698c0 .766.585 1.352 1.35 1.352h10.725c.765 0 1.362-.586 1.362-1.352V5.95h1.17v-2.23c0-.766-.597-1.363-1.362-1.363zM5.278 1.24h5.233v1.116H5.278V1.24zm8.092 17.408c0 .08-.034.113-.113.113H2.532c-.08 0-.113-.034-.113-.113V5.95h10.95v12.7zM14.54 4.7H1.25v-.992c0-.08.034-.124.113-.124h13.066c.08 0 .113.045.113.124V4.7z" fill-rule="nonzero"/><path d="M10.526 7.368h1.053v10.526h-1.053zm-3.158 0H8.42v10.526H7.368zm-3.158 0h1.053v10.526H4.2z"/></svg>