<svg xmlns="http://www.w3.org/2000/svg" width="101" height="124.428" viewBox="0 0 101 124.428"><defs><style>.a{fill:#9d9d9e;opacity:0.75;}.b{fill:#636060;}.b,.c,.d,.e,.h{stroke:#333;}.b,.c,.d,.e,.f,.h,.i{fill-rule:evenodd;}.c{fill:#e6f2ff;}.d,.j{fill:#d8d8d8;}.e{fill:#424040;}.f{fill:#111;}.g{fill:#fff;}.g,.i{stroke:#979797;}.h{fill:#a8a3a3;stroke-linecap:round;stroke-linejoin:bevel;}.i{fill:#333;stroke-width:0.5px;}</style></defs><g transform="translate(0 -0.572)"><g transform="translate(-590 -336)"><g transform="translate(590 337)"><ellipse class="a" cx="50.5" cy="5.5" rx="50.5" ry="5.5" transform="translate(0 113)"/><g transform="translate(16)"><path class="b" d="M14.792,18.8c0-6.974.936-14.848-8.267-15.324s-1.769,23.331,0,26.809C9.464,36.064,14.792,25.774,14.792,18.8Z"/><path class="c" d="M14.625,19.105c-.588-8.491-4.863-13.258-10.2-15.126q8.8-6.058,12.838-2.05c4.037,4.008,5.476,7.415,5.476,12.08C22.742,21.007,15.507,31.842,14.625,19.105Z"/><path class="b" d="M65.053-20.039c0,7.217.053,17.027-8.456,16.57s-.527-24.166,1.242-27.766C60.772-37.2,65.053-26.665,65.053-20.039Z" transform="translate(117.797) rotate(180)"/><path class="c" d="M54.288-19.105C53.7-10.614,50.075-5.337,44.742-3.469Q52.744,1.709,56.35-1c3.606-2.709,6.055-8.344,6.055-13.009C62.405-21.007,55.17-31.842,54.288-19.105Z" transform="translate(107.147) rotate(180)"/><path class="c" d="M.742,93.913Q3.151,98.4,4.289,98.694c14.5,3.764,25.382,1.786,32.784,1.786,7.231,0,16.81,1.806,28.263-1.786q1.192-.374,3.405-4.781V43.647A25.621,25.621,0,0,0,65.7,31.534Q55.218,12,34.742,12T3.784,31.534A25.621,25.621,0,0,0,.742,43.647Z"/><path class="d" d="M3.742,97.832q9.093,5.14,13.029,6.082c8.43,2.018,15,.431,19.723.431,4.89,0,10.82,1.729,18.179-.431q3.075-.9,10.068-6.082V56.84c0-18.563-13.608-33.661-30.5-33.84h0q.535,0,1.078.015h0c-17-.475-31.136,14.286-31.568,32.969q-.01.43-.01.859Z"/><path class="e" d="M64.6,67q1.755-30.812-17.861-40.581c-13.077-6.513-24.311-3.823-35.23,8.96Z"/><path class="f" d="M55.742,63V33.511Q44.679,22.245,32.194,23.054t-21.452,13.1Z"/><rect class="g" width="34" height="45" rx="2" transform="translate(22.242 21.5)"/><g transform="translate(31.742 30)"><ellipse cx="2.059" cy="2" rx="2.059" ry="2" transform="translate(10.141)"/><ellipse cx="2.224" cy="3.5" rx="2.224" ry="3.5" transform="translate(5.248 7)"/><ellipse cx="2.059" cy="2" rx="2.059" ry="2" transform="translate(0.258)"/></g><path class="h" d="M64.914,66.488l-55-30.035q1.476,23.508,17.147,32.92T64.914,66.488Z" transform="translate(0.965 -0.645) rotate(1)"/><path class="i" d="M64.5,76.891a2,2,0,0,0,2-2c0-1.1-.9-6.891-2-6.891s-2,5.787-2,6.891A2,2,0,0,0,64.5,76.891Z"/><circle class="j" cx="1" cy="1" r="1" transform="translate(63.5 73.5)"/><path class="c" d="M16.742,104.1V90.07A8.989,8.989,0,0,1,25.648,81H45.835a8.989,8.989,0,0,1,8.906,9.07V104.1Q43.1,107,36.429,107T16.742,104.1Z"/></g></g></g></g></svg> 