<svg xmlns="http://www.w3.org/2000/svg" xmlns:xlink="http://www.w3.org/1999/xlink" width="122" height="123" xmlns:v="https://vecta.io/nano"><style><![CDATA[.B{fill:#000}.C{fill:#f0f0ed}.D{fill:#030000}.E{fill:#a5644f}.F{fill:#975238}.G{fill:#d0846a}.H{fill:#040000}.I{fill:#2e353a}.J{fill:#2c1117}.K{fill:#090000}.L{fill:#eb996e}.M{fill:#efefec}.N{fill:#a35d4b}.O{fill:#ffbe9d}.P{fill:#67ad72}.Q{fill:#263238}.R{fill:#fafafa}.S{fill:#4ea7ff}]]></style><defs><path id="A" d="M0 .875h18.216V26.84H0z"/><path id="B" d="M.016.945h15.872V8.75H.016z"/><path id="C" d="M.016.266h28.192v13.577H.016z"/></defs><g fill="none" fill-rule="evenodd"><circle fill="#e5edf5" cx="61" cy="61" r="61"/><g transform="translate(7 40)"><path d="M68.093 47.395l5.48 29.067s-8.6 5.49-22.307 5.372-13.964-7.57-13.964-7.57l2.583-23.516 28.207-3.354z" class="I"/><path d="M43.93 15.912s.146 10.255.79 10.805 10.22 9.932 14.922 4.14 1.786-14.26 1.786-14.26l-17.497-.685z" fill="#a56825"/><path d="M44.86 18.873s.082 5.644 3.02 6.78c0 0-1.423 1.944-1.054 2.823s4.35 2.602 5.272 2.162 2.574-5.607 2.574-5.607l-4.378-6.414-5.435.256z" class="D"/><path d="M55.845 23.723h-5.377c.134 7.1-3.128 8.576-3.128 8.576 2.068 3.592 5.817 3.372 5.817 3.372s3.748.22 5.816-3.372c0 0-3.26-1.466-3.128-8.576" fill="#bb715a"/><path d="M56.955 29.95c-.524-1.076-.972-2.608-1.086-4.762h-5.425c-.068 1.294-.256 2.366-.5 3.246 1.26.748 3.958 2.024 7.02 1.516" class="N"/><path d="M46.065 16.65s-1.1-1.748-2.2-1.144c-.622.34.258 5.056 2.43 4.69 0 0 .377-.15.357-.918l-.578-2.63z" class="G"/><path d="M44.4 16.072s-.508 1.856.36 2.234c0 0 .458.113.445.312s.267 1.503.746 1.052c0 0 .35-.624-.15-.818s-.156-.224.2-.726c0 0-.86-2.234-1.602-2.054" class="E"/><g class="F"><path d="M44.28 17.424c-.074-.332-.13-.67-.093-1.025.013-.09.03-.18.08-.277.03-.097.2-.2.315-.164a.75.75 0 0 1 .282.126c.075.055.145.113.206.176a4.36 4.36 0 0 1 .656.814 2.75 2.75 0 0 1 .241.471c.064.168.132.338.112.566l-.004.043-.033.036a2.16 2.16 0 0 0-.317.412c-.02.032-.034.07-.04.092-.01.032-.001.016-.008.025.018.01.014.01.096.028l.135.044c.05.028.105.082.15.128.037.05.048.104.07.155a.65.65 0 0 1-.008.311c-.017.1-.07.19-.127.27-.056.085-.146.132-.23.172.16-.106.232-.288.246-.46.01-.086-.01-.17-.036-.244-.032-.08-.073-.113-.117-.148l-.14-.03a.34.34 0 0 1-.17-.049c-.077-.052-.11-.164-.096-.227.005-.07.024-.123.045-.174.087-.2.212-.345.34-.5l-.037.078c.004-.247-.178-.57-.336-.838a4.27 4.27 0 0 0-.583-.784c-.054-.058-.116-.11-.173-.16-.073-.052-.088-.082-.163-.104-.048-.014-.06-.016-.102.04-.035.05-.063.126-.08.202-.07.312-.08.655-.082.993"/><path d="M44.662 17.834s-.096-.348-.06-.725c.012-.19.094-.38.193-.513.125-.11.228-.172.228-.172l.105.295s-.052.026-.148.065c-.076.07-.175.19-.225.358-.107.325-.093.692-.093.692"/></g><path d="M60.22 16.65s1.1-1.748 2.2-1.144c.622.34-.26 5.056-2.43 4.69 0 0-.38-.15-.358-.918l.578-2.63z" class="G"/><path d="M61.885 16.072s.507 1.856-.362 2.234c0 0-.457.113-.443.312s-.268 1.503-.746 1.052c0 0-.352-.624.148-.818s.156-.224-.2-.726c0 0 .862-2.234 1.604-2.054" class="E"/><g class="F"><path d="M62.006 17.424c-.003-.338-.014-.68-.084-.993-.018-.076-.044-.152-.08-.202-.04-.056-.055-.054-.104-.04-.075.022-.09.052-.163.104l-.172.16a4.27 4.27 0 0 0-.583.784c-.16.268-.34.59-.336.838l-.037-.078c.13.155.254.3.34.5.02.05.04.104.045.175a.25.25 0 0 1-.096.227c-.064.046-.164.048-.172.05l-.136.03c-.045.036-.085.067-.12.148a.55.55 0 0 0-.034.245c.01.17.084.352.245.458-.084-.04-.175-.087-.23-.17-.056-.078-.11-.17-.127-.27a.64.64 0 0 1-.007-.311c.023-.05.034-.106.07-.156.044-.046.1-.1.15-.128l.134-.044c.083-.018.08-.02.096-.028-.006-.01.002.007-.008-.025-.004-.023-.02-.06-.038-.092-.08-.14-.197-.287-.317-.412l-.033-.036-.004-.043c-.02-.228.048-.398.113-.566s.144-.324.24-.47c.188-.293.398-.57.655-.814a1.7 1.7 0 0 1 .207-.176c.062-.044.2-.116.282-.126a.3.3 0 0 1 .316.164.8.8 0 0 1 .078.277c.038.355-.018.693-.09 1.025"/><path d="M61.624 17.834s.015-.367-.094-.692c-.048-.167-.15-.29-.224-.358l-.148-.065.103-.295a1.93 1.93 0 0 0 .228.171c.102.134.182.324.194.514.037.377-.06.725-.06.725"/></g><path d="M52.55 27.154s-3.4-1.804-4.563-3.807c-.957-1.405-2.43-7.847-2.55-8.96l-.013-.1-.006-.054h.003l-.033-.697a7.77 7.77 0 0 1 7.769-7.769 7.77 7.77 0 0 1 7.77 7.769 7.48 7.48 0 0 1-.045.825h.002s-1.51 7.457-2.557 8.997c-1.23 2.297-4.56 3.807-4.56 3.807s-.47.348-1.215 0" class="G"/><path d="M46.072 16.4s.704-.275 2.857-4.136c2.117-3.793 4.36-2.76 4.36-2.76s2.36-1.492 6.735 6.454c1.1 2.012-.42-7.085-.42-7.085L52.4 8.32l-5.962.776s-1.368 6.37-.366 7.293" class="N"/><path d="M51.28 16.995s.12-.094.065-.305-1.97-1.812-3.247.142c0 0 1.812 1.768 3.182.163" class="C"/><path d="M50.726 16.727c0 .45-.367.816-.816.816s-.816-.365-.816-.816.364-.815.816-.815.816.364.816.815" class="J"/><path d="M50.294 16.727c0 .212-.172.384-.384.384s-.383-.172-.383-.384.17-.384.383-.384.384.172.384.384" class="H"/><path d="M48.765 17.318l-.717-.417-.073-.047.053-.07c.103-.144.18-.31.3-.44.116-.14.26-.254.417-.356.074-.057.167-.084.25-.128s.176-.063.268-.087c.18-.052.376-.05.556-.028.37.044.717.175 1.012.382a2.22 2.22 0 0 1 .409.345c.052.064.135.145.14.25s-.03.18-.06.262c.002-.086.004-.176-.013-.25-.02-.07-.087-.1-.154-.164a2.7 2.7 0 0 0-.424-.267c-.3-.142-.612-.26-.932-.282-.16-.016-.318.004-.47.033-.075.02-.156.028-.226.065s-.15.052-.215.098c-.14.08-.267.18-.384.294-.13.1-.222.244-.338.366l-.022-.116.617.556" class="D"/><path d="M49.75 16.448c0 .108-.086.195-.192.195s-.195-.087-.195-.195.086-.193.195-.193.192.087.192.193" class="C"/><g class="D"><path d="M48.276 16.727s-.267.52-.807.1c0 0 .373.116.825-.443l-.018.333z"/><path d="M47.582 16.326a.94.94 0 0 0 .451.089c.234-.01.417-.143.417-.143l.074.127c-.002-.001-.24.12-.492.088-.252-.015-.45-.16-.45-.16"/><path d="M47.965 16c0-.003.04.034.118.057.07.036.17.05.274.052.1.026.196-.034.266-.044l.117-.032.05.138-.142.015c-.083-.001-.194.04-.3-.003-.1-.023-.2-.057-.278-.107-.072-.036-.105-.078-.106-.076m3.93-1.554s-.347.36-1.713-.186c-1.507-.6-2.873-.202-3.007-.05 0 0 2.135-1.633 4.72.236"/></g><path d="M54.924 16.995s-.12-.094-.064-.305 1.97-1.812 3.247.142c0 0-1.813 1.768-3.183.163" class="C"/><path d="M55.478 16.727c0 .45.366.816.815.816s.817-.365.817-.816-.363-.815-.817-.815-.815.364-.815.815" class="J"/><path d="M55.912 16.727c0 .212.17.384.382.384s.384-.172.384-.384-.17-.384-.384-.384-.382.172-.382.384" class="H"/><path d="M57.438 17.318l.62-.556-.023.116c-.116-.122-.208-.265-.338-.366a1.98 1.98 0 0 0-.386-.294c-.063-.046-.144-.064-.215-.098s-.15-.046-.225-.065c-.153-.03-.31-.05-.47-.033-.32.022-.63.14-.933.28-.148.077-.293.166-.423.267-.067.055-.132.095-.152.165s-.018.164-.014.25a.64.64 0 0 1-.062-.262c.003-.104.085-.185.138-.25a2.15 2.15 0 0 1 .41-.345 2.21 2.21 0 0 1 1.011-.382c.183-.022.376-.023.557.028.092.025.186.042.268.087s.174.07.248.128c.156.102.302.215.418.356.128.13.21.295.312.44l.05.07-.074.047-.716.417" class="D"/><path d="M56.452 16.448c0 .108.088.195.195.195s.194-.087.194-.195-.087-.193-.194-.193-.195.087-.195.193" class="C"/><g class="D"><path d="M57.93 16.727a.49.49 0 0 0 .806.11s-.373.116-.826-.443l.02.333z"/><path d="M58.623 16.326s-.198.146-.45.16c-.25.032-.5-.09-.5-.088l.073-.127s.182.133.417.143c.23.022.45-.09.45-.09"/><path d="M58.242 16c-.002-.002-.036.04-.107.076a.74.74 0 0 1-.277.107c-.107.044-.218.002-.303.003l-.14-.015.05-.138.117.032c.07.01.167.07.266.044.102-.002.205-.016.275-.052.076-.023.117-.06.12-.057M54.3 14.446s.35.36 1.712-.186c1.508-.6 2.874-.202 3-.05 0 0-2.136-1.633-4.72.236"/></g><path d="M53.024 21.218s-.892-.382-.924-.125.494.378.924.125m.264 0s.892-.382.925-.125-.494.378-.925.125" class="F"/><path d="M50.902 22.725s1.486-.86 2.255-.582c0 0 .736-.268 2.255.582 0 0-.533 1.393-2.133 1.394-1.776 0-2.377-1.394-2.377-1.394" fill="#ee3a52"/><g fill="#b52744"><path d="M55.407 22.732c-.023-.02-.046-.032-.072-.046-1.088-.296-2.178-.297-2.178-.297-.305-.075-1.586.167-2.152.28l-.103.055 4.505.007z"/><path d="M51.028 22.802a2.94 2.94 0 0 0 2.192.886c1.35-.047 2.066-.742 2.192-.963l-4.384.077z"/></g><path d="M53.157 22.635c-.57-.074-2.255.09-2.255.09 1.155.733 2.255.66 2.255.66s1.098.073 2.255-.66c0 0-1.685-.165-2.255-.09" fill="#55010e"/><path d="M51.856 23.177c.74.245 1.3.21 1.3.21s.552.035 1.283-.204c-1.215-.52-2.182-.198-2.584-.005" fill="#f06362"/><path d="M54.636 23.472s-1.046.264-.877.412 1.102-.387.877-.412m-1.013.44s.026-.222-.7-.07.834.308.7.07" fill="#f27f93"/><path d="M46.438 20.11a.58.58 0 0 1-.579.578c-.32 0-.577-.26-.577-.578s.258-.576.577-.576.58.257.58.576" fill="#ea882d"/><path d="M46.202 20.11c0 .19-.152.344-.343.344s-.344-.155-.344-.344.155-.344.344-.344.343.155.343.344" fill="#b06226"/><path d="M60.974 20.11c0 .32-.257.578-.576.578a.58.58 0 0 1-.579-.578c0-.32.26-.576.58-.576s.576.257.576.576" fill="#ea882d"/><path d="M60.74 20.11c0 .19-.152.344-.342.344s-.345-.155-.345-.344.155-.344.345-.344.342.155.342.344" fill="#b06226"/><g class="D"><path d="M45.282 15.873s.654 1.33 1.36-.69c.604-1.716 4.26-8.474 6.513-6.202V4.558s-.29-1.5-1.81-1.294c-1.666.213-7.915 1.368-6.4 12.288l.327.32z"/><path d="M61.03 15.873s-.653 1.33-1.363-.69c-.6-1.716-4.257-8.473-6.51-6.202V4.558s.29-1.5 1.812-1.294c1.665.213 7.79 1.514 6.39 12.288l-.327.32z"/></g><g class="B"><path d="M53.156 8.98V4.557s-.02-.107-.08-.26l-.052.275c-2.063-.844-3.466.512-3.466.512 2.606-.624 3.18 1.1 3.18 1.1-1.43-.367-2.6.586-2.6.586 1.98-.386 2.886 1.026 2.886 1.026C50.6 6.587 47.88 11.46 47.88 11.46c.2-1.064 1.484-3.14 1.484-3.14-1.437 1.368-2.926 4.79-2.926 4.79.84-4.4 2.656-6.89 2.656-6.89-3.572 3.042-3.58 8.454-3.58 8.454-.667-3.763.402-7.14 1.23-9.05-1.472 1.72-2.52 4.71-1.79 9.927l.327.322s.654 1.33 1.36-.692c.604-1.716 4.26-8.473 6.513-6.2"/><path d="M61.548 13.35c-.192-1.015-.573-1.878-.573-1.878.292 1.123.148 2.956.148 2.956-.517-3.248-2.615-5.89-2.615-5.89 1 1.443 2.2 6.133 1.877 6.133s-2.757-4.788-3.544-6.018-3.102-.7-3.102-.7c.853-1.32 2.397-.88 2.397-.88-1.392-.93-2.565-.465-2.565-.465.858-1.32 3.422 0 3.422 0-1.638-1.687-3.422-1.295-3.422-1.295.952-.84 2.723 0 2.723 0-1.078-.962-2.735-.635-3.138-.537v4.2c2.254-2.272 5.912 4.485 6.51 6.2.7 2.022 1.363.69 1.363.69l.328-.32.2-2.2"/></g><path d="M51.354 22.686h0s1.93.75 3.49-.01c-.542-.043-1.33-.09-1.686-.043-.383-.05-1.263.01-1.803.052" fill="#fff"/><path d="M58.242 29.7c-2.072 1.48-4.282 1.45-4.282 1.45-9.098-.712-10.353-13.694-8.254-19.833 2.07-6.06 7.436-5.283 7.436-5.283C66.03 7.4 58.242 29.7 58.242 29.7m8.638 3.67s-.635-1.3-1.27-1.554-1.505-.746-2.203-1.333c0 0-.626-3.535-1.142-4.317 0 0 3.666-15.75-1.338-21.306-3.566-3.957-8.364-2.64-8.364-2.64s-6.738-.976-8.9 8.406 0 16.312 0 16.312-1.195 1.264-1.733 3.77c0 0-.975.33-2.05 1.453s-2.563 1.857-2.906 2.004c0 0-1.22.63-2.394 1.51s-1.514 4.747-1.514 7.923-.927 13.682-1.563 15.15c0 0 1.172 1.173 3.077 1.465 0 0-.587 2.443-.244 2.835s12.588.65 19.405-4.334c0 0 2.175 2.2 2.322 2.248s3.665-.196 5.765-2.102c0 0 1.565.978 2.103.88s2.54-3.958 3.665-4.398c0 0 1.17.928 1.757.83s4.204-5.034 4.45-7.183c0 0-.5-9.3-1.527-11.5s-3.536-2.7-5.393-4.117z" fill="#fde37b"/><path d="M73.8 48.988s-.5-9.3-1.526-11.5a4.03 4.03 0 0 0-.439-.734C58.154 58.676 42.27 60.15 34.423 60.946c-.145.752-.31 1.85-.09 2.1.343.39 12.588.65 19.405-4.334 0 0 2.175 2.2 2.323 2.248s3.665-.196 5.764-2.102c0 0 .04.025.11.066l10.767-7.202c.577-1.03 1.02-2.032 1.098-2.734" fill="#e2c863"/><path d="M15.62 22.726c.072-.987-.81-2.35-1.626-3.134s-1.322-1.845-.896-3.425c.33-1.22 1.102-1.13 1.408-1.846.226-.532.132-1.138.178-1.713.16-1.977 2.335-3.527 4.255-3.032.54-1.88 2.294-3.348 4.24-3.55s3.962.873 4.88 2.6c1.1-.577 2.51-.556 3.603.052a3.87 3.87 0 0 1 1.942 3.034c1.082-.78 2.744-.48 3.6.544s.91 2.593.26 3.76-1.91 1.925-3.23 2.128-2.684-.11-3.88-.705-2.235-1.463-3.182-2.404" class="K"/><path d="M22.992 46.38h0c3.17.005 5.782-2.456 5.94-5.592l.253-5.195s3.408-1.6 4.8-4.442c.663-1.347.62-5.12.826-7.238.45-4.594.156-9.052.156-9.052-5.35-2.808-11.813-2.527-16.893.735l-.46.296-.56 24.536c-.036 3.272 2.63 5.947 5.93 5.952" class="O"/><path d="M29.597 27.124c.004-.04.398-.03 1.03.018.164.016.296.01.323-.058.046-.074.015-.228-.033-.4l-.262-1.12c-.353-1.593-.562-2.894-.465-2.905s.46 1.273.814 2.866l.236 1.124c.025.165.098.365-.033.567-.067.1-.21.155-.322.158s-.203-.012-.28-.023c-.628-.102-1.014-.185-1.01-.225" class="E"/><path d="M29.184 35.592s-3.047 0-6.1-2.263c0 0 1.197 3.535 6 3.493l.1-1.23z" class="L"/><path d="M17.506 22.854a.72.72 0 0 0-.678-.732c-.894-.042-2.364.28-2.55 2.725-.263 3.49 3.146 2.686 3.16 2.586.01-.078.05-3.22.068-4.58" class="O"/><path d="M16.686 26.045c-.015-.013-.064.038-.172.077a.62.62 0 0 1-.46-.024c-.362-.164-.63-.773-.6-1.404.014-.318.105-.616.237-.858s.307-.413.497-.432c.2-.03.314.092.35.194s.012.17.03.176c.01.01.08-.052.063-.2a.39.39 0 0 0-.122-.229.47.47 0 0 0-.333-.114c-.273-.001-.536.228-.682.494a2.05 2.05 0 0 0-.287.957c-.03.705.284 1.4.782 1.574.243.083.455.024.568-.05s.14-.155.128-.162m10.57-3.374s-.383-2.093-2.47-1.63c-1.3.292-1.045 1.75-1.045 1.75l3.514-.12z" class="L"/><path d="M27.185 22.994s.126-.1.068-.323-2.09-1.924-3.444.15c0 0 1.92 1.875 3.376.173" class="M"/><path d="M26.597 22.7c0 .48-.388.865-.866.865s-.865-.386-.865-.865.388-.866.865-.866.866.388.866.866" fill="#2a191d"/><path d="M26.138 22.7c0 .225-.182.407-.408.407s-.406-.182-.406-.407.182-.407.406-.407.408.18.408.407" class="H"/><path d="M24.516 23.338l-.76-.443-.077-.05.054-.074c.11-.153.194-.328.33-.465a1.88 1.88 0 0 1 .443-.379c.08-.06.175-.1.264-.135s.187-.066.283-.094c.192-.053.398-.052.592-.03.39.046.76.187 1.073.405.155.11.307.222.434.367.056.066.142.153.147.263 0 .104-.032.192-.066.28.004-.092.006-.187-.014-.265s-.092-.117-.162-.176c-.14-.107-.293-.202-.45-.282-.32-.152-.65-.277-1-.3-.17-.018-.337.004-.5.036-.082.02-.165.028-.24.067s-.16.055-.228.106a1.96 1.96 0 0 0-.407.311c-.14.107-.237.258-.36.388l-.024-.123.654.59" class="B"/><path d="M25.564 22.414c0 .113-.092.206-.207.206s-.205-.093-.205-.206.092-.206.205-.206.207.093.207.206" class="M"/><path d="M27.84 20.29s-.37.38-1.818-.197c-1.597-.638-3.05-.214-3.19-.056 0 0 2.265-1.73 5.007.253" class="B"/><path d="M30.824 22.98s.383-2.093 2.47-1.63c1.3.292 1.044 1.75 1.044 1.75l-3.513-.12z" class="L"/><path d="M30.892 23.302s-.127-.1-.068-.323 2.09-1.924 3.443.15c0 0-1.92 1.875-3.375.173" class="M"/><path d="M31.48 23.018c0 .48.39.865.867.865s.865-.386.865-.865-.39-.866-.865-.866-.867.388-.867.866" fill="#2a191d"/><path d="M31.94 23.018c0 .225.182.407.408.407s.406-.182.406-.407-.183-.407-.406-.407-.408.18-.408.407" class="H"/><path d="M33.56 23.646l.76-.443.077-.05-.054-.074c-.1-.153-.194-.328-.33-.465a1.92 1.92 0 0 0-.443-.379c-.08-.06-.176-.09-.265-.135s-.187-.066-.283-.094a1.55 1.55 0 0 0-.591-.029c-.39.046-.762.188-1.073.405-.155.11-.308.222-.434.367-.056.067-.143.153-.147.263-.001.104.032.192.065.28-.003-.092-.006-.187.015-.265s.092-.117.162-.176c.14-.107.292-.202.45-.282.32-.152.65-.277 1-.3.17-.018.337.004.498.036.083.02.165.028.24.067s.16.055.228.106c.148.084.28.19.407.31.14.107.237.258.36.388l.023-.123-.654.59" class="B"/><path d="M32.513 22.722c0 .113.092.206.206.206s.205-.093.205-.206-.09-.206-.205-.206-.206.093-.206.206" class="M"/><path d="M30.24 20.6s.37.38 1.818-.197c1.596-.638 3.05-.214 3.188-.056 0 0-2.264-1.73-5.006.253" class="B"/><path d="M35.65 16.362s-2.877 1.393-6.622-.477c-2.456-1.226-5.32-1.825-5.952-1.33s-.765 3.026-3.198 3.765c0 0 .167 4.83-1.76 4.658s-.723-7.654-.723-7.654l4.712-2.3 5.142-.97 4.843.683 3.75 1.026-.192 2.602z" class="K"/><path d="M3.407 44.312C8.44 39.135 17.303 39.7 17.303 39.7l7.345 5.258 4.166-4.85s4.377.48 8.48 2.624l.283.087-.004.058c3.222 1.75 4.39 9.08 8.738 13.152l-1.808 1.694-5.757 5.11s.022.038.01.103c-.06.3.8 7.34 1.68 12.68-5.243 5.003-11.925 7.145-19.344 5.844-2.356-.412-3.496-.986-5.676-1.558-3.223-.846-5.56-3.64-5.848-6.96-.392-4.478-.69-10.022-.69-10.022" class="P"/><g class="Q"><path d="M33.42 41.012c.018-.006.13.288.316.826l.747 2.29 2.1 7.665 1.622 7.784.38 2.38.095.88c-.018.003-.088-.304-.198-.86l-.464-2.362-1.697-7.757-2.03-7.674-.666-2.314-.217-.857"/><path d="M38.15 59.52c-.047-.058 2.15-1.924 4.905-4.17l5.074-3.96c.046.057-2.15 1.923-4.906 4.168L38.15 59.52"/></g><g class="B"><path d="M10.053 51.42L5.547 66.243l1.677.872 1.653-4.192s1.7-8.807 1.176-11.503"/><path d="M32.93 41.02c2.43 1.28-3.66 4.362-6.408 4.28l1.996-5.268s3.597.56 4.412.99" opacity=".4"/></g><path d="M16.58 40.032v-3.926s7.667 1.974 7.945 6.56c0 0 .976-5.07 4.926-5.314l.558 7.133-4.597 4h-4.66l-3.69-3.183-.482-4.954" class="P"/><path d="M26.25 64.67c-.02-.001-.022-.302-.014-.844l.025-2.297-.298-7.563-.955-7.5-.403-2.26-.126-.835c.018-.003.1.287.228.814l.487 2.25c.375 1.906.788 4.564 1.035 7.52s.276 5.647.22 7.6l-.108 2.298-.1.84m-2.08-23.327c-.003.023-.174-.066-.455.042-.293.095-.555.46-.77.98a22.31 22.31 0 0 0-1.458 4.243l-.04.174-.154-.093-1.4-.897c-.916-.624-1.754-1.26-2.487-1.888-.368-.317-.67-.7-.845-1.1a3.46 3.46 0 0 1-.26-1.183c-.03-.74.1-1.322.17-1.717.086-.397.15-.612.168-.608s-.01.226-.066.625c-.047.398-.136.98-.084 1.687a3.42 3.42 0 0 0 .273 1.105c.17.372.446.712.806 1.014.725.606 1.567 1.236 2.474 1.853l1.387.894-.196.082a19.43 19.43 0 0 1 1.56-4.256c.127-.25.25-.484.403-.66a1.02 1.02 0 0 1 .49-.332c.325-.1.496.04.484.044m5.278-3.992c.02-.001.042.218.07.612l.123 1.67.287 2.46c.056.455.216.948.092 1.507-.16.55-.57.958-1 1.288-.614.457-1.255.8-1.686 1.282l-.205.23-.02-.306a9.19 9.19 0 0 0-1.132-3.823c-.488-.874-.9-1.324-.858-1.35.01-.008.12.095.303.303a7.51 7.51 0 0 1 .695.966 8.76 8.76 0 0 1 1.248 3.887l-.223-.077c.468-.532 1.13-.885 1.717-1.324.418-.3.786-.697.916-1.14.1-.45-.026-.94-.082-1.407l-.23-2.484-.038-1.68.032-.616m24.68.987c-.312.367-11.6 15.46-11.6 15.46l1.6.9 11.583-14.9-1.572-1.46z" class="Q"/><path d="M10.944 48.903s9.553 21.51 9.997 20.856c2.352-3.46 14.13-9.996 19.23-15.323.212-.285.595-2.31 1.46-3.507 0 0 1.747-5.9 3.114-5.448s-.75 2.98.14 5.208 4.97-3.086 5.134-3.563l1.052-1.375s.963 3.128 1.028 4.434c.248 4.903-7.598 7.54-7.598 7.54S30.124 81.37 17.946 82.05c-3.508.198-9.74-9.754-13.907-17.217-2.517-4.507-1.26-10.184 2.9-13.225l3.995-2.706z" class="O"/><path d="M50.102 50.928c-.04-.024.34-.696.76-1.548l.77-1.545c.04.015-.2.757-.626 1.616s-.87 1.5-.904 1.477" class="L"/><g transform="translate(0 41.055)"><mask id="D" fill="#fff"><use xlink:href="#A"/></mask><path d="M6.773.875s-12.745 4.53-3.27 25.964l14.713-8.88-2.092-5.012L6.773.875z" mask="url(#D)" class="P"/></g><path d="M5.797 42.3s.557-.092 1.534.13a6.2 6.2 0 0 1 1.672.705c.61.365 1.242.878 1.856 1.523 1.238 1.29 2.392 3.09 3.462 5.172 1.08 2.084 2.085 4.458 3.117 6.952l.902 2.18.046.1-.105.057c-4.256 2.32-7.963 4.494-10.584 6.12l-3.07 1.943-.826.53c-.2.12-.29.178-.296.17s.088-.08.268-.213l.8-.568c.7-.5 1.73-1.18 3.03-2.013 2.597-1.67 6.294-3.872 10.55-6.202l-.058.167-.904-2.18c-1.032-2.493-2.028-4.862-3.088-6.94-1.053-2.08-2.18-3.87-3.38-5.156-.597-.643-1.21-1.156-1.798-1.526a6.36 6.36 0 0 0-1.62-.732c-.95-.248-1.51-.192-1.508-.23" class="Q"/><path d="M33.214 10.524c.01-.002.03.074.063.224.024.15.056.374.038.665a3.5 3.5 0 0 1-.973 2.222c-.7.772-2.066 1.26-3.43.867-.668-.196-1.343-.603-1.757-1.274-.2-.332-.32-.745-.262-1.16.055-.405.26-.816.63-1.06.37-.25.856-.244 1.232-.08a1.57 1.57 0 0 1 .842.847c.3.754.08 1.568-.337 2.134-.884 1.17-2.482 1.265-3.366.732-.468-.215-.88-.417-1.27-.487a1.59 1.59 0 0 0-.98.103c-.504.243-.707.5-.73.482-.007-.007.045-.068.15-.177a1.09 1.09 0 0 1 .21-.188c.088-.07.2-.15.327-.2.257-.138.633-.228 1.05-.158.42.062.854.26 1.32.46.234.095.48.2.74.245a2.35 2.35 0 0 0 .826-.015c.567-.102 1.147-.412 1.526-.934.37-.5.555-1.253.294-1.887-.23-.62-1.093-1.04-1.687-.645-.3.188-.467.53-.514.87s.05.693.225 1c.36.597.98.986 1.6 1.17 1.267.378 2.542-.054 3.226-.762.713-.7.944-1.548 1.003-2.1.06-.563-.026-.877.003-.88m.847 1.715c.023-.012.213.33.247.943.038.602-.137 1.496-.762 2.222-.63.723-1.5 1.022-2.092 1.07-.613.054-.977-.085-.968-.1.006-.046.373.022.943-.077.562-.1 1.34-.4 1.915-1.057s.764-1.475.775-2.045c.016-.578-.103-.932-.058-.945" fill="#455a64"/><g fill="#e0e0e0"><path d="M16.698 55.208c.032.065-3.353 1.807-7.56 3.887l-7.68 3.648c-.032-.066 3.352-1.806 7.56-3.888l7.68-3.647m-3.086-5.823c.035.065-2.98 1.75-6.73 3.764L.026 56.677c-.035-.064 2.978-1.75 6.73-3.764l6.855-3.528m-2.98-4.708c.018.033-.562.366-1.507.892L5.44 47.625l-3.667 2.1-1.543.828c-.02-.03.53-.412 1.445-1l3.633-2.162 3.728-2 1.596-.725m11.274-1.093c-.007.03-.4-.02-1-.267-.6-.24-1.354-.705-2.076-1.35s-1.285-1.32-1.675-1.814-.607-.817-.58-.84.3.255.723.718l1.708 1.736a9.54 9.54 0 0 0 1.978 1.38l.912.438m7.49-2.782c.065.02-.246.854-1.066 1.54-.815.692-1.7.857-1.7.8-.025-.077.765-.343 1.527-.993.77-.64 1.167-1.373 1.238-1.335m13.35 7.726c.001.01-.098.027-.286.053l-.826.102-3.046.28c-2.575.205-6.138.406-10.076.55-3.94.138-7.508.192-10.1.17l-3.06-.06-.83-.043c-.2-.013-.3-.024-.3-.033s.1-.016.3-.02l.83-.008 3.057-.023L28.5 49.23l10.072-.472 3.05-.195.83-.05c.2-.01.3-.01.3 0m-4.052 6.08c.002.02-.298.065-.844.133l-2.312.24-7.657.488-7.672.13-2.326-.054-.85-.064c0-.018.304-.03.852-.04l2.324-.03 7.662-.2 7.653-.4 2.318-.157.853-.03m-9.213 7.504c.004.035-.646.13-1.7.24l-4.133.307-4.144.105-1.716-.07c0-.037.655-.073 1.713-.12l4.133-.183 4.13-.228 1.717-.05"/><path d="M17.723 44.287c-.002.076-1.576.094-3.515.175l-3.517.114c-.008-.07 1.557-.303 3.507-.382s3.528.022 3.525.093M39.382 44c0 .074-2.043.126-4.562.116l-4.56-.15c0-.074 2.042-.126 4.562-.116l4.56.15m.788 31.25c.008.017-.158.1-.468.27l-1.335.608a29.25 29.25 0 0 1-4.61 1.475 28.89 28.89 0 0 1-4.793.693l-1.467.037-.538-.036c-.001-.043.764-.072 2-.2a37.4 37.4 0 0 0 4.747-.764 37.3 37.3 0 0 0 4.603-1.391l1.872-.7"/></g><path d="M85.93 36.245s-1.588-1.8-1.455-10.59h-8.477c.133 8.78-1.657 10.59-1.657 10.59" fill="#bb715a"/><path d="M85.005 33.344c-.432-1.72-.42-3.485-.567-6.144l-4.444.265-4.045-.382-.1 4.4" class="N"/><path d="M89.107 17.81s1.24-2.457 2.67-1.732c.8.406.07 6.862-2.67 6.55 0 0-.484-.172-.52-1.213l.52-3.605z" class="G"/><path d="M91.14 16.89s.776 2.47-.28 3.057c0 0-.562.2-.53.458s-.215 2.056-.848 1.483c0 0-.49-.813.12-1.116s.18-.318-.306-.966c0 0 .904-3.097 1.843-2.916" class="E"/><path d="M91.394 18.71c-.033-.45-.073-.903-.18-1.32a1.07 1.07 0 0 0-.109-.278c-.057-.076-.088-.08-.118-.064-.1.038-.1.077-.204.155l-.205.235c-.267.336-.485.724-.67 1.117-.177.38-.38.825-.353 1.166l-.05-.095c.175.196.343.386.464.644.028.065.057.134.066.223.02.078-.006.217-.096.3-.077.072-.216.087-.22.088l-.177.056a.24.24 0 0 1-.07.079l-.06.138c-.02.104-.042.217-.02.33.002.06.013.116.035.17s.03.117.066.16c.055.11.136.19.24.266-.113-.048-.23-.1-.308-.22-.05-.046-.068-.11-.105-.165a.56.56 0 0 1-.071-.182c-.044-.126-.05-.265-.04-.405l.066-.2c.05-.07.114-.14.178-.196l.172-.073c.11-.035.097-.035.118-.047-.003.01-.006-.077-.067-.17-.11-.18-.267-.374-.43-.535l-.045-.046-.005-.05c-.046-.567.163-.978.35-1.406.213-.412.453-.806.758-1.167a2.18 2.18 0 0 1 .251-.259c.07-.066.247-.186.36-.2.192-.055.377.11.422.228.056.124.088.244.104.36.066.468.022.92-.047 1.368" class="F"/><path d="M71.29 17.81s-1.24-2.457-2.67-1.732c-.803.406-.07 6.862 2.67 6.55 0 0 .484-.172.52-1.213l-.52-3.605z" class="G"/><path d="M69.255 16.89s-.774 2.47.28 3.057c0 0 .56.2.528.458s.217 2.056.85 1.483c0 0 .488-.813-.123-1.116s-.177-.318.31-.966c0 0-.9-3.097-1.844-2.916" class="E"/><path d="M69 18.71c-.068-.447-.112-.9-.047-1.368a1.37 1.37 0 0 1 .105-.361c.046-.12.23-.283.422-.228.114.015.288.136.363.2.09.082.174.17.25.26.304.36.544.753.758 1.165.188.428.397.84.35 1.406l-.005.052-.046.044a3 3 0 0 0-.428.535c-.063.092-.065.18-.068.17.02.012.005.012.118.047l.172.073a1.23 1.23 0 0 1 .178.195c.027.07.045.14.066.21a.98.98 0 0 1-.039.406.57.57 0 0 1-.071.182c-.036.057-.052.12-.104.166-.077.11-.194.172-.308.22.105-.075.186-.157.24-.266.038-.044.044-.11.067-.163a.48.48 0 0 0 .034-.17c.02-.114-.002-.228-.024-.33l-.058-.138c-.033-.024-.05-.046-.07-.08l-.177-.055c-.007 0-.147-.017-.224-.09-.088-.084-.112-.222-.095-.3.012-.09.04-.157.07-.222.12-.258.287-.448.463-.645l-.05.095c.026-.34-.176-.786-.352-1.165-.185-.393-.404-.78-.67-1.117a2.12 2.12 0 0 0-.207-.234c-.093-.08-.093-.118-.2-.156-.033-.016-.06-.013-.12.064-.046.077-.084.173-.1.278-.106.416-.15.87-.18 1.32" class="F"/><path d="M79.138 31.707s-4.704-3.17-6.152-5.067c-1.324-1.737-2.236-9.692-2.385-11.066l-.015-.138-.007-.067h.002c-.024-.283-.04-.57-.04-.86a9.6 9.6 0 0 1 9.595-9.595c5.3 0 9.594 4.295 9.594 9.595a10.07 10.07 0 0 1-.054 1.018s-.942 9.21-2.39 11.112c-1.448 1.898-6.154 5.067-6.154 5.067" class="G"/><path d="M80.232 25.567L77.1 25.4c.184.864 1.747 1.167 3.122 1.17s2.938-.305 3.124-1.17l-3.124.177" class="C"/><path d="M69.748 16.093s.958.506 1.35 2.492c0 0 .527-.907.71-2.808s.498-2.432 1.197-3.767c0 0 1.7-2.766.956-5.363-.475-1.658-2.98-2.464-3.923-.634-1.852 3.597-.672 9.42-.3 10.08" class="K"/><path d="M83.63 15.605s-.61.515-1.14 1.128a5.52 5.52 0 0 0-.647.897c-.074.132-.107.253-.144.335l-.05.132.028-.137c.022-.085.036-.218.1-.364a5.51 5.51 0 0 1 .504-1.022c.43-.71.974-1.35.974-1.35l.384.382z" class="F"/><path d="M78.647 14.56s-.156 1.242-.62 1.346c-1.296.293-3.6-1.08-5.54.406 0 0 .14-1.247 1.27-1.623s4.515.073 4.9-.13m3.317.108s.1 1.232.533 1.315c1.246.234 3.57-1.25 5.374.15 0 0-.077-1.24-1.157-1.563s-4.396.282-4.75.098" class="B"/><path d="M78.077 18.557s.142-.256.074-.516-2.43-2.238-4 .174c0 0 1.76 2.457 3.936.342" class="C"/><path d="M77.387 18.087c0 .558-.45 1.008-1.007 1.008a1.01 1.01 0 0 1-1.008-1.008 1.01 1.01 0 0 1 1.008-1.007c.558 0 1.007.452 1.007 1.007" class="J"/><path d="M76.85 18.087c0 .262-.21.475-.472.475s-.474-.213-.474-.475.212-.473.474-.473.472.212.472.473" class="H"/><path d="M74.887 18.935l-1.083-.604.1-.264c.133-.17.24-.354.395-.506s.316-.3.512-.4a1.13 1.13 0 0 1 .294-.154c.104-.04.2-.098.312-.113a1.98 1.98 0 0 1 .656-.066c.437.034.84.183 1.198.387a3.67 3.67 0 0 1 .504.348c.077.07.158.13.224.21s.138.145.183.266c.005.162-.05.304-.078.447 0-.15.025-.293-.006-.43l.003.005c-.1-.127-.283-.243-.436-.346-.164-.1-.335-.19-.512-.26-.352-.142-.726-.22-1.085-.198a1.89 1.89 0 0 0-.973.341c-.294.19-.51.5-.735.775l.078-.086.44.658z" class="D"/><path d="M76.184 17.743a.24.24 0 0 1-.24.24c-.13 0-.24-.108-.24-.24a.24.24 0 0 1 .48 0m6.37.814s-.143-.256-.075-.516 2.43-2.238 4.008.174c0 0-1.76 2.457-3.933.342" class="C"/><path d="M83.245 18.087c0 .558.45 1.008 1.008 1.008a1.01 1.01 0 0 0 1.008-1.008 1.01 1.01 0 0 0-1.008-1.007 1.01 1.01 0 0 0-1.008 1.007" class="J"/><path d="M83.78 18.087c0 .262.21.475.474.475s.472-.213.472-.475a.47.47 0 0 0-.472-.473c-.263 0-.474.212-.474.473" class="H"/><path d="M85.744 18.935l.42-.688.098.116h-.001c-.227-.285-.444-.584-.735-.776-.284-.206-.62-.31-.973-.34a2.52 2.52 0 0 0-1.084.199c-.177.07-.348.16-.512.26-.154.103-.336.218-.437.345l.002-.006c-.027.14-.005.283-.002.432-.028-.143-.083-.284-.083-.44.048-.128.118-.194.186-.273s.147-.14.222-.2a3.72 3.72 0 0 1 .505-.349c.358-.204.76-.353 1.2-.387a2 2 0 0 1 .655.065c.11.016.207.075.313.114a1.15 1.15 0 0 1 .292.154c.196.1.354.26.512.4s.263.337.393.504l.114.266-.165.09-.92.513z" class="D"/><path d="M84.447 17.743c0 .132.108.24.243.24a.24.24 0 0 0 .237-.24.24.24 0 1 0-.48 0" class="C"/><path d="M81.1 19.78s-.13 1.792-.055 3.008c.04.657-.296 1.04-.61 1.106 0 0 1.327.2 1.527-1.038.135-.842-.66-1.764-.86-3.076" class="E"/><path d="M79.742 23.766s-1.27-.444-1.062-.048 1.062.048 1.062.048" class="F"/><path d="M77.205 1.035s-6.32.453-5.758 4.435l2.124 2.444s2.44 3.456 5.74 4.182c0 0-1.77-1.088-2.537-1.744 0 0 3.4 1.844 7.148 2.178 0 0-2.39-.814-3.28-1.96 0 0 2.332 1.672 6.632 1.96 0 0-1.632-.525-2.242-1.16 0 0 2.2.595 2.92 1.16s1.345 5.094 1.345 5.094.43-.75 1.06-1.354c0 0 1.04-5.68.602-7.223-.458-1.61-2.63-8.6-13.754-8.012" class="K"/><g class="B"><path d="M75.32 1.368c-1.812.47-4.23 1.574-3.872 4.102l2.124 2.444s2.438 3.456 5.74 4.182c0 0-1.77-1.088-2.537-1.744 0 0 3.4 1.844 7.148 2.178 0 0-2.39-.814-3.28-1.96 0 0 2.33 1.672 6.632 1.96 0 0-1.633-.525-2.242-1.16 0 0 2.2.595 2.92 1.16s1.345 5.094 1.345 5.094.43-.75 1.06-1.354c0 0 1.04-5.68.602-7.223l-.072-.243c-1.863 3.975-16.508-1.842-18.132-3.89-1.05-1.33.854-2.676 2.564-3.547"/><path d="M70.854 10.854c-1.04-1.674-1.175-4.885.724-5.882-.607.035-1.183.35-1.54 1.04-1.852 3.597-.672 9.42-.3 10.08 0 0 .958.506 1.35 2.492 0 0 .527-.907.71-2.808.068-.708.153-1.226.272-1.664-.223-.94-.615-2.28-1.225-3.26"/></g><g transform="translate(75 .055)"><mask id="E" fill="#fff"><use xlink:href="#B"/></mask><path d="M.41 1.288c-.39.314-.543.704-.222 1.186 1.188 1.765 12.154-1.117 15.7 6.275C15.296 6.784 12.846.417 2.205.98" fill="#2b101a" mask="url(#E)"/></g><path d="M84.43 25.006c-.88-.68-4.054-.883-4.054-.883s-3.176.204-4.054.883-.63 1.554-.63 1.554.453-1.027 1.087-.9c.357.074 3.597.318 3.597-.678 0 .996 3.234.663 3.6.678.496.025 1.085.778 1.085.778s.25-.753-.63-1.433" class="B"/><path d="M79.43 72.4c-.007.008-.148-.1-.398-.302l-.462-.357-.63-.446-.794-.497c-.287-.176-.6-.335-.945-.508-.683-.328-1.454-.643-2.29-.897a16.29 16.29 0 0 0-2.406-.507l-1.07-.093c-.336-.025-.65-.024-.936-.022-.287-.007-.545.018-.772.026l-.583.045-.498.035c-.002-.01.173-.042.49-.092.16-.028.354-.055.583-.07l.776-.048.945.003c.34.003.7.044 1.08.08.757.093 1.585.25 2.43.5.845.256 1.623.58 2.307.916l.948.526c.294.17.555.35.8.516.242.158.442.327.623.466s.33.27.45.38l.36.347" class="R"/><g class="S"><path d="M62.884 60.304L64.9 47.417c.902-3.843 1.97-7.535 3.768-7.972v1.19l-.77 29.19s-1.236.07-5.245-2.305c-.14-.702-.198-1.42-.173-2.152l.413-5.06z"/><path d="M86.794 36.566c4.687.897 9.965 3.632 12.393 10.634l7.34 21.422-11.004-.23-1.793-3.9.875 6.31.746 9.002-27.788.468.195-13.56.266-26.97s.313-.4 5.104-3.052c2.977-1.643 13.667-.134 13.667-.134"/></g><path d="M89.566 54.594c.456 5.693.982 7.452 1.438 13.146.043.538.09 1.086.3 1.583s.62.94 1.15 1.047c.81.165 1.86.75 2.1-.044l-.768-5.483s-.182-1.03-.76-2.314c-1.705-3.786-2.337-4.007-3.45-7.935" opacity=".3" class="B"/><path d="M73.127 39.618l.092-.592.888-5.68a.66.66 0 0 1 .708-.557l10.942.913a1.26 1.26 0 0 1 1.149 1.346l-.243 3.3-3.417 4.458-4.92.767" class="S"/><path d="M67.634 50.3c.042 0 .075 4.45.075 9.94l-.075 9.942c-.04 0-.074-4.45-.074-9.942l.074-9.94m28.12 19.003c-.003.001-.015-.02-.036-.064l-.1-.196-.333-.756-1.2-2.792-3.908-9.233-2.136-5.1a9.53 9.53 0 0 1-.707-2.31 12.73 12.73 0 0 1-.191-2.098c-.013-1.3.18-2.33.438-3.005l.1-.238.1-.2c.06-.126.115-.23.172-.306l.122-.178.046-.056c.02.01-.242.322-.474 1-.24.672-.414 1.706-.388 2.984.035 1.27.2 2.817.92 4.356l2.146 5.086 3.87 9.25 1.157 2.8.307.767.077.2.02.07" class="I"/><path d="M90.205 37.556s-.102.105-.32.277a4.94 4.94 0 0 1-1.048.612c-.486.2-1.1.397-1.85.518a23.54 23.54 0 0 1-2.53.25l-3.076.045c-1.102.026-2.286.097-3.48.424-1.183.318-2.403.907-3.272 1.93a4.47 4.47 0 0 0-.908 1.795 3.82 3.82 0 0 0 .033 2.056 3.23 3.23 0 0 0 .481.92c.2.272.48.497.778.654s.634.238.96.203.63-.194.842-.433c.432-.5.513-1.2.426-1.82a3.08 3.08 0 0 0-.273-.9 4.47 4.47 0 0 0-.512-.771c-.786-.95-1.9-1.497-2.947-1.746a6.27 6.27 0 0 0-3.018.034c-.907.225-1.678.6-2.3.987a10.54 10.54 0 0 0-1.53 1.14l-.87.84-.214.23-.077.075s.347-.472 1.12-1.2a10.35 10.35 0 0 1 1.525-1.166c.634-.397 1.4-.783 2.33-1.02a6.34 6.34 0 0 1 3.072-.052c1.08.248 2.2.803 3.025 1.78.2.246.384.506.532.797a3.2 3.2 0 0 1 .289.94c.048.33.048.67-.018 1.006a1.97 1.97 0 0 1-.44.933 1.46 1.46 0 0 1-.936.48c-.36.035-.728-.048-1.046-.218a2.6 2.6 0 0 1-.826-.694 3.44 3.44 0 0 1-.506-.966c-.217-.703-.2-1.45-.035-2.14a4.54 4.54 0 0 1 .94-1.853c.9-1.053 2.148-1.648 3.35-1.97 1.2-.328 2.407-.393 3.512-.414l3.075-.026 2.52-.227a8.54 8.54 0 0 0 1.838-.49 4.63 4.63 0 0 0 1.054-.582c.114-.076.2-.15.25-.2l.087-.063m9.502 11.983c0 .005-.042.012-.123.02l-.354.025c-.307.016-.753.01-1.302-.03l-1.918-.223-2.34-.253a9.06 9.06 0 0 0-2.328.176c-.702.152-1.313.392-1.776.676-.94.562-1.28 1.194-1.3 1.163-.004-.003.016-.04.06-.1.048-.064.105-.173.2-.287a4.16 4.16 0 0 1 .986-.858c.468-.298 1.088-.553 1.8-.72s1.523-.23 2.367-.2c.84.045 1.633.16 2.35.265l1.907.254 1.294.078.477.013m-6.9 12.9c-.004.037-.577-.205-1.65-.14-.535.027-1.183.14-1.915.343l-2.474.772c-.916.28-1.957.55-3.1.54a8.93 8.93 0 0 1-3.531-.734 8.79 8.79 0 0 1-3.221-2.341c-.458-.524-.856-1.123-1.14-1.8s-.435-1.412-.328-2.16c.1-.74.458-1.445 1.02-1.924.28-.236.6-.42.968-.495a2.21 2.21 0 0 1 1.07.033c.342.097.666.26.922.505s.45.554.52.896a1.84 1.84 0 0 1-.078 1.01 2.46 2.46 0 0 1-.54.825c-.45.47-1.012.783-1.58 1.003-.285.105-.576.2-.866.237l-.43.08-.426.05c-1.133.124-2.2-.001-3.14-.22a9.81 9.81 0 0 1-2.423-.932 8.77 8.77 0 0 1-1.612-1.116l-.287-.25-.236-.237c-.148-.145-.267-.273-.355-.385l-.206-.248-.067-.087a.54.54 0 0 1 .08.078l.216.237c.092.108.213.232.365.373l.24.23.3.245c.407.347.944.73 1.615 1.085a9.82 9.82 0 0 0 2.407.904c.93.2 1.985.327 3.102.2l.42-.05.423-.08a4.63 4.63 0 0 0 .844-.235c.55-.216 1.097-.525 1.527-.976.213-.224.396-.484.507-.778a1.64 1.64 0 0 0 .069-.931c-.13-.63-.696-1.12-1.34-1.288a2.06 2.06 0 0 0-.999-.03c-.33.07-.64.24-.903.465-.53.45-.864 1.125-.97 1.83-.1.7.046 1.433.317 2.08a6.66 6.66 0 0 0 1.116 1.751 8.65 8.65 0 0 0 3.163 2.309c1.156.504 2.357.732 3.477.737 1.124.014 2.153-.244 3.07-.517l2.48-.752c.74-.197 1.396-.303 1.935-.32.27-.02.5.006.717.012l.52.077.313.078.105.03m-25.268-3.065c-.024.01-.156-.304-.436-.772s-.723-1.082-1.33-1.65a7.68 7.68 0 0 0-1.738-1.212l-.802-.38c.003-.01.086.01.235.053a4.78 4.78 0 0 1 .612.233c.507.222 1.174.62 1.796 1.198a6.62 6.62 0 0 1 1.32 1.706c.13.244.223.45.274.595l.07.23m34.692-.612c.02.025-.544.26-1.1 1.014-.286.37-.574.848-.9 1.38s-.737 1.092-1.23 1.624c-.986 1.067-2.1 1.797-2.947 2.215-.42.214-.78.35-1.03.44l-.395.113c-.003-.01.13-.07.374-.168l1.002-.48a11.06 11.06 0 0 0 2.885-2.223 11.23 11.23 0 0 0 1.222-1.597l.935-1.372c.3-.37.598-.623.825-.764a1.86 1.86 0 0 1 .267-.147c.065-.03.1-.042.1-.037" class="R"/><path d="M86.7 36.9c.001.006-.044.017-.132.034l-.382.07-1.413.208-4.687.484-2.598.093c-.802-.03-1.52-.16-2.097-.36-.578-.193-1.006-.447-1.28-.646a3.46 3.46 0 0 1-.303-.246.5.5 0 0 1-.093-.1c.008-.01.15.114.43.298a5.13 5.13 0 0 0 1.28.594c.57.18 1.277.3 2.07.32.792.026 1.665-.038 2.58-.104l4.686-.44 1.418-.16.522-.045" class="I"/><g fill="#aa8776"><path d="M106.386 70.654a7.73 7.73 0 0 1-7.51 9.186l-21.78-.243.572-7.052 18.673-2.786"/><path d="M79.015 72.866c-.1.033-1.357-.53-2.484-1.052-1.197-.553-2.51-.808-3.826-.74l-5.19.264s.32.856.87 1.16 3.778.37 3.778.37l-.165.17c-.68.7-1.608 1.106-2.584 1.13l-.496.012a4.88 4.88 0 0 1-1.084-.211l-1.28-.518c-.388-.175-.797-.147-.966.244-.152.353-.04.84 1.017 1.37.59.298 2.782 1.056 2.782 1.056s.032.605.128.925.956.637.956.637.542 1.117.766 1.37c.1.115.88.358 1.71.6a7.35 7.35 0 0 0 4.09-.031l1.98-.59v-6.026"/></g><path d="M71.914 76.803c-.003.034-.618.002-1.35-.192s-1.284-.466-1.27-.496c.015-.037.582.182 1.304.37l1.316.317m-.184 1.218c0 .034-.335.056-.73-.053s-.674-.295-.657-.324.312.098.7.2.698.14.696.178m.95-5.62c.012.013-.137.18-.4.43a6.46 6.46 0 0 1-1.131.856 4.53 4.53 0 0 1-1.325.512c-.358.072-.583.077-.585.063-.012-.048.9-.13 1.844-.687.47-.275.858-.587 1.136-.814l.462-.36" fill="#996552"/><g transform="translate(79 66.055)"><mask id="F" fill="#fff"><use xlink:href="#C"/></mask><path d="M.545 5.86l-.53 7.976 20.516.007c1.393 0 2.76-.378 3.953-1.094 2.772-1.665 4.203-4.887 3.58-8.06-.212-1.296-.705-2.8-1.325-4.424L16.425 1.964l.33 1.284L.545 5.86z" mask="url(#F)" class="S"/></g><path d="M100.506 68.636c.001.005-.07.02-.207.048l-.6.107-2.207.368L90.2 70.32l-7.3 1.117-2.215.32-.603.08-.212.018c-.001-.005.07-.022.207-.048l.6-.108 2.208-.37 7.292-1.16 7.298-1.117 2.215-.32.603-.08.212-.018" class="I"/><path d="M90 79.904c-.035-.007.123-.576.143-1.515l-.03-.765c-.014-.276-.07-.565-.126-.87-.133-.604-.347-1.253-.667-1.892s-.723-1.194-1.12-1.668l-.303-.338-.303-.3c-.193-.198-.396-.356-.574-.508l-1.238-.9c.005-.01.135.057.367.186l.414.25.522.37.594.5.314.3.3.34c.4.476.822 1.04 1.15 1.7s.54 1.316.668 1.932l.114.887c.03.28.02.54.013.778.004.24-.04.45-.058.64a3.16 3.16 0 0 1-.085.476l-.106.397m12.487-.6s-.345.015-.95-.114a4.9 4.9 0 0 1-1.065-.375 4.2 4.2 0 0 1-1.2-.894c-.38-.41-.7-.944-.882-1.58a4.21 4.21 0 0 1-.15-1.005c-.023-.348.007-.712.085-1.074s.214-.725.425-1.056a2.39 2.39 0 0 1 .861-.82c.356-.197.776-.3 1.203-.276s.85.24 1.127.583c.28.335.438.778.378 1.212s-.356.8-.706 1c-.718.428-1.55.423-2.268.312-1.468-.244-2.613-1.12-3.2-2.055a4.8 4.8 0 0 1-.79-2.476c-.017-.62.082-.955.082-.955.02.002-.06.34-.023.952a4.84 4.84 0 0 0 .818 2.42c.594.904 1.717 1.748 3.145 1.977.7.106 1.504.1 2.168-.3.322-.196.586-.52.636-.906s-.1-.8-.346-1.096a1.47 1.47 0 0 0-1.025-.53c-.4-.033-.784.07-1.12.256-.685.37-1.07 1.088-1.222 1.777-.077.35-.1.702-.1 1.04.003.34.063.668.14.977a3.73 3.73 0 0 0 .84 1.543c.365.404.777.688 1.16.9s.746.312 1.04.393c.595.145.94.15.937.17" class="R"/><path d="M29.502 29.533l3.19-.15c-.198.88-1.8 1.172-3.2 1.164-1.404-.018-2.995-.34-3.176-1.225l3.186.2" class="C"/><path d="M30.398 31.064s-1.243.25-2.395-.022c0 0 1.143 1.196 2.395.022" class="E"/><path d="M25.303 28.844c.905-.687 4.148-.862 4.148-.862s3.242.236 4.13.94.627 1.6.627 1.6-.45-1.05-1.1-.927c-.368.07-3.675.288-3.666-.727-.01 1.015-3.307.644-3.68.658-.506.02-1.115.784-1.115.784s-.248-.772.655-1.456" fill="#20030c"/></g></g></svg>