<svg xmlns="http://www.w3.org/2000/svg" width="14" height="14" xmlns:v="https://vecta.io/nano"><path d="M6.92 0c1.813-.017 3.525.647 4.856 1.874v-.547a.34.34 0 0 1 .349-.348.34.34 0 0 1 .349.348L12.5 2.72a.34.34 0 0 1-.349.348l-1.397.017a.34.34 0 0 1-.349-.348.34.34 0 0 1 .349-.348h.532c-1.18-1.095-2.7-1.675-4.34-1.66-1.696-.017-3.26.663-4.44 1.858C.8 4.33.25 6.818 1.082 9.107c.067.182-.033.382-.216.448-.033.017-.083.017-.116.017-.15 0-.283-.083-.333-.232a6.82 6.82 0 0 1-.266-3.782c.266-1.3.915-2.488 1.846-3.45C3.294.763 5.057.017 6.92 0zm.15 13.27c-1.63.017-3.16-.564-4.34-1.66h.532a.35.35 0 0 0 .349-.348.35.35 0 0 0-.349-.348l-1.397.017a.35.35 0 0 0-.349.348l.017 1.393a.35.35 0 0 0 .349.348.35.35 0 0 0 .349-.348v-.547C3.527 13.337 5.206 14 7.002 14h.083c1.88-.017 3.625-.763 4.922-2.107.93-.962 1.58-2.156 1.846-3.45.266-1.26.166-2.588-.266-3.798-.067-.182-.266-.282-.45-.216s-.283.265-.216.448c.83 2.272.283 4.76-1.413 6.502a6.28 6.28 0 0 1-4.44 1.891zm1.746-7.978v.796h.5a.35.35 0 0 1 .349.348v2.986a.35.35 0 0 1-.349.348H4.69a.35.35 0 0 1-.349-.348V6.436a.35.35 0 0 1 .349-.348h.5v-.796c0-.995.815-1.825 1.83-1.825s1.796.83 1.796 1.825zm-2.927.796h2.228v-.796c0-.614-.5-1.11-1.114-1.11s-1.114.498-1.114 1.11v.796z" fill="#9b9b9b"/></svg>