<svg xmlns="http://www.w3.org/2000/svg" width="27" height="26" xmlns:v="https://vecta.io/nano"><style><![CDATA[.B{stroke-width:.54}.C{stroke-linecap:round}]]></style><g stroke="#f17377" fill="none" class="B"><path d="M9 5.23h1.8M9 8.65h1.8M9 6.94h.9M9 10.36h.9m-.9 1.7h1.8M9 13.78h.9M9 15.5h1.8M9 17.2h.9M9 18.9h1.8M9 20.62h.9" class="C"/><path d="M9.37 1.9a.9.9 0 0 1 1.26.18h0L25.614 22.05a.9.9 0 0 1-.72 1.44h0H9.9a.9.9 0 0 1-.9-.9h0V2.62a.9.9 0 0 1 .36-.72zm3.173 8.726v8.64h6.48l-6.48-8.64z"/><g stroke-linejoin="round"><path d="M1 4.42h5.58v15.12H1z"/><path d="M3.8 24.76l2.8-5.22H1zM1 4.42h5.58v-.45a2.79 2.79 0 1 0-5.58 0v.45z"/><g class="C"><path d="M1.075 6.3h5.43M2.62 21.97h2.52"/><path d="M3.8 6.296v13.17"/></g></g></g></svg>