<svg xmlns="http://www.w3.org/2000/svg" viewBox="0 0 512 512" fill="#ff5722" xmlns:v="https://vecta.io/nano"><circle cx="54.674" cy="256" r="53.333"/><circle cx="406.61" cy="458.667" r="53.333"/><circle cx="406.61" cy="53.333" r="53.333"/><path d="M262.098 147.67c2.383 4.13 7.216 6.176 11.84 5.013 55.924-14.4 113.1 18.592 128.597 74.22 1.298 4.593 5.5 7.764 10.26 7.765h87.168a10.67 10.67 0 0 0 10.673-10.661 10.76 10.76 0 0 0-.134-1.691 212.78 212.78 0 0 0-48.512-104.98 10.67 10.67 0 0 0-13.995-1.877A74.27 74.27 0 0 1 406.673 128c-40.78-.145-73.96-32.87-74.667-73.643a10.67 10.67 0 0 0-9.536-10.453c-33.448-3.504-67.25.925-98.667 12.928a10.67 10.67 0 0 0-6.143 13.778 10.66 10.66 0 0 0 .724 1.518l43.714 75.54zm237.888 129.663h-87.168c-4.772.001-8.963 3.173-10.26 7.765-15.5 55.642-72.67 88.643-128.597 74.22-4.624-1.163-9.457.884-11.84 5.013l-43.605 75.54a10.67 10.67 0 0 0 3.9 14.572 10.66 10.66 0 0 0 1.518.724c31.384 12.127 65.217 16.56 98.667 12.928a10.67 10.67 0 0 0 9.536-10.453c.472-41.14 34.205-74.1 75.345-73.637a74.49 74.49 0 0 1 40.516 12.538 10.67 10.67 0 0 0 14.016-1.941 212.78 212.78 0 0 0 48.512-104.917 10.67 10.67 0 0 0-8.847-12.218c-.56-.1-1.126-.134-1.692-.134zM223.548 330.26c-40.254-41.333-40.254-107.2 0-148.544a10.67 10.67 0 0 0 1.579-12.8l-43.54-75.37a10.67 10.67 0 0 0-7.317-5.163 11.13 11.13 0 0 0-8.66 2.133 213.5 213.5 0 0 0-67.243 96.32 10.67 10.67 0 0 0 3.307 11.712c31.735 25.306 36.947 71.546 11.64 103.28a73.49 73.49 0 0 1-11.641 11.641 10.67 10.67 0 0 0-3.307 11.712 213.51 213.51 0 0 0 67.221 96.235c1.905 1.55 4.286 2.392 6.74 2.4a11.65 11.65 0 0 0 1.92-.17c3.078-.564 5.754-2.452 7.317-5.163l43.54-75.413c2.4-4.13 1.774-9.363-1.557-12.798z"/></svg>