<?xml version="1.0" encoding="utf-8"?>
<!-- Generator: Adobe Illustrator 24.2.3, SVG Export Plug-In . SVG Version: 6.00 Build 0)  -->
<svg version="1.1" id="Layer_1" xmlns="http://www.w3.org/2000/svg" xmlns:xlink="http://www.w3.org/1999/xlink" x="0px" y="0px"
	 viewBox="0 0 19 21" style="enable-background:new 0 0 19 21;" xml:space="preserve">
<style type="text/css">
	.st0{fill:#241F20;}
</style>
<g id="Page-1">
	<g id="Icons-for-drawer-menu" transform="translate(-562.000000, -74.000000)">
		<g id="Group-3" transform="translate(544.000000, 74.000000)">
			<g id="contribute" transform="translate(18.000000, 0.000000)">
				<path class="st0" d="M4.1,21c-0.4,0-0.8-0.3-0.8-0.8v-2.6c-1.9-1.1-3-3.1-3-5.3V6.8c0-1.2,1-2.2,2.2-2.2h1.1
					c0.4,0,0.8,0.3,0.8,0.8S4.1,6,3.7,6H2.6C2.2,6,1.9,6.3,1.9,6.8v5.6c0,1.8,1,3.4,2.6,4.2c0.3,0.1,0.4,0.4,0.4,0.7v3
					C4.9,20.7,4.5,21,4.1,21z"/>
				<path class="st0" d="M4.1,12c-0.4,0-0.8-0.3-0.8-0.8V3.8c0-1.2,1-2.2,2.2-2.2s2.2,1,2.2,2.2v6c0,0.4-0.3,0.8-0.8,0.8
					s-0.8-0.3-0.8-0.8v-6C6.4,3.3,6,3,5.6,3S4.9,3.3,4.9,3.8v7.5C4.9,11.7,4.5,12,4.1,12z"/>
				<path class="st0" d="M13.1,12.8c-0.4,0-0.8-0.3-0.8-0.8V3.8C12.4,3.3,12,3,11.6,3s-0.8,0.3-0.8,0.8v4.5c0,0.4-0.3,0.8-0.8,0.8
					S9.4,8.7,9.4,8.2V3.8c0-1.2,1-2.2,2.2-2.2s2.2,1,2.2,2.2v8.3C13.9,12.5,13.5,12.8,13.1,12.8z"/>
				<path class="st0" d="M7.1,7.5c-0.4,0-0.8-0.3-0.8-0.8V2.2C6.4,1,7.4,0,8.6,0s2.2,1,2.2,2.2v3c0,0.4-0.3,0.8-0.8,0.8
					S9.4,5.7,9.4,5.2v-3c0-0.4-0.3-0.8-0.8-0.8S7.9,1.8,7.9,2.2v4.5C7.9,7.2,7.5,7.5,7.1,7.5z"/>
				<path class="st0" d="M11.3,21c-0.4,0-0.8-0.3-0.8-0.8v-1.5c0-0.2,0.1-0.4,0.2-0.5l4.4-4.4l1.7-2.6c0.3-0.4,0.2-0.9-0.2-1.2
					c-0.2-0.2-0.5-0.2-0.7-0.2c-0.3,0-0.5,0.2-0.6,0.4l-2,3c-0.1,0.2-0.4,0.3-0.6,0.3c-1.5,0-2.8,0.9-3.2,2.3
					c-0.1,0.4-0.6,0.6-0.9,0.5c-0.4-0.1-0.6-0.6-0.5-0.9c0.6-1.9,2.3-3.2,4.2-3.3l1.8-2.7c0.4-0.6,1-0.9,1.6-1
					c0.7-0.1,1.4,0.1,1.9,0.5c1,0.8,1.2,2.2,0.5,3.2l-1.8,2.6c0,0-0.1,0.1-0.1,0.1l-4.3,4.3v1.2C12.1,20.7,11.8,21,11.3,21z"/>
			</g>
		</g>
	</g>
</g>
</svg>
