<?xml version="1.0" encoding="utf-8"?>
<!-- Generator: Adobe Illustrator 24.2.3, SVG Export Plug-In . SVG Version: 6.00 Build 0)  -->
<svg version="1.1" id="Layer_1" xmlns="http://www.w3.org/2000/svg" xmlns:xlink="http://www.w3.org/1999/xlink" x="0px" y="0px"
	 viewBox="0 0 24 20" style="enable-background:new 0 0 24 20;" xml:space="preserve">
<style type="text/css">
	.st0{fill:#241F20;}
</style>
<g id="Page-1">
	<g id="Icons-for-drawer-menu" transform="translate(-459.000000, -75.000000)">
		<g id="Group-4" transform="translate(444.000000, 75.000000)">
			<g id="dashboard" transform="translate(15.500000, 0.000000)">
				<path class="st0" d="M22,15.2H1c-0.4,0-0.8-0.3-0.8-0.8V1c0-0.4,0.3-0.8,0.8-0.8h21c0.4,0,0.8,0.3,0.8,0.8v13.5
					C22.8,14.9,22.4,15.2,22,15.2z M1.8,13.8h19.5v-12H1.8V13.8z"/>
				<path class="st0" d="M7,10.8c-2.1,0-3.8-1.7-3.8-3.8S4.9,3.2,7,3.2s3.8,1.7,3.8,3.8c0,0.4-0.3,0.8-0.8,0.8S9.2,7.4,9.2,7
					c0-1.2-1-2.2-2.2-2.2S4.8,5.8,4.8,7s1,2.2,2.2,2.2c0.4,0,0.8,0.3,0.8,0.8S7.4,10.8,7,10.8z"/>
				<path class="st0" d="M4,7.8C3.6,7.8,3.2,7.4,3.2,7c0-2.1,1.7-3.8,3.8-3.8c0.4,0,0.8,0.3,0.8,0.8S7.4,4.8,7,4.8
					c-1.2,0-2.2,1-2.2,2.2C4.8,7.4,4.4,7.8,4,7.8z"/>
				<path class="st0" d="M16,19.8H7c-0.4,0-0.8-0.3-0.8-0.8s0.3-0.8,0.8-0.8h9c0.4,0,0.8,0.3,0.8,0.8S16.4,19.8,16,19.8z"/>
				<path class="st0" d="M11.5,19.8c-0.4,0-0.8-0.3-0.8-0.8v-4.5c0-0.4,0.3-0.8,0.8-0.8s0.8,0.3,0.8,0.8V19
					C12.2,19.4,11.9,19.8,11.5,19.8z"/>
				<path class="st0" d="M19,4.8h-6c-0.4,0-0.8-0.3-0.8-0.8s0.3-0.8,0.8-0.8h6c0.4,0,0.8,0.3,0.8,0.8S19.4,4.8,19,4.8z"/>
				<path class="st0" d="M19,7.8h-6c-0.4,0-0.8-0.3-0.8-0.8s0.3-0.8,0.8-0.8h6c0.4,0,0.8,0.3,0.8,0.8S19.4,7.8,19,7.8z"/>
				<path class="st0" d="M19,10.8h-6c-0.4,0-0.8-0.3-0.8-0.8s0.3-0.8,0.8-0.8h6c0.4,0,0.8,0.3,0.8,0.8S19.4,10.8,19,10.8z"/>
			</g>
		</g>
	</g>
</g>
</svg>
