<?xml version="1.0" encoding="utf-8"?>
<!-- Generator: Adobe Illustrator 24.2.3, SVG Export Plug-In . SVG Version: 6.00 Build 0)  -->
<svg version="1.1" id="Layer_1" xmlns="http://www.w3.org/2000/svg" xmlns:xlink="http://www.w3.org/1999/xlink" x="0px" y="0px"
	 viewBox="0 0 20 20" style="enable-background:new 0 0 20 20;" xml:space="preserve">
<style type="text/css">
	.st0{fill:#241F20;}
	.st1{fill-rule:evenodd;clip-rule:evenodd;fill:#241F20;}
</style>
<g id="Page-1">
	<g id="Icons-for-drawer-menu" transform="translate(-124.000000, -75.000000)">
		<g id="Group-9" transform="translate(122.000000, 75.000000)">
			<g id="help" transform="translate(2.000000, 0.000000)">
				<path class="st0" d="M16.8,20c-0.2,0-0.4-0.1-0.5-0.2L11.5,15H2.4C1.1,15,0,14,0,12.7V2.4C0,1.1,1.1,0,2.4,0h15.2
					C18.9,0,20,1.1,20,2.4v10.2c0,1.3-1.1,2.4-2.4,2.4h-0.1v4.2c0,0.3-0.2,0.6-0.5,0.7C17,19.9,16.9,20,16.8,20z M2.4,1.5
					c-0.5,0-0.9,0.4-0.9,0.9v10.2c0,0.5,0.4,0.9,0.9,0.9h9.4c0.2,0,0.4,0.1,0.5,0.2l3.6,3.6v-3.1c0-0.4,0.3-0.8,0.8-0.8h0.8
					c0.5,0,0.9-0.4,0.9-0.9V2.4c0-0.5-0.4-0.9-0.9-0.9H2.4z"/>
				<path id="Fill-3" class="st1" d="M9.6,11.8c-0.2,0-0.4-0.1-0.5-0.2c-0.1-0.1-0.1-0.1-0.2-0.2c0-0.1-0.1-0.2-0.1-0.3
					c0-0.1,0-0.2,0.1-0.3c0-0.1,0.1-0.2,0.2-0.2c0.1-0.1,0.2-0.1,0.2-0.2c0.2-0.1,0.4-0.1,0.6,0c0.1,0,0.2,0.1,0.2,0.2
					c0.1,0.1,0.1,0.1,0.2,0.2c0,0.1,0.1,0.2,0.1,0.3c0,0.2-0.1,0.4-0.2,0.5c-0.1,0.1-0.2,0.1-0.2,0.2S9.7,11.8,9.6,11.8"/>
				<path class="st0" d="M9.5,10c-0.4,0-0.8-0.3-0.8-0.8c0-1,0.6-1.9,1.4-2.3l1-0.5c0.4-0.2,0.6-0.6,0.6-1c0-0.6-0.5-1.1-1.1-1.1
					H9.9c-0.6,0-1.1,0.5-1.1,1.1c0,0.4-0.3,0.8-0.8,0.8S7.3,5.8,7.3,5.4c0-1.4,1.2-2.6,2.6-2.6h0.8c1.4,0,2.6,1.2,2.6,2.6
					c0,1-0.6,1.9-1.4,2.3l-1,0.5c-0.4,0.2-0.6,0.6-0.6,1C10.3,9.6,9.9,10,9.5,10z"/>
			</g>
		</g>
	</g>
</g>
</svg>
