<?xml version="1.0" encoding="utf-8"?>
<!-- Generator: Adobe Illustrator 24.2.3, SVG Export Plug-In . SVG Version: 6.00 Build 0)  -->
<svg version="1.1" id="Layer_1" xmlns="http://www.w3.org/2000/svg" xmlns:xlink="http://www.w3.org/1999/xlink" x="0px" y="0px"
	 viewBox="0 0 21 20" style="enable-background:new 0 0 21 20;" xml:space="preserve">
<style type="text/css">
	.st0{fill:#241F20;}
</style>
<g id="Page-1">
	<g id="Icons-for-drawer-menu" transform="translate(-196.000000, -75.000000)">
		<g id="Group-7" transform="translate(193.000000, 75.000000)">
			<g id="login" transform="translate(3.000000, 0.000000)">
				<path class="st0" d="M18.1,19.8h-14c-1.5,0-2.8-1.2-2.8-2.8v-2.5c0-0.4,0.3-0.8,0.8-0.8s0.8,0.3,0.8,0.8V17
					c0,0.7,0.6,1.2,1.2,1.2h14c0.7,0,1.2-0.6,1.2-1.2V3c0-0.7-0.6-1.2-1.2-1.2h-14C3.4,1.8,2.8,2.3,2.8,3v4c0,0.4-0.3,0.8-0.8,0.8
					S1.3,7.4,1.3,7V3c0-1.5,1.2-2.8,2.8-2.8h14c1.5,0,2.8,1.2,2.8,2.8v14C20.8,18.5,19.6,19.8,18.1,19.8z"/>
				<path class="st0" d="M12.9,11.1h-12c-0.4,0-0.8-0.3-0.8-0.8s0.3-0.8,0.8-0.8h12c0.4,0,0.8,0.3,0.8,0.8S13.3,11.1,12.9,11.1z"/>
				<path class="st0" d="M8.1,15.6c-0.2,0-0.5-0.1-0.6-0.3c-0.2-0.3-0.2-0.8,0.1-1l5.2-3.9L7.6,6.5C7.3,6.2,7.2,5.8,7.5,5.4
					C7.7,5.1,8.2,5,8.5,5.3l6,4.5c0.2,0.1,0.3,0.4,0.3,0.6s-0.1,0.5-0.3,0.6l-6,4.5C8.4,15.6,8.2,15.6,8.1,15.6z"/>
			</g>
		</g>
	</g>
</g>
</svg>
