<?xml version="1.0" encoding="utf-8"?>
<!-- Generator: Adobe Illustrator 24.2.3, SVG Export Plug-In . SVG Version: 6.00 Build 0)  -->
<svg version="1.1" id="Layer_1" xmlns="http://www.w3.org/2000/svg" xmlns:xlink="http://www.w3.org/1999/xlink" x="0px" y="0px"
	 viewBox="0 0 22 21" style="enable-background:new 0 0 22 21;" xml:space="preserve">
<style type="text/css">
	.st0{fill:#241F20;}
</style>
<g id="Page-1">
	<g id="Icons-for-drawer-menu" transform="translate(-365.000000, -74.000000)">
		<g id="Group-5" transform="translate(357.000000, 74.000000)">
			<g id="manage" transform="translate(8.500000, 0.000000)">
				<path class="st0" d="M10.5,21c-0.2,0-0.4,0-0.7,0c-0.6,0-1.2-0.5-1.5-1.1L7.6,18c0-0.1-0.1-0.1-0.1-0.1c0,0-0.1,0-0.2,0
					l-1.9,0.8c-0.6,0.3-1.3,0.1-1.8-0.3c-0.3-0.3-0.7-0.6-1-1c-0.4-0.5-0.5-1.2-0.3-1.8l0.8-1.9c0-0.1,0-0.2,0-0.2
					c0,0-0.1-0.1-0.1-0.1l-1.8-0.8C0.5,12.4,0,11.8,0,11.1c0-0.4,0-0.8,0-1.1c0-0.7,0.4-1.3,1.1-1.6L3,7.6c0.1,0,0.1-0.1,0.1-0.1
					c0,0,0-0.1,0-0.2L2.3,5.4C2.1,4.8,2.2,4.1,2.6,3.6c0.3-0.3,0.6-0.7,1-1C4,2.2,4.8,2.1,5.4,2.3l1.9,0.8c0.1,0,0.2,0,0.2,0
					c0,0,0.1-0.1,0.1-0.1l0.8-1.9c0.3-0.6,0.8-1,1.5-1.1c0.5,0,0.9,0,1.3,0c0.7,0,1.2,0.5,1.5,1.1L13.4,3c0,0.1,0.1,0.1,0.1,0.1
					c0,0,0.1,0,0.2,0l1.9-0.8c0.6-0.3,1.3-0.1,1.8,0.3c0.3,0.3,0.7,0.6,1,1c0.4,0.5,0.5,1.2,0.3,1.8l-0.8,1.9c0,0.1,0,0.2,0,0.2
					c0,0,0.1,0.1,0.1,0.1l1.9,0.8c0.6,0.3,1,0.8,1.1,1.5c0,0.2,0,0.4,0,0.7s0,0.4,0,0.7c0,0.6-0.5,1.2-1.1,1.5L18,13.4
					c-0.1,0-0.1,0.1-0.1,0.1c0,0,0,0.1,0,0.2l0.8,1.9c0.3,0.6,0.1,1.3-0.3,1.8c-0.3,0.3-0.6,0.7-1,1c-0.5,0.4-1.2,0.5-1.8,0.3
					l-1.9-0.8c-0.1,0-0.2,0-0.2,0s-0.1,0.1-0.1,0.1l-0.8,1.9c-0.3,0.6-0.8,1-1.5,1.1C10.9,21,10.7,21,10.5,21z M7.3,16.4
					c0.2,0,0.5,0,0.7,0.1c0.4,0.2,0.8,0.5,0.9,1l0.8,1.9c0,0.1,0.1,0.1,0.2,0.2c0.4,0,0.8,0,1.1,0c0.1,0,0.2-0.1,0.2-0.2l0.8-1.9
					c0.2-0.4,0.5-0.8,1-1c0.4-0.2,0.9-0.2,1.3,0l1.9,0.8c0.1,0,0.2,0,0.2,0c0.3-0.3,0.6-0.5,0.8-0.8c0.1-0.1,0.1-0.2,0-0.2l-0.8-1.9
					c-0.2-0.4-0.2-0.9,0-1.3c0.2-0.4,0.5-0.8,1-0.9l1.9-0.8l0,0c0.1,0,0.1-0.1,0.2-0.2c0-0.2,0-0.4,0-0.6s0-0.4,0-0.6
					c0-0.1-0.1-0.2-0.2-0.2L17.4,9c-0.4-0.2-0.8-0.5-1-0.9s-0.2-0.9,0-1.3l0.8-1.9c0-0.1,0-0.2,0-0.3C17,4.3,16.7,4,16.4,3.7
					c-0.1-0.1-0.2-0.1-0.2,0l-1.9,0.8c-0.4,0.2-0.9,0.2-1.3,0c-0.4-0.2-0.8-0.5-0.9-1l-0.8-1.9c0-0.1-0.1-0.1-0.2-0.2
					c-0.4,0-0.8,0-1.2,0c-0.1,0-0.1,0.1-0.2,0.2L8.9,3.5C8.8,4,8.4,4.3,8,4.5c-0.4,0.2-0.9,0.2-1.3,0L4.8,3.7c-0.1,0-0.2,0-0.2,0
					C4.2,4,4,4.3,3.7,4.6c-0.1,0.1-0.1,0.2,0,0.2l0.8,1.9c0.2,0.4,0.2,0.9,0,1.3C4.3,8.5,4,8.8,3.5,9L1.7,9.7
					c-0.1,0-0.2,0.1-0.2,0.2c0,0.3,0,0.7,0,1.1c0,0.1,0.1,0.2,0.2,0.2L3.5,12c0.4,0.2,0.8,0.5,1,0.9c0.2,0.4,0.2,0.9,0,1.3l-0.8,1.9
					c0,0.1,0,0.2,0,0.2C4,16.7,4.2,17,4.5,17.3c0.1,0.1,0.2,0.1,0.2,0l1.9-0.8C6.9,16.4,7.1,16.4,7.3,16.4z"/>
				<path class="st0" d="M10.5,14c-1.9,0-3.5-1.6-3.5-3.5C6.9,8.5,8.5,7,10.5,7c2,0,3.5,1.6,3.5,3.5C14,12.4,12.4,14,10.5,14z
					 M10.5,8.5c-1.1,0-2,0.9-2,2c0,1.1,0.9,2,2,2c1.1,0,2-0.9,2-2C12.5,9.4,11.6,8.5,10.5,8.5z"/>
			</g>
		</g>
	</g>
</g>
</svg>
