<?xml version="1.0" encoding="utf-8"?>
<!-- Generator: Adobe Illustrator 24.2.3, SVG Export Plug-In . SVG Version: 6.00 Build 0)  -->
<svg version="1.1" id="Layer_1" xmlns="http://www.w3.org/2000/svg" xmlns:xlink="http://www.w3.org/1999/xlink" x="0px" y="0px"
	 viewBox="0 0 20 20" style="enable-background:new 0 0 20 20;" xml:space="preserve">
<style type="text/css">
	.st0{fill:#241F20;}
</style>
<g id="Page-1">
	<g id="Icons-for-drawer-menu" transform="translate(-278.000000, -75.000000)">
		<g id="Group-6" transform="translate(268.000000, 75.000000)">
			<g id="merge-account" transform="translate(10.000000, 0.000000)">
				<path class="st0" d="M17,19.8h-4c-0.4,0-0.8-0.3-0.8-0.8s0.3-0.8,0.8-0.8h4c0.7,0,1.2-0.6,1.2-1.2V3c0-0.7-0.6-1.2-1.2-1.2h-4
					c-0.4,0-0.8-0.3-0.8-0.8s0.3-0.8,0.8-0.8h4c1.5,0,2.8,1.2,2.8,2.8v14C19.8,18.5,18.5,19.8,17,19.8z"/>
				<path class="st0" d="M7,19.8H3c-1.5,0-2.8-1.2-2.8-2.8V3c0-1.5,1.2-2.8,2.8-2.8h4c0.4,0,0.8,0.3,0.8,0.8S7.4,1.8,7,1.8H3
					C2.3,1.8,1.8,2.3,1.8,3v14c0,0.7,0.6,1.2,1.2,1.2h4c0.4,0,0.8,0.3,0.8,0.8S7.4,19.8,7,19.8z"/>
				<path class="st0" d="M5.5,13.8c-0.2,0-0.4-0.1-0.5-0.2c-0.3-0.3-0.3-0.8,0-1.1L7.4,10L5,7.5C4.7,7.2,4.7,6.8,5,6.5
					s0.8-0.3,1.1,0l3,3c0.3,0.3,0.3,0.8,0,1.1l-3,3C5.9,13.7,5.7,13.8,5.5,13.8z"/>
				<path class="st0" d="M14.5,13.8c-0.2,0-0.4-0.1-0.5-0.2l-3-3c-0.3-0.3-0.3-0.8,0-1.1l3-3c0.3-0.3,0.8-0.3,1.1,0s0.3,0.8,0,1.1
					L12.6,10l2.5,2.5c0.3,0.3,0.3,0.8,0,1.1C14.9,13.7,14.7,13.8,14.5,13.8z"/>
				<path class="st0" d="M19,10.8h-7.5c-0.4,0-0.8-0.3-0.8-0.8s0.3-0.8,0.8-0.8H19c0.4,0,0.8,0.3,0.8,0.8S19.4,10.8,19,10.8z"/>
				<path class="st0" d="M7,10.8H1c-0.4,0-0.8-0.3-0.8-0.8S0.6,9.2,1,9.2h6c0.4,0,0.8,0.3,0.8,0.8S7.4,10.8,7,10.8z"/>
			</g>
		</g>
	</g>
</g>
</svg>
