<?xml version="1.0" encoding="utf-8"?>
<!-- Generator: Adobe Illustrator 24.2.3, SVG Export Plug-In . SVG Version: 6.00 Build 0)  -->
<svg version="1.1" id="Layer_1" xmlns="http://www.w3.org/2000/svg" xmlns:xlink="http://www.w3.org/1999/xlink" x="0px" y="0px"
	 viewBox="0 0 24 20" style="enable-background:new 0 0 24 20;" xml:space="preserve">
<style type="text/css">
	.st0{fill:#024F9D;}
</style>
<desc>Created with sketchtool.</desc>
<g>
	<path id="Oval" class="st0" d="M12,0c3,0,5.5,2.4,5.5,5.5S15,10.9,12,10.9S6.5,8.5,6.5,5.5S9,0,12,0z M12,2c-1.9,0-3.5,1.5-3.5,3.5
		s1.5,3.5,3.5,3.5s3.5-1.5,3.5-3.5S13.9,2,12,2z"/>
	<path id="Oval_1_" class="st0" d="M12,12.1c5.2,0,9.7,3.1,11.6,7.6l-23.2,0C2.4,15.2,6.8,12.1,12,12.1z M12,14.1
		c-3,0-5.9,1.3-7.8,3.4L4,17.7l16,0l-0.1-0.1c-1.9-2.1-4.6-3.4-7.6-3.5L12,14.1z"/>
</g>
</svg>
