<?xml version="1.0" encoding="utf-8"?>
<!-- Generator: Adobe Illustrator 24.2.3, SVG Export Plug-In . SVG Version: 6.00 Build 0)  -->
<svg version="1.1" id="Layer_1" xmlns="http://www.w3.org/2000/svg" xmlns:xlink="http://www.w3.org/1999/xlink" x="0px" y="0px"
	 viewBox="0 0 16 21" style="enable-background:new 0 0 16 21;" xml:space="preserve">
<style type="text/css">
	.st0{fill:#241F20;}
</style>
<g id="Page-1">
	<g id="Icons-for-drawer-menu" transform="translate(-663.000000, -73.000000)">
		<g id="Group-2" transform="translate(645.000000, 74.000000)">
			<g id="workspace" transform="translate(18.500000, 0.000000)">
				<path class="st0" d="M7.5,19.2c-0.3,0-0.5-0.1-0.7-0.4l-6.8-12C0,6.8,0,6.6,0,6.5v-6c0-0.4,0.3-0.8,0.8-0.8s0.8,0.3,0.8,0.8v5.8
					l6,10.7l6-10.7V0.5c0-0.4,0.3-0.8,0.8-0.8S15,0.1,15,0.5v6c0,0.1,0,0.3-0.1,0.4l-6.7,12C8,19.1,7.8,19.2,7.5,19.2z"/>
				<path class="st0" d="M10.2,13.2H4.6c-0.4,0-0.8-0.3-0.8-0.8s0.3-0.8,0.8-0.8h5.7c0.4,0,0.8,0.3,0.8,0.8S10.7,13.2,10.2,13.2z"/>
				<g transform="translate(0.000000, 0.500000)">
					<path class="st0" d="M0.8,6.8c-0.3,0-0.5-0.1-0.7-0.4C-0.1,6,0,5.5,0.4,5.3l3-1.7c0.2-0.1,0.5-0.1,0.7,0l3.3,1.6l3.4-1.7
						c0.2-0.1,0.5-0.1,0.7,0l3.1,1.8c0.4,0.2,0.5,0.7,0.3,1c-0.2,0.4-0.7,0.5-1,0.3L11.1,5L7.7,6.7c-0.2,0.1-0.4,0.1-0.6,0L3.8,5.1
						L1.1,6.7C1,6.7,0.9,6.8,0.8,6.8z"/>
					<path class="st0" d="M7.4,2.2C7,2.2,6.7,1.9,6.7,1.5V0c0-0.4,0.3-0.8,0.8-0.8S8.2-0.4,8.2,0v1.5C8.2,1.9,7.8,2.2,7.4,2.2z"/>
				</g>
			</g>
		</g>
	</g>
</g>
</svg>
