<?xml version="1.0" encoding="UTF-8"?>
<svg width="32px" height="32px" viewBox="0 0 32 32" version="1.1" xmlns="http://www.w3.org/2000/svg" xmlns:xlink="http://www.w3.org/1999/xlink">
    <title>616C3E11-11F8-4088-93F7-2EF920E078DB</title>
    <g id="Textbooks" stroke="none" stroke-width="1" fill="none" fill-rule="evenodd">
        <g id="1440-X-768" transform="translate(-233.000000, -110.000000)">
            <g id="Group-22-Copy-5" transform="translate(217.000000, 102.000000)">
                <g id="Courses" transform="translate(16.000000, 8.000000)">
                    <circle id="Oval" cx="16" cy="16" r="16"></circle>
                    <polygon id="Stroke-1" stroke="#0531FF" stroke-width="1.5" stroke-linecap="round" stroke-linejoin="round" points="5 12.5 16.5 6 28 12.5 16.5 19"></polygon>
                    <path d="M10,15 L10,21.48394 C14.09175,23.5053533 18.90825,23.5053533 23,21.48394 L23,15" id="Stroke-3" stroke="#0531FF" stroke-width="1.35374997" stroke-linejoin="round"></path>
                    <polyline id="Stroke-5" stroke="#0531FF" stroke-width="1.5" stroke-linecap="round" stroke-linejoin="round" points="18 11 26 14.1428571 26 22"></polyline>
                    <path d="M25.75,25.5 C25.555,25.5 25.36,25.4169811 25.2175,25.2811321 C25.0825,25.1377358 25,24.9415094 25,24.745283 C25,24.5490566 25.0825,24.3528302 25.2175,24.209434 C25.5025,23.9301887 26.005,23.9301887 26.2825,24.209434 C26.4175,24.3528302 26.5,24.5490566 26.5,24.745283 C26.5,24.9415094 26.4175,25.1377358 26.2825,25.2811321 C26.14,25.4169811 25.945,25.5 25.75,25.5" id="Fill-7" fill="#0531FF"></path>
                </g>
            </g>
        </g>
    </g>
</svg>