<?xml version="1.0" encoding="utf-8"?>
<!-- Generator: Adobe Illustrator 24.2.1, SVG Export Plug-In . SVG Version: 6.00 Build 0)  -->
<svg version="1.1" id="Layer_1" xmlns="http://www.w3.org/2000/svg" xmlns:xlink="http://www.w3.org/1999/xlink" x="0px" y="0px"
	 viewBox="0 0 22 18" style="enable-background:new 0 0 22 18;" xml:space="preserve">
<style type="text/css">
	.st0{fill:#0531FF;}
</style>
<g id="Illustration-_x26_-colour-palette-">
	<g id="Category-Colours" transform="translate(-421.000000, -115.000000)">
		<g id="Group-2" transform="translate(258.000000, 100.000000)">
			<g id="Group-22-Copy-6" transform="translate(147.000000, 0.000000)">
				<g id="Group-17" transform="translate(16.000000, 15.000000)">
					<path id="Combined-Shape" class="st0" d="M20.1,16.5c0.1,0.1,0.2,0.3,0.2,0.5s-0.1,0.3-0.2,0.5c-0.1,0.1-0.3,0.2-0.5,0.2
						s-0.3-0.1-0.5-0.2C19,17.3,19,17.1,19,17s0.1-0.3,0.2-0.5C19.4,16.3,19.9,16.3,20.1,16.5z M10.7,0.5c0.2-0.1,0.5-0.1,0.7,0l0,0
						l10.3,5.6c0.5,0.3,0.5,0.9,0,1.2l0,0L20.2,8l0,0v6.7c0,0.4-0.3,0.7-0.7,0.7c-0.4,0-0.6-0.3-0.7-0.6l0-0.1l0-6l-1.3,0.7l0,4.9
						c0,0.2-0.1,0.4-0.4,0.5c-3.8,1.8-8.4,1.8-12.2,0c-0.2-0.1-0.3-0.3-0.3-0.5l0-0.1l0-4.9L0.4,7.2C-0.1,7-0.1,6.4,0.3,6.1l0.1-0.1
						L10.7,0.5z M16.2,10.2l-4.8,2.6c-0.2,0.1-0.5,0.1-0.7,0l0,0l-4.8-2.6l0,3.8l0.3,0.1c3.1,1.3,6.6,1.3,9.8,0l0.3-0.1L16.2,10.2z
						 M11,1.8L2.1,6.6l8.9,4.8L17.4,8l-5.3-2c-0.3-0.1-0.5-0.5-0.4-0.8l0-0.1c0.1-0.3,0.5-0.5,0.8-0.4l0.1,0L19,7.1l0.9-0.5L11,1.8z
						"/>
				</g>
			</g>
		</g>
	</g>
</g>
</svg>
