<?xml version="1.0" encoding="UTF-8"?>
<svg width="24px" height="24px" viewBox="0 0 24 24" version="1.1" xmlns="http://www.w3.org/2000/svg" xmlns:xlink="http://www.w3.org/1999/xlink">
    <title>19817CF0-DCD0-435C-A52A-E2D3913653B2</title>
    <g id="Page-1" stroke="none" stroke-width="1" fill="none" fill-rule="evenodd">
        <g id="SUNBIRD-Desktop---Online" transform="translate(-99.000000, -154.000000)">
            <g id="Group-2-Copy" transform="translate(84.000000, 142.000000)">
                <g id="outline-cloud_download-24px" transform="translate(15.000000, 12.000000)">
                    <polygon id="Path" points="0 0 24 0 24 24 0 24"></polygon>
                    <path d="M19.35,10.3026087 C18.67,6.7026087 15.64,4 12,4 C9.11,4 6.6,5.71130435 5.35,8.21565217 C2.34,8.54956522 0,11.2104348 0,14.4347826 C0,17.8886957 2.69,20.6956522 6,20.6956522 L19,20.6956522 C21.76,20.6956522 24,18.3582609 24,15.4782609 C24,12.7234783 21.95,10.4904348 19.35,10.3026087 Z M18.9391304,18.6086957 L6.05217391,18.6086957 C3.8613913,18.6086957 2.08695652,16.7408696 2.08695652,14.4347826 C2.08695652,12.2956522 3.60365217,10.5113043 5.616,10.2921739 L6.67669565,10.1773913 L7.17234783,9.18608696 C8.11408696,7.27652174 9.95791304,6.08695652 12,6.08695652 C14.5972174,6.08695652 16.8375652,8.02782609 17.3431304,10.7095652 L17.6405217,12.2747826 L19.1572174,12.3895652 C20.7036522,12.493913 21.9130435,13.8608696 21.9130435,15.4782609 C21.9130435,17.2 20.5747826,18.6086957 18.9391304,18.6086957 Z M12.9913043,10.2608696 L9.96521739,10.2608696 L9.96521739,13.3913043 L7.30434783,13.3913043 L11.4782609,17.5652174 L15.6521739,13.3913043 L12.9913043,13.3913043 L12.9913043,10.2608696 Z" id="Shape" fill="#024F9D" fill-rule="nonzero"></path>
                </g>
            </g>
        </g>
    </g>
</svg>