<?xml version="1.0" encoding="UTF-8"?>
<svg width="64px" height="64px" viewBox="0 0 64 64" version="1.1" xmlns="http://www.w3.org/2000/svg" xmlns:xlink="http://www.w3.org/1999/xlink">
    <title>Explore_icon</title>
    <g id="Explore_icon" stroke="none" stroke-width="1" fill="none" fill-rule="evenodd">
        <g id="noun_explore_3891065" fill="#024F9D" fill-rule="nonzero">
            <path d="M47.85,56.29 C46.7145793,57.0383497 45.5283705,57.7066363 44.3,58.29 C43.8814476,58.4926939 43.6578684,58.9571721 43.7605204,59.4107507 C43.8631723,59.8643292 44.2649586,60.1872774 44.73,60.1900144 C44.8748664,60.1907765 45.0181718,60.1600682 45.15,60.1 C46.479846,59.4888653 47.7661994,58.787218 49,58 C49.3049124,57.8063323 49.4816812,57.4632801 49.4624272,57.1025752 C49.4431733,56.7418703 49.2308897,56.4195852 48.9070932,56.2594772 C48.5832967,56.0993692 48.1983224,56.1263274 47.9,56.33 L47.85,56.29 Z" id="Path"></path>
            <path d="M32,0.5 C44.4374411,0.512523309 55.7027278,7.84159961 60.7538491,19.2066226 C65.8049705,30.5716456 63.6962061,43.8447446 55.4166633,53.0263904 C55.0885366,53.5210471 54.4995748,53.775677 53.9144348,53.675859 C53.3292948,53.576041 52.8580588,53.1405539 52.7124822,52.565089 C52.5669056,51.9896241 52.7743757,51.3824433 53.1785085,51.0753448 C62.1853041,41.0771494 62.9714449,26.1414754 55.0640217,15.2529982 C47.1565984,4.36452095 32.7106351,0.490696332 20.4162175,5.96185479 C8.12179991,11.4330133 1.32954737,24.7580903 4.12539419,37.9212784 C6.92124102,51.0844664 18.5432301,60.4983786 31.9959972,60.500016 C33.8149728,60.4854536 35.6286179,60.3011266 37.4166697,59.9487878 C38.2402434,59.7923088 39.0347332,60.3330959 39.1912122,61.1566697 C39.3476912,61.9802434 38.8069041,62.7747332 37.9840833,62.9310686 C36.0096107,63.3093557 34.0059662,63.5 32,63.5 C14.6030304,63.5 0.5,49.3969696 0.5,32 C0.5,14.6030304 14.6030304,0.5 32,0.5 Z" id="Combined-Shape"></path>
            <path d="M35.12,35.44 C35.18,35.44 35.23,35.34 35.29,35.29 C35.35,35.24 35.4,35.18 35.44,35.12 L35.44,35.12 L41.85,23.52 C42.0671236,23.1296508 41.9990438,22.6426446 41.6831996,22.3268004 C41.3673554,22.0109562 40.8803492,21.9428764 40.49,22.16 L28.89,28.57 C28.89,28.57 28.89,28.57 28.89,28.57 C28.89,28.57 28.78,28.67 28.72,28.72 C28.6648317,28.7718879 28.6146149,28.8288003 28.57,28.89 C28.57,28.89 28.57,28.89 28.57,28.89 L22.16,40.49 C21.9784732,40.796003 21.973207,41.175412 22.146171,41.4863354 C22.3191349,41.7972587 22.6442769,41.9928645 23,42.0000125 C23.1675258,42.0008382 23.3325776,41.9595752 23.48,41.88 L35.08,35.47 L35.12,35.44 Z M30.2516138,30.214833 L32.1676632,32.0747483 L34.1414249,33.8674377 L25.6,38.45 L30.2516138,30.214833 Z" id="Shape"></path>
            <path d="M33,14 L33,8 C33,7.44771525 32.5522847,7 32,7 C31.4477153,7 31,7.44771525 31,8 L31,14 C31,14.5522847 31.4477153,15 32,15 C32.5522847,15 33,14.5522847 33,14 Z" id="Path"></path>
            <path d="M20,18.57 L15.76,14.32 C15.3678778,13.9278778 14.7321222,13.9278778 14.34,14.32 C13.9478778,14.7121222 13.9478778,15.3478778 14.34,15.74 L18.56,20 C18.7487188,20.1871865 19.004197,20.2915368 19.27,20.29 C19.5427025,20.2969484 19.8064069,20.1921891 20,20 C20.1924127,19.8118595 20.3008755,19.5541087 20.3008755,19.285 C20.3008755,19.0158913 20.1924127,18.7581405 20,18.57 Z" id="Path"></path>
            <path d="M15,32 C15,31.4477153 14.5522847,31 14,31 L8,31 C7.44771525,31 7,31.4477153 7,32 C7,32.5522847 7.44771525,33 8,33 L14,33 C14.5522847,33 15,32.5522847 15,32 Z" id="Path"></path>
            <path d="M15,50.0000167 C15.265803,50.0015368 15.5212812,49.8971865 15.71,49.71 L20,45.43 C20.1924127,45.2418595 20.3008755,44.9841087 20.3008755,44.715 C20.3008755,44.4458913 20.1924127,44.1881405 20,44 C19.8122334,43.8106873 19.5566375,43.7042017 19.29,43.7042017 C19.0233625,43.7042017 18.7677666,43.8106873 18.58,44 L14.34,48.24 C14.1506873,48.4277666 14.0442017,48.6833625 14.0442017,48.95 C14.0442017,49.2166375 14.1506873,49.4722334 14.34,49.66 C14.5082193,49.8538272 14.7445213,49.9755586 15,50.0000167 L15,50.0000167 Z" id="Path"></path>
            <path d="M31,50 L31,56 C31,56.5522847 31.4477153,57 32,57 C32.5522847,57 33,56.5522847 33,56 L33,50 C33,49.4477153 32.5522847,49 32,49 C31.4477153,49 31,49.4477153 31,50 Z" id="Path"></path>
            <path d="M44,45.43 L48.24,49.68 C48.4277666,49.8693127 48.6833625,49.9757983 48.95,49.9757983 C49.2166375,49.9757983 49.4722334,49.8693127 49.66,49.68 C49.8493127,49.4922334 49.9557983,49.2366375 49.9557983,48.97 C49.9557983,48.7033625 49.8493127,48.4477666 49.66,48.26 L45.43,44 C45.0351164,43.6051164 44.3948836,43.6051165 44,44 C43.6051165,44.3948836 43.6051164,45.0351164 44,45.43 L44,45.43 Z" id="Path"></path>
            <path d="M49,32 C49,32.5522847 49.4477153,33 50,33 L56,33 C56.5522847,33 57,32.5522847 57,32 C57,31.4477153 56.5522847,31 56,31 L50,31 C49.4477153,31 49,31.4477153 49,32 Z" id="Path"></path>
            <path d="M48.26,14.32 L44,18.57 C43.8075873,18.7581405 43.6991245,19.0158913 43.6991245,19.285 C43.6991245,19.5541087 43.8075873,19.8118595 44,20 C44.1887188,20.1871865 44.444197,20.2915368 44.71,20.2900167 C44.9723399,20.2888954 45.2237394,20.1847442 45.41,20 L49.66,15.76 C49.9136586,15.5063414 50.0127235,15.136626 49.919878,14.790122 C49.8270326,14.4436179 49.5563821,14.1729674 49.209878,14.080122 C48.863374,13.9872765 48.4936586,14.0863414 48.24,14.34 L48.26,14.32 Z" id="Path"></path>
        </g>
    </g>
</svg>