<?xml version="1.0" encoding="UTF-8"?>
<svg width="64px" height="64px" viewBox="0 0 64 64" version="1.1" xmlns="http://www.w3.org/2000/svg" xmlns:xlink="http://www.w3.org/1999/xlink">
    <title>Home_icon</title>
    <g id="Home_icon" stroke="none" stroke-width="1" fill="none" fill-rule="evenodd">
        <g id="noun_Home_1773667" transform="translate(0.500000, 4.000000)" fill="#024F9D" fill-rule="nonzero">
            <g id="Group" transform="translate(0.424341, 0.000000)">
                <path d="M51.7661177,23.4790381 C51.7661177,24.4628161 51.7661177,25.446594 51.7661177,26.4303719 C51.7661177,28.7789685 51.7661177,31.1344932 51.7661177,33.4830898 C51.7661177,36.3374314 51.7661177,39.198701 51.7661177,42.0530426 C51.7661177,44.5124874 51.7661177,46.9719323 51.7661177,49.4313771 C51.7661177,50.6299235 51.7314776,51.8353978 51.7661177,53.0408722 C51.7661177,53.0547282 51.7661177,53.0755123 51.7661177,53.0893683 C52.458919,52.3965669 53.1517204,51.7037656 53.8445218,51.0109642 C51.9670301,51.0109642 50.0964664,51.0109642 48.2189747,51.0109642 C45.2191448,51.0109642 42.2123869,51.0109642 39.212557,51.0109642 C38.5266837,51.0109642 37.8408103,51.0109642 37.148009,51.0109642 C37.8408103,51.7037656 38.5336117,52.3965669 39.2264131,53.0893683 C39.2264131,50.3181628 39.2264131,47.5469574 39.2264131,44.775752 C39.2264131,42.9744684 39.2264131,41.1801129 39.2264131,39.3788294 C39.2264131,38.1387149 39.2749091,36.9124565 39.0393567,35.6861981 C38.4158355,32.4508157 35.5822779,29.7350344 32.3261115,29.2500735 C30.4971159,28.9729529 28.7235444,29.2292894 27.0608212,30.060651 C25.6336504,30.7811645 24.3866079,32.0143509 23.6314544,33.4138096 C22.9594371,34.6608521 22.6061084,36.0395268 22.5991804,37.4597696 C22.5991804,37.7923142 22.5991804,38.1179309 22.5991804,38.4504755 C22.5991804,40.0785587 22.5991804,41.7135699 22.5991804,43.3416531 C22.5991804,46.5285394 22.5991804,49.7154257 22.5991804,52.9023119 C22.5991804,52.964664 22.5991804,53.0270162 22.5991804,53.0893683 C23.2919818,52.3965669 23.9847831,51.7037656 24.6775845,51.0109642 C22.8000928,51.0109642 20.9295291,51.0109642 19.0520374,51.0109642 C16.0522075,51.0109642 13.0454496,51.0109642 10.0456197,51.0109642 C9.35974639,51.0109642 8.67387304,51.0109642 7.98107168,51.0109642 C8.67387304,51.7037656 9.3666744,52.3965669 10.0594758,53.0893683 C10.0594758,52.1055904 10.0594758,51.1218124 10.0594758,50.1380345 C10.0594758,47.7894379 10.0594758,45.4339132 10.0594758,43.0853166 C10.0594758,40.230975 10.0594758,37.3697054 10.0594758,34.5153638 C10.0594758,32.055919 10.0594758,29.5964741 10.0594758,27.1370293 C10.0594758,25.938483 10.0871878,24.7330086 10.0594758,23.5275342 C10.0594758,23.5136782 10.0594758,23.4928941 10.0594758,23.4790381 C10.0594758,22.39134 9.10340988,21.3521379 7.98107168,21.400634 C6.85180546,21.4491301 5.90266759,22.3151318 5.90266759,23.4790381 C5.90266759,24.4628161 5.90266759,25.446594 5.90266759,26.4303719 C5.90266759,28.7789685 5.90266759,31.1344932 5.90266759,33.4830898 C5.90266759,36.3374314 5.90266759,39.198701 5.90266759,42.0530426 C5.90266759,44.5124874 5.90266759,46.9719323 5.90266759,49.4313771 C5.90266759,50.6299235 5.87495554,51.8353978 5.90266759,53.0408722 C5.90266759,53.0547282 5.90266759,53.0755123 5.90266759,53.0893683 C5.90266759,54.2117065 6.85180546,55.1677724 7.98107168,55.1677724 C9.85856337,55.1677724 11.729127,55.1677724 13.6066187,55.1677724 C16.6064486,55.1677724 19.6132065,55.1677724 22.6130364,55.1677724 C23.2989098,55.1677724 23.9847831,55.1677724 24.6775845,55.1677724 C25.7999227,55.1677724 26.7559886,54.2186345 26.7559886,53.0893683 C26.7559886,51.2534447 26.7559886,49.4175211 26.7559886,47.5746695 C26.7559886,44.7341839 26.7559886,41.8936983 26.7559886,39.0532127 C26.7559886,38.2287791 26.7074925,37.3835614 26.8183407,36.5660558 C26.7906286,36.7531122 26.7698446,36.9332405 26.7421325,37.1202969 C26.8183407,36.5937679 26.956901,36.0880229 27.1578133,35.5961339 C27.0885332,35.7624062 27.0192531,35.9286786 26.9499729,36.0949509 C27.1023892,35.7277662 27.2894456,35.3813655 27.504214,35.0488208 C27.5527101,34.9726127 27.6081342,34.9033326 27.6566303,34.8271244 C27.8575427,34.5292198 27.2894456,35.2566613 27.5804222,34.9241166 C27.7120544,34.7786283 27.8367587,34.626212 27.975319,34.4876517 C28.1000232,34.3629475 28.2385835,34.2382433 28.3771437,34.120467 C28.7304724,33.8225624 28.1415913,34.2798113 28.2732235,34.1966752 C28.3632877,34.1412511 28.4464239,34.0719709 28.5364881,34.0165468 C28.8690327,33.8017784 29.2154334,33.614722 29.5826181,33.4623057 C29.4163458,33.5315859 29.2500735,33.600866 29.0838011,33.6701461 C29.5756901,33.4692337 30.0814351,33.3306735 30.6079641,33.2544653 C30.4209078,33.2821774 30.2407794,33.3029614 30.053723,33.3306735 C30.6287482,33.2544653 31.2037733,33.2544653 31.7787984,33.3306735 C31.5917421,33.3029614 31.4116137,33.2821774 31.2245573,33.2544653 C31.7510864,33.3306735 32.2568314,33.4692337 32.7487203,33.6701461 C32.582448,33.600866 32.4161757,33.5315859 32.2499033,33.4623057 C32.6170881,33.614722 32.9634887,33.8017784 33.2960334,34.0165468 C33.3722416,34.0650429 33.4415217,34.120467 33.5177298,34.1689631 C33.8156344,34.3698755 33.088193,33.8017784 33.4207376,34.092755 C33.5662259,34.2243872 33.7186422,34.3490915 33.8572025,34.4876517 C33.9819068,34.612356 34.106611,34.7509163 34.2243872,34.8894765 C34.5222918,35.2428052 34.0650429,34.6539241 34.1481791,34.7855563 C34.2036032,34.8756205 34.2728833,34.9587567 34.3283074,35.0488208 C34.5430759,35.3813655 34.7301322,35.7277662 34.8825485,36.0949509 C34.8132684,35.9286786 34.7439882,35.7624062 34.6747081,35.5961339 C34.8756205,36.0880229 35.0141808,36.5937679 35.0903889,37.1202969 C35.0626769,36.9332405 35.0418928,36.7531122 35.0141808,36.5660558 C35.104245,37.2657852 35.0765329,37.9793706 35.0765329,38.6791 C35.0765329,39.9053584 35.0765329,41.1246888 35.0765329,42.3509472 C35.0765329,45.2468569 35.0765329,48.1427666 35.0765329,51.0386763 C35.0765329,51.7176216 35.0765329,52.4034949 35.0765329,53.0824403 C35.0765329,54.2047785 36.0256708,55.1608444 37.154937,55.1608444 C39.0324287,55.1608444 40.9029923,55.1608444 42.780484,55.1608444 C45.7803139,55.1608444 48.7870718,55.1608444 51.7869017,55.1608444 C52.4727751,55.1608444 53.1586484,55.1608444 53.8514498,55.1608444 C54.973788,55.1608444 55.9298539,54.2117065 55.9298539,53.0824403 C55.9298539,52.0986623 55.9298539,51.1148844 55.9298539,50.1311065 C55.9298539,47.7825099 55.9298539,45.4269852 55.9298539,43.0783886 C55.9298539,40.224047 55.9298539,37.3627774 55.9298539,34.5084358 C55.9298539,32.048991 55.9298539,29.5895461 55.9298539,27.1301013 C55.9298539,25.9315549 55.9575659,24.7260806 55.9298539,23.5206062 C55.9298539,23.5067502 55.9298539,23.4859661 55.9298539,23.4721101 C55.9298539,22.384412 54.973788,21.3452099 53.8514498,21.393706 C52.7221836,21.4560581 51.7661177,22.3151318 51.7661177,23.4790381 L51.7661177,23.4790381 Z" id="Path"></path>
                <path d="M3.54714297,29.9082347 C4.48935282,29.035305 5.43156267,28.1554473 6.38070053,27.2825176 C8.64616098,25.1833295 10.9116214,23.0841413 13.1770819,20.9849532 C15.9067192,18.4562283 18.6363566,15.9205753 21.365994,13.3918503 C23.7284466,11.202598 26.0839712,9.0133457 28.4464239,6.8240934 C29.5964741,5.75717931 30.7742364,4.71797727 31.8965747,3.62335112 C31.9104307,3.60949509 31.9312147,3.59563906 31.9450707,3.58178304 C30.9682208,3.58178304 29.9844429,3.58178304 29.007593,3.58178304 C29.9775149,4.45471275 30.9474368,5.32764247 31.9242867,6.20750019 C34.2590273,8.30668832 36.5868399,10.4058764 38.9215805,12.5050646 C41.734354,15.0337895 44.5471275,17.5694425 47.352973,20.0981675 C49.7847058,22.2874198 52.2164386,24.4766721 54.6481713,26.6659244 C55.8328617,27.7328385 57.010624,28.8136086 58.2091703,29.8666667 C58.2230264,29.8805227 58.2438104,29.8943787 58.2576664,29.9082347 C59.068244,30.6356762 60.4122787,30.7673084 61.1951442,29.9082347 C61.9225856,29.1115132 62.0611459,27.7466945 61.1951442,26.970757 C60.2252223,26.0978273 59.2553004,25.2248975 58.2784505,24.3450398 C55.9437099,22.2458517 53.6158973,20.1466636 51.2811567,18.0474755 C48.4683832,15.5187505 45.6556097,12.9830975 42.8497642,10.4543725 C40.4180314,8.26512024 37.9862986,6.07586793 35.5545658,3.88661563 C34.3698755,2.81970154 33.1921132,1.73893142 31.9935668,0.685873347 C31.9797108,0.67201732 31.9589268,0.658161293 31.9450707,0.644305266 C31.0859971,-0.131632259 29.8666667,-0.152416299 29.007593,0.644305266 C28.0653831,1.51723498 27.1231733,2.39709271 26.1740354,3.27002242 C23.908575,5.36921055 21.6431145,7.46839867 19.3776541,9.56758679 C16.6480167,12.0963118 13.9183793,14.6319647 11.188742,17.1606897 C8.82628934,19.349942 6.47076471,21.5391943 4.10831207,23.7284466 C2.95826181,24.7953607 1.7804995,25.8345627 0.658161293,26.9291889 C0.644305266,26.9430449 0.623521225,26.956901 0.609665198,26.970757 C-0.187056367,27.7120544 -0.193984381,29.1669373 0.609665198,29.9082347 C1.46181087,30.6911003 2.69499729,30.6980283 3.54714297,29.9082347 L3.54714297,29.9082347 Z" id="Path"></path>
            </g>
        </g>
    </g>
</svg>