<svg id="Layer_1" data-name="Layer 1" xmlns="http://www.w3.org/2000/svg" viewBox="0 0 448 480"><defs><style>.cls-1{fill:#024f9d;}</style></defs><path class="cls-1" d="M464,240a112.07,112.07,0,0,0-96-110.72V56a24,24,0,0,0-24-24H272V16A16,16,0,0,0,256,0H128a16,16,0,0,0-16,16V32H40A24,24,0,0,0,16,56V416a24,24,0,0,0,24,24H320v8a32,32,0,0,0,64,0V368a8,8,0,0,0-8-8V349.34A112.13,112.13,0,0,0,464,240Zm-16,0a96,96,0,1,1-96-96A96,96,0,0,1,448,240ZM344,48a8,8,0,0,1,8,8v72a111.34,111.34,0,0,0-16,1.28V80a16,16,0,0,0-16-16H272V48ZM128,16H256V96H128Zm128,96a16,16,0,0,0,16-16V80h48v52.72a111.93,111.93,0,0,0,8,216.62V360a8,8,0,0,0-8,8v24H64V80h48V96a16,16,0,0,0,16,16ZM40,424a8,8,0,0,1-8-8V56a8,8,0,0,1,8-8h72V64H64A16,16,0,0,0,48,80V392a16,16,0,0,0,16,16H320v16Zm328,24a16,16,0,0,1-32,0V376h32Zm-8-88H344v-8.41c2.66.2,5.3.41,8,.41s5.34-.21,8-.41Z" transform="translate(-16 0)"/><path class="cls-1" d="M272,240a80.09,80.09,0,0,0,80,80V304a64,64,0,0,1,0-128V160A80.09,80.09,0,0,0,272,240Z" transform="translate(-16 0)"/><path class="cls-1" d="M96,160v64a8,8,0,0,0,8,8h64a8,8,0,0,0,8-8V165.6l14.07-16.42-12.14-10.4L166.61,152H104A8,8,0,0,0,96,160Zm16,8h40.89l-17.35,20.23-9.88-9.89-11.32,11.32,16,16A8,8,0,0,0,136,208h.31a8,8,0,0,0,5.76-2.79L160,184.29V216H112Z" transform="translate(-16 0)"/></svg>