<?xml version="1.0" encoding="UTF-8"?>
<svg width="32px" height="32px" viewBox="0 0 32 32" version="1.1" xmlns="http://www.w3.org/2000/svg" xmlns:xlink="http://www.w3.org/1999/xlink">
    <title>4523CCDD-18DD-478D-A44B-E41A6C50B596</title>
    <g id="Textbooks" stroke="none" stroke-width="1" fill="none" fill-rule="evenodd">
        <g id="1440-X-768" transform="translate(-1079.000000, -110.000000)">
            <g id="Group-10" transform="translate(1063.000000, 102.000000)">
                <g id="podcasts" transform="translate(16.000000, 8.000000)">
                    <circle id="Oval" cx="16" cy="16" r="16"></circle>
                    <g id="Group-9" transform="translate(5.000000, 4.000000)" stroke="#0531FF" stroke-linecap="round" stroke-linejoin="round" stroke-width="1.5">
                        <path d="M5.4297,19.9878 C2.6077,18.1078 0.7497,14.8998 0.7497,11.2498 C0.7497,5.4498 5.4507,0.7498 11.2497,0.7498 C17.0497,0.7498 21.7497,5.4498 21.7497,11.2498 C21.7497,15.0758 19.7077,18.4178 16.6537,20.2518" id="Stroke-1"></path>
                        <path d="M5.2139,15.1284 C4.5759,14.0694 4.2089,12.8284 4.2089,11.5024 C4.2089,7.6184 7.3659,4.4614 11.2499,4.4614 C15.1339,4.4614 18.2909,7.6184 18.2909,11.5024 C18.2909,12.7854 17.9469,13.9884 17.3479,15.0244" id="Stroke-3"></path>
                        <path d="M14.25,11.25 C14.25,12.907 12.907,14.25 11.25,14.25 C9.593,14.25 8.25,12.907 8.25,11.25 C8.25,9.593 9.593,8.25 11.25,8.25 C12.907,8.25 14.25,9.593 14.25,11.25 Z" id="Stroke-5"></path>
                        <path d="M11.25,23.25 L11.25,23.25 C9.593,23.25 8.25,21.907 8.25,20.25 L8.25,17.25 C8.25,15.593 9.593,14.25 11.25,14.25 C12.907,14.25 14.25,15.593 14.25,17.25 L14.25,20.25 C14.25,21.907 12.907,23.25 11.25,23.25 Z" id="Stroke-7"></path>
                    </g>
                </g>
            </g>
        </g>
    </g>
</svg>