<?xml version="1.0" encoding="UTF-8"?>
<svg width="22px" height="24px" viewBox="0 0 22 24" version="1.1" xmlns="http://www.w3.org/2000/svg" xmlns:xlink="http://www.w3.org/1999/xlink">
    <title>7BFB3E19-32B1-4161-A4CC-0E6448196537</title>
    <g id="Illustration-&amp;-colour-palette-" stroke="none" stroke-width="1" fill="none" fill-rule="evenodd" stroke-linecap="round" stroke-linejoin="round">
        <g id="Category-Colours" transform="translate(-1197.000000, -111.000000)" stroke="#7B4EFF" stroke-width="1.5">
            <g id="Group-2" transform="translate(258.000000, 100.000000)">
                <g id="Group-10-Copy" transform="translate(924.000000, 0.000000)">
                    <g id="Group-9" transform="translate(16.000000, 12.000000)">
                        <path d="M4.93609091,18.32215 C2.37063636,16.5988167 0.681545455,13.65815 0.681545455,10.3123167 C0.681545455,4.99565 4.95518182,0.687316667 10.227,0.687316667 C15.4997273,0.687316667 19.7724545,4.99565 19.7724545,10.3123167 C19.7724545,13.8194833 17.9160909,16.8829833 15.1397273,18.56415" id="Stroke-1"></path>
                        <path d="M4.73990909,13.8677 C4.15990909,12.89695 3.82627273,11.7593667 3.82627273,10.5438667 C3.82627273,6.98353333 6.69627273,4.08961667 10.2271818,4.08961667 C13.7580909,4.08961667 16.6280909,6.98353333 16.6280909,10.5438667 C16.6280909,11.71995 16.3153636,12.8227 15.7708182,13.7723667" id="Stroke-3"></path>
                        <path d="M12.9545455,10.3125 C12.9545455,11.8314167 11.7336364,13.0625 10.2272727,13.0625 C8.72090909,13.0625 7.5,11.8314167 7.5,10.3125 C7.5,8.79358333 8.72090909,7.5625 10.2272727,7.5625 C11.7336364,7.5625 12.9545455,8.79358333 12.9545455,10.3125 Z" id="Stroke-5"></path>
                        <path d="M10.2272727,21.3125 C8.72090909,21.3125 7.5,20.0814167 7.5,18.5625 L7.5,15.8125 C7.5,14.2935833 8.72090909,13.0625 10.2272727,13.0625 C11.7336364,13.0625 12.9545455,14.2935833 12.9545455,15.8125 L12.9545455,18.5625 C12.9545455,20.0814167 11.7336364,21.3125 10.2272727,21.3125 Z" id="Stroke-7"></path>
                    </g>
                </g>
            </g>
        </g>
    </g>
</svg>