<?xml version="1.0" encoding="UTF-8"?>
<svg width="24px" height="22px" viewBox="0 0 24 22" version="1.1" xmlns="http://www.w3.org/2000/svg" xmlns:xlink="http://www.w3.org/1999/xlink">
    <title>81095A51-D9BB-4C7C-BB37-B087F3DB8022</title>
    <g id="Illustration-&amp;-colour-palette-" stroke="none" stroke-width="1" fill="none" fill-rule="evenodd" stroke-linecap="round" stroke-linejoin="round">
        <g id="Category-Colours" transform="translate(-914.000000, -113.000000)" stroke="#B620E0" stroke-width="1.5">
            <g id="Group-2" transform="translate(258.000000, 100.000000)">
                <g id="Group-22-Copy-11" transform="translate(641.000000, 0.000000)">
                    <g id="poem" transform="translate(16.000000, 14.000000)">
                        <path d="M0.602884608,2.37499997 C0.602884608,1.39333332 1.41476921,0.593749993 2.41153843,0.593749993" id="Stroke-1"></path>
                        <path d="M4.22019225,17.8360914 C4.23626918,18.8098414 5.04011532,19.5935914 6.02884608,19.5935914" id="Stroke-3"></path>
                        <path d="M4.22019225,17.8360914 C4.23626918,18.8098414 5.04011532,19.5935914 6.02884608,19.5935914" id="Stroke-5"></path>
                        <path d="M18.6894228,17.8360914 C18.6894228,18.8019248 17.8855767,19.5935914 16.9048844,19.5935914 L6.02884608,19.5935914 C7.01757684,19.5935914 7.82142298,18.8098414 7.8374999,17.8360914 L18.6894228,17.8360914 Z" id="Stroke-7"></path>
                        <path d="M4.22019225,2.37499997 L0.602884608,2.37499997 C0.602884608,1.39333332 1.41476921,0.593749993 2.41153843,0.593749993 C2.90992304,0.593749993 3.36007688,0.791666657 3.6896538,1.11624999 C4.01923072,1.44083332 4.22019225,1.88416664 4.22019225,2.37499997 Z" id="Stroke-9"></path>
                        <path d="M15.6749998,12.8093248 L15.6749998,17.8364081 L7.8374999,17.8364081 C7.82142298,18.8101581 7.01757684,19.5939083 6.02884608,19.5939083 C5.04011532,19.5939083 4.23626918,18.8101581 4.22019225,17.8364081 L4.22019225,2.3751583 C4.22019225,1.88432498 4.01923072,1.44099165 3.6896538,1.11640832 C3.36007688,0.79182499 2.90992304,0.593908326 2.41153843,0.593908326 L13.866346,0.593908326 C14.8631152,0.593908326 15.6749998,1.39349165 15.6749998,2.3751583 L15.6749998,5.42307493" id="Stroke-11"></path>
                        <polygon id="Stroke-13" points="11.4626852 13.2306498 10.277816 9.70298321 12.8163621 5.98056659 13.8316198 8.23048323 15.5245198 5.48023326 21.7004697 3.14719163 18.9931159 8.56377489 17.8572813 9.12744155 19.5011467 10.6474415 14.9312814 13.2306498"></polygon>
                        <line x1="16.5612402" y1="8.06937907" x2="9.64896719" y2="14.6235873" id="Stroke-15"></line>
                    </g>
                </g>
            </g>
        </g>
    </g>
</svg>