<?xml version="1.0" standalone="no"?>
<!DOCTYPE svg PUBLIC "-//W3C//DTD SVG 20010904//EN"
 "http://www.w3.org/TR/2001/REC-SVG-20010904/DTD/svg10.dtd">
<svg version="1.0" xmlns="http://www.w3.org/2000/svg"
 width="32.000000pt" height="32.000000pt" viewBox="0 0 32.000000 32.000000"
 preserveAspectRatio="xMidYMid meet">

<g transform="translate(0.000000,32.000000) scale(0.100000,-0.100000)"
fill="#ffffff" stroke="none">
<path d="M113 300 c-3 -13 -14 -20 -29 -20 -14 0 -24 -6 -24 -14 0 -8 -14 -19
-31 -25 -25 -9 -29 -14 -23 -33 12 -38 33 -83 34 -72 0 6 -7 28 -16 49 -17 41
-17 40 13 49 19 6 23 2 28 -26 3 -18 11 -64 18 -103 12 -69 13 -70 42 -67 l30
2 -30 -14 c-37 -17 -41 -15 -55 32 -7 20 -17 42 -22 47 -5 6 0 -14 11 -44 11
-29 21 -55 23 -57 2 -1 41 10 86 27 46 16 99 29 118 29 l34 0 0 108 c0 100 -2
110 -23 130 -20 19 -35 22 -101 22 -69 0 -78 -2 -83 -20z m157 -10 c0 -13 7
-20 20 -20 19 0 20 -7 20 -100 l0 -100 -94 0 -95 0 -4 42 -4 43 1 -45 c1 -42
3 -45 31 -51 30 -7 29 -7 -6 -8 l-37 -1 -11 63 c-26 147 -26 157 -3 157 17 0
22 -7 25 -42 3 -34 4 -30 5 20 l2 62 75 0 c68 0 75 -2 75 -20z m25 0 c3 -5 1
-10 -4 -10 -6 0 -11 5 -11 10 0 6 2 10 4 10 3 0 8 -4 11 -10z"/>
<path d="M183 243 c20 -2 54 -2 75 0 20 2 3 4 -38 4 -41 0 -58 -2 -37 -4z"/>
<path d="M183 213 c20 -2 54 -2 75 0 20 2 3 4 -38 4 -41 0 -58 -2 -37 -4z"/>
<path d="M177 173 c18 -2 50 -2 70 0 21 2 7 4 -32 4 -38 0 -55 -2 -38 -4z"/>
<path d="M183 143 c20 -2 54 -2 75 0 20 2 3 4 -38 4 -41 0 -58 -2 -37 -4z"/>
<path d="M183 113 c20 -2 54 -2 75 0 20 2 3 4 -38 4 -41 0 -58 -2 -37 -4z"/>
</g>
</svg>
