<?xml version="1.0" encoding="UTF-8"?>
<svg width="23px" height="23px" viewBox="0 0 23 23" version="1.1" xmlns="http://www.w3.org/2000/svg" xmlns:xlink="http://www.w3.org/1999/xlink">
    <title>815C0C08-D63A-4285-B686-CCB172893E0F</title>
    <g id="Illustration-&amp;-colour-palette-" stroke="none" stroke-width="1" fill="none" fill-rule="evenodd">
        <g id="Category-Colours" transform="translate(-553.000000, -113.000000)">
            <g id="Group-2" transform="translate(258.000000, 100.000000)">
                <g id="Group-19-Copy" transform="translate(279.000000, 0.000000)">
                    <g id="Quiz" transform="translate(16.000000, 13.000000)">
                        <path d="M19.8838,16.1499 L18.9498,16.1499 L18.9498,21.7499 L13.3498,16.1499 L2.6158,16.1499 C1.5858,16.1499 0.7498,15.3149 0.7498,14.2829 L0.7498,2.6169 C0.7498,1.5859 1.5858,0.7499 2.6158,0.7499 L19.8838,0.7499 C20.9138,0.7499 21.7498,1.5859 21.7498,2.6169 L21.7498,14.2829 C21.7498,15.3149 20.9138,16.1499 19.8838,16.1499 Z" id="Stroke-1" stroke="#0C989B" stroke-width="1.5" stroke-linecap="round" stroke-linejoin="round"></path>
                        <path d="M8.4502,6.9102 L8.4502,6.2592 C8.4502,4.7632 9.6632,3.5502 11.1592,3.5502 L11.3412,3.5502 C12.8372,3.5502 14.0502,4.7632 14.0502,6.2592 C14.0502,7.3172 13.3732,8.2552 12.3702,8.5902 C11.3672,8.9242 10.6902,9.8632 10.6902,10.9212" id="Stroke-3" stroke="#0C989B" stroke-width="1.5" stroke-linecap="round" stroke-linejoin="round"></path>
                        <path d="M10.6836,13.7207 C10.5896,13.7207 10.4966,13.7017 10.4126,13.6647 C10.3296,13.6277 10.2536,13.5797 10.1886,13.5147 C10.1226,13.4497 10.0766,13.3747 10.0386,13.2917 C10.0016,13.2067 9.9836,13.1137 9.9836,13.0207 C9.9836,12.9277 10.0016,12.8337 10.0386,12.7497 C10.0766,12.6657 10.1226,12.5917 10.1886,12.5257 C10.2536,12.4607 10.3296,12.4137 10.4126,12.3767 C10.5796,12.3017 10.7766,12.3017 10.9546,12.3767 C11.0376,12.4137 11.1126,12.4607 11.1786,12.5257 C11.2436,12.5917 11.2896,12.6657 11.3276,12.7497 C11.3646,12.8337 11.3836,12.9277 11.3836,13.0207 C11.3836,13.1137 11.3646,13.2067 11.3276,13.2917 C11.2896,13.3747 11.2436,13.4497 11.1786,13.5147 C11.0466,13.6457 10.8706,13.7207 10.6836,13.7207" id="Fill-5" fill="#0C989B"></path>
                    </g>
                </g>
            </g>
        </g>
    </g>
</svg>