<?xml version="1.0" encoding="UTF-8"?>
<svg width="18px" height="24px" viewBox="0 0 18 24" version="1.1" xmlns="http://www.w3.org/2000/svg" xmlns:xlink="http://www.w3.org/1999/xlink">
    <title>2232B581-801F-46CC-B95B-657E702CD1E9</title>
    <g id="Illustration-&amp;-colour-palette-" stroke="none" stroke-width="1" fill="none" fill-rule="evenodd" stroke-linecap="round" stroke-linejoin="round">
        <g id="Category-Colours" transform="translate(-794.000000, -112.000000)" stroke="#008840" stroke-width="1.5">
            <g id="Group-2" transform="translate(258.000000, 100.000000)">
                <g id="Group-22-Copy-10" transform="translate(520.000000, 0.000000)">
                    <g id="Group-7" transform="translate(16.000000, 13.000000)">
                        <path d="M15.3076,21.3933739 L2.6926,21.3933739 C1.6196,21.3933739 0.7496,20.5612 0.7496,19.5358087 L0.7496,6.03354783 C0.7496,5.00815652 1.6196,4.17598261 2.6926,4.17598261 L15.3076,4.17598261 C16.3806,4.17598261 17.2496,5.00815652 17.2496,6.03354783 L17.2496,19.5358087 C17.2496,20.5612 16.3806,21.3933739 15.3076,21.3933739 Z" id="Stroke-1"></path>
                        <path d="M2.25,4.17598261 L11.548,0.840591304 C12.855,0.371895652 14.25,1.29685217 14.25,2.63215652 L14.25,4.17598261" id="Stroke-3"></path>
                        <path d="M14.0596,13.8560783 C13.4996,15.6256435 11.7806,16.9073826 9.7496,16.9073826 C7.2596,16.9073826 5.2496,14.9847739 5.2496,12.6030348 C5.2496,10.6612957 6.5896,9.01607826 8.4406,8.48042609 C8.3206,8.88216522 8.2496,9.30303478 8.2496,9.73346957 C8.2496,12.1152087 10.2596,14.0378174 12.7496,14.0378174 C13.2006,14.0378174 13.6396,13.9708609 14.0596,13.8560783 Z" id="Stroke-5"></path>
                    </g>
                </g>
            </g>
        </g>
    </g>
</svg>