<?xml version="1.0" encoding="UTF-8"?>
<svg width="32px" height="32px" viewBox="0 0 32 32" version="1.1" xmlns="http://www.w3.org/2000/svg" xmlns:xlink="http://www.w3.org/1999/xlink">
    <title>497C5C33-ADCC-4923-AA01-C57D271F053D</title>
    <g id="Textbooks" stroke="none" stroke-width="1" fill="none" fill-rule="evenodd">
        <g id="1440-X-768" transform="translate(-640.000000, -110.000000)">
            <g id="Group-22-Copy-2" transform="translate(624.000000, 102.000000)">
                <g id="Stories" transform="translate(16.000000, 8.000000)">
                    <circle id="Oval" cx="16" cy="16" r="16"></circle>
                    <g id="Group-7" transform="translate(7.000000, 5.000000)" stroke="#0531FF" stroke-linecap="round" stroke-linejoin="round" stroke-width="1.5">
                        <path d="M15.3076,22.3658 L2.6926,22.3658 C1.6196,22.3658 0.7496,21.4958 0.7496,20.4238 L0.7496,6.3078 C0.7496,5.2358 1.6196,4.3658 2.6926,4.3658 L15.3076,4.3658 C16.3806,4.3658 17.2496,5.2358 17.2496,6.3078 L17.2496,20.4238 C17.2496,21.4958 16.3806,22.3658 15.3076,22.3658 Z" id="Stroke-1"></path>
                        <path d="M2.25,4.3658 L11.548,0.8788 C12.855,0.3888 14.25,1.3558 14.25,2.7518 L14.25,4.3658" id="Stroke-3"></path>
                        <path d="M14.0596,14.4859 C13.4996,16.3359 11.7806,17.6759 9.7496,17.6759 C7.2596,17.6759 5.2496,15.6659 5.2496,13.1759 C5.2496,11.1459 6.5896,9.4259 8.4406,8.8659 C8.3206,9.2859 8.2496,9.7259 8.2496,10.1759 C8.2496,12.6659 10.2596,14.6759 12.7496,14.6759 C13.2006,14.6759 13.6396,14.6059 14.0596,14.4859 Z" id="Stroke-5"></path>
                    </g>
                </g>
            </g>
        </g>
    </g>
</svg>