<?xml version="1.0" encoding="UTF-8"?>
<svg width="32px" height="32px" viewBox="0 0 32 32" version="1.1" xmlns="http://www.w3.org/2000/svg" xmlns:xlink="http://www.w3.org/1999/xlink">
    <title>BF186B48-CD1D-4B0C-B6B8-7768B0576F28</title>
    <g id="Textbooks" stroke="none" stroke-width="1" fill="none" fill-rule="evenodd">
        <g id="1440-X-768" transform="translate(-76.000000, -110.000000)">
            <g id="Group-22" transform="translate(60.000000, 102.000000)">
                <g id="Textbook" transform="translate(16.000000, 8.000000)">
                    <circle id="Oval" fill="#EDEDED" opacity="0" cx="16" cy="16" r="16"></circle>
                    <path d="M27,11.5 L27,25 L6,25 L6,11.5 L9,11.5 L9,22 L10.15,22 C12.35,22 14.53,22.51 16.5,23.5 C18.47,22.51 20.65,22 22.85,22 L24,22 L24,11.5 L27,11.5 Z" id="Stroke-1" stroke="#FFFFFF" stroke-width="1.5" stroke-linecap="round" stroke-linejoin="round"></path>
                    <path d="M16.5,11.5 L16.5,23.5 C14.53,22.51 12.35,22 10.15,22 L9,22 L9,7 C11.81,7 14.44,8.41 16,10.74 L16.5,11.5 Z" id="Stroke-3" stroke="#FFFFFF" stroke-width="1.5" stroke-linecap="round" stroke-linejoin="round"></path>
                    <path d="M24,7 L24,22 L22.85,22 C20.65,22 18.47,22.51 16.5,23.5 L16.5,11.5 L17,10.74 C18.56,8.41 21.19,7 24,7 Z" id="Stroke-5" stroke="#FFFFFF" stroke-width="1.5" stroke-linecap="round" stroke-linejoin="round"></path>
                </g>
            </g>
        </g>
    </g>
</svg>