<svg width="122px" height="35px" viewBox="0 0 122 35" version="1.1" xmlns="http://www.w3.org/2000/svg" xmlns:xlink="http://www.w3.org/1999/xlink">
    <title>banner2</title>
    <g id="Symbols" stroke="none" stroke-width="1" fill="none" fill-rule="evenodd">
        <g id="banner2" transform="translate(0.000000, 0.424235)">
            <g id="Group-19-Copy-2" transform="translate(95.594216, 4.106318)">
                <path d="M3.51542294,0 C6.82773354,0.863973932 10.4293026,2.63217756 14.32013,5.30461087 C18.2109575,7.97704419 21.8125265,11.1563501 25.1248371,14.8425287 C23.5149236,15.1853249 21.7647488,15.7179792 19.8743128,16.4404918 C17.9838768,17.1630043 16.1324825,18.0068466 14.32013,18.9720186 C13.9205615,20.9612184 13.7207772,22.5453492 13.7207772,23.724411 C13.7207772,24.9034728 13.9205615,26.0774893 14.32013,27.2464606 L1.13686838e-13,23.724411 L3.51542294,0 Z" id="Path-8" fill="#D76B6B"></path>
                <polygon id="Path-9" fill="#A45353" points="3.51542294 5.59552404e-14 0 8.19462968 12.8479155 11.893682"></polygon>
            </g>
            <g id="Group-19-Copy-3" transform="translate(13.000000, 18.106318) scale(-1, 1) translate(-13.000000, -18.106318) translate(0.000000, 4.106318)">
                <path d="M3.51542294,0 C6.82773354,0.863973932 10.4293026,2.63217756 14.32013,5.30461087 C18.2109575,7.97704419 21.8125265,11.1563501 25.1248371,14.8425287 C23.5149236,15.1853249 21.7647488,15.7179792 19.8743128,16.4404918 C17.9838768,17.1630043 16.1324825,18.0068466 14.32013,18.9720186 C13.9205615,20.9612184 13.7207772,22.5453492 13.7207772,23.724411 C13.7207772,24.9034728 13.9205615,26.0774893 14.32013,27.2464606 L1.13686838e-13,23.724411 L3.51542294,0 Z" id="Path-8" fill="#D76B6B"></path>
                <polygon id="Path-9" fill="#A45353" points="3.51542294 5.59552404e-14 0 8.19462968 12.8479155 11.893682"></polygon>
            </g>
            <path d="M13,16 C17.2659817,22.7972727 19.7988013,27.2431838 20.5984588,29.3377333 C21.3981163,31.4322829 21.7979451,32.9142532 21.7979451,33.7836444 C34.9239946,31.1169778 48.0500442,29.7836444 61.1760938,29.7836444 C74.3021434,29.7836444 87.4281929,31.1169778 100.554243,33.7836444 C100.554243,32.9142532 100.878233,31.4322829 101.526215,29.3377333 C102.788486,25.6293672 105.093792,21.183456 108.442132,16 C92.5351096,5.33333333 76.6280877,-1.0658141e-14 60.7210658,-1.0658141e-14 C44.8140438,-1.0658141e-14 28.9070219,5.33333333 13,16 Z" id="Path-6-Copy" fill="#FF8080"></path>
            <path d="M60.2557246,22.7446443 L54.8733296,25.5743368 C54.384485,25.8313376 53.7798579,25.6433911 53.5228571,25.1545465 C53.420518,24.959886 53.3852033,24.736918 53.4223802,24.5201603 L54.4503261,18.5267754 C54.5059641,18.2023814 54.3984156,17.8713812 54.1627295,17.641644 L49.8082805,13.3971052 C49.4127969,13.011604 49.4047046,12.3784908 49.7902058,11.9830072 C49.9437144,11.8255235 50.1448568,11.7230364 50.3624939,11.6914119 L56.3801944,10.8169888 C56.7059046,10.7696603 56.9874702,10.565091 57.1331322,10.2699475 L59.8243297,4.81698575 C60.068752,4.32173209 60.6683778,4.11839309 61.1636315,4.36281539 C61.3608441,4.46014562 61.5204716,4.61977315 61.6178018,4.81698575 L64.3089993,10.2699475 C64.4546613,10.565091 64.7362269,10.7696603 65.0619371,10.8169888 L71.0796376,11.6914119 C71.6261825,11.7708295 72.004864,12.2782723 71.9254463,12.8248172 C71.8938218,13.0424542 71.7913346,13.2435966 71.633851,13.3971052 L67.279402,17.641644 C67.0437159,17.8713812 66.9361674,18.2023814 66.9918054,18.5267754 L68.0197513,24.5201603 C68.1131123,25.0644968 67.7475245,25.5814527 67.2031881,25.6748137 C66.9864304,25.7119906 66.7634624,25.6766759 66.5688019,25.5743368 L61.1864069,22.7446443 C60.8950829,22.5914862 60.5470486,22.5914862 60.2557246,22.7446443 Z" id="Star-Copy-12" fill="#D76B6B"></path>
            <path d="M41.4883952,25.1223222 L39.0910903,26.3826599 C38.846668,26.5111603 38.5443544,26.4171871 38.415854,26.1727648 C38.3646845,26.0754345 38.3470272,25.9639505 38.3656156,25.8555717 L38.8234601,23.1861335 C38.851279,23.0239364 38.7975048,22.8584363 38.6796618,22.7435678 L36.7402014,20.8530611 C36.5424596,20.6603105 36.5384134,20.3437539 36.731164,20.1460121 C36.8079183,20.0672703 36.9084896,20.0160267 37.0173081,20.0002144 L39.6975764,19.6107486 C39.8604315,19.5870844 40.0012143,19.4847997 40.0740453,19.337228 L41.2726977,16.9084929 C41.3949089,16.660866 41.6947218,16.5591965 41.9423486,16.6814077 C42.0409549,16.7300728 42.1207687,16.8098866 42.1694338,16.9084929 L43.3680862,19.337228 C43.4409172,19.4847997 43.5817,19.5870844 43.7445551,19.6107486 L46.4248234,20.0002144 C46.6980959,20.0399232 46.8874366,20.2936447 46.8477278,20.5669171 C46.8319155,20.6757356 46.7806719,20.7763068 46.7019301,20.8530611 L44.7624697,22.7435678 C44.6446267,22.8584363 44.5908525,23.0239364 44.6186714,23.1861335 L45.0765159,25.8555717 C45.1231964,26.1277399 44.9404025,26.3862179 44.6682343,26.4328984 C44.5598555,26.4514868 44.4483714,26.4338294 44.3510412,26.3826599 L41.9537363,25.1223222 C41.8080743,25.0457431 41.6340572,25.0457431 41.4883952,25.1223222 Z" id="Star-Copy-13" fill="#D76B6B"></path>
            <path d="M79.4883952,25.1223222 L77.0910903,26.3826599 C76.846668,26.5111603 76.5443544,26.4171871 76.415854,26.1727648 C76.3646845,26.0754345 76.3470272,25.9639505 76.3656156,25.8555717 L76.8234601,23.1861335 C76.851279,23.0239364 76.7975048,22.8584363 76.6796618,22.7435678 L74.7402014,20.8530611 C74.5424596,20.6603105 74.5384134,20.3437539 74.731164,20.1460121 C74.8079183,20.0672703 74.9084896,20.0160267 75.0173081,20.0002144 L77.6975764,19.6107486 C77.8604315,19.5870844 78.0012143,19.4847997 78.0740453,19.337228 L79.2726977,16.9084929 C79.3949089,16.660866 79.6947218,16.5591965 79.9423486,16.6814077 C80.0409549,16.7300728 80.1207687,16.8098866 80.1694338,16.9084929 L81.3680862,19.337228 C81.4409172,19.4847997 81.5817,19.5870844 81.7445551,19.6107486 L84.4248234,20.0002144 C84.6980959,20.0399232 84.8874366,20.2936447 84.8477278,20.5669171 C84.8319155,20.6757356 84.7806719,20.7763068 84.7019301,20.8530611 L82.7624697,22.7435678 C82.6446267,22.8584363 82.5908525,23.0239364 82.6186714,23.1861335 L83.0765159,25.8555717 C83.1231964,26.1277399 82.9404025,26.3862179 82.6682343,26.4328984 C82.5598555,26.4514868 82.4483714,26.4338294 82.3510412,26.3826599 L79.9537363,25.1223222 C79.8080743,25.0457431 79.6340572,25.0457431 79.4883952,25.1223222 Z" id="Star-Copy-14" fill="#D76B6B"></path>
        </g>
    </g>
</svg>