<svg width="36" height="36" xmlns="http://www.w3.org/2000/svg"><defs><linearGradient x1="0%" y1="0%" x2="101.72%" y2="100%" id="a"><stop stop-color="#415CF2" offset="0%"/><stop stop-color="#6E84FD" offset="100%"/></linearGradient></defs><g fill="none" fill-rule="evenodd"><path d="M0 0h36v36H0z"/><path d="M15.135 23.385L17.25 25.5l7.5-7.5-7.5-7.5-2.115 2.115 3.87 3.885H4.5v3h14.505l-3.87 3.885zM28.5 4.5h-21a3 3 0 00-3 3v6h3v-6h21v21h-21v-6h-3v6a3 3 0 003 3h21c1.65 0 3-1.35 3-3v-21c0-1.65-1.35-3-3-3z" fill="url(#a)"/></g></svg>