<svg width="28px" height="24px" viewBox="0 0 24 24" version="1.1" xmlns="http://www.w3.org/2000/svg" xmlns:xlink="http://www.w3.org/1999/xlink">
    <title>cross</title>
    <g id="Symbols" stroke="none" stroke-width="1" fill="none" fill-rule="evenodd">
        <path d="M18.9498811,1.00756449 L12,7.938 L5.0501189,1.00756449 C4.46468766,0.423835091 3.51731984,0.423835091 2.9318886,1.00756449 L0.911730333,3.02185021 L0.808397945,3.13586128 C0.326180139,3.72557449 0.360624268,4.59675209 0.911730333,5.1462561 L7.855,12.07 L0.911730333,18.9932788 C0.323883864,19.5794164 0.323883864,20.5315471 0.911730333,21.1176847 L2.9318886,23.1319704 L3.04572167,23.2345791 C3.634327,23.7134196 4.50127711,23.6792167 5.0501189,23.1319704 L12,16.203 L18.9498811,23.1319704 C19.5353123,23.7156998 20.4826802,23.7156998 21.0681114,23.1319704 L23.0882697,21.1176847 L23.1916021,21.0036736 C23.6738199,20.4139604 23.6393757,19.5427828 23.0882697,18.9932788 L16.144,12.07 L23.0882697,5.1462561 C23.6761161,4.56011849 23.6761161,3.60798782 23.0882697,3.02185021 L21.0681114,1.00756449 C20.4826802,0.423835091 19.5353123,0.423835091 18.9498811,1.00756449 Z" id="cross" fill="#FF8080" fill-rule="nonzero"></path>
    </g>
</svg> 