<?xml version="1.0" encoding="utf-8"?>
<!-- Generator: Adobe Illustrator 16.0.0, SVG Export Plug-In . SVG Version: 6.00 Build 0)  -->
<!DOCTYPE svg PUBLIC "-//W3C//DTD SVG 1.1//EN" "http://www.w3.org/Graphics/SVG/1.1/DTD/svg11.dtd">
<svg version="1.1" xmlns="http://www.w3.org/2000/svg" xmlns:xlink="http://www.w3.org/1999/xlink" x="0px" y="0px" width="128px"
	 height="128px" viewBox="0 0 128 128" enable-background="new 0 0 128 128" xml:space="preserve">

<g id="coaching">
	<g>
		<rect x="80.054" y="67.799" fill="#0099cc" width="10.087" height="3.75"/>
		<polygon fill="#0099cc" points="38.592,38.274 38.592,44.17 41.166,43.375 41.166,40.85 92.684,40.85 92.684,73.691 
			51.689,73.691 51.555,76.266 95.26,76.266 95.26,38.274 		"/>
		<circle fill="#0099cc" cx="42.688" cy="52.376" r="7.629"/>
		<polygon fill="#0099cc" points="49.166,95.464 49.166,81.878 49.166,80.6 49.166,78.864 49.652,78.864 50.361,65.076 
			63.521,58.256 62.411,56.124 62.732,56.683 76.834,48.612 76.191,47.495 62.115,55.551 61.791,54.92 49.759,61.153 45.467,61.153 
			42.559,64.525 39.742,61.153 33.562,62.304 33.166,76.016 35.786,76.016 35.929,78.864 36.325,78.864 36.325,80.6 36.325,81.878 
			36.325,95.464 35.801,95.464 32.74,96.125 32.74,98.946 35.344,98.946 38.389,98.449 38.416,98.946 41.787,98.946 41.787,95.801 
			41.787,95.464 41.787,81.878 43.707,81.878 43.707,95.464 43.707,95.801 43.707,98.946 47.075,98.946 47.102,98.449 
			50.147,98.946 52.751,98.946 52.751,96.125 49.689,95.464 		"/>
	</g>
</g>
<g id="hover">
	<g>
		<g id="Down_1_">
			<g>
				<path fill="#0099cc" d="M64,0C28.656,0,0,28.656,0,64c0,35.348,28.656,64,64,64c35.348,0,64-28.652,64-64
					C128,28.656,99.348,0,64,0z M64,119C35.328,119,9,92.674,9,64C9,35.328,35.328,9,64,9c28.674,0,55,26.328,55,55
					C119,92.674,92.674,119,64,119z"/>
			</g>
		</g>
		<circle fill="#0099cc" cx="108.483" cy="27.773" r="14.639"/>
	</g>
</g>
</svg>
