<?xml version="1.0" encoding="utf-8"?>
<!-- Generator: Adobe Illustrator 16.0.0, SVG Export Plug-In . SVG Version: 6.00 Build 0)  -->
<!DOCTYPE svg PUBLIC "-//W3C//DTD SVG 1.1//EN" "http://www.w3.org/Graphics/SVG/1.1/DTD/svg11.dtd">
<svg version="1.1" xmlns="http://www.w3.org/2000/svg" xmlns:xlink="http://www.w3.org/1999/xlink" x="0px" y="0px" width="128px"
	 height="128px" viewBox="0 0 128 128" enable-background="new 0 0 128 128" xml:space="preserve">


<g id="communtiy">
	<g>
		<path fill="#0099cc" d="M63.882,36.341c4.104,0,7.433,3.327,7.433,7.432c0,4.103-3.328,7.43-7.433,7.43
			c-4.102,0-7.43-3.327-7.43-7.43C56.452,39.668,59.78,36.341,63.882,36.341z"/>
		<path fill="#0099cc" d="M89.896,64.216l-6.927-1.444c-2.359-0.495-4.688,0.587-5.92,2.51c-1.195-0.615-2.483-1.144-3.852-1.584
			v-4.12c0.003-3.115-2.547-5.663-5.65-5.663h-7.083c-3.121,0-5.66,2.548-5.66,5.663v4.141c-1.354,0.432-2.629,0.961-3.832,1.579
			c-1.232-1.93-3.563-3.02-5.926-2.525l-6.931,1.444c-3.043,0.636-5.017,3.653-4.382,6.706l1.742,8.313
			c0.629,3.041,3.65,5.018,6.697,4.381l2.192-0.459c1.096,1.621,2.616,3.113,4.561,4.385c4.048,2.656,9.398,4.117,15.076,4.117
			c8.688,0,16.169-3.494,19.617-8.508l2.227,0.465c3.044,0.635,6.065-1.34,6.694-4.381l1.741-8.313
			C94.915,67.869,92.94,64.852,89.896,64.216z M63.996,88.82c-5.128,0-9.933-1.291-13.518-3.654
			c-1.229-0.803-2.248-1.695-3.064-2.65l1.678-0.352c3.048-0.635,5.024-3.654,4.387-6.699l-1.561-7.473
			c0.909-0.487,1.867-0.918,2.883-1.282v1.362c0,3.109,2.544,5.658,5.658,5.658h7.084c3.106,0,5.651-2.553,5.651-5.658v-1.436
			c1.034,0.369,2.008,0.793,2.909,1.275l-1.582,7.557c-0.631,3.047,1.342,6.064,4.388,6.695l1.696,0.357
			C77.446,86.266,71.189,88.82,63.996,88.82z"/>
		<circle fill="#0099cc" cx="88.388" cy="53.541" r="7.431"/>
		<path fill="#0099cc" d="M41.136,60.815c4.022-0.841,6.587-4.782,5.758-8.798c-0.845-4.015-4.779-6.593-8.801-5.752
			c-4.016,0.838-6.592,4.776-5.752,8.794C33.181,59.079,37.117,61.654,41.136,60.815z"/>
	</g>
	<path d="M51.5,96.125"/>
</g>

<g id="hover">
	<g>
		<g id="Down_1_">
			<g>
				<path fill="#0099cc" d="M64,0C28.656,0,0,28.656,0,64c0,35.348,28.656,64,64,64c35.348,0,64-28.652,64-64
					C128,28.656,99.348,0,64,0z M64,119C35.328,119,9,92.674,9,64C9,35.328,35.328,9,64,9c28.674,0,55,26.328,55,55
					C119,92.674,92.674,119,64,119z"/>
			</g>
		</g>
		<circle fill="#0099cc" cx="108.483" cy="27.773" r="14.639"/>
	</g>
</g>
</svg>
