<?xml version="1.0" encoding="utf-8"?>
<!-- Generator: Adobe Illustrator 16.0.0, SVG Export Plug-In . SVG Version: 6.00 Build 0)  -->
<!DOCTYPE svg PUBLIC "-//W3C//DTD SVG 1.1//EN" "http://www.w3.org/Graphics/SVG/1.1/DTD/svg11.dtd">
<svg version="1.1" xmlns="http://www.w3.org/2000/svg" xmlns:xlink="http://www.w3.org/1999/xlink" x="0px" y="0px" width="128px"
	 height="128px" viewBox="0 0 128 128" enable-background="new 0 0 128 128" xml:space="preserve">
<g id="Layer_1">
	<g>
		<g id="Down">
			<g>
				<path fill="#c3c3c3" d="M64,0C28.656,0,0,28.656,0,64c0,35.348,28.656,64,64,64c35.348,0,64-28.652,64-64
					C128,28.656,99.348,0,64,0z M64,119C35.328,119,9,92.674,9,64C9,35.328,35.328,9,64,9c28.674,0,55,26.328,55,55
					C119,92.674,92.674,119,64,119z"/>
			</g>
		</g>
	</g>
</g>

<g id="cousre">
	<path fill="#c3c3c3" d="M73.718,93.261c0,2.127-1.588,3.26-3.55,2.528L43.19,83.955c-1.961-0.731-3.55-3.05-3.55-5.179v-37.25
		c0-2.128,1.67-3.318,3.55-2.529l26.978,11.833c1.962,0.732,3.55,3.05,3.55,5.179V93.261z"/>
	<path fill="#c3c3c3" d="M70.221,50.714c1.996,0.745,3.625,3.121,3.625,5.296v37.251c0,1.723-1.014,2.879-2.522,2.879
		c-0.387,0-0.789-0.077-1.199-0.23L43.138,84.074c-1.997-0.746-3.626-3.122-3.626-5.298v-37.25c0-1.722,4.423-5.985,3.48-4.806
		c-1.275,1.595-0.167,2.003,0.243,2.157 M42.035,38.904c-1.356,0-2.267,1.054-2.267,2.623v37.25c0,2.076,1.556,4.346,3.467,5.059
		l26.986,11.838c0.374,0.14,0.747,0.211,1.103,0.211c1.356,0,2.267-1.055,2.267-2.623V56.01c0-2.076-1.557-4.345-3.466-5.059
		L43.138,39.116C42.764,38.976,42.391,38.904,42.035,38.904z"/>
	<path fill="#c3c3c3" d="M72.075,95.832l-1.301-1.59l6.798-5.567l1.009-0.169c0.612,0.229,1.16,0.209,1.544-0.059
		c0.399-0.277,0.62-0.813,0.62-1.506V49.69c0-1.702-1.319-3.633-2.882-4.216l-0.037-0.015L49.732,33.696
		c-2.224-0.065-4.484,0.796-6.088,2.32c-1.346,1.279-2.086,2.913-2.086,4.6v1.028h-2.056v-1.028c0-2.256,0.968-4.419,2.726-6.089
		c2.047-1.945,4.959-3.02,7.785-2.876l0.344,0.079l28.246,11.827c2.356,0.891,4.197,3.58,4.197,6.134V86.94
		c0,1.366-0.547,2.532-1.501,3.195c-0.792,0.549-1.804,0.712-2.846,0.474L72.075,95.832z"/>
</g>

</svg>
