<?xml version="1.0" encoding="utf-8"?>
<!-- Generator: Adobe Illustrator 16.0.0, SVG Export Plug-In . SVG Version: 6.00 Build 0)  -->
<!DOCTYPE svg PUBLIC "-//W3C//DTD SVG 1.1//EN" "http://www.w3.org/Graphics/SVG/1.1/DTD/svg11.dtd">
<svg version="1.1" xmlns="http://www.w3.org/2000/svg" xmlns:xlink="http://www.w3.org/1999/xlink" x="0px" y="0px" width="128px"
	 height="128px" viewBox="0 0 128 128" enable-background="new 0 0 128 128" xml:space="preserve">
<g id="Layer_1">
	<g>
		<g id="Down">
			<g>
				<path fill="#c3c3c3" d="M64,0C28.656,0,0,28.656,0,64c0,35.348,28.656,64,64,64c35.348,0,64-28.652,64-64
					C128,28.656,99.348,0,64,0z M64,119C35.328,119,9,92.674,9,64C9,35.328,35.328,9,64,9c28.674,0,55,26.328,55,55
					C119,92.674,92.674,119,64,119z"/>
			</g>
		</g>
	</g>
</g>
<g id="explore">
	<g>
		<path fill="#c3c3c3" d="M92.874,35.046L54.567,57.793c-0.234,0.143-0.388,0.379-0.424,0.658c-0.006,0.035-0.006,0.064,0,0.09
			L30.808,97.82l0.405,0.404l39.164-23.261c0.063,0.017,0.133,0.022,0.198,0.022l0.105-0.006c0.283-0.029,0.515-0.188,0.654-0.422
			l22.747-38.303c0.147-0.251,0.147-0.56-0.005-0.828C93.834,34.994,93.262,34.811,92.874,35.046z M90.795,38.333L70.393,72.681
			L56.449,58.736L90.795,38.333z"/>
	</g>
</g>
</svg>
