<?xml version="1.0" encoding="utf-8"?>
<!-- Generator: Adobe Illustrator 16.0.0, SVG Export Plug-In . SVG Version: 6.00 Build 0)  -->
<!DOCTYPE svg PUBLIC "-//W3C//DTD SVG 1.1//EN" "http://www.w3.org/Graphics/SVG/1.1/DTD/svg11.dtd">
<svg version="1.1" xmlns="http://www.w3.org/2000/svg" xmlns:xlink="http://www.w3.org/1999/xlink" x="0px" y="0px" width="128px"
	 height="128px" viewBox="0 0 128 128" enable-background="new 0 0 128 128" xml:space="preserve">
<g id="Layer_1">
	<g>
		<g id="Down">
			<g>
				<path fill="#c3c3c3" d="M64,0C28.656,0,0,28.656,0,64c0,35.348,28.656,64,64,64c35.348,0,64-28.652,64-64
					C128,28.656,99.348,0,64,0z M64,119C35.328,119,9,92.674,9,64C9,35.328,35.328,9,64,9c28.674,0,55,26.328,55,55
					C119,92.674,92.674,119,64,119z"/>
			</g>
		</g>
	</g>
</g>

<g id="forums">
	<g>
		<path fill="#c3c3c3" d="M39.52,81.959c-0.88,1.834-2.105,3.919-3.884,6.044c3.41,0,7.532-0.334,11.313-1.619
			c2.977,1.126,6.287,1.771,9.78,1.771c3.717,0,7.198-0.736,10.307-1.989C52.336,83.81,41.171,72.843,41.171,59.692
			c0-1.703,0.207-3.362,0.564-4.976c-5.085,3.476-8.332,8.665-8.332,14.482C33.403,74.12,35.735,78.589,39.52,81.959z"/>
		<path fill="#c3c3c3" d="M70.939,81.538c2.045,0,4.029-0.215,5.941-0.589c5.08,3.128,11.68,3.796,16.807,3.796
			c-2.701-3.246-4.295-6.422-5.236-8.849c5.004-3.805,8.146-9.2,8.146-15.205c0-11.511-11.485-20.846-25.657-20.846
			c-14.174,0-25.657,9.335-25.657,20.846S56.766,81.538,70.939,81.538z"/>
	</g>
</g>

</svg>
