<svg width="100" height="56" xmlns="http://www.w3.org/2000/svg" xmlns:xlink="http://www.w3.org/1999/xlink"><defs><path id="a" d="M.01.55h6.75v6.7H0z"/><path id="c" d="M0 .03h15.46v20H0z"/><path id="e" d="M0 55.45h34.8V.59H0z"/></defs><g fill="none" fill-rule="evenodd"><g fill="#000" fill-rule="nonzero"><ellipse cx="16.77" cy="41.13" rx="1" ry="1"/><path d="M16.71 36.9a4.26 4.26 0 0 0-4.23 4.29 4.26 4.26 0 0 0 4.34 4.18 4.26 4.26 0 0 0 4.24-4.3 4.26 4.26 0 0 0-4.35-4.17zm3.8 2.83c-.11.05-.17.22-.12.4.05.17.19.28.31.27l.02.12c-.2 0-.84.06-1.59.17-.68.1-1.26.21-1.5.28a.86.86 0 0 0-.05-.15c.25-.07.8-.28 1.43-.55.7-.3 1.27-.58 1.44-.7l.06.16zm-.5-.9c-.1.07-.1.25 0 .4.09.16.25.24.37.19l.05.11c-.2.05-.8.28-1.5.57-.62.27-1.15.53-1.38.66a.86.86 0 0 0-.08-.14c.22-.13.7-.48 1.23-.9.6-.46 1.07-.87 1.21-1.02l.1.12zm-.7-.76c-.08.1-.04.27.09.4s.3.16.4.08l.08.1c-.19.1-.7.48-1.29.94a16 16 0 0 0-1.16.98.87.87 0 0 0-.11-.11c.17-.19.54-.64.95-1.18.45-.6.8-1.11.9-1.3l.13.1zm-1.9 3.05a.64.64 0 1 1-1.3.02c0-.35.3-.64.65-.64.36 0 .65.27.65.62zm1-3.6c-.04.12.04.28.2.37.16.09.34.08.41-.02l.1.08c-.15.14-.55.63-1 1.22-.4.55-.73 1.03-.86 1.25a.89.89 0 0 0-.14-.08c.12-.22.36-.75.61-1.38.28-.7.5-1.3.53-1.5l.15.07zm-1-.29c-.01.12.1.25.29.3.17.04.34-.01.39-.13l.13.05c-.11.17-.37.75-.65 1.44-.25.63-.45 1.18-.52 1.43a.9.9 0 0 0-.15-.04c.06-.25.15-.82.23-1.5.09-.73.14-1.36.12-1.57l.16.02zm-1.04-.03c.02.12.17.22.35.21.18 0 .33-.1.35-.22l.13.01c-.06.2-.16.83-.24 1.57-.08.67-.13 1.25-.13 1.5a.96.96 0 0 0-.16 0c0-.25-.07-.83-.16-1.5-.11-.74-.23-1.35-.3-1.55l.16-.02zm-1.02.23c.05.12.22.17.4.12.18-.05.3-.18.28-.3l.13-.02c0 .2.06.83.17 1.57.1.67.2 1.24.27 1.49a.87.87 0 0 0-.15.04c-.07-.25-.28-.79-.55-1.41a13.3 13.3 0 0 0-.7-1.43l.15-.06zm-.92.5c.08.09.26.1.42 0 .15-.09.23-.25.18-.36l.13-.06c.05.2.27.8.57 1.48.27.62.53 1.15.66 1.37a.9.9 0 0 0-.14.08c-.13-.22-.48-.7-.9-1.22-.47-.59-.88-1.06-1.04-1.2l.12-.1zm-.76.7c.1.07.27.03.4-.1s.17-.3.09-.4l.1-.08c.11.19.48.7.95 1.28.42.53.8.97.99 1.15a.87.87 0 0 0-.11.11c-.19-.18-.65-.54-1.2-.95-.6-.44-1.12-.8-1.31-.89l.09-.12zm-.55.88c.11.04.27-.04.36-.2.1-.16.08-.33-.02-.4l.09-.12c.14.16.64.55 1.24 1 .55.4 1.03.73 1.26.86a.85.85 0 0 0-.08.13c-.23-.12-.77-.36-1.4-.6-.7-.29-1.3-.5-1.51-.54l.06-.13zm-.3.98c.12.02.25-.1.3-.28.04-.17-.01-.34-.13-.39l.05-.13c.18.11.76.37 1.46.65.64.25 1.2.44 1.44.5a.84.84 0 0 0-.03.16c-.26-.06-.84-.15-1.52-.23a13.9 13.9 0 0 0-1.6-.13l.03-.15zm-.03 1.04c.12-.02.21-.17.21-.35 0-.18-.1-.33-.22-.35l.01-.14c.2.06.83.16 1.58.25.68.08 1.27.13 1.53.13a.86.86 0 0 0 0 .15c-.26 0-.85.07-1.52.16-.75.11-1.38.23-1.58.29l-.01-.14zm.23 1c.12-.05.17-.22.12-.4-.05-.17-.18-.28-.3-.26l-.03-.15c.21 0 .84-.06 1.6-.16.67-.1 1.25-.2 1.5-.27l.04.15c-.25.07-.8.28-1.43.55-.7.29-1.27.56-1.44.67a3.9 3.9 0 0 1-.06-.13zm.59 1.02l-.1-.11c.1-.08.11-.25.02-.4-.1-.16-.25-.24-.37-.2a4.2 4.2 0 0 1-.06-.13c.2-.05.8-.27 1.5-.56.62-.27 1.16-.52 1.38-.64l.08.13c-.22.13-.7.47-1.24.89-.59.46-1.07.86-1.21 1.02zm.62.64c.08-.1.04-.27-.1-.4-.12-.12-.3-.16-.4-.08l-.1-.12c.2-.1.71-.47 1.3-.92.54-.42 1-.8 1.17-.98l.12.11c-.18.19-.55.64-.97 1.18-.45.59-.8 1.1-.9 1.3l-.12-.09zm.9.55c.04-.12-.05-.27-.2-.36-.17-.1-.34-.08-.42.02l-.12-.1c.15-.14.56-.62 1-1.22.42-.54.75-1.01.88-1.24l.14.08c-.12.22-.37.75-.62 1.38-.28.7-.5 1.29-.54 1.49a3.97 3.97 0 0 1-.13-.05zm1 .3c0-.13-.11-.26-.3-.3-.17-.05-.34 0-.39.12l-.14-.05c.1-.18.37-.75.65-1.44.26-.63.46-1.18.53-1.43.05.02.1.04.15.04-.06.25-.16.83-.24 1.5-.1.74-.14 1.36-.13 1.57-.05 0-.1 0-.14-.02zm1.04.02c-.02-.12-.17-.21-.36-.2-.18 0-.33.1-.34.21l-.16-.01c.06-.2.16-.82.26-1.56.08-.67.13-1.25.13-1.5a.97.97 0 0 0 .16-.01c0 .26.06.83.16 1.5.1.74.21 1.36.28 1.56l-.13.01zm1.02-.23c-.05-.11-.22-.17-.4-.12-.18.05-.3.18-.28.3-.05.02-.1.02-.16.03 0-.2-.05-.83-.16-1.57-.1-.67-.2-1.24-.26-1.49l.15-.04c.07.24.28.79.54 1.41.3.69.57 1.26.69 1.43l-.12.05zm.92-.49c-.08-.1-.26-.1-.42 0-.16.08-.23.24-.19.35l-.15.07c-.04-.2-.27-.79-.56-1.48-.27-.62-.52-1.15-.65-1.37l.14-.08c.13.22.48.7.9 1.23.46.58.87 1.06 1.03 1.2l-.1.08zm.76-.7c-.1-.08-.28-.04-.4.09-.13.13-.17.3-.1.4l-.12.1c-.1-.19-.47-.7-.93-1.28-.42-.53-.8-.98-.99-1.16a.9.9 0 0 0 .11-.11c.19.18.65.54 1.2.95.59.45 1.11.8 1.3.9l-.07.1zm.55-.88c-.12-.05-.28.03-.37.2-.09.15-.07.33.02.4l-.1.13c-.14-.15-.63-.55-1.23-1-.55-.4-1.03-.74-1.25-.87l.08-.14c.23.12.77.35 1.4.6.7.27 1.31.48 1.52.52l-.07.16zm.3-1c-.13 0-.26.11-.3.29-.05.18.01.34.13.39l-.05.11c-.17-.1-.76-.36-1.46-.63a16.2 16.2 0 0 0-1.45-.5l.04-.16c.25.06.83.15 1.52.22.75.09 1.38.13 1.6.12l-.03.17zm-1.55-.45c-.69-.08-1.27-.12-1.53-.12a.93.93 0 0 0 0-.15c.26 0 .84-.07 1.52-.17.74-.11 1.37-.23 1.57-.3l.02.17c-.12.02-.22.16-.22.35 0 .18.1.32.23.34l-.01.12c-.2-.06-.83-.16-1.58-.24zM19.7 4.23c-.15-.1-.36-.51-.83-.5-.47 0-.73.57-.83.68-.09.11.07.22.18.17.28-.13.24-.52.7-.54.35-.03.47.33.72.36.25.03.21-.08.06-.17zM13.74 4.47c.16-.05.42-.42.7-.52.28-.1.51.1.64.26.08.1.18.23.29.25.17.02.15-.15.11-.15-.14-.02-.12-.41-.38-.59-.17-.11-.4-.16-.7-.07-.3.1-.52.33-.72.48l-.31.26s.2.12.37.08zM16.58 8.87c-.16 0-.03.3-.23.33-.14.03-.13-.3-.22-.28-.16.06 0 .35.06.4.1.1.28.26.4.05.07-.14.09-.5 0-.5zM15.21 9.65c-.08.03-.24.4-.05.6.17.18.37.22.4.17.05-.07-.17-.23-.29-.3-.11-.06-.06-.47-.06-.47zM18.2 10.48c.16-.03.37-.29.4-.51.04-.26-.02-.55-.07-.56-.1-.03 0 .37-.17.6-.15.2-.44.53-.15.47zM25.29 43.75h.5v.5h-.5zM25.17 44.26h.5v.5h-.5zM25.12 44.77h.5v.5h-.5zM24.92 38.3h.5v.5h-.5z"/><path d="M25.29 38.3h.5v.5h-.5zM25.34 38.89h.5v.5h-.5zM24.57 37.79h.5v.5h-.5z"/><path d="M25.77 38.92h.5v.5h-.5zM26.38 40.34h.5v.5h-.5zM26.82 39.44h.5v.5h-.5z"/><path d="M26.38 39.92h.5v.5h-.5zM26.82 39h.5v.5h-.5zM26.31 38.96h.5v.5h-.5zM25.77 38.38h.5v.5h-.5z"/><path d="M26.38 39.5h.5v.5h-.5zM20.56 44.69h.5v.5h-.5z"/><path d="M20.61 45.17h.5v.5h-.5z"/><path d="M21.06 44.7h.5v.5h-.5zM20.13 45.2h.5v.5h-.5z"/><path d="M21.04 45.17h.5v.5h-.5z"/><path d="M21.52 45.17h.5v.5h-.5zM21.87 44.61h.5v.5h-.5zM21.52 43.52h.5v.5h-.5zM21.06 44.02h.5v.5h-.5z"/><path d="M21.52 44.02h.5v.5h-.5zM21.47 44.61h.5v.5h-.5zM22.08 42.4h.5v.5h-.5zM22.44 43.52h.5v.5h-.5z"/><path d="M21.93 44.03h.5v.5h-.5zM21.99 43.52h.5v.5h-.5zM22.01 43.02h.5v.5h-.5zM21.63 38.2h.5v.5h-.5zM21.76 39.25h.5v.5h-.5zM21.63 37.68h.5v.5h-.5z"/><path d="M21.2 37.68h.5v.5h-.5zM21.69 38.67h.5v.5h-.5zM9.89 40.4h.5v.5h-.5z"/><path d="M9.89 40.04h.5v.5h-.5zM10.31 38.77h.5v.5h-.5zM10.25 38.17h.5v.5h-.5zM9.5 38.77h.5v.5h-.5zM10.25 37.67h.5v.5h-.5zM11 37.67h.5v.5H11zM9.5 39.5h.5v.5h-.5z"/><path d="M10.36 40.43h.5v.5h-.5zM9.89 37.67h.5v.5h-.5zM11.5 37.64h.5v.5h-.5zM10.6 37.67h.5v.5h-.5zM10.6 38.17h.5v.5h-.5zM9.5 40.03h.5v.5h-.5zM8.16 38.82h.5v.5h-.5zM8.2 40.04h.5v.5h-.5zM9.89 38.17h.5v.5h-.5zM8.56 38.21h.5v.5h-.5zM8.56 39.5h.5v.5h-.5z"/><path d="M8.56 38.82h.5v.5h-.5zM8.12 37.8h.5v.5h-.5zM7.68 38.82h.5v.5h-.5z"/><path d="M7.68 38.21h.5v.5h-.5z"/><path d="M7.68 37.8h.5v.5h-.5zM8.1 39.5h.5v.5h-.5z"/><path d="M8.16 38.21h.5v.5h-.5zM9.5 37.7h.5v.5h-.5zM9.47 38.21h.5v.5h-.5zM9.52 40.43h.5v.5h-.5zM9.89 38.79h.5v.5h-.5zM9.87 39.5h.5v.5h-.5zM8.97 40.04h.5v.5h-.5z"/><path d="M8.63 40.04h.5v.5h-.5zM8.94 37.72h.5v.5h-.5zM8.97 39.5h.5v.5h-.5z"/><path d="M8.56 37.8h.5v.5h-.5zM8.97 38.79h.5v.5h-.5z"/><path d="M8.97 38.21h.5v.5h-.5zM6.9 43.5h.5v.5h-.5zM7.33 44h.5v.5h-.5zM6.04 44.46h.5v.5h-.5zM6.04 43.96h.5v.5h-.5z"/><path d="M5.58 43.93h.5v.5h-.5zM6.04 44.99h.5v.5h-.5zM9.4 45.08h.5v.5h-.5zM8.58 45.08h.5v.5h-.5z"/><path d="M8.95 45.06h.5v.5h-.5zM8.95 44.03h.5v.5h-.5z"/><path d="M8.58 44.58h.5v.5h-.5zM8.53 44.06h.5v.5h-.5z"/><path d="M8.15 44.58h.5v.5h-.5zM8.95 44.55h.5v.5h-.5zM6.45 43.5h.5v.5h-.5zM9.87 45.06h.5v.5h-.5zM8.15 45.08h.5v.5h-.5z"/><path d="M9.4 44.58h.5v.5h-.5z"/><path d="M9.87 44.58h.5v.5h-.5zM6.95 43.96h.5v.5h-.5zM6.95 45.06h.5v.5h-.5z"/><path d="M6.58 45.06h.5v.5h-.5zM6.9 44.55h.5v.5h-.5zM6.45 43.96h.5v.5h-.5z"/><path d="M6.51 44.48h.5v.5h-.5zM7.36 45.06h.5v.5h-.5zM7.76 44.55h.5v.5h-.5z"/><path d="M7.33 44.58h.5v.5h-.5zM7.76 44h.5v.5h-.5z"/><path d="M8.1 44.06h.5v.5h-.5zM7.76 45.06h.5v.5h-.5zM12.16 44h.5v.5h-.5zM11.08 42.3h.5v.5h-.5z"/><path d="M10.6 41.9h.5v.5h-.5z"/><path d="M10.67 42.39h.5v.5h-.5zM11.15 42.9h.5v.5h-.5zM11.51 42.3h.5v.5h-.5z"/><path d="M11.08 41.9h.5v.5h-.5zM11.64 42.81h.5v.5h-.5zM6.46 40.05c.04-.1.15-.12.32-.26.18-.14.08-.35.05-.32-.16.16-.3.15-.4.32-.08.1-.03.4.03.26zM7.51 41.22c-.09-.11-.02-.6-.17-.58-.31.02-.34.44-.3.56.06.2.58.14.47.02zM17.61 2.15l-.1-.01.1.01zM16.61 2.08h.26-.26zM5.96 39.13c.03.12.17.21.29.17.07-.02-.15-.12.12-.3.2-.14 0-.41-.08-.31-.14.18-.38.21-.33.44zM5.82 38.78c.09.05.22 0 .14-.2-.04-.09.13-.17.22-.22.13-.06-.13-.11-.31 0-.25.15-.14.36-.05.42zM13.6 6.55l-.05.01h.02l.03-.01z"/><path d="M6.35 39.6c.02-.19.25-.22.3-.31.06-.1-.02-.3-.08-.18-.05.1-.35.18-.39.3-.05.2.16.28.17.18zM5.94 38.09c-.16-.07-.62.16-.43.35.17.18.42.21.3-.1-.06-.1.24-.2.13-.25zM6.66 40.1c-.2.13-.2.3-.16.38.08.16.13.19.18-.01.01-.07.06-.16.18-.24.2-.13.1-.37.06-.37-.05 0-.09.13-.26.24zM6.75 40.6c-.15.2.08.4.2.4.16 0 .15-.24.17-.31.02-.08.13-.34.06-.34-.11 0-.34.13-.43.25z"/><path d="M5.66 37.93c-.29 0-.5.33-.35.42.28.2.23-.03.23-.13 0-.14.4-.3.12-.3zM7.8 41.52c.2.1.23-.03.15-.2-.1-.23-.45-.33-.46-.24-.02.14.17.38.3.44zM14.07 6.41c-.14.11-.29.24-.41.41a.39.39 0 0 1-.09.1c.2-.13.46-.45.5-.5zM25.15 40.22c-.18-.02-.38.23-.35.37.03.2.35.13.45 0 .1-.14 0-.36-.1-.37zM23.5 39.56c.22-.1.29-.26.29-.36 0-.13-.16.03-.23-.13-.05-.1.06-.2.17-.3.1-.1-.24-.13-.55 0-.29.14-.42.59-.3.54.03-.02.19-.15.23-.12.01 0-.05.06-.06.1-.01.09.06.18.15.19.05 0 .04-.08.05-.14.02-.06.06-.13.15-.1.13.05.05.18-.1.25-.13.04-.05.18.2.07zM7.79 10.24l.05.02a.08.08 0 0 0-.05-.02z"/><path d="M32.4 8.83c-.21-.3-.4-.4-.59-.66-.15-.23-.05-.35-.06-.75-.02-1.15-1.05-1.35-1.71-1.48-.51-.1-.72-.06-.78-.26a5.77 5.77 0 0 0-.41-1c-.3-.5-.84-.8-1.1-.97-.4-.29-1.02-.41-1.45-.32-.38.08-.83.29-1.17.57-.55.46-.5.79-.78.79a5 5 0 0 0-1.26.27c-.42.13-.49-.01-.55-.14-.07-.13 0-.4-.24-.74-.23-.32-.57-.37-.5-.8.07-.4.08-.9-.1-1.28-.15-.29-.3-.17-.3-.48 0-.3-.13-.67-.32-.88-.29-.32-.9-.35-1.3-.28-.38.06-.44.04-.52-.1-.13-.23-.48-.32-.77-.25-.17.05-.27.25-.5.22-.24-.03-.19-.28-.56-.2-.22.03-.3.3-.44.17-.16-.13-.26-.3-.4-.24-.13.05-.17.25-.32.25s-.38-.3-.78-.25c-.2.02-.29.08-.38.11-.26.1-.1-.27-.66-.06-.14.05-.28.5-.41.45-.1-.03-.35-.3-.7-.13-.24.1-.23.22-.56.22-.28 0-.58-.2-1.14.07-.55.27-.57.72-.53.86.1.36.06.96.16 1.12.1.16.08.44-.21.72-.22.22-.4.82-.55 1.03-.17.2-.43.08-.64 0-.21-.09-.54-.34-.98-.35-.41-.02-.68-.07-1.02-.47-.35-.4-.74-.47-1-.52-.2-.04-.7.01-.97.21-.13.1-.35.41-.55.36-.2-.05-.42.03-.67.14-.24.11-.5.37-.74.68-.23.29-.33.55-.38.63-.05.1-.28.4-.39.47-.17.12-.64.55-1.01.57-.13.01-.4.18-.62.4-.23.23-.23.75-.3 1.08-.06.33-.5.7-.68.87-.18.18-.63.9-.55 1.33.05.3.11.56.26.61.15.06.25 0 .37.1.07.06.07.26.02.33-.05.06.4.5.57.6.15.08.33.04.4.19.07.18.28.55.36.67.14.2.07.23.3.5.22.28.46.43.6.61.18.23.25.41.3.46.11.13.47.1.81.02.34-.07.62-.5.67-.72.05-.22.18-.37.18-.19 0 .19.11.6.1.86-.02.25-.2.23-.31.44-.12.23-.05.37-.1.56-.04.22-.66.6-.68 1.28-.01.16.22.3 0 .5-.2.22-.16.42-.17 1.1 0 .47.17.34.07.5-.27.45-.07.98.18 1.24.26.28.3.15.18.44-.13.29.22 1.01.44 1.28.2.27.73.46.73.94 0 .58.74.88.81.94.09.06.03.69.18.94.16.26.72.31.56.67-.2.5-.04.91-.03 1.58 0 .69.47 2.49.57 3.07.1.57-.44 1.22-.39 2.36.06 1.14-.25 2.08-.56 2.12-.3.04-.83-.17-1.23 0s-.49.84-.53.96c-.04.1-.65.3-.8.7-.14.4.1.96.16 1.09.07.13-.23.27-.37.35-.2.1-.29.27-.4.52-.05.13-.21.08-.35.09-.12 0-.38.24-.42.44-.03.19-.03.4-.03.5.01.17-.13.22-.16.33-.03.1.06.63-.08.83-.05.06-.05 1.07-.05 1.07s-.22.16-.37.38c-.15.21-.1.81 0 .98.11.19.54.14.52.32a6.8 6.8 0 0 0 .17 1.9c.16.21.45.97.55 1.24.1.26.37.24.49.38.15.17.38.21.58.21.44 0 1.32.26 1.69.23.2-.02.4-.05.35 0-.58.49-.3 1.15-.12 1.47.2.31.84.53 1.16.6.25.06 9.56.26 9.56.26s7.73-.07 8.18-.1c.46-.03.8-.11 1.13-.3.35-.21.76-.73.7-1.23-.05-.5-.08-.7 0-.71.1-.02.76-.2 1.31-.4.55-.18 1.27-.73 1.35-.95.04-.12.1-.57.37-.64.21-.07.11-.39.18-.5.06-.1.3-.13.3-.47 0-.33.1-1.14.18-1.34.05-.15.28-.28.4-.37.19-.12.13-.95.07-1.03-.12-.16-.47-.19-.53-.6-.02-.2.05-.47.04-.7-.01-.22-.24-.27-.2-.46.01-.12-.05-.45-.18-.56-.13-.1-.32-.05-.33-.15-.02-.1-.06-.4-.32-.55-.14-.07-.06-.18-.13-.37-.06-.2-.8-.38-.5-.84.29-.47-.02-1.1-.48-1.26-.17-.06-.05-.4-.22-.6-.16-.21-.59-.62-1.12-.58-.26.03-.87.03-.95-.04-.17-.15-.4-.6-.39-1.06a5.3 5.3 0 0 0-.59-1.7c-.13-.27-.24-.56.08-1.16.32-.59.44-1.84.44-2.29 0-.4-.14-2.37.03-2.4.65-.12.18-.54.5-.76.29-.2-.08-.4.23-.6.31-.2.47-.43.49-.65.01-.22.33-.6.44-.8.12-.19-.03-.44.07-.5.27-.17.78-.62.78-.87 0-.26-.23-.42-.02-.6.25-.22.5-.71.55-1 .08-.46-.4-.2.02-.68.36-.41.4-.94.3-1.24-.1-.33-.28-.28-.15-.55.07-.15.1-.39.07-.52a1.43 1.43 0 0 0-.3-.7c-.25-.3.13-.1.1-.43-.03-.33-.35-.66-.43-.85-.04-.08-.09-.34-.13-.48-.03-.08-.25-.39-.44-.59-.11-.11-.25-.5.09-.49.45.02.35.51.42.72.1.27.39.37.51.44.13.06.44.04.66-.1.18-.1.51-.6.67-.75.16-.15.47-.3.55-.55.09-.28.24-.5.39-.63.2-.17.6-.4.74-.51.28-.24.35-.3.66-.63.31-.33.5-.68.57-.98.1-.43-.21-.77-.5-1.17zM2.1 41.67c-.08 0-.16-.09-.16-.2 0-.1.08-.19.17-.19.09 0 .16.1.16.2s-.07.19-.16.19zm28.38-1.05s.3.16.3.45c0 .3-.2.46-.28.5-.04.03-.09-.9-.02-.95zm-.56.04c0-.62 0-1.8.1-1.9.1-.09.36 2.2.2 3.15-.06.36-.14 1.18-.3 1.56-.06.17 0-2.18 0-2.8zm-.9-2.47c.08 0 .4.9.47 1.61.09.81.13 2.32.05 2.92a9.3 9.3 0 0 1-.39 1.8c-.09.08-.11-1.96-.1-2.33a31.4 31.4 0 0 0-.06-2.5c-.04-.44-.04-1.5.03-1.5zM22.46 6.28c.11-.22.28-.4.84-.82.2-.15.6-.41.82-.28.27.15.53 0 .67.1.25.17.17.2.27-.07.08-.21-.03-.4.33-.79.26-.28.72-.5 1.16-.51.46 0 1.12.18 1.23.67.06.26-.4.61-.3.61.08 0 .17-.04.25-.08a.53.53 0 0 0 .2-.15c.07-.12.02-.27.19-.28.13 0 .08.22.07.27 0 .05-.05.14-.11.17-.11.06-.14.1.04.07.23-.03.17-.2.33-.18.15.03.1.5.05.67-.04.18-.18.55-.54.48-.26-.05-.68-.19-.72.07-.04.26 0 .42-.05.56-.09.28-.19.22-.26-.05-.04-.13-.11-.19-.12 0-.01.15.02.3-.18.39-.22.09-.94.13-1.14.54-.12.23.02.58-.13.69-.21.14-.58.04-.61-.2-.04-.24.06-.67.34-.93.26-.24.17-.4.4-.63.07-.07 0-.37-.08-.36-.26.01-.01.46-.23.4-.22-.07-.45-.4-.32-.48.25-.16 0-.58-.14-.59-.16 0-.05.38-.03.65.02.25-.15.75-.4.89-.43.24-.7.05-.92.14-.16.07-.26.09-.24.22.03.13.04.3-.08.36-.2.1-.82-.4-.57-.7.06-.07.24.04.37-.06.2-.15.15-.42.45-.46.3-.05.75-.12.91-.3.24-.26.23-.63.16-.67-.14-.08.01.28-.2.4-.22.1-.34 0-.62.12-.28.1-.8.7-1.02.64-.11-.02-.22-.21-.07-.52zm4.07 2.8c.22.04-.05-.16.2-.43.07-.09.32-.3.52-.25.05 0 .16.16 0 .45-.07.15-.02.53-.13.74-.11.24-.55.48-.94.53-.4.05-.66.2-.7.32-.05.13.32.24.45.3s0 .25-.26.29c-.22.03-.61-.16-.66-.5-.05-.33.19-1 .36-1.14.17-.13.32.17.46.22.15.05.6.05.83-.1.1-.07.13-.22.04-.23-.22-.04-.45.02-.63-.1-.17-.11-.36-.62-.41-.76-.04-.14-.1-.38.1-.43.2-.04.68-.25.8-.34.14-.08.33-.43.54-.49.12-.03.24.07.26.28.01.2-.08.48-.25.45-.06-.01-.12 0-.3.16-.28.27-.44.42-.5.64-.04.2.04.34.22.38zm-.45 7.39c.3 0 .27-.16.29-.3.03-.3.48-.69.7-.68.26 0 .45.26.36.49-.14.34-.37.27-.68.62-.26.28-.17.41-.23.57-.03.07-.22.18-.21-.22 0-.15-.42-.04-.53-.07-.29-.08-.32-.64-.58-1-.22-.3-.51-.14-.66-.67-.1-.36.08-.35-.14-.7-.22-.33-.3-.4-.36-.62-.03-.13-.17-.46.34-.85.46-.35.7-.22.78-.13.08.1.17.24.17.37 0 .24-.46.18-.69.48-.13.17-.25.33-.1.41.19.1.38-.27.53-.2.15.05.42-.03.72-.21.22-.13.3-.1.27.14-.02.34-.24.49-.56.65-.41.22-.55.72-.46.9.1.22.23.25.32.05.1-.26.04-.49.48-.55.38-.05.3-.35.5-.35.28 0 .28.3.17.5-.1.19-.77.52-.76.94 0 .43.16.43.33.43zm-.62 2.6c.01.05-.1.17.06.7.08.28.06.5 0 .31-.08-.23-.15-.35-.21-.68-.04-.19-.35-.26-.27-.52.07-.27.25-.48.35-.72.09-.24.21-.46.37-.71.07-.11.3-.06.4.23.1.29-.05.6-.19.84-.2.35-.53.4-.5.55zm-.39 3.53c-.23-.14-.5-.46-.45-1.04.02-.25.31-.55.55-.68.18-.1.09-.37.19-.36.19 0 .2.26.14.5-.07.24-.25.31-.4.67-.16.35.27 1.1-.03.91zm-.54-1.13c.09.1-.33.16-.52-.24-.13-.28.01-.37-.09-.7-.1-.32.59-.9.7-1 .06-.05.28.38.27.54 0 .16-.55.62-.6.9-.03.28.16.4.24.5zm-1.05 1.02c-.07.22.18.27.19.34.01.08 0 .2-.4-.17-.13-.12-.18-.3-.07-.62.12-.33.2-.44.32-.64.14-.24.18-.21.18-.21s.23.53-.09.7c-.17.09-.04.33-.13.6zm-.55-.88c-.04.28-.1.7-.24.62-.14-.08-.3.4-.47.38-.16-.02-.2-.28-.15-.46.05-.17.52-.6.57-.68.05-.09-.06-.38-.1-.52-.03-.14.4-.6.47-.6.1 0 .3.57.2.72-.1.15-.24.25-.28.54zm-.03 1.48c-.15.03-.34-.16-.35-.3a.27.27 0 0 1 .17-.28c.16-.06.19.24.29.29.13.06 0 .26-.1.29zm-1.03-2.24c-.04-.08-.25-.2-.18-.33.1-.18.3 0 .42.11.15.16.2.54 0 .68-.13.09-.27.12-.21-.1.06-.21.02-.29-.03-.36zm.32 10.79c.07-.03.32.8.4 1.02.02.08.13.64.13.73 0 .14-.44-.23-.4-.4.14-.63-.3-1.28-.13-1.35zm.13 1.93c.08-.05.6-.1.57 0-.05.14-.54.37-.78.29-.07-.03.1-.22.2-.29zm4 3.16c.18.07.42.42.35.6-.04.12-.2.3-.3.17-.14-.14-.04-.4-.21-.47-.1-.04-.33-.1-.38-.3-.01-.06.36-.07.54 0zm-.34-.48c.1-.04.26.07.23.17s-.1.2-.23.12c-.13-.08-.14-.24 0-.3zm1.47 9.05c-.06 0-.4.05-.46.07.05-.02-.05-.3.09-.36.24-.11.2-.45.22-.5 0-.04-.18-.15-.2-.27 0-.08.2-.47.2-.47l.38.4c.06.06.14.35.05.35-.1 0-.18.48-.23.51-.07.05.05.25-.05.27zm.28-8.17c-.07-.03-.14-.13-.04-.15.06-.02.15 0 .2.03.18.1.4.57.06.53-.1 0 0-.31-.22-.41zm-.03-.7c-.12.24-.06-.11-.06-.22a.71.71 0 0 0-.34-.51c-.1-.08-.07.08-.11.13-.04.06-.13-.2-.13-.25 0-.05.02-.09.15-.04.1.04.27.2.33.26.07.08.28.37.16.62zm-.07-.18c0 .08-.16.3-.24.31-.1.01-.1-.3-.09-.4.02-.11.05-.2.17-.2.07 0 .16.2.16.29zm-.46.62c.2.09.33.5.24.6-.1.11-.32.13-.3-.19 0-.2-.14-.25-.26-.32-.05-.03-.16-.2-.05-.21.1-.02.26.07.37.12zm-.1 1.89l-.05 1.14h-.24v.22h.23v.27h-.23v.22H27v.22s-1.12.05-1.1-.12v-.1h.14v-.22h-.13v-.27h.13v-.22h-.14l-.04-.2h.18v-.23h-.24v.08c-.13-.24-.35-.23-.58-.34a8.26 8.26 0 0 0-.24-.12h.1v-.22h-.24v.15l-.26-.11-.09-.4h.17v-.23h-.2v-.05a2.49 2.49 0 0 0-.15-.55c.2-.08.48-.05.78.03h-.2v.22h.25v-.2c.09.02.18.06.27.1h-.09v.21h.24v-.16c.32.14.64.32.9.48h-.17v.22h.24v-.18c.32.2.54.36.54.36zm-1.18-1.28c-.2.03-.4.07-.5-.1l-.31-.55c-.22-.29-.1-.22.03-.22.3 0 .32.13.41.22.1.1.48.64.37.65zm-.97-.1c-.16 0-.44.09-.45-.22 0-.23-.31-.4-.31-.57 0-.07.27-.09.44-.05.2.06.5.82.32.83zm-.75-.33c.01.07.07.32-.01.32h-.31c-.11 0-.07-.33-.32-.52-.23-.17-.37-.37-.3-.37h.44c.04 0 .45.3.5.57zm-.64.84c-.02.1-.11.19-.22.19-.15 0-.24-.17-.25-.28 0-.16.1-.23.23-.23.2 0 .28.17.24.32zm.04-1.84c-.03.12-.31.16-.39.05-.04-.06.1-.25.03-.49-.07-.25-.2-.5-.14-.52.11-.03.57.66.5.96zm-.35 1.03c0 .14-.13.13-.26.14-.17 0-.32.03-.33-.17 0-.22-.35-.4-.35-.6 0-.06.17-.04.32-.03.16.01.19.12.22.17.17.21.4.4.4.49zm-.94 1.28c-.02.07-.04.17-.05.29h-.14v.22h.12l-.04.71c-.02.01-.28.26-.4.26-.11 0-.14-.54-.33-.93l-.02-.04h.06v-.22h-.17l-.13-.26h.1v-.22h-.21l-.18-.29v-.22h-.16l-.15-.16 1.59.02.04.14h-.12v.22h.18c.01.08.03.17.03.26h-.2v.22h.18zm-.05 2.92v.27h-.18v.16h.18l.01.27h-.2v.16h.23c.07.35.2.65.33.83h-.07v.16h.2c.16.23.17.41.17.41l-.25.6v-.05h-.24v.16h.2l-.13.34h-.2v.16h.14a.66.66 0 0 0-.03.13c0 .2-.48.04-.5.24-.02.2.1.39-.06.38l-2.8.06s.33-.1.64-.3v.09h.25v-.16h-.15l.13-.1c.28-.28.94-.93 1.3-1.43h.11v-.16h-.01l.06-.12.13-.3v.08h.24V43h-.21l.12-.38h.15v-.16h-.11c.14-.54.26-1.2.28-1.84 0-.08.2.12.26.5h-.17v.16h.18zm-.97 4.86c-.13-.13-.34-.29-.23-.32.17-.05.15-.05.33.06.18.1.45.28.4.43-.04.16 0 .26-.2.25-.18 0-.43 0-.34-.11.1-.11.16-.19.04-.31zm-.83-.03c-.09-.1-.28-.23-.18-.26a.94.94 0 0 1 .43 0c.11.03.32.22.34.34.01.05-.04.36-.21.37-.21.02-.48.02-.42-.12.07-.14.12-.23.04-.33zm.22.8c.02-.1.2-.08.32-.08s.08.12.09.18c.02.14-.13.14-.25.14-.16 0-.18-.18-.16-.25zm1.1 0c.03-.08.2-.04.32-.04s.1.1.1.15c.03.16-.14.17-.26.17-.16 0-.18-.2-.15-.28zm.27-.48c.01-.08.05-.17 0-.25-.09-.14-.26-.35-.15-.36.11 0 .17.03.26.11.09.1.3.38.28.53 0 .07-.06.12-.21.12-.08 0-.22 0-.18-.15zm-3.07-.34c-.1-.1-.36-.28-.26-.3.11-.02.2-.1.25-.07.1.05.58.44.58.57 0 .14-.02.28-.23.28-.2 0-.35-.08-.35-.14 0-.13.12-.24.01-.34zm-.73.13c-.05-.07-.3-.3-.22-.32a1 1 0 0 0 .32-.1c.06-.03.35.32.4.38.06.07.08.28-.02.33-.09.04-.57.1-.48-.01.09-.1.06-.2 0-.28zm-4.07.21c.04.04-.37.13-.46.1-.09-.02-.27-.38-.16-.45.1-.06.52-.4.63-.4.08 0 .19.06.33.07.09 0-.38.13-.43.25-.05.13.05.39.09.43zm-.86.07c-.03.04-.34.05-.47 0-.22-.08-.35-.41-.26-.47.17-.1 1.15-.56 1.22-.51.08.05.16.07.21.1.1.05-.67.31-.77.49-.1.17.11.33.07.4zm-.96-.24c.08.07.05.18-.16.2-.3.03-.54-.5-.4-.61.14-.1.79-.37 1.02-.38 0 0 .24.14.2.16l-.64.35c-.1.06-.1.22-.02.28zm-.8.1c-.1.07-.32.1-.43.02-.18-.13-.26-.47-.18-.53.08-.07.43-.27.63-.27.17 0 .3.07.3.1s-.38.17-.46.29c-.09.1.25.31.14.39zm-6-1.6a1.21 1.21 0 0 0-.08-.13h.16v-.2h-.25v.11a.2.2 0 0 0-.1-.04c-.13-.01 0-.5.01-.61v-.02.02c.1.03.9-.17 1.18-.66.1-.19.61.03.96.25h-.08v.2h.25v-.08c.32.24 1.48-.08 1.74.27l.06.07h-.06v.2h.25v-.08c.36.15.88.19.97.62.12.55-.21.6-.33.62-.11.02-3.83.05-3.92 0-.09-.04-.44.02-.6-.28l-.05-.08h.1v-.19h-.21zm5.03.6c.04-.1.26-.29.31-.37.06-.09-.02-.43-.08-.51-.06-.09-.28-.48-.41-.5-.13-.04-.3-.14-.38-.17-.21-.06 0-.1 0-.1.12-.01.2.04.26.06.06.02.5.22.57.3.1.14.38.44.44.61.08.24-.11.36-.13.54-.02.15-.06.2-.2.22-.15.01-.42.02-.38-.08zm1.04-1.91a.58.58 0 0 0-.4-.15c-.14 0-.27-.12-.38-.3h.07v-.19h-.18c-.21-.45-.3-1.05-.15-1.07 0 0 .9-.14 1.07-.06.04.02.06.1.08.2h-.23v.2h.25V42c.03.3.07.76.37 1.2l.1.14H12v.2h.25v-.12c.45.69 1 1.6 1.14 1.7.16.1 0 .14 0 .14s-.78.07-.86 0c-.05-.05 0-.14-.08-.37h.2v-.2h-.24v.1a1.49 1.49 0 0 0-.05-.1c-.2-.37-.48-.71-.52-.82a1.1 1.1 0 0 0-.1-.24h.11v-.2h-.25zm2.75 2.7c.04-.1.4-.38.4-.38l.26.1s-.3.17-.13.43c.17.25-.2.23-.33.23s-.23-.29-.2-.38zm.44.82c.04-.08.05-.2.23-.2.2 0 .45-.05.45.05s-.1.3-.35.3c-.19 0-.45.06-.33-.15zm.42-.38c-.12-.03-.25-.34-.23-.44a.5.5 0 0 1 .13-.24s.35.1.5.09c.16-.01-.1.14-.07.2l.12.33c.04.12-.34.1-.45.06zm.53.2c.15-.06.68-.02.69 0 0 0-.11.36-.27.36-.16 0-.62.03-.62-.04s.06-.28.2-.33zm.84-.25c.02.11-.56.07-.65 0-.1-.07-.27-.52-.15-.5.3.06.56.09.72.1.1 0 .05.29.08.4zm-.03.22h.64c0 .02-.1.37-.18.38a2.7 2.7 0 0 1-.64-.02c.02-.05.09-.35.18-.36zm.28-.25c-.07-.08-.07-.4-.01-.41.15-.03.43-.05.5-.08.04-.01.2.44.05.51-.13.07-.46.09-.54-.02zm-.04-.83a4.6 4.6 0 0 1-4.68-4.5 4.6 4.6 0 0 1 4.56-4.64 4.6 4.6 0 0 1 4.7 4.52 4.6 4.6 0 0 1-4.58 4.62zm-5.7-7.53v.16h.2c-.23.17-.47.34-.49.44h-.16v.16h.16c0 .14-.05.32-.26.54l-.03.03h-.23v.17h.15c-.02.12.03.24.09.36h-.16v.16h.24l.04.1c.06.24.1.57-.2.58-.21.01-.73-.2-1.23-.3v-.14h-.24v.1l-.11-.01v-.09h-.24v.09a.78.78 0 0 0-.17.03l-.07.02v-.14h-.24v.06c-.2-.22-.2-.85-.43-1.11-.24-.28-.4-.97-.47-1.42h.2v-.16h-.22l-.02-.1c-.03-.22 4.21-.4 4.46-.24.25.17.14.41 0 .58-.06.07-.2.16-.34.26v-.13h-.24zM7.1 36.67a.84.84 0 0 1 .72-.25c.14 0 .1.14-.09.17-.2.04-.29.24-.28.36.01.14.1.3-.1.3H7.1c-.16 0-.16-.39.02-.58zm-.14-.16c-.11.11-.2.42-.22.59 0 .15-.22.13-.34.15-.14.02-.09-.28-.02-.46.07-.18.14-.3.28-.33.17-.03.4-.03.3.05zm1.13.05c.14-.16.21-.2.5-.22.2-.02.12.14 0 .25-.14.12-.3.29-.29.6 0 .06-.48.11-.48-.05a1 1 0 0 1 .27-.58zm2.96-4.37c-.02-.34.1-.66.17-.87.07-.18.07-.36.18-.61.07-.18-.14-1.77.16-1.67.22.07.06.88.06.98 0 .19-.06.44 0 .7.06.24-.1.9.3 1.44.07.1.01.37-.06.68-.01.04-.17.19-.28.36-.1.15-.12.31-.17.37-.2.2-.46-.1-.62.07-.1.12-.27.2-.3.06 0-.08.1-.2.23-.41.07-.13.1-.3.15-.4.08-.17.2-.35.18-.7zm-1.3-16.47a.88.88 0 0 0-.24.74c.04.24.02.7-.17.8-.08.04.01.45-.14.57-.13.1-.48-.1-.43-.24.02-.08.27-.22.3-.43.02-.2-.2-.39-.42-.68-.21-.27.19-.37.4-.37.21 0 .44.06.35-.19-.1-.25-.55-.58-.62-.99-.06-.4.32-.33.41-.34.09-.02.03.44.18.46.15.02.1.09.24-.13.12-.22-.29-.1-.23-.53.05-.43-.07-.78-.02-.94.06-.17.22-.43.34-.42.12.01-.04.45.09.62.2.28.31.35.36.46.08.16.09.34-.1.47-.18.11-.05.2-.26.4-.1.08.14.57-.05.74zm-.44 6.8a.83.83 0 0 1-.5.25c-.36.03-.1-.17.07-.44.16-.27-.17-.73.1-.82.3-.1.38.16.54.32.1.1-.06.3-.14.4-.09.1 0 .2-.07.3zm-.86-.64c-.15.4-.43.39-.58.62-.08.14.26.28-.26.54-.16.08-.36-.02-.22-.13.15-.1.14-.49-.13-.69-.16-.11-.2-.48 0-.5.2-.03.33.42.53.41.28 0 .36-.3.35-.48-.01-.17-.2-.22-.33-.39-.08-.1-.1-.26-.23-.34-.3-.21-.2-.37 0-.36.37.02.53.4.68.5.2.15.35.44.2.82zm-.08 1.49c-.13.14-.34.12-.53.09-.19-.04.2-.05.32-.62.05-.25.48.24.21.53zm.17-4.95c-.1-.1-.28-.28-.31-.39-.04-.1 0-.3.16-.37.15-.06.23.2.3.4.08.28.3.32.3.5 0 .29-.19.51-.4.57-.21.06-.67.05-.82-.11-.14-.17-.05-.28.03-.3.18-.03.26.23.47.28.2.04.15-.1.26-.2.14-.1.11-.28.01-.38zm-.48 1.37c-.04-.02-.14-.17 0-.25 0 0 .1-.08.3-.05.2.02.23.13.42.1.19-.04.28-.33.41-.43.14-.11.37.13.38.44 0 .17-.06.29-.32.3-.04 0-.07-.15-.18-.12-.15.04.07.34-.13.6-.17.24-.24.43-.3.22-.03-.15.08-.38-.1-.57-.1-.1-.34-.15-.48-.24zm1.19-1.87c.09 0 .18.08.16.2-.02.1 0 .25-.06.29-.15.07-.14-.11-.18-.11-.17-.02-.17-.37.08-.38zm.02 3.2c.04-.16.06-.44 0-.5-.08-.05-.26-.32-.1-.38.09-.03.14-.03.3.16.17.19.24.71.12.85s-.36.04-.32-.12zm-.4-8.64c-.13-.23-.95-.16-1.28-.74-.13-.22-.03-.4-.05-.64-.03-.34-.28-.38-.28-.58 0-.2.33-.4.33-.4s0 .04.03.07c-.1-.12-.06-.58.13-.61.33-.06.33.2.6.46.26.24.38-.04.46.18.02.07 0 .17.27.3.23.1.37.01.5.04.16.04.36.35.3.78-.04.18-.1.27-.36.42-.28.16-.39-.16-.37-.34.01-.18-.17-.38-.33-.45-.16-.06-.46 0-.74-.1-.24-.09-.12-.59-.32-.65.04.03.01.27 0 .44-.04.28.26.72.44.8.35.17.69.21.95.35.3.15.54.52.36.88-.19.35-.63.33-.75.26s.24-.24.1-.47zm-2.65-.21c-.49-.42-.6-.66-.59-.97 0-.2.16-.4.34-.3.17.1.44.45.6.52.16.08-.06.37.08.42.1.04.08-.06.12-.08.06-.03.05-.17.06-.27 0-.03.06.01.08-.03a.34.34 0 0 0 0-.27c-.08-.15-.17 0-.48-.55-.1-.17-.36-.32-.46-.4-.19-.14-.18-.26-.2-.36-.06-.16-.38-.5-.23-.58.22-.12.31.27.52.36.2.09.25-.03.42.06.17.09.02.4.29.63.26.23.41.23.48.38.02.04-.05.12-.01.2.13.24.13.61 0 .8-.22.33-.68.32-.57.38.1.06.44.04.61.4.2.43.02.92-.3 1.08-.32.15-.8 0-.69-.09a.96.96 0 0 0 .37-.6c.05-.26-.05-.4-.44-.73zM8.2 8.23c.08-.1.12.35.31.38.2.02.4.07.48.2.08.14.08.28.26.38.18.1.52.27.57.5.05.22-.21.46-.37.62-.16.17-.1-.27-.4-.45-.32-.19-.87-.22-1-.51-.14-.28-.2-.77.15-1.12zm4.38.4c-.03-.26-.06-.52.14-.5.15.03.2.2.1.5-.08.25-.09.4-.09.5 0 .44-.22.74-.62.73-.44-.02-.18-.15-.43-.4-.13-.12-.4-.24-.5-.44a.95.95 0 0 1-.02-.63c.06-.22.34-.02.65-.17.3-.16.2-.34.36-.33.15 0 .24.38.25.57.02.2 0 .4 0 .4s.18-.08.16-.23zm1.32 2c.08.08.02.39-.08.5-.17.21-.58.18-.63.43-.06.27-.01.25-.1.4-.02.03-.17.15-.29.13-.17-.03-.26-.1-.33-.33-.07-.22-.1-.68-.32-.82-.24-.15-.7-.77-.75-.94-.04-.13.04-.16.08-.14.22.14.49.36.68.54.19.17.19-.69.58-.55.25.08.14.5.22.82.17.68.11-.22.32-.27.27-.06.2.34.17.52-.03.17.36-.4.45-.3zm.86-2.65a1.73 1.73 0 0 1-.8-.25c-.1-.05-.05-.2.2-.15.24.05.32.1.78.12.51.02.9-.19 1.17-.3.25-.11.37-.17.4-.35.03-.18-.08-.16-.32.07s-1.18.34-1.53.28c-.4-.08-.5-.25-.73-.53-.11-.15-.1-.33.07-.33.15 0 .29.46.52.55.34.14.75.2 1.13.1.25-.06.49-.16.53-.3a.21.21 0 0 0-.11-.23c-.44-.21-.48-.05-.77-.23-.26-.17-.15-.37-.32-.82-.13-.33.18-.43.18-.43.1 0 .2-.02.2.28.02.32-.08.51.08.75.17.24.35.03.73.26.2.12.6.22.68.2.22-.02.27-.22.53-.24.24-.03.19.14.45.2.26.07.47.02.7-.18.19-.16.26-.12.32-.31.06-.2-.03-.22 0-.47.05-.26.6.06.34.73-.1.25-.3.46-.6.58-.3.13-.87 0-1.24-.23-.36-.22-.1.17.3.3.76.25.93.15 1.15.04.38-.18.4-.47.67-.56.22-.07.22.22.04.5-.17.28-.4.45-.86.48-.45.02-.62-.02-.9-.12-.44-.15-.5-.28-.82-.49-.19-.13-.1.1 0 .21.2.2.57.53 1.07.57.33.03.72.13 1.27-.06.52-.18.38-.54.76-.77.14-.09.24.1.31.22.1.15.08.4.02.47-.09.12-.2.02-.17-.11.06-.22-.2-.22-.26-.07-.2.49-.8.98-1.7.87-.73-.09-1-.3-1.29-.6-.15-.17-.16-.44-.31-.44-.12 0-.03.09-.2.32-.14.21-.37.37-.65.59-.24.18-.43.09-.92.36-.23.12-.64.1-.6-.13.02-.23.4-.14.6-.24.2-.1.07-.1-.1-.11zm-.12-2c.22.18 0 .26.31.55.32.29.74.32.74.32s-.26.13-.7.08c-.34-.05-.65-.39-.75-.6-.1-.21.19-.5.4-.34zm3.48-.6c.11-.13.4-.09.4.23s.01.62-.37.8c-.47.24-.58-.16-.58-.16s.3-.05.48-.2c.2-.17-.08-.51.07-.68zm2.34 5.94c.34-.26.15-1.07.01-1.25-.18-.23.25.01.43 0 .11 0 0-.2-.28-.31-.11-.05-.13-.16 0-.24.13-.07.36.05.7.4.22.2.1.7-.06.99-.15.27-.13.49-.44.5-.22 0-.32.32-.43.5-.13.21-.3.32-.54.28-.17-.03-.16-.14-.1-.2.03-.02.15 0 .17-.02.09-.05.05-.25-.01-.38-.06-.13-.28-.43-.34-.5-.18-.26-.04-.44-.04-.44.14-.1.32.44.46.38.06-.02-.27-.59-.1-.73.05-.03.18.47.21.44.15-.1.01-.77.12-.67.11.1.21.4.24.68.04.33-.03.6 0 .57zm2.06 7.5c-.09-.41-.24 0-.34-.48-.1-.46-.38-.15-.1-.46.1-.11.4-.04.53.23.13.28.32.97.02 1.44s-.03-.33-.11-.74zm-.76.31s.28-.07.43.18c.2.34.18.66 0 .73-.17.07-.23-.08-.2-.34a.7.7 0 0 0-.23-.57zm.52-1.66c-.19 0-.12-.15-.17-.25-.04-.1-.22-.16-.25-.27-.03-.1 0-.23.1-.29.1-.06.21-.15.45-.05.24.1.27.34.26.48-.02.15-.2.39-.39.38zm-.34-1.3c-.45-.04-.06-.01 0-.24.06-.22-.08-.12-.22-.3s-.17-.54.2-.56c.25-.01.45.2.55.53.04.15-.08.63-.53.58zm-1.96 13.46c.1.52.22 1.18.6 2.12.12.28.07.84.14 1.1.08.29-.17.2-.18.42-.01.28-.08.66.09.78.14.1.57.2.67.53.05.18-.04.34-.08.41a.69.69 0 0 0 0 .43c.08.14.11-.04.2-.18.08-.15.35.03.43.16.04.09.11.47.1.61 0 .16-.1.15-.17.11-.09-.05.1-.45-.04-.59-.07-.06-.2-.11-.31-.05-.18.1.2.56.03.6-.06.02-.18.08-.26-.01-.05-.06-.01-.34-.06-.38-.05-.04-.19-.08-.22.17-.03.26-.07.08-.06-.2 0-.3.14-.46-.02-.65-.06-.06-.17-.13-.28-.4-.08-.21.08-.38-.3-.44-.1-.01-.52-.1-.46-.32.03-.13.08-.27-.1-.45-.12-.11.14-.48-.02-.73a3.06 3.06 0 0 1-.47-1.54c0-.9-.1-2.03-.1-2.03-.06.02-.13.7-.27 1.44-.2 1.06-.48 2.16-.4 2.39.02.04.07.26.05.43-.02.16-.2.5-.24.6-.08.21-.14.66-.06.8.06.09-.26.14-.27-.17-.01-.21.05-.57.17-.77.06-.12.23-.28.25-.4.04-.19-.13-.5-.17-.56-.1-.17-.03-.53.01-.73.16-.74.57-3.3.64-3.5.07-.23.06-3.1.05-3.45 0-.36-.35-1.04-.1-1.07.62-.08.6-.13.72-.23.15-.13.56-.7.73-.7.32 0 .55.12.53.25-.08.54.45.98.16 2.13-.23.88-.14 1.12-.48 2.14-.33 1.02-.55 1.43-.45 1.93zm.91 3.91c.1-.08.13.16.2.23.1.12.27.28.22.3-.06.03-.24-.02-.33-.09-.11-.08-.16-.38-.09-.44zm-.14 3.3c-.05-.08-.47-.43-.37-.43.22 0 .4-.06.65.19.1.1.26.3.31.53.03.12-.06.12-.24.12s-.35.04-.32-.11c.02-.08.02-.23-.03-.3zm-.85-.1c-.2-.15-.43-.36-.32-.38.13-.01.28 0 .37.05.12.06.33.25.4.37.05.11.25.47.11.47-.25 0-.46 0-.5-.12-.04-.12.02-.33-.06-.4zm-1.15-.89c.08.2-.1.36-.23.27-.1-.06-.14-.83.07-1.01.16-.15.05-.37-.07-.37-.1 0-.1-.47.1-.47.16 0 .34.65.37.4.02-.19-.12-.53-.18-.77-.07-.28-.07-.63 0-.62.08.02.12-.46.03-.49-.13-.04-.08-.94-.03-.98.04-.04.09-.67.2-.68.12 0 .2.73.14.9-.02.1.07.17.12.35.04.11-.05.42.04.55.18.26-.02.49 0 .83.03.34-.23.26-.06.73.05.12.05.29.12.4.07.1.17-.05.2-.19.02-.07.12-.33.22-.47.05-.06.21.02.28.08.1.09.13.23.05.37-.06.11-.17.17-.25.3-.09.13.27.02.49.05.13.01.25.1.31.27a.9.9 0 0 1 .04.31c-.03.2-.1.41-.15.48-.1.1-.24.03-.27-.05-.04-.13.2-.32.2-.52 0-.06-.01-.19-.13-.24a.42.42 0 0 0-.41.07c-.1.08-.12.23-.03.31.08.08.16.16.19.27.05.21-.12.23-.33.19-.07-.02-.16-.32-.14-.62.02-.3-.2-.19-.33-.44-.07-.13-.22-.04-.08.1.12.11.14.3.14.5 0 .18-.1.29-.24.33-.05.02-.03-.23-.06-.44-.02-.21-.23-.3-.32-.2-.17.16-.02.44 0 .5zm1.61-.03c-.05.02-.18-.05-.23-.17-.06-.12-.06-.25.1-.25.11 0 .2.07.2.16-.01.08-.01.24-.07.26zm-1.44-.37c.08 0 .26.14.19.3-.07.15-.1.18-.2 0-.1-.19-.21-.3 0-.3zm.09.98c.18 0 .3.04.41.13.36.28.24.45.15.36-.17-.18-.42-.34-.64-.34-.08 0-.06-.15.08-.15zm2.33 0c.18-.02.31 0 .43.05.15.06.48.55.5.62.02.18-.3.13-.42.12-.27 0-.04-.38-.39-.63-.07-.05-.24-.15-.12-.16zm.23-.6c.03-.12.04-.19.15-.22.1-.02.24.21.14.28-.1.07-.32.07-.29-.05zm-3.93-.82c.24.26.15.91-.06 1.01-.21.1-1.46.04-1.88.03-.23 0 .01-.35-.1-.54-.06-.08-.3-.38-.22-.47.08-.1.23-.46-.03-.72-.12-.12-.04-.88-.01-.98a1.8 1.8 0 0 0-.08-.87c-.11-.21-.1-1.84.34-2.65.22-.38-.3-3.53.01-3.91.08-.09-.03-.35.13-.38.14-.03.27.21.42.1.2-.18.4-.14.51-.12.17.03.27.21.36.23.07.02.26-.2.32-.08.07.1.1 2.91.06 3.05-.03.13.35 2.05.54 2.47.15.31.01.79.01.79s-.03.2-.04.43c0 .16.02.58-.1.81-.1.19-.23.6-.4.92-.08.15 0 .62.22.88zm-2.7.44c-.03-.1-.35-.28-.47.03a.6.6 0 0 0 0 .38c.04.08.22.18.25.33.02.07-.3.04-.35-.1-.04-.1-.03-.22-.05-.28a.9.9 0 0 1 .03-.59c.08-.17.27-.17.32-.17.17 0 .31.13.35.2.09.12.1.3.06.42-.01.07.07.21.07.3 0 .12-.14.11-.16.12-.03 0-.15-.01-.12-.15l.08-.25a.4.4 0 0 0 0-.24zm-.08.3c-.05.1-.23.08-.27 0-.05-.08-.13-.24.11-.25.11-.01.2.15.16.25zm-1.69.49c.17-.01.55-.06.46 0-.09.07-.3.2-.4.35-.05.08 0 .29-.06.35-.05.05-.24.05-.43.02-.19-.03.31-.71.43-.72zm-.08-.8c.23.04.25.18.23.29-.01.11-.04.2-.14.2-.1.02-.18-.1-.18-.2-.01-.1 0-.3.09-.28zm.95.75c.1 0 .36.1.13.25-.23.15-.37.37-.44.5-.03.07-.23.07-.23-.13 0-.32.45-.62.54-.62zm.12-1.05c-.08 0 0 .05 0 .17-.02.13-.04.74-.13.77-.16.05-.11-.2-.04-.37.1-.24-.1-.4-.14-.51-.04-.12-.03-.38-.1-.57-.08-.18-.17-.3-.2-.31-.05-.01-.13.34-.26.44-.13.1-.22.16-.24.21-.01.06-.03.14.07.15.1 0 .3.04.36.09.16.13.17.31.16.42-.02.23-.2.43-.25.45-.14.04.01-.47.02-.53 0-.07-.1-.18-.2-.24-.08-.04-.2-.02-.33.04-.08.04-.14.18-.1.24.13.18.12.38.1.43-.07.15-.38.22-.38-.27 0-.21.1-.43.2-.46.12-.04 0-.54.11-.9.05-.15.1-.51.4-.52.1 0 .22.14.34.13.11 0-.05-.44.05-.46.1-.01.18-.35.29-.37.1-.03.13.17.17.24.04.07.04.7.01.76-.03.06-.03.16.08.15.1 0 .31-.12.19.13-.06.1-.13.16-.13.23 0 .08.04.2.12.15.08-.05.15-.24.22-.27.14-.06.28-.03.29.11 0 .14-.02.22-.15.23-.13 0-.3-.02-.33.06-.03.07-.13.18-.2.18zm-1.69-.49c.03.09-.03.24-.07.41-.02.13-.03.32-.06.46-.06.2-.15.29-.11.4.1.3-.42.26-.46.1-.04-.12.07-.36.23-.35.04 0 .17-.1.08-.4-.03-.11.1-.27.14-.4.04-.13-.03-.21-.12-.21-.17 0-.48.06-.42-.11.06-.19.04-.4.1-.52.04-.08.13-.14.26-.04.12.1.33.02.44-.17.17-.27.42-1.77.26-1.65-.1.08-.08.65-.16.93a.98.98 0 0 1-.19.34c-.25.28-.45.3-.52.24-.14-.1.06-.67.14-.67.25-.01.17.35.22.34.13 0 .13-.48.08-.69l-.04-.36c-.01-.5.07-1.63.04-1.68-.04-.09.06-2.26-.05-2.38a11.3 11.3 0 0 1-.38-2.44c.02-.25-.1-.48-.16-.77-.13-.54-.05-1.13.26-1.35.1-.07.88-.13 1.23.2.22.2.7.62.75.85.04.22.15.9 0 1.4-.02.08-.12.25-.13.46-.01.48-.07 1.24.04 1.92l.04.43c.02.25.29 1.1.41 1.25.27.33.26.84.2.9-.13.09-.16-.4-.27-.48-.1-.06-.19-.05-.17.04.02.14.24.4.26.92 0 .2.08.43.14.67.09.34-.01.9-.22.93-.05 0-.2-.49-.22-.7-.02-.12-.06-.2-.1-.3-.04-.1-.09-.25-.14-.25-.12-.01.22.94.03 1.12-.07.06-.28.3-.33.21-.07-.14-.14-1.18-.25-1.34-.14-.21.07 1.2-.12 1.49-.13.2-.73 1-.66 1.25zm-1.01 2.33c.05.21-.06.23-.34.22-.23 0-.32-.03-.31-.21 0-.1.14-.37.23-.48.1-.14.19-.24.45-.27.15-.01.4-.08.4.03 0 .07-.12.14-.23.25-.11.11-.23.35-.2.46zm-.07-1.75c-.08.12-.15.4-.02.54.08.1.14.24.08.31-.1.11-.32.05-.43-.07-.07-.08-.06-.66.12-.87.14-.15.33-.15.37-.15.05 0 .16.06.32.2.28.27.1.5.07.5-.05.02.07-.23-.22-.46-.06-.05-.22-.1-.29 0zm.28.58c-.09.02-.25-.1-.21-.19.04-.1 0-.2.1-.18.09 0 .16.01.2.1.05.1 0 .24-.1.27zm-.3-1.45c-.1.23-.52.67-.5.79.01.05-.02.17-.01.31.01.4-.13.65-.19.62-.1-.05.1-.32.04-.6-.06-.24-.43-.22-.5-.16-.17.14.02.81-.1.77-.09-.03-.25-.4-.17-.63.08-.25.31-.41.64-.45.27-.04.3-.18.3-.39 0-.2.1-.65.43-.72.2-.04.17.25.07.46zm-.76 1.33c-.05.12-.11.24-.22.17-.11-.07-.06-.37.09-.4.26-.04.17.12.13.23zm-.1.6c.24-.01.31.05.3.13 0 .1-.27.21-.33.33-.07.13 0 .31-.1.39-.07.04-.24.02-.5.04-.23.01-.1-.24-.03-.46.13-.37.45-.4.67-.43zm1.07-15.99c.1-.05.33.34.2.48-.12.13.08.07-.13.37-.21.3-.47.2-.56-.07-.05-.17.34-.7.5-.78zm-.6-.2c-.18.1-.2-.34-.14-.53.08-.23.32-.48.5-.56.1-.03.43.02.32.22-.1.2-.48.77-.67.87zM16.8 9.38c.05.05.16.12.35.02.17-.08.14-.14.4-.4.2-.22.38-.18.34-.03-.04.2-.33.67-.68.68-.11 0-.36-.02-.38.07-.02.09-.33.17-.6-.05-.27-.24-.56-.62-.5-.87.04-.18.37-.37.63-.39.19 0 .2-.21.26-.16.28.25.47.34.78.32.34-.01.06.58-.35.6-.37.04-.33.15-.25.21zm-1.07.14c.09.1.2.3.78.45.19.05.74.08 1.03-.14.34-.25.74-1.15 1-1.21.2-.05.27 1.29.25 1.5-.02.2-.5.63-.82.68-.2.02-.57 0-.47-.11.06-.08.3-.13.34-.26.01-.06-.17.03-.33 0-.19-.04-.38-.12-.34-.03.04.1.15.24.06.3-.1.07-.75.15-.85 0-.07-.1.17-.33.1-.41-.07-.07-.15.12-.34.2-.3.1-.58-.02-.51.08.07.1.23.09.35.1.13.03.2.1-.07.13-.28.03-.7.06-.9-.14-.2-.2-.36-.51-.3-.85.08-.34.12-1.1.26-1.1.25 0 .54.6.76.81zm3.92-1.18c.04-.14.19-.16.23-.22.1-.13.04-.35.15-.45.04-.04.15-.1.2.07.05.14-.04.38.08.55.12.18.05.33 0 .5-.05.22-.28.26-.54.31-.17.04-.36.17-.49.49-.12.32-.31.04-.3-.07 0-.13-.12-.41-.02-.48.11-.08.27-.07.6-.42.15-.14.04-.1.1-.28zm-.5 3.7c.13-.17.03-.8.11-.79.08 0 .24.2.3.44.13.54-.26.03-.15.27.21.47.07.77-.03.86-.22.2-.6.43-.94.39-.23-.03-.18-.08-.08-.18.1-.1.14-.33.1-.53-.03-.2-.2-.42-.18-.55.04-.2.4.35.52.33.1-.02-.13-.54 0-.59.13-.04.26.48.35.36zm.74 1.58c-.09-.17-.07-.42.2-.43.37 0 .42.32.36.5-.04.14-.17.37-.5.34-.34-.03.1-.12-.06-.41zm.76 2.45c-.08-.16 0-.48.41-.43.23.02.4.16.44.28.1.32-.04.56-.06.7-.02.14-.27.6-.23.1.04-.53-.31-.2-.56-.65zm-1.67 4.16c-.11-.1-.12-.88-.01-.98.2-.18.46.83.8 1.09.33.25.41.43.34.6-.14.3-.38.43-.27 0 .08-.34-.74-.6-.86-.7zm-.03 3.18c.01-.1.24 0 .28.04.07.06.13.23-.04.3-.14.05-.25-.2-.24-.34zm-.1-.81c.07-.15.24 0 .25.08.02.07.12.3.05.3-.07-.02-.39-.15-.3-.38zm.17-.49c-.11-.2-.06-.79-.02-.89.06-.14-.2-.23-.26-.38-.05-.13.17-.14.38-.02.12.06.25.2.27.4.01.22-.03.38.03.4.12.06.45.63.38.86-.08.24-.2.38-.36.2a3.3 3.3 0 0 1-.42-.57zm-2.12 1.06c.02-.39-.16-.73-.1-.77.05-.05.32.11.42.18.12.08.33.19.41.41.11.3-.25.2-.24.3 0 .04.14.1.3.18.08.05.07.26-.14.3-.36.06-.65-.49-.65-.6zm.4 1.7c-.1.08-.24.11-.26.06-.02-.03.08-.56.22-.48.05.03.42.07.04.41zm-.6-5.18c-.26-.15-.21-.44-.14-.37.3.25 1.07.66 1.22.83.13.14.07.5 0 .55-.3.23-.91-.45-1.01-.58-.1-.12.07-.36-.07-.43zm-.06.99c.05-.04.08 0 .1.08 0 0 .92.6 1.05.72s.06.69-.06.73c-.12.04-.59-.27-.58-.44 0-.16.12-.16.12-.28 0-.12-.53-.33-.47-.47.07-.14-.06-.07-.06-.07 0 .11-.02.22-.04.26-.04.07-.11.07-.36.12-.3.05-.48.59-.5.83-.02.23.11.52-.12.43-.18-.07-.5-.44-.47-.62.03-.18.37-.18.48-.4.12-.22-.04-.57.21-.59.36-.02.58-.24.7-.3zm1.68 1.63c.18.13.26.38.24.54-.03.21-.04.23-.45.45-.07.04-.28.06-.2-.13.07-.18.03-.59-.03-.82-.07-.26.36-.1.44-.04zm.2-1.24c.16.16.1.52 0 .55-.15.04-.24-.16-.24-.27 0-.1-.15-.2-.17-.29-.04-.2.27-.12.42.01zm-.53 2.62c.08.03.13.22.08.34-.11.3-.37.28-.4.22 0-.04.13-.03.12-.21-.02-.34.1-.37.2-.35zm-1.62-3.74c-.05.3-.7.76-.82.82-.11.06-.07.36-.18.45-.1.09-.3 0-.35-.35a.63.63 0 0 1 .48-.73c.26-.07.27-.2.28-.36 0-.17.2-.36.33-.36.16 0 .3.23.26.53zm-.25 2.77c.13-.12.35-.66.38-.58.14.42-.09.46-.16.74-.07.26-.63.5-.64.72-.02.23 0 .37-.1.43-.12.07-.4.09-.4-.5.01-.7.75-.66.92-.81zm.13 1.4c.2-.07.04-.28.14-.41.06-.08.2-.11.26-.08.14.07.2.15.14.37-.1.3-.17.6-.43.65-.16.03-.23-.48-.11-.52zm1.25.85c.04-.32.76-.51.84-.44.13.12.07.66.08.82.03.64.27.66.28.8.02.27-.25 2.83-.42 3.03-.22.25-.18-.2-.36-.75a8.99 8.99 0 0 1-.3-2.12c0-.58-.15-1-.12-1.34zm1.03-4.87c-.05.06-.12.14-.34.18-.24.05-.03-.21-.02-.35 0-.14-.32-.5-.7-.65-.18-.08-.32.05-.68-.31-.14-.15-.1-.46-.34-.59-.18-.1.08-.25-.33-.53-.01.07-.02.13 0 .2.05.42-.18.46-.33.6-.13.14-.43.34-.4.78.03.27-.2.4-.47.12-.24-.26.05-.86.06-1.03.03-.28.12-.25.35-.36.17-.07.29-.34.2-.47-.03-.05-.12-.13-.07-.22.06-.1.55-.23.71-.11.11-.1.32-.21.35-.13.03.1.03.34.06.53.04.2.22.4.4.53.18.13.45.09.7.33.13.12.05.34.15.44.25.25.43.26.66.34.25.1.18.54.04.7zm-4.42 3.33c.02.19.3.3 0 .3-.34.01-.48-.24-.5-.6-.02-.16.32-.5.44-.63.07-.08-.03-.14.04-.24.06-.08.46-.37.52-.38.16 0 .17.66-.01.74-.32.14-.5.58-.49.81zm-1.58-.48c-.18 0-.38-.4-.29-.76.07-.28.24-.19.34-.28.08-.08.03-.19.08-.24.15-.15.27.02.25.07-.07.3-.3.37-.37.85-.02.18.27.35-.01.36zm-.1-2.59c-.2-.06-.4.04-.4-.17 0-.2-.05-.53.13-.94.16-.38.32-.36.32-.36s.37-.01.18.6c-.06.22-.43.4-.36.6.07.2.4-.03.47.18.07.2.01.63-.1.8-.2.33-.5.52-.51.28-.01-.24-.2-.37 0-.5s.56-.4.28-.49zm-.18-1.91c.12.14-.46.25-.47-.49 0-.18.18-.56.35-.6.3-.08.4-.46.48-.44.13.03.32.33.26.46-.28.58-.57.53-.62.67-.04.15-.06.32 0 .4zm.05-2.38c-.08.06-.26.09-.2.47.02.14-.59-.09-.24-.78.34-.7.85-.83.85-.83.19-.03.35.3.4.49.06.17-.62.48-.81.65zm.91 2.43c.16-.12-.04-.44.32-.6.29-.12.38-.36.53-.5.1-.11.39.55.34.77-.08.33-.5.44-.72.66-.12.14-.01.3.04.47.05.17-.2.28-.4.03-.23-.28-.36-.63-.1-.83zm.2 1.74c.57-.55.63-1.05.78-.95.21.15.27.58.24.86-.03.29-.93.6-.97.68-.03.09-.26-.4-.05-.6zm-.06 1.62c.08-.28.42-.32.56-.59.14-.27-.13-.46.17-.48.15-.01.18-.08.24-.1.12-.03.21.17.12.3-.1.11.01.3-.04.4-.08.17-.6.25-.62.43 0 .17-.17.22-.1.45.06.2.1.4-.01.33-.12-.07-.4-.45-.32-.74zm1.31-4.29c-.17-.37-.14-.64-.01-.82.15-.2.3-.12.6-.35.22-.17.15-.41.24-.58.07-.13.2-.24.31-.28.32-.1.58.01.6.41.02.33-.15.45-.23.53-.1.1-.2.1-.38.15-.2.06-.58.53-.63.7-.04.15.22.43.15.5-.12.1-.5.06-.65-.26zm2.28-5.64c.2-.02.48.04.58.17.1.13.22.33.22.33s.05-.54.17-.54c.17 0 .33.57.31.8 0 .24 0 .39-.27.48-.28.1-.63.26-1.07 0-.2-.1.16-.2.33-.54s-.62-.66-.27-.7zm1.48 3.63c-.05-.34-.48-.33-.7-.47-.26-.15-.54-.47-.58-.82-.02-.24-.56-.43.23-.44.47 0 .49.25.57.36.09.12.3.56.56.73.29.2.5.53.3.99-.1.23-.37.32-.53.2-.18-.16.2-.11.15-.55zm-1.61-2.8a.16.16 0 0 1-.17-.16c0-.1.08-.17.17-.17.1 0 .16.08.16.17 0 .09-.07.16-.16.16zm-.08 2.53c.11-.07-.02-.4.14-.4.17-.01.71.52.88.67.2.18.23.7.59.8.5.13.5.38.47.52-.04.14-.29.53-.5.61-.22.08-.33-.03-.37-.14-.04-.14.08-.28 0-.49-.1-.26-.97-.67-1.23-.76-.21-.07-.39-.54-.32-.64.07-.1.24-.1.34-.17zM18 18.92c-.24-.12.1-.29.1-.46.01-.17-.1-.5-.36-.51-.26-.02-.47-.01-.7-.18-.22-.16-.34-.34-.37-.58-.03-.3.17-.43.3-.47.1-.02.05.24.35.3.33.07.35.14.49.3.2.23.22.48.53.56.41.1.63.5.4.72-.24.22-.55.43-.74.32zm2.04 3.43c.02-.1.04-.17.12-.17.15 0 .21.3.22.35.02.1-.09.17-.21.11-.11-.05-.14-.15-.13-.29zm-.28-2.18c-.06.01-.14-.06-.04-.17.1-.11.14-.32.04-.49-.1-.17-.5-.55-.64-.59-.13-.04-.13-.29 0-.37.1-.07.2-.02.08-.1-.11-.08-.2-.3-.3-.5-.07-.17 0-.26 0-.26.12-.07.3.18.35.22.04.04.37.36.4.41.04.12-.05.33.05.35.2.03.13.22.47.27.32.04.3.48.24.67-.06.16-.38.51-.65.56zm-.62-3.85c.29.2.26.37.54.84.29.47.6.34.7.54.06.15.04.26-.01.46-.07.27-.35.4-.47.37-.12-.03-.1-.33-.13-.55-.03-.22-.53-.26-.62-.37-.09-.1-.2-1.42-.01-1.3zm.72.84c-.11-.03.13-.24.13-.43 0-.14-.42-.44-.73-.58-.2-.09-.12-.27-.06-.36.07-.1-.07-.56.11-.53.2.03.46.29.53.39.08.12.3.2.54.49.23.27.36.37.25.68-.14.39-.58.4-.77.34zm.97-1.77c-.33.06-.18-.17-.1-.23.08-.07.22-.34-.04-.5-.27-.16-.4-.31-.2-.45.12-.09.37-.1.72.28.42.47-.05.84-.38.9zm-.46-.26c0 .14-.29.47-.52.4-.13-.05-.02-.16-.09-.43-.07-.27-.39-.24-.56-.32-.15-.07-.54-.25-.68-.63-.13-.38.26-.33.26-.33.37 0 .37.19.4.22.04.05.16.28.54.44.4.17.65.45.65.65zm-4.9-3.2c.06-.01.07.34.12.43.04.05.17-.33.25-.35.13-.04.06.27.1.38.02.08.44-.47.56-.45.08 0-.25.46-.28.58-.04.16.04.3.07.33.23.14.34.04.34.18 0 .2-.08.05-.27.16-.11.08-.18.18-.33.17a.95.95 0 0 1-.46-.17c-.13-.08-.33-.14-.33-.58 0-.33.06-.65.23-.68zm-.17 2.23c.23-.22.32-.26.45-.3.12-.03.37-.01.52.02.2.04.16.74-.21 1.05-.37.3-.73.27-.91.53-.14.21-.07.49.03.6.1.1-.54 0-.61-.38-.05-.25.12-.46.29-.65.05-.05.03-.17.08-.3.06-.15.23-.46.36-.57zm-1.2.7c-.23.23-.16.37-.2.47-.06.12-.4.13-.47-.15-.06-.28.32-1.2.9-1.5.14-.07.61-.07.65.12.08.43-.64.84-.88 1.06zm-.4.87c.22-.08.6.1.53.36-.07.26-.46.44-.53.63-.05.16-.06.42.08.55.13.12-.26.06-.45-.14a.93.93 0 0 1-.18-.74c.06-.28.34-.59.54-.66zm-.4-2.03c-.2.58-.5.43-1.06.72-.22.12-.18-.23-.13-.4.09-.27.43-.41.65-.5.22-.1.27-.36.4-.34.06.01.21.3.14.52zm-1.58-.12c-.02.2-.52-.34-.3-.57.23-.23.33-.5.5-.64.1-.08.33.1.35.41.03.3-.53.59-.55.8zm-.29 8.44c.01-.1-.01-.5.22-.4.06.02.12.17.15.24.08.14-.04.21-.1.38-.06.11 0 .45-.1.49-.12.06-.31-.28-.32-.5 0-.2.14-.12.15-.21zm3.56 11.08c.03.25.18 1.4.12 1.63-.06.21-.39-1.47-.39-2.07 0-.37.03-1.22.2-1.34v.7c0 .34.06.99.07 1.08zm-.36-3.2c-.19.19-.18-.73-.17-.87.03-.62-.19-2.2-.2-2.49-.01-.33-.2-1.28-.03-1.6.1-.21 0-.86.58-.87.19 0 .43.45.6.5.16.04-.16.63-.18.8-.02.1-.08.18-.09.31 0 .2.08.35.12.53.08.33.06 3.03-.63 3.7zm6-7.3c-.23.05-.12 0-.12 0s.2-.12.18-.38c-.02-.25-.1-.3-.19-.48s-.07-.35.07-.4c.3-.11.44.32.44.46 0 .23-.04.72-.38.8zm.36-1.86c0-.16-.24.08-.4-.13-.06-.07-.13-.31.12-.4.24-.09.62.24.71.36.1.12-.04.37-.14.43-.13.06-.3.02-.29-.26zm.27-.95c-.04-.23-.23-.44-.42-.6-.19-.16-.23-.09-.28-.2-.04-.1.2-.57.38-.57 0 0 .1.02.17.13.06.1.02.29 0 .38 0 .08.16.08.32.22.15.15.13.4.1.51-.03.12-.22.37-.27.13zm.06-1.48c.07-.08.17-.09.1-.25-.08-.16-.55-.23-.68-.57-.05-.14.09-.34.35-.34.13 0 .27.05.46.26.1.1.3.33.11.68-.16.3-.41.3-.34.22zm.5-3.43c-.3 0-.26-.14-.37-.34-.1-.19-.3-.2-.36-.43a.28.28 0 0 1 .08-.28c.13-.12.29 0 .43.08.17.11.48.33.51.48.04.15.06.49-.3.5zm-.45-1.31c-.23 0-.22-.2-.3-.44-.1-.24-.02-.45.11-.46.18-.02.17.3.27.43.12.17.16.47-.08.47zm-6.58-1.75c.08.02-.04.42 0 .46.07.08.16-.21.16-.21s.17-.3.25-.3c.11-.01.08.1 0 .24-.07.12-.33.4-.32.57.02.17.15.47 0 .58-.27.19-.37.1-.63-.06-.3-.2-.26-.55-.36-.72-.1-.17-.12-.18-.32-.2-.15-.02-.12-.4-.1-.54.02-.14.2-.2.2-.2.2 0 .26.15.28.31.02.22.15-.04.25-.17.16-.2.09.55.2.55.07 0 .2-.34.39-.3zm-3.4 2.64c.16-.04.42.22.26.4-.19.22-.7.4-.65.55.05.16-.4-.14-.12-.5.28-.37.36-.42.5-.45zm-.2 2.29c-.2.16-.28.56-.38.42-.02-.04-.12-.25-.04-.64.08-.4.31-.6.49-.54.08.04.06.65-.07.76zm-.1-2.97c-.05.14-.13.46-.32.37-.07-.04-.2-.51.09-.72.1-.07.3.2.24.35zm.05 3.75c.2-.13.33.36.2.55-.11.2-.44.49-.54.7-.09.21-.24-.35-.14-.55.1-.2.3-.59.48-.7zm-.5-2.61c-.05.18-.03.42-.29.53-.15.07-.15-.1-.16-.32-.01-.17 0-.45.13-.47.16-.03.36.02.31.26zm-.52 1.38c-.1-.07.04-.4.14-.49.11-.1.2.1.2.18 0 .12-.16.42-.34.3zm.2 1.23c-.14.3-.2-.12-.22-.18-.02-.15-.07-.53.06-.59.18-.07.4.23.15.77zm-.24.41c.12-.06.3.33.23.53-.09.21-.46-.13-.46-.26s.15-.23.23-.27zm-.21 1.58c.02-.23.16-.28.26-.29.11 0 .17.04.17.27 0 .3-.18.55-.22.55-.08 0-.24-.3-.21-.53zm.5 1.22c.12-.06.32.15.35.24.02.09.16.35.1.43-.04.07-.22.17-.44-.1-.13-.16-.26-.42 0-.57zm.47 1.28c.14.02.19.23.16.36-.04.13.15.36 0 .36s-.23-.1-.3-.27c-.06-.17.03-.47.14-.45zm.24 2.08c.05-.15.1-.62.3-.62.23 0 .17 1.73.05 1.87-.11.15.06 1.74-.07 1.66-.2-.14-.4-1.64-.4-1.79 0-.19-.06-.47-.08-.68 0-.12.15-.3.2-.44zm-.6 7.74c-.06.27-.16 1.25-.25 1.2-.08-.06-.04-1.03.04-1.25.09-.21.3-.52.38-.58.08-.05-.11.36-.17.63zm-.17 1.87c0 .2-.06.26-.08.36-.01.18-.25.06-.25-.22 0-.1.08-.37.25-.38 0 0 .08.15.08.24zm-.21.86c.2-.05.33-.77.49-.66.17.12-.07.9-.29.96-.46.12-.62.75-.66.57-.05-.17-.18-.95 0-1.03.2-.07.17.23.46.16zm-.34 1.9c-.48.24-.32.65-.44.65h-.48c-.1 0 .02-.28.06-.35.06-.09.21-.37.57-.41.14-.02.35.07.29.1zm2.03.6c-.05 0-.02-.27.14-.53.08-.12.19-.3.33-.3h.4c.25-.03-.1.21-.27.35-.16.14-.06.46-.17.5-.13.03-.21 0-.43-.02zm5.77 9.47c.1-.08.13-.2.09-.27-.04-.06-.14-.26-.07-.28l.27-.06c.07-.03.34.46.2.57-.08.08-.55.09-.5.04zm1.85.34c0-.08.26-.04.43-.04.18 0 .14.1.16.16.05.17-.19.16-.36.16-.23 0-.24-.13-.23-.28zm.3-.36c.06-.1.08-.2.06-.25-.07-.13-.4-.49-.28-.49.09 0 .15-.04.26.04.07.05.35.28.37.39.01.1.08.33-.07.36-.13.03-.38.06-.33-.05zm2.33-6.1c-.07-.07-.1-.29.08-.3.07 0 .24.13.18.22-.06.1-.2.14-.26.08zm.6-4.77c0-.08.05-.18.14-.17.09.02.1.14.13.2.04.1.08.36.06.4-.05.08-.14.13-.26-.15-.02-.07-.07-.14-.07-.28zm.33-.8c-.1.06-.14.02-.17-.09-.03-.1.14-.28.08-.44-.07-.17-.2-.4-.11-.41.06-.01.3.38.3.53 0 .15 0 .33-.1.4zm-.25-.23c0 .06-.08.17-.15.13-.08-.04 0-.42-.15-.55-.08-.08.02-.18.15-.18.12 0 .15.48.15.6zm-.61-.28c-.01.2.08.6.25.8.03.04 0 .17 0 .2 0 .05.06 0 .09-.06.06-.1.25-.06.31.1 0 .01-.2-.03-.34.1-.04.04-.15.25-.03.34.1.08.27.3.14.3-.07 0-.28.06-.33-.14-.04-.2-.03-.29-.09-.6-.03-.19-.15-.26-.26-.56-.08-.23-.27-.42-.08-.61.1-.1.35-.08.34.13zm-.23-.59c-.04.15-.57.03-.7-.14a8.93 8.93 0 0 1-.12-2.33c.03-.12.08-.74.32-.77.2-.03.28.4.34.59.07.26.2 2.5.16 2.65zm-.53-5.27c.04.28-.6 1.72-.72 1.73-.1.01-.16-.43.08-2 .02-.08.1-.44.09-.51-.12-.53.1-.45.17-.7.07-.24-.17-.25.02-.5.16-.21 0-2.46.38-2.56.16-.04.37.91.21 2.44-.05.48-.28 1.83-.23 2.1zm.24-5.9c.06.1-.3.06-.3-.24s.2-.54.37-.54c.17 0 .2.3.14.44-.07.15-.26.24-.2.34zm1.78 1.24c-.07.07-.46-.32-.21-.55.15-.14.38.03.41.14.04.11-.08.3-.2.4zm.2-3.84c-.12.17-.07.4.01.56.16.27-.08.12-.08.12s-.24-.06-.3-.6c-.04-.42.15-.88.32-1.06.24-.24.37-.73.13-.7-.1 0 0 .54-.28.6-.24.05-.43-.24-.42-.6.01-.35-.01-.46-.09-.54-.05-.08-.25-.11-.26-.2-.01-.07.11-.22.33 0 .1.1.1.1.29-.04.2-.16.41-.1.47.04.08.16-.45.63-.4.8.07.23.3-.56.6-.47.3.09.04.53.18.6.14.09.26.5.09.88-.18.37-.44.38-.6.61zM23 10.1c-.12-.02-.37-.25-.15-.42.08-.06.24-.25.43-.35.31-.17.05-.29.4-.37.42-.1.6-.22.72-.21.38.04.58.32.68.4.13.09-.25.43-.6.56-.51.2-.86-.02-1.02.17-.09.12-.39.24-.08.45.12.1.04.12-.16.11-.3-.02-.11-.32-.22-.34zm-.31-1.65c.06-.3.39-.43.47-.48.08-.05-.02-.37.1-.35.11.01.53.03.8-.05.34-.09.55-.49.58-.32.05.32-.18.93-.37 1.18-.15.2-.46.03-.7.05-.22.03-.37.09-.4.28-.03.17 0 .3-.16.27-.22-.05-.38-.27-.32-.58zm.9 2.1c.43-.4.77-.4.85-.4.17-.01.13.56.25.68.05.05-.13.26-.35.37-.21.12-.47.15-.5.2-.15.25.15.42-.03.5-.23.11-.44.05-.5-.12-.07-.17-.13-.82.29-1.23zm.02 1.99c.05-.14.47-.34.53-.44.06-.1-.05-.2 0-.33.04-.13.28-.17.42-.25.07-.03.28-.05.45.04.23.13.14.38-.15.65-.27.25-.78.41-.73.5.04.1.08.27-.06.47-.15.2-.22.14-.34-.03-.12-.17-.2-.37-.12-.61zm.3 2.2c.1 0 .17.24.17.41 0 .18-.38.57-.56.8-.1.12-.26-.35-.2-.47.07-.13.35-.75.58-.74zm.29 2.7c.41.25.49-.41.6-.72.12-.3.28-.26.4 0 .19.38-.08.54-.14.82-.18.83-.44.3-.38.69.05.41.18.65.02.65-.19 0-.47-.4-.46-.63.02-.23.15-.44.06-.53-.2-.2-.53-.29-.62-.77-.1-.48.29-1.22.6-1.22.1 0 .23.16.24.33 0 .17-.4.63-.5.85-.07.21-.02.4.18.53zm-.88-1.4c.15.05.15.23.08.5-.07.26-.13.54-.07.65.06.12-.27.06-.34-.34-.06-.4.15-.86.33-.8zM26.15 12c-.3.12-.45.25-.43.44.02.22.18.23.25.3.06.05.05.14-.28.14-.2 0-.23-.22-.32-.44-.09-.21-.09-.33.18-.55.26-.22.89-.82.91-.93.02-.11-.19-.18 0-.27.18-.09.6-.54.72-.45.1.08.11.39.11.5 0 .24-.16.6-.34.82-.19.21-.5.33-.8.44zm-3.62-3.93c.05-.03.15-.06.07.23-.08.26-.12.8-.11 1.1 0 .06-.07.09-.07.13 0 .03-.04.06-.1.1-.32.22-.34.59-.3.58.02 0 .28-.37.41-.45.08-.06.13.1.13.2 0 .2-.04.41-.12.62-.12.3-.35.4-.41.75-.03.13-.11.54-.02.76.15.35.14.23.13-.1 0-.1-.04-.28.02-.45.04-.1.18-.32.26-.42.12-.18.2-.34.36-.32.24.03.2.55.18.73-.03.18-.08.36-.12.49-.11.44-.36.23-.46.7-.06.3-.02.61.07.61.1 0 .1-.48.64-.85.04-.03.27.03.2.36-.02.1-.22.07-.1.21.1.13-.16.28-.22.5-.09.31-.36.34-.3.4.24.18.14.87.24.65.17-.36.43-.87.66-.87.1 0 .14.33-.15.79-.37.58-.38.75-.5.75-.23 0-.26-.26-.24-.69.02-.34-.3-.4-.48-.76-.09-.16-.03-.69-.2-1.25-.17-.58-.36-.55-.43-.95-.07-.4.33-.9.23-1.15a.48.48 0 0 1 .05-.47c.15-.24.3-.37.29-.62 0-.47.27-1.23.4-1.3zM19.16 1c.29-.17.64-.22.98-.17.39.07.58.28.51.53-.1.31-.38.48-.78.66-.25.1-.25.22-.16.29.14.1.3 0 .42.04.36.15.48.5.55.52.14.03.19-.12.06-.31-.16-.24-.39-.39-.4-.55-.02-.13.18-.32.45-.2.25.13.07.41.22.6.1.15.3.4.29.63a.95.95 0 0 1-.37.7c-.25.19-.1.23-.07.25.03.01.15-.17.3-.09.12.08.2.23.35.43.18.22.36.26.4.63.03.29-.04.5-.13.64-.34.57 0 .39.16.58.11.12.1.19.08.35-.04.31-.23.48.02.78.1.12.1.3.02.35-.17.1-.01.6-.11.67-.1.07-.35-.24-.33-.03.02.2.24.25.19.42-.06.16-.24.2-.3.12-.05-.08-.12-.32-.2-.4-.07-.06-.22-.18-.13.08l.13.27c.05.08.03.14.05.39 0 .25 0 .32-.1.37-.17.09-.5-.33-.53-.47-.01-.15.03-.29-.1-.45-.14-.16-.32-.57-.13-.8.2-.26.26-.06.32.03.18.26.22.04.1-.16-.07-.11-.2-.08-.2-.28s.02-.67.3-.97c.28-.3.35-.9.27-1.1a6 6 0 0 0-.55-.85c-.1-.1-.26-.23-.18-.6.08-.38.19-.8.08-.83-.1-.02-.4-.47-.55-.42-.15.05-.87-.17-.95-.37-.08-.18-.15-.47.26-.66.41-.2.54.13.56-.05.02-.19-.1-.35-.33-.3-.23.05-.36.04-.46.24-.1.19-.2.43-.32.44-.16.01-.2-.2-.18-.3.04-.22.28-.53.5-.65zm-1.26.48c.01-.12.05-.4.19-.6.2-.26.46-.39.61-.37.24.01.17.29.14.4-.04.13-.17.26-.35.78-.07.22-.3.4-.43.35-.12-.06-.19-.2-.16-.56zm-2.34.68c.02 0 .1-.16.09-.25-.01-.1-.06-.25-.26-.45s-.18-.4-.18-.53c0-.08.05-.28.27-.31a.5.5 0 0 1 .44.11c.2.17.19.4.15.63-.04.22-.11.38-.17.53-.07.15-.05.23-.05.23h-.02c.22-.03.45-.06.7-.06-.02-.02-.05-.08-.07-.26 0-.1.01-.2-.08-.31-.17-.23-.12-.62-.01-.73.1-.1.28-.15.37-.11.18.08.17.43.17.44 0 .26.05.52 0 .64-.13.24-.23.22-.17.33h-.04a4.85 4.85 0 0 1 .53.03s.09-.06.05-.25c-.04-.2-.16-.25-.2-.48a.94.94 0 0 1 .07-.6c.1-.2.2-.24.3-.24.15 0 .32.1.35.51.02.4-.14.4-.2.66-.04.15-.06.29.06.4.04.03.04.05.03.06l.39.07c1.71.4 2.03 1.03 2.14 1.23.25.47.19 1.04.32 1.16.22.2.33.5.36.66.06.43-.62.6-.76.9-.1.21-.15.25-.27.21-.37-.11-.52-.94-.86-1.07-.17-.06.78-.34 1.04-.65.29-.34.1-.17-.47.05-.43.16-1.23.47-1.71.16-.46-.3.05-1.12.4-1.35.34-.23.7-.33 1.23.17.49.48.5.5.55.49.06-.03-.47-.92-.88-1.06-.6-.2-1.14-.14-1.83.83-.4.56.16.73.25 1.15.12.55-.2.41-.28.5-.03.04-.11.09-.4.1-.3 0-.25.02-.41-.11-.09-.08-.56.09-.46-.47.09-.42.43-.51.19-1.15-.34-.88-1.08-1.17-1.85-.84-.39.17-1.14.92-1.08.94.05.02.39-.17.83-.51.45-.36.86-.23 1.2 0 .29.19.43.87-.02 1.19-.47.33-.82.14-1.27.03-.37-.1-.73-.27-.95-.23-.28.05-.07.12.03.12s.25.03.42.11c.12.06.27.26.5.36.33.13.73.05.65.12-.18.16-.48-.02-.73.85-.05.15-.19.18-.3.28l-.06.2c-.06.2-.1.09-.1.28 0 .2.26.09.22.5-.02.23.1.39-.16.3-.16-.05-.2-.39-.44-.32-.1.03-.02.17.14.23.14.05.19.23.2.28.06.37-.07.52-.06.79.01.26.08.3.35.37.27.06.53.08.72.29.19.2.04.45-.04.6-.1.18-.2.07-.34-.08-.14-.15.04-.35-.48-.48-.37-.1-.38-.08-.53-.17-.15-.1-.1-.36-.12-.6-.01-.36.2-.16.17-.47-.04-.31-.19-.18-.24-.47-.05-.3-.02-.34.22-.53.2-.16.2-.28.2-.28l-.02-.54c-.38-.4-.91-.57-.96-1.18-.01-.21.19-.46.48-.7.14-.1-.08-.67.1-1.11.18-.4 1.28-.9 2.58-1.13l.08-.01h-.01zM14.3.87c.1-.21.47-.27.7.12.17.3.12.52.08.72-.05.2-.14.3-.22.37-.03.02-.1.03-.1-.1.02-.1-.25-.36-.36-.51-.1-.16-.2-.39-.1-.6zm-3.41 5.01c0-.2.13-.34.32-.25.18.08.29.38.26.6-.02.27.11.46.26.5.14.05.25-.08.27-.31a1.5 1.5 0 0 0-.3-.74c-.2-.28-.46-.21-.56-.59-.16-.63.06-.7.1-.95.01-.22.1-.56.32-.58.15-.01.37.14.34.5-.05.74.06.2.1.11.09-.17.17-.28.2-.4a.65.65 0 0 0-.22-.6c-.16-.15-.13-.37-.13-.48 0-.15.1-.18.24-.26.16-.1.14-.2.02-.23-.06-.02-.15.05-.24.08-.18.07-.14-.36-.15-.53 0-.28.17-.4.36-.5.28-.12.34-.04.5 0 .17.04.32 0 .43-.11.1-.1.14-.24.34-.27.14-.03.26.03.53.22.3.21.38.48.48.7.1.2.12.3.07.41-.02.04-.17.09-.25-.04a2.93 2.93 0 0 0-.28-.36c-.12-.13-.17-.3-.37-.34-.25-.04-.26-.1-.07.08.04.04.36.35.44.55.08.2-.06.17-.11.17s-.25-.18-.35-.33c-.1-.15-.26-.23-.4-.22-.14.01-.28.22-.43.23-.14.01-.22-.05-.32.02-.1.06.26.13.33.24.06.1.01.08-.16.26-.17.17.15.15.3.12.14-.02.24-.24.26-.31.02-.08-.08-.33-.01-.39.06-.05.25.2.3.31.04.1.08.4 0 .46s-.72.68-.86 1.02c-.13.35 0 .64.01.82.02.17-.26.5-.33.65-.08.17-.1.68-.01.9.08.23.29.56.37.74.09.2.01.38-.1.5-.25.23-.2-.22-.31.05-.1.24-.49.53-.73.56-.32.02-.38-.1-.45-.19-.08-.08.07-.2.21-.3.14-.1.12-.23.13-.38 0-.14-.17-.25-.3-.4-.11-.13-.06-.54-.05-.74zm-.05 4.87c.2-.05.24 1.5-.06 1.64-.1.04-.1.32-.08.57.03.25-.18.14-.34.46-.12.26-.11.56-.26.47-.14-.1-.07-.33-.06-.57 0-.24-.06-.44-.28-.83-.16-.3.03-.36.24-.34.22.03.35.7.44.51.05-.1.05-.29.02-.57 0-.12-.11-.13-.3-.34-.1-.12-.07-.42-.04-.64.04-.2-.13-.11-.2-.52-.04-.17.19-.28.25-.22.08.07.03.21.2.31.2.1.25.16.25.33 0 .27.1.33.1.33.1-.08-.03-.55.12-.59zm-.1-.42c.01.07-.24.06-.32-.28-.09-.37-.37-.15-.44-.52-.05-.28.13-.45.24-.55.12-.13.36.34.45.64.12.38.07.6.08.71zm-.06-1.6c-.05.14-.27.2-.28.09 0-.1.06-.27-.12-.44-.14-.12-.14-.33-.28-.4-.29-.12-.34-.26-.27-.35.08-.09.38.02.58-.16.23-.2.12-.43.18-.54.05-.1.1-.1.13 0 .05.15.1.44.01.62-.09.18-.23.28-.06.49.15.19.17.5.1.69zM9.6 4.63c.28-.03.53.08.68.26.33.39.37.78.27.64-.15-.2-.4-.25-.65-.38-.13-.08-.08-.22-.13-.31-.05-.1-.23-.2-.17-.21zm-1.42-.2c.27-.14 1.32.4 1.16.46-.16.07-.9.16-1.08.01-.1-.08-.2-.41-.08-.47zM8.05 6.4c.21.19.16.62.58.68.12.01.32-.07.42.04.07.07.59.12.7 0 .1-.09-.05-.4-.36-.47-.31-.06-.77.05-1.07-.16a.54.54 0 0 1-.17-.72c.1-.13-.16-.3.12-.5.4-.29 1-.07 1.34.06.33.12.87.59.96.68.2.22.12.56.05.7-.08.16-.33.02-.42-.31a1.96 1.96 0 0 0-.52-.78c-.1-.08-.34-.08-.35-.02 0 .07.32.3.45.48.33.46.56 1.08.15 1.31-.15.09-.68-.05-.54.06.15.13.05.32.18.41.28.21.43.4.37.76-.05.28-.27.4-.55.4-.14 0 .13-.73-.15-.7-.28.02-.77-.1-.89-.43-.1-.27-.23-.2-.33-.25-.1-.07-.13-.17-.05-.3.11-.16.17-.53-.02-.72-.15-.16-.09-.39.1-.22zM4.83 4.48c.33.05.4.51.46.1.02-.16-.26-.3-.36-.37-.08-.05 0-.19.09-.2.26-.02.42.34.6.28.5-.18.67-.65 1.32-.6.65.04.56.47.58.7.01.13.34 0 .33.67 0 .55.19.16.12.62-.01.06-.15.04-.12.1.17.43-.14.48-.27.51-.15.05-.2.16-.13.22.24.2.4.38.23.5-.12.09-.7-.08-.4.13.37.26.63 1.07.26 1.3-.23.16-.46-.3-.81-.35-.14-.03-.14.12.03.27.2.17.65.4.67.85.02.37-.21.84-.4.9-.31.1-.25-.15-.15-.32.05-.1.17-.19.05-.29-.06-.05-.03-.19-.14-.25-.26-.13-.53.06-.85-.23-.14-.14-.16-.46-.02-.48.1-.02.23.18.4.15.18-.03.21-.5.07-.6-.33-.2-.49-.15-.67-.18-.13-.02-.23-.2-.14-.2.27 0 .97-.15 1.18-.7.1-.26 0-.91-.25-1.25a1 1 0 0 0-.48-.4c-.15-.07-.4-.03-.34-.02.93.17 1.07 1.39.58 1.76-.67.5-1.02.23-.83.1.4-.23.56-.55.55-.78 0-.2-.4-.5-.88-.57-.44-.06-.8-.2-.88-.66-.08-.47.27-.76.6-.71zM1.4 11c-.04 0-.12-.25.1-.54.13-.17.34-.38.18-.32-.17.06-.4.16-.46.28-.15.37-.25.17-.17-.04.08-.2.36-.52.51-.62.16-.1.44-.11.67-.2.23-.09.61-.44.76-.47.15-.03.18.05.15.17-.03.1-.1.15-.27.33-.16.2-.46.58-.52.7s-.22.14-.41.14c-.13 0-.2.08-.3.23-.14.2-.2.35-.24.34zm1.82-.42c-.12.1-.43.32-.58.38-.1.04-.15-.1-.13-.14.07-.13.48-.31.59-.36.09-.03.15.1.12.12zm.1.62c.02.07-.06.17-.17.13-.1-.03-.21-.1-.2-.17 0-.05.07-.14.13-.15.06-.01.22.13.24.2zm-.82-.57c-.1.15-.26-.02-.16-.1s.4-.37.53-.4c.04 0 .14.05.11.08-.06.1-.34.2-.48.42zm-.77.48c-.01-.12.1-.53.17-.57.05-.03.2-.03.22-.02.04.1-.07.2-.1.27-.04.1-.26.52-.29.32zm.5 1.17c-.1-.11.34-.2.05-.27-.24-.06-.47-.5-.35-.58.1-.07.26.55.46.32.1-.12-.25-.34-.28-.53-.02-.14.02-.3.2-.26.18.06.37.44.34.66-.07.37.18.09.12.14-.04.04-.1-.5.02-.43.06.04.16.39.16.46 0 .1.23-.19.33-.23.22-.1.5-.14.63-.3.13-.16.15-.4.04-.52-.1-.1-.39-.25-.5-.4-.12-.14.04-.22-.1-.3-.12-.08-.16-.27.02-.24.18.03.56.54.66.71.1.17.47.68.42.82-.05.15-.68.2-.84.27-.16.07-.05.2-.24.27-.15.06-.26.13-.34.18-.05.03 0 .16-.26.18l-.1.02c.1 0-.3.17-.43.03zm1.23-1.58c.05-.03.22.12.25.18.04.1.1.24 0 .28-.06.03-.3-.21-.33-.3-.02-.06.04-.15.08-.16zm-.7 2.03c-.17-.1.8-.9.9-.94.17-.06.4-.05.5-.05.07 0 .24.01.24.06.01.09-.12.17-.32.14-.2-.02-.37.13-.47.19-.2.12-.73.68-.85.6zm1.6.13c-.24.63-.13-.08-.19-.07-.17.05-.22.39-.32.5-.11.1-.47.14-.63.1-.14-.02-.04-.47 0-.56.19-.4.26-.5.4-.5.27 0 .49-.02.63-.07.09-.03.11-.19.25-.3.2-.17-.12-.28-.04-.32.18-.1.2-.25.26-.46a.55.55 0 0 0-.24-.58c-.17-.11-.6-.5-.62-.69-.02-.19-.56-.69-.29-.54.23.13.64.38 1.06.06.25-.19.34-.3.38-.48.04-.18-.12-.22-.17-.16-.12.18-.24.43-.8.36-.29-.04-.28-.06-.09-.13.17-.05.26-.12.15-.18-.12-.09-.98-.1-1.33.04-.15.07-.52.39-.73.44-.15.04-.4.08-.16-.13l.52-.41c.13-.09.01-.57.1-.73.06-.11.18-.4 1.02-.4.16 0-.15-.4-.37-.39-.11 0-.2-.38-.63-.37-.17 0-.43.18-.53.34-.14.21-.17.68.02.67.22-.01.3.17.3.4 0 .3-.14.52-.43.59a.67.67 0 0 0-.47.54c-.02.22-.1.36-.22.45-.32.22-.72.09-.78-.28-.04-.25.33-.85.65-1.04.2-.1.27.08.28-.2.01-.19.14-.5.3-.55.07-.02-.02-.65.05-.8.16-.3.7-.64.9-.68.2-.05.6-.09.77-.28.17-.17.21-.51.36-.51.3 0 .4.4.67.52s.76.28.87.5c.25.48-.29.5-.34.55-.44.47-1.12.2-1.15.3-.05.15-.01.14.02.15.25.03.72-.08.98.05.27.13.5.28.56.75.01.16.45-.13.1.46-.08.14-.11.38-.12.46-.02.36-.1.68.13 1.06.22.39.08.48-.1.7-.3.4.1 1.12-.13 1.16-.67.1-.75.43-.84.66zM2.3 7.46c.05-.14.44-.14.52-.06.09.08.12.23 0 .25-.33.07-.28-.09-.35-.1-.1 0-.19-.04-.17-.1zm2.15 9.74c.11-.1.36.16.36.3 0 .15.08.46.3.42.18-.04.53-.37.19-.66-.29-.24.08-.25-.52-.76-.2-.17-.33-.83-.06-.9.28-.06.53.42.61.52.1.1.1.26.44.2.1-.02.14-.32-.08-.53-.22-.2-.53-.6-.62-.9-.08-.31.1-.43.25-.36.13.07.44.5.68.5.26-.01.19-.15.24-.32.05-.16-.46-.44-.66-.62a.7.7 0 0 1-.25-.6c.02-.3.22-.64.35-.73.13-.08.36.1.4.2.03.1.24.23.24.23s.03.16-.1.13c-.24-.04-.3.04-.3.12 0 .1.15.32.26.41.11.08.4.27.55.42.12.12.07.64.01.67-.2.07-.05.2-.27.29-.07.02-.38.12-.7.06-.1-.02.26.3.4.34.26.07.4.48.35.7-.05.24-.1 0-.2.27-.06.2-.68.15-.9-.05-.06-.06-.23.03-.01.26.21.24.6.39.62.63.01.24-.17.47-.31.56-.15.09-.4.06-.44.24-.05.18.22.28.22.4 0 .1-.37.47-.5.48-.13 0-.11-.13.06-.3.22-.22 0-.32-.14-.52-.13-.19-.47-.25-.57-.46-.1-.22-.01-.54.1-.64zm.26 2.9c.15-.1.14-.2.11-.36-.04-.2-.44-.48-.48-.74-.02-.18-.12-.45-.03-.43.26.06.31.45.57.64.27.19.52.6.37.82-.28.42-.8.26-.54.08zm1.54 1.27c-.05.06.08.43-.03.62-.06.12-.24.34-.51.25-.17-.05.27-.21.29-.37a.46.46 0 0 0-.27-.5c-.34-.12-.48-.46-.48-.56 0-.14.15-.2.3 0s.38.3.55.31c.28.02.41-.11.44-.19.1-.3-.26-.42-.42-.54-.16-.11-.26-.36-.3-.5-.03-.15-.1-.39-.02-.47.2-.2.4.09.4.2 0 .07-.07.24.03.3.33.18.5.43.65.66.22.35 0 .63-.15.72-.14.1-.43 0-.48.07zm.5 2.54c-.35.05-.44-.16-.31-.29.13-.13.25-.12.26-.26 0-.23-.15-.24-.18-.5 0-.17.25-.14.25-.14.23.07.23.48.24.8 0 .23-.19.37-.27.39zm.34-3.87c.07-.13.23-.57-.02-.74-.13-.08-.35-.25-.59-.27-.18 0-.33-.25-.4-.4-.14-.3.1-.65.27-.62.32.04.22.5.52.54.3.04.36-.46.27-.62-.15-.29-.76-.44-.68-1 .04-.26.16-.24.28-.23.25 0 .37.26.57.27.22.02.3-.25.26-.48-.03-.19-.81-.65-.9-.8-.09-.14.22-.51.4-.59.17-.08.27.3.51.4.24.09.27.02.34-.1.19-.35-.61-.5-.85-1.09-.1-.24.29-.5.52-.62.16-.07.4.33.59.3.1-.03.2-.26.12-.35-.25-.28-.6-.27-.67-.4-.18-.28-.37-1.1-.01-1.1.12 0 .42.54.83.5.18-.01.24.06.24.23s.18.35.3.53c.11.18.03.64-.26.82-.28.18-.65-.02-.8-.1-.05-.03-.11.2.25.34.39.15.7.85.33 1.12-.4.28-.8.14-.87.22-.1.11.07.11.2.18.07.04.08.15.16.24.13.16.43.13.25.58-.2.5-.9.5-.8.6.3.35.42.4.41.61 0 .2-.2.63-.57.69-.23.04-.41.04-.09.25.18.12.66.2.45.72-.23.55-.62.51-.56.37zm.24 6.98c-.02-.16-.07-.28-.13-.8-.08-.6-.12-2.13.1-2.2.17-.07.53.98.54 1.23.01.46-.1.62-.08.71.01.1.09 1.5.01 1.72-.07.23-.07.4-.2.4-.14 0-.21-.74-.24-1.06zm.01 7.54c.47.09.65-.08.82-.2.2-.14.3-.33.39-.7.09-.4.09-.8.1-.93 0-.12-.13-.05-.16.37a.94.94 0 0 1-.23.63c-.09.1-.16.25-.26.1-.16-.24.1-.58.2-.94.06-.24-.12-.8-.26-.34-.1.37 0 1.16-.33 1.31-.13.07-.37-.03-.23-.36.14-.32.18-.57.21-.68.06-.23.15-.56.17-.7 0-.04.01-.24-.12-.24-.1 0-.11.28-.13.44-.04.4-.09.91-.22.78-.06-.06-.03-.55.07-1.1l.17-.73c.06-.25 0-.56.08-.78.05-.16.22-.41.26-.68.04-.28.17-.49.24-.74.2-.74.26-1.31.1-2.2-.1-.6-.32-2.54-.17-2.8.07-.11.47-.14.63-.27.13-.1.2-.4.25-.47.16-.19.44-.26.77-.61.1-.1.02-.69.3-.73.27-.04.4.48.26.69-.08.12.46.5.5.8.05.29-.12.14-.08.74.03.49.1 1.8.29 2.8.06.33.16.64.25 1.05.1.45-.2.58-.1 1.16.04.25 0 .4-.14.59-.26.34-.48.48-.52 1-.06.73-.47 1.42-.4.83.01-.17.03-.73-.07-.6s-.1.82-.33 1.2-.12.54-.13 1c0 .26-.49.45-.4.8.07.23-.46.86-.82 1.21-.15.15 0 .2.24.08.16-.07.44-.33.47-.3.06.1-.2.58-.58.65-.13.03-.42.02-.53.09-.16.1-.25.15-.42.28a.67.67 0 0 1-.45.16c-.1 0-.23.29-.32.12-.02-.06.1-.46.1-.5-.04-.2-.17-.24-.2-.16-.03.07.02.39-.19.39-.19 0-.26-.4-.08-.56.17-.16.23-.15.42-.13.14.02.26-.1.07-.24-.22-.15-.22-.5-.1-.6.18-.2.17-.07.61.02zm-1.2 2.53c.02.16-.48.16-.5.06-.02-.22.27-.56.36-.59.07-.03.28-.07.28 0 0 .06-.17.34-.14.53zm-.34-2.6c.15-.27.32-.36.43-.36.24 0 .27.08.42.26.03.03-.07.06-.22.18-.2.16.1.54-.02.65-.1.1-.53.53-.56.26-.02-.15-.11-.41-.18-.65-.04-.12.01-.12.13-.33zm.13 1.68c-.09.29-.35.42-.54.38-.16-.03.11-.27.18-.43.1-.23-.28-.56-.3-.22-.04.37-.23.1-.15-.18.05-.16.23-.24.43-.14.2.1.48.24.38.6zm-.65.95c.04.16.01.2-.2.2-.2 0-.34-.18-.16-.4.09-.11.18-.3.52-.3.1 0 .2.2.09.22-.2.03-.29.16-.25.28zm-.54-1.21c.15-.04.23.17.25.28.03.2-.15.12-.12.2.03.07.05.28-.04.32-.12.05-.4.08-.48-.04-.12-.16-.03-.18.16-.22.11-.03.13-.28.13-.28s-.03-.23.1-.26zm-.46-.57c.17-.18.36.04.52-.07.13-.08.24-.3.35-.87.1-.57.33-.54.37-.42.03.1-.1.33-.1.53.01.15-.01.25-.04.34-.03.1-.16.27-.25.39-.08.09-.11.43-.34.52-.23.08-.7-.24-.51-.42zm-.03.44c.07-.06.3-.01.3.05 0 .07-.14.1-.08.22.05.07-.02.22-.12.12-.06-.07-.17-.35-.1-.4zm-.01 1.44c.08-.35-.03-.34.31-.38.15-.01-.04.13-.05.28 0 .14.13.26 0 .26-.27 0-.3.01-.26-.16zm.42 5.43c-.22-.01-.32.08-.38-.07-.03-.1.18-.5.3-.6.14-.13.57-.1.57-.1l-.03.18-.16.03c-.06.01-.13.12-.13.2 0 .21.05.38-.17.36zm.06-.87c-.2.1-.33-1.79-.2-1.8.12 0 .58.53.58.64 0 .1-.18 1.06-.38 1.16zm-.74-3.43c.06-.2.69 3.38.53 3.53-.17.17-.37.5-.37.5s-.26-3.72-.16-4.03zM2.22 41.9c.07-.2.06-.55-.04-.87-.04-.12.35.1.35.44 0 .38-.35.59-.3.43zm.45 1.5c-.03 0 .04-1.62.05-2.09.01-.41-.07-2.27 0-2.34.11-.12.27 1.47.27 1.84 0 .38 0 2.6-.32 2.6zm.43 1.05c-.12.19-.11.1-.08-.01.02-.12.3-.89.28-1.63-.01-.65-.03-2.51-.06-2.74-.04-.23-.1-1-.29-1.42-.05-.12-.25-.37-.24-.46.01-.23.14-.2.29-.04.28.31.42 1.47.45 1.92.03.38.11 2 .06 2.74a4.93 4.93 0 0 1-.41 1.64zm.36.88c-.03-.05.1-.36.12-.46.06-.35.07-1.07.1-1.46a36.5 36.5 0 0 0-.1-4.35 5.31 5.31 0 0 1-.05-.9c.03-.2.27.6.34 1.13.04.33.06 1.67.06 1.95 0 .55.16 3-.17 3.73-.07.16-.26.46-.3.36zm.92-1.92c-.1.16-.1.93-.14 1.38-.04.46-.49.55-.4.44.19-.19.21-.43.23-.82.02-.38-.11-1.34.05-1.57.07-.1.3.02.4.01.25-.02.38-.07.38.19 0 .13-.42.18-.52.37zm.88 2l-.25.25c-.05.03.27.22.2.24-.07.02-.2.04-.25 0-.05-.04-.26-.25-.25-.34.01-.08.31-.2.4-.23.06-.02.17.06.15.08zm-.1-.22c-.23-.04-.52-.36-.56-.55-.05-.2-.11-.35-.04-.52l.02-.06s.07-.08-.03-.15c-.04-.03-.1-.31.03-.39.11-.08.31-.22.44-.26.13-.03.29-.05.37-.13a.2.2 0 0 0 .05-.22c-.03-.1-.13-.13-.22-.3-.07-.12-.07-.69.07-.89.07-.1.23-.27.27-.34l.05-.08c.04-.08.07-.24-.1-.22-.18.02-.25 0-.24-.3 0-.1 0-.33.1-.38.12-.06.01-.31.08-.45.07-.16.12-.42.03-.5-.1-.08-.09-.51-.08-.62 0-.15-.19-.31-.28-.27-.08.03 0 .18 0 .18s-.05-.06-.14-.1c.13.06.35.27.35.55 0 .44-.1.24-.2.47-.09.2.01.33-.09.4-.14.11-.37-.23-.4-.36-.02-.08-.02-.33.08-.39s.07-.14.05-.29c-.03-.22 0-.38.14-.39H4.9s-.07-.37.03-.43c.1-.07.14-.14.14-.24 0-.1.03-.2.08-.23.03-.03.24-.09.26-.14a.33.33 0 0 1 .28-.16c.15 0 .2.03.34.03.1 0 .27-.02.36.08.05.05.1.17 0 .26-.12.09-.07.37-.03.37.09 0 .03-.2.2-.3.05-.03.13-.13.16-.13.12 0 .1.36.06.46-.03.1.08-.15.2-.16.12 0 .12.29.06.33a.63.63 0 0 0-.14.24c-.02.16.02.23.14 0 .04-.08.16.01.17.04.03.08.03.19-.07.26-.04.02-.08.05-.14.15-.06.1.02.25.1.2.05-.01.08-.19.14-.22.07-.05.12.05.15.1.03.09.01.13-.05.16-.1.06-.23.24-.13.23.05 0 .3-.08.31-.06.05.07.07.17-.1.28-.08.06-.13.08-.2.17-.06.05-.03.1.03.11.26.04.32-.14.44-.08.08.04 0 .27-.04.3-.1.1-.36.23-.26.24.1.02.35-.09.42-.13.1-.06.05.17-.01.23-.1.1-.33.06-.38.13-.03.05.13.2.37.1.05-.02.19 0 .23.02.11.03.22.12.34.12a1 1 0 0 0 .34-.1.96.96 0 0 1 .45-.08c.12.01.5.03.72.24.12.1.4.14.52.12.1-.02.43-.06.55-.3.1-.22.1-.53-.01-.74-.13-.24-.24-.61.02-.82.23-.18.18-.32.2-.5.03-.18.41-.45.51-.51.1-.07.19-.17.2-.28 0-.12.16-.2.29-.16.11.03.15.13.05.25-.1.11-.22.27-.28.3-.06.02-.27.11-.25.22.01.07.16.11.26.26.1.17.04.29-.03.31l-.26.1c-.06.03-.09.1-.07.12.1.1.17.08.19.13.03.09-.05.14-.15.14-.04 0-.12.1-.01.15.18.1.1.29.01.32a.19.19 0 0 0-.13.14c-.01.04 0 .12.08.13.08.01.07.17.03.2-.06.07-.1.1-.1.2.03.15.1.21-.04.34a.62.62 0 0 1-.4.22c-.16.03-.2.1-.4.1-.22-.01-.52.12-.7.09-.17-.04-.1.06 0 .14.34.33.07.69.22.88.32.42.58.85.77.9.2.04.54.16.6.2.1.1 0 .25-.04.3-.04.06-.1.2.01.24.16.04.24-.07.33.06.06.09.18.36.28.48.1.12.02.53-.04.55-.1.03-.34.16-.47.09-.18-.1.12-.27.1-.4a1.33 1.33 0 0 0-.28-.5c-.12-.13-.37-.55-.55-.6-.28-.07-.81-.53-1.03-.52-.45.03-1.2-.25-1.67-.7-.16-.16-.12.01-.12.24 0 .14-.16.32-.37.29-.3-.05-.42-.31-.53-.42a.64.64 0 0 0-.36-.19c-.2-.05-.36-.56-.4-.58-.09-.03.12.68 0 .79-.1.09-.42.56-.7.63-.18.04-.46.12-.64.13-.16.01-.31.3-.13.38.12.06-.03.66.04.72.06.05.27.06.35.07.07.02.1.15.14.26.03.09.13.15.09.19-.03.02-.08.05-.37 0zm.7.38c-.09.03-.14.18-.02.27.12.1-.02.14-.2.12-.18-.02-.24-.21-.19-.3.06-.1.18-.24.33-.25.1-.01.18.13.09.16zm.6.02c-.06.03-.2.12-.17.18.04.07.17.14.09.16-.09.02-.12.05-.2 0-.09-.05-.17-.26-.14-.33.03-.06.2-.16.28-.15.09 0 .2.1.14.14zm.47 1.59c-.1 0-.21.06-.16-.13.02-.07.02-.18.11-.18s.2-.04.2.05-.04.26-.15.26zm.1-1.32c-.02.02-.08.08-.15.07-.07-.01-.26-.2-.33-.3-.07-.1.29-.18.38-.18.12 0 .3.06.25.1-.04.05-.23.12-.27.14-.04.02.12.15.11.17zm.24 1.31c-.1 0-.22.06-.16-.13.02-.06.02-.18.11-.18.1 0 .22-.04.22.05 0 .1-.06.27-.17.26zm.58.35l-.07.42c-.02.08-.2.04-.26-.1-.05-.16-.12-.49.11-.48.07 0 .26 0 .22.16zm-.13-.37c-.1 0-.25.06-.18-.12.03-.07.03-.19.13-.19s.24-.04.24.05c0 .1-.05.27-.19.26zm-.04-1c-.14 0-.52-.35-.45-.43.06-.1.54-.27.65-.27.15 0 .34.01.24.08l-.38.23c-.08.07.2.24.2.3-.03.05-.12.1-.26.09zm.52 1c-.1-.01-.24.05-.18-.14.03-.07.03-.18.13-.18s.24-.04.24.05-.05.26-.19.26zm.58.8c.01.07-.08.1-.2 0-.14-.14-.22-.61-.06-.64.11-.02.26-.03.3.1.04.16-.07.4-.04.54zm-.1-.8c-.1-.01-.25.05-.18-.14.02-.07.02-.18.13-.18.1 0 .24-.04.24.05s-.06.26-.19.26zm-.14-1.37c.02.09.2.3.17.35-.02.04-.24.09-.33.04-.1-.05-.3-.3-.25-.36.04-.06.4-.35.54-.37.13-.02.23.06.2.09s-.34.17-.33.25zm.34.08a.9.9 0 0 1 .44-.36c.03-.01.24 0 .2.03-.05.03-.27.19-.27.24 0 .06.19.4.14.42-.05.02-.26.08-.31 0-.06-.08-.24-.24-.2-.33zm.2 1.14c.02-.07.02-.18.14-.18.11 0 .27-.04.27.05s-.07.26-.21.26c-.12 0-.28.06-.2-.13zm.67 1.02c-.3.17-.39-.15-.4-.38-.02-.23-.07-.33.03-.34a.3.3 0 0 1 .28.1c.05.08.3.5.09.62zm.1-.89c-.11 0-.29.06-.2-.12.02-.07.02-.18.15-.18.12 0 .29-.04.29.04 0 .1-.07.27-.23.26zm.32-1.55c-.09.08-.3.14-.24.23.1.17.31.4.2.44a.94.94 0 0 1-.4.02c-.12-.02-.24-.29-.24-.37 0-.08.17-.38.44-.45.13-.04.33.04.24.13zm.51-.05c.09-.01.27.08.21.11-.05.03-.3.09-.3.2.01.13.09.36.16.42s-.15.1-.27.04c-.12-.05-.27-.33-.27-.4 0-.08.26-.32.47-.37zm-.44 1.48c.03-.07.03-.18.16-.18.14 0 .32-.04.32.05s-.08.26-.25.26c-.13 0-.32.06-.23-.13zm.2 1c-.15-.05-.28-.7-.12-.7.09-.02.28-.05.36.02.1.1.11.62.15.69.04.05-.24.06-.39 0zm.42-1.02c.03-.07.03-.18.16-.18.14 0 .32-.04.32.05s-.07.26-.25.26c-.13 0-.32.06-.23-.13zm.5 1.03c-.17-.03-.23-.51-.19-.62.05-.12.2-.1.33-.1.11 0 .2.46.34.6.12.13-.3.15-.48.12zm.32-.92c-.14 0-.33.06-.24-.12.03-.07.03-.18.17-.18.13 0 .31-.04.31.04 0 .1-.07.27-.24.26zm.37-.11c.03-.07.03-.18.17-.18.13 0 .32-.04.32.05s-.08.26-.25.26c-.14 0-.33.06-.24-.13zm.6 1.05c-.18 0-.55.08-.56-.25-.02-.34-.1-.45.05-.48.09-.02.32-.04.4.04.07.08.33.67.12.69zm0-1.07c.03-.07.03-.18.16-.18s.32-.04.32.05-.08.26-.25.26c-.14 0-.32.06-.24-.13zm.99 1.12c-.17.05-.5.02-.54-.08-.03-.1-.23-.65-.1-.67a.98.98 0 0 1 .53.06c.18.07.2.66.1.69zm-.1-.99c-.2 0-.46.06-.34-.13.05-.07.05-.18.24-.18.18 0 .44-.04.44.05s-.1.27-.35.26zm.46-.12c.05-.08.05-.2.24-.2.18 0 .44-.04.44.06s-.1.28-.35.28c-.19 0-.45.06-.33-.14zm.58 1.15c-.1.04-.48.03-.53-.03-.04-.05.01-.69.2-.66.17.02.43 0 .5.03.09.03-.06.62-.17.66zm.89-.07c-.2.05-.46.05-.52 0-.05-.06-.12-.55.02-.59.1-.03.37-.02.53.01.08.02.14.53-.03.58zm.75 0c-.14.03-.36.05-.38-.02-.04-.14-.01-.4.01-.55.02-.09.55-.07.55 0s.03.5-.18.56zm.85-.03c-.02.08-.24.06-.38.02-.22-.06-.18-.5-.19-.56 0-.07.54-.09.55 0 .03.15.06.4.02.54zm.25-1.26h.55c0 .05-.13.34-.17.38-.04.03-.47 0-.51 0-.05 0 .13-.38.13-.38zm.64 1.28c-.07.06-.33.06-.52 0-.17-.04-.23-.58-.15-.6.16-.03.54 0 .65.02.14.04.07.53.02.58zm-.03-1.2c.04-.07.26-.04.44-.03.17 0 .14.1.14.16 0 .18-.19.13-.36.15-.26.03-.25-.2-.22-.27zm.93 1.25c-.06.06-.43.07-.53.03-.11-.04-.26-.63-.18-.66a2 2 0 0 1 .5-.03c.2 0 .25.6.2.66zm-.2-1.22c0-.1.26-.05.43-.05.18 0 .15.1.15.17.01.18-.15.15-.34.15-.22 0-.25-.1-.24-.27zm1.04 1.15c-.03.1-.29.15-.46.1-.1-.04-.34-.68-.15-.73.23-.05.39-.03.52 0 .12.01.12.53.09.63zm.26.1c-.05-.03-.16-.67-.08-.75.08-.08.34-.03.43-.01.15.03.01.25.16.55.14.29-.33.28-.5.2zm.27-.97c-.17 0-.11-.2-.13-.28 0-.07.19-.03.31-.03.13 0 .1.09.1.14.02.15-.16.17-.28.17zm.95.94c-.18.04-.5.07-.49-.07.02-.2-.25-.6-.14-.6.13 0 .68-.07.72.04.04.11.04.6-.1.63zm.04-1.2c.03-.08.2-.06.33-.06.12 0 .08.1.08.16 0 .17-.12.16-.25.16-.16 0-.19-.2-.16-.27zm.84 1.16c-.16.06-.39.08-.39.04 0-.08-.2-.57-.1-.66.08-.08.5-.03.58-.02.16.02.06.58-.1.64zm.27-1.12c.02-.13.18-.08.3-.08.13 0 .1.14.12.2.03.16-.13.11-.26.11-.16 0-.17-.15-.16-.23zm.3 1.16c-.14.01-.1-.14-.1-.34.02-.16-.05-.33-.02-.36.05-.08.29-.05.4-.03.1 0 .15.38.16.6 0 .15-.1.1-.44.13zm.44-.9c-.15 0-.17-.18-.15-.27.03-.08.17-.04.28-.04.12 0 .09.11.1.18.02.19-.12.12-.23.13zm.27-.94c-.05.08-.16.28-.29.3-.13.03-.34.02-.32-.08.03-.12.09-.21.02-.3-.08-.11-.42-.3-.24-.36.12-.03.2-.04.4.03.2.06.47.33.43.4zm.25-1.47c.02.05-.13.09-.18.04-.06-.07-.06-.26.07-.34.11-.06.1-.15.15-.16.08-.03.1.24 0 .26-.1.01-.08.12-.04.2zm.13 1.11c.13.1.23.44.2.57-.02.1-.16.1-.27.1-.1-.02.06-.13 0-.31-.08-.27-.27-.3-.35-.37-.05-.05.04-.1.07-.1.12-.01.22.02.35.11zm-.1 1.3c-.14 0-.16-.18-.14-.26.02-.1.16-.05.26-.05.11 0 .09.11.1.18.02.19-.12.12-.22.13zm.57.78c-.06.04-.29.1-.35.06-.13-.06.09-.37.05-.54-.02-.13.27-.06.37-.02.23.09.1.38-.07.5zm-.14-1.03c.02-.1.14-.05.24-.05.1 0 .07.11.08.18.02.19-.1.13-.2.13-.12 0-.14-.18-.12-.26zm.3-.64c-.08-.09-.32-.42-.19-.47a.5.5 0 0 1 .33.04c.08.05.18.28.16.42-.02.14 0 .25-.18.25-.19 0-.05-.16-.12-.24zm.6-1.8v-.26h-.23l.21-.77s.75.24 1.51-.1c.13-.06.17.05.13.1-.08.1-.31.1-.53.32v-.11h-.24v.16h.2c-.11.12-.2.3-.28.55-.07.28-.24.56-.4.78v-.03h-.24v.22h.1l-.17.2s-.13-.04-.24-.2h.1v-.22h-.19a1.18 1.18 0 0 1-.03-.13v-.05h.18v-.27h-.19c.01-.12.03-.25.07-.4v.22h.24zm-.33 2.7c-.12 0-.14-.17-.12-.26.01-.09.14-.05.23-.05.1 0 .08.11.09.18.02.19-.1.13-.2.13zm.23-1.37c.07-.05.36-.01.37.03.03.12.16.45.1.49-.1.07-.21.11-.27.07-.1-.09-.26-.56-.2-.6zm.22 1.38c-.13 0-.15-.17-.13-.26.01-.09.14-.05.23-.05.1 0 .08.12.09.19.03.18-.1.12-.2.12zm.26.54c-.21.29-.43.27-.45.2-.02-.05.2-.21.22-.37.01-.16-.01-.3.06-.31.23-.01.32.28.17.48zm.18-.52c-.13 0-.15-.18-.13-.26.01-.1.14-.05.23-.05.1 0 .08.11.09.18.03.19-.1.13-.2.13zm.12-.85c-.07-.08-.25-.56-.17-.61.07-.04.16-.03.2.04.04.07.18.32.13.4-.05.07-.13.21-.16.17zm.28.86c-.12 0-.13-.18-.11-.27.02-.08.14-.04.24-.04.1 0 .07.11.08.18.02.19-.1.12-.2.13zm.25-.94c-.09-.09-.16-.38-.18-.46-.03-.08.06-.1.12-.1.13 0 .29.35.29.42 0 .06-.2.16-.23.14zm-.02-1.07c-.05.11-.24.09-.56.1-.1 0-.04-.4.04-.47.34-.25.13-.36.32-.51.09-.07.36-.53.72-.82.1-.08.02-.11.02-.11s-.04-.46.03-.48c.1-.03.22-.35.2-.38-.01-.03-.1.14-.36.38-.31.3-1.22.4-1.55.1-.12-.12.04-.05.26-.44.14-.26.17-.56.16-.76-.02-.26-.13-.54-.2-.55-.02 0 .1.5-.15.95-.14.27-.24.44-.45.62-.07.07-.01.26.1.24.14-.04.02.63-.06.7a.78.78 0 0 0-.2.44c-.03.17-.09.3-.07.48.02.18.12.34.04.36-.1.02-.12.25-.1.3.03.1-.6.15-.7.04-.08-.1.12-.15.18-.2.05-.06.04-.52-.03-.55-.06-.03-.13-.18-.05-.22.15-.06.16.15.2.19.03.03.12-.01.16-.06.06-.09.05-.24 0-.43-.07-.32-.43-.53-.39-.63.03-.06.1-.27.05-.3 0 0-.13.27-.23.3-.07.02.1.3.02.36s-.17.2-.13.3c.03.1-.14.48-.25.58-.1.1-.34.74-.56.72-.22-.02-.6.07-.57-.05.02-.12.4-.37.46-.5.05-.12.36-.78.36-.88 0-.1-.05-.27.05-.46.1-.2.35-.03.54-.27 0 0 .4-.45.53-.79.06-.16.15-.67.21-.83.11-.3-.15.16-.24.33-.06.14-.11.35-.18.52-.07.2-.22.45-.34.55-.16.16-.4.17-.4 0 0-.03.07-.11.12-.2.03-.04.24-.46.45-.82.14-.25.5-.8.54-.9.02-.06-.42.51-.6.79l-.47.74c-.04.07-.15.09-.24.05-.12-.05-.22-.2-.17-.3.01-.03.2-.2.28-.28.1-.1.36-.32.54-.55.08-.1.5-.78.48-.81 0-.01-.5.67-.63.8-.17.18-.44.41-.54.45-.13.06-.24.03-.27-.04-.06-.09.13-.1.22-.16.11-.08.4-.37.45-.42l.34-.34c.2-.22.38-.6.31-.52-.02.02-.16.24-.26.35l-.53.52c-.05.04-.27.23-.35.27-.08.04-.16.07-.21.03-.1-.05-.03-.1.02-.16.04-.05.44-.26.47-.33.04-.07-.3.1-.43.11-.13 0-.17-.11-.04-.18.1-.05.33-.17.39-.26.11-.18.09-.23-.1-.15-.1.04-.1.07-.23.08-.1 0-.21-.11-.1-.19.12-.09.31-.19.42-.17.1.02.39-.03.4-.1 0-.07-.23-.2-.4-.2-.12.01-.11.05-.22.17-.19.22-.63.04-.64-.08-.01-.06.49.2.6-.07.07-.2-.05-.3-.15-.33-.06-.02-.24-.05-.3-.02-.17.09-.01-.1.17-.15.1-.02.26-.1.18-.17-.04-.03-.12-.02-.17-.09-.04-.05-.15-.64.16-.82.15-.09.17-.13.17-.21 0-.15-.15-.24-.2-.28-.06-.04-.07-.15-.02-.23.05-.05.16 0 .12-.08-.06-.1 0-.24.03-.28.06-.08.25-.2.36-.2.03-.01-.1.3-.12.39 0 .07-.03.24.06.35a.6.6 0 0 0 .29.17c.11.04.26.03.35-.01a.7.7 0 0 0 .17-.16c.14-.26-.04-.4.03-.56.01-.04.15 0 .22.09s.15.2.12.42c-.05.27.04.15.1.2.1.06.13.1.13.18.01.1-.07.07-.08.11-.02.1.05.23 0 .25-.16.07-.06.22.06.19.1-.03.07.07 0 .13-.09.07.03.4-.12.56-.07.09-.2.24-.33.3-.15.09-.4 0-.47.04-.1.05-.13.12 0 .11.12 0 .17.09.18.13.02.1.01.18-.04.23-.1.1-.1.16-.03.13.2-.1.17-.18.32-.3.04-.04.15-.07.25-.15.07-.06.13-.1.32-.17.15-.05.13-.35.4-.47.23-.1.44-.04.54 0 .13.07.4.25.25.54-.13.25-.23.35-.32.4-.12.08-.11.31 0 .44.07.06.12.2.22.28.14.1.17.08.4-.04.14-.07.22-.15.42-.14.28 0 .53.06.79.17.1.05.27.17.37.36.05.1.04.2.07.3.04.12.12.25.12.39 0 .29-.13.36-.1.48.03.2-.06.52-.14.53-.11.01-.25.08-.24.21 0 .12-.01.22-.08.3-.06.08-.22.19-.37.37-.1.12-.09.27-.14.35-.08.12-.18.3-.18.45 0 .16-.21.22-.25.31zm-3.68-5.11c.18.01.16.23.1.3-.07.06-.22.01-.28-.08-.05-.09.11-.23.18-.22zm4.29 4.82c.01.12.04.35-.01.4-.03.02-.08-.03-.12-.14-.03-.06-.09-.41-.01-.59.06-.13.1-.2.23-.21.1-.02.15.09.11.2-.04.12-.21.22-.2.34zm.05 1.19c-.02.02-.1.09-.12-.06-.01-.12-.35-.37-.2-.4 0 0 .17-.02.23.04.05.06.25.26.25.3 0 .04-.1.06-.16.12zm.58-.15c-.03.02-.13.04-.17 0a.24.24 0 0 1-.07-.12c-.01-.04-.23-.21-.22-.24l.1-.07c.06 0 .3.2.32.28.03.07.07.12.04.15zm.4-.16c-.1.06-.16.1-.2.06-.05-.07-.03-.13-.07-.21-.05-.08-.16-.2-.08-.21.11-.02.2.05.29.18.05.08.14.12.05.18zm.35-.76c-.1.26-.25-3.9-.25-4.24 0-.26-.13-2.6.07-2.74.08-.05.28.65.33 1.87.03 1.03.08 4.5-.15 5.1zM28.3 36c.12 0 .23.1.23.25 0 .16.01.33-.05.34-.07.02-.14-.14-.18-.25-.05-.1-.19-.32 0-.34zm.53 7.22c-.02.62-.15 1.6-.2 1.84-.03.12-.19-3.63-.19-3.9 0-.16 0-2.98.08-2.94.25.14.25 1.47.25 2.04 0 .32.08 2.27.06 2.96zm-.14-5.73c-.07.15-.3.13-.3-.06.01-.21-.15-.42-.07-.42.1 0 .2.03.27.1.13.1.14.3.1.38zm-1.48-3.3c.11.01.24.1.3.16.08.1.01.66.04.76.04.1.21.23 1.01.62.04.02.14.24.13.41-.01.1-.03.37-.14.37-.08 0-.1-.07-.05-.3a.38.38 0 0 0-.12-.38.31.31 0 0 0-.27 0c-.1.07-.09.23-.06.45.02.15.2.19.11.4-.01.03-.26.1-.33-.05-.03-.08.06-.2.07-.25.04-.27 0-.52-.02-.53-.09-.04-.53-.43-.52-.54 0-.1-.04-.38-.2-.45-.02-.01-.05-.44-.36-.6-.02-.1.3-.1.41-.08zm-1.19.22c.18-.08.43.04.55.08.28.1.4.18.42.33.02.1-.05.64.02.79.06.15.1.32.13.46.02.13 0 .29-.01.4 0 .07-.14.06-.22.04-.06-.01.09-.39 0-.74-.03-.08-.17-.23-.32-.31-.27-.15-.5-.62-.53-.74-.04-.12-.16-.26-.04-.31zm-.37.43c.06.27.04.51.18.64.13.12.45.33.63.4.14.07.12.28.08.4-.08.23-.3.42-.27-.11.01-.18-.36-.25-.45-.17-.14.12-.09.34-.2.36-.17.04-.16-.4-.04-.46.07-.04-.11-.83-.39-1-.18-.1.09.48.01.7-.08.25 0 .67-.33.63-.58-.07-.93-1.11-1.14-1.2-.11-.07 0-.5-.58-1.1-.12-.12.06-.93-.15-1-.22-.05.03-.8-.2-.88-.24-.09-.07-.58-.44-.8-.06-.05-.18-.25-.26-.54-.07-.21-.07-.5-.18-.67-.39-.57-.34-1.33-.24-1.48.09-.12.18-.3.1-.65-.1-.45 0-.93.14-1.1.13-.14-.11-1.6.17-2.13.06-.12-.03-.27 0-.29.14-.05.1-.26 0-.33-.19-.14-.11-.37-.15-.53-.03-.16-.16-.46 0-.55.25-.13.16.28.35.38.22.12.6.37.7.55.1.17.14.28.42.47.34.22.43.34.53.63.25.76.2 1.53.24 2.12.05.59.15.84-.04 1-.15.12.11.9 0 1.06a11.2 11.2 0 0 0-.05 2.83c.15.35.18 1.27.27 1.49.09.21.2.65.5.78.14.06.3.2.5.12.13-.05.26.24.3.43zm-1.57-10.58c.05-.04.2-.12.24 0 .04.1.04.25-.12.27-.15.02-.32-.13-.12-.27zm1.04 3.93c0 .4-.47 2.38-.45 2.75.03.36.53 1.35.5 1.68-.04.29.42.96.45 1.17.02.22-.2.03-.35-.23a2.41 2.41 0 0 0-.39-.55c-.12-.05.08.57.17.73.08.16.51.58.45.6-.07.02-.68-.44-.85-.79a6.24 6.24 0 0 1-.43-2.68c.08-1.46.36-2.81.33-3.14-.02-.35.15-1.78.02-1.97-.09-.1-.18-.58-.03-.7.12-.09.32.08.4.2.34.54.17 2.58.18 2.93zm.43-4.57c-.13.15-.32.36-.38.5-.05.13.06.18.13.26.11.14.13.27.05.32-.15.08-.55-.14-.59-.42-.03-.25.31-.41.2-.49-.13-.07-.52.08-.76-.02a.5.5 0 0 1-.33-.46.95.95 0 0 1 .42-.8c.12-.1.31.03.24.2-.08.18-.42.26-.48.53-.04.21.16.39.4.36.25-.02.3-.16.66-.18.36-.03.56.05.44.2zm.89-1.94c-.06.19-.18.37-.42.59-.12.1-.41.3.02.63.14.1-.05.35-.36.09-.12-.1-.21-.49-.1-.79.1-.22.24-.33.54-.52.25-.16.13-.44.32-.44.1 0 .06.2 0 .44zm.05-1.84c0 .24-.07.77-.07.77s-.43-.57-.3-1.01c.12-.45.22-.52.33-.68.13-.17.19-.4.27-.35.13.06.17.25.2.5.04.27-.43.53-.43.77zm.6.77c-.05.17.22.34.34.47.13.13-.07.13-.28.15-.07 0-.3-.17-.33-.45-.03-.28.1-.75.45-1 .27-.2.23-.34.18-.47-.09-.2.35.02.35.36.01.6-.65.76-.7.94zm.87-3.68c-.09.2-.5.62-.6.77-.1.15.1.41.2.34.1-.05.42-.69.7-.77.2-.05.26.16.22.42-.06.4-.5.39-.64.7-.09.2-.02.3-.02.42 0 .06-.17-.03-.24-.06-.1-.06-.01-.35-.08-.39-.6-.3-.7-.65-.67-.8.02-.15.43-.78.62-.94.18-.16.29-.46.45-.47.16 0 .15.58.06.78zm-.44-2.33a.6.6 0 0 0 .3.56c.19.11-.09.12-.16.08-.08-.04-.44-.41-.63-.55-.13-.09.32-.24.32-.34 0-.1.01-.26-.16-.16-.18.1-.51.03-.72-.16-.28-.27-.23-.82-.13-1.04.08-.2.15-.35.4-.48.08-.04.3-.06.3.13.02.36-.22.47-.34.7-.1.21 0 .71.29.72.28 0 .2-.2.36-.21.22-.01.2.44.17.75zm3.22-2.52c-.06.07-.49.46-.63.48-.12.01.2.24-.05.25-.14 0-.3-.13-.41-.33-.12-.19-.24-.49-.44-.48-.4.02-.46-.03-.64-.13-.08-.04-.2-.09-.26-.27-.03-.09.04-.16.24-.34.02-.02.18-.18.24-.31.03-.08.22-.51.35-.67.09-.12.24-.3.3-.34.06-.05.15 0 .04.1-.1.1-.45.82-.49.89-.09.17-.32.51-.31.6 0 .18.2.14.3.12.1-.03.12-.39.24-.37.2.04.17.2.14.31-.07.34.22-.09.32-.02.1.07-.21.61.2.26.13-.12.18-.5.37-.38.1.06.19.17.14.22-.12.15-.42.3-.5.39-.07.08-.03.25.05.28.17.06.33-.32.57-.43.13-.06.3.09.23.17zm-.95-1.25c.13.1.28.36.19.39-.07.02-.22-.2-.29-.25-.1-.09-.22-.07-.25-.1-.05-.04-.02-.14.04-.15.07-.02.21.04.3.1zm2.67-.94c-.03.15-.22.51-.4.43-.3-.13-.1-.51-.55-.67-.45-.15-.58-.04-.68-.09-.1-.04-.04-.2-.07-.33-.02-.13-.1-.2-.17-.22-.14-.04-.2-.23-.12-.26.14-.04.42.47.59.27.08-.1-.17-.15-.11-.43a.6.6 0 0 1 .28-.38l-.03-.04c-.06-.08-.02-.54-.07-.7a1.1 1.1 0 0 0-.17-.26c-.13-.13-.26-.15-.4-.06-.2.12-.62.82-.88 1.14-.24.3-.32.26.37.6.46.24.29.57.26.7-.03.13-.08.24.21.24.16 0 .43-.01.59.05.26.1.5.24.76.58.17.23.1.45-.04.38-.16-.08-.52-.48-.59-.54-.13-.1-.29-.24-.43-.17-.1.06.05.2.17.31.15.14.62.59.43.73-.16.11-.4-.27-.5-.42-.08-.12-.2-.33-.36-.39l.17.32c.08.15.17.4.2.57.03.21.07.42-.1.42-.31 0-.15-.2-.35-.32-.07-.04-.67-.9-.68-.95-.03-.1.07-.16.12-.11.02.01.46.7.6.85.29.29.1-.12.05-.29l-.2-.54c-.12-.08-.27-.29-.48-.53-.29-.35-.74-.06-.8-.2.04.04-.11.23-.2.35-.09.16-.3.58-.34.88-.05.57-.26.32-.48.44-.18.1-.29.46.06.8.3.27.8.18 1.06.2.26 0 .13.15.14.38.01.22.17.45.3.62.1.13-.1.25-.35.35-.32.12-.53-.08-.6-.2-.09-.1-.03-.38-.23-.57-.2-.2-.63-.32-.84-.53-.13-.14-.1-1.18-.05-1.33.05-.15-.17-.5-.04-.66.13-.16.55.18.76-.08.07-.09.29-.27.37-.35.3-.32.41-.35.44-.3-.05-.14-.35.02-.59.07-.19.03-.76.15-.8.02-.05-.13.11-.23.08-.54-.03-.33-.18-.36-.16-.58.01-.21.1-.38.53-.4.5-.04.77.1.96.16.17.05.36.07.36-.04 0-.11-.42-.49-.72-.57a.55.55 0 0 0-.46.08c-.12.06-.43.01-.45-.15-.02-.16-.12-.18-.14-.38-.02-.14-.1-.5.3-.5.27 0 .39-.54.67-.65.11-.05.35-.06.66.1 1.27.7 1.56.34 1.8.76.05.1.16.25.25.47.1.28.04.54.06.75.14.06.07.43.3.58.33.2.33.28.5.43.16.14.26.55.23.7zm-2.3-1.26c-.22.04-.39-.13-.39-.13s.47-.39.7-.71c.16-.26.45-.02.4.2-.05.24-.35.57-.71.64z"/><path d="M7.8 10.24h-.08c.1.02.2.03.34 0a.93.93 0 0 0-.27 0zM7.78 10.25l-.08-.02.08.02zM13.82 6.8c-.1-.02-.22-.23-.5-.5 0 0 .34.48.5.5zM12.59 50.16c-.13 0-.2.03-.2.08 0 .03.03.08.08.15l.09.12c.13.18.24.28.33.27h.08l.08-.02.11-.02.12-.02c.06 0 .1.02.16.04.1.06.18.13.24.2l.38.48c.08.1.15.14.2.14.04 0 .05-.02.05-.05 0-.06-.04-.14-.12-.24l-.46-.54c-.33-.39-.71-.59-1.14-.59zm14.1 0c-.14 0-.2.03-.2.08 0 .03.03.08.07.15l.1.12c.13.18.24.28.33.27h.08l.07-.02.12-.02.12-.02c.05 0 .1.02.16.04.1.06.18.13.24.2l.38.48c.08.1.14.14.2.14.03 0 .05-.02.05-.05 0-.06-.04-.14-.13-.24l-.45-.54c-.33-.39-.71-.59-1.14-.59zM3.63 51.72v.42h.9v.67a.6.6 0 0 1-.04.15c-.05.09-.1.13-.16.13l-.17-.07a.47.47 0 0 0-.2-.07c-.12 0-.19.1-.19.3 0 .25.16.56.46.93l.43.5c.12.15.28.32.5.5.07.07.15.1.23.1.06 0 .08-.02.08-.06-.01-.14-.12-.28-.3-.43l-.33-.24c-.18-.18-.27-.3-.27-.4l.01-.1.06-.1.18-.3a.98.98 0 0 0 .09-.22l.13.02c.04.02.09.04.12.08.1.1.18.16.22.18.07.03.2.05.36.05l.22.01c.1 0 .22-.01.37-.05l-.01.87c0 .18.04.32.14.42l.13.13c.08.08.14.13.17.13s.04-.02.04-.05a.3.3 0 0 0 .01-.08v-3H9.84c.05.08.08.18.08.32 0 .18-.06.3-.18.37a.92.92 0 0 1-.43.1l-1.24-.01a.83.83 0 0 0-.52.18.65.65 0 0 0-.27.53c0 .26.08.5.25.72l.35.46c.1.13.23.25.41.37.08.06.15.09.2.08.03 0 .05-.02.05-.06a.38.38 0 0 0-.03-.13 1.28 1.28 0 0 0-.28-.27L8 54.6a.73.73 0 0 1-.27-.59c0-.39.22-.6.67-.66h.83l.16.24c.32.48.68.72 1.08.72.22 0 .4-.05.54-.15a.13.13 0 0 1 .07-.02c.03 0 .05.02.04.08v.2l-.02.2.02.16.1.13.28.29c.06.05.1.08.12.08.02 0 .03-.02.03-.06v-3.08h1.01v1.2l-.08.02h-.18c-.16 0-.24.08-.24.24 0 .12.08.25.24.39l.25.27c.1.12.2.17.3.17a.3.3 0 0 0 .15-.04c.05-.03.08-.06.08-.1l.02-.1v-.07l-.02-.13c0-.06.03-.1.09-.13h1.1v.95a.8.8 0 0 0 .2.29c.12.13.2.2.25.18.05.01.07-.04.07-.15v-2.99h2.31v.93l-.43-.26a.71.71 0 0 0-.38-.1c-.16 0-.3.01-.4.04-.34.07-.5.28-.5.6 0 .23.1.47.32.73.2.23.43.35.71.35.17 0 .35-.05.53-.13l.06-.04.06-.02.05.02v.24c-.01.26.05.46.18.59.13.13.21.2.24.2.04 0 .06-.05.06-.14v-3.01h.4v-.42H3.64zm15.87 0v.42h2.93v.82l-1.6-.03-.1.02-.05.05v.03l.03.02c.34.34.53.59.54.73 0 .28-.14.42-.42.42a.56.56 0 0 1-.32-.1 1.53 1.53 0 0 1-.54-.69l-.13-.28c-.04-.1-.1-.15-.16-.15s-.09.04-.09.12l.01.05.16.36c.08.2.18.37.3.52.23.3.44.5.62.6.16.07.33.12.52.12.3-.04.45-.2.45-.5 0-.16-.03-.3-.09-.4l-.16-.3-.01-.06c0-.03.04-.04.11-.06a.8.8 0 0 1 .2-.03l.73.01v1.4c0 .08.04.14.11.19.24.19.36.28.38.28.03 0 .04-.05.04-.13v-3.01h1.23c.05.08.08.18.08.32 0 .18-.06.3-.18.37a.92.92 0 0 1-.43.1h-.2c-.05.01-.07.04-.07.1 0 .03.06.13.17.3l.18.26c.32.48.69.72 1.08.72.22 0 .4-.05.54-.15a.12.12 0 0 1 .07-.02c.03 0 .05.02.04.08v.2l-.02.2.02.16.1.13.29.29c.06.05.1.08.12.08.02 0 .03-.02.03-.06v-3.08H28.5v.78h-1.13a.88.88 0 0 0-.53.19.65.65 0 0 0-.28.54c0 .26.09.5.26.73l.35.46c.1.13.24.26.42.38.08.06.15.08.2.08.03 0 .05-.02.05-.06a.4.4 0 0 0-.03-.13 1.3 1.3 0 0 0-.28-.28l-.24-.2a.75.75 0 0 1-.27-.6c0-.4.22-.62.68-.67h.81v1.43c0 .07.02.13.07.18l.17.14c.15.12.23.19.25.19.02 0 .03-.07.03-.19v-2.97h.34v-.42H19.5zM5 52.14h1.34v1.04c-.18.1-.41.16-.71.15l-.39-.01c-.12 0-.2-.03-.24-.07v-1.11zm5.1 0h1.06v1c0 .21-.12.39-.33.53-.2.13-.4.19-.64.19a.8.8 0 0 1-.37-.1c-.15-.08-.22-.17-.22-.28 0-.05.03-.08.08-.09l.23-.05c.23-.1.34-.22.34-.36l-.04-.23-.06-.3a1.49 1.49 0 0 1-.04-.31zm3.07 0h1.22v1.24h-1.22v-1.24zm11.29 0h1.05v1c0 .21-.11.39-.33.53-.2.13-.4.19-.64.19a.79.79 0 0 1-.36-.1c-.15-.08-.23-.17-.23-.28 0-.05.03-.08.08-.09l.23-.05c.23-.1.35-.22.35-.36l-.05-.23-.06-.3a1.49 1.49 0 0 1-.04-.31zm-7.88.97h.09c.19 0 .37.03.55.08v.43c-.15.11-.27.19-.38.24a2.02 2.02 0 0 1-.6.13c-.24 0-.36-.09-.36-.28.04-.37.27-.58.7-.6z"/></g><path d="M49 2v53" stroke="#979797" stroke-width=".5" opacity=".7" stroke-linecap="square"/><g transform="translate(65)"><g transform="translate(14.24 .04)"><mask id="b" fill="#fff"><use xlink:href="#a"/></mask><path d="M3.39.55c1.86 0 3.37 1.5 3.37 3.35a3.36 3.36 0 0 1-3.37 3.35A3.36 3.36 0 0 1 0 3.9 3.36 3.36 0 0 1 3.4.55" fill="#E55A28" mask="url(#b)"/></g><path d="M27.52 2.73c-.88 0-1.6.7-1.6 1.58v12.11l-.06.04a29.2 29.2 0 0 0-2.88 1.83c-.65.46-1.25.97-1.81 1.53a13.64 13.64 0 0 0-1.96 2.56V12.32c0-.87-.71-1.58-1.6-1.58-.87 0-1.59.7-1.59 1.58V22.4c-.15-.25-.3-.5-.47-.74-.45-.65-.94-1.26-1.49-1.83a14.89 14.89 0 0 0-1.8-1.53 25.87 25.87 0 0 0-2.9-1.83l-.06-.04V4.32a1.59 1.59 0 1 0-3.19 0v13.05c0 .63.38 1.2.97 1.46a25.16 25.16 0 0 1 3.54 1.9c.53.35 1.04.73 1.5 1.15.46.43.88.9 1.26 1.4a14.25 14.25 0 0 1 1.9 3.35 9.78 9.78 0 0 1 .75 3.47v.05a1.59 1.59 0 1 0 3.19 0V30a9.84 9.84 0 0 1 .74-3.37 14.27 14.27 0 0 1 3.15-4.75c.47-.42.97-.8 1.5-1.14a22.72 22.72 0 0 1 3.54-1.91c.59-.25.97-.83.97-1.46V4.31c0-.87-.72-1.58-1.6-1.58z" fill="#024F9D"/><g transform="translate(0 16.54)"><mask id="d" fill="#fff"><use xlink:href="#c"/></mask><path d="M9.3 10.86C7.32 9.34 4.68 8.24 3.2 7.7V1.61c0-.88-.71-1.58-1.6-1.58C.71.03 0 .73 0 1.6V8.8c-.01.7.45 1.34 1.12 1.54.04.02 3.84 1.2 6.26 3.05l.05.03c.04.03 3.78 2.72 4.96 5.64a1.6 1.6 0 0 0 2.08.86c.8-.33 1.2-1.24.88-2.04-1.49-3.68-5.64-6.73-6.04-7.02" fill="#008840" mask="url(#d)"/></g><path d="M2.67 54.25c.41 0 .77-.04 1.03-.3.35-.33.56-.93.56-1.96 0-.99-.19-1.58-.53-1.94-.27-.28-.63-.32-1.05-.32H1.44v4.52h1.23zM.09 55.3v-6.6h2.4c1.06 0 1.92.22 2.44.76.5.54.77 1.39.77 2.54 0 1.2-.28 2.08-.83 2.61-.52.5-1.2.7-2.24.7H.1z" fill="#024F9D"/><mask id="f" fill="#fff"><use xlink:href="#e"/></mask><path fill="#024F9D" mask="url(#f)" d="M6.96 55.3h1.35v-6.62H6.96zM13.16 51.8l2.27 3.5H13.9l-1.88-2.85h-.76v2.84H9.9v-6.6h1.36v2.71H12l1.8-2.72h1.41zM19.67 53.4c0-.78-.51-.85-1.45-.9-1.3-.06-2.32-.4-2.32-1.95 0-1.44 1.13-2.02 2.8-2.02.34 0 1.26.07 1.78.24v1a8.55 8.55 0 0 0-1.75-.19c-.97 0-1.44.28-1.44.84 0 .78.52.8 1.45.85 1.27.05 2.32.42 2.32 2.03 0 1.46-1.2 2.15-2.94 2.15a7.8 7.8 0 0 1-2.08-.3V54.1c.7.19 1.66.25 2.05.25 1.2 0 1.58-.38 1.58-.94M22.2 55.3v-6.62h1.35v2.72h2.77v-2.72h1.35v6.61h-1.36v-2.84h-2.76v2.84zM32.53 52.75l-.46-1.39c-.19-.57-.33-1.05-.45-1.47h-.03c-.11.42-.25.9-.44 1.47l-.46 1.39h1.84zm.34 1.01h-2.54l-.5 1.53h-1.37l2.4-6.6h1.55l2.4 6.6h-1.43l-.5-1.53z"/><path d="M33.21 16.57c-.88 0-1.6.7-1.6 1.58v6.1a24.87 24.87 0 0 0-6.11 3.15c-.9.65-1.73 1.36-2.51 2.13-4.25 4.22-6.73 9.9-6.84 10.15a1.6 1.6 0 0 0 2.93 1.25c.03-.06 2.36-5.37 6.16-9.15.67-.66 1.38-1.27 2.14-1.81l.04-.03c2.42-1.85 6.23-3.04 6.26-3.05.68-.2 1.14-.84 1.13-1.54V18.15c0-.87-.72-1.58-1.6-1.58z" fill="#008840" mask="url(#f)"/></g></g></svg>