<?xml version="1.0" encoding="utf-8"?>
<!-- Generator: Adobe Illustrator 24.2.3, SVG Export Plug-In . SVG Version: 6.00 Build 0)  -->
<svg version="1.1" id="Layer_1" xmlns="http://www.w3.org/2000/svg" xmlns:xlink="http://www.w3.org/1999/xlink" x="0px" y="0px"
	 viewBox="0 0 322 172.2" style="enable-background:new 0 0 322 172.2;" xml:space="preserve">
<style type="text/css">
	.st0{filter:url(#Adobe_OpacityMaskFilter);}
	.st1{fill-rule:evenodd;clip-rule:evenodd;fill:#FFFFFF;}
	.st2{mask:url(#mask-2_2_);fill-rule:evenodd;clip-rule:evenodd;fill:#FFFFFF;fill-opacity:0.25;}
	.st3{fill:none;stroke:#5400BA;stroke-width:1.05;stroke-linecap:round;}
	.st4{opacity:0.1001;fill-rule:evenodd;clip-rule:evenodd;enable-background:new    ;}
	.st5{fill-rule:evenodd;clip-rule:evenodd;fill:#EDEDED;}
	.st6{filter:url(#Adobe_OpacityMaskFilter_1_);}
	.st7{mask:url(#mask-4_2_);fill-rule:evenodd;clip-rule:evenodd;fill:#474FFF;}
	.st8{fill-rule:evenodd;clip-rule:evenodd;fill:#2D33B2;}
	.st9{fill-rule:evenodd;clip-rule:evenodd;fill:#4BCDA2;}
	.st10{fill:none;stroke:#4A00B2;stroke-linecap:round;}
	.st11{fill-rule:evenodd;clip-rule:evenodd;fill:#FBF272;}
	.st12{fill-rule:evenodd;clip-rule:evenodd;fill:#474FFF;}
	.st13{fill-rule:evenodd;clip-rule:evenodd;fill:#4778FF;}
	.st14{opacity:0.103;fill-rule:evenodd;clip-rule:evenodd;fill:#020202;enable-background:new    ;}
	.st15{fill:none;stroke:#D7CBC4;stroke-width:1.5;stroke-linecap:round;}
	.st16{fill-rule:evenodd;clip-rule:evenodd;fill:#FF0F24;}
	.st17{fill-rule:evenodd;clip-rule:evenodd;fill:#F9AF32;}
</style>
<g id="All">
	<g id="Bitmap" transform="translate(-1092.000000, -114.000000)">
		<g transform="translate(372.000000, 0.000000)">
		</g>
	</g>
</g>
<g id="Group-15" transform="translate(720.000000, 114.000000)">
	<g id="Group-14" transform="translate(0.000000, 24.000000)">
		<g id="Clip-2">
		</g>
		<defs>
			<filter id="Adobe_OpacityMaskFilter" filterUnits="userSpaceOnUse" x="-708.8" y="-103.8" width="300.3" height="146.6">
				<feColorMatrix  type="matrix" values="1 0 0 0 0  0 1 0 0 0  0 0 1 0 0  0 0 0 1 0"/>
			</filter>
		</defs>
		<mask maskUnits="userSpaceOnUse" x="-708.8" y="-103.8" width="300.3" height="146.6" id="mask-2_2_">
			<g class="st0">
				<polygon id="path-1_2_" class="st1" points="-708.8,-103.8 -408.5,-103.8 -408.5,42.8 -708.8,42.8 				"/>
			</g>
		</mask>
		<path id="Combined-Shape" class="st2" d="M-635.6-103.8c26.6,0,30,117.9,30,117.9l0-0.1c0.4-2.1,9.7-53.9,26.6-53.9
			c17.3,0-3.3,60,5.3,58.6c8.7-1.3,2.7-111.2,27.3-81.9c24.6,29.3,13.3,74.6,40,73.9c26.6-0.7-9.3-21.3,6-41.3
			c15.3-20,54,26.6,57.3,38.6c0,0-2-64.6,16-64.6c18,0,18.7,92.6,18.7,92.6l-279.8,6.7c0,0-28-75.9-18.7-99.3
			c9.3-23.3,40.6,24.6,46.6,42.6C-660.3-13.9-662.3-103.8-635.6-103.8z M-548.7-36.3L-548.7-36.3c-0.4,0-0.7,0.3-0.7,0.7l0,0.1
			l7.5,64.6l0,0.1c0.1,0.3,0.4,0.6,0.8,0.5c0.4,0,0.6-0.3,0.6-0.7l0-0.1l-7.5-64.6l0-0.1C-548.1-36-548.3-36.2-548.7-36.3
			L-548.7-36.3z M-691.3-35.9c-0.2-0.3-0.5-0.5-0.9-0.4c-0.4,0.1-0.6,0.5-0.4,0.9l0,0l21.5,64.6l0,0.1c0.2,0.3,0.5,0.5,0.9,0.4
			c0.4-0.1,0.6-0.5,0.4-0.9l0,0L-691.3-35.9L-691.3-35.9z M-424.2-25L-424.2-25c-0.4,0-0.7,0.3-0.7,0.7l0,0.1l0.3,2.6l0.2,2
			c0.1,1.7,0.3,3.4,0.4,5.2l0.1,0.9l0.1,1.5c0.3,4.9,0.6,9.6,0.7,14.1c0.3,11.6-0.2,20.1-1.7,23.8c-0.1,0.4,0,0.8,0.4,0.9
			c0.4,0.1,0.8,0,0.9-0.4c1.6-3.8,2.1-11.7,1.9-22.6l0-0.6l0-1.2c-0.1-4.5-0.4-9.3-0.7-14.2l-0.1-1.5l-0.1-0.9
			c-0.1-1.5-0.2-3-0.4-4.4l-0.1-0.8l-0.1-1.6c0-0.4-0.1-0.8-0.1-1.2l0-0.4l-0.1-1.5C-423.5-24.7-423.8-25-424.2-25L-424.2-25z
			 M-485.6-15.4c-0.2,0.3-0.2,0.7,0,0.9l0.1,0.1l0.9,0.8l0.8,0.7c0.7,0.6,1.4,1.3,2.2,2c2.9,2.8,5.9,5.9,8.7,9.3
			c7.3,8.9,11.9,17.8,12.5,26c0,0.4,0.4,0.7,0.7,0.7c0.4,0,0.7-0.4,0.7-0.7c-0.6-8.6-5.3-17.7-12.8-26.8c-2.8-3.4-5.8-6.6-8.8-9.4
			c-1-1-2-1.9-2.9-2.7c-0.2-0.2-0.5-0.4-0.7-0.6l-0.1-0.1l-0.3-0.2C-484.9-15.8-485.3-15.7-485.6-15.4z M-633.4-74.7
			c-0.4,0-0.6,0.3-0.7,0.6l0,0.1v96.4l0,0.1c0,0.3,0.3,0.6,0.7,0.6s0.6-0.3,0.7-0.6l0-0.1V-74l0-0.1
			C-632.8-74.4-633.1-74.7-633.4-74.7z"/>
	</g>
	<g id="Group-56" transform="translate(37.000000, 0.000000)">
		<path id="Stroke-11" class="st3" d="M-671.9,63.6c0,0,7.9,11.1,24.1,2.2"/>
		<path id="Fill-19" class="st4" d="M-560.5,85.3l-90.8-31.5c-1.8-0.6-2.8-2.6-2.1-4.4L-609.5-77c0.6-1.8,2.6-2.8,4.4-2.1l90.8,31.5
			c1.8,0.6,2.8,2.6,2.1,4.4L-556,83.2C-556.7,85-558.6,86-560.5,85.3"/>
		<path id="Fill-19-Copy" class="st5" d="M-557.7,83.5l-90.8-31.5c-1.8-0.6-2.8-2.6-2.1-4.4l43.9-126.4c0.6-1.8,2.6-2.8,4.4-2.1
			l90.8,31.5c1.8,0.6,2.8,2.6,2.1,4.4l-43.9,126.4C-553.9,83.1-555.8,84.1-557.7,83.5"/>
		<g id="Group-23" transform="translate(98.800000, 0.609000)">
			<g id="Clip-22">
			</g>
			<defs>
				<filter id="Adobe_OpacityMaskFilter_1_" filterUnits="userSpaceOnUse" x="-751" y="-99.3" width="61.8" height="23.5">
					<feColorMatrix  type="matrix" values="1 0 0 0 0  0 1 0 0 0  0 0 1 0 0  0 0 0 1 0"/>
				</filter>
			</defs>
			<mask maskUnits="userSpaceOnUse" x="-751" y="-99.3" width="61.8" height="23.5" id="mask-4_2_">
				<g class="st6">
					<polygon id="path-3_2_" class="st1" points="-717.4,-102.3 -655.6,-102.3 -655.6,-78.9 -717.4,-78.9 					"/>
				</g>
			</mask>
			<path id="Fill-21" class="st7" d="M-689.2-98l-61,22.2L-751-78l58-21.1C-691.7-99.6-690.1-99.1-689.2-98"/>
		</g>
		<path id="Fill-24" class="st8" d="M-589.8-96.4l2.5,6.8l-61.2,22.3l-2.9-7.9l61-22.2C-590.2-97.1-590-96.7-589.8-96.4"/>
		
			<g id="Group-10" transform="translate(56.500000, 137.500000) rotate(-16.000000) translate(-56.500000, -137.500000) translate(15.000000, 80.000000)">
			<path id="Fill-15" class="st9" d="M-636.1-193.7c0,0-19-17.9-17.8-25.6c1.2-7.7,11.2,2.3,11.2,2.3s-11.7-16.9-7.7-26.7
				c4-9.8,21.5,9.6,21.5,9.6s-3.7-20.6,3-30.5s20.3,52.3,20.3,52.3s14.5-12.9,19.4-11.3c0,0,11,3.3-10,18.5c0,0,21.5,0,19.9,8.2
				c-1.6,8.2-24.8,1.9-24.8,1.9L-636.1-193.7z"/>
			<path id="Stroke-19" class="st10" d="M-640.9-233.8c0,0,22.7,17.7,28.1,39.3c0,0,0.3-27.2-10.1-54.3"/>
			<path id="Fill-23" class="st11" d="M-614.1-245c0,0-28.9-11.3-27.8-15c1.1-3.8,16.3-0.9,16.3-0.9s-13-9.2-10.8-16.8
				c2.2-7.6,17.7,3.1,17.7,3.1s-5.1-23.5,4.6-25.5c9.7-2,10.8,24,10.8,24s5.1-18.6,12-15c6.9,3.6,6.4,16.9,6.4,16.9L-614.1-245z"/>
			<path id="Stroke-25" class="st10" d="M-627.8-271.9c0,0,14.9,6.3,21.4,12.8l2.9-2.9c0,0-10.5-21.4-10.7-29.9"/>
		</g>
		<g id="Group-11" transform="translate(143.000000, 106.000000)">
			<path id="Fill-1" class="st9" d="M-677.5-54c0,0-24.3,1-28.7-4.8c-4.4-5.8,8.9-5.9,8.9-5.9s-18.8-3.2-22.8-12.2
				c-3.9-9,20.4-8.1,20.4-8.1s-16.1-10.9-18.2-21.8s48,20.4,48,20.4s0.9-18,5.2-20.2c0,0,9.3-5.2,5.7,18.7c0,0,14-14.3,18.4-7.9
				c4.4,6.4-14.9,17.7-14.9,17.7L-677.5-54z"/>
			<path id="Stroke-7" class="st10" d="M-663.7-97.9c0,0-6.2,6.4,0.9,28.1c0,0,3.2-16.5,17.2-21.8"/>
			<path id="Fill-9" class="st11" d="M-677.9-46.4c0,0-11.5-26.7-8.3-28.5c3.2-1.7,11.3,10.2,11.3,10.2s-2.4-14.7,3.9-18.4
				c6.4-3.6,9.6,13.9,9.6,13.9s12-19,19.6-13.9c7.6,5.1-8.6,23.1-8.6,23.1s15.4-9,17.6-2c2.2,7-6.9,15.5-6.9,15.5H-677.9z"/>
			<path id="Stroke-11_1_" class="st10" d="M-668.1-72.2c0,0,5.5,13.6,5.5,22.1h3.7c0,0,7-20.6,12.3-26.2"/>
		</g>
		<path id="Fill-26" class="st12" d="M-633.3,68.3l-4.9,1.8c-1.8,0.7-3.8-0.3-4.4-2.1l-48.9-134.3c-0.7-1.8,0.3-3.8,2.1-4.4l4.9-1.8
			c-1.8,0.7-2.7,2.6-2.1,4.4l48.9,134.3C-637.1,68-635.1,69-633.3,68.3"/>
		<path id="Fill-28" class="st13" d="M-585.3-93.4l45.2,124.1c0.7,1.8-0.3,3.8-2.1,4.4l-91.1,33.2c-1.8,0.7-3.8-0.3-4.4-2.1
			l-48.9-134.3c-0.7-1.8,0.3-3.8,2.1-4.4l27.5-10c1.3-0.5,2.7-0.1,3.7,0.8l4.9,5.1c0.9,1,2.4,1.3,3.7,0.9l55.1-19.8
			C-587.9-96.1-586-95.2-585.3-93.4"/>
		<path id="Fill-30" class="st14" d="M-528.8,62.9h-96.1c-1.9,0-3.5-1.6-3.5-3.5V-74.3c0-1.9,1.6-3.5,3.5-3.5h96.1
			c1.9,0,3.5,1.6,3.5,3.5V59.5C-525.4,61.4-526.9,62.9-528.8,62.9"/>
		<path id="Fill-32" class="st1" d="M-530.3,63.8h-96.1c-1.9,0-3.5-1.6-3.5-3.5V-73.4c0-1.9,1.6-3.5,3.5-3.5h96.1
			c1.9,0,3.5,1.6,3.5,3.5V60.4C-526.8,62.3-528.4,63.8-530.3,63.8"/>
		<path id="Stroke-34" class="st15" d="M-550.1-63.4c0,0-5.2,7.1-12,3.2c-6.7-3.9-10.1-2.4-17.3,0.5c-7.2,2.9-9.4-3.3-14.7-3.8
			c-5.3-0.5-12.6,3.7-12.6,3.7"/>
		<path id="Stroke-36" class="st15" d="M-541-18.4c0,0-6.8,6.9-16.4,2.6c-9.5-4.3-14.1-3-23.9-0.5c-9.7,2.5-13.2-3.9-20.5-4.7
			c-7.3-0.8-17.2,3-17.2,3"/>
		<path id="Stroke-38" class="st15" d="M-541-28.6c0,0-6.8,6.9-16.4,2.6c-9.5-4.3-14.1-3-23.9-0.5c-9.7,2.5-13.2-3.9-20.5-4.7
			c-7.3-0.8-17.2,3-17.2,3"/>
		<path id="Stroke-40" class="st15" d="M-540.4-7.2c0,0-6.8,6.9-16.4,2.6c-9.5-4.3-14.1-3-23.9-0.5c-9.7,2.5-13.2-3.9-20.5-4.7
			c-7.3-0.8-17.2,3-17.2,3"/>
		<path id="Stroke-42" class="st15" d="M-539.7,4c0,0-6.8,6.9-16.4,2.6c-9.5-4.3-14.1-3-23.9-0.5c-9.7,2.5-13.2-3.9-20.5-4.7
			c-7.3-0.8-17.2,3-17.2,3"/>
		<path id="Stroke-44" class="st15" d="M-539.1,15.2c0,0-6.8,6.9-16.4,2.6c-9.5-4.3-14.1-3-23.9-0.5c-9.7,2.5-13.2-3.9-20.5-4.7
			c-7.3-0.8-17.2,3-17.2,3"/>
		<path id="Stroke-46" class="st15" d="M-538.4,26.4c0,0-6.8,6.9-16.4,2.6c-9.5-4.3-14.1-3-23.9-0.5c-9.7,2.5-13.2-3.9-20.5-4.7
			c-7.3-0.8-17.2,3-17.2,3"/>
		<path id="Stroke-48" class="st15" d="M-560.5-50.8c0,0-4.2,7.1-7.7,3.3c-3.5-3.7-5.7-2.2-10.5,0.7c-4.7,2.9-5.2-3.2-8.3-3.6
			c-3.1-0.4-8.1,3.8-8.1,3.8"/>
		<polygon id="Fill-50" class="st16" points="-624.2,-31.2 -630,-36.3 -635.8,-31.2 -635.8,-42.8 -624.2,-42.8 		"/>
		<path id="Fill-52" class="st17" d="M-630-50.7c0-0.1-0.1-0.1-0.1-0.2c-0.1,0-0.2,0-0.2,0c0-0.1,0.1-0.1,0.1-0.2
			c0-0.1-0.1-0.2-0.1-0.2c0.1,0,0.2,0,0.3,0c0-0.1,0.1-0.1,0.1-0.2c0,0.1,0.1,0.1,0.1,0.2c0.1,0,0.2,0,0.2,0c0,0.1-0.1,0.1-0.1,0.2
			c0,0.1,0.1,0.2,0.1,0.2c-0.1,0-0.2,0-0.3,0C-630-50.9-630-50.8-630-50.7 M-621.8-61.6c-0.7-0.2-1.3-0.3-1.9-0.3
			c-0.3-0.6-0.7-1.1-1.2-1.6c-2.8-2.8-7.2-2.8-10,0c-0.5,0.5-0.9,1-1.2,1.6c-0.6,0-1.3,0.1-1.9,0.2c-3.8,1-6,4.9-5,8.7
			c0.2,0.7,0.4,1.3,0.8,1.8c-0.3,0.5-0.6,1.2-0.8,1.8c-1,3.8,1.2,7.7,5,8.7c0.7,0.2,1.3,0.3,1.9,0.3c0.3,0.6,0.7,1.1,1.2,1.6
			c2.8,2.8,7.2,2.8,10,0c0.5-0.5,0.9-1,1.2-1.6c0.6,0,1.3-0.1,1.9-0.2c3.8-1,6-4.9,5-8.7c-0.2-0.7-0.4-1.3-0.8-1.8
			c0.3-0.5,0.6-1.2,0.8-1.8C-615.8-56.7-618.1-60.6-621.8-61.6"/>
		<path id="Stroke-54" class="st3" d="M-620.4-51.2c0,5.3-4.3,9.7-9.7,9.7c-5.3,0-9.7-4.3-9.7-9.7c0-5.3,4.3-9.7,9.7-9.7
			C-624.7-60.8-620.4-56.5-620.4-51.2z"/>
	</g>
</g>
</svg>
