<?xml version="1.0" encoding="UTF-8"?>
<svg width="322px" height="207px" viewBox="0 0 322 207" version="1.1" xmlns="http://www.w3.org/2000/svg" xmlns:xlink="http://www.w3.org/1999/xlink">
    <title>2A982FB5-023F-4713-B0AE-434C12731975</title>
    <defs>
        <polygon id="path-1" points="0.268034043 0.128949929 321.067526 0.128949929 321.067526 156.665007 0.268034043 156.665007"></polygon>
        <polygon id="path-3" points="0.34874 0.091 66.39094 0.091 66.39094 25.1853 0.34874 25.1853"></polygon>
    </defs>
    <g id="All" stroke="none" stroke-width="1" fill="none" fill-rule="evenodd">
        <g transform="translate(-1092.000000, -114.000000)" id="Bitmap">
            <g transform="translate(372.000000, 0.000000)">
                <g id="Group-15" transform="translate(720.000000, 114.000000)">
                    <g id="Group-14" transform="translate(0.000000, 24.000000)">
                        <mask id="mask-2" fill="white">
                            <use xlink:href="#path-1"></use>
                        </mask>
                        <g id="Clip-2"></g>
                        <path d="M78.4352988,0.128949929 C106.895909,0.128949929 110.454007,126.069452 110.454007,126.069452 L110.465949,126.001213 C110.855879,123.787158 120.785433,68.4357863 138.915659,68.4357863 C157.414847,68.4357863 135.357562,132.472729 144.607156,131.050126 C153.857792,129.627523 147.453425,12.2247242 173.780636,43.5313729 C200.106805,74.8390637 188.010942,123.223203 216.472594,122.51138 C244.933205,121.8006 206.511172,99.742435 222.875919,78.3960927 C239.241708,57.0507925 280.51001,106.857535 284.068107,119.665132 C284.068107,119.665132 281.933666,50.6464729 301.144682,50.6464729 C320.35674,50.6464729 321.067526,149.55022 321.067526,149.55022 L22.2238215,156.66532 C22.2238215,156.66532 -7.66044475,75.5508864 2.30097732,50.6464729 C12.2623994,25.7441439 45.704763,76.9734895 52.1080877,96.1854061 C52.1080877,96.1854061 49.9736462,0.128949929 78.4352988,0.128949929 Z M171.283447,72.2500708 L171.181565,72.2549907 C170.804396,72.2987205 170.525184,72.6151368 170.518013,72.984496 L170.522933,73.0863779 L178.522933,142.086378 L178.541455,142.186683 C178.632948,142.544603 178.977151,142.788739 179.35432,142.745009 C179.73149,142.70128 180.010701,142.384863 180.017872,142.015504 L180.012952,141.913622 L172.012952,72.9136221 L171.99443,72.8133173 C171.919572,72.5204737 171.675545,72.3037993 171.382703,72.2586405 L171.283447,72.2500708 Z M18.9407771,72.6684462 C18.7778999,72.3368611 18.3909828,72.1684172 18.0307718,72.2884875 C17.6378143,72.4194734 17.4254443,72.8442133 17.5564301,73.2371708 L17.5564301,73.2371708 L40.5564301,142.237171 L40.5951081,142.331554 C40.7579852,142.663139 41.1449024,142.831583 41.5051134,142.711512 C41.8980709,142.580527 42.1104409,142.155787 41.9794551,141.762829 L41.9794551,141.762829 L18.9794551,72.7628292 Z M304.291968,84.2502954 L304.190037,84.2540572 C303.812395,84.293498 303.529606,84.606721 303.518238,84.9759749 L303.522,85.0779061 L303.793136,87.8720614 L303.989396,90.0482495 C304.144877,91.8209749 304.298825,93.6961293 304.446611,95.6478676 L304.519969,96.6299991 L304.632384,98.19092 C304.99775,103.384284 305.268446,108.474123 305.409833,113.266274 C305.77564,125.664816 305.236361,134.684096 303.574578,138.714088 C303.416673,139.097023 303.599096,139.53546 303.982031,139.693365 C304.364966,139.851269 304.803403,139.668846 304.961307,139.285912 C306.644033,135.205132 307.222027,126.78296 306.959585,115.153485 L306.944438,114.515976 L306.909181,113.222037 C306.767144,108.407879 306.495414,103.298434 306.128734,98.086321 L306.015916,96.5197997 L305.942326,95.5345634 C305.818782,93.9029725 305.690943,92.3247235 305.561491,90.8147322 L305.483647,89.9170476 L305.327311,88.1736878 C305.286216,87.7254124 305.246585,87.3009383 305.208662,86.9016255 L305.171318,86.5107502 L305.013885,84.9220939 C304.97803,84.5787832 304.715909,84.3138632 304.391121,84.2599925 L304.291968,84.2502954 Z M238.688263,94.5241099 C238.449329,94.8151538 238.466012,95.2321864 238.711552,95.503071 L238.792052,95.5796797 L239.748064,96.3959647 L240.643376,97.1883669 C241.369807,97.8401275 242.151947,98.5626566 242.978626,99.3512075 C246.129033,102.356312 249.27969,105.696694 252.218672,109.281449 C260.027131,118.805637 264.926157,128.277157 265.519653,137.050619 C265.547609,137.463888 265.905293,137.776246 266.318562,137.74829 C266.731831,137.720334 267.044189,137.36265 267.016232,136.949381 C266.397267,127.799396 261.366839,118.073832 253.378656,108.33043 C250.397947,104.694779 247.206078,101.310704 244.01396,98.2658125 C242.896315,97.1997152 241.858051,96.2518033 240.925549,95.4331398 C240.663908,95.2034399 240.425538,94.9970929 240.212126,94.8148088 L240.056773,94.6826185 L239.743833,94.4203203 C239.423684,94.1574934 238.95109,94.2039616 238.688263,94.5241099 Z M80.7679426,31.25 C80.3882468,31.25 80.0744516,31.5321539 80.0247892,31.8982294 L80.0179426,32 L80.0179426,135 L80.0247892,135.101771 C80.0744516,135.467846 80.3882468,135.75 80.7679426,135.75 C81.1476383,135.75 81.4614335,135.467846 81.511096,135.101771 L81.5179426,135 L81.5179426,32 L81.511096,31.8982294 C81.4614335,31.5321539 81.1476383,31.25 80.7679426,31.25 Z" id="Combined-Shape" fill-opacity="0.25" fill="#FFFFFF" mask="url(#mask-2)"></path>
                    </g>
                    <g id="Group-56" transform="translate(37.000000, 0.000000)">
                        <path d="M42.174564,177.319708 C42.174564,177.319708 50.574564,189.132908 67.900264,179.682208" id="Stroke-11" stroke="#5400BA" stroke-width="1.05" stroke-linecap="round"></path>
                        <path d="M161.23698,200.50257 L64.29678,166.83187 C62.36338,166.16057 61.34068,164.04937 62.01198,162.11597 L108.88818,27.15597 C109.55948,25.22327 111.67068,24.20057 113.60408,24.87187 L210.54428,58.54257 C212.47768,59.21387 213.50038,61.32577 212.82908,63.25847 L165.95288,198.21847 C165.28158,200.15117 163.17038,201.17457 161.23698,200.50257" id="Fill-19" fill="#000000" opacity="0.100097656"></path>
                        <path d="M164.23698,198.50257 L67.29678,164.83187 C65.36338,164.16057 64.34068,162.04937 65.01198,160.11597 L111.88818,25.15597 C112.55948,23.22327 114.67068,22.20057 116.60408,22.87187 L213.54428,56.54257 C215.47768,57.21387 216.50038,59.32577 215.82908,61.25847 L168.95288,196.21847 C168.28158,198.15117 166.17038,199.17457 164.23698,198.50257" id="Fill-19-Copy" fill="#EDEDED"></path>
                        <g id="Group-23" transform="translate(98.800000, 0.609000)">
                            <mask id="mask-4" fill="white">
                                <use xlink:href="#path-3"></use>
                            </mask>
                            <g id="Clip-22"></g>
                            <path d="M30.4385344,4.75842133 L-34.7510656,28.4856213 L-35.6036656,26.1441213 L26.2959344,3.61392133 C27.8107344,3.06302133 29.4620344,3.56632133 30.4385344,4.75842133" id="Fill-21" fill="#474FFF" mask="url(#mask-4)"></path>
                        </g>
                        <path d="M129.844874,6.43793133 L132.493674,13.7151313 L67.1122744,37.5123313 L64.0490744,29.0941313 L129.238674,5.36763133 C129.489974,5.67983133 129.699274,6.03753133 129.844874,6.43793133" id="Fill-24" fill="#2D33B2"></path>
                        <g id="Group-10" transform="translate(56.500000, 137.500000) rotate(-16.000000) translate(-56.500000, -137.500000) translate(15.000000, 80.000000)">
                            <path d="M19.1153316,113.860141 C19.1153316,113.860141 -1.19267882,94.7289452 0.0552446384,86.4645958 C1.3031681,78.2002465 12.033196,88.9685997 12.033196,88.9685997 C12.033196,88.9685997 -0.443773758,70.9374986 3.79826008,60.4191669 C8.04104887,49.9008352 26.756881,70.6874771 26.756881,70.6874771 C26.756881,70.6874771 22.7639789,48.6484544 30.0008781,38.1301227 C37.2377772,27.611791 51.7115756,93.9781229 51.7115756,93.9781229 C51.7115756,93.9781229 67.1834107,80.2034496 72.4242363,81.9573888 C72.4242363,81.9573888 84.1530559,85.4637519 61.6934534,101.741671 C61.6934534,101.741671 84.6520743,101.741671 82.9051325,110.506822 C81.1581906,119.272729 56.4533828,112.510782 56.4533828,112.510782 L19.1153316,113.860141 Z" id="Fill-15" fill="#4BCDA2"></path>
                            <path d="M14,71.0308757 C14,71.0308757 38.2554978,89.9868653 43.9991375,113 C43.9991375,113 44.3094602,83.9122161 33.157665,55" id="Stroke-19" stroke="#4A00B2" stroke-linecap="round"></path>
                            <path d="M42.6980734,59 C42.6980734,59 11.8292737,46.9486842 13.0343892,42.9366228 C14.2387487,38.9245613 30.4760549,41.9417404 30.4760549,41.9417404 C30.4760549,41.9417404 16.6414194,32.0980799 18.9533663,23.9771166 C21.2660691,15.8561534 37.9010483,27.2991913 37.9010483,27.2991913 C37.9010483,27.2991913 32.4923931,2.21226939 42.8220627,0.113559492 C53.1509762,-1.9851504 54.3409711,25.7013271 54.3409711,25.7013271 C54.3409711,25.7013271 59.7632349,5.84226581 67.1791559,9.65762053 C74.595077,13.4729753 73.987983,27.7168149 73.987983,27.7168149 L42.6980734,59 Z" id="Fill-23" fill="#FBF272"></path>
                            <path d="M28,30.3073364 C28,30.3073364 43.9022416,37.0314669 50.9023303,44 L54,40.9212892 C54,40.9212892 42.7680676,18.1078209 42.5192711,9" id="Stroke-25" stroke="#4A00B2" stroke-linecap="round"></path>
                        </g>
                        <g id="Group-11" transform="translate(143.000000, 106.000000)">
                            <path d="M45.9193961,58.926417 C45.9193961,58.926417 19.9750152,60.0155605 15.3042669,53.8133669 C10.6342783,47.6119327 24.7809933,47.4653465 24.7809933,47.4653465 C24.7809933,47.4653465 4.67428802,44.0551273 0.461649891,34.3941056 C-3.75098824,24.7338435 22.2534104,25.7812137 22.2534104,25.7812137 C22.2534104,25.7812137 5.02299874,14.1165933 2.76359643,2.46260614 C0.504194117,-9.19138103 53.9898839,24.3016798 53.9898839,24.3016798 C53.9898839,24.3016798 54.941811,5.04799276 59.5244319,2.69805556 C59.5244319,2.69805556 69.5025725,-2.83196793 65.6538394,22.7006237 C65.6538394,22.7006237 80.6316863,7.41463927 85.309272,14.2738128 C89.986098,21.1329863 69.3817772,33.1887565 69.3817772,33.1887565 L45.9193961,58.926417 Z" id="Fill-1" fill="#4BCDA2"></path>
                            <path d="M60.68601,12 C60.68601,12 54.0398863,18.8223711 61.6564247,42 C61.6564247,42 65.1121961,24.3892023 80,18.6690169" id="Stroke-7" stroke="#4A00B2" stroke-linecap="round"></path>
                            <path d="M45.4905418,67 C45.4905418,67 33.1937895,38.4721006 36.5946183,36.606564 C39.9962001,34.74026 48.630058,47.5373347 48.630058,47.5373347 C48.630058,47.5373347 46.01392,31.7980686 52.8163306,27.9365383 C59.6187413,24.0750079 63.0195701,42.738048 63.0195701,42.738048 C63.0195701,42.738048 75.8397006,22.467316 83.9509333,27.9365383 C92.0614129,33.4072953 74.7936972,52.6029073 74.7936972,52.6029073 C74.7936972,52.6029073 91.2767221,43.0043339 93.6307945,50.4703173 C95.9856199,57.934766 86.3057587,67 86.3057587,67 L45.4905418,67 Z" id="Fill-9" fill="#FBF272"></path>
                            <path d="M56,39.4453888 C56,39.4453888 61.8574644,54.0022861 61.8574644,63 L65.819955,63 C65.819955,63 73.3015754,41.0456685 79,35" id="Stroke-11" stroke="#4A00B2" stroke-linecap="round"></path>
                        </g>
                        <path d="M83.4538444,182.349891 L78.1961444,184.263691 C76.2725444,184.963691 74.1438444,183.964791 73.4473444,182.048891 L21.2245444,38.5698913 C20.5245444,36.6455913 21.5157444,34.5196913 23.4393444,33.8196913 L28.6970444,31.9065913 C26.7727444,32.6065913 25.7822444,34.7317913 26.4822444,36.6553913 L78.7043444,180.135791 C79.4015444,182.050291 81.5302444,183.050591 83.4538444,182.349891" id="Fill-26" fill="#474FFF"></path>
                        <path d="M134.704554,9.57841133 L182.969554,142.185711 C183.666754,144.101611 182.679054,146.235211 180.755454,146.935911 L83.4540544,182.349611 C81.5304544,183.050311 79.4017544,182.050711 78.7045544,180.135511 L26.4817544,36.6558113 C25.7817544,34.7322113 26.7729544,32.6063113 28.6972544,31.9063113 L58.0314544,21.2299113 C59.4069544,20.7294113 60.9462544,21.0850113 61.9598544,22.1357113 L67.1979544,27.5635113 C68.2115544,28.6142113 69.7424544,28.9740113 71.1088544,28.4763113 L129.972554,7.35731133 C131.890554,6.66921133 134.007354,7.66391133 134.704554,9.57841133" id="Fill-28" fill="#4778FF"></path>
                        <path d="M195.00968,176.57696 L92.38828,176.57696 C90.34218,176.57696 88.68248,174.91866 88.68248,172.87186 L88.68248,30.00256 C88.68248,27.95716 90.34218,26.29746 92.38828,26.29746 L195.00968,26.29746 C197.05578,26.29746 198.71478,27.95716 198.71478,30.00256 L198.71478,172.87186 C198.71478,174.91866 197.05578,176.57696 195.00968,176.57696" id="Fill-30" fill="#020202" opacity="0.103004092"></path>
                        <path d="M193.44217,177.54499 L90.82077,177.54499 C88.77467,177.54499 87.11567,175.88599 87.11567,173.83989 L87.11567,30.97059 C87.11567,28.92449 88.77467,27.26479 90.82077,27.26479 L193.44217,27.26479 C195.48827,27.26479 197.14727,28.92449 197.14727,30.97059 L197.14727,173.83989 C197.14727,175.88599 195.48827,177.54499 193.44217,177.54499" id="Fill-32" fill="#FFFFFF"></path>
                        <path d="M172.29111,41.69508 C172.29111,41.69508 166.70861,49.30058 159.51401,45.15518 C152.31871,41.00978 148.70951,42.58618 141.05501,45.67458 C133.40121,48.76228 131.01911,42.12558 125.39391,41.59148 C119.76871,41.05668 111.97211,45.53598 111.97211,45.53598" id="Stroke-34" stroke="#D7CBC4" stroke-width="1.5" stroke-linecap="round"></path>
                        <path d="M182.02615,89.68267 C182.02615,89.68267 174.74335,97.03267 164.55205,92.43647 C154.36145,87.83957 149.45935,89.22207 139.05035,91.89467 C128.64205,94.56797 124.96425,87.73667 117.15295,86.87287 C109.34165,86.00977 98.81505,90.07817 98.81505,90.07817" id="Stroke-36" stroke="#D7CBC4" stroke-width="1.5" stroke-linecap="round"></path>
                        <path d="M182.02615,78.78549 C182.02615,78.78549 174.74335,86.13549 164.55205,81.53929 C154.36145,76.94239 149.45935,78.32489 139.05035,80.99749 C128.64205,83.67079 124.96425,76.83949 117.15295,75.97569 C109.34165,75.11259 98.81505,79.18099 98.81505,79.18099" id="Stroke-38" stroke="#D7CBC4" stroke-width="1.5" stroke-linecap="round"></path>
                        <path d="M182.71047,101.65036 C182.71047,101.65036 175.42767,108.99966 165.23707,104.40416 C155.04577,99.80726 150.14367,101.18976 139.73467,103.86236 C129.32637,106.53566 125.64857,99.70366 117.83727,98.83986 C110.02597,97.97676 99.49937,102.04516 99.49937,102.04516" id="Stroke-40" stroke="#D7CBC4" stroke-width="1.5" stroke-linecap="round"></path>
                        <path d="M183.39507,113.61735 C183.39507,113.61735 176.11157,120.96735 165.92097,116.37115 C155.73037,111.77425 150.82827,113.15675 140.41927,115.83005 C130.01027,118.50265 126.33247,111.67135 118.52117,110.80755 C110.70987,109.94445 100.18327,114.01285 100.18327,114.01285" id="Stroke-42" stroke="#D7CBC4" stroke-width="1.5" stroke-linecap="round"></path>
                        <path d="M184.07932,125.58497 C184.07932,125.58497 176.79652,132.93497 166.60522,128.33877 C156.41462,123.74187 151.51252,125.12437 141.10352,127.79697 C130.69452,130.47027 127.01742,123.63827 119.20612,122.77447 C111.39412,121.91137 100.86822,125.97977 100.86822,125.97977" id="Stroke-44" stroke="#D7CBC4" stroke-width="1.5" stroke-linecap="round"></path>
                        <path d="M184.76364,137.55196 C184.76364,137.55196 177.48084,144.90196 167.28954,140.30576 C157.09894,135.70956 152.19684,137.09136 141.78784,139.76466 C131.37954,142.43726 127.70174,135.60596 119.89044,134.74216 C112.07914,133.87906 101.55254,137.94746 101.55254,137.94746" id="Stroke-46" stroke="#D7CBC4" stroke-width="1.5" stroke-linecap="round"></path>
                        <path d="M161.19366,55.07915 C161.19366,55.07915 156.76056,62.61605 153.01696,58.62325 C149.27266,54.63115 146.87866,56.22085 141.83726,59.34145 C136.79586,62.46205 136.29956,55.96745 132.98996,55.50545 C129.68036,55.04415 124.35686,59.53395 124.35686,59.53395" id="Stroke-48" stroke="#D7CBC4" stroke-width="1.5" stroke-linecap="round"></path>
                        <polygon id="Fill-50" fill="#FF0F24" points="93.12482 76.04878 86.93332 70.54608 80.74252 76.04878 80.74252 63.66648 93.12482 63.66648"></polygon>
                        <path d="M86.92905,55.1752 C86.88915,55.0954 86.85065,55.0198 86.80585,54.9421 C86.71625,54.9421 86.63155,54.9449 86.54265,54.9498 C86.58955,54.8756 86.63645,54.8014 86.67915,54.7286 C86.63785,54.6446 86.58885,54.5676 86.53565,54.4913 C86.62805,54.4997 86.71975,54.5046 86.81285,54.499 C86.85555,54.4262 86.89685,54.3485 86.93815,54.2715 C86.97805,54.3513 87.01655,54.4269 87.06065,54.5046 C87.15095,54.5046 87.23565,54.5018 87.32455,54.4969 C87.27765,54.5711 87.23075,54.6453 87.18805,54.7181 C87.22935,54.8021 87.27835,54.8791 87.33155,54.9554 C87.23845,54.9463 87.14745,54.9421 87.05435,54.9477 C87.01165,55.0205 86.97035,55.0982 86.92905,55.1752 M95.68115,43.5622 C94.98605,43.3711 94.28535,43.285 93.60005,43.2941 C93.27175,42.6935 92.85175,42.1258 92.34215,41.6148 C89.40355,38.6468 84.60785,38.623 81.64055,41.5672 C81.12815,42.0712 80.70255,42.634 80.36725,43.2339 C79.68125,43.2206 78.98125,43.3004 78.28475,43.4838 C74.24435,44.5464 71.82935,48.6869 72.89265,52.7273 C73.07605,53.4238 73.35115,54.0727 73.70115,54.6635 C73.34345,55.2501 73.06275,55.8976 72.87585,56.592 C71.77405,60.6233 74.15475,64.7869 78.18535,65.8845 C78.88045,66.0756 79.58115,66.1617 80.26645,66.1526 C80.59545,66.7532 81.01545,67.3209 81.52435,67.8319 C84.46365,70.7999 89.25935,70.823 92.22595,67.8795 C92.73835,67.3755 93.16395,66.8127 93.49925,66.2128 C94.18595,66.2261 94.88595,66.1463 95.58175,65.9629 C99.62285,64.9003 102.03715,60.7598 100.97455,56.7194 C100.79115,56.0229 100.51605,55.374 100.16605,54.7832 C100.52375,54.1966 100.80375,53.5491 100.99135,52.8547 C102.09315,48.8227 99.71175,44.6598 95.68115,43.5622" id="Fill-52" fill="#F9AF32"></path>
                        <path d="M97.2523,54.72335 C97.2523,60.42275 92.6323,65.04205 86.9336,65.04205 C81.2342,65.04205 76.6149,60.42275 76.6149,54.72335 C76.6149,49.02395 81.2342,44.40465 86.9336,44.40465 C92.6323,44.40465 97.2523,49.02395 97.2523,54.72335 Z" id="Stroke-54" stroke="#5400BA" stroke-width="1.05" stroke-linecap="round"></path>
                    </g>
                </g>
            </g>
        </g>
    </g>
</svg>