<?xml version="1.0" encoding="UTF-8"?>
<svg width="321px" height="158px" viewBox="0 0 321 158" version="1.1" xmlns="http://www.w3.org/2000/svg" xmlns:xlink="http://www.w3.org/1999/xlink">
    <title>EE73EEDE-CF1D-425C-B240-FBAFFEC619F5</title>
    <defs>
        <polygon id="path-1" points="0.627195958 0.635903365 49.8993364 0.635903365 49.8993364 33.9812562 0.627195958 33.9812562"></polygon>
    </defs>
    <g id="Illustration-&amp;-colour-palette-" stroke="none" stroke-width="1" fill="none" fill-rule="evenodd">
        <g id="Courses" transform="translate(-1093.000000, -138.000000)">
            <g id="Bitmap" transform="translate(372.000000, 0.000000)">
                <g id="Group-2" transform="translate(721.000000, 138.128950)">
                    <path d="M78.1672647,-2.84217094e-14 C106.627875,-2.84217094e-14 110.185973,125.940502 110.185973,125.940502 L110.197915,125.872263 C110.587845,123.658209 120.517399,68.3068364 138.647625,68.3068364 C157.146813,68.3068364 135.089528,132.343779 144.339122,130.921176 C153.589758,129.498573 147.185391,12.0957743 173.512602,43.4024229 C199.838771,74.7101138 187.742908,123.094253 216.20456,122.382431 C244.665171,121.67165 206.243138,99.6134851 222.607885,78.2671427 C238.973674,56.9218426 280.241976,106.728585 283.800073,119.536182 C283.800073,119.536182 281.665632,50.517523 300.876648,50.517523 C320.088706,50.517523 320.799492,149.42127 320.799492,149.42127 L21.9557874,156.53637 C21.9557874,156.53637 -7.9284788,75.4219365 2.03294328,50.517523 C11.9943654,25.6151939 45.436729,76.8445396 51.8400537,96.0564561 C51.8400537,96.0564561 49.7056121,-2.84217094e-14 78.1672647,-2.84217094e-14 Z M171.015413,72.1211209 L170.913531,72.1260408 C170.536361,72.1697705 170.25715,72.4861868 170.249979,72.8555461 L170.254899,72.957428 L178.254899,141.957428 L178.273421,142.057733 C178.364914,142.415653 178.709117,142.659789 179.086286,142.616059 C179.463456,142.57233 179.742667,142.255913 179.749838,141.886554 L179.744918,141.784672 L171.744918,72.7846722 L171.726396,72.6843674 C171.651538,72.3915238 171.40751,72.1748493 171.114669,72.1296906 L171.015413,72.1211209 Z M18.6727431,72.5394963 C18.5098659,72.2079112 18.1229487,72.0394673 17.7627377,72.1595376 C17.3697802,72.2905234 17.1574102,72.7152634 17.2883961,73.1082209 L17.2883961,73.1082209 L40.2883961,142.108221 L40.327074,142.202604 C40.4899512,142.534189 40.8768683,142.702633 41.2370794,142.582563 C41.6300369,142.451577 41.8424068,142.026837 41.711421,141.633879 L41.711421,141.633879 L18.711421,72.6338792 Z M304.023934,84.1213455 L303.922002,84.1251073 C303.544361,84.1645481 303.261572,84.477771 303.250204,84.8470249 L303.253966,84.9489561 L303.525102,87.7431114 L303.721362,89.9192996 C303.876843,91.692025 304.030791,93.5671793 304.178577,95.5189177 L304.251935,96.5010492 L304.36435,98.0619701 C304.729716,103.255334 305.000411,108.345173 305.141799,113.137324 C305.507606,125.535866 304.968327,134.555146 303.306544,138.585138 C303.148639,138.968073 303.331062,139.40651 303.713997,139.564415 C304.096932,139.722319 304.535368,139.539896 304.693273,139.156962 C306.375999,135.076182 306.953993,126.65401 306.69155,115.024535 L306.676404,114.387026 L306.641147,113.093087 C306.49911,108.27893 306.22738,103.169484 305.8607,97.9573711 L305.747882,96.3908497 L305.674292,95.4056135 C305.550748,93.7740226 305.422909,92.1957736 305.293457,90.6857822 L305.215613,89.7880977 L305.059277,88.0447378 C305.018182,87.5964625 304.978551,87.1719884 304.940628,86.7726756 L304.903284,86.3818003 L304.745851,84.793144 C304.709996,84.4498333 304.447875,84.1849133 304.123086,84.1310426 L304.023934,84.1213455 Z M238.420229,94.3951599 C238.181295,94.6862038 238.197978,95.1032365 238.443517,95.374121 L238.524018,95.4507298 L239.48003,96.2670148 L240.375342,97.0594169 C241.101773,97.7111776 241.883913,98.4337066 242.710592,99.2222576 C245.860999,102.227362 249.011656,105.567744 251.950638,109.152499 C259.759097,118.676687 264.658123,128.148207 265.251619,136.921669 C265.279575,137.334938 265.637259,137.647296 266.050528,137.61934 C266.463797,137.591384 266.776155,137.2337 266.748198,136.820431 C266.129233,127.670446 261.098805,117.944883 253.110622,108.20148 C250.129913,104.565829 246.938044,101.181754 243.745926,98.1368625 C242.628281,97.0707653 241.590017,96.1228533 240.657515,95.3041899 C240.395874,95.07449 240.157504,94.868143 239.944092,94.6858588 L239.788739,94.5536686 L239.475799,94.2913703 C239.15565,94.0285435 238.683056,94.0750117 238.420229,94.3951599 Z M80.4999085,31.1210501 C80.1202128,31.1210501 79.8064176,31.403204 79.7567552,31.7692795 L79.7499085,31.8710501 L79.7499085,134.87105 L79.7567552,134.972821 C79.8064176,135.338896 80.1202128,135.62105 80.4999085,135.62105 C80.8796043,135.62105 81.1933995,135.338896 81.2430619,134.972821 L81.2499085,134.87105 L81.2499085,31.8710501 L81.2430619,31.7692795 C81.1933995,31.403204 80.8796043,31.1210501 80.4999085,31.1210501 Z" id="Combined-Shape" fill-opacity="0.25" fill="#FFFFFF"></path>
                    <g id="Course" transform="translate(63.000000, 20.871050)">
                        <g id="Group-70" transform="translate(0.000000, 0.192053)">
                            <path d="M175.910259,111.411528 C175.910259,111.411528 154.063306,112.328908 150.130214,107.105471 C146.197123,101.881394 158.11027,101.757926 158.11027,101.757926 C158.11027,101.757926 141.179041,98.885515 137.63171,90.7480847 C134.083739,82.6112942 155.981871,83.4934889 155.981871,83.4934889 C155.981871,83.4934889 141.47204,73.6690773 139.570107,63.8523424 C137.667535,54.0362473 182.706164,82.247285 182.706164,82.247285 C182.706164,82.247285 183.507752,66.0300006 187.366635,64.0513 C187.366635,64.0513 195.768915,59.3927492 192.528017,80.8993632 C192.528017,80.8993632 205.139755,68.0234152 209.078603,73.8008627 C213.017452,79.5783102 195.667197,89.7321854 195.667197,89.7321854 L175.910259,111.411528 Z"  fill="#E55A28"></path>
                            <circle id="Oval" fill="#E55A28" cx="200.5" cy="65.307947" r="3.5"></circle>
                            <path d="M157.317382,105.70266 C157.317382,105.70266 169.439082,107.619946 173.988239,91.5414842" id="Stroke-3" stroke="#4A00B2" stroke-width="1.34999996" stroke-linecap="round"></path>
                            <path d="M149.306939,91.0112078 C149.306939,91.0112078 173.014882,87.8413205 188.902702,97.1552235 C188.902702,97.1552235 172.938113,81.1791193 150.835906,71.6636997" id="Stroke-5" stroke="#4A00B2" stroke-width="1.34999996" stroke-linecap="round"></path>
                            <path d="M188.085889,71.749808 C188.085889,71.749808 182.495244,77.5272556 188.90283,97.1549676 C188.90283,97.1549676 191.809147,82.2414634 204.332601,77.3967496" id="Stroke-7" stroke="#4A00B2" stroke-width="1.34999996" stroke-linecap="round"></path>
                            <g id="Group-11" transform="translate(166.970857, 84.304289)">
                                <mask id="mask-2" fill="white">
                                    <use xlink:href="#path-1"></use>
                                </mask>
                                <g id="Clip-10"></g>
                                <path d="M8.68952162,33.9812562 C8.68952162,33.9812562 -1.75671254,10.1991045 1.1323311,8.64390851 C4.02201446,7.08807279 11.3565772,17.756295 11.3565772,17.756295 C11.3565772,17.756295 9.13413751,4.63596822 14.9128645,1.41682129 C20.6915915,-1.80296538 23.5812749,13.7560316 23.5812749,13.7560316 C23.5812749,13.7560316 34.4721249,-3.14321038 41.3620718,1.41682129 C48.2520186,5.97685295 33.5828932,21.9791863 33.5828932,21.9791863 C33.5828932,21.9791863 47.5854146,13.9773799 49.5858662,20.2013625 C51.5863178,26.4240657 43.3625234,33.9812562 43.3625234,33.9812562 L8.68952162,33.9812562 Z" id="Fill-9" fill="#FBF272" mask="url(#mask-2)"></path>
                            </g>
                            <path d="M183.860119,94.632876 C183.860119,94.632876 188.85517,106.998955 188.85517,114.64251 L192.234251,114.64251 C192.234251,114.64251 198.614329,95.9923131 203.473756,90.8565198" id="Stroke-12" stroke="#4A00B2" stroke-width="1.34999996" stroke-linecap="round"></path>
                            <path d="M211.14853,108.64269 C211.14853,108.64269 207.128435,108.826294 202.498672,114.642766" id="Stroke-14" stroke="#4A00B2" stroke-width="1.34999996" stroke-linecap="round"></path>
                            <path d="M16.1982842,119.058345 C16.1982842,119.058345 -1.01058951,102.904395 0.0468925815,95.9261645 C1.10437467,88.9479342 10.1969294,98.0404889 10.1969294,98.0404889 C10.1969294,98.0404889 -0.375972308,82.8154337 3.21869912,73.9339916 C6.81401028,65.0525494 22.6736827,82.6043211 22.6736827,82.6043211 C22.6736827,82.6043211 19.2901239,63.9950673 25.4226244,55.1136252 C31.5551249,46.232183 43.8201259,102.270417 43.8201259,102.270417 C43.8201259,102.270417 56.9308566,90.6393938 61.3718976,92.1203805 C61.3718976,92.1203805 71.3108218,95.0804347 52.2787031,108.825783 C52.2787031,108.825783 71.7336867,108.825783 70.2533397,116.226878 C68.7729927,123.628613 47.8383019,117.918977 47.8383019,117.918977 L16.1982842,119.058345 Z" id="Fill-16" fill="#E55A28"></path>
                            <path d="M6.55696473,100.409236 C6.55696473,100.409236 14.2337857,111.204766 30.0678687,102.568342" id="Stroke-18" stroke="#4A00B2" stroke-width="1.34999996" stroke-linecap="round"></path>
                            <path d="M11.8347792,83.1351093 C11.8347792,83.1351093 32.1860316,99.0222904 37.005156,118.308384 C37.005156,118.308384 37.2655282,93.9312786 27.9087628,69.7000329" id="Stroke-20" stroke="#4A00B2" stroke-width="1.34999996" stroke-linecap="round"></path>
                            <path d="M55.9786749,98.489391 C55.9786749,98.489391 47.3006685,98.542489 37.0047721,118.308384 C37.0047721,118.308384 50.7008605,109.28556 63.8953966,115.283716" id="Stroke-22" stroke="#4A00B2" stroke-width="1.34999996" stroke-linecap="round"></path>
                            <path d="M36.0447857,72.3239703 C36.0447857,72.3239703 9.92440225,62.1329904 10.9435002,58.741115 C11.963238,55.3485999 25.7028283,57.8992236 25.7028283,57.8992236 C25.7028283,57.8992236 13.9963161,49.5756305 15.9526259,42.7093538 C17.9095756,35.8424375 31.9856666,45.5184306 31.9856666,45.5184306 C31.9856666,45.5184306 27.4090018,24.3048153 36.1497022,22.5308299 C44.8897629,20.7562047 45.8967059,44.1673101 45.8967059,44.1673101 C45.8967059,44.1673101 50.4848859,27.3749039 56.7600474,30.6004482 C63.0352088,33.8266322 62.5215015,45.8709246 62.5215015,45.8709246 L36.0447857,72.3239703 Z" id="Fill-24" fill="#FBF272"></path>
                            <path d="M24.2608655,48.0068721 C24.2608655,48.0068721 37.5091393,53.6390998 43.3409643,59.4760427 L45.9216556,56.8979103 C45.9216556,56.8979103 36.5642506,37.7883836 36.3569764,30.1595428" id="Stroke-26" stroke="#4A00B2" stroke-width="1.34999996" stroke-linecap="round"></path>
                            <path d="M55.7865625,43.3534391 C55.7865625,43.3534391 52.8572156,46.5610708 53.7598818,54.5340892" id="Stroke-28" stroke="#4A00B2" stroke-width="1.34999996" stroke-linecap="round"></path>
                            <polygon id="Fill-30" fill="#C1C1C6" points="74.7818325 97.294238 72.0802312 100.737292 93.0865724 101.265074"></polygon>
                            <path d="M127.627149,68.1319782 C135.576497,68.1319782 142.021188,74.5760297 142.021188,82.5260175 C142.021188,90.4760054 135.576497,96.9200569 127.627149,96.9200569" id="Stroke-32" stroke="#4A00B2" stroke-width="1.34999996" stroke-linecap="round"></path>
                            <path d="M127.544047,82.1804966 C127.460882,82.2700595 127.371319,82.3596225 127.281756,82.442788 C127.256167,82.314841 127.217782,82.1939311 127.173001,82.0717417 C127.294551,82.1165231 127.4161,82.1549072 127.544047,82.1804966" id="Fill-34" fill="#FFFFFF"></path>
                            <path d="M127.87671,82.2767128 C127.761557,82.2511234 127.652802,82.2184969 127.544047,82.1807525 C127.627213,82.097587 127.710378,82.0080241 127.793544,81.9178214 C127.819133,82.0400108 127.844723,82.1551631 127.87671,82.2767128" id="Fill-36" fill="#FFFFFF"></path>
                            <path d="M128.235025,82.3598144 C128.145462,82.4429799 128.055899,82.5261455 127.972734,82.6093111 C127.93435,82.5005561 127.902363,82.3918011 127.876774,82.2766488 C127.998323,82.3086356 128.113476,82.334225 128.235025,82.3598144" id="Fill-38" fill="#FFFFFF"></path>
                            <path d="M128.081361,82.9801655 C127.959811,82.935384 127.838262,82.8969999 127.710314,82.8714105 C127.79348,82.7818476 127.883043,82.6922847 127.972606,82.6091191 C127.998195,82.7370662 128.036579,82.8586158 128.081361,82.9801655" id="Fill-40" fill="#FFFFFF"></path>
                            <path d="M127.710251,82.8714745 C127.627085,82.9546401 127.543919,83.044203 127.460754,83.1337659 C127.435164,83.0122162 127.409575,82.8970639 127.377588,82.7755142 C127.492741,82.8011036 127.601496,82.8330904 127.710251,82.8714745" id="Fill-42" fill="#FFFFFF"></path>
                            <path d="M127.377588,82.7752583 C127.256039,82.7432716 127.140886,82.7176822 127.019337,82.6920928 C127.1089,82.6089272 127.198462,82.5257617 127.281628,82.4425961 C127.320012,82.5513511 127.351999,82.660106 127.377588,82.7752583" id="Fill-44" fill="#FFFFFF"></path>
                            <path d="M46.0609259,94.0125249 C46.0609259,94.0125249 47.9487842,96.5733845 50.6619006,95.284958 C53.3743774,93.997811 54.6621641,94.5543805 57.3976713,95.6508865 C60.1338183,96.7467527 61.1369229,94.5882865 63.2039069,94.4724945 C65.270891,94.3554229 68.0307081,95.9118984 68.0307081,95.9118984" id="Stroke-46" stroke="#4A00B2" stroke-width="1.34999996" stroke-linecap="round"></path>
                            <polygon id="Fill-48" fill="#C1C1C6" points="123.161158 98.6499645 119.348977 93.857709 102.870041 99.5219235"></polygon>
                            <path d="M179.818336,120.128227 L34.7040289,120.128227 C29.8465204,120.128227 25.908951,115.950894 25.908951,110.797604 L25.908951,9.33081469 C25.908951,4.17752558 29.8465204,0.000191920525 34.7040289,0.000191920525 L179.818336,0.000191920525 C184.675845,0.000191920525 188.613414,4.17752558 188.613414,9.33081469 L188.613414,110.797604 C188.613414,115.950894 184.675845,120.128227 179.818336,120.128227" id="Fill-50" fill="#E8E8EF"></path>
                            <path d="M179.818336,19.7885415 L179.818336,93.4450799 C173.746611,93.4450799 168.824489,98.3672016 168.824489,104.438288 L45.6978763,104.438288 C45.6978763,98.3672016 40.7757545,93.4450799 34.7040289,93.4450799 L34.7040289,19.7885415 C40.7757545,19.7885415 45.6978763,14.8664197 45.6978763,8.79469407 L168.824489,8.79469407 C168.824489,14.8664197 173.746611,19.7885415 179.818336,19.7885415" id="Fill-52" fill="#FFFFFF"></path>
                            <path d="M46.7968772,51.6812545 C46.7968772,51.6812545 68.7839322,45.0849461 92.9697567,50.5815499 C117.154942,56.0781537 120.453416,49.482485 135.844162,49.482485 C151.234909,49.482485 172.122899,53.880024 172.122899,53.880024" id="Stroke-54" stroke="#D7CBC4" stroke-width="1.5" stroke-linecap="round"></path>
                            <path d="M46.7968772,63.7625236 C46.7968772,63.7625236 68.7839322,57.1662152 92.9697567,62.662819 C117.154942,68.1600626 120.453416,61.5637541 135.844162,61.5637541 C151.234909,61.5637541 172.122899,65.9612931 172.122899,65.9612931" id="Stroke-56" stroke="#D7CBC4" stroke-width="1.5" stroke-linecap="round"></path>
                            <path d="M46.7968772,73.6677978 C46.7968772,73.6677978 68.7839322,67.0714893 92.9697567,72.5687329 C102.505648,74.7361554 108.794244,75.0233964 113.857107,74.5762216" id="Stroke-58" stroke="#D7CBC4" stroke-width="1.5" stroke-linecap="round"></path>
                            <polygon id="Fill-60" fill="#F63935" points="158.02269 108.435288 148.128547 99.6402105 138.234404 108.435288 138.234404 88.6470028 158.02269 88.6470028"></polygon>
                            <path d="M148.121446,75.0771981 C148.057473,74.9498909 147.996058,74.8296207 147.925047,74.7048723 C147.781107,74.7042326 147.645483,74.7099902 147.503462,74.7170273 C147.578311,74.5986763 147.6538,74.4803253 147.721612,74.3638935 C147.655719,74.2295492 147.577671,74.1060803 147.493226,73.9845306 C147.641005,73.9986048 147.786865,74.0056419 147.935283,73.9973253 C148.003735,73.8802538 148.069628,73.7574247 148.13552,73.6333161 C148.199494,73.7606233 148.261548,73.8808935 148.332559,74.0062816 C148.476499,74.0062816 148.611483,74.000524 148.753504,73.9941266 C148.678655,74.1118379 148.603167,74.2308286 148.535355,74.3466207 C148.601247,74.480965 148.679295,74.6044339 148.76438,74.7259836 C148.616601,74.7119094 148.470741,74.7048723 148.321043,74.7138286 C148.253871,74.8302604 148.187339,74.9537293 148.121446,75.0771981 M162.108614,56.5197629 C160.996754,56.2139695 159.877218,56.0764265 158.782631,56.0911404 C158.256769,55.130898 157.585687,54.2237537 156.772584,53.4074517 C152.076288,48.6631763 144.412262,48.6267114 139.670546,53.3306835 C138.851685,54.1367497 138.171646,55.0362172 137.635548,55.9951801 C136.539042,55.9734291 135.420146,56.1007364 134.307647,56.3937351 C127.8508,58.0928714 123.991279,64.7090117 125.690415,71.1658578 C125.983414,72.2789969 126.422912,73.314728 126.98204,74.2596167 C126.410117,75.1974683 125.962942,76.2325597 125.663546,77.3418603 C123.902995,83.7846324 127.7075,90.4378772 134.148352,92.1907513 C135.260212,92.4971844 136.379748,92.6340877 137.474335,92.6193738 C138.000197,93.5796162 138.67128,94.4874003 139.484383,95.3037022 C144.180678,100.046698 151.845344,100.084443 156.586421,95.3804705 C157.405282,94.5744042 158.08532,93.6749367 158.621418,92.7153341 C159.718564,92.7370851 160.836821,92.6097778 161.94932,92.3167791 C168.406166,90.6176428 172.265688,84.0015025 170.566552,77.5446564 C170.273553,76.432157 169.834055,75.3957862 169.274926,74.4515372 C169.84685,73.5130459 170.294664,72.4785942 170.59342,71.3686539 C172.353971,64.9265216 168.549467,58.272637 162.108614,56.5197629" id="Fill-62" fill="#EFB14E"></path>
                            <path d="M164.618679,74.3556409 C164.618679,83.4622698 157.235496,90.8454524 148.128867,90.8454524 C139.020959,90.8454524 131.638416,83.4622698 131.638416,74.3556409 C131.638416,65.2483723 139.020959,57.8651897 148.128867,57.8651897 C157.235496,57.8651897 164.618679,65.2483723 164.618679,74.3556409 Z" id="Stroke-64" stroke="#4A00B2" stroke-width="1.34999996" stroke-linecap="round"></path>
                            <path d="M70.9827657,28.5833635 C70.9827657,28.5833635 76.4793695,24.1858245 83.0756779,24.1858245 C89.6713466,24.1858245 94.0688856,27.4836589 97.3673597,29.6824284 C100.665194,31.8811978 109.460272,35.1796719 118.25471,29.6824284 C127.049788,24.1858245 136.943291,24.1858245 141.34083,27.4836589" id="Stroke-66" stroke="#D7CBC4" stroke-width="1.5" stroke-linecap="round"></path>
                            <path d="M48.9956466,91.2130442 C48.9956466,91.2130442 51.158591,94.147509 54.266424,92.6716402 C57.374257,91.1964111 58.8494861,91.834227 61.9835483,93.0906667 C65.1176105,94.3464666 66.2678541,91.8732508 68.6355137,91.7401859 C71.0025335,91.6064813 74.164744,93.3887832 74.164744,93.3887832" id="Stroke-68" stroke="#D7CBC4" stroke-width="1.5" stroke-linecap="round"></path>
                        </g>
                    </g>
                </g>
            </g>
        </g>
    </g>
</svg>