<?xml version="1.0" encoding="UTF-8"?>
<svg width="322px" height="158px" viewBox="0 0 322 158" version="1.1" xmlns="http://www.w3.org/2000/svg" xmlns:xlink="http://www.w3.org/1999/xlink">
    <title>E1C2202D-68F5-452B-A00E-A750AA218BF5</title>
    <defs>
        <polygon id="path-1" points="0.411719679 0.236826264 46.6235972 0.236826264 46.6235972 31.5116381 0.411719679 31.5116381"></polygon>
        <polygon id="path-3" points="0.964993004 0.527506518 70.964993 0.527506518 70.964993 62.2982866 0.964993004 62.2982866"></polygon>
    </defs>
    <g id="Illustration-&amp;-colour-palette-" stroke="none" stroke-width="1" fill="none" fill-rule="evenodd">
        <g id="Quizzes" transform="translate(-1092.000000, -138.000000)">
            <g id="Bitmap" transform="translate(372.000000, 0.000000)">
                <g id="Group-2" transform="translate(720.268034, 138.128950)">
                    <path d="M78.1672647,-2.84217094e-14 C106.627875,-2.84217094e-14 110.185973,125.940502 110.185973,125.940502 L110.197915,125.872263 C110.587845,123.658209 120.517399,68.3068364 138.647625,68.3068364 C157.146813,68.3068364 135.089528,132.343779 144.339122,130.921176 C153.589758,129.498573 147.185391,12.0957743 173.512602,43.4024229 C199.838771,74.7101138 187.742908,123.094253 216.20456,122.382431 C244.665171,121.67165 206.243138,99.6134851 222.607885,78.2671427 C238.973674,56.9218426 280.241976,106.728585 283.800073,119.536182 C283.800073,119.536182 281.665632,50.517523 300.876648,50.517523 C320.088706,50.517523 320.799492,149.42127 320.799492,149.42127 L21.9557874,156.53637 C21.9557874,156.53637 -7.9284788,75.4219365 2.03294328,50.517523 C11.9943654,25.6151939 45.436729,76.8445396 51.8400537,96.0564561 C51.8400537,96.0564561 49.7056121,-2.84217094e-14 78.1672647,-2.84217094e-14 Z M171.015413,72.1211209 L170.913531,72.1260408 C170.536361,72.1697705 170.25715,72.4861868 170.249979,72.8555461 L170.254899,72.957428 L178.254899,141.957428 L178.273421,142.057733 C178.364914,142.415653 178.709117,142.659789 179.086286,142.616059 C179.463456,142.57233 179.742667,142.255913 179.749838,141.886554 L179.744918,141.784672 L171.744918,72.7846722 L171.726396,72.6843674 C171.651538,72.3915238 171.40751,72.1748493 171.114669,72.1296906 L171.015413,72.1211209 Z M18.6727431,72.5394963 C18.5098659,72.2079112 18.1229487,72.0394673 17.7627377,72.1595376 C17.3697802,72.2905234 17.1574102,72.7152634 17.2883961,73.1082209 L17.2883961,73.1082209 L40.2883961,142.108221 L40.327074,142.202604 C40.4899512,142.534189 40.8768683,142.702633 41.2370794,142.582563 C41.6300369,142.451577 41.8424068,142.026837 41.711421,141.633879 L41.711421,141.633879 L18.711421,72.6338792 Z M304.023934,84.1213455 L303.922002,84.1251073 C303.544361,84.1645481 303.261572,84.477771 303.250204,84.8470249 L303.253966,84.9489561 L303.525102,87.7431114 L303.721362,89.9192996 C303.876843,91.692025 304.030791,93.5671793 304.178577,95.5189177 L304.251935,96.5010492 L304.36435,98.0619701 C304.729716,103.255334 305.000411,108.345173 305.141799,113.137324 C305.507606,125.535866 304.968327,134.555146 303.306544,138.585138 C303.148639,138.968073 303.331062,139.40651 303.713997,139.564415 C304.096932,139.722319 304.535368,139.539896 304.693273,139.156962 C306.375999,135.076182 306.953993,126.65401 306.69155,115.024535 L306.676404,114.387026 L306.641147,113.093087 C306.49911,108.27893 306.22738,103.169484 305.8607,97.9573711 L305.747882,96.3908497 L305.674292,95.4056135 C305.550748,93.7740226 305.422909,92.1957736 305.293457,90.6857822 L305.215613,89.7880977 L305.059277,88.0447378 C305.018182,87.5964625 304.978551,87.1719884 304.940628,86.7726756 L304.903284,86.3818003 L304.745851,84.793144 C304.709996,84.4498333 304.447875,84.1849133 304.123086,84.1310426 L304.023934,84.1213455 Z M238.420229,94.3951599 C238.181295,94.6862038 238.197978,95.1032365 238.443517,95.374121 L238.524018,95.4507298 L239.48003,96.2670148 L240.375342,97.0594169 C241.101773,97.7111776 241.883913,98.4337066 242.710592,99.2222576 C245.860999,102.227362 249.011656,105.567744 251.950638,109.152499 C259.759097,118.676687 264.658123,128.148207 265.251619,136.921669 C265.279575,137.334938 265.637259,137.647296 266.050528,137.61934 C266.463797,137.591384 266.776155,137.2337 266.748198,136.820431 C266.129233,127.670446 261.098805,117.944883 253.110622,108.20148 C250.129913,104.565829 246.938044,101.181754 243.745926,98.1368625 C242.628281,97.0707653 241.590017,96.1228533 240.657515,95.3041899 C240.395874,95.07449 240.157504,94.868143 239.944092,94.6858588 L239.788739,94.5536686 L239.475799,94.2913703 C239.15565,94.0285435 238.683056,94.0750117 238.420229,94.3951599 Z M80.4999085,31.1210501 C80.1202128,31.1210501 79.8064176,31.403204 79.7567552,31.7692795 L79.7499085,31.8710501 L79.7499085,134.87105 L79.7567552,134.972821 C79.8064176,135.338896 80.1202128,135.62105 80.4999085,135.62105 C80.8796043,135.62105 81.1933995,135.338896 81.2430619,134.972821 L81.2499085,134.87105 L81.2499085,31.8710501 L81.2430619,31.7692795 C81.1933995,31.403204 80.8796043,31.1210501 80.4999085,31.1210501 Z" id="Combined-Shape" fill-opacity="0.25" fill="#FFFFFF"></path>
                    <g id="Quiz" transform="translate(11.731966, 20.871050)">
                        <path d="M230.407327,114.519372 C230.407327,114.519372 209.917928,115.379772 206.229128,110.480772 C202.540328,105.581773 213.712928,105.465373 213.712928,105.465373 C213.712928,105.465373 197.833329,102.771373 194.506329,95.1399732 C191.179329,87.5079737 211.716728,88.3353736 211.716728,88.3353736 C211.716728,88.3353736 198.108728,79.1211742 196.324329,69.9147747 C194.539929,60.7077752 236.781126,87.1665737 236.781126,87.1665737 C236.781126,87.1665737 237.533526,71.9571746 241.152126,70.1007747 C241.152126,70.1007747 249.032525,65.7315749 245.993526,85.9023737 C245.993526,85.9023737 257.821925,73.8261745 261.516125,79.2453741 C265.210324,84.6639738 248.937125,94.1871733 248.937125,94.1871733 L230.407327,114.519372 Z"  fill="#E55A28"></path>
                        <circle id="Oval" fill="#E55A28" cx="254.5" cy="69.5" r="3.5"></circle>
                        <path d="M212.969528,109.165092 C212.969528,109.165092 224.338327,110.963892 228.604927,95.8840932" id="Stroke-3" stroke="#4A00B2" stroke-width="0.899999946" stroke-linecap="round"></path>
                        <path d="M205.456628,95.3861532 C205.456628,95.3861532 227.692027,92.4137534 242.593026,101.148553 C242.593026,101.148553 227.619427,86.1653537 206.890628,77.2403543" id="Stroke-5" stroke="#4A00B2" stroke-width="0.899999946" stroke-linecap="round"></path>
                        <path d="M241.826946,77.3211143 C241.826946,77.3211143 236.583546,82.7397139 242.593146,101.148913 C242.593146,101.148913 245.318946,87.1611137 257.064545,82.6173139" id="Stroke-7" stroke="#4A00B2" stroke-width="0.899999946" stroke-linecap="round"></path>
                        <g id="Group-11" transform="translate(222.199987, 89.455394)">
                            <mask id="mask-2" fill="white">
                                <use xlink:href="#path-1"></use>
                            </mask>
                            <g id="Clip-10"></g>
                            <path d="M7.97327952,31.5116381 C7.97327952,31.5116381 -1.82411989,9.20663945 0.885479947,7.74743954 C3.59567979,6.28823963 10.4746794,16.294439 10.4746794,16.294439 C10.4746794,16.294439 8.3902795,3.98843976 13.8100792,0.969239942 C19.2298789,-2.05055988 21.9400787,12.5420393 21.9400787,12.5420393 C21.9400787,12.5420393 32.1544781,-3.3075598 38.6164777,0.969239942 C45.0784773,5.24603969 31.3204781,20.2544388 31.3204781,20.2544388 C31.3204781,20.2544388 44.4532774,12.7502392 46.3294772,18.5870389 C48.2056771,24.4238385 40.4926776,31.5116381 40.4926776,31.5116381 L7.97327952,31.5116381 Z" id="Fill-9" fill="#FFEB4E" mask="url(#mask-2)"></path>
                        </g>
                        <path d="M237.863646,98.783413 C237.863646,98.783413 242.548446,110.381412 242.548446,117.550212 L245.717646,117.550212 C245.717646,117.550212 251.700845,100.057813 256.259045,95.2416132" id="Stroke-12" stroke="#4A00B2" stroke-width="0.899999946" stroke-linecap="round"></path>
                        <path d="M263.457125,111.922512 C263.457125,111.922512 259.686725,112.095312 255.344525,117.550512" id="Stroke-14" stroke="#4A00B2" stroke-width="0.899999946" stroke-linecap="round"></path>
                        <g id="Group-18" transform="translate(0.000000, 63.055395)">
                            <mask id="mask-4" fill="white">
                                <use xlink:href="#path-3"></use>
                            </mask>
                            <g id="Clip-17"></g>
                            <path d="M18.1920548,63.5672178 C18.1920548,63.5672178 2.05265581,48.4166187 3.04385575,41.8718191 C4.03565569,35.3270195 12.5640552,43.854819 12.5640552,43.854819 C12.5640552,43.854819 2.64725577,29.5754198 6.01865557,21.2456203 C9.39065537,12.9152208 24.2652545,29.3774199 24.2652545,29.3774199 C24.2652545,29.3774199 21.0918547,11.9240209 26.8434543,3.59422139 C32.595054,-4.73617811 44.0982533,47.8220188 44.0982533,47.8220188 C44.0982533,47.8220188 56.3946526,36.9134194 60.5598523,38.3018193 C60.5598523,38.3018193 69.8814518,41.0786192 52.0314528,53.9702184 C52.0314528,53.9702184 70.2780517,53.9702184 68.8896518,60.911618 C67.5018519,67.8536176 47.8668531,62.4986179 47.8668531,62.4986179 L18.1920548,63.5672178 Z" id="Fill-16" fill="#E55A28" mask="url(#mask-4)"></path>
                        </g>
                        <path d="M9.14957539,109.131234 C9.14957539,109.131234 16.349575,119.256833 31.2007741,111.156234" id="Stroke-19" stroke="#4A00B2" stroke-width="0.899999946" stroke-linecap="round"></path>
                        <path d="M14.0998751,92.9306349 C14.0998751,92.9306349 33.187074,107.831034 37.7068737,125.919233 C37.7068737,125.919233 37.9510737,103.056234 29.1754742,80.3300357" id="Stroke-21" stroke="#4A00B2" stroke-width="0.899999946" stroke-linecap="round"></path>
                        <path d="M57.5018569,105.159613 C57.5018569,105.159613 49.3628574,105.209413 39.7064579,123.747611 C39.7064579,123.747611 52.5518572,115.285212 64.9268564,120.910212" id="Stroke-23" stroke="#4A00B2" stroke-width="0.899999946" stroke-linecap="round"></path>
                        <path d="M42.7593389,84.7246546 C42.7593389,84.7246546 12.4219222,78.2874738 13.2639551,70.0517963 C14.1059881,61.8161188 27.1065543,69.2621963 27.1065543,69.2621963 C27.1065543,69.2621963 16.126555,61.4555968 17.9619549,55.0151972 C19.7973548,48.5753976 32.999154,57.650397 32.999154,57.650397 C32.999154,57.650397 28.7067542,37.7543982 36.9045537,36.0899983 C45.1017532,34.4261984 46.0461532,56.3825971 46.0461532,56.3825971 C46.0461532,56.3825971 50.3493529,40.6331981 56.2347526,43.6589979 C62.1201522,46.6847977 61.6377523,57.980997 61.6377523,57.980997 L42.7593389,84.7246546 Z" id="Fill-25" fill="#FFEB4E"></path>
                        <path d="M25.7541544,59.9839769 C25.7541544,59.9839769 38.1795537,65.2669766 43.6491533,70.7407763 L46.0689532,68.3221764 C46.0689532,68.3221764 37.2927537,50.4001775 37.0989537,43.2457779" id="Stroke-27" stroke="#4A00B2" stroke-width="0.899999946" stroke-linecap="round"></path>
                        <path d="M57.3216769,53.4482557 C57.3216769,53.4482557 54.574277,56.4566555 55.420877,63.9344551" id="Stroke-29" stroke="#4A00B2" stroke-width="0.899999946" stroke-linecap="round"></path>
                        <polygon id="Fill-31" fill="#F63935" points="213.631028 111.727932 204.351428 103.479733 195.071829 111.727932 195.071829 93.1687333 213.631028 93.1687333"></polygon>
                        <path d="M229,118.799993 L39,118.799993 L39,7.19999957 C39,3.22379981 42.1654884,0 46.0697674,0 L221.930233,0 C225.834512,0 229,3.22379981 229,7.19999957 L229,118.799993 Z" id="Fill-33" fill="#6B7B75"></path>
                        <path d="M217.29999,104.599994 L52.5999998,104.599994 C50.6121999,104.599994 49,102.988395 49,101 L49,14.5999998 C49,12.6121999 50.6121999,11 52.5999998,11 L217.29999,11 C219.28839,11 220.89999,12.6121999 220.89999,14.5999998 L220.89999,101 C220.89999,102.988395 219.28839,104.599994 217.29999,104.599994" id="Fill-35" fill="#FFFFFF"></path>
                        <path d="M244.982526,112.635012 L244.982526,121.335012 C244.982526,122.991612 243.638526,124.335011 241.982526,124.335011 L27.4825388,124.335011 C25.8265388,124.335011 24.4825388,122.991612 24.4825388,121.335012 L24.4825388,112.635012 L24.6325388,112.635012 C25.1665388,114.705012 27.0445387,116.235012 29.2825386,116.235012 L240.182526,116.235012 C242.420526,116.235012 244.298526,114.705012 244.832526,112.635012 L244.982526,112.635012 Z" id="Fill-37" fill="#262626"></path>
                        <path d="M244.832526,112.635012 C244.298526,114.705012 242.420526,116.235012 240.182526,116.235012 L29.2825386,116.235012 C27.0445387,116.235012 25.1665388,114.705012 24.6325388,112.635012 L244.832526,112.635012 Z" id="Fill-39" fill="#394843"></path>
                        <path d="M117.182533,86 L69.4825367,86 C64.5121365,86 60.4825367,81.9703992 60.4825367,77 C60.4825367,72.0295998 64.5121365,68 69.4825367,68 L117.182533,68 C122.152933,68 126.182533,72.0295998 126.182533,77 C126.182533,81.9703992 122.152933,86 117.182533,86 Z" id="Stroke-41" stroke="#D7CBC4" stroke-width="1.5" stroke-linecap="round"></path>
                        <path d="M76.6825357,76.9999995 C76.6825357,80.4799993 73.8619359,83.2999991 70.3825361,83.2999991 C66.9031363,83.2999991 64.0825365,80.4799993 64.0825365,76.9999995 C64.0825365,73.5205997 66.9031363,70.6999998 70.3825361,70.6999998 C73.8619359,70.6999998 76.6825357,73.5205997 76.6825357,76.9999995" id="Fill-43" fill="#E4FFEF"></path>
                        <polyline id="Stroke-1" stroke="#00B246" stroke-width="1.5" stroke-linecap="round" stroke-linejoin="round" transform="translate(71.000000, 77.164984) rotate(-18.000000) translate(-71.000000, -77.164984) " points="68 76.8649837 69.2155602 78.6649837 74 75.6649837"></polyline>
                        <path d="M199.982528,86 L152.282532,86 C147.312132,86 143.282532,81.9703992 143.282532,77 C143.282532,72.0295998 147.312132,68 152.282532,68 L199.982528,68 C204.952928,68 208.982528,72.0295998 208.982528,77 C208.982528,81.9703992 204.952928,86 199.982528,86 Z" id="Stroke-45" stroke="#D7CBC4" stroke-width="1.5" stroke-linecap="round"></path>
                        <path d="M159.482531,76.9999995 C159.482531,80.4799993 156.661931,83.2999991 153.182531,83.2999991 C149.703131,83.2999991 146.882532,80.4799993 146.882532,76.9999995 C146.882532,73.5205997 149.703131,70.6999998 153.182531,70.6999998 C156.661931,70.6999998 159.482531,73.5205997 159.482531,76.9999995" id="Fill-47" fill="#FDECE7"></path>
                        <path d="M134.799996,43.5999998 L62.7999999,43.5999998 C61.8058,43.5999998 61,42.7941998 61,41.7999999 C61,40.8064 61.8058,40 62.7999999,40 L134.799996,40 C135.794196,40 136.599995,40.8064 136.599995,41.7999999 C136.599995,42.7941998 135.794196,43.5999998 134.799996,43.5999998" id="Fill-57" fill="#EAE1D7"></path>
                        <path d="M134.799996,33.5999998 L62.7999999,33.5999998 C61.8058,33.5999998 61,32.7941998 61,31.7999999 C61,30.8064 61.8058,30 62.7999999,30 L134.799996,30 C135.794196,30 136.599995,30.8064 136.599995,31.7999999 C136.599995,32.7941998 135.794196,33.5999998 134.799996,33.5999998" id="Fill-57-Copy" fill="#EAE1D7"></path>
                        <path d="M111,52.5999998 L85.7999999,52.5999998 C84.8058,52.5999998 84,51.7941998 84,50.7999999 C84,49.8064 84.8058,49 85.7999999,49 L111,49 C111.994198,49 112.799998,49.8064 112.799998,50.7999999 C112.799998,51.7941998 111.994198,52.5999998 111,52.5999998" id="Fill-59" fill="#EAE1D7"></path>
                        <path d="M175.864,42.838 L175.864,42.084 C175.864,41.7373333 175.911667,41.4383333 176.007,41.187 C176.102333,40.9356667 176.284333,40.6843333 176.553,40.433 C176.821667,40.1816667 177.216,39.8653333 177.736,39.484 C178.412,38.9986667 178.975333,38.5306667 179.426,38.08 C179.876667,37.6293333 180.214667,37.144 180.44,36.624 C180.665333,36.104 180.778,35.4886667 180.778,34.778 C180.778,33.4433333 180.279667,32.3426667 179.283,31.476 C178.286333,30.6093333 176.886667,30.176 175.084,30.176 C173.905333,30.176 172.822,30.3233333 171.834,30.618 C170.846,30.9126667 169.927333,31.294 169.078,31.762 L169.078,31.762 L170.456,34.544 C171.201333,34.1626667 171.929333,33.8593333 172.64,33.634 C173.350667,33.4086667 174.07,33.296 174.798,33.296 C175.526,33.296 176.093667,33.4433333 176.501,33.738 C176.908333,34.0326667 177.112,34.4486667 177.112,34.986 C177.112,35.5406667 176.943,36.0216667 176.605,36.429 C176.267,36.8363333 175.708,37.3173333 174.928,37.872 C174.044,38.5133333 173.42,39.133 173.056,39.731 C172.692,40.329 172.51,41.0526667 172.51,41.902 L172.51,41.902 L172.51,42.838 L175.864,42.838 Z M174.33,49.338 C174.936667,49.338 175.456667,49.169 175.89,48.831 C176.323333,48.493 176.54,47.9426667 176.54,47.18 C176.54,46.3826667 176.323333,45.8236667 175.89,45.503 C175.456667,45.1823333 174.936667,45.022 174.33,45.022 C173.706,45.022 173.177333,45.1823333 172.744,45.503 C172.310667,45.8236667 172.094,46.3826667 172.094,47.18 C172.094,47.9426667 172.310667,48.493 172.744,48.831 C173.177333,49.169 173.706,49.338 174.33,49.338 Z" id="?" fill="#FADED4"></path>
                        <path d="M180.31405,26.6005973 C180.31405,26.6005973 183.807249,24.1237974 187.745049,21.7741976" id="Stroke-73" stroke="#FFFFFF" stroke-width="1.19999993" stroke-linecap="round"></path>
                    </g>
                </g>
            </g>
        </g>
    </g>
</svg>