<?xml version="1.0" encoding="UTF-8"?>
<svg width="322px" height="199px" viewBox="0 0 322 199" version="1.1" xmlns="http://www.w3.org/2000/svg" xmlns:xlink="http://www.w3.org/1999/xlink">
    <title>4A749289-E34F-4AE9-A436-FEE539782F12</title>
    <defs>
        <polygon id="path-1" points="0.268034043 0.128949929 321.067526 0.128949929 321.067526 156.665007 0.268034043 156.665007"></polygon>
    </defs>
    <g id="TV-Programs" stroke="none" stroke-width="1" fill="none" fill-rule="evenodd">
        <g transform="translate(-1092.000000, -96.000000)" id="Bitmap">
            <g transform="translate(372.000000, 0.000000)">
                <g id="Group-15" transform="translate(720.000000, 96.000000)">
                    <g id="Group-14" transform="translate(0.000000, 42.000000)">
                        <mask id="mask-2" fill="white">
                            <use xlink:href="#path-1"></use>
                        </mask>
                        <g id="Clip-2"></g>
                        <path d="M78.4352988,0.128949929 C106.895909,0.128949929 110.454007,126.069452 110.454007,126.069452 L110.465949,126.001213 C110.855879,123.787158 120.785433,68.4357863 138.915659,68.4357863 C157.414847,68.4357863 135.357562,132.472729 144.607156,131.050126 C153.857792,129.627523 147.453425,12.2247242 173.780636,43.5313729 C200.106805,74.8390637 188.010942,123.223203 216.472594,122.51138 C244.933205,121.8006 206.511172,99.742435 222.875919,78.3960927 C239.241708,57.0507925 280.51001,106.857535 284.068107,119.665132 C284.068107,119.665132 281.933666,50.6464729 301.144682,50.6464729 C320.35674,50.6464729 321.067526,149.55022 321.067526,149.55022 L22.2238215,156.66532 C22.2238215,156.66532 -7.66044475,75.5508864 2.30097732,50.6464729 C12.2623994,25.7441439 45.704763,76.9734895 52.1080877,96.1854061 C52.1080877,96.1854061 49.9736462,0.128949929 78.4352988,0.128949929 Z M171.283447,72.2500708 L171.181565,72.2549907 C170.804396,72.2987205 170.525184,72.6151368 170.518013,72.984496 L170.522933,73.0863779 L178.522933,142.086378 L178.541455,142.186683 C178.632948,142.544603 178.977151,142.788739 179.35432,142.745009 C179.73149,142.70128 180.010701,142.384863 180.017872,142.015504 L180.012952,141.913622 L172.012952,72.9136221 L171.99443,72.8133173 C171.919572,72.5204737 171.675545,72.3037993 171.382703,72.2586405 L171.283447,72.2500708 Z M18.9407771,72.6684462 C18.7778999,72.3368611 18.3909828,72.1684172 18.0307718,72.2884875 C17.6378143,72.4194734 17.4254443,72.8442133 17.5564301,73.2371708 L17.5564301,73.2371708 L40.5564301,142.237171 L40.5951081,142.331554 C40.7579852,142.663139 41.1449024,142.831583 41.5051134,142.711512 C41.8980709,142.580527 42.1104409,142.155787 41.9794551,141.762829 L41.9794551,141.762829 L18.9794551,72.7628292 Z M304.291968,84.2502954 L304.190037,84.2540572 C303.812395,84.293498 303.529606,84.606721 303.518238,84.9759749 L303.522,85.0779061 L303.793136,87.8720614 L303.989396,90.0482495 C304.144877,91.8209749 304.298825,93.6961293 304.446611,95.6478676 L304.519969,96.6299991 L304.632384,98.19092 C304.99775,103.384284 305.268446,108.474123 305.409833,113.266274 C305.77564,125.664816 305.236361,134.684096 303.574578,138.714088 C303.416673,139.097023 303.599096,139.53546 303.982031,139.693365 C304.364966,139.851269 304.803403,139.668846 304.961307,139.285912 C306.644033,135.205132 307.222027,126.78296 306.959585,115.153485 L306.944438,114.515976 L306.909181,113.222037 C306.767144,108.407879 306.495414,103.298434 306.128734,98.086321 L306.015916,96.5197997 L305.942326,95.5345634 C305.818782,93.9029725 305.690943,92.3247235 305.561491,90.8147322 L305.483647,89.9170476 L305.327311,88.1736878 C305.286216,87.7254124 305.246585,87.3009383 305.208662,86.9016255 L305.171318,86.5107502 L305.013885,84.9220939 C304.97803,84.5787832 304.715909,84.3138632 304.391121,84.2599925 L304.291968,84.2502954 Z M238.688263,94.5241099 C238.449329,94.8151538 238.466012,95.2321864 238.711552,95.503071 L238.792052,95.5796797 L239.748064,96.3959647 L240.643376,97.1883669 C241.369807,97.8401275 242.151947,98.5626566 242.978626,99.3512075 C246.129033,102.356312 249.27969,105.696694 252.218672,109.281449 C260.027131,118.805637 264.926157,128.277157 265.519653,137.050619 C265.547609,137.463888 265.905293,137.776246 266.318562,137.74829 C266.731831,137.720334 267.044189,137.36265 267.016232,136.949381 C266.397267,127.799396 261.366839,118.073832 253.378656,108.33043 C250.397947,104.694779 247.206078,101.310704 244.01396,98.2658125 C242.896315,97.1997152 241.858051,96.2518033 240.925549,95.4331398 C240.663908,95.2034399 240.425538,94.9970929 240.212126,94.8148088 L240.056773,94.6826185 L239.743833,94.4203203 C239.423684,94.1574934 238.95109,94.2039616 238.688263,94.5241099 Z M80.7679426,31.25 C80.3882468,31.25 80.0744516,31.5321539 80.0247892,31.8982294 L80.0179426,32 L80.0179426,135 L80.0247892,135.101771 C80.0744516,135.467846 80.3882468,135.75 80.7679426,135.75 C81.1476383,135.75 81.4614335,135.467846 81.511096,135.101771 L81.5179426,135 L81.5179426,32 L81.511096,31.8982294 C81.4614335,31.5321539 81.1476383,31.25 80.7679426,31.25 Z" id="Combined-Shape" fill-opacity="0.25" fill="#FFFFFF" mask="url(#mask-2)"></path>
                    </g>
                    <g id="Group-63" transform="translate(21.000000, 0.000000)">
                        <path d="M215.214786,177.877697 C215.214786,177.877697 191.310487,178.881497 187.006887,173.165997 C182.703287,167.449797 195.737987,167.314697 195.737987,167.314697 C195.737987,167.314697 177.211787,164.171697 173.330287,155.268397 C169.448787,146.364398 193.409087,147.329697 193.409087,147.329697 C193.409087,147.329697 177.533087,136.579798 175.451287,125.838298 C173.369487,115.097498 222.650886,145.966098 222.650886,145.966098 C222.650886,145.966098 223.528686,128.221098 227.750386,126.055998 C227.750386,126.055998 236.944186,120.958598 233.398686,144.491198 C233.398686,144.491198 247.198486,130.402298 251.508386,136.723998 C255.818286,143.045698 236.832886,154.156097 236.832886,154.156097 L215.214786,177.877697 Z" fill="#FF0F24"></path>
                        <path d="M186.105637,155.555607 C186.105637,155.555607 212.046936,152.087107 229.431436,162.278407 C229.431436,162.278407 211.962236,144.798008 187.778637,134.385508" id="Stroke-3" stroke="#5400BA" stroke-width="1.04999998" stroke-linecap="round"></path>
                        <path d="M228.537676,134.479728 C228.537676,134.479728 222.420376,140.801428 229.431576,162.278127 C229.431576,162.278127 232.611676,145.959728 246.314876,140.658628" id="Stroke-5" stroke="#5400BA" stroke-width="1.04999998" stroke-linecap="round"></path>
                        <path d="M214.941716,185.399267 C214.941716,185.399267 203.511417,159.376767 206.672616,157.675067 C209.834516,155.972667 217.860016,167.645867 217.860016,167.645867 C217.860016,167.645867 215.428216,153.289567 221.751316,149.767167 C228.074416,146.244068 231.236316,163.268767 231.236316,163.268767 C231.236316,163.268767 243.153116,144.777568 250.692116,149.767167 C258.231116,154.756767 242.180116,172.266567 242.180116,172.266567 C242.180116,172.266567 257.501716,163.510967 259.690616,170.321267 C261.879516,177.130167 252.881016,185.399267 252.881016,185.399267 L214.941716,185.399267 Z" id="Fill-7" fill="#FFD01F"></path>
                        <path d="M223.913896,159.518447 C223.913896,159.518447 229.379496,173.049447 229.379496,181.413747 L233.076896,181.413747 C233.076896,181.413747 240.057296,161.005947 245.375196,155.386347" id="Stroke-9" stroke="#5400BA" stroke-width="1.04999998" stroke-linecap="round"></path>
                        <path d="M17.7242097,183.299967 C17.7242097,183.299967 -1.10578998,165.624267 0.0513099991,157.988667 C1.20840998,150.353067 11.1575098,160.302167 11.1575098,160.302167 C11.1575098,160.302167 -0.411389993,143.642868 3.52190994,133.924768 C7.45590987,124.205968 24.8096096,143.411168 24.8096096,143.411168 C24.8096096,143.411168 21.1073096,123.049568 27.8175095,113.330768 C34.5277094,103.612668 47.9481092,164.930567 47.9481092,164.930567 C47.9481092,164.930567 62.2939089,152.203867 67.1533089,153.823667 C67.1533089,153.823667 78.0285087,157.063267 57.203509,172.103467 C57.203509,172.103467 78.4912087,172.103467 76.8714087,180.201767 C75.2516087,188.300767 52.3448091,182.052567 52.3448091,182.052567 L17.7242097,183.299967 Z" id="Fill-11" fill="#FF0F24"></path>
                        <path d="M7.17464988,162.893357 C7.17464988,162.893357 15.5746497,174.706557 32.9003494,165.255857" id="Stroke-13" stroke="#5400BA" stroke-width="1.04999998" stroke-linecap="round"></path>
                        <path d="M12.9496498,143.992658 C12.9496498,143.992658 35.2180494,161.376457 40.4911493,182.479357 C40.4911493,182.479357 40.7760493,155.805857 30.5378495,129.291958" id="Stroke-15" stroke="#5400BA" stroke-width="1.04999998" stroke-linecap="round"></path>
                        <path d="M39.4402393,132.162378 C39.4402393,132.162378 10.8592398,121.012078 11.9743398,117.300678 C13.0901398,113.588578 28.1240395,116.379478 28.1240395,116.379478 C28.1240395,116.379478 15.3147397,107.271778 17.4553397,99.7579783 C19.5966397,92.2448784 34.9987394,102.832378 34.9987394,102.832378 C34.9987394,102.832378 29.9909395,79.6203786 39.5550393,77.6785787 C49.1184392,75.7374787 50.2202391,101.353278 50.2202391,101.353278 C50.2202391,101.353278 55.2406391,82.9789786 62.1069389,86.5090785 C68.9732388,90.0391785 68.4111388,103.218078 68.4111388,103.218078 L39.4402393,132.162378 Z" id="Fill-17" fill="#FFD01F"></path>
                        <path d="M26.5463095,105.554888 C26.5463095,105.554888 41.0426093,111.717688 47.4238092,118.104488 L50.2476091,115.282788 C50.2476091,115.282788 40.0087093,94.3737884 39.7819093,86.0269885" id="Stroke-19" stroke="#5400BA" stroke-width="1.04999998" stroke-linecap="round"></path>
                        <polygon id="Fill-21" fill="#1B2023" points="53.9464791 173.676367 61.9719789 183.708767 198.411077 183.708767 206.437276 173.676367"></polygon>
                        <path d="M230.517696,48.6087692 L230.517696,170.331767 C230.517696,173.285767 228.116696,175.679767 225.162696,175.679767 L41.2376993,175.679767 C38.2836993,175.679767 35.8896994,173.285767 35.8896994,170.331767 L35.8896994,48.6087692 C35.8896994,45.6547692 38.2836993,43.2544693 41.2376993,43.2544693 L108.122698,43.2544693 C108.122698,37.0797694 118.993698,31.9837695 132.993698,31.3047695 L134.848698,36.4077694 L136.213698,35.9107694 L137.571698,36.4077694 L139.433698,31.3047695 C153.433697,31.9837695 164.304697,37.0797694 164.304697,43.2544693 L225.162696,43.2544693 C228.116696,43.2544693 230.517696,45.6547692 230.517696,48.6087692" id="Fill-23" fill="#6A7F78"></path>
                        <polygon id="Fill-25" fill="#263343" points="45.9199992 167.656997 174.333597 167.656997 174.333597 53.2888991 45.9199992 53.2888991"></polygon>
                        <polygon id="Fill-27" fill="#7C9C92" points="55.966119 62.6928389 45.9204192 53.2890391 174.334017 53.2890391 164.288317 62.6928389"></polygon>
                        <polygon id="Fill-28" fill="#7C9C92" points="45.9204192 167.657277 55.1100191 158.079177 165.143717 158.079177 174.334017 167.657277"></polygon>
                        <polygon id="Fill-29" fill="#99B0A8" points="55.966119 62.6928389 55.1100191 158.079737 45.9204192 167.657137 45.9204192 53.2890391"></polygon>
                        <polygon id="Fill-30" fill="#99B0A8" points="164.288107 62.6928389 174.333807 53.2890391 174.333807 167.657137 165.144207 158.079737"></polygon>
                        <polygon id="Fill-31" fill="#F2F0F0" opacity="0.208054315" points="186.372897 167.656997 220.482496 167.656997 220.482496 53.2888991 186.372897 53.2888991"></polygon>
                        <path d="M169.317607,112.479638 C169.317607,128.584538 167.832907,143.967038 165.144207,158.079737 C148.584307,161.637837 129.897808,163.644037 110.127008,163.644037 C90.3569085,163.644037 71.6697088,161.637837 55.1105091,158.079737 C52.4211091,143.967038 50.9364091,128.584538 50.9364091,112.479638 C50.9364091,94.7689384 52.7291091,77.9150387 55.965909,62.6928389 C72.3123088,59.241139 90.7048085,57.302139 110.127008,57.302139 C129.549208,57.302139 147.941707,59.241139 164.288107,62.6928389 C167.524907,77.9150387 169.317607,94.7689384 169.317607,112.479638" id="Fill-32" fill="#E8E8F0"></path>
                        <path d="M164.301407,112.309468 C164.301407,123.144768 163.567107,133.623068 162.200707,143.544868 C161.323607,149.912767 156.385807,154.977967 150.041707,156.010467 C137.633508,158.030667 124.179508,159.138067 110.127008,159.138067 C96.0752084,159.138067 82.6205086,158.030667 70.2123088,156.010467 C63.8682089,154.977967 58.930409,149.912767 58.054009,143.544868 C56.686909,133.623068 55.952609,123.144768 55.952609,112.309468 C55.952609,99.9719683 56.903209,88.0887685 58.663709,76.9727687 C59.651409,70.7371688 64.5710089,65.8434689 70.8045088,64.8438689 C83.0503086,62.8817689 96.3034084,61.8079689 110.127008,61.8079689 C123.950608,61.8079689 137.204408,62.8817689 149.450207,64.8438689 C155.683007,65.8434689 160.603307,70.7371688 161.590307,76.9727687 C163.351507,88.0887685 164.301407,99.9719683 164.301407,112.309468" id="Fill-33" fill="#FFFFFF"></path>
                        <path d="M160.114707,72.5242688 C157.947507,76.0557687 154.309607,78.5708687 150.042407,79.2659687 C137.628608,81.2861686 124.185808,82.3963686 110.127008,82.3963686 C96.0682084,82.3963686 82.6254086,81.2861686 70.2123088,79.2659687 C65.9451089,78.5708687 62.3065089,76.0557687 60.139309,72.5242688 C62.2260089,68.4978688 66.1460089,65.5956689 70.8010088,64.8459689 C83.0531086,62.8803689 96.3090084,61.8093689 110.127008,61.8093689 C123.945008,61.8093689 137.200908,62.8803689 149.453707,64.8459689 C154.108007,65.5956689 158.028007,68.4978688 160.114707,72.5242688" id="Fill-34" fill="#000000" opacity="0.0286458333"></path>
                        <path d="M210.920776,105.717568 C210.920776,110.266168 207.281476,113.953768 202.792377,113.953768 C198.303977,113.953768 194.664677,110.266168 194.664677,105.717568 C194.664677,101.168268 198.303977,97.4806683 202.792377,97.4806683 C207.281476,97.4806683 210.920776,101.168268 210.920776,105.717568" id="Fill-35" fill="#263343"></path>
                        <path d="M210.449816,105.457098 C210.449816,109.889498 206.856716,113.482598 202.424317,113.482598 C197.991917,113.482598 194.398117,109.889498 194.398117,105.457098 C194.398117,101.024698 197.991917,97.4308983 202.424317,97.4308983 C206.856716,97.4308983 210.449816,101.024698 210.449816,105.457098" id="Fill-36" fill="#3B5E53"></path>
                        <path d="M207.700356,106.423028 C207.700356,108.917128 205.678756,110.937328 203.185357,110.937328 C200.692657,110.937328 198.671057,108.917128 198.671057,106.423028 C198.671057,103.929628 200.692657,101.908728 203.185357,101.908728 C205.678756,101.908728 207.700356,103.929628 207.700356,106.423028" id="Fill-37" fill-opacity="0.25" fill="#000000"></path>
                        <path d="M206.938546,105.457098 C206.938546,107.950498 204.917647,109.971398 202.424247,109.971398 C199.930847,109.971398 197.909947,107.950498 197.909947,105.457098 C197.909947,102.962998 199.930847,100.942798 202.424247,100.942798 C204.917647,100.942798 206.938546,102.962998 206.938546,105.457098" id="Fill-38" fill="#AEEBFF"></path>
                        <path d="M210.920776,84.7920486 C210.920776,89.3406485 207.281476,93.0282484 202.792377,93.0282484 C198.303977,93.0282484 194.664677,89.3406485 194.664677,84.7920486 C194.664677,80.2434486 198.303977,76.5551487 202.792377,76.5551487 C207.281476,76.5551487 210.920776,80.2434486 210.920776,84.7920486" id="Fill-39" fill="#263343"></path>
                        <path d="M210.449816,84.5316486 C210.449816,88.9640485 206.856716,92.5578484 202.424317,92.5578484 C197.991917,92.5578484 194.398117,88.9640485 194.398117,84.5316486 C194.398117,80.0992486 197.991917,76.5054487 202.424317,76.5054487 C206.856716,76.5054487 210.449816,80.0992486 210.449816,84.5316486" id="Fill-40" fill="#3B5E53"></path>
                        <path d="M207.700356,85.4982085 C207.700356,87.9916085 205.678756,90.0125085 203.185357,90.0125085 C200.692657,90.0125085 198.671057,87.9916085 198.671057,85.4982085 C198.671057,83.0041086 200.692657,80.9832086 203.185357,80.9832086 C205.678756,80.9832086 207.700356,83.0041086 207.700356,85.4982085" id="Fill-41" fill-opacity="0.25" fill="#000000"></path>
                        <path d="M206.938546,84.5316486 C206.938546,87.0250485 204.917647,89.0459485 202.424247,89.0459485 C199.930847,89.0459485 197.909947,87.0250485 197.909947,84.5316486 C197.909947,82.0382486 199.930847,80.0173486 202.424247,80.0173486 C204.917647,80.0173486 206.938546,82.0382486 206.938546,84.5316486" id="Fill-42" fill="#AEEBFF"></path>
                        <path d="M210.920776,63.8665989 C210.920776,68.4151988 207.281476,72.1034988 202.792377,72.1034988 C198.303977,72.1034988 194.664677,68.4151988 194.664677,63.8665989 C194.664677,59.317999 198.303977,55.6303991 202.792377,55.6303991 C207.281476,55.6303991 210.920776,59.317999 210.920776,63.8665989" id="Fill-43" fill="#263343"></path>
                        <path d="M210.449816,63.6061289 C210.449816,68.0385288 206.856716,71.6323288 202.424317,71.6323288 C197.991917,71.6323288 194.398117,68.0385288 194.398117,63.6061289 C194.398117,59.173729 197.991917,55.5806291 202.424317,55.5806291 C206.856716,55.5806291 210.449816,59.173729 210.449816,63.6061289" id="Fill-44" fill="#3B5E53"></path>
                        <path d="M139.433628,31.3049795 L137.571628,36.4079794 L136.213628,35.9109794 L134.848628,36.4079794 L132.993628,31.3049795 C133.686628,31.2622795 134.393628,31.2419795 135.100628,31.2342795 C135.471628,31.2209795 135.842628,31.2209795 136.213628,31.2209795 C136.584628,31.2209795 136.955628,31.2209795 137.319628,31.2342795 C138.033628,31.2419795 138.740628,31.2622795 139.433628,31.3049795" id="Fill-45" fill="#6A7F78"></path>
                        <path d="M207.700356,64.5727589 C207.700356,67.0661589 205.678756,69.0870588 203.185357,69.0870588 C200.692657,69.0870588 198.671057,67.0661589 198.671057,64.5727589 C198.671057,62.0786589 200.692657,60.058459 203.185357,60.058459 C205.678756,60.058459 207.700356,62.0786589 207.700356,64.5727589" id="Fill-46" fill-opacity="0.25" fill="#000000"></path>
                        <path d="M206.938546,63.6061289 C206.938546,66.1002289 204.917647,68.1204288 202.424247,68.1204288 C199.930847,68.1204288 197.909947,66.1002289 197.909947,63.6061289 C197.909947,61.112729 199.930847,59.091829 202.424247,59.091829 C204.917647,59.091829 206.938546,61.112729 206.938546,63.6061289" id="Fill-47" fill="#AEEBFF"></path>
                        <polygon id="Fill-48" fill="#3C4D47" points="190.385297 125.172598 216.469396 125.172598 216.469396 121.508798 190.385297 121.508798"></polygon>
                        <polygon id="Fill-49" fill="#3C4D47" points="190.385297 130.668998 216.469396 130.668998 216.469396 127.005198 190.385297 127.005198"></polygon>
                        <polygon id="Fill-50" fill="#3C4D47" points="190.385297 136.163998 216.469396 136.163998 216.469396 132.500898 190.385297 132.500898"></polygon>
                        <polygon id="Fill-51" fill="#3C4D47" points="190.385297 141.660398 216.469396 141.660398 216.469396 137.996598 190.385297 137.996598"></polygon>
                        <polygon id="Fill-52" fill="#3C4D47" points="190.385297 147.156097 216.469396 147.156097 216.469396 143.492298 190.385297 143.492298"></polygon>
                        <polygon id="Fill-53" fill="#3C4D47" points="190.385297 152.652497 216.469396 152.652497 216.469396 148.988697 190.385297 148.988697"></polygon>
                        <polygon id="Fill-54" fill="#3C4D47" points="190.385297 158.148197 216.469396 158.148197 216.469396 154.484397 190.385297 154.484397"></polygon>
                        <polygon id="Fill-55" fill="#3C4D47" points="190.385297 163.643897 216.469396 163.643897 216.469396 159.980097 190.385297 159.980097"></polygon>
                        <polygon id="Fill-56" fill="#3C4D47" points="136.731698 35.7216294 136.213698 35.9113294 134.848698 36.4076294 132.993698 31.3046295 124.516698 8.00862986 123.872698 6.24532989 125.755698 5.55862991 126.399698 7.31562988 126.399698 7.32332988 135.100698 31.2346295 136.213698 34.2866294"></polygon>
                        <path d="M127.896928,2.64186996 C128.655028,4.72436992 127.581228,7.02736988 125.498728,7.78546987 C123.416228,8.54356985 121.113228,7.46906987 120.355128,5.38656991 C119.597028,3.30406994 120.670828,1.00106998 122.753328,0.242969996 C124.835828,-0.515129991 127.138828,0.55866999 127.896928,2.64186996" id="Fill-57" fill="#3C4D47"></path>
                        <polygon id="Fill-58" fill="#3C4D47" points="148.554837 6.24511989 147.910837 8.00911986 139.433838 31.3051195 137.571838 36.4081194 136.213838 35.9111194 135.688838 35.7214194 136.213838 34.2871194 137.319838 31.2344195 146.020838 7.32311988 146.020838 7.31541988 146.664838 5.55911991"></polygon>
                        <path d="M144.525008,2.64186996 C143.766908,4.72436992 144.840708,7.02736988 146.923207,7.78546987 C149.005707,8.54356985 151.308707,7.46906987 152.066807,5.38656991 C152.824907,3.30406994 151.751107,1.00106998 149.668607,0.242969996 C147.586107,-0.515129991 145.283108,0.55866999 144.525008,2.64186996" id="Fill-59" fill="#3C4D47"></path>
                        <path d="M204.217157,103.804888 C204.217157,104.299788 203.815357,104.700888 203.320457,104.700888 C202.825557,104.700888 202.423757,104.299788 202.423757,103.804888 C202.423757,103.309288 202.825557,102.908188 203.320457,102.908188 C203.815357,102.908188 204.217157,103.309288 204.217157,103.804888" id="Fill-60" fill="#FFFFFF"></path>
                        <path d="M204.217157,81.8799786 C204.217157,82.3748786 203.815357,82.7759786 203.320457,82.7759786 C202.825557,82.7759786 202.423757,82.3748786 202.423757,81.8799786 C202.423757,81.3850786 202.825557,80.9832786 203.320457,80.9832786 C203.815357,80.9832786 204.217157,81.3850786 204.217157,81.8799786" id="Fill-61" fill="#FFFFFF"></path>
                        <path d="M204.217157,60.911409 C204.217157,61.407009 203.815357,61.8081089 203.320457,61.8081089 C202.825557,61.8081089 202.423757,61.407009 202.423757,60.911409 C202.423757,60.416509 202.825557,60.015409 203.320457,60.015409 C203.815357,60.015409 204.217157,60.416509 204.217157,60.911409" id="Fill-62" fill="#FFFFFF"></path>
                    </g>
                </g>
            </g>
        </g>
    </g>
</svg>