<svg xmlns="http://www.w3.org/2000/svg" viewBox="0 0 496 496"><defs><style>.cls-1{fill:#979797;}</style></defs><title>Asset 1xxxhdpi</title><g id="Layer_2" data-name="Layer 2"><g id="Layer_1-2" data-name="Layer 1"><path class="cls-1" d="M248,0C111,0,0,111,0,248S111,496,248,496,496,385,496,248,385,0,248,0Zm0,448A200,200,0,1,1,448,248,199.94,199.94,0,0,1,248,448Zm61.8-104.4-84.9-61.7a12.08,12.08,0,0,1-4.9-9.7V108a12,12,0,0,1,12-12h32a12,12,0,0,1,12,12V249.7l66.8,48.6a12,12,0,0,1,2.6,16.8L326.6,341a12.08,12.08,0,0,1-16.8,2.6Z"/></g></g></svg>