<?xml version="1.0" standalone="no"?>
<!DOCTYPE svg PUBLIC "-//W3C//DTD SVG 1.1//EN" "http://www.w3.org/Graphics/SVG/1.1/DTD/svg11.dtd" >
<svg xmlns="http://www.w3.org/2000/svg">
<metadata>
<json>
{
	"fontFamily": "perceptron",
	"majorVersion": 1,
	"minorVersion": 0,
	"version": "Version 1.0",
	"fontId": "perceptron",
	"psName": "perceptron",
	"subFamily": "Regular",
	"fullName": "perceptron",
	"description": "Generated by IcoMoon"
}
</json>
</metadata>
<defs>
<font id="perceptron" horiz-adv-x="512">
<font-face units-per-em="512" ascent="480" descent="-32" />
<missing-glyph horiz-adv-x="512" />
<glyph unicode="&#x20;" d="" horiz-adv-x="256" />
<glyph unicode="&#xe600;" d="M256 469.76c-135.737 0-245.76-110.024-245.76-245.76s110.023-245.76 245.76-245.76c135.736 0 245.76 110.024 245.76 245.76s-110.024 245.76-245.76 245.76zM256 16.64c-114.524 0-207.36 92.836-207.36 207.36s92.836 207.36 207.36 207.36c114.524 0 207.36-92.836 207.36-207.36s-92.836-207.36-207.36-207.36zM325.32 307.113c-2.304 2.268-4.67 4.577-6.994 6.917-2.345 2.325-4.639 4.69-6.912 6.994-16.19 16.517-25.83 25.856-35.87 25.856h-75.618c-20.844 0-37.811-16.967-37.811-37.811v-170.142c0-20.844 16.968-37.811 37.811-37.811h113.428c20.844 0 37.811 16.967 37.811 37.811v132.337c0 10.035-9.339 19.676-25.846 35.85zM332.257 138.931c0-10.435-8.469-18.903-18.903-18.903h-113.428c-10.435 0-18.903 8.469-18.903 18.903v170.137c0 10.435 8.469 18.903 18.903 18.903l68.9 0.036c6.815-1.741 6.723-10.112 6.723-18.498v-28.8c0-5.207 4.245-9.452 9.452-9.452h28.354c9.431 0 18.903-0.046 18.903-9.452v-122.875zM291.18 211.277l-53.775 31.37c-1.92 0.963-4.208 0.839-6.052-0.266-1.822-1.106-2.939-3.062-2.939-5.181v-62.725c0-2.12 1.106-4.075 2.939-5.171 1.019-0.594 2.135-0.926 3.241-0.926 0.963 0 1.92 0.21 2.806 0.65l53.776 31.365c2.099 1.029 3.394 3.108 3.394 5.427 0.031 2.34-1.29 4.439-3.389 5.458z" />
<glyph unicode="&#xe601;" d="M10.24 224c0-135.736 110.023-245.76 245.76-245.76s245.76 110.024 245.76 245.76-110.024 245.76-245.76 245.76c-135.737 0-245.76-110.024-245.76-245.76zM48.64 224c0 114.524 92.836 207.36 207.36 207.36s207.36-92.836 207.36-207.36-92.836-207.36-207.36-207.36c-114.524 0-207.36 92.836-207.36 207.36zM155.914 295.68h151.286v-143.36h-151.286c-12.585 0-22.794 10.209-22.794 22.8v97.767c0 12.585 10.209 22.794 22.794 22.794zM366.582 285.44l-49.142-30.72v-61.44l49.142-30.72h12.298v122.88h-12.298z" />
<glyph unicode="&#xe602;" d="M256 469.76c-135.737 0-245.76-110.024-245.76-245.76s110.023-245.76 245.76-245.76c135.736 0 245.76 110.024 245.76 245.76s-110.024 245.76-245.76 245.76zM256 16.64c-114.524 0-207.36 92.836-207.36 207.36s92.836 207.36 207.36 207.36c114.524 0 207.36-92.836 207.36-207.36s-92.836-207.36-207.36-207.36zM368.497 302.649l-31.426 31.094c-13.911 13.696-36.495 13.788-50.437 0.154l-34.873-34.017c-13.962-13.625-14.024-35.82-0.154-49.505l19.927 19.144c-2.017 6.098 0.471 13.077 5.401 17.91l22.185 21.632c7.030 6.82 18.304 6.789 25.236-0.077l18.873-18.647c6.938-6.866 6.907-17.925-0.077-24.76l-22.185-21.648c-4.695-4.577-12.401-7.091-18.381-5.478l-19.517-19.159c13.896-13.726 36.464-13.788 50.437-0.154l34.832 33.987c14.009 13.645 14.055 35.814 0.159 49.526zM240.819 178.161c1.659-5.954-0.994-13.666-5.796-18.35l-20.72-20.245c-7.107-6.938-18.601-6.897-25.677 0.092l-19.251 18.964c-7.060 6.983-7.014 18.334 0.092 25.236l20.736 20.245c5.054 4.91 12.314 7.404 18.647 5.31l19.988 19.804c-14.147 13.957-37.177 14.024-51.385 0.154l-33.623-32.83c-14.224-13.896-14.295-36.48-0.154-50.468l32.010-31.652c14.131-13.942 37.145-14.009 51.385-0.138l33.623 32.829c14.208 13.911 14.274 36.48 0.154 50.452l-20.029-19.405zM218.962 187.192c4.71-4.757 12.416-4.803 17.214-0.062l57.452 57.149c4.787 4.756 4.818 12.447 0.062 17.214-4.726 4.741-12.416 4.772-17.183 0.046l-57.467-57.129c-4.777-4.741-4.808-12.432-0.077-17.219z" />
<glyph unicode="&#xe603;" d="M256 469.76c-135.737 0-245.76-110.024-245.76-245.76s110.023-245.76 245.76-245.76c135.736 0 245.76 110.024 245.76 245.76s-110.024 245.76-245.76 245.76zM256 16.64c-114.524 0-207.36 92.836-207.36 207.36s92.836 207.36 207.36 207.36c114.524 0 207.36-92.836 207.36-207.36s-92.836-207.36-207.36-207.36zM372.464 231.122c-8.546 8.546-22.446 8.546-30.997 0l-23.404-23.414c-6.697-6.697-8.146-16.681-4.347-24.806l-8.566-8.566c-8.12 3.799-18.11 2.35-24.806-4.347l-23.414-23.414c-8.546-8.546-8.546-22.446 0-30.991 8.55-8.55 22.451-8.55 30.997 0l23.409 23.409c6.989 6.983 8.259 17.551 3.825 25.841l8.048 8.048c8.294-4.434 18.862-3.164 25.841 3.825l23.414 23.414c8.55 8.546 8.55 22.451 0 31.001zM304.195 146.156l-23.409-23.414c-4.598-4.598-12.089-4.598-16.691 0.005-4.603 4.603-4.603 12.089 0 16.691l23.404 23.404c2.611 2.611 6.139 3.733 9.543 3.389l-6.247-6.247c-2.693-2.688-2.693-7.065 0-9.753 2.688-2.683 7.065-2.683 9.753 0l6.81 6.81c0.829-3.81-0.22-7.941-3.164-10.885zM365.317 207.278l-23.409-23.414c-2.954-2.954-7.081-3.998-10.885-3.17l4.204 4.209c2.693 2.683 2.693 7.060 0 9.753-2.693 2.688-7.060 2.688-9.753 0l-3.651-3.646c-0.343 3.405 0.784 6.938 3.385 9.543l23.414 23.409c4.598 4.603 12.089 4.598 16.691 0 4.603-4.603 4.603-12.089 0.005-16.686zM244.828 128.855c0.205-5.11 1.572-10.163 4.121-14.75-30.060-1.034-56.755 8.791-79.498 29.599-20.772 18.995-32.476 42.824-35.645 70.758-6.646 58.526 35.364 113.541 93.46 122.455 5.657 0.87 11.382 1.28 17.075 1.905 0.405 0 0.809 0 1.214 0 6.098-0.635 12.262-0.906 18.288-1.951 30.213-5.269 54.41-20.388 72.505-45.118 9.861-13.491 16.414-28.426 19.267-44.647-6.262-1.29-12.022-4.362-16.645-8.986l-10.342-10.347c-0.553 1.607-0.886 3.353-0.962 5.274-0.2 5.227-1.075 6.303-6.425 7.47-5.601 1.224-7.388 3.743-5.817 9.257 1.050 3.676 2.78 7.168 4.352 10.685 1.644 3.671 2.739 7.286 1.899 11.449-0.758 3.742-0.645 7.562 2.786 10.706-3.195 3.63-6.139 7.142-9.283 10.47-1.485 1.567-2.729 0.999-3.19-1.203-0.108-0.538-0.087-1.106-0.22-1.644-1.152-4.9-4.178-6.026-8.13-3.031-0.661 0.502-1.239 1.213-1.981 1.474-1.244 0.435-2.658 0.993-3.881 0.784-4.25-0.722-4.946-0.21-4.572 3.998 0.272 2.975-0.773 4.101-3.717 3.963-1.009-0.051-2.012-0.256-3.021-0.281-3.185-0.051-5.182 2.365-4.393 5.447 0.409 1.592 1.29 3.062 1.669 4.654 0.286 1.183 0.656 3.021 0.051 3.62-2.432 2.391-5.058 4.695-7.931 6.502-5.181 3.267-10.419 0.875-15.57-0.333-0.553-4.208-1.137-4.777-5.145-3.584-4.772 1.423-9.308 3.415-12.565 7.521-0.41 0.522-1.387 0.922-2.038 0.85-4.925-0.563-9.84-1.208-14.736-1.971-0.707-0.113-1.808-1.060-1.797-1.602 0.016-0.942 0.64-2.57 1.224-2.673 1.593-0.282 3.435-0.272 4.915 0.292 2.028 0.784 3.748 2.32 5.719 3.298 2.386 1.183 4.112 0.313 4.787-2.268 0.809-3.052-0.281-5.637-2.765-7.225-3.389-2.155-7.107-3.799-10.614-5.77-2.468-1.383-4.992-2.745-7.178-4.5-1.756-1.413-2.98-3.61-1.582-5.863 1.3-2.094 3.6-1.602 5.514-0.926 1.961 0.691 3.82 1.72 5.648 2.739 1.111 0.625 2.032 1.593 3.123 2.258 2.181 1.326 3.338 0.875 4.173-1.49 1.398-3.978 4.055-4.9 7.619-2.591 1.541 0.999 2.929 2.258 4.531 3.129 2.37 1.275 4.91-0.082 5.141-2.57 0.338-3.646 1.183-4.357 4.803-3.952 2.13 0.24 4.255 0.558 6.385 0.839 0.19-0.22 0.379-0.43 0.563-0.65-0.743-1.388-1.173-3.149-2.299-4.071-1.736-1.413-3.876-2.411-5.965-3.303-3.036-1.296-5.765-2.073-5.873-2.248 0 0 4.26-1.726 2.012-2.365-3.707-1.050-9.314-7.055-1.26-4.562 1.444 0.44 2.918 0.798 4.946 1.346-1.695-5.094-5.274-7.101-8.822-9.001-10.608-5.673-10.982-19.271-5.565-26.255 1.178-1.516 2.155-3.22 2.985-4.946 0.963-1.992 0.896-4.382-1.019-5.427-1.285-0.707-3.87-0.558-5.023 0.322-2.786 2.135-5.315 4.731-7.506 7.501-2.791 3.507-4.792 7.68-7.746 11.024-9.534 10.793-20.296 8.417-29.506 0.292-2.329-2.058-2.023-3.917 0.553-5.612 0.911-0.594 1.915-1.095 2.929-1.506 4.091-1.654 8.208-3.231 12.298-4.88 0.839-0.338 1.7-0.732 2.401-1.296 1.418-1.142 1.495-2.361-0.353-3.093-1.351-0.532-2.8-0.86-4.234-1.167-2.688-0.583-5.53-0.748-8.034-1.762-1.454-0.589-3.113-2.391-3.308-3.825-0.164-1.229 1.459-2.903 2.631-4.029 0.875-0.834 2.34-1.014 3.43-1.685 1.511-0.916 3.138-1.813 4.321-3.082 1.987-2.156 3.394-2.693 5.975-1.25 2.483 1.387 4.874 2.928 7.27 4.464 2.846 1.813 3.379 1.587 5.023-1.321 2.038-3.62 4.844-6.594 9.4-5.791 3.256 0.584 6.349 2.084 9.523 3.154 2.161 0.732 4.286 1.797 6.502 2.058 4.542 0.543 8.018-3.298 8.279-8.617 0.256-5.32-2.212-9.303-5.97-12.764-3.681-3.389-5.662-7.265-3.968-12.529 1.802-5.601-0.113-10.409-4.398-14.131-2.975-2.586-6.256-4.834-9.534-7.035-3.84-2.575-10.23-16.707-8.822-21.683 0.266-0.932 0.348-1.060 0.281-2.068-0.363-5.305-3.088-4.368-7.828-5.202-2.673-0.471-2.411 5.202-3.026 7.793-0.589 2.488-0.589 5.253-0.2 7.803 0.379 2.503 1.556 4.885 2.411 7.306 1.792 5.079 0.496 9.401-3.231 13.087-1.633 1.613-3.42 3.077-5.095 4.649-6.098 5.704-9.058 12.872-9.375 21.084-0.164 4.137 1.874 6.016 5.97 6.405 0.86 0.082 1.715 0.195 2.57 0.292-0.482 3.435-1.736 4.741-5.1 4.956-3.195 0.195-5.054 1.997-6.277 4.628-0.573 1.229-0.676 2.668-1.157 3.947-1.152 3.046-1.961 6.349-3.758 8.981-1.613 2.37-2.939 4.413-2.873 7.429 0.030 1.408-0.988 3.047-1.966 4.214-2.222 2.637-4.685 5.074-7.117 7.526-0.958 0.963-2.099 1.736-3.676 3.011-0.107-2.411-0.107-3.973-0.261-5.514-0.22-2.181-0.246-4.459-0.942-6.487-0.389-1.137-2.053-2.647-3.006-2.555-1.214 0.113-2.964 1.49-3.282 2.652-0.583 2.13-0.743 4.598-0.292 6.763 2.109 10.163 3.006 20.362 1.817 30.695-0.435 3.784-0.958 7.557-1.49 11.755-19.845-23.342-29.348-65.746-9.831-103.224 16.891-32.425 49.321-51.856 84.265-52.327z" />
<glyph unicode="&#xe604;" d="M10.24 224c0-135.736 110.023-245.76 245.76-245.76s245.76 110.024 245.76 245.76-110.024 245.76-245.76 245.76c-135.737 0-245.76-110.024-245.76-245.76zM48.64 224c0 114.524 92.836 207.36 207.36 207.36s207.36-92.836 207.36-207.36-92.836-207.36-207.36-207.36c-114.524 0-207.36 92.836-207.36 207.36zM150.815 156.662c-9.339 0-17.695-7.865-17.695-17.203s8.356-17.695 17.695-17.695c9.339 0 17.203 8.356 17.203 17.695s-7.864 17.203-17.203 17.203zM150.815 241.203c-9.339 0-17.695-7.864-17.695-17.203s8.356-17.203 17.695-17.203c9.339 0 17.203 7.865 17.203 17.203s-7.864 17.203-17.203 17.203zM213.73 292.813h148.93c8.848 0 16.22 6.881 16.22 15.728s-7.373 16.22-16.22 16.22h-148.93c-8.847 0-16.22-7.373-16.22-16.22 0-8.848 7.373-15.728 16.22-15.728zM150.815 326.236c-9.339 0-17.695-8.356-17.695-17.695s8.356-17.203 17.695-17.203c9.339 0 17.203 7.865 17.203 17.203 0 9.339-7.864 17.695-17.203 17.695zM362.66 240.22h-148.93c-8.847 0-16.22-7.373-16.22-16.22s7.373-16.22 16.22-16.22h148.93c8.848 0 16.22 7.373 16.22 16.22s-7.373 16.22-16.22 16.22zM362.66 155.678h-148.93c-8.847 0-16.22-7.373-16.22-16.22s7.373-16.22 16.22-16.22h148.93c8.848 0 16.22 7.373 16.22 16.22 0 8.848-7.373 16.22-16.22 16.22z" />
<glyph unicode="&#xe605;" d="M256 469.76c-135.737 0-245.76-110.024-245.76-245.76s110.023-245.76 245.76-245.76c135.736 0 245.76 110.024 245.76 245.76s-110.024 245.76-245.76 245.76zM256 16.64c-114.524 0-207.36 92.836-207.36 207.36s92.836 207.36 207.36 207.36c114.524 0 207.36-92.836 207.36-207.36s-92.836-207.36-207.36-207.36zM237.379 324.224v-41.989c92.339 0 168.847-30.567 128.988-165.811 6.267 84.531-34.887 111.073-128.988 111.073v-41.201c0-2.98-1.643-5.652-4.393-6.794-0.906-0.358-1.863-0.558-2.826-0.558-1.899 0-3.789 0.748-5.191 2.166l-87.993 68.793c-2.873 2.862-2.873 7.542 0 10.399l87.993 69.125c2.109 2.089 5.284 2.734 8.018 1.587 2.75-1.137 4.382-3.81 4.393-6.789z" />
<glyph unicode="&#xe606;" d="M10.24 224c0-135.736 110.023-245.76 245.76-245.76s245.76 110.024 245.76 245.76-110.024 245.76-245.76 245.76c-135.737 0-245.76-110.024-245.76-245.76zM48.64 224c0 114.524 92.836 207.36 207.36 207.36s207.36-92.836 207.36-207.36-92.836-207.36-207.36-207.36c-114.524 0-207.36 92.836-207.36 207.36zM376.76 286.704c2.826 1.444 2.826 3.825 0 5.289-2.811 1.449-3.108 4.286-0.661 6.292 2.457 2.007 1.961 4.337-1.096 5.171-3.062 0.839-3.942 3.548-1.956 6.026 1.986 2.473 1.014 4.644-2.151 4.828-3.17 0.179-4.592 2.642-3.159 5.474 1.418 2.841 0.031 4.762-3.108 4.28-3.144-0.481-5.048 1.634-4.24 4.706 0.809 3.062-0.962 4.659-3.927 3.538-2.964-1.126-5.274 0.548-5.125 3.717 0.154 3.17-1.904 4.357-4.577 2.642-2.673-1.715-5.269-0.558-5.786 2.58-0.512 3.133-2.77 3.861-5.022 1.633-2.258-2.237-5.043-1.638-6.195 1.311-1.152 2.959-3.512 3.205-5.253 0.558-1.746-2.658-4.592-2.658-6.339 0-1.736 2.647-4.101 2.401-5.253-0.558-1.147-2.954-3.932-3.548-6.185-1.311-2.258 2.233-4.516 1.5-5.028-1.633-0.512-3.138-3.113-4.296-5.786-2.58-2.678 1.715-4.731 0.527-4.587-2.642 0.154-3.174-2.151-4.843-5.12-3.717-2.969 1.121-4.741-0.476-3.932-3.538 0.814-3.072-1.096-5.187-4.229-4.706-3.139 0.482-4.536-1.438-3.108-4.28 1.423-2.837 0.005-5.294-3.164-5.474-3.175-0.19-4.142-2.355-2.156-4.828 1.981-2.473 1.106-5.181-1.95-6.026-3.067-0.83-3.558-3.164-1.101-5.171 2.457-2.007 2.161-4.838-0.661-6.292-2.821-1.459-2.821-3.84 0-5.289 2.821-1.459 3.118-4.291 0.661-6.303-2.457-2.012-1.966-4.337 1.101-5.171 3.057-0.829 3.932-3.543 1.95-6.021-1.986-2.473-1.019-4.644 2.156-4.828 3.164-0.174 4.587-2.642 3.159-5.483-1.428-2.826-0.031-4.751 3.108-4.27 3.134 0.476 5.043-1.638 4.229-4.706-0.804-3.072 0.962-4.659 3.932-3.538 2.969 1.126 5.269-0.548 5.12-3.722-0.154-3.164 1.91-4.352 4.577-2.637 2.668 1.71 5.269 0.553 5.786-2.581 0.512-3.123 2.775-3.865 5.028-1.628 2.253 2.232 5.038 1.638 6.185-1.321 1.152-2.959 3.522-3.205 5.253-0.553 1.746 2.652 4.592 2.652 6.339 0 1.741-2.647 4.101-2.406 5.253 0.553 1.152 2.954 3.932 3.548 6.195 1.321 2.253-2.238 4.516-1.495 5.022 1.628 0.517 3.133 3.113 4.286 5.786 2.581 2.673-1.715 4.731-0.528 4.577 2.637-0.154 3.174 2.161 4.849 5.125 3.722 2.969-1.121 4.731 0.466 3.927 3.538-0.804 3.067 1.096 5.181 4.24 4.706 3.139-0.487 4.526 1.439 3.108 4.27-1.433 2.841-0.005 5.31 3.159 5.483 3.164 0.19 4.137 2.361 2.151 4.839-1.986 2.473-1.106 5.187 1.956 6.021 3.057 0.83 3.553 3.159 1.096 5.171-2.432 2.002-2.135 4.833 0.676 6.292zM321.536 242.13c-14.024 0-26.588 6.221-35.128 16 1.070 0.082 2.279 0.164 3.298 0.164 1.014 0 2.038 0.067 3.015 0.123 0.865 0.056 1.695 0.098 2.457 0.098h0.358c0.717-0.149 1.444-0.226 2.207-0.313 0.676-0.072 1.372-0.138 2.11-0.282 0.825-0.164 1.674-0.962 2.493-1.736 0.476-0.45 0.947-0.886 1.408-1.213 0.471-0.333 0.926-0.666 1.398-1.004 1.428-1.040 2.908-2.119 4.587-2.867 2.074-0.891 4.357-1.188 6.574-1.47 1.075-0.138 2.146-0.272 3.17-0.482 0.671-0.077 1.244-0.138 1.822-0.205 1.736-0.2 3.533-0.405 5.325-0.405 1.214 0 2.284 0.092 3.272 0.292 3.543 1.008 5.796 3.881 5.796 7.178 1.802 0.717 3.41 2.217 4.429 4.142 0.906 1.721 1.214 3.563 0.886 5.192 3.42 2.242 5.182 6.436 4.234 10.040 1.505 1.034 2.55 2.775 2.913 4.889 0.502 2.934-0.399 6.052-2.304 7.941-2.519 2.401-5.995 2.98-9.072 3.486-0.481 0.077-0.957 0.164-1.423 0.246-0.343 0.092-0.788 0.2-1.234 0.297-4.091 0.958-6.989 1.879-6.994 5.233-0.010 2.207 0.717 4.25 1.485 6.416 0.88 2.478 1.792 5.048 1.649 8.038-0.276 5.325-2.539 9.964-6.052 12.406-1.403 1.122-3.251 1.782-5.007 1.782-2.616 0-4.562-1.418-5.361-3.896-0.558-1.674-0.466-3.287-0.368-5.008 0.021-0.425 0.051-0.86 0.067-1.31 0.098-2.365-0.185-4.311-0.875-6.16-1.31-3.691-3.932-7.127-6.072-9.718l-1.178-1.469c-1.639-2.064-3.328-4.209-5.258-5.924-0.947-0.747-1.95-1.014-3.246-1.295-0.363-0.021-0.681-0.118-0.947-0.195-0.169-0.066-0.358-0.118-0.461-0.118-1.275 0.092-2.627 0.194-4.029 0.194-1.925 0-11.115-0.092-16.348-0.143 1.408 24.253 21.652 43.566 46.408 43.566 25.666 0 46.546-20.746 46.546-46.249 0-25.508-20.885-46.264-46.546-46.264zM318.29 317.573l-0.021 0.405c-0.103 1.618-0.128 3.364 0.788 3.497 0.067 0.005 0.138 0.010 0.215 0.010 1.49 0 3.358-1.869 4.464-3.594 1.162-2.202 1.767-4.516 1.71-6.594-0.062-2.171-0.768-4.224-1.515-6.4-0.88-2.56-1.797-5.218-1.582-8.115 0.297-3.942 3.425-7.347 7.788-8.474 1.275-0.333 2.616-0.548 3.922-0.763 2.432-0.394 4.941-0.809 6.994-1.95 1.337-0.676 2.76-2.084 2.509-3.938-0.118-1.008-0.579-2.253-2.11-2.535-0.829-0.236-1.382-0.717-1.649-1.398-0.322-0.814-0.2-1.838 0.327-2.714 0.553-0.661 0.64-2.033 0.313-3.231-0.45-1.428-1.49-2.437-3.103-2.985-0.686-0.082-1.3-0.558-1.639-1.285-0.379-0.825-0.297-1.721 0.231-2.34 0.455-0.655 0.368-2.12-0.261-3.344-0.502-0.952-1.209-1.531-1.899-1.531-0.092 0-0.19 0.005-0.292 0.036l-0.108 0.021h-0.123c-0.845 0-1.945-0.374-2.493-1.214-0.358-0.548-0.409-1.234-0.138-1.848 0.338-0.912 0.297-1.941-0.118-2.632-0.307-0.502-0.788-0.804-1.444-0.881-1.157-0.307-2.314-0.307-3.43-0.307-3.318 0.297-6.851 0.619-10.255 1.234l-1.628 0.369c-0.839 0.195-1.68 0.374-2.422 0.563-1.219 0.599-2.586 1.628-3.897 2.626-0.44 0.333-0.865 0.656-1.29 0.963-0.307 0.24-0.64 0.563-0.978 0.875-0.87 0.819-1.843 1.736-3.051 2.069-1.142 0.702-2.35 0.702-3.344 0.702-3.175 0.297-4.675 1.444-5.447 4.229-0.758 2.796-0.784 5.995-0.743 8.771l0.005 0.625c0.026 2.616 0.067 5.878 1.408 8.258 0.671 1.132 1.997 1.377 3.533 1.664 2.125 0.348 3.804 1.045 5.371 2.253 0.226 0.077 0.455 0.24 0.62 0.553 0.635 0.43 1.157 1.070 1.639 1.644 2.519 2.739 4.839 5.591 6.656 8.212 0.43 0.635 0.85 1.239 1.275 1.838 1.94 2.775 3.947 5.632 4.798 9.17 0.61 2.57 0.548 4.818 0.414 7.486zM193.731 207.632c-13.675 0-24.755 11.079-24.755 24.745s11.079 24.745 24.755 24.745c13.666 0 24.745-11.079 24.745-24.745s-11.079-24.745-24.745-24.745zM161.506 171.029h-6.763v-58.291h-0.010c0.010-0.164 0.010-0.353 0.010-0.476 0-6.011-4.833-10.844-10.793-10.844-5.97 0-10.823 4.854-10.823 10.844 0 0.123 0.020 0.313 0.020 0.476h-0.020v63.012c0 0-1.31 26.998 35.456 27.678h13.532l11.919-19.502 11.868 19.502h14.090c0 0 32.594 0.425 34.949-27.689v-3.687l14.147 9.671c0.021 0 0.082 0.062 0.082 0.062 2.043 2.063 4.721 2.954 7.414 3.077l19.897 60.549 4.296-1.633-19.522-59.561c1.28-0.507 2.468-1.25 3.502-2.284 4.286-4.255 4.183-11.248-0.154-15.586-0.021-0.021-0.041-0.021-0.051-0.082h0.010l-7.024-4.711-9.851-6.579-18.673-12.529-0.051 0.062c-1.495-0.763-3.067-1.27-4.833-1.27-5.939 0-10.793 4.864-10.793 10.824 0 0.031 0 0.072 0 0.092v19.159h-7.045zM197.161 105.907h-6.528zM194.238 182.907l-8.192-9.139 8.192-36.418 7.148 36.418-7.148 9.139zM161.566 117.54h64.482v7.664h-64.481v-7.664zM187.464 119.076h12.508v4.347h-12.508v-4.347z" />
<glyph unicode="&#xe607;" d="M256 469.76c-135.737 0-245.76-110.024-245.76-245.76s110.023-245.76 245.76-245.76c135.736 0 245.76 110.024 245.76 245.76s-110.024 245.76-245.76 245.76zM256 16.64c-114.524 0-207.36 92.836-207.36 207.36s92.836 207.36 207.36 207.36c114.524 0 207.36-92.836 207.36-207.36s-92.836-207.36-207.36-207.36zM378.061 330.526v-98.15c0-2.796-2.258-5.064-5.063-5.064h-133.494c-2.796 0-5.064 2.268-5.064 5.064v7.751l10.127 6.789v-9.477h123.361v88.028h-123.371v-37.048c-0.446-0.343-0.927-0.64-1.346-1.024l-1.418-0.983c-1.71 4.47-4.311 7.987-7.352 10.88v33.229c0 2.796 2.279 5.063 5.064 5.063h133.499c2.8 0.005 5.058-2.258 5.058-5.058zM258.529 263.998l6.062 4.065h-0.010c0.010 0.036 0.026 0.036 0.046 0.062 3.082 3.056 3.558 7.603 1.649 11.187l49.050 33.28-2.227 3.287-49.459-33.552c-1.551 1.121-3.287 1.833-5.11 1.894-2.59 0.087-5.227-0.788-7.209-2.775 0 0-0.046-0.051-0.061-0.051l-1.208-0.839-10.988-7.501v3.19c-2.043 24.259-30.151 23.9-30.151 23.9h-12.175l-10.23-16.839-10.286 16.829h-11.679c-31.719-0.594-30.597-23.89-30.597-23.89v-54.364h0.016c0.010-0.138-0.016-0.307-0.016-0.42 0-5.176 4.178-9.339 9.339-9.339 5.141 0 9.319 4.178 9.319 9.339 0 0.113 0 0.281-0.016 0.42h0.016v50.284h5.837l-0.071-158.413c0-6.963 5.657-12.626 12.595-12.626 6.963 0 12.606 5.658 12.606 12.626v102.226h5.617v-102.344l0.107-0.113c0.087-6.846 5.657-12.401 12.544-12.401 6.912 0 12.534 5.632 12.534 12.544l-0.036 158.75h6.072v-16.537c0-0.016 0-0.061 0-0.077 0-5.141 4.178-9.328 9.314-9.328 1.516 0 2.873 0.43 4.162 1.095l0.046-0.061 24.602 16.491zM186.317 304.185c11.791 0 21.351 9.559 21.351 21.351s-9.559 21.346-21.351 21.346c-11.791 0-21.351-9.564-21.351-21.351s9.559-21.346 21.351-21.346z" />
<glyph unicode="&#xe608;" d="M256 469.76c-135.737 0-245.76-110.024-245.76-245.76s110.023-245.76 245.76-245.76c135.736 0 245.76 110.024 245.76 245.76s-110.024 245.76-245.76 245.76zM256 16.64c-114.524 0-207.36 92.836-207.36 207.36s92.836 207.36 207.36 207.36c114.524 0 207.36-92.836 207.36-207.36s-92.836-207.36-207.36-207.36zM301.721 347.238h-122.88v-215.040h184.32v153.6l-61.44 61.44zM301.721 325.519l39.721-39.721h-39.721v39.721zM347.801 147.558h-153.6v184.32h92.16v-61.44h61.44v-122.88zM271.002 285.798h-61.44v15.36h61.44v-15.36zM209.561 255.078h122.88v-15.36h-122.88v15.36zM209.561 208.998h122.88v-15.36h-122.88v15.36zM363.161 116.839v-15.36h-215.040v245.76h15.36v-230.4h199.68z" />
<glyph unicode="&#xe609;" d="M256 469.76c-135.737 0-245.76-110.024-245.76-245.76s110.023-245.76 245.76-245.76c135.736 0 245.76 110.024 245.76 245.76s-110.024 245.76-245.76 245.76zM256 16.64c-114.524 0-207.36 92.836-207.36 207.36s92.836 207.36 207.36 207.36c114.524 0 207.36-92.836 207.36-207.36s-92.836-207.36-207.36-207.36zM378.378 293.714c0.026 1.106-0.286 1.997-0.809 2.678-0.313 0.619-0.768 1.203-1.423 1.69-34.873 25.866-84.669 39.547-119.419 7.511-34.75 32.036-84.546 18.355-119.419-7.511-0.661-0.486-1.111-1.070-1.423-1.69-0.522-0.681-0.834-1.572-0.809-2.678 0.891-43.166-0.435-86.329-0.502-129.495 0-0.752 0.159-1.403 0.425-1.961-0.732-3.113 1.536-6.815 5.289-5.351 36.813 14.351 78.448 17.526 112.016-5.606 0.768-1.817 2.478-3.134 4.429-2.683 1.95-0.45 3.661 0.865 4.429 2.683 33.567 23.127 75.202 19.958 112.015 5.606 3.753-1.464 6.021 2.238 5.289 5.351 0.256 0.558 0.414 1.209 0.414 1.961-0.067 43.166-1.392 86.329-0.502 129.495zM256.722 159.14c-33.593 23.147-75.709 21.74-113.116 8.535 0.123 41.442 1.31 82.873 0.512 124.314 31.908 22.958 77.706 36.526 109.066 4.536 1.095-1.116 2.355-1.454 3.538-1.295 1.183-0.159 2.442 0.179 3.538 1.295 31.355 31.985 77.163 18.422 109.066-4.536-0.798-41.442 0.389-82.873 0.512-124.314-37.406 13.2-79.529 14.613-113.116-8.535zM375.209 150.108c-38.149 15.355-91.52 21.146-119.547-12.089-28.027 33.229-81.403 27.443-119.547 12.089-6.738-2.709-0.922-11.853 5.755-9.165 34.519 13.896 86.031 20.086 108.733-14.684 1.264-1.935 3.19-2.627 5.064-2.493 1.874-0.128 3.799 0.558 5.064 2.493 22.702 34.77 74.209 28.58 108.733 14.684 6.661-2.693 12.478 6.451 5.745 9.165zM159.186 253.379c0.875-1.997 3.113-3.349 5.463-1.817 6.057 3.942 12.513 6.814 19.62 8.222 2.325 0.461 3.102 2.345 2.796 4.142 0.077 0.317 0.128 0.656 0.128 1.024v22.559c0 2.647-2.119 3.922-4.167 3.835-0.348 0.092-0.717 0.154-1.137 0.149-8.161-0.138-15.97-2.284-22.579-7.178-1.296-0.958-1.776-2.309-1.7-3.609-0.128-0.354-0.236-0.732-0.272-1.152-0.635-7.506-0.666-15.027-0.666-22.558 0-1.925 1.116-3.129 2.514-3.614zM165.243 278.743c4.296 2.719 8.94 4.194 13.988 4.638v-16.583c-5.11-1.316-9.989-3.369-14.587-5.95 0.020 5.97 0.128 11.94 0.599 17.894zM202.844 282.347c9.79 3.354 19.241 2.442 28.114-2.918 4.409-2.662 8.407 4.224 4.019 6.876-10.573 6.385-22.554 7.726-34.253 3.717-4.823-1.654-2.75-9.344 2.119-7.675zM202.184 265.093c9.826 2.069 19.021 0.61 27.453-4.905 4.311-2.816 8.294 4.076 4.019 6.876-10.225 6.687-21.739 8.202-33.587 5.709-5.028-1.060-2.893-8.735 2.114-7.68zM237.635 241.849c-26.588 14.94-57.82 9.149-82.309-7.296-4.239-2.846-0.256-9.749 4.019-6.876 22.098 14.843 50.078 20.894 74.276 7.296 4.48-2.514 8.489 4.362 4.014 6.876zM237.635 223.273c-26.588 14.94-57.82 9.149-82.309-7.296-4.239-2.846-0.256-9.748 4.019-6.876 22.098 14.843 50.078 20.894 74.276 7.296 4.48-2.519 8.489 4.362 4.014 6.876zM237.635 204.692c-26.588 14.94-57.82 9.149-82.309-7.296-4.239-2.846-0.256-9.748 4.019-6.876 22.098 14.843 50.078 20.894 74.276 7.296 4.48-2.514 8.489 4.362 4.014 6.876zM272.507 231.839c22.978 15.56 51.364 11.863 74.624-1.090 4.5-2.504 7.89 4.7 3.43 7.184-25.774 14.357-57.375 17.526-82.632 0.42-4.255-2.873 0.317-9.395 4.577-6.512zM274.048 213.325c22.978 15.56 51.364 11.863 74.624-1.091 4.5-2.503 7.89 4.7 3.43 7.183-25.774 14.357-57.375 17.526-82.632 0.42-4.25-2.873 0.322-9.395 4.577-6.512zM272.507 268.995c22.978 15.559 51.364 11.863 74.624-1.091 4.5-2.504 7.89 4.7 3.43 7.183-25.774 14.357-57.375 17.526-82.632 0.42-4.255-2.873 0.317-9.395 4.577-6.512zM269.476 256.999c-4.25-2.878 0.317-9.395 4.577-6.518 22.978 15.56 51.364 11.863 74.624-1.090 4.5-2.504 7.89 4.7 3.43 7.184-25.774 14.357-57.38 17.526-82.632 0.425zM353.654 200.904c-25.774 14.356-57.38 17.526-82.632 0.42-4.25-2.877 0.322-9.401 4.577-6.518 22.978 15.56 51.369 11.863 74.624-1.091 4.495-2.503 7.89 4.705 3.43 7.188z" />
<glyph unicode="&#xe60a;" d="M256 469.76c-135.737 0-245.76-110.024-245.76-245.76s110.023-245.76 245.76-245.76c135.736 0 245.76 110.024 245.76 245.76s-110.024 245.76-245.76 245.76zM256 16.64c-114.524 0-207.36 92.836-207.36 207.36s92.836 207.36 207.36 207.36c114.524 0 207.36-92.836 207.36-207.36s-92.836-207.36-207.36-207.36zM327.040 300.8h-19.2c-3.17 0-5.76 3.021-5.76 6.718v17.28c0 12.18-9.462 22.082-21.12 22.082h-96c-11.653 0-21.12-9.902-21.12-22.082v-201.6c0-12.17 9.467-22.077 21.12-22.077h142.080c11.658 0 21.12 9.907 21.12 22.077v155.52c0 12.186-9.462 22.083-21.12 22.083zM332.8 123.197c0-3.697-2.591-6.717-5.76-6.717h-142.080c-3.169 0-5.76 3.021-5.76 6.717v201.6c0 3.702 2.59 6.722 5.76 6.722h96c3.17 0 5.76-3.021 5.76-6.722v-17.28c0-12.18 9.462-22.077 21.12-22.077h19.2c3.17 0 5.76-3.021 5.76-6.723v-155.52zM288.671 235.643h-24.478v-80.471c0-4.634-1.034-8.069-3.098-10.312-2.063-2.243-4.736-3.364-8.007-3.364-3.323 0-6.031 1.137-8.12 3.399-2.089 2.268-3.133 5.694-3.133 10.276v80.471h-24.489c-3.83 0-6.677 0.845-8.54 2.53s-2.796 3.917-2.796 6.686c0 2.873 0.968 5.136 2.908 6.799 1.935 1.664 4.746 2.494 8.428 2.494h71.327c3.881 0 6.764-0.855 8.653-2.57 1.884-1.71 2.832-3.952 2.832-6.722s-0.957-5.002-2.873-6.686-4.782-2.53-8.612-2.53z" />
<glyph unicode="&#xe60b;" d="M256 469.76c-135.737 0-245.76-110.024-245.76-245.76s110.023-245.76 245.76-245.76c135.736 0 245.76 110.024 245.76 245.76s-110.024 245.76-245.76 245.76zM256 16.64c-114.524 0-207.36 92.836-207.36 207.36s92.836 207.36 207.36 207.36c114.524 0 207.36-92.836 207.36-207.36s-92.836-207.36-207.36-207.36zM259.087 263.183v-27.018h56.878v27.018h-56.878zM259.087 173.138h56.878v27.024h-56.878v-27.024zM259.087 110.111h56.878v27.018h-56.878v-27.018zM196.060 191.166v72.018h54.031c0 4.987 4.030 9.017 8.996 9.017h56.878c4.962 0 8.99-4.030 8.99-9.017v-27.018c0-4.962-4.029-8.99-8.99-8.99h-56.878c-4.962 0-8.996 4.030-8.996 8.99v18.028h-45.020v-63.027h45.020v8.996c0 4.982 4.030 9.011 8.996 9.011h56.878c4.962 0 8.99-4.029 8.99-9.011v-27.024c0-4.956-4.029-8.99-8.99-8.99h-56.878c-4.962 0-8.996 4.029-8.996 8.99v9.017h-45.020v-63.027h45.020v18.002c0 4.987 4.030 9.017 8.996 9.017h56.878c4.962 0 8.99-4.029 8.99-9.017v-27.018c0-4.956-4.029-8.99-8.99-8.99h-56.878c-4.962 0-8.996 4.029-8.996 8.99h-54.031v72.043zM205.056 256.834h-9.017v54.031c-4.956 0-8.99 4.029-8.99 8.996v18.028c0 4.962 4.030 8.99 8.99 8.99h65.864c4.987 0 9.017-4.029 9.017-8.99v-18.028c0-4.962-4.029-8.996-9.017-8.996h-56.847v-45.020z" />
<glyph unicode="&#xe60c;" d="M256 469.76c-135.737 0-245.76-110.024-245.76-245.76s110.023-245.76 245.76-245.76 245.76 110.024 245.76 245.76-110.024 245.76-245.76 245.76zM256 16.64c-114.524 0-207.36 92.836-207.36 207.36s92.836 207.36 207.36 207.36 207.36-92.836 207.36-207.36-92.836-207.36-207.36-207.36zM189.845 297.841c-8.857 0-16.025 7.183-16.025 16.025v16.798c0 8.842 7.163 16.025 16.025 16.025 8.837 0 16.020-7.183 16.020-16.025v-16.798c0-8.842-7.178-16.025-16.020-16.025zM287.514 297.841c-8.858 0-16.046 7.183-16.046 16.025v16.798c0 8.842 7.183 16.025 16.046 16.025 8.837 0 16.026-7.183 16.026-16.025v-16.798c0-8.842-7.183-16.025-16.026-16.025zM312.176 143.207h-24.428v24.423h24.428v-24.423zM312.176 183.89h-24.428v24.423h24.428v-24.423zM312.176 224.594h-24.428v24.428h24.428v-24.428zM271.473 143.207h-24.402v24.423h24.402v-24.423zM271.473 183.89h-24.402v24.423h24.402v-24.423zM271.473 224.594h-24.402v24.428h24.402v-24.428zM230.789 143.207h-24.423v24.423h24.423v-24.423zM230.789 183.89h-24.423v24.423h24.423v-24.423zM230.789 224.594h-24.423v24.428h24.423v-24.428zM190.085 143.207h-24.402v24.423h24.402v-24.423zM190.085 183.89h-24.402v24.423h24.402v-24.423zM190.085 224.594h-24.402v24.428h24.402v-24.428zM328.458 265.298h-179.056v-138.373h179.056v138.373zM328.458 110.643h-179.056c-9.001 0-16.281 7.306-16.281 16.281v179.057c0 8.996 7.28 16.281 16.281 16.281h16.281v-8.141c0-13.486 10.931-24.423 24.402-24.423 13.491 0 24.423 10.931 24.423 24.423v8.141h48.845v-8.141c0-13.486 10.911-24.423 24.402-24.423s24.428 10.931 24.428 24.423v8.141h16.281c8.976 0 16.281-7.286 16.281-16.281v-179.057c0-8.981-7.306-16.281-16.286-16.281zM312.156 249.661c-38.057 0-68.915-30.868-68.915-68.93 0-38.072 30.858-68.93 68.915-68.93 38.067 0 68.93 30.858 68.93 68.93 0 38.062-30.858 68.93-68.93 68.93zM333.655 167.193h-23.629c-3.257 0-5.883 2.642-5.883 5.893v35.85c0 3.257 2.627 5.898 5.883 5.898s5.893-2.642 5.893-5.898v-29.947h17.736c3.257 0 5.893-2.642 5.893-5.898 0-3.251-2.642-5.898-5.893-5.898zM333.655 178.99h-17.736v29.947c0 3.257-2.637 5.898-5.893 5.898s-5.883-2.642-5.883-5.898v-35.85c0-3.251 2.627-5.893 5.883-5.893h23.629c3.251 0 5.893 2.647 5.893 5.898 0 3.257-2.637 5.898-5.893 5.898z" />
<glyph unicode="&#xe60d;" d="M10.24 224c0-135.736 110.023-245.76 245.76-245.76s245.76 110.024 245.76 245.76-110.024 245.76-245.76 245.76c-135.737 0-245.76-110.024-245.76-245.76zM48.64 224c0 114.524 92.836 207.36 207.36 207.36s207.36-92.836 207.36-207.36-92.836-207.36-207.36-207.36c-114.524 0-207.36 92.836-207.36 207.36zM259.118 274.186c0 5.386-4.377 9.779-9.79 9.779-5.427 0-9.82-4.393-9.82-9.779v-63.529h63.529c5.392 0 9.784 4.377 9.784 9.805 0 5.417-4.393 9.79-9.784 9.79h-43.935l0.015 43.934zM337.178 294.119l21.724-21.709 18.632 18.596c0 0-16.758 32.876-55.875 55.875l-18.616-18.621 21.735-21.724-4.726-4.71c-19.947 17.111-45.814 27.52-74.168 27.52-63.022-0.005-114.105-51.098-114.105-114.135-0.010-62.997 51.072-114.089 114.094-114.089s114.099 51.092 114.099 114.084c0 28.355-10.399 54.236-27.495 74.183l4.7 4.731zM245.924 135.68c-43.684 0-79.237 35.517-79.237 79.196 0 43.725 35.553 79.273 79.237 79.273 43.705 0 79.227-35.548 79.227-79.273 0-43.678-35.522-79.196-79.227-79.196z" />
<glyph unicode="&#xe60e;" d="M10.24 224c0-135.736 110.023-245.76 245.76-245.76s245.76 110.024 245.76 245.76-110.024 245.76-245.76 245.76c-135.737 0-245.76-110.024-245.76-245.76zM48.64 224c0 114.524 92.836 207.36 207.36 207.36s207.36-92.836 207.36-207.36-92.836-207.36-207.36-207.36c-114.524 0-207.36 92.836-207.36 207.36zM283.678 199.322h-37.514c-5.171 0-9.339 4.193-9.339 9.36v56.914c0 5.171 4.173 9.365 9.339 9.365 5.171 0 9.359-4.194 9.359-9.365v-47.544h28.155c5.171 0 9.36-4.193 9.36-9.365 0-5.166-4.193-9.365-9.36-9.365zM255.017 322.99c-54.83 0-99.246-44.447-99.246-99.246 0-54.825 44.416-99.246 99.246-99.246 54.8 0 99.236 44.421 99.236 99.246 0 54.804-44.437 99.246-99.236 99.246zM255.984 101.12c-67.845 0-122.855 55.014-122.855 122.88 0 67.85 55.014 122.88 122.855 122.88 67.871 0 122.885-55.030 122.885-122.88 0-67.865-55.014-122.88-122.885-122.88z" />
<glyph unicode="&#xe60f;" d="M456.33 264.002c-0.768 13.107-8.519 29.809-41.113 35.215-5.801 0.958-11.919 1.214-18.658 0.758-7.347-0.496-14.172-1.726-20.772-2.944-6.123-1.132-11.801-2.171-16.916-2.519-13.113-0.886-24.028 2.59-34.673 22.359-7.49 13.926-3.476 43.796-1.557 58.148l0.384 2.841c4.004 30.459 2.969 60.898-31.411 77.256-6.83 3.256-13.414 4.751-19.113 4.368-3.584-0.24-6.825-1.214-9.62-2.908-6.856-4.132-10.588-11.868-11.054-22.999-0.159-3.256 0.338-7.122 0.85-11.207 1.93-15.293 5.146-40.791-15.805-78.208-27.453-34.37-41.543-40.11-41.682-40.167l-1.362-0.666c-16.092-10.993-29.747-24.709-42.936-37.965-12.099-12.15-24.566-24.648-38.282-34.483l-48.686-4.030-16.158-1.090 12.631-186.931 0.932-13.808 61.875 4.178 32.481-7.301c47.585-21.063 105.447-22.267 145.567-19.553 24.059 1.623 41.257 4.664 44.452 5.274 1.843-0.098 4.199-0.046 6.569 0.113 15.002 1.014 27.587 6.298 37.422 15.719 16.738 16.026 20.757 39.235 21.709 49.065 15.125 7.271 24.729 17.438 28.549 30.208 4.685 15.683-0.778 30.976-4.777 39.158 13.097 8.438 20.894 19.026 23.158 31.488 4.572 25.18-15.498 47.652-15.703 47.877-1.091 1.034-2.094 2.233-2.867 3.353 7.675 6.892 17.531 23.127 16.569 39.404z" />
<glyph unicode="&#xe610;" d="M57.359 184.023c0.768-13.107 8.525-29.808 41.114-35.216 5.801-0.957 11.919-1.214 18.657-0.758 7.347 0.497 14.172 1.726 20.772 2.944 6.124 1.132 11.802 2.171 16.917 2.519 13.113 0.886 24.028-2.591 34.673-22.359 7.49-13.926 3.476-43.796 1.556-58.148l-0.384-2.841c-4.004-30.459-2.97-60.897 31.411-77.255 6.83-3.257 13.415-4.752 19.113-4.368 3.584 0.24 6.825 1.214 9.62 2.908 6.856 4.132 10.588 11.868 11.054 22.999 0.159 3.257-0.338 7.122-0.85 11.207-1.93 15.293-5.145 40.791 15.805 78.208 27.454 34.37 41.543 40.11 41.682 40.166l1.362 0.666c16.092 10.993 29.747 24.709 42.937 37.965 12.099 12.15 24.566 24.647 38.282 34.483l48.686 4.029 16.154 1.080-12.631 186.931-0.932 13.808-61.875-4.178-32.481 7.301c-47.586 21.064-105.447 22.262-145.566 19.553-24.059-1.623-41.257-4.664-44.452-5.273-1.843 0.097-4.198 0.046-6.569-0.113-15.001-1.014-27.587-6.298-37.422-15.719-16.737-16.025-20.757-39.235-21.709-49.065-15.124-7.271-24.73-17.439-28.549-30.208-4.685-15.683 0.778-30.981 4.777-39.158-13.097-8.438-20.895-19.026-23.158-31.488-4.572-25.18 15.498-47.652 15.703-47.877 1.091-1.034 2.094-2.232 2.867-3.353-7.665-6.882-17.52-23.117-16.563-39.394z" />
<glyph unicode="&#xe611;" d="M10.24 224c0-135.736 110.023-245.76 245.76-245.76s245.76 110.024 245.76 245.76-110.024 245.76-245.76 245.76c-135.737 0-245.76-110.024-245.76-245.76zM48.64 224c0 114.524 92.836 207.36 207.36 207.36s207.36-92.836 207.36-207.36-92.836-207.36-207.36-207.36c-114.524 0-207.36 92.836-207.36 207.36zM140.8 331.678c13.015-0.322 20.854-2.401 23.516-6.231 1.813-2.667 2.719-14.029 2.719-34.078v-53.279c0-16.748 0.85-29.389 2.56-37.924 2.35-12.692 6.774-23.096 13.281-31.202 6.4-8.002 15.944-14.51 28.636-19.522 12.482-4.905 27.627-7.358 45.44-7.358 15.575 0 29.174 1.756 40.801 5.279 11.413 3.415 21.12 8.161 29.118 14.244 7.895 6.185 13.87 12.743 17.92 19.682 2.775 4.905 4.962 11.413 6.558 19.517 2.243 11.627 3.041 27.843 2.401 48.64-1.495 40.218-2.663 61.333-3.522 63.36 0 1.173-0.082 2.826-0.236 4.956-0.159 2.135-0.24 3.574-0.24 4.322 0 2.775 0.798 4.962 2.401 6.558 0.64 0.64 4.854 1.546 12.642 2.724 4.163 0.107 8.642 0.798 13.44 2.078 0.43 2.56 0.64 4.214 0.64 4.962 0 1.387-0.317 4.106-0.957 8.156l-2.873 0.317c-12.8-1.387-23.255-1.92-31.36-1.598l-32.804 1.598h-13.44l-0.322-13.762 2.243-0.481 16 0.322c4.582 0.107 8.694-1.71 12.318-5.442 2.027-2.243 3.308-6.933 3.84-14.080l0.635-9.442c0.645-9.175 1.362-17.679 2.166-25.518 0.798-7.839 1.387-14.372 1.762-19.599 0.368-5.228 0.558-12.053 0.558-20.48 0-16.64-1.122-28.851-3.358-36.639-1.813-6.185-4.639-12.267-8.478-18.243-1.817-2.985-5.284-6.4-10.404-10.24-4.582-3.517-9.861-6.236-15.836-8.156-9.283-2.985-19.471-4.48-30.562-4.48-9.498 0-18.934 2.503-28.319 7.522-6.507 3.517-11.627 8.423-15.36 14.715-4.798 8.32-7.522 19.098-8.161 32.322l-2.243 44.8-0.164 36.633c0 0.64-0.025 1.997-0.082 4.081s-0.082 3.81-0.082 5.197c0 12.585 0.691 19.625 2.078 21.12 2.028 2.668 6.242 3.999 12.642 3.999 6.83 0 13.44 0.481 19.84 1.438v1.438l-0.322 10.24 0.159 2.243c-3.2-0.21-7.782-0.322-13.757-0.322-3.2-0.108-10.988-0.374-23.358-0.798-8.75-0.322-17.71-0.482-26.88-0.482-3.625 0-12.482 0.368-26.563 1.122-5.545 0.425-11.52 0.64-17.92 0.64-2.882 0-5.012-0.051-6.4-0.159l0.482-14.080c0.86-0.205 3.262-0.42 7.209-0.63zM373.76 121.6h-235.52c-1.495 0-2.719-0.481-3.681-1.438-0.958-0.962-1.439-2.186-1.439-3.682v-10.24c0-1.495 0.482-2.724 1.439-3.682 0.963-0.962 2.186-1.438 3.681-1.438h235.52c1.495 0 2.724 0.481 3.682 1.438 0.957 0.957 1.433 2.186 1.433 3.682v10.24c0 1.495-0.476 2.719-1.433 3.682-0.962 0.957-2.186 1.438-3.682 1.438z" />
<glyph unicode="&#xe612;" d="M10.24 224c0-135.736 110.023-245.76 245.76-245.76s245.76 110.024 245.76 245.76-110.024 245.76-245.76 245.76c-135.737 0-245.76-110.024-245.76-245.76zM48.64 224c0 114.524 92.836 207.36 207.36 207.36s207.36-92.836 207.36-207.36-92.836-207.36-207.36-207.36c-114.524 0-207.36 92.836-207.36 207.36zM378.88 224v-15.36h-56.279c6.599-9.241 10.199-19.845 10.199-30.72 0-17.009-8.796-33.367-24.141-44.871-14.244-10.685-32.947-16.568-52.659-16.568-19.712 0-38.416 5.883-52.659 16.568-15.345 11.505-24.141 27.863-24.141 44.871h30.72c0-16.65 21.105-30.72 46.080-30.72s46.080 14.070 46.080 30.72-21.104 30.72-46.080 30.72h-122.88v15.36h71.885c-0.563 0.399-1.116 0.798-1.664 1.208-15.345 11.505-24.141 27.863-24.141 44.871s8.796 33.367 24.141 44.872c14.244 10.685 32.947 16.568 52.659 16.568 19.712 0 38.416-5.883 52.659-16.568 15.344-11.505 24.141-27.863 24.141-44.872h-30.72c0 16.65-21.105 30.72-46.080 30.72s-46.080-14.070-46.080-30.72 21.105-30.72 46.080-30.72c18.954 0 36.971-5.442 50.995-15.36h71.885z" />
<glyph unicode="&#xe613;" d="M10.24 224c0-135.736 110.023-245.76 245.76-245.76s245.76 110.024 245.76 245.76-110.024 245.76-245.76 245.76c-135.737 0-245.76-110.024-245.76-245.76zM48.64 224c0 114.524 92.836 207.36 207.36 207.36s207.36-92.836 207.36-207.36-92.836-207.36-207.36-207.36c-114.524 0-207.36 92.836-207.36 207.36zM365.507 308.706h-218.455c-7.803 0-13.931 6.128-13.931 13.931s6.129 13.373 13.931 13.373h218.455c7.803 0 13.373-5.57 13.373-13.373s-5.57-13.931-13.373-13.931zM365.507 270.254c7.803 0 13.373-5.571 13.373-13.374s-5.57-13.931-13.373-13.931h-125.389c-7.803 0-13.931 6.129-13.931 13.931s6.129 13.374 13.931 13.374h125.389zM365.507 205.051c7.803 0 13.373-6.128 13.373-13.931s-5.57-13.373-13.373-13.373h-162.729c-7.803 0-13.374 5.57-13.374 13.373s5.571 13.932 13.374 13.932h162.729zM364.39 139.295c7.803 0 13.932-5.57 13.932-13.373s-6.128-13.932-13.932-13.932h-206.75c-7.803 0-13.374 6.128-13.374 13.932s5.571 13.373 13.374 13.373h206.75z" />
<glyph unicode="&#xe614;" d="M10.24 224c0-135.736 110.023-245.76 245.76-245.76s245.76 110.024 245.76 245.76-110.024 245.76-245.76 245.76c-135.737 0-245.76-110.024-245.76-245.76zM48.64 224c0 114.524 92.836 207.36 207.36 207.36s207.36-92.836 207.36-207.36-92.836-207.36-207.36-207.36c-114.524 0-207.36 92.836-207.36 207.36zM216.177 304.261c0 5.212 4.224 9.431 9.431 9.431h143.836c5.212 0 9.431-4.224 9.431-9.431 0-5.212-4.224-9.431-9.431-9.431h-143.836c-5.207-0.005-9.431 4.224-9.431 9.431zM369.449 153.175h-143.841c-5.212 0-9.431-4.224-9.431-9.431s4.224-9.431 9.431-9.431h143.836c5.212 0 9.431 4.224 9.431 9.431s-4.219 9.431-9.426 9.431zM158.797 294.825h33.008c5.212 0 9.431 4.224 9.431 9.431 0 5.212-4.224 9.431-9.431 9.431h-33.008c-5.212 0-9.431-4.224-9.431-9.431 0-5.207 4.224-9.431 9.431-9.431zM191.805 153.175h-33.008c-5.212 0-9.431-4.224-9.431-9.431s4.224-9.431 9.431-9.431h33.008c5.212 0 9.431 4.224 9.431 9.431s-4.219 9.431-9.431 9.431zM225.607 240.927h95.242c5.212 0 9.431 4.224 9.431 9.431s-4.224 9.431-9.431 9.431h-95.242c-5.212 0-9.431-4.224-9.431-9.431s4.224-9.431 9.431-9.431zM225.607 188.979h95.242c5.212 0 9.431 4.224 9.431 9.431s-4.224 9.431-9.431 9.431h-95.242c-5.212 0-9.431-4.224-9.431-9.431s4.224-9.431 9.431-9.431zM155.894 199.24c3.686-3.682 9.651-3.682 13.338 0s3.686 9.656 0 13.342l-3.906 3.906h29.68c5.212 0 9.431 4.224 9.431 9.431s-4.224 9.431-9.431 9.431h-29.68l3.906 3.906c3.686 3.681 3.686 9.656 0 13.338-1.843 1.843-4.255 2.765-6.666 2.765-2.411 0-4.828-0.922-6.666-2.765l-20.009-20.009c-1.776-1.767-2.77-4.167-2.77-6.666 0-2.503 0.994-4.9 2.765-6.671l20.009-20.009z" />
<glyph unicode="&#xe615;" d="M10.24 224c0-135.736 110.023-245.76 245.76-245.76s245.76 110.024 245.76 245.76-110.024 245.76-245.76 245.76c-135.737 0-245.76-110.024-245.76-245.76zM48.64 224c0 114.524 92.836 207.36 207.36 207.36s207.36-92.836 207.36-207.36-92.836-207.36-207.36-207.36c-114.524 0-207.36 92.836-207.36 207.36zM365.507 336.015c7.803 0 13.373-5.57 13.373-13.373s-5.57-13.931-13.373-13.931h-218.455c-7.803 0-13.931 6.128-13.931 13.931s6.129 13.373 13.931 13.373h218.455zM147.052 242.949c-7.803 0-13.931 6.129-13.931 13.931s6.129 13.374 13.931 13.374h125.389c7.803 0 13.931-5.571 13.931-13.374 0-7.803-6.128-13.931-13.932-13.931h-125.389zM147.052 177.746c-7.803 0-13.931 5.57-13.931 13.373s6.129 13.931 13.931 13.931h162.724c7.803 0 13.373-6.128 13.373-13.932 0-7.803-5.57-13.373-13.373-13.373h-162.724zM354.361 139.295c7.803 0 13.932-5.57 13.932-13.373s-6.128-13.932-13.932-13.932h-206.75c-7.803 0-13.374 6.128-13.374 13.932s5.571 13.373 13.374 13.373h206.75z" />
<glyph unicode="&#xe616;" d="M10.24 224c0-135.736 110.023-245.76 245.76-245.76s245.76 110.024 245.76 245.76-110.024 245.76-245.76 245.76c-135.737 0-245.76-110.024-245.76-245.76zM48.64 224c0 114.524 92.836 207.36 207.36 207.36s207.36-92.836 207.36-207.36-92.836-207.36-207.36-207.36c-114.524 0-207.36 92.836-207.36 207.36zM147.052 308.706h218.455c7.803 0 13.373 6.128 13.373 13.931s-5.57 13.373-13.373 13.373h-218.455c-7.803 0-13.931-5.57-13.931-13.373s6.129-13.931 13.931-13.931zM256.276 139.295h-108.667c-7.803 0-13.374-5.57-13.374-13.373s5.571-13.932 13.374-13.932h108.667c7.803 0 13.373 6.128 13.373 13.932s-5.57 13.373-13.373 13.373zM365.507 205.051h-218.455c-7.803 0-13.931-6.128-13.931-13.931s6.129-13.373 13.931-13.373h218.455c7.803 0 13.373 5.57 13.373 13.373s-5.57 13.932-13.373 13.932zM365.507 270.254h-218.455c-7.803 0-13.931-5.571-13.931-13.374s6.129-13.931 13.931-13.931h218.455c7.803 0 13.373 6.129 13.373 13.931s-5.57 13.374-13.373 13.374z" />
<glyph unicode="&#xe617;" d="M10.24 224c0-135.736 110.023-245.76 245.76-245.76s245.76 110.024 245.76 245.76-110.024 245.76-245.76 245.76c-135.737 0-245.76-110.024-245.76-245.76zM48.64 224c0 114.524 92.836 207.36 207.36 207.36s207.36-92.836 207.36-207.36-92.836-207.36-207.36-207.36c-114.524 0-207.36 92.836-207.36 207.36zM332.16 346.481c-3.733-0.266-7.363-0.507-10.88-0.722-15.785-0.958-27.202-1.439-34.238-1.439-3.625 0-7.522 0.108-11.678 0.322l-50.724 2.238-3.042-16.481c1.065-0.21 3.093-0.425 6.077-0.64 10.988-0.64 18.667-2.135 23.040-4.48v-6.077l-1.28-7.998-3.518-21.601-2.56-10.082-4.638-25.119c0-0.107-0.185-0.722-0.558-1.843s-0.855-2.744-1.439-4.88c-0.589-2.135-1.255-4.613-2.002-7.44s-1.602-6.4-2.56-10.721c-0.963-4.316-1.869-8.827-2.719-13.517l-1.92-10.24-8.96-42.88-4.322-22.236c-1.28-6.83-3.466-12.216-6.559-16.159-4.265-2.135-10.455-4.214-18.56-6.241-7.787-2.022-11.894-3.092-12.319-3.2l-2.724-13.604c2.56 0.21 7.782 0.691 15.678 1.444 14.188 1.28 23.465 1.869 27.838 1.762l31.683-0.317c13.44-1.387 21.171-2.294 23.198-2.724 2.022-0.327 3.517-0.486 4.48-0.486 1.925 0 4.158 0.108 6.723 0.322 0.533 0.108 1.762 0.159 3.682 0.159 0.21 1.065 0.691 3.257 1.438 6.564 0.635 3.092 1.014 6.185 1.122 9.283-3.205 0.533-6.723 1.065-10.563 1.598-5.863 0.64-12.211 1.762-19.036 3.358-0.327 2.13-0.379 3.568-0.169 4.316l1.92 7.199 6.882 37.601 6.077 25.282 9.759 49.762c2.345 11.412 5.868 27.73 10.563 48.958 0.425 4.055 1.122 8.428 2.079 13.122 1.28 6.077 2.565 10.773 3.84 14.080 3.947 1.597 9.334 3.251 16.159 4.956 5.765 1.28 11.577 2.934 17.438 4.956 0.64 2.345 1.337 5.069 2.084 8.161 0.43 2.028 0.748 4.055 0.962 6.077-0.103 0.005-2.022-0.128-5.755-0.394z" />
<glyph unicode="&#xe618;" d="M10.24 224c0-135.736 110.023-245.76 245.76-245.76s245.76 110.024 245.76 245.76-110.024 245.76-245.76 245.76c-135.737 0-245.76-110.024-245.76-245.76zM48.64 224c0 114.524 92.836 207.36 207.36 207.36s207.36-92.836 207.36-207.36-92.836-207.36-207.36-207.36c-114.524 0-207.36 92.836-207.36 207.36zM216.177 304.261c0 5.212 4.224 9.431 9.431 9.431h143.836c5.212 0 9.431-4.224 9.431-9.431 0-5.212-4.224-9.431-9.431-9.431h-143.836c-5.207-0.005-9.431 4.224-9.431 9.431zM369.449 153.175h-143.841c-5.212 0-9.431-4.224-9.431-9.431s4.224-9.431 9.431-9.431h143.836c5.212 0 9.431 4.224 9.431 9.431s-4.219 9.431-9.426 9.431zM158.797 294.825h33.008c5.212 0 9.431 4.224 9.431 9.431 0 5.212-4.224 9.431-9.431 9.431h-33.008c-5.212 0-9.431-4.224-9.431-9.431 0-5.207 4.224-9.431 9.431-9.431zM191.805 153.175h-33.008c-5.212 0-9.431-4.224-9.431-9.431s4.224-9.431 9.431-9.431h33.008c5.212 0 9.431 4.224 9.431 9.431s-4.219 9.431-9.431 9.431zM225.607 240.927h95.242c5.212 0 9.431 4.224 9.431 9.431s-4.224 9.431-9.431 9.431h-95.242c-5.212 0-9.431-4.224-9.431-9.431s4.224-9.431 9.431-9.431zM225.607 188.979h95.242c5.212 0 9.431 4.224 9.431 9.431s-4.224 9.431-9.431 9.431h-95.242c-5.212 0-9.431-4.224-9.431-9.431s4.224-9.431 9.431-9.431zM181.662 252.606c-3.686 3.682-9.651 3.682-13.338 0s-3.686-9.656 0-13.343l3.906-3.906h-29.675c-5.212 0-9.431-4.224-9.431-9.431s4.224-9.431 9.431-9.431h29.675l-3.906-3.906c-3.686-3.682-3.686-9.656 0-13.337 1.843-1.843 4.255-2.765 6.666-2.765s4.828 0.921 6.666 2.765l20.009 20.009c1.772 1.772 2.765 4.168 2.765 6.666 0 2.504-0.994 4.9-2.765 6.672l-20.004 20.009z" />
<glyph unicode="&#xe619;" d="M10.24 224c0-135.736 110.023-245.76 245.76-245.76s245.76 110.024 245.76 245.76-110.024 245.76-245.76 245.76c-135.737 0-245.76-110.024-245.76-245.76zM48.64 224c0 114.524 92.836 207.36 207.36 207.36s207.36-92.836 207.36-207.36-92.836-207.36-207.36-207.36c-114.524 0-207.36 92.836-207.36 207.36zM365.507 336.015c7.803 0 13.373-5.57 13.373-13.373s-5.57-13.931-13.373-13.931h-218.455c-7.803 0-13.931 6.128-13.931 13.931s6.129 13.373 13.931 13.373h218.455zM319.252 242.949h-125.947c-7.803 0-13.374 6.129-13.374 13.931s5.571 13.374 13.374 13.374h125.947c7.803 0 13.373-5.571 13.373-13.374 0-7.803-5.57-13.931-13.373-13.931zM160.983 191.12c0 7.803 6.129 13.932 13.931 13.932h162.724c7.803 0 13.373-6.128 13.373-13.932 0-7.803-5.57-13.373-13.373-13.373h-162.724c-7.803 0-13.931 5.57-13.931 13.373zM359.373 139.295c7.803 0 13.931-5.57 13.931-13.373s-6.128-13.932-13.932-13.932h-206.745c-7.803 0-13.374 6.128-13.374 13.932s5.571 13.373 13.374 13.373h206.745z" />
<glyph unicode="&#xe61a;" d="M10.24 224c0-135.736 110.023-245.76 245.76-245.76s245.76 110.024 245.76 245.76-110.024 245.76-245.76 245.76c-135.737 0-245.76-110.024-245.76-245.76zM48.64 224c0 114.524 92.836 207.36 207.36 207.36s207.36-92.836 207.36-207.36-92.836-207.36-207.36-207.36c-114.524 0-207.36 92.836-207.36 207.36zM353.92 214.882c-9.6 11.202-23.839 18.985-42.721 23.358 13.23 6.077 21.233 10.189 24.002 12.319 6.723 5.012 11.786 10.614 15.196 16.798 3.415 6.19 5.12 13.015 5.12 20.48 0 6.933-1.122 13.44-3.358 19.517-2.243 6.083-5.709 11.627-10.399 16.64-4.803 5.012-10.24 9.067-16.322 12.16-5.652 2.775-10.772 4.854-15.36 6.241-10.988 2.882-21.176 4.322-30.562 4.322h-11.837c-2.135 0-4.296 0.025-6.482 0.082-2.181 0.057-3.328 0.082-3.435 0.082-0.533 0-1.28-0.025-2.243-0.077-0.963-0.051-1.71-0.082-2.243-0.082l-7.204-0.159-60.8-2.078-41.6-0.963 0.64-13.281c8.96-1.173 15.042-1.869 18.238-2.084 5.438-0.322 9.119-1.122 11.038-2.401 1.173-0.855 1.813-1.495 1.92-1.92 1.065-2.345 1.654-8.162 1.762-17.439 0.425-15.785 0.906-37.335 1.439-64.64l0.322-79.519c0-13.655-0.482-24.002-1.439-31.043-0.425-2.56-1.546-5.279-3.358-8.161-4.91-2.027-11.469-3.682-19.681-4.962-2.452-0.317-6.077-0.957-10.88-1.92l-0.313-15.033c25.493 0.855 39.998 1.438 43.52 1.762 22.825 1.387 38.722 1.971 47.678 1.762l31.519-0.635c12.375-0.425 22.938 0.159 31.683 1.762 13.865 2.56 24.688 5.765 32.481 9.605 7.895 3.84 15.36 9.6 22.395 17.28 5.34 5.863 9.118 12.103 11.361 18.719 3.098 9.058 4.644 17.644 4.644 25.748 0.005 13.865-4.905 26.455-14.72 37.76zM228.644 328.315c8.32 1.387 15.252 2.079 20.798 2.079 18.238 0 31.841-3.999 40.801-12.002 9.063-7.998 13.599-17.971 13.599-29.921 0-16.963-4.746-28.908-14.238-35.84-9.493-6.933-23.572-10.399-42.24-10.399-7.040 0-12.851 0.374-17.439 1.121-0.107 3.625-0.159 7.731-0.159 12.319l0.159 15.678c0.107 16.748-0.215 31.626-0.963 44.642-0.21 3.528-0.317 7.629-0.317 12.324zM308.644 143.519c-3.947-7.68-10.455-13.706-19.517-18.079-9.067-4.373-20.587-6.558-34.56-6.558-6.825 0-14.295 1.705-22.4 5.12-1.28 3.092-1.92 5.442-1.92 7.040l-0.482 43.202 0.159 27.678v23.040c2.882 1.065 8.269 1.597 16.159 1.597 17.812 0 30.986-1.705 39.522-5.12 8.853-3.415 16.374-10.137 22.558-20.163 4.373-7.040 6.558-16.64 6.558-28.8 0-11.837-2.027-21.488-6.077-28.959z" />
<glyph unicode="&#xe61b;" d="M10.24 224c0-135.736 110.023-245.76 245.76-245.76s245.76 110.024 245.76 245.76-110.024 245.76-245.76 245.76c-135.737 0-245.76-110.024-245.76-245.76zM48.64 224c0 114.524 92.836 207.36 207.36 207.36s207.36-92.836 207.36-207.36-92.836-207.36-207.36-207.36c-114.524 0-207.36 92.836-207.36 207.36zM365.901 339.087h-219.802c-7.168 0-12.979-5.811-12.979-12.979v-204.216c0-7.178 5.811-12.979 12.979-12.979h219.801c7.168 0 12.979 5.806 12.979 12.979v204.216c0 7.168-5.811 12.979-12.979 12.979zM179.415 124.483h-35.911v30.51h35.911v-30.51zM179.415 162.775h-35.911v38.938h35.911v-38.938zM179.415 209.505h-35.911v36.347h35.911v-36.347zM179.415 253.639h-35.911v31.8h35.911v-31.8zM230.042 124.483h-42.834v30.51h42.834v-30.51zM230.042 162.775h-42.834v38.938h42.834v-38.938zM230.042 209.505h-42.834v36.347h42.834v-36.347zM230.042 253.639h-42.834v31.8h42.834v-31.8zM276.767 124.483h-38.942v30.51h38.942v-30.51zM276.767 162.775h-38.942v38.938h38.942v-38.938zM276.767 209.505h-38.942v36.347h38.942v-36.347zM276.767 253.639h-38.942v31.8h38.942v-31.8zM320.901 124.483h-36.347v30.51h36.347v-30.51zM320.901 162.775h-36.347v38.938h36.347v-38.938zM320.901 209.505h-36.347v36.347h36.347v-36.347zM320.901 253.639h-36.347v31.8h36.347v-31.8zM368.497 124.483h-39.808v30.51h39.808v-30.51zM368.497 162.775h-39.808v38.938h39.808v-38.938zM368.497 209.505h-39.808v36.347h39.808v-36.347zM368.497 253.639h-39.808v31.8h39.808v-31.8z" />
<glyph unicode="&#xe61c;" d="M256 469.76c-135.737 0-245.76-110.024-245.76-245.76s110.023-245.76 245.76-245.76c135.736 0 245.76 110.024 245.76 245.76s-110.024 245.76-245.76 245.76zM256 16.64c-114.524 0-207.36 92.836-207.36 207.36s92.836 207.36 207.36 207.36c114.524 0 207.36-92.836 207.36-207.36s-92.836-207.36-207.36-207.36zM287.652 276.096c0-17.046-13.818-30.863-30.863-30.863s-30.863 13.818-30.863 30.863c0 17.046 13.818 30.863 30.863 30.863 17.046 0 30.863-13.818 30.863-30.863zM228.511 171.31h55.737l0.455 9.19h7.265v55.117l-23.27 4.987-11.397-13.639-11.73 13.639-27.249-4.987v-55.117h9.713zM132.265 324.004v-169.738h245.76v169.738h-245.76zM368.24 164.034h-226.196v150.19h226.191v-150.19zM133.325 136.601h29.22v-8.146h-29.22v8.146zM196.162 136.601h181.862v-8.146h-181.863v8.146zM167.137 145.168h24.443v-25.262h-24.443v25.262z" />
<glyph unicode="&#xe61d;" d="M10.24 224c0-135.736 110.023-245.76 245.76-245.76s245.76 110.024 245.76 245.76-110.024 245.76-245.76 245.76c-135.737 0-245.76-110.024-245.76-245.76zM48.64 224c0 114.524 92.836 207.36 207.36 207.36s207.36-92.836 207.36-207.36-92.836-207.36-207.36-207.36c-114.524 0-207.36 92.836-207.36 207.36zM256 346.88c-67.865 0-122.88-55.014-122.88-122.88s55.010-122.88 122.88-122.88c67.865 0 122.88 55.014 122.88 122.88s-55.014 122.88-122.88 122.88zM243.594 314.537c0 6.851 5.555 12.406 12.406 12.406s12.406-5.555 12.406-12.406v-85.433c0-6.85-5.555-12.406-12.406-12.406s-12.406 5.555-12.406 12.406v85.433zM256 133.243c-47.939 0-86.942 39.004-86.942 86.942 0 31.104 16.804 60.042 43.853 75.505 5.945 3.399 13.527 1.337 16.932-4.613 3.405-5.945 1.337-13.527-4.613-16.932-19.344-11.064-31.36-31.739-31.36-53.965 0-34.258 27.874-62.126 62.126-62.126s62.126 27.873 62.126 62.126c0 22.226-12.017 42.906-31.36 53.965-5.945 3.399-8.013 10.978-4.613 16.932 3.405 5.95 10.978 8.013 16.932 4.613 27.054-15.468 43.853-44.395 43.853-75.505 0.010-47.938-38.994-86.942-86.933-86.942z" />
<glyph unicode="&#xe61e;" d="M10.24 224c0-135.736 110.023-245.76 245.76-245.76s245.76 110.024 245.76 245.76-110.024 245.76-245.76 245.76c-135.737 0-245.76-110.024-245.76-245.76zM48.64 224c0 114.524 92.836 207.36 207.36 207.36s207.36-92.836 207.36-207.36-92.836-207.36-207.36-207.36c-114.524 0-207.36 92.836-207.36 207.36zM340.48 177.92c-10.839 0-20.623-4.495-27.602-11.719l-103.445 51.722c0.317 1.981 0.487 4.009 0.487 6.077s-0.169 4.096-0.487 6.077l103.44 51.722c6.983-7.224 16.768-11.719 27.607-11.719 21.207 0 38.4 17.193 38.4 38.4s-17.193 38.4-38.4 38.4-38.4-17.193-38.4-38.4c0-2.069 0.169-4.096 0.481-6.077l-103.44-51.722c-6.983 7.219-16.763 11.719-27.602 11.719-21.207 0-38.4-17.193-38.4-38.4 0-21.207 17.193-38.4 38.4-38.4 10.839 0 20.624 4.495 27.602 11.719l103.44-51.722c-0.313-1.981-0.481-4.009-0.481-6.077 0-21.207 17.193-38.4 38.4-38.4s38.4 17.193 38.4 38.4c0 21.207-17.193 38.4-38.4 38.4z" />
<glyph unicode="&#xe61f;" d="M10.24 224c0-135.736 110.023-245.76 245.76-245.76s245.76 110.024 245.76 245.76-110.024 245.76-245.76 245.76c-135.737 0-245.76-110.024-245.76-245.76zM48.64 224c0 114.524 92.836 207.36 207.36 207.36s207.36-92.836 207.36-207.36-92.836-207.36-207.36-207.36c-114.524 0-207.36 92.836-207.36 207.36zM160.302 341.76c-15.017 0-27.182-12.165-27.182-27.182v-214.052h218.578c15.012 0 27.182 12.175 27.182 27.182v214.052h-65.68v-69.084h-140.436v69.084h-12.462zM186.352 231.055h137.6v-79.841c0-7.506-6.082-13.589-13.589-13.589h-137.6v79.836c0 7.506 6.083 13.594 13.589 13.594zM184.673 162.99c0 5.898 4.782 10.67 10.67 10.67h12.651c5.893 0 10.67-4.777 10.67-10.67s-4.777-10.67-10.67-10.67h-12.651c-5.888 0-10.67 4.772-10.67 10.67zM228.941 162.99c0 5.898 4.782 10.67 10.67 10.67h12.651c5.893 0 10.67-4.777 10.67-10.67s-4.777-10.67-10.67-10.67h-12.651c-5.888 0-10.67 4.772-10.67 10.67zM273.209 162.99c0 5.898 4.782 10.67 10.67 10.67h12.651c5.893 0 10.67-4.777 10.67-10.67s-4.777-10.67-10.67-10.67h-12.651c-5.888 0-10.67 4.772-10.67 10.67zM184.673 200.935c0 5.898 4.782 10.67 10.67 10.67h12.651c5.893 0 10.67-4.777 10.67-10.67s-4.777-10.67-10.67-10.67h-12.651c-5.888 0-10.67 4.772-10.67 10.67zM228.941 200.935c0 5.898 4.782 10.67 10.67 10.67h12.651c5.893 0 10.67-4.777 10.67-10.67s-4.777-10.67-10.67-10.67h-12.651c-5.888 0-10.67 4.772-10.67 10.67zM273.209 200.935c0 5.898 4.782 10.67 10.67 10.67h12.651c5.893 0 10.67-4.777 10.67-10.67s-4.777-10.67-10.67-10.67h-12.651c-5.888 0-10.67 4.772-10.67 10.67zM286.72 341.76v-56.346h-31.15v56.346z" />
<glyph unicode="&#xe620;" d="M10.24 224c0-135.736 110.023-245.76 245.76-245.76s245.76 110.024 245.76 245.76-110.024 245.76-245.76 245.76c-135.737 0-245.76-110.024-245.76-245.76zM48.64 224c0 114.524 92.836 207.36 207.36 207.36s207.36-92.836 207.36-207.36-92.836-207.36-207.36-207.36c-114.524 0-207.36 92.836-207.36 207.36zM160.302 341.76c-15.017 0-27.182-12.165-27.182-27.182v-214.052h218.578c15.012 0 27.182 12.175 27.182 27.182v214.052h-65.68v-69.084h-140.436v69.084h-12.462zM186.352 231.055h137.6v-79.841c0-7.506-6.082-13.589-13.589-13.589h-137.6v79.836c0 7.506 6.083 13.594 13.589 13.594zM286.72 341.76v-56.346h-31.15v56.346z" />
<glyph unicode="&#xe621;" d="M10.24 224c0-135.736 110.023-245.76 245.76-245.76s245.76 110.024 245.76 245.76-110.024 245.76-245.76 245.76c-135.737 0-245.76-110.024-245.76-245.76zM48.64 224c0 114.524 92.836 207.36 207.36 207.36s207.36-92.836 207.36-207.36-92.836-207.36-207.36-207.36c-114.524 0-207.36 92.836-207.36 207.36zM256 346.88c-67.748 0-122.88-55.132-122.88-122.88s55.132-122.88 122.88-122.88c67.763 0 122.88 55.132 122.88 122.88s-55.117 122.88-122.88 122.88zM324.541 212.531c0-7.808-6.308-14.126-14.111-14.126h-108.862c-7.798 0-14.121 6.308-14.121 14.126v22.953c0 7.792 6.323 14.111 14.121 14.111h108.867c7.803 0 14.111-6.323 14.111-14.111v-22.953h-0.005z" />
<glyph unicode="&#xe622;" d="M256 469.76c-135.737 0-245.76-110.024-245.76-245.76s110.023-245.76 245.76-245.76c135.736 0 245.76 110.024 245.76 245.76s-110.024 245.76-245.76 245.76zM256 16.64c-114.524 0-207.36 92.836-207.36 207.36s92.836 207.36 207.36 207.36c114.524 0 207.36-92.836 207.36-207.36s-92.836-207.36-207.36-207.36zM374.599 301.25l-117.335 0.010-103.086 31.329c-1.316 0.405-2.714 0.164-3.804-0.656-1.090-0.809-1.736-2.094-1.736-3.446v-27.238h-11.218c-2.361 0-4.296-1.935-4.296-4.296v-151.839c0-2.37 1.935-4.296 4.296-4.296h89.058v-17.009h-16.286v-8.591h91.627v8.591h-16.286v17.009h89.058c2.361 0 4.296 1.925 4.296 4.296v151.839c0.010 2.381-1.915 4.296-4.286 4.296zM157.214 301.25v21.442l94.505-28.728v-142.863l-94.495 28.728v117.125l-0.010 4.296zM370.304 149.401h-109.998v143.257h16.88v-15.933l8.361 5.294 8.366-5.294v15.933h76.421v-143.248h-0.026v-0.010zM237.154 266.399l-33.469 10.189v5.653l33.469-10.199v-5.642zM237.154 244.833l-33.469 10.189v5.668l33.469-10.199v-5.657zM237.154 223.094l-66.964 20.368v5.642l66.964-20.362v-5.648zM237.154 201.549l-66.964 20.357v5.662l66.964-20.362v-5.658zM237.154 179.789l-66.964 20.368v5.652l66.964-20.352v-5.668zM175.918 261.801l1.736 5.689 10.087-3.057 1.797-6.759 2.939-0.891 2.964-0.891-9.405 33.429-6.441 1.946-9.4-27.705 5.724-1.761zM182.738 283.474l3.507-13.343-7.045 2.14 3.538 11.203zM317.543 261.913c-20.935 0-37.909-16.973-37.909-37.909s16.983-37.909 37.909-37.909 37.909 16.973 37.909 37.909c0 20.93-16.973 37.909-37.909 37.909zM317.543 210.832c-7.276 0-13.168 5.909-13.168 13.168 0 7.266 5.904 13.168 13.168 13.168 7.265 0 13.159-5.909 13.159-13.168 0.005-7.265-5.883-13.168-13.159-13.168z" />
<glyph unicode="&#xe623;" d="M10.24 224c0-135.736 110.023-245.76 245.76-245.76s245.76 110.024 245.76 245.76-110.024 245.76-245.76 245.76c-135.737 0-245.76-110.024-245.76-245.76zM48.64 224c0 114.524 92.836 207.36 207.36 207.36s207.36-92.836 207.36-207.36-92.836-207.36-207.36-207.36c-114.524 0-207.36 92.836-207.36 207.36zM356.163 346.88h-168.96c-21.197 0-38.354-17.034-38.661-38.154l-0.061 0.077v-168.96c0-21.381 17.341-38.722 38.722-38.722h130.56c8.478 0 15.038 6.882 15.038 15.36v161.28c0 4.24-3.118 7.68-7.358 7.68h-138.24c-12.887 0-23.363 9.846-23.363 22.717 0 12.887 10.476 23.363 23.363 23.363h160.958v-176.64c0-4.224 3.763-7.68 8.002-7.68s7.358 3.456 7.358 7.68v184.32c0 4.24-3.118 7.68-7.358 7.68zM187.202 270.080h130.253l0.322-153.6h-130.56c-12.903 0-23.378 10.476-23.378 23.363v137.748c6.451-4.731 14.515-7.511 23.363-7.511zM236.831 206.331h17.337v-52.009h-17.337v52.009zM236.831 241.004h17.337v-17.336h-17.337v17.337z" />
<glyph unicode="&#xe624;" d="M10.24 224c0-135.736 110.023-245.76 245.76-245.76s245.76 110.024 245.76 245.76-110.024 245.76-245.76 245.76c-135.737 0-245.76-110.024-245.76-245.76zM48.64 224c0 114.524 92.836 207.36 207.36 207.36s207.36-92.836 207.36-207.36-92.836-207.36-207.36-207.36c-114.524 0-207.36 92.836-207.36 207.36zM274.622 324.224v-41.989c-92.339 0-168.847-30.567-128.988-165.811-6.267 84.536 34.887 111.079 128.988 111.079v-41.2c0-2.98 1.644-5.652 4.393-6.794 0.906-0.358 1.863-0.558 2.826-0.558 1.899 0 3.789 0.748 5.192 2.166l87.993 68.793c2.873 2.862 2.873 7.542 0 10.399l-87.993 69.12c-2.11 2.089-5.284 2.734-8.018 1.587-2.75-1.137-4.382-3.81-4.393-6.789z" />
<glyph unicode="&#xe625;" d="M256 469.76c-135.737 0-245.76-110.024-245.76-245.76s110.023-245.76 245.76-245.76c135.736 0 245.76 110.024 245.76 245.76s-110.024 245.76-245.76 245.76zM256 16.64c-114.524 0-207.36 92.836-207.36 207.36s92.836 207.36 207.36 207.36c114.524 0 207.36-92.836 207.36-207.36s-92.836-207.36-207.36-207.36zM364.836 242.007c-0.409 7.030-4.572 15.99-22.052 18.887-3.113 0.517-6.395 0.65-10.005 0.409-3.942-0.266-7.603-0.926-11.141-1.577-3.287-0.604-6.329-1.167-9.072-1.351-7.035-0.476-12.887 1.388-18.596 11.991-4.014 7.47-1.863 23.49-0.834 31.186l0.205 1.521c2.146 16.338 1.592 32.661-16.845 41.431-3.661 1.746-7.193 2.55-10.25 2.345-1.92-0.128-3.661-0.65-5.161-1.557-3.676-2.217-5.678-6.364-5.929-12.334-0.082-1.746 0.185-3.82 0.456-6.011 1.034-8.202 2.76-21.878-8.474-41.943-14.72-18.432-22.277-21.509-22.354-21.54l-0.732-0.359c-8.632-5.893-15.954-13.25-23.030-20.362-6.492-6.518-13.174-13.22-20.531-18.494l-26.112-2.16-8.663-0.584 6.774-100.25 0.502-7.409 33.188 2.243 17.423-3.917c25.518-11.295 56.55-11.94 78.070-10.486 12.902 0.87 22.128 2.503 23.839 2.832 0.988-0.051 2.253-0.026 3.522 0.062 8.043 0.543 14.797 3.379 20.070 8.428 8.976 8.596 11.131 21.043 11.643 26.317 8.11 3.901 13.261 9.354 15.314 16.2 2.514 8.412-0.42 16.615-2.56 21.002 7.024 4.526 11.207 10.204 12.421 16.886 2.452 13.502-8.31 25.559-8.423 25.677-0.584 0.553-1.122 1.198-1.536 1.797 4.101 3.686 9.385 12.391 8.873 21.12z" />
<glyph unicode="&#xe626;" d="M256 469.76c-135.737 0-245.76-110.024-245.76-245.76s110.023-245.76 245.76-245.76c135.736 0 245.76 110.024 245.76 245.76s-110.024 245.76-245.76 245.76zM256 16.64c-114.524 0-207.36 92.836-207.36 207.36s92.836 207.36 207.36 207.36c114.524 0 207.36-92.836 207.36-207.36s-92.836-207.36-207.36-207.36zM182.093 387.656c-65.352-26.87-105.293-89.969-105.293-163.533s39.941-136.663 105.293-163.533v327.065z" />
<glyph unicode="&#xe627;" d="M256 469.76c-135.737 0-245.76-110.024-245.76-245.76s110.023-245.76 245.76-245.76c135.736 0 245.76 110.024 245.76 245.76s-110.024 245.76-245.76 245.76zM256 16.64c-114.524 0-207.36 92.836-207.36 207.36s92.836 207.36 207.36 207.36c114.524 0 207.36-92.836 207.36-207.36s-92.836-207.36-207.36-207.36z" />
<glyph unicode="&#xe628;" d="M256 469.76c-135.737 0-245.76-110.024-245.76-245.76s110.023-245.76 245.76-245.76c135.736 0 245.76 110.024 245.76 245.76s-110.024 245.76-245.76 245.76zM256 16.64c-114.524 0-207.36 92.836-207.36 207.36s92.836 207.36 207.36 207.36c114.524 0 207.36-92.836 207.36-207.36s-92.836-207.36-207.36-207.36zM232.29 187.034v45.168l3.292-3.62v67.85c13.302 11.187 29.599 16.921 48.548 16.921 14.382 0 26.142-3.394 30.443-4.823v-54.589l13.286 6.882c0 17.838 0 32.010 0 33.986 0 2.601-2.939 4.28-7.705 5.315v12.267l-1.767 0.702c-0.61 0.24-15.033 5.832-34.263 5.832-20.587 0-38.323-6.272-52.767-18.647-14.444 12.375-32.164 18.647-52.767 18.647-19.236 0-33.638-5.596-34.243-5.832l-1.767-0.696v-11.367c-5.837-1.070-9.462-3.031-9.462-6.21 0-16.563 0-117.084 0-117.084h86.236c2.985-2.678 7.337-4.368 12.232-4.368 4.531 0 7.926 1.034 10.88 3.379 0 0-2.499 8.735-2.555 13.358-1.152-0.42-5.755-2.248-7.624-3.072zM230.43 186.962c-7.158 2.954-31.821 12.329-56.51 12.329-9.758 0-18.401-1.49-25.769-4.454v113.695c4.296 1.434 16 4.823 30.428 4.823 18.959 0 35.246-5.74 48.563-16.922v-67.85l3.287 3.62v-45.241zM349.348 230.902c-15.954 2.678-29.113-4.629-34.411-8.176 0.226 4.654 0.476 9.79 0.579 12.769 0.164 4.019 7.24 6.144 10.654 9.395 2.038 1.935-0.057 7.045-0.057 7.045s-17.659-7.833-17.188-15.406c0.226-3.696 0.272-8.857 0.256-13.184-4.962 3.303-15.431 8.704-30.178 8.002-20.382-0.958-33.746-15.933-33.362-38.154 0.384-30.791 27.715-56.801 46.782-56.801 4.685 0 8.519 0.604 11.51 1.337l-0.363-2.212 3.502 1.808 1.664-6.405 2.192 5.483 3.62-3.84v3.84l4.793-1.464-1.127 3.451c3.062-1.034 7.659-2.068 13.778-2.068 19.056 0 46.495 20.608 46.878 51.41 0.368 22.221-8.724 39.68-29.522 43.172zM273.751 165.909c-7.7 9.866-5.386 23.906-5.386 23.906s5.161-12.995 10.471-21.038c5.294-8.038 14.372-14.469 14.372-14.469s-11.74 1.731-19.456 11.602zM214.999 273.961h-56.32v15.36h56.32v-15.36zM158.679 256.712h56.32v-15.36h-56.32v15.36zM303.555 273.961h-56.32v15.36h56.32v-15.36zM247.234 256.712h56.32v-15.36h-56.32v15.36zM158.679 226.877h56.32v-15.36h-56.32v15.36z" />
<glyph unicode="&#xe629;" d="M256 469.76c-135.737 0-245.76-110.024-245.76-245.76s110.023-245.76 245.76-245.76c135.736 0 245.76 110.024 245.76 245.76s-110.024 245.76-245.76 245.76zM256 16.64c-114.524 0-207.36 92.836-207.36 207.36s92.836 207.36 207.36 207.36c114.524 0 207.36-92.836 207.36-207.36s-92.836-207.36-207.36-207.36zM256 44.8c-98.969 0-179.2 80.231-179.2 179.2s80.231 179.2 179.2 179.2z" />
<glyph unicode="&#xe62a;" d="M256 469.76c-135.737 0-245.76-110.024-245.76-245.76s110.023-245.76 245.76-245.76c135.736 0 245.76 110.024 245.76 245.76s-110.024 245.76-245.76 245.76zM256 16.64c-114.524 0-207.36 92.836-207.36 207.36s92.836 207.36 207.36 207.36c114.524 0 207.36-92.836 207.36-207.36s-92.836-207.36-207.36-207.36zM435.2 224c0-98.969-80.231-179.2-179.2-179.2s-179.2 80.231-179.2 179.2c0 98.969 80.231 179.2 179.2 179.2 98.969 0 179.2-80.231 179.2-179.2z" />
<glyph unicode="&#xe62b;" d="M500.68 280.546c-7.536 23.577-49.029 28.964-92.964 34.775-24.079 3.159-51.44 6.727-59.694 12.846-8.315 6.072-19.911 31.053-30.167 53.135-18.647 40.146-36.301 78.024-60.995 78.085l-0.455 0.077c-24.478-0.409-42.317-37.826-61.281-77.547-10.455-21.96-22.339-46.848-30.628-52.874-8.376-5.965-35.738-9.323-59.894-12.252-43.889-5.34-85.438-10.348-93.189-33.802s22.569-52.281 54.707-82.739c17.638-16.752 37.617-35.738 40.761-45.507s-2.181-36.869-6.835-60.688c-8.514-43.397-16.558-84.49 3.344-99.19 4.761-3.405 10.742-5.125 17.808-4.976 20.311 0.322 49.531 16.128 77.778 31.452 21.166 11.566 45.168 24.612 55.849 24.735 10.332 0 34.412-13.414 55.655-25.241 28.887-16.036 58.778-32.64 79.12-32.307 6.349 0.092 11.766 1.726 16.19 4.915 20.019 14.418 12.39 55.501 4.347 99.067-4.423 23.865-9.385 51.026-6.257 60.795 3.236 9.723 23.44 28.457 41.246 45.092 32.42 30.178 63.033 58.578 55.557 82.15z" />
<glyph unicode="&#xe62c;" d="M256 469.76c-135.737 0-245.76-110.024-245.76-245.76s110.023-245.76 245.76-245.76c135.736 0 245.76 110.024 245.76 245.76s-110.024 245.76-245.76 245.76zM256 16.64c-114.524 0-207.36 92.836-207.36 207.36s92.836 207.36 207.36 207.36c114.524 0 207.36-92.836 207.36-207.36s-92.836-207.36-207.36-207.36zM327.040 300.8h-19.2c-3.17 0-5.76 3.021-5.76 6.718v17.28c0 12.18-9.462 22.082-21.12 22.082h-96c-11.653 0-21.12-9.902-21.12-22.082v-201.6c0-12.17 9.467-22.077 21.12-22.077h142.080c11.658 0 21.12 9.907 21.12 22.077v155.52c0 12.186-9.462 22.083-21.12 22.083zM332.8 123.197c0-3.697-2.591-6.717-5.76-6.717h-142.080c-3.169 0-5.76 3.021-5.76 6.717v201.6c0 3.702 2.59 6.722 5.76 6.722h96c3.17 0 5.76-3.021 5.76-6.722v-17.28c0-12.18 9.462-22.077 21.12-22.077h19.2c3.17 0 5.76-3.021 5.76-6.723v-155.52zM295.9 170.030c3.272-2.217 6.851-4.373 10.731-6.462 3.876-2.089 6.446-3.748 7.705-4.987s1.889-2.985 1.889-5.248c0-1.613-0.748-3.226-2.233-4.839-1.485-1.608-3.287-2.416-5.406-2.416-1.71 0-3.789 0.553-6.231 1.659-2.447 1.111-5.315 2.719-8.617 4.839-3.303 2.115-6.917 4.582-10.844 7.399-7.306-3.728-16.272-5.591-26.9-5.591-8.612 0-16.333 1.377-23.158 4.122-6.825 2.745-12.56 6.702-17.188 11.858-4.633 5.166-8.12 11.3-10.465 18.401-2.345 7.106-3.512 14.832-3.512 23.193 0 8.514 1.219 16.322 3.661 23.424s5.98 13.148 10.619 18.135c4.633 4.987 10.276 8.802 16.927 11.448 6.651 2.642 14.203 3.963 22.666 3.963 11.489 0 21.345-2.33 29.583-6.989 8.233-4.659 14.469-11.285 18.698-19.87 4.234-8.591 6.349-18.678 6.349-30.264 0.005-17.567-4.757-31.493-14.274-41.774zM278.293 182.272c3.123 3.579 5.433 7.808 6.917 12.692s2.233 10.558 2.233 16.998c0 8.11-1.31 15.14-3.932 21.084-2.622 5.945-6.359 10.44-11.218 13.486s-10.44 4.572-16.738 4.572c-4.485 0-8.627-0.845-12.431-2.535s-7.076-4.142-9.82-7.368c-2.744-3.22-4.91-7.342-6.498-12.355-1.587-5.012-2.381-10.644-2.381-16.891 0-12.743 2.97-22.548 8.914-29.43 5.945-6.876 13.45-10.312 22.518-10.312 3.727 0 7.557 0.778 11.484 2.34-2.365 1.767-5.325 3.522-8.878 5.289-3.554 1.762-5.98 3.118-7.291 4.080-1.31 0.957-1.966 2.314-1.966 4.080 0 1.51 0.63 2.846 1.889 4.004 1.26 1.162 2.647 1.736 4.157 1.736 4.578 0.010 12.258-3.815 23.040-11.474z" />
<glyph unicode="&#xe62d;" d="M256 469.76c-135.737 0-245.76-110.024-245.76-245.76s110.023-245.76 245.76-245.76c135.736 0 245.76 110.024 245.76 245.76s-110.024 245.76-245.76 245.76zM256 16.64c-114.524 0-207.36 92.836-207.36 207.36s92.836 207.36 207.36 207.36c114.524 0 207.36-92.836 207.36-207.36s-92.836-207.36-207.36-207.36zM336.512 133.735c6.666 7.788 11.505 15.846 14.526 24.171 4.014 10.901 6.021 23.536 6.021 37.918 0 27.161-7.235 48.286-21.678 63.386-11.459 11.96-26.158 19.092-44.017 21.581 0.215 1.956 0.128 3.554-0.445 4.526-0.543 0.932-1.377 1.669-3.461 4.132l-17.188 20.444-31.452-56.848-64.025 1.173 10.383-26.839c-0.010 0.046 0.010 0.097 0.025 0.164-0.010-1.27 0.246-2.411 0.825-3.41 1.305-2.232 5.719-4.234 11.74-5.883-1.27-6.963-1.976-14.387-1.976-22.41 0-27.238 7.245-48.389 21.734-63.447 14.489-15.053 34.519-22.574 60.083-22.574 18.406 0 32.404 7.045 41.37 12.313l37.217-21.012 7.199 18.55-26.88 14.065zM319.202 171.070c-2.156-7.178-5.397-13.312-9.712-18.375l-31.662 17.019-9.421-19.185 20.762-10.435c-4.316-1.598-8.883-2.375-13.726-2.375-13.020 0-23.782 4.823-32.286 14.469-8.514 9.636-12.764 24.192-12.764 43.638 0 6.589 0.542 12.575 1.552 18.022 10.082-0.164 19.021 0.752 23.204 3.19 6.384 3.738 17.326 20.029 25.549 35.911 11.75-0.906 21.442-5.576 29.020-14.065 8.478-9.493 12.713-23.854 12.713-43.065 0-9.308-1.075-17.562-3.226-24.75zM236.221 258.32l47.913 88.56-87.71-19.865-60.467-67.021 81.126-1.357zM138.782 256.313l24.254-51.769 13.041-12.15-4.47 17.152z" />
<glyph unicode="&#xe62e;" d="M256 469.76c-135.737 0-245.76-110.024-245.76-245.76s110.023-245.76 245.76-245.76c135.736 0 245.76 110.024 245.76 245.76s-110.024 245.76-245.76 245.76zM256 16.64c-114.524 0-207.36 92.836-207.36 207.36s92.836 207.36 207.36 207.36c114.524 0 207.36-92.836 207.36-207.36s-92.836-207.36-207.36-207.36zM327.040 300.8h-19.2c-3.17 0-5.76 3.021-5.76 6.718v17.28c0 12.18-9.462 22.082-21.12 22.082h-96c-11.653 0-21.12-9.902-21.12-22.082v-201.6c0-12.17 9.467-22.077 21.12-22.077h142.080c11.658 0 21.12 9.907 21.12 22.077v155.52c0 12.186-9.462 22.083-21.12 22.083zM332.8 123.197c0-3.697-2.591-6.717-5.76-6.717h-142.080c-3.169 0-5.76 3.021-5.76 6.717v201.6c0 3.702 2.59 6.722 5.76 6.722h96c3.17 0 5.76-3.021 5.76-6.722v-17.28c0-12.18 9.462-22.077 21.12-22.077h19.2c3.17 0 5.76-3.021 5.76-6.723v-155.52zM229.084 210.719c1.183-0.804 2.473-1.577 3.876-2.334 1.398-0.758 2.329-1.357 2.786-1.802 0.456-0.445 0.681-1.080 0.681-1.899 0-0.579-0.266-1.162-0.804-1.746-0.537-0.579-1.188-0.875-1.951-0.875-0.619 0-1.367 0.2-2.253 0.599-0.881 0.404-1.92 0.983-3.113 1.746-1.188 0.763-2.494 1.659-3.917 2.673-2.637-1.341-5.873-2.017-9.713-2.017-3.113 0-5.898 0.497-8.366 1.49-2.463 0.988-4.531 2.416-6.206 4.281-1.674 1.863-2.934 4.080-3.779 6.646-0.845 2.565-1.27 5.356-1.27 8.376 0 3.077 0.44 5.893 1.321 8.458 0.886 2.565 2.161 4.746 3.835 6.548s3.712 3.179 6.113 4.132c2.401 0.958 5.13 1.434 8.187 1.434 4.147 0 7.71-0.839 10.68-2.524 2.975-1.679 5.227-4.076 6.754-7.173 1.526-3.102 2.294-6.748 2.294-10.931 0-6.339-1.72-11.366-5.156-15.079zM222.725 215.142c1.126 1.29 1.961 2.816 2.499 4.582 0.537 1.762 0.804 3.81 0.804 6.139 0 2.929-0.471 5.463-1.418 7.613s-2.294 3.768-4.055 4.869c-1.756 1.101-3.768 1.654-6.042 1.654-1.618 0-3.113-0.302-4.49-0.911-1.372-0.609-2.555-1.495-3.548-2.662-0.988-1.167-1.772-2.652-2.345-4.464-0.569-1.808-0.86-3.84-0.86-6.098 0-4.603 1.070-8.146 3.22-10.624 2.145-2.483 4.859-3.728 8.131-3.728 1.346 0 2.729 0.281 4.147 0.85-0.855 0.635-1.925 1.27-3.205 1.91-1.285 0.635-2.161 1.127-2.631 1.474-0.471 0.343-0.712 0.834-0.712 1.474 0 0.548 0.226 1.029 0.681 1.444 0.456 0.42 0.958 0.63 1.5 0.63 1.659-0.005 4.434-1.392 8.325-4.152zM245.453 237.271c0 1.69 0.44 3.236 1.326 4.624 0.881 1.393 2.176 2.499 3.886 3.318s3.717 1.229 6.032 1.229c2.294 0 4.275-0.43 5.945-1.28 1.674-0.855 2.923-1.971 3.753-3.353 0.829-1.382 1.244-2.821 1.244-4.311 0-2.038-0.671-3.81-2.017-5.32-1.346-1.511-3.328-3.047-5.95-4.613 0.911-1.070 1.756-2.084 2.539-3.031 0.784-0.947 1.536-1.828 2.263-2.647 0.732-0.819 1.392-1.521 1.991-2.099 0.276 0.507 0.697 1.464 1.27 2.862 0.574 1.403 1.106 2.411 1.608 3.031 0.502 0.619 1.209 0.927 2.115 0.927 0.855 0 1.613-0.302 2.268-0.917 0.656-0.609 0.983-1.351 0.983-2.227 0-0.798-0.286-1.93-0.85-3.394-0.563-1.464-1.387-3.087-2.457-4.869 0.676-0.584 1.741-1.464 3.205-2.647 1.464-1.178 2.365-1.986 2.698-2.411 0.338-0.43 0.502-0.993 0.502-1.705 0-0.947-0.338-1.741-1.019-2.391-0.686-0.645-1.438-0.967-2.279-0.967-0.855 0-1.685 0.272-2.483 0.819-0.798 0.548-2.503 1.884-5.099 4.014-1.178-1.111-2.406-2.017-3.671-2.729-1.264-0.712-2.622-1.239-4.065-1.582-1.444-0.348-3.062-0.522-4.844-0.522-2.274 0-4.316 0.333-6.129 0.998-1.808 0.666-3.313 1.557-4.516 2.688-1.198 1.127-2.094 2.375-2.673 3.753-0.583 1.372-0.875 2.765-0.875 4.183 0 1.362 0.22 2.616 0.655 3.753 0.435 1.137 1.049 2.166 1.843 3.087 0.793 0.917 1.767 1.792 2.923 2.621 1.152 0.829 2.494 1.633 4.024 2.411-1.362 1.71-2.396 3.231-3.097 4.572-0.696 1.326-1.049 2.703-1.049 4.126zM253.174 224.2c-1.853-1.075-3.241-2.151-4.157-3.221-0.922-1.075-1.377-2.345-1.377-3.82 0-0.839 0.169-1.639 0.507-2.401 0.338-0.763 0.829-1.474 1.475-2.13 0.645-0.656 1.398-1.152 2.248-1.505 0.855-0.343 1.756-0.517 2.703-0.517 0.927 0 1.828 0.144 2.704 0.435 0.875 0.292 1.7 0.707 2.483 1.244 0.784 0.533 1.592 1.203 2.427 2.002-1.618 1.495-3.077 2.969-4.368 4.439-1.296 1.464-2.841 3.292-4.644 5.474zM255.959 231.675c1.853 1.183 3.195 2.181 4.024 2.99s1.239 1.787 1.239 2.934c0 1.126-0.414 2.073-1.239 2.837-0.829 0.763-1.869 1.147-3.123 1.147s-2.309-0.389-3.149-1.173c-0.85-0.784-1.27-1.7-1.27-2.755 0-0.548 0.159-1.131 0.476-1.762 0.317-0.625 0.717-1.25 1.188-1.869s1.090-1.403 1.853-2.35zM309.217 210.284l-1.91 5.022h-16.261l-1.91-5.13c-0.748-2.002-1.387-3.353-1.91-4.050-0.522-0.702-1.387-1.055-2.591-1.055-1.019 0-1.92 0.374-2.704 1.122-0.778 0.743-1.178 1.592-1.178 2.534 0 0.548 0.092 1.111 0.276 1.69 0.179 0.584 0.476 1.392 0.896 2.432l10.235 25.974c0.292 0.748 0.64 1.643 1.050 2.688 0.409 1.049 0.845 1.915 1.31 2.606 0.461 0.691 1.075 1.25 1.828 1.679 0.758 0.425 1.69 0.64 2.8 0.64 1.127 0 2.063-0.215 2.821-0.64 0.758-0.43 1.362-0.978 1.828-1.654 0.461-0.676 0.855-1.398 1.173-2.166 0.317-0.773 0.727-1.808 1.214-3.097l10.45-25.81c0.819-1.966 1.224-3.389 1.224-4.286 0-0.926-0.384-1.776-1.157-2.55-0.773-0.778-1.705-1.162-2.796-1.162-0.64 0-1.183 0.113-1.639 0.343-0.455 0.226-0.839 0.533-1.147 0.926-0.307 0.389-0.64 0.988-0.993 1.802-0.353 0.804-0.661 1.521-0.911 2.14zM293.176 221.389h11.95l-6.031 16.512-5.918-16.512z" />
<glyph unicode="&#xe62f;" d="M256 469.76c-135.737 0-245.76-110.024-245.76-245.76s110.023-245.76 245.76-245.76c135.736 0 245.76 110.024 245.76 245.76s-110.024 245.76-245.76 245.76zM256 16.64c-114.524 0-207.36 92.836-207.36 207.36s92.836 207.36 207.36 207.36c114.524 0 207.36-92.836 207.36-207.36s-92.836-207.36-207.36-207.36zM133.028 231.987l48.727-48.502v-80.829l55.209 48.502 72.54-48.502 69.284 242.503-245.76-113.172zM227.22 199.664l92.242 72.75-92.242-88.93v16.179z" />
<glyph unicode="&#xe630;" d="M256 469.76c-135.737 0-245.76-110.024-245.76-245.76s110.023-245.76 245.76-245.76c135.736 0 245.76 110.024 245.76 245.76s-110.024 245.76-245.76 245.76zM256 16.64c-114.524 0-207.36 92.836-207.36 207.36s92.836 207.36 207.36 207.36c114.524 0 207.36-92.836 207.36-207.36s-92.836-207.36-207.36-207.36zM319.324 206.848c-3.358 4.731-6.974 9.037-10.772 12.83 1.797 8.566 2.714 17.3 2.714 25.989 0 41.579-20.551 80.194-53.642 100.782-0.937 0.584-2.13 0.584-3.072 0-33.085-20.583-53.642-59.202-53.642-100.782 0-8.428 0.855-16.896 2.544-25.211-3.794-3.789-7.409-8.1-10.773-12.836-0.522-0.738-0.671-1.664-0.415-2.524l18.596-61.312c0.313-1.029 1.157-1.792 2.207-2.007 1.044-0.21 2.125 0.174 2.811 0.993 5.11 6.154 12.19 11.013 20.209 13.916v-3.236c0-1.603 1.3-2.908 2.908-2.908h34.012c1.608 0 2.908 1.3 2.908 2.908v2.468c8.023-2.908 15.094-7.767 20.209-13.916 0.553-0.671 1.387-1.050 2.243-1.050 0.185 0 0.379 0.021 0.574 0.062 1.050 0.215 1.889 0.983 2.207 2.002l18.591 61.317c0.261 0.839 0.108 1.782-0.414 2.514zM275.41 264.499c-3.856-7.091-11.248-11.5-19.313-11.5-7.66 0-14.643 3.906-18.683 10.455-2.14 3.476-3.272 7.45-3.272 11.5 0 12.109 9.851 21.954 21.954 21.954s21.95-9.851 21.95-21.954c0-3.656-0.916-7.271-2.637-10.455zM282.322 180.096c-0.486-1.080-1.541-1.715-2.658-1.715-0.399 0-0.798 0.082-1.193 0.261-1.464 0.661-2.12 2.375-1.459 3.84 18.171 40.397 15.555 76.467 15.524 76.825-0.133 1.598 1.060 3 2.663 3.129 1.618 0.113 2.995-1.065 3.128-2.663 0.123-1.536 2.8-37.857-16.005-79.677zM256.098 291.092c-8.899 0-16.143-7.245-16.143-16.143 0-2.969 0.834-5.893 2.411-8.448 2.975-4.818 8.11-7.69 13.737-7.69 5.934 0 11.372 3.236 14.198 8.458 1.275 2.345 1.94 5.002 1.94 7.685-0.005 8.893-7.24 16.138-16.144 16.138zM272.604 146.755h-33.495c-0.973 0-1.879-0.486-2.422-1.296-0.537-0.809-0.635-1.838-0.261-2.734l16.748-39.829c0.461-1.075 1.516-1.776 2.683-1.776s2.227 0.702 2.678 1.776l16.752 39.829c0.374 0.896 0.276 1.92-0.261 2.734-0.538 0.809-1.444 1.296-2.422 1.296zM255.857 111.519l-12.375 29.425h24.75l-12.375-29.425z" />
<glyph unicode="&#xe631;" d="M256 469.76c-135.737 0-245.76-110.024-245.76-245.76s110.023-245.76 245.76-245.76c135.736 0 245.76 110.024 245.76 245.76s-110.024 245.76-245.76 245.76zM256 16.64c-114.524 0-207.36 92.836-207.36 207.36s92.836 207.36 207.36 207.36c114.524 0 207.36-92.836 207.36-207.36s-92.836-207.36-207.36-207.36zM205.512 244.495c0 0-0.348 3.82-0.517 5.73 0.901 0.517 1.767 1.081 2.576 1.705 1.434-0.825 4.296-2.483 4.296-2.483l4.88 1.28 5.535 9.564-1.28 4.88c0 0-3.686 2.14-5.53 3.195-0.051 1.060-0.164 2.12-0.379 3.129 1.464 1.255 4.377 3.753 4.377 3.753v5.043l-7.198 8.392h-5.043c0 0-2.391-2.048-3.584-3.077-1.3 0.625-2.667 1.142-4.096 1.536-0.118 1.418-0.348 4.265-0.348 4.265l-3.564 3.564-11.018-0.891-3.564-3.564c0 0 0.302-3.748 0.451-5.616-1.081-0.61-2.094-1.305-3.047-2.078-1.546 0.717-4.654 2.13-4.654 2.13l-4.88-1.275-4.613-10.055-0.159-0.686 1.449-4.193c0 0 3.6-1.644 5.401-2.468 0.077-1.188 0.256-2.34 0.558-3.466-1.377-1.157-4.121-3.492-4.121-3.492v-5.038l7.148-8.438c0 0 4.153-0.496 4.377-0.369 0.226 0.123 0.671 0.369 0.671 0.369s2.611 2.212 3.917 3.323c1.101-0.496 2.248-0.906 3.446-1.234 0.133-1.485 0.41-4.45 0.41-4.45l3.564-3.564 11.003 1.008 3.538 3.574zM192.609 256.333c-6.139 0-11.115 4.976-11.115 11.115 0 6.144 4.976 11.12 11.115 11.12 6.149 0 11.126-4.976 11.126-11.12 0.005-6.134-4.976-11.115-11.126-11.115zM236.083 208.333c0 0-0.266 2.887-0.389 4.337 0.681 0.389 1.337 0.814 1.946 1.285 1.085-0.62 3.246-1.874 3.246-1.874l3.691 0.967 4.188 7.235-0.968 3.687c0 0-2.786 1.618-4.183 2.417-0.030 0.804-0.123 1.602-0.286 2.365 1.106 0.947 3.313 2.837 3.313 2.837v3.815l-5.447 6.349h-3.82c0 0-1.808-1.546-2.714-2.32-0.978 0.471-2.018 0.865-3.097 1.162-0.087 1.070-0.256 3.226-0.256 3.226l-2.693 2.693-8.33-0.676-2.693-2.693c0 0 0.231-2.832 0.343-4.239-0.814-0.461-1.587-0.988-2.304-1.572-1.167 0.537-3.518 1.607-3.518 1.607l-3.691-0.968-3.487-7.603-0.123-0.517 1.095-3.169c0 0 2.724-1.244 4.081-1.863 0.061-0.901 0.2-1.767 0.425-2.622-1.040-0.875-3.113-2.637-3.113-2.637v-3.815l5.401-6.38c0 0 3.138-0.374 3.313-0.281 0.169 0.092 0.507 0.281 0.507 0.281s1.976 1.674 2.959 2.509c0.829-0.374 1.7-0.686 2.606-0.932 0.102-1.122 0.307-3.358 0.307-3.358l2.693-2.693 8.315 0.758 2.683 2.683zM226.329 217.283c-4.644 0-8.407 3.769-8.407 8.407 0 4.649 3.763 8.412 8.407 8.412 4.649 0 8.417-3.768 8.417-8.412 0-4.638-3.768-8.407-8.417-8.407zM312.735 313.19c-35.303 0-70.6 0-105.907 0-8.868 0-8.868-13.752 0-13.752 35.303 0 70.599 0 105.907 0 8.868 0 8.868 13.752 0 13.752zM312.735 280.643c-35.303 0-15.596 0-50.898 0-8.868 0-8.868-13.753 0-13.753 35.303 0 15.596 0 50.898 0 8.868 0 8.868 13.753 0 13.753zM172.713 330.378h159.816v-87.281h16.507v103.783h-192.825v-53.817h16.502zM319.979 149.995c-0.021 1.756-0.159 3.497-0.461 5.187 2.468 1.986 7.419 5.95 7.419 5.95l0.272 8.31-11.423 14.224-8.32 0.272c0 0-4.055-3.257-6.072-4.88-2.104 1.101-4.337 2.027-6.671 2.75-0.118 2.35-0.348 7.050-0.348 7.050l-5.694 6.062-18.207-0.886-6.067-5.688c0 0 0.297-6.19 0.445-9.277-1.808-0.952-3.527-2.048-5.13-3.262-2.514 1.255-7.557 3.758-7.557 3.758l-8.115-1.853-8.136-16.338-0.302-1.116 2.155-6.994c0 0 5.847-2.893 8.775-4.347 0.066-1.971 0.307-3.876 0.732-5.745-2.325-1.838-6.978-5.545-6.978-5.545l-0.272-8.3 11.331-14.285c0 0 6.82-1.039 7.194-0.845 0.374 0.195 1.122 0.579 1.122 0.579s4.423 3.502 6.635 5.258c1.787-0.875 3.656-1.623 5.611-2.212 0.144-2.452 0.43-7.353 0.43-7.353l5.694-6.062 18.186 1.065 6.067 5.683c0 0-0.363 6.318-0.548 9.477 1.505 0.804 2.964 1.69 4.342 2.678 2.314-1.438 6.948-4.322 6.948-4.322l8.115 1.858 9.636 15.478-1.853 8.115c-0.010 0-5.975 3.707-8.955 5.555zM281.661 131.369c-10.122 0.322-18.063 8.796-17.736 18.918 0.322 10.137 8.796 18.074 18.918 17.751 10.132-0.327 18.074-8.796 17.751-18.934-0.333-10.127-8.801-18.069-18.934-17.736zM353.792 188.784c0 0-6.416 3.988-9.625 5.98-0.021 1.889-0.169 3.758-0.497 5.565 2.663 2.14 7.987 6.41 7.987 6.41l0.292 8.94-12.293 15.303-8.945 0.292c0 0-4.362-3.492-6.533-5.253-2.268 1.193-4.664 2.196-7.183 2.964-0.123 2.53-0.368 7.588-0.368 7.588l-6.118 6.528-19.589-0.958-6.528-6.119c0 0 0.322-6.651 0.476-9.974-1.945-1.029-3.789-2.202-5.519-3.517-2.704 1.346-8.135 4.040-8.135 4.040l-8.719-1.997-8.755-17.561-0.327-1.203 2.325-7.522c0 0 4.101-2.038 7.337-3.64l5.115 4.787 16.635 0.809c2.56 8.284 10.327 14.208 19.405 13.916 10.896-0.348 19.446-9.457 19.092-20.352-0.092-2.934-0.865-5.673-2.089-8.135l11.541-14.372-0.067-2.038-0.169-5.269c2.125-1.321 4.163-2.591 4.163-2.591l8.724 1.997 10.363 16.645-1.991 8.735zM165.724 208.317c1.618 0 2.954 0.44 4.014 1.31 1.060 0.87 1.863 2.099 2.396 3.692 0.532 1.598 0.804 3.692 0.804 6.293 0 2.192-0.169 3.938-0.496 5.227-0.338 1.3-0.798 2.391-1.377 3.303-0.594 0.896-1.331 1.587-2.222 2.064-0.896 0.471-1.935 0.717-3.123 0.717-1.613 0-2.949-0.43-4.009-1.3-1.060-0.865-1.863-2.089-2.411-3.686-0.528-1.602-0.804-3.702-0.804-6.318 0-4.158 0.727-7.158 2.176-9.001 1.234-1.531 2.913-2.299 5.054-2.299zM162.703 227.088c0.743 1.054 1.746 1.587 2.99 1.587 1.264 0 2.32-0.599 3.179-1.792 0.845-1.198 1.275-3.62 1.275-7.26 0-3.625-0.43-6.041-1.275-7.245-0.855-1.209-1.905-1.817-3.149-1.817-1.25 0-2.299 0.604-3.149 1.808-0.855 1.198-1.275 3.62-1.275 7.25-0.005 3.63 0.461 6.119 1.403 7.47zM181.765 227.963c-1.137-1.019-2.468-1.879-3.988-2.601v-2.621c0.845 0.307 1.802 0.773 2.867 1.403 1.060 0.619 1.915 1.25 2.57 1.863v-17.311h2.719v22.221h-1.756c-0.471-0.958-1.275-1.94-2.411-2.954zM171.587 195.134c-0.589 0.896-1.321 1.587-2.222 2.063-0.896 0.471-1.935 0.717-3.123 0.717-1.607 0-2.949-0.43-4.009-1.3-1.060-0.865-1.853-2.089-2.396-3.687-0.532-1.598-0.809-3.702-0.809-6.313 0-4.158 0.732-7.158 2.191-9.001 1.214-1.531 2.887-2.294 5.028-2.294 1.618 0 2.959 0.44 4.024 1.31 1.049 0.87 1.853 2.099 2.391 3.692 0.532 1.598 0.804 3.692 0.804 6.293 0 2.192-0.164 3.938-0.496 5.228-0.343 1.296-0.804 2.391-1.382 3.292zM169.385 179.369c-0.855-1.209-1.899-1.817-3.149-1.817s-2.294 0.604-3.149 1.808c-0.855 1.198-1.264 3.62-1.264 7.25 0 3.63 0.456 6.123 1.393 7.47 0.743 1.055 1.746 1.587 2.99 1.587 1.27 0 2.325-0.599 3.179-1.792 0.855-1.198 1.275-3.62 1.275-7.26 0-3.63-0.42-6.041-1.275-7.245zM186.45 175.693v22.221h-1.756c-0.466-0.957-1.275-1.94-2.411-2.959-1.131-1.019-2.463-1.879-3.983-2.601v-2.622c0.839 0.307 1.797 0.773 2.862 1.403 1.060 0.62 1.92 1.25 2.57 1.863v-17.31h2.719v0.005zM201.344 175.693v22.221h-1.751c-0.466-0.957-1.275-1.94-2.411-2.959-1.131-1.019-2.463-1.879-3.983-2.601v-2.622c0.834 0.307 1.797 0.773 2.862 1.403 1.060 0.62 1.925 1.25 2.57 1.863v-17.31h2.714v0.005zM220.867 195.134c-0.589 0.896-1.321 1.587-2.222 2.063-0.896 0.471-1.935 0.717-3.118 0.717-1.613 0-2.954-0.43-4.014-1.3-1.060-0.865-1.853-2.089-2.396-3.687-0.532-1.603-0.804-3.702-0.804-6.318 0-4.158 0.727-7.158 2.186-9.001 1.214-1.531 2.893-2.294 5.033-2.294 1.613 0 2.954 0.44 4.014 1.31 1.060 0.87 1.853 2.099 2.391 3.692 0.532 1.598 0.809 3.692 0.809 6.293 0 2.192-0.169 3.938-0.507 5.228-0.327 1.3-0.784 2.396-1.372 3.298zM218.665 179.369c-0.855-1.209-1.899-1.817-3.138-1.817-1.255 0-2.299 0.604-3.159 1.808-0.855 1.198-1.264 3.62-1.264 7.25 0 3.63 0.466 6.123 1.393 7.47 0.752 1.055 1.746 1.587 2.99 1.587 1.27 0 2.325-0.599 3.179-1.792 0.855-1.198 1.275-3.62 1.275-7.26 0.010-3.63-0.415-6.041-1.275-7.245zM171.587 158.029c-0.589 0.901-1.321 1.587-2.222 2.068-0.896 0.471-1.935 0.717-3.123 0.717-1.607 0-2.949-0.435-4.009-1.3s-1.853-2.094-2.396-3.687c-0.532-1.603-0.809-3.702-0.809-6.318 0-4.163 0.732-7.163 2.191-9.001 1.214-1.531 2.887-2.299 5.028-2.299 1.618 0 2.959 0.435 4.024 1.31 1.049 0.87 1.853 2.099 2.391 3.697 0.532 1.587 0.804 3.692 0.804 6.293 0 2.186-0.164 3.938-0.496 5.228-0.343 1.296-0.804 2.391-1.382 3.292zM169.385 142.259c-0.855-1.203-1.899-1.808-3.149-1.808s-2.294 0.599-3.149 1.802c-0.855 1.203-1.264 3.62-1.264 7.255 0 3.625 0.456 6.118 1.393 7.465 0.743 1.055 1.746 1.587 2.99 1.587 1.27 0 2.325-0.599 3.179-1.792 0.855-1.198 1.275-3.62 1.275-7.26 0-3.625-0.42-6.041-1.275-7.25zM188.78 158.029c-0.594 0.901-1.331 1.587-2.222 2.068-0.896 0.471-1.935 0.717-3.123 0.717-1.607 0-2.949-0.435-4.009-1.3s-1.863-2.094-2.411-3.687c-0.532-1.603-0.804-3.697-0.804-6.313 0-4.163 0.727-7.163 2.176-9.001 1.224-1.531 2.893-2.299 5.033-2.299 1.618 0 2.959 0.435 4.014 1.31 1.060 0.87 1.863 2.099 2.396 3.697 0.532 1.587 0.804 3.692 0.804 6.293 0 2.186-0.169 3.938-0.496 5.228-0.317 1.29-0.778 2.386-1.357 3.287zM186.583 142.259c-0.855-1.203-1.899-1.808-3.149-1.808s-2.299 0.599-3.149 1.802c-0.855 1.203-1.275 3.62-1.275 7.255 0 3.625 0.466 6.118 1.403 7.465 0.743 1.055 1.746 1.587 2.99 1.587 1.27 0 2.325-0.599 3.179-1.792 0.845-1.198 1.275-3.62 1.275-7.26 0-3.625-0.43-6.041-1.275-7.25zM205.968 158.029c-0.583 0.901-1.321 1.587-2.212 2.068-0.906 0.471-1.946 0.717-3.123 0.717-1.607 0-2.949-0.435-4.009-1.3-1.065-0.865-1.863-2.094-2.411-3.687-0.532-1.603-0.804-3.697-0.804-6.313 0-4.163 0.727-7.163 2.176-9.001 1.224-1.531 2.893-2.299 5.033-2.299 1.613 0 2.959 0.435 4.014 1.31 1.060 0.87 1.853 2.099 2.391 3.697 0.532 1.587 0.809 3.692 0.809 6.293 0 2.186-0.169 3.938-0.507 5.228-0.307 1.29-0.768 2.386-1.357 3.287zM203.771 142.259c-0.845-1.203-1.905-1.808-3.138-1.808-1.255 0-2.299 0.599-3.154 1.802-0.855 1.203-1.27 3.62-1.27 7.255 0 3.625 0.466 6.118 1.398 7.465 0.748 1.055 1.751 1.587 2.99 1.587 1.264 0 2.325-0.599 3.179-1.792 0.855-1.198 1.28-3.62 1.28-7.26-0.005-3.625-0.43-6.041-1.285-7.25zM220.846 138.594v22.221h-1.751c-0.471-0.957-1.28-1.94-2.422-2.959-1.137-1.019-2.463-1.879-3.983-2.601v-2.622c0.845 0.313 1.797 0.784 2.862 1.403 1.060 0.625 1.925 1.255 2.57 1.869v-17.316h2.724v0.005zM235.515 121.836c-1.137-1.019-2.468-1.879-3.988-2.601v-2.622c0.845 0.313 1.802 0.773 2.867 1.398 1.060 0.62 1.915 1.25 2.57 1.869v-17.31h2.719v22.226h-1.756c-0.476-0.957-1.28-1.94-2.411-2.959zM171.587 120.93c-0.589 0.901-1.321 1.587-2.222 2.068-0.896 0.476-1.935 0.722-3.123 0.722-1.607 0-2.949-0.435-4.009-1.3-1.060-0.865-1.853-2.099-2.396-3.687-0.532-1.608-0.809-3.707-0.809-6.329 0-4.158 0.732-7.152 2.191-9.001 1.208-1.515 2.882-2.284 5.023-2.284 1.618 0 2.959 0.43 4.024 1.305 1.049 0.865 1.853 2.104 2.391 3.702 0.532 1.587 0.804 3.692 0.804 6.282 0 2.197-0.164 3.942-0.496 5.233-0.338 1.296-0.798 2.386-1.377 3.287zM169.385 105.159c-0.855-1.203-1.899-1.808-3.149-1.808s-2.294 0.604-3.149 1.808c-0.855 1.203-1.264 3.615-1.264 7.245 0 3.635 0.456 6.123 1.393 7.475 0.743 1.055 1.746 1.577 2.99 1.577 1.27 0 2.325-0.589 3.179-1.792 0.855-1.188 1.275-3.615 1.275-7.26 0-3.62-0.42-6.036-1.275-7.245zM182.287 120.755c-1.137-1.019-2.463-1.879-3.983-2.601v-2.622c0.839 0.313 1.797 0.773 2.862 1.398 1.060 0.62 1.92 1.25 2.57 1.869v-17.31h2.719v22.226h-1.756c-0.471-0.962-1.28-1.94-2.411-2.959zM197.186 120.755c-1.137-1.019-2.463-1.879-3.983-2.601v-2.622c0.834 0.313 1.797 0.773 2.862 1.398 1.060 0.62 1.925 1.25 2.57 1.869v-17.31h2.719v22.226h-1.751c-0.476-0.962-1.285-1.94-2.417-2.959zM220.867 120.93c-0.589 0.901-1.321 1.587-2.222 2.068-0.896 0.476-1.935 0.722-3.118 0.722-1.613 0-2.954-0.435-4.014-1.3-1.060-0.865-1.853-2.099-2.396-3.687-0.532-1.608-0.804-3.707-0.804-6.329 0-4.158 0.727-7.152 2.186-9.001 1.208-1.515 2.887-2.284 5.028-2.284 1.613 0 2.954 0.43 4.014 1.305 1.060 0.865 1.853 2.104 2.391 3.702 0.532 1.587 0.809 3.692 0.809 6.282 0 2.197-0.169 3.942-0.507 5.233-0.322 1.296-0.778 2.386-1.367 3.287zM218.665 105.159c-0.855-1.203-1.899-1.808-3.138-1.808-1.255 0-2.299 0.604-3.159 1.808-0.855 1.203-1.264 3.615-1.264 7.245 0 3.635 0.466 6.123 1.393 7.475 0.752 1.055 1.746 1.577 2.99 1.577 1.27 0 2.325-0.589 3.179-1.792 0.855-1.188 1.275-3.615 1.275-7.26 0.010-3.62-0.415-6.036-1.275-7.245z" />
<glyph unicode="&#xe632;" d="M256 469.76c-135.737 0-245.76-110.024-245.76-245.76s110.023-245.76 245.76-245.76c135.736 0 245.76 110.024 245.76 245.76s-110.024 245.76-245.76 245.76zM256 16.64c-114.524 0-207.36 92.836-207.36 207.36s92.836 207.36 207.36 207.36c114.524 0 207.36-92.836 207.36-207.36s-92.836-207.36-207.36-207.36zM317.44 346.88h-153.6v-245.76h184.32v210.647l-30.72 35.113zM179.2 116.48v215.040h122.88v-30.72h30.72v-184.32h-153.6zM194.56 208.64h122.88v-15.36h-122.88v15.36zM194.56 239.36h76.8v-15.36h-76.8v15.36zM194.56 270.080h15.36v-15.36h-15.36v15.36zM194.56 300.8h15.36v-15.36h-15.36v15.36zM194.56 177.92h122.88v-15.36h-122.88v15.36zM194.56 147.2h122.88v-15.36h-122.88v15.36zM315.668 232.064l-29.123 29.123c4.219 5.924 6.728 13.154 6.728 20.982 0 20.024-16.231 36.25-36.25 36.25s-36.25-16.226-36.25-36.25c0-20.019 16.231-36.25 36.25-36.25 7.824 0 15.058 2.509 20.982 6.727l29.123-29.122c2.361-2.361 6.185-2.361 8.54 0 2.361 2.355 2.361 6.18 0 8.54zM277.776 269.957c-2.089-3.533-5.012-6.457-8.546-8.546-3.594-2.119-7.731-3.415-12.201-3.415-13.343 0-24.166 10.819-24.166 24.167 0 13.342 10.819 24.166 24.166 24.166 13.342 0 24.166-10.819 24.166-24.166-0.005-4.47-1.3-8.612-3.42-12.206z" />
<glyph unicode="&#xe633;" d="M10.24 224c0-135.736 110.023-245.76 245.76-245.76s245.76 110.024 245.76 245.76-110.024 245.76-245.76 245.76c-135.737 0-245.76-110.024-245.76-245.76zM48.64 224c0 114.524 92.836 207.36 207.36 207.36s207.36-92.836 207.36-207.36-92.836-207.36-207.36-207.36c-114.524 0-207.36 92.836-207.36 207.36zM166.718 346.88c-7.352 0-13.302-5.959-13.302-13.307v-219.141c0-7.353 5.95-13.307 13.302-13.307h178.56c7.353 0 13.302 5.959 13.302 13.307v219.141c0 7.353-5.95 13.307-13.302 13.307h-178.56zM342.118 117.575h-172.247v212.849h172.247v-212.849zM262.303 278.861h55.772c6.81 0 12.334 5.253 12.334 12.063 0 6.82-5.529 12.073-12.334 12.073h-55.777c-6.81 0-12.334-5.253-12.334-12.073 0-6.815 5.53-12.063 12.339-12.063zM209.459 262.835c15.171 0 27.505 12.334 27.505 27.51 0 15.16-12.334 27.51-27.505 27.51-15.171 0-27.51-12.355-27.51-27.52 0-15.166 12.35-27.5 27.51-27.5zM262.303 216.325h55.772c6.81 0 12.334 5.253 12.334 12.063s-5.529 12.073-12.334 12.073h-55.777c-6.81 0-12.334-5.258-12.334-12.073 0-6.81 5.53-12.063 12.339-12.063zM209.459 197.012c15.171 0 27.505 12.339 27.505 27.51 0 15.175-12.334 27.51-27.505 27.51-15.171 0-27.51-12.334-27.51-27.51 0-15.161 12.35-27.51 27.51-27.51zM209.459 235.582c6.088 0 11.054-4.966 11.054-11.054s-4.966-11.049-11.054-11.049c-6.098 0-11.054 4.962-11.054 11.049 0.005 6.093 4.956 11.054 11.054 11.054zM262.303 147.205h55.772c6.81 0 12.334 5.253 12.334 12.063 0 6.82-5.529 12.073-12.334 12.073h-55.777c-6.81 0-12.334-5.253-12.334-12.073 0-6.81 5.53-12.063 12.339-12.063zM209.459 131.205c15.171 0 27.505 12.334 27.505 27.51 0 15.161-12.334 27.51-27.505 27.51-15.171 0-27.51-12.349-27.51-27.51 0-15.171 12.35-27.51 27.51-27.51zM209.459 169.774c6.088 0 11.054-4.966 11.054-11.054 0-6.098-4.966-11.054-11.054-11.054-6.098 0-11.054 4.962-11.054 11.054 0.005 6.082 4.956 11.054 11.054 11.054z" />
<glyph unicode="&#xe634;" d="M10.24 224c0-135.736 110.023-245.76 245.76-245.76s245.76 110.024 245.76 245.76-110.024 245.76-245.76 245.76c-135.737 0-245.76-110.024-245.76-245.76zM48.64 224c0 114.524 92.836 207.36 207.36 207.36s207.36-92.836 207.36-207.36-92.836-207.36-207.36-207.36c-114.524 0-207.36 92.836-207.36 207.36zM211.241 322.478c0 5.022 4.071 9.088 9.088 9.088h149.463c5.017 0 9.088-4.071 9.088-9.088 0-5.022-4.070-9.088-9.088-9.088h-149.463c-5.018 0-9.088 4.071-9.088 9.088zM220.329 268.953h96.952c5.022 0 9.088 4.071 9.088 9.088 0 5.022-4.070 9.088-9.088 9.088h-96.952c-5.018 0-9.088-4.066-9.088-9.088s4.071-9.088 9.088-9.088zM369.792 173.015h-149.463c-5.018 0-9.088-4.070-9.088-9.088 0-5.022 4.071-9.088 9.088-9.088h149.463c5.017 0 9.088 4.070 9.088 9.088 0 5.022-4.070 9.088-9.088 9.088zM317.276 128.584h-96.947c-5.018 0-9.088-4.065-9.088-9.088 0-5.022 4.071-9.088 9.088-9.088h96.952c5.022 0 9.088 4.070 9.088 9.088s-4.070 9.088-9.093 9.088zM154.946 264.484h14.428v73.113h-11.817c-0.338-3.82-0.041-6.892-3.026-9.2-2.985-2.314-9.257-3.466-14.925-3.466h-2.058v-10.107h17.398v-50.34zM149.622 124.421l18.119 13.476c6.246 4.291 10.347 8.269 12.314 11.94s2.944 7.618 2.944 11.842c0 6.907-2.309 12.478-6.922 16.722-4.613 4.24-10.675 6.359-18.197 6.359-7.25 0-13.046-2.146-17.392-6.436-4.352-4.291-6.518-10.757-6.518-19.41h13.977c0 5.166 0.911 8.735 2.744 10.711 1.828 1.976 4.332 2.969 7.516 2.969s5.709-1.009 7.567-3.015c1.858-2.007 2.791-4.51 2.791-7.495s-0.86-5.678-2.59-8.094c-1.726-2.416-6.528-6.487-14.407-12.216-6.738-4.93-15.57-10.937-18.299-15.293l-0.149-14.827h50.032v12.774l-33.531-0.005z" />
<glyph unicode="&#xe635;" d="M498.627 284.242c-4.234 12.206-15.094 21.146-28.17 23.086l-127.202 18.913-55.296 114.796c-5.817 12.053-18.268 19.769-31.959 19.769s-26.137-7.716-31.959-19.769l-55.291-114.8-127.216-18.913c-13.061-1.94-23.926-10.88-28.14-23.086-4.204-12.237-1.024-25.712 8.202-34.908l93.225-93.072-21.617-129.111c-2.201-13 3.436-26.050 14.484-33.659 6.067-4.173 13.2-6.293 20.337-6.293 5.868 0 11.75 1.433 17.081 4.291l110.894 59.709 110.914-59.704c5.33-2.857 11.213-4.291 17.065-4.291 7.132 0 14.269 2.125 20.352 6.293 11.044 7.608 16.65 20.654 14.469 33.659l-21.632 129.111 93.255 93.072c9.211 9.211 12.37 22.682 8.202 34.908zM371.927 180.26c-7.824-7.793-11.366-18.775-9.579-29.548l21.632-129.111-110.914 59.673c-5.315 2.873-11.182 4.291-17.081 4.291-5.868 0-11.75-1.433-17.065-4.291l-110.915-59.673 21.632 129.111c1.802 10.772-1.741 21.755-9.564 29.548l-93.225 93.072 127.202 18.944c11.627 1.726 21.632 9.001 26.629 19.374l55.321 114.765 55.306-114.78c5.012-10.373 15.002-17.628 26.614-19.374l127.232-18.944-93.225-93.056z" />
<glyph unicode="&#xe636;" d="M256 469.76c-135.737 0-245.76-110.024-245.76-245.76s110.023-245.76 245.76-245.76c135.736 0 245.76 110.024 245.76 245.76s-110.024 245.76-245.76 245.76zM256 16.64c-114.524 0-207.36 92.836-207.36 207.36s92.836 207.36 207.36 207.36c114.524 0 207.36-92.836 207.36-207.36s-92.836-207.36-207.36-207.36zM377.753 146.263l-50.381 40.663v159.954h-193.255v-245.76h193.27v37.156l26.599-21.447c0 0 12.252 1.162 18.724 10.399 6.451 9.195 5.043 19.036 5.043 19.036zM311.757 116.736c-13.63 0-148.393 0-162.012 0 0 14.075 0 200.438 0 214.528 13.63 0 148.393 0 162.012 0 0-8.29 0-76.309 0-133.714l-17.29 4.839-12.959-16.051 10.255-19.338 19.993-16.118c0-17.899 0-30.827 0-34.145zM276.245 282.88c-26.911 21.693-66.243 17.459-87.926-9.395-21.662-26.855-17.449-66.197 9.405-87.916 26.864-21.683 66.222-17.449 87.915 9.385 21.673 26.89 17.449 66.258-9.395 87.926zM274.447 203.991c-16.676-20.664-47.017-23.916-67.717-7.214-20.71 16.712-23.926 47.007-7.204 67.717 16.635 20.68 46.951 23.941 67.707 7.239 20.649-16.711 23.89-47.017 7.214-67.742zM254.444 253.496l-24.156-24.156-9.672 9.661c-2.667 2.673-6.989 2.673-9.661 0-2.673-2.673-2.673-6.999 0-9.661l14.5-14.494c2.667-2.673 6.989-2.673 9.661 0l28.99 28.989c2.673 2.673 2.673 6.989 0 9.661-2.668 2.672-6.989 2.672-9.661 0z" />
<glyph unicode="&#xe637;" d="M256 469.76c-135.737 0-245.76-110.024-245.76-245.76s110.023-245.76 245.76-245.76c135.736 0 245.76 110.024 245.76 245.76s-110.024 245.76-245.76 245.76zM256 16.64c-114.524 0-207.36 92.836-207.36 207.36s92.836 207.36 207.36 207.36c114.524 0 207.36-92.836 207.36-207.36s-92.836-207.36-207.36-207.36zM233.472 283.771l0.102-0.149c2.309-1.843 3.743-4.71 3.743-7.885 0-5.632-4.557-10.24-10.24-10.24h-58.066c-11.315 0-20.48-9.165-20.48-20.48v-39.531c0-5.632 4.608-10.24 10.24-10.24 3.118 0 5.888 1.382 7.778 3.589 0.358 0.409 1.593 1.69 1.843 1.94 5.53 5.228 12.953 8.402 21.095 8.402 16.947 0 30.72-13.767 30.72-30.72 0-16.952-13.773-30.72-30.72-30.72-8.192 0-15.672 3.226-21.202 8.453-0.2 0.2-1.429 1.382-1.741 1.838-1.889 2.202-4.71 3.635-7.88 3.635-5.637 0-10.24-4.613-10.24-10.24l0.097-29.286c0-11.315 9.165-20.48 20.48-20.48h174.080c11.315 0 20.48 9.165 20.48 20.48v44.647c0 5.632-4.613 10.24-10.24 10.24-2.873 0-5.478-1.178-7.368-3.123l-1.997-2.151c-5.529-5.376-13.056-8.653-21.351-8.653-16.952 0-30.72 13.773-30.72 30.72s13.767 30.72 30.72 30.72c8.346 0 15.872-3.333 21.401-8.704l1.587-1.69c1.894-2.151 4.659-3.533 7.731-3.533 5.632 0 10.24 4.608 10.24 10.24v24.172c0 11.315-9.165 20.48-20.48 20.48h-58.163c-5.627 0-10.24 4.608-10.24 10.24 0 2.867 1.183 5.474 3.123 7.368 8.55 6.502 14.080 16.85 14.080 28.472 0 19.815-16.026 35.84-35.84 35.84-19.815 0-35.84-16.025-35.84-35.84 0.005-11.218 5.177-21.253 13.266-27.812z" />
<glyph unicode="&#xe638;" d="M256 469.76c-135.737 0-245.76-110.024-245.76-245.76s110.023-245.76 245.76-245.76c135.736 0 245.76 110.024 245.76 245.76s-110.024 245.76-245.76 245.76zM256 16.64c-114.524 0-207.36 92.836-207.36 207.36s92.836 207.36 207.36 207.36c114.524 0 207.36-92.836 207.36-207.36s-92.836-207.36-207.36-207.36zM327.040 300.8h-19.2c-3.17 0-5.76 3.021-5.76 6.718v17.28c0 12.18-9.462 22.082-21.12 22.082h-96c-11.653 0-21.12-9.902-21.12-22.082v-201.6c0-12.17 9.467-22.077 21.12-22.077h142.080c11.658 0 21.12 9.907 21.12 22.077v155.52c0 12.186-9.462 22.083-21.12 22.083zM332.8 123.197c0-3.697-2.591-6.717-5.76-6.717h-142.080c-3.169 0-5.76 3.021-5.76 6.717v201.6c0 3.702 2.59 6.722 5.76 6.722h96c3.17 0 5.76-3.021 5.76-6.722v-17.28c0-12.18 9.462-22.077 21.12-22.077h19.2c3.17 0 5.76-3.021 5.76-6.723v-155.52zM240.927 159.452l-18.473 73.421v-79.55c0-4.398-0.983-7.705-2.949-9.907s-4.572-3.303-7.823-3.303c-3.143 0-5.714 1.091-7.701 3.262-1.992 2.176-2.985 5.488-2.985 9.943v91.182c0 5.033 1.31 8.428 3.932 10.178s6.16 2.631 10.614 2.631h7.234c4.347 0 7.506-0.394 9.472-1.178 1.966-0.788 3.42-2.201 4.362-4.244 0.947-2.043 2.018-5.371 3.226-9.984l16.742-63.119 16.743 63.12c1.203 4.608 2.279 7.936 3.226 9.984 0.947 2.043 2.401 3.456 4.368 4.244 1.966 0.784 5.12 1.178 9.472 1.178h7.229c4.454 0 7.993-0.875 10.614-2.631s3.932-5.145 3.932-10.179v-91.182c0-4.398-0.983-7.705-2.949-9.907s-4.592-3.303-7.9-3.303c-3.092 0-5.637 1.101-7.623 3.303s-2.985 5.504-2.985 9.907v79.549l-18.473-73.421c-1.203-4.767-2.186-8.264-2.944-10.491-0.758-2.233-2.161-4.26-4.204-6.093s-4.874-2.75-8.489-2.75c-2.724 0-5.028 0.589-6.917 1.772s-3.353 2.683-4.403 4.521c-1.049 1.828-1.874 3.861-2.473 6.087-0.63 2.227-1.244 4.546-1.874 6.958z" />
<glyph unicode="&#xe639;" d="M256 469.76c-135.737 0-245.76-110.024-245.76-245.76s110.023-245.76 245.76-245.76c135.736 0 245.76 110.024 245.76 245.76s-110.024 245.76-245.76 245.76zM256 16.64c-114.524 0-207.36 92.836-207.36 207.36s92.836 207.36 207.36 207.36c114.524 0 207.36-92.836 207.36-207.36s-92.836-207.36-207.36-207.36zM256 188.892l-30.403 26.614-86.933-74.522c3.159-2.934 7.424-4.757 12.13-4.757h210.407c4.685 0 8.935 1.828 12.078 4.757l-86.876 74.522-30.402-26.614zM373.335 307.015c-3.159 2.949-7.409 4.757-12.13 4.757h-210.406c-4.685 0-8.935-1.828-12.094-4.792l117.294-100.537 117.335 100.572zM133.12 296.361v-145.843l84.839 72.094zM294.041 222.613l84.839-72.094v145.894z" />
<glyph unicode="&#xe63a;" d="M10.24 224c0-135.736 110.023-245.76 245.76-245.76s245.76 110.024 245.76 245.76-110.024 245.76-245.76 245.76c-135.737 0-245.76-110.024-245.76-245.76zM48.64 224c0 114.524 92.836 207.36 207.36 207.36s207.36-92.836 207.36-207.36-92.836-207.36-207.36-207.36c-114.524 0-207.36 92.836-207.36 207.36zM350.781 215.675h-189.583c-15.488 0-28.078-12.575-28.078-28.089 0-15.467 12.595-28.073 28.078-28.073h189.573c15.478 0 28.109 12.575 28.109 28.073 0 15.514-12.621 28.089-28.099 28.089zM350.781 164.782h-78.439c8.499 4.142 14.356 12.749 14.356 22.81 0 10.076-5.898 18.693-14.356 22.825h78.438c12.585 0 22.815-10.23 22.815-22.825 0-12.58-10.23-22.81-22.815-22.81zM246.298 254.695c-0.661 0.619-1.081 1.5-1.081 2.483 0 1.863 1.506 3.379 3.374 3.379 0.016 0 0.036 0 0.036 0h15.601v24.535c-0.010 1.884 1.49 3.389 3.353 3.389h12.636c1.858 0 3.379-1.505 3.364-3.389v-24.525h15.586c1.326 0 2.519-0.768 3.077-1.976 0.543-1.214 0.338-2.622-0.497-3.625l-25.293-29.23c-0.63-0.743-1.587-1.167-2.555-1.167s-1.925 0.425-2.555 1.167l-25.047 28.959z" />
<glyph unicode="&#xe63b;" d="M256 469.76c-135.737 0-245.76-110.024-245.76-245.76s110.023-245.76 245.76-245.76c135.736 0 245.76 110.024 245.76 245.76s-110.024 245.76-245.76 245.76zM256 16.64c-114.524 0-207.36 92.836-207.36 207.36s92.836 207.36 207.36 207.36c114.524 0 207.36-92.836 207.36-207.36s-92.836-207.36-207.36-207.36zM319.529 142.776h-39.060l-23.388-28.037-24.146 28.037h-55.957v-41.656h155.822l-1.209 41.656zM255.995 152.315c35.015 0 63.406 28.39 63.406 63.406 0 7.885-1.5 15.396-4.137 22.364 1.346-0.517 2.161-0.85 2.161-0.85v34.304c0 0-30.961 16.384-61.716 16.384s-60.759-16.85-60.759-16.85v-33.848c0 0 0.63 0.256 1.72 0.681-2.585-6.917-4.066-14.366-4.066-22.185-0.005-35.015 28.365-63.406 63.391-63.406zM351.81 279.137l12.18 6.553-12.18 6.753v3.185c0 0 3.425 17.392-16.062 8.3-0.993-0.543-1.515-1.091-1.741-1.618l-80.374 44.57-105.626-60.447 39.88-18.12v5.883c0 0 33.469 18.796 67.784 18.796 34.299 0 68.818-18.258 68.818-18.258v-10.276l22.006 11.827c0-13.706 0-43.003 0-47.887h-7.317v-17.014l9.748 6.738 10.808-6.738v17.014h-7.921v50.745h-0.005zM346.501 298.583c0-0.409 0-1.531 0-3.2l-6.425 3.553c2.34 1.572 6.425 3.702 6.425-0.353zM344.33 279.803c-2.841 0-5.151 2.299-5.151 5.14 0 2.852 2.309 5.156 5.151 5.156 2.841 0 5.151-2.309 5.151-5.156 0-2.841-2.309-5.14-5.151-5.14z" />
</font>
</defs>
</svg>
