<?xml version="1.0" encoding="UTF-8"?>
<svg width="22px" height="18px" viewBox="0 0 22 18" version="1.1" xmlns="http://www.w3.org/2000/svg" xmlns:xlink="http://www.w3.org/1999/xlink">
    <title>1CDEFEAB-9032-4084-BE65-11EF327557B3</title>
    <g id="Page-1" stroke="none" stroke-width="1" fill="none" fill-rule="evenodd" stroke-linecap="round" stroke-linejoin="round">
        <g id="Icons-for-drawer-menu" transform="translate(-48.000000, -73.000000)" stroke="#241F20" stroke-width="1.5">
            <g id="Group-10" transform="translate(39.000000, 73.000000)">
                <g id="Groups" transform="translate(9.000000, 0.000000)">
                    <path d="M13.8336,8.294 C13.8336,9.927 12.5106,11.25 10.8776,11.25 C9.2446,11.25 7.9216,9.927 7.9216,8.294 C7.9216,6.661 9.2446,5.338 10.8776,5.338 C12.5106,5.338 13.8336,6.661 13.8336,8.294 Z" id="Stroke-1"></path>
                    <path d="M16.7095,17.1719 C16.2445,14.3709 13.8105,12.2349 10.8775,12.2349 C7.9525,12.2349 5.5245,14.3589 5.0495,17.1489" id="Stroke-3"></path>
                    <path d="M18.086,3.793 C18.086,5.289 16.874,6.502 15.378,6.502 C13.881,6.502 12.669,5.289 12.669,3.793 C12.669,2.298 13.881,1.085 15.378,1.085 C16.874,1.085 18.086,2.298 18.086,3.793 Z" id="Stroke-5"></path>
                    <path d="M13.8326,7.628 C14.3226,7.482 14.8406,7.404 15.3776,7.404 C18.0646,7.404 20.2946,9.361 20.7216,11.928" id="Stroke-7"></path>
                    <path d="M8.7984,3.459 C8.7984,4.954 7.5864,6.167 6.0904,6.167 C4.5944,6.167 3.3814,4.954 3.3814,3.459 C3.3814,1.963 4.5944,0.75 6.0904,0.75 C7.5864,0.75 8.7984,1.963 8.7984,3.459 Z" id="Stroke-9"></path>
                    <path d="M7.6461,7.2969 C7.1531,7.1499 6.6311,7.0699 6.0901,7.0699 C3.4101,7.0699 1.1851,9.0159 0.7501,11.5709" id="Stroke-11"></path>
                </g>
            </g>
        </g>
    </g>
</svg>