<?xml version="1.0" encoding="UTF-8"?>
<svg width="32px" height="32px" viewBox="0 0 32 32" version="1.1" xmlns="http://www.w3.org/2000/svg" xmlns:xlink="http://www.w3.org/1999/xlink">
    <title>398664C3-20BA-4D8B-BBFE-2BF4634F7901</title>
    <g stroke="none" stroke-width="1" fill="none" fill-rule="evenodd">
        <g id="1440-X-768" transform="translate(-775.000000, -110.000000)">
            <g id="Group-22-Copy-3" transform="translate(759.000000, 102.000000)">
                <g id="poem" transform="translate(16.000000, 8.000000)">
                    <circle id="Oval" cx="16" cy="16" r="16"></circle>
                    <path d="M3.71249999,7.84999996 C3.71249999,6.67199998 4.67199998,5.71249999 5.84999996,5.71249999" id="Stroke-1" stroke="#B620E0" stroke-width="1.5" stroke-linecap="round" stroke-linejoin="round"></path>
                    <path d="M7.98749994,26.4033097 C8.00649994,27.5718097 8.95649993,28.5123097 10.1249999,28.5123097" id="Stroke-3" stroke="#B620E0" stroke-width="1.5" stroke-linecap="round" stroke-linejoin="round"></path>
                    <path d="M7.98749994,26.4033097 C8.00649994,27.5718097 8.95649993,28.5123097 10.1249999,28.5123097" id="Stroke-5" stroke="#B620E0" stroke-width="1.5" stroke-linecap="round" stroke-linejoin="round"></path>
                    <path d="M25.0874997,26.4033097 C25.0874997,27.5623097 24.1374997,28.5123097 22.9784997,28.5123097 L10.1249999,28.5123097 C11.2934999,28.5123097 12.2434999,27.5718097 12.2624999,26.4033097 L25.0874997,26.4033097 Z" id="Stroke-7" stroke="#B620E0" stroke-width="1.5" stroke-linecap="round" stroke-linejoin="round"></path>
                    <path d="M7.98749994,7.84999996 L3.71249999,7.84999996 C3.71249999,6.67199998 4.67199998,5.71249999 5.84999996,5.71249999 C6.43899996,5.71249999 6.97099995,5.94999999 7.36049995,6.33949998 C7.74999994,6.72899998 7.98749994,7.26099997 7.98749994,7.84999996 Z" id="Stroke-9" stroke="#B620E0" stroke-width="1.5" stroke-linecap="round" stroke-linejoin="round"></path>
                    <path d="M21.5249998,20.3711898 L21.5249998,26.4036897 L12.2624999,26.4036897 C12.2434999,27.5721897 11.2934999,28.5126897 10.1249999,28.5126897 C8.95649993,28.5126897 8.00649994,27.5721897 7.98749994,26.4036897 L7.98749994,7.85018996 C7.98749994,7.26118997 7.74999994,6.72918998 7.36049995,6.33968998 C6.97099995,5.95018999 6.43899996,5.71268999 5.84999996,5.71268999 L19.3874998,5.71268999 C20.5654998,5.71268999 21.5249998,6.67218998 21.5249998,7.85018996 L21.5249998,11.5076899" id="Stroke-11" stroke="#B620E0" stroke-width="1.5" stroke-linecap="round" stroke-linejoin="round"></path>
                    <polygon id="Stroke-13" stroke="#B620E0" stroke-width="1.5" stroke-linecap="round" stroke-linejoin="round" points="16.5468098 20.8767798 15.1465098 16.6435799 18.1466098 12.1766799 19.3464598 14.8765799 21.3471598 11.5762799 28.6460097 8.77662995 25.4464097 15.2765299 24.1040597 15.9529299 26.0468097 17.7769298 20.6460598 20.8767798"></polygon>
                    <line x1="22.5723748" y1="14.6832549" x2="14.4033249" y2="22.5483048" id="Stroke-15" stroke="#B620E0" stroke-width="1.5" stroke-linecap="round" stroke-linejoin="round"></line>
                </g>
            </g>
        </g>
    </g>
</svg>