<?xml version="1.0" encoding="UTF-8"?>
<svg width="32px" height="32px" viewBox="0 0 32 32" version="1.1" xmlns="http://www.w3.org/2000/svg" xmlns:xlink="http://www.w3.org/1999/xlink">
    <title>24965676-5AED-4952-952F-154CBE10445B</title>
    <g stroke="none" stroke-width="1" fill="none" fill-rule="evenodd">
        <g id="1440-X-768" transform="translate(-500.000000, -110.000000)">
            <g id="Group-19" transform="translate(484.000000, 102.000000)">
                <g id="Quiz" transform="translate(16.000000, 8.000000)">
                    <circle id="Oval" cx="16" cy="16" r="16"></circle>
                    <path d="M24.8838,21.1499 L23.9498,21.1499 L23.9498,26.7499 L18.3498,21.1499 L7.6158,21.1499 C6.5858,21.1499 5.7498,20.3149 5.7498,19.2829 L5.7498,7.6169 C5.7498,6.5859 6.5858,5.7499 7.6158,5.7499 L24.8838,5.7499 C25.9138,5.7499 26.7498,6.5859 26.7498,7.6169 L26.7498,19.2829 C26.7498,20.3149 25.9138,21.1499 24.8838,21.1499 Z" id="Stroke-1" stroke="#0C989B" stroke-width="1.5" stroke-linecap="round" stroke-linejoin="round"></path>
                    <path d="M13.4502,11.9102 L13.4502,11.2592 C13.4502,9.7632 14.6632,8.5502 16.1592,8.5502 L16.3412,8.5502 C17.8372,8.5502 19.0502,9.7632 19.0502,11.2592 C19.0502,12.3172 18.3732,13.2552 17.3702,13.5902 C16.3672,13.9242 15.6902,14.8632 15.6902,15.9212" id="Stroke-3" stroke="#0C989B" stroke-width="1.5" stroke-linecap="round" stroke-linejoin="round"></path>
                    <path d="M15.6836,18.7207 C15.5896,18.7207 15.4966,18.7017 15.4126,18.6647 C15.3296,18.6277 15.2536,18.5797 15.1886,18.5147 C15.1226,18.4497 15.0766,18.3747 15.0386,18.2917 C15.0016,18.2067 14.9836,18.1137 14.9836,18.0207 C14.9836,17.9277 15.0016,17.8337 15.0386,17.7497 C15.0766,17.6657 15.1226,17.5917 15.1886,17.5257 C15.2536,17.4607 15.3296,17.4137 15.4126,17.3767 C15.5796,17.3017 15.7766,17.3017 15.9546,17.3767 C16.0376,17.4137 16.1126,17.4607 16.1786,17.5257 C16.2436,17.5917 16.2896,17.6657 16.3276,17.7497 C16.3646,17.8337 16.3836,17.9277 16.3836,18.0207 C16.3836,18.1137 16.3646,18.2067 16.3276,18.2917 C16.2896,18.3747 16.2436,18.4497 16.1786,18.5147 C16.0466,18.6457 15.8706,18.7207 15.6836,18.7207" id="Fill-5" fill="#0C989B"></path>
                </g>
            </g>
        </g>
    </g>
</svg>