<?xml version="1.0" encoding="UTF-8"?>
<svg width="32px" height="32px" viewBox="0 0 32 32" version="1.1" xmlns="http://www.w3.org/2000/svg" xmlns:xlink="http://www.w3.org/1999/xlink">
    <title>198B052E-84A4-46DD-8022-CF78EC22BDD0</title>
    <g stroke="none" stroke-width="1" fill="none" fill-rule="evenodd">
        <g id="1440-X-768" transform="translate(-910.000000, -110.000000)">
            <g id="Group-22-Copy-4" transform="translate(894.000000, 102.000000)">
                <g id="tv" transform="translate(16.000000, 8.000000)">
                    <circle id="Oval" cx="16" cy="16" r="16"></circle>
                    <path d="M25.75,24.25 L7.568,24.25 C6.564,24.25 5.75,23.436 5.75,22.432 L5.75,11.068 C5.75,10.064 6.564,9.25 7.568,9.25 L25.75,9.25 C26.754,9.25 27.568,10.064 27.568,11.068 L27.568,22.432 C27.568,23.436 26.754,24.25 25.75,24.25 Z" id="Stroke-1" stroke="#0091FF" stroke-width="1.5" stroke-linecap="round" stroke-linejoin="round"></path>
                    <polygon id="Stroke-3" stroke="#0091FF" stroke-width="1.5" stroke-linecap="round" stroke-linejoin="round" points="8.75 21.25 20.75 21.25 20.75 12.25 8.75 12.25"></polygon>
                    <path d="M23.75,14.5 C23.649,14.5 23.56,14.48 23.46,14.44 C23.37,14.4 23.29,14.35 23.22,14.28 C23.08,14.14 23,13.95 23,13.75 C23,13.65 23.02,13.55 23.06,13.46 C23.09,13.37 23.149,13.29 23.22,13.22 C23.29,13.15 23.37,13.1 23.46,13.06 C23.64,12.98 23.85,12.98 24.04,13.06 C24.13,13.1 24.21,13.15 24.28,13.22 C24.35,13.29 24.399,13.37 24.439,13.46 C24.479,13.55 24.5,13.65 24.5,13.75 C24.5,13.95 24.42,14.14 24.28,14.28 C24.21,14.35 24.13,14.4 24.04,14.44 C23.95,14.48 23.85,14.5 23.75,14.5" id="Fill-5" fill="#0091FF"></path>
                    <path d="M23.75,17.5 C23.649,17.5 23.56,17.48 23.46,17.44 C23.37,17.4 23.29,17.35 23.22,17.28 C23.08,17.14 23,16.95 23,16.75 C23,16.65 23.02,16.55 23.06,16.46 C23.09,16.37 23.149,16.29 23.22,16.22 C23.29,16.15 23.37,16.1 23.46,16.06 C23.64,15.98 23.85,15.98 24.04,16.06 C24.13,16.1 24.21,16.15 24.28,16.22 C24.35,16.29 24.399,16.37 24.439,16.46 C24.479,16.55 24.5,16.65 24.5,16.75 C24.5,16.95 24.42,17.14 24.28,17.28 C24.21,17.35 24.13,17.4 24.04,17.44 C23.95,17.48 23.85,17.5 23.75,17.5" id="Fill-6" fill="#0091FF"></path>
                    <line x1="11.75" y1="24.25" x2="10.25" y2="27.25" id="Stroke-7" stroke="#0091FF" stroke-width="1.5" stroke-linecap="round" stroke-linejoin="round"></line>
                    <line x1="20.75" y1="24.25" x2="22.25" y2="27.25" id="Stroke-8" stroke="#0091FF" stroke-width="1.5" stroke-linecap="round" stroke-linejoin="round"></line>
                    <line x1="13.25" y1="4.75" x2="14.75" y2="9.25" id="Stroke-9" stroke="#0091FF" stroke-width="1.5" stroke-linecap="round" stroke-linejoin="round"></line>
                    <line x1="17.75" y1="9.25" x2="19.25" y2="4.75" id="Stroke-10" stroke="#0091FF" stroke-width="1.5" stroke-linecap="round" stroke-linejoin="round"></line>
                </g>
            </g>
        </g>
    </g>
</svg>