<?xml version="1.0" encoding="UTF-8"?>
<svg width="37px" height="37px" viewBox="0 0 37 37" version="1.1" xmlns="http://www.w3.org/2000/svg" xmlns:xlink="http://www.w3.org/1999/xlink">
    <title>Group 45</title>
    <g id="V1" stroke="none" stroke-width="1" fill="none" fill-rule="evenodd">
        <g id="01-Landing-page" transform="translate(-748, -577)">
            <g id="Group-58" transform="translate(732, 561.7933)">
                <g id="Group-43" transform="translate(16, 15.2067)">
                    <path d="M34.194601,0.755102041 L2.93114077,0.755102041 C1.72923461,0.755102041 0.755102041,1.89119545 0.755102041,3.29292826 L0.755102041,26.9112618 C0.755102041,28.3128862 1.72923461,29.4489796 2.93114077,29.4489796 L34.194601,29.4489796 C35.3965614,29.4489796 36.3707483,28.3128862 36.3707483,26.9112618 L36.3707483,3.29292826 C36.3707483,1.89119545 35.3965614,0.755102041 34.194601,0.755102041" id="Fill-1" fill="#2386FC"></path>
                    <path d="M32.5514138,3.64965986 L4.57443652,3.64965986 C4.06371142,3.64965986 3.64965986,4.06385154 3.64965986,4.57462823 L3.64965986,25.6293448 C3.64965986,26.1401758 4.06371142,26.5544218 4.57443652,26.5544218 L15.3123653,26.5544218 L21.813485,26.5544218 L32.5514138,26.5544218 C33.0621389,26.5544218 33.4761905,26.1401758 33.4761905,25.6293448 L33.4761905,4.57462823 C33.4761905,4.06385154 33.0621389,3.64965986 32.5514138,3.64965986" id="Fill-3" fill="#ADD5FA"></path>
                    <path d="M23.9718258,36.244898 L13.0281742,36.244898 C12.2273807,36.244898 11.5782313,35.5981602 11.5782313,34.8004627 L11.5782313,34.7947754 C11.5782313,33.9970779 12.2273807,33.3503401 13.0281742,33.3503401 L23.9718258,33.3503401 C24.7726193,33.3503401 25.4217687,33.9970779 25.4217687,34.7947754 L25.4217687,34.8004627 C25.4217687,35.5981602 24.7726193,36.244898 23.9718258,36.244898" id="Fill-5" fill="#F32290"></path>
                    <polygon id="Fill-7" fill="#CCF5FC" points="15.4854735 29.4489796 14.3469388 33.3503401 22.7789116 33.3503401 21.6403222 29.4489796"></polygon>
                    <path d="M12.0816327,7.48809524 C12.0816327,8.28737843 11.4336248,8.93537415 10.6343267,8.93537415 C9.83502851,8.93537415 9.18707483,8.28737843 9.18707483,7.48809524 C9.18707483,6.68881205 9.83502851,6.04081633 10.6343267,6.04081633 C11.4336248,6.04081633 12.0816327,6.68881205 12.0816327,7.48809524" id="Fill-9" fill="#FFDFE5"></path>
                    <path d="M12.0014689,13.4659864 L9.14138827,13.4659864 C8.54105667,13.4659864 8.05442177,12.978932 8.05442177,12.3782043 L8.05442177,11.4494016 C8.05442177,10.061011 9.17910601,8.93537415 10.5664557,8.93537415 L10.5762927,8.93537415 C11.9636968,8.93537415 13.0884354,10.061011 13.0884354,11.4494016 L13.0884354,12.3782043 C13.0884354,12.978932 12.6017461,13.4659864 12.0014689,13.4659864" id="Fill-11" fill="#F32290"></path>
                    <path d="M27.9387755,7.48809524 C27.9387755,8.28737843 27.2907677,8.93537415 26.4914695,8.93537415 C25.6921714,8.93537415 25.0442177,8.28737843 25.0442177,7.48809524 C25.0442177,6.68881205 25.6921714,6.04081633 26.4914695,6.04081633 C27.2907677,6.04081633 27.9387755,6.68881205 27.9387755,7.48809524" id="Fill-13" fill="#FFDFE5"></path>
                    <path d="M27.8586117,13.4659864 L24.9985311,13.4659864 C24.3981995,13.4659864 23.9115646,12.978932 23.9115646,12.3782043 L23.9115646,11.4494016 C23.9115646,10.061011 25.0362489,8.93537415 26.4236529,8.93537415 L26.4334356,8.93537415 C27.8208396,8.93537415 28.9455782,10.061011 28.9455782,11.4494016 L28.9455782,12.3782043 C28.9455782,12.978932 28.458889,13.4659864 27.8586117,13.4659864" id="Fill-15" fill="#F32290"></path>
                    <path d="M12.0816327,17.1785714 C12.0816327,17.9778546 11.4336248,18.6258503 10.6343267,18.6258503 C9.83502851,18.6258503 9.18707483,17.9778546 9.18707483,17.1785714 C9.18707483,16.3792882 9.83502851,15.7312925 10.6343267,15.7312925 C11.4336248,15.7312925 12.0816327,16.3792882 12.0816327,17.1785714" id="Fill-17" fill="#FFDFE5"></path>
                    <path d="M12.0014689,23.1564626 L9.14138827,23.1564626 C8.54105667,23.1564626 8.05442177,22.6694023 8.05442177,22.0686675 L8.05442177,21.1398536 C8.05442177,19.7514463 9.17910601,18.6258503 10.5664557,18.6258503 L10.5762927,18.6258503 C11.9636968,18.6258503 13.0884354,19.7514463 13.0884354,21.1398536 L13.0884354,22.0686675 C13.0884354,22.6694023 12.6017461,23.1564626 12.0014689,23.1564626" id="Fill-19" fill="#F32290"></path>
                    <path d="M19.8843537,13.2772109 C19.8843537,14.0764941 19.2363459,14.7244898 18.4370477,14.7244898 C17.6377496,14.7244898 16.9897959,14.0764941 16.9897959,13.2772109 C16.9897959,12.4779277 17.6377496,11.829932 18.4370477,11.829932 C19.2363459,11.829932 19.8843537,12.4779277 19.8843537,13.2772109" id="Fill-21" fill="#FFDFE5"></path>
                    <path d="M19.9300403,19.255102 L17.0699597,19.255102 C16.4696281,19.255102 15.9829932,18.7680476 15.9829932,18.16732 L15.9829932,17.2385173 C15.9829932,15.8501267 17.1076774,14.7244898 18.4950815,14.7244898 L18.5048642,14.7244898 C19.8922682,14.7244898 21.0170068,15.8501267 21.0170068,17.2385173 L21.0170068,18.16732 C21.0170068,18.7680476 20.5303176,19.255102 19.9300403,19.255102" id="Fill-23" fill="#F32290"></path>
                    <path d="M27.9387755,17.1785714 C27.9387755,17.9778546 27.2907677,18.6258503 26.4914695,18.6258503 C25.6921714,18.6258503 25.0442177,17.9778546 25.0442177,17.1785714 C25.0442177,16.3792882 25.6921714,15.7312925 26.4914695,15.7312925 C27.2907677,15.7312925 27.9387755,16.3792882 27.9387755,17.1785714" id="Fill-25" fill="#FFDFE5"></path>
                    <path d="M27.8586117,23.1564626 L24.9985311,23.1564626 C24.3981995,23.1564626 23.9115646,22.6694023 23.9115646,22.0686675 L23.9115646,21.1398536 C23.9115646,19.7514463 25.0362489,18.6258503 26.4236529,18.6258503 L26.4334356,18.6258503 C27.8208396,18.6258503 28.9455782,19.7514463 28.9455782,21.1398536 L28.9455782,22.0686675 C28.9455782,22.6694023 28.458889,23.1564626 27.8586117,23.1564626" id="Fill-27" fill="#F32290"></path>
                    <path d="M18.5629252,25.7993197 C18.1806263,25.7993197 17.8707483,26.10929 17.8707483,26.4914706 C17.8707483,26.8737551 18.1806263,27.1836735 18.5629252,27.1836735 C18.945224,27.1836735 19.255102,26.8737551 19.255102,26.4914706 C19.255102,26.10929 18.945224,25.7993197 18.5629252,25.7993197" id="Fill-29" fill="#000000"></path>
                    <path d="M34.1037535,0 L2.89624648,0 C1.29926494,0 0,1.46522403 0,3.26630997 L0,26.9184447 C0,28.7194763 1.29926494,30.1848632 2.89624648,30.1848632 L14.4829126,30.1848632 L13.7713845,32.6501297 L13.0484205,32.6501297 C11.8506166,32.6501297 10.8761678,33.6257519 10.8761678,34.8250106 C10.8761678,36.0243236 11.8506166,37 13.0484205,37 L23.9516337,37 C25.1493834,37 26.1238322,36.0243236 26.1238322,34.8250106 C26.1238322,33.6257519 25.1493834,32.6501297 23.9516337,32.6501297 L23.2286155,32.6501297 L22.5170874,30.1848632 L34.1037535,30.1848632 C35.7007351,30.1848632 37,28.7194763 37,26.9184447 L37,3.26630997 C37,1.46522403 35.7007351,0 34.1037535,0 L34.1037535,0 Z M24.6756818,34.8250106 C24.6756818,35.2247997 24.3508656,35.5500252 23.9516337,35.5500252 L13.0484205,35.5500252 C12.6491344,35.5500252 12.3243182,35.2247997 12.3243182,34.8250106 C12.3243182,34.42533 12.6491344,34.1000503 13.0484205,34.1000503 L23.9516337,34.1000503 C24.3508656,34.1000503 24.6756818,34.42533 24.6756818,34.8250106 L24.6756818,34.8250106 Z M21.7212253,32.6501297 L15.2787747,32.6501297 L15.9903027,30.1848632 L21.0098057,30.1848632 L21.7212253,32.6501297 Z M35.5519039,26.9184447 C35.5519039,27.9200067 34.9022172,28.7348883 34.1037535,28.7348883 L21.5542374,28.7348883 L15.4457626,28.7348883 L2.89624648,28.7348883 C2.09778281,28.7348883 1.44809614,27.9200067 1.44809614,26.9184447 L1.44809614,3.26630997 C1.44809614,2.26469367 2.09778281,1.44997485 2.89624648,1.44997485 L34.1037535,1.44997485 C34.9022172,1.44997485 35.5519039,2.26469367 35.5519039,3.26630997 L35.5519039,26.9184447 Z" id="Fill-31" fill="#000000"></path>
                    <path d="M32.4589582,2.89455782 L4.54098766,2.89455782 C3.63316544,2.89455782 2.89455782,3.63286733 2.89455782,4.54037727 L2.89455782,25.537854 C2.89455782,26.445364 3.63316544,27.1836735 4.54098766,27.1836735 L15.2562689,27.1836735 C15.6559598,27.1836735 15.9799267,26.8598374 15.9799267,26.460416 C15.9799267,26.0608323 15.6559598,25.7370503 15.2562689,25.7370503 L4.54098766,25.7370503 C4.431139,25.7370503 4.34181926,25.6476583 4.34181926,25.537854 L4.34181926,4.54037727 C4.34181926,4.43051881 4.431139,4.34123512 4.54098766,4.34123512 L32.4589582,4.34123512 C32.5688068,4.34123512 32.6582349,4.43051881 32.6582349,4.54037727 L32.6582349,25.537854 C32.6582349,25.6476583 32.5688068,25.7370503 32.4589582,25.7370503 L21.7436769,25.7370503 C21.3440943,25.7370503 21.0201275,26.0608323 21.0201275,26.460416 C21.0201275,26.8598374 21.3440943,27.1836735 21.7436769,27.1836735 L32.4589582,27.1836735 C33.3668346,27.1836735 34.1054422,26.445364 34.1054422,25.537854 L34.1054422,4.54037727 C34.1054422,3.63286733 33.3668346,2.89455782 32.4589582,2.89455782" id="Fill-33" fill="#000000"></path>
                    <path d="M13.8435374,11.5076176 C13.8435374,10.3843839 13.2655057,9.39443347 12.3923273,8.81904635 C12.6422448,8.46640886 12.7897106,8.03605422 12.7897106,7.57158381 C12.7897106,6.38049583 11.8228467,5.41156463 10.6343537,5.41156463 C9.44580703,5.41156463 8.47888933,6.38049583 8.47888933,7.57158381 C8.47888933,8.03605422 8.62646273,8.46640886 8.87638022,8.81904635 C8.00314796,9.39443347 7.42517007,10.3843839 7.42517007,11.5076176 L7.42517007,12.4209826 C7.42517007,13.4135739 8.23096171,14.2210884 9.22138145,14.2210884 L12.047326,14.2210884 C13.0377458,14.2210884 13.8435374,13.4135739 13.8435374,12.4209826 L13.8435374,11.5076176 Z M9.91584768,7.57158381 C9.91584768,7.17459041 10.2381536,6.85154148 10.6343537,6.85154148 C11.0305539,6.85154148 11.352806,7.17459041 11.352806,7.57158381 C11.352806,7.9686311 11.0305539,8.29162613 10.6343537,8.29162613 C10.2381536,8.29162613 9.91584768,7.9686311 9.91584768,7.57158381 L9.91584768,7.57158381 Z M12.4065791,12.4209826 C12.4065791,12.6195332 12.2453992,12.7810038 12.047326,12.7810038 L9.22138145,12.7810038 C9.02325448,12.7810038 8.86212842,12.6195332 8.86212842,12.4209826 L8.86212842,11.5076176 C8.86212842,10.5283923 9.6571102,9.73165688 10.6343537,9.73165688 C11.6115973,9.73165688 12.4065791,10.5283923 12.4065791,11.5076176 L12.4065791,12.4209826 Z" id="Fill-35" fill="#000000"></path>
                    <path d="M23.2823129,11.5076176 L23.2823129,12.4209826 C23.2823129,13.41352 24.0881046,14.2210884 25.0785243,14.2210884 L27.9044689,14.2210884 C28.8948886,14.2210884 29.7006803,13.41352 29.7006803,12.4209826 L29.7006803,11.5076176 C29.7006803,10.3843839 29.1227024,9.39443347 28.2494701,8.81910025 C28.4993876,8.46646275 28.646961,8.03605422 28.646961,7.57158381 C28.646961,6.38049583 27.6800433,5.41156463 26.4914966,5.41156463 C25.3030037,5.41156463 24.3361397,6.38049583 24.3361397,7.57158381 C24.3361397,8.03605422 24.4836056,8.46640886 24.7335231,8.81904635 C23.8603446,9.39432568 23.2823129,10.3843839 23.2823129,11.5076176 L23.2823129,11.5076176 Z M26.4914966,6.85154148 C26.8876968,6.85154148 27.2100027,7.17459041 27.2100027,7.57158381 C27.2100027,7.9686311 26.8876968,8.29162613 26.4914966,8.29162613 C26.0952964,8.29162613 25.7730443,7.9686311 25.7730443,7.57158381 C25.7730443,7.17459041 26.0952964,6.85154148 26.4914966,6.85154148 L26.4914966,6.85154148 Z M24.7192713,11.5076176 C24.7192713,10.5283923 25.5142531,9.73165688 26.4914966,9.73165688 C27.4687401,9.73165688 28.2637219,10.5283923 28.2637219,11.5076176 L28.2637219,12.4209826 C28.2637219,12.6195332 28.1025959,12.7810038 27.9044689,12.7810038 L25.0785243,12.7810038 C24.8804511,12.7810038 24.7192713,12.6195332 24.7192713,12.4209826 L24.7192713,11.5076176 Z" id="Fill-37" fill="#000000"></path>
                    <path d="M7.42517007,21.072318 L7.42517007,21.9856942 C7.42517007,22.9782438 8.23096171,23.7857143 9.22138145,23.7857143 L12.047326,23.7857143 C13.0377458,23.7857143 13.8435374,22.9782438 13.8435374,21.9856942 L13.8435374,21.072318 C13.8435374,19.9490706 13.2655057,18.9590003 12.3923273,18.3837139 C12.6422448,18.0310721 12.7897106,17.6007122 12.7897106,17.1362361 C12.7897106,15.9451335 11.8228467,14.9761905 10.6343537,14.9761905 C9.44586081,14.9761905 8.47888933,15.9451335 8.47888933,17.1362361 C8.47888933,17.6007122 8.62646273,18.0310721 8.87638022,18.3837139 C8.00314796,18.9590003 7.42517007,19.9490706 7.42517007,21.072318 L7.42517007,21.072318 Z M9.91584768,17.1362361 C9.91584768,16.7392378 10.2381536,16.416185 10.6343537,16.416185 C11.0305539,16.416185 11.352806,16.7392378 11.352806,17.1362361 C11.352806,17.5332343 11.0305539,17.8562333 10.6343537,17.8562333 C10.2381536,17.8562333 9.91584768,17.5332343 9.91584768,17.1362361 L9.91584768,17.1362361 Z M8.86212842,21.072318 C8.86212842,20.092973 9.6571102,19.2962817 10.6343537,19.2962817 C11.6115973,19.2962817 12.4065791,20.092973 12.4065791,21.072318 L12.4065791,21.9856942 C12.4065791,22.1842473 12.245453,22.3457198 12.047326,22.3457198 L9.22138145,22.3457198 C9.02330826,22.3457198 8.86212842,22.1842473 8.86212842,21.9856942 L8.86212842,21.072318 Z" id="Fill-39" fill="#000000"></path>
                    <path d="M21.6462585,18.2101412 L21.6462585,17.2967166 C21.6462585,16.173476 21.0682806,15.1835196 20.1950484,14.6081828 C20.4449658,14.2555432 20.5925392,13.8251859 20.5925392,13.3607666 C20.5925392,12.1695635 19.6256215,11.2006803 18.4370748,11.2006803 C17.2485819,11.2006803 16.281718,12.1695635 16.281718,13.3607666 C16.281718,13.825132 16.4291838,14.2555432 16.6791013,14.6081828 C15.8059228,15.1835196 15.2278912,16.173476 15.2278912,17.2967166 L15.2278912,18.2101412 C15.2278912,19.2026846 16.0336828,20.0102041 17.0241025,20.0102041 L19.8500471,20.0102041 C20.8404669,20.0102041 21.6462585,19.2026846 21.6462585,18.2101412 L21.6462585,18.2101412 Z M17.7186225,13.3607666 C17.7186225,12.9637168 18.0408747,12.6407198 18.4370748,12.6407198 C18.833275,12.6407198 19.1555809,12.9637168 19.1555809,13.3607666 C19.1555809,13.7577085 18.833275,14.0807055 18.4370748,14.0807055 C18.0408747,14.0807055 17.7186225,13.7577085 17.7186225,13.3607666 L17.7186225,13.3607666 Z M20.2093002,18.2101412 C20.2093002,18.4086391 20.0481203,18.5701645 19.8500471,18.5701645 L17.0241025,18.5701645 C16.8259756,18.5701645 16.6648495,18.4086391 16.6648495,18.2101412 L16.6648495,17.2967166 C16.6648495,16.3174854 17.4598313,15.5207451 18.4370748,15.5207451 C19.4143184,15.5207451 20.2093002,16.3174854 20.2093002,17.2967166 L20.2093002,18.2101412 Z" id="Fill-41" fill="#000000"></path>
                    <path d="M23.2823129,21.9856514 C23.2823129,22.9781948 24.0881046,23.7857143 25.0785243,23.7857143 L27.9044689,23.7857143 C28.8948886,23.7857143 29.7006803,22.9781948 29.7006803,21.9856514 L29.7006803,21.0722807 C29.7006803,19.9490401 29.1227024,18.9590837 28.2494701,18.3836931 C28.4993876,18.0310534 28.646961,17.6006961 28.646961,17.1362768 C28.646961,15.9451815 27.6800433,14.9761905 26.4914966,14.9761905 C25.3030037,14.9761905 24.3361397,15.9451815 24.3361397,17.1362768 C24.3361397,17.6006961 24.4836056,18.0310534 24.7335231,18.3836931 C23.8603446,18.9590298 23.2823129,19.9489863 23.2823129,21.0722807 L23.2823129,21.9856514 Z M26.4914966,16.41623 C26.8876968,16.41623 27.2100027,16.739227 27.2100027,17.1362768 C27.2100027,17.5332187 26.8876968,17.8562157 26.4914966,17.8562157 C26.0952964,17.8562157 25.7730443,17.5332187 25.7730443,17.1362768 C25.7730443,16.739227 26.0952964,16.41623 26.4914966,16.41623 L26.4914966,16.41623 Z M24.7192713,21.0722807 C24.7192713,20.0929956 25.5142531,19.2962553 26.4914966,19.2962553 C27.4687401,19.2962553 28.2637219,20.0929956 28.2637219,21.0722807 L28.2637219,21.9856514 C28.2637219,22.1842032 28.1025959,22.3456747 27.9044689,22.3456747 L25.0785243,22.3456747 C24.8804511,22.3456747 24.7192713,22.1842032 24.7192713,21.9856514 L24.7192713,21.0722807 Z" id="Fill-43" fill="#000000"></path>
                </g>
            </g>
        </g>
    </g>
</svg>