<?xml version="1.0" encoding="UTF-8"?>
<svg width="20px" height="21px" viewBox="0 0 20 21" version="1.1" xmlns="http://www.w3.org/2000/svg" xmlns:xlink="http://www.w3.org/1999/xlink">
    <title>Activity_icon</title>
    <g id="Activity-dashboard" stroke="none" stroke-width="1" fill="none" fill-rule="evenodd">
        <g id="Activity-Dashboard-1" transform="translate(-234.000000, -113.000000)" stroke="#024F9D">
            <g id="group-course-header" transform="translate(8.000000, 96.000000)">
                <g id="Activity_icon" transform="translate(227.000000, 18.550000)">
                    <path d="M16,0.045 L2,0.045 C0.9,0.045 0,0.945 0,2.045 L0,16.045 C0,17.145 0.9,18.045 2,18.045 L16,18.045 C17.1,18.045 18,17.145 18,16.045 L18,2.045 C18,0.945 17.1,0.045 16,0.045 L16,0.045 Z" id="Shape-Copy" stroke-width="1.5"></path>
                    <g id="Group-10" transform="translate(9.000000, 9.045000) scale(-1, 1) translate(-9.000000, -9.045000) translate(4.050000, 4.545000)" stroke-width="2">
                        <line x1="0.45" y1="3.402" x2="0.45" y2="8.748" id="Path-7"></line>
                        <line x1="4.58941568" y1="4.60431693e-14" x2="4.58941568" y2="8.748" id="Path-7-Copy"></line>
                        <line x1="8.72883136" y1="2.187" x2="8.72883136" y2="8.748" id="Path-7-Copy-2"></line>
                    </g>
                </g>
            </g>
        </g>
    </g>
</svg>