<?xml version="1.0" encoding="UTF-8"?>
<svg width="256px" height="256px" viewBox="0 0 256 256" version="1.1" xmlns="http://www.w3.org/2000/svg" xmlns:xlink="http://www.w3.org/1999/xlink">
    <title>Admin icon</title>
    <g id="Admin-icon" stroke="none" stroke-width="1" fill="none" fill-rule="evenodd">
        <g id="noun_admin_3324013-copy" transform="translate(20.500000, 13.000000)" fill="#284D95" fill-rule="nonzero" stroke="#284D95">
            <path d="M80.836,171.084963 L80.162963,169.411111 C81.534649,166.165815 82.1187181,162.641931 81.8674074,159.12763 C81.7973785,158.005283 81.2944256,156.953939 80.4645185,156.195111 L70.0193333,146.580296 C69.1862635,145.833081 68.1053648,145.421904 66.9862963,145.426519 C63.4623487,145.466163 59.9980251,146.340856 56.8776296,147.978815 L55.1513333,147.458741 C53.4665963,144.35882 51.0700289,141.703124 48.1587407,139.710074 C47.2369036,139.069444 46.1039009,138.808103 44.9945926,138.980222 L30.9788148,141.165407 C29.8704258,141.337308 28.8705573,141.928779 28.1861481,142.817407 C26.0147156,145.598948 24.5361598,148.857164 23.8725926,152.322963 L22.391037,153.341259 C18.9184347,152.727116 15.3498255,152.94276 11.9764444,153.970593 C10.9007225,154.291942 9.98992591,155.014946 9.43288889,155.989704 L2.4097037,168.318519 C1.85904763,169.295713 1.7027016,170.446419 1.97266667,171.535111 C2.79195425,174.956512 4.41105687,178.134806 6.69703704,180.809037 L6.57466667,182.600889 C3.9273816,184.931194 1.87086977,187.856443 0.574148148,191.136222 C0.155948744,192.179734 0.155948744,193.344266 0.574148148,194.387778 L5.81859259,207.568815 C6.23642618,208.609414 7.03500058,209.451746 8.05185185,209.924444 C11.2490697,211.415193 14.7527927,212.13091 18.2785185,212.013481 L19.5896296,213.232815 C19.7635818,216.75355 20.768486,220.183104 22.5221481,223.240963 C23.0722696,224.218189 23.9789869,224.944816 25.0525926,225.268815 L38.626963,229.394444 C39.0386252,229.522923 39.4674966,229.587769 39.8987407,229.586753 C40.5803563,229.586753 41.2523544,229.425878 41.861037,229.119111 C45.0218632,227.555902 47.7660586,225.264079 49.8675556,222.432444 L51.6462963,222.157111 C54.509234,224.211022 57.8172958,225.558807 61.3004444,226.090444 C62.4096074,226.271684 63.5457891,226.014672 64.468963,225.373704 L76.1553333,217.332222 C77.0800166,216.696475 77.7247295,215.729405 77.9559259,214.631333 C78.7016117,211.185546 78.6207386,207.612153 77.7199259,204.20363 L78.594,202.639037 C81.9900457,201.69099 85.1119027,199.948802 87.7018519,197.556296 C88.5336131,196.800572 89.0422892,195.753481 89.1222222,194.632519 L90.1186667,180.481259 C90.2012126,179.362356 89.8472229,178.254964 89.130963,177.391407 C86.9030922,174.663392 84.0604294,172.502189 80.836,171.084963 Z M80.5475556,192.141407 C79.4854495,192.955671 78.3068094,193.605396 77.0512593,194.068741 C75.1636981,193.619418 73.2058882,194.468396 72.2438519,196.153407 L68.883037,202.044667 C67.9221452,203.725603 68.1818005,205.838415 69.5211111,207.236667 C69.7583824,208.55067 69.7952201,209.893036 69.6303704,211.218074 L61.0644444,217.113704 C59.7680162,216.795618 58.5273021,216.282829 57.3845926,215.592815 C56.5580466,213.837556 54.6732703,212.837326 52.7563704,213.136667 L46.0740741,214.172444 C44.1574202,214.469901 42.6661216,215.995012 42.4117037,217.917852 C41.526713,218.921916 40.4953633,219.786776 39.3524444,220.483259 L29.4011111,217.458963 C28.8425275,216.247057 28.4697739,214.957889 28.2954074,213.634889 C29.1525241,211.895521 28.7610514,209.799362 27.3339259,208.486593 L22.342963,203.893333 C20.9159458,202.581167 18.7950689,202.365877 17.1334815,203.364519 C15.8014156,203.29518 14.486622,203.031632 13.2307407,202.582222 L9.38481481,192.914963 C9.98614982,191.722576 10.7641065,190.627838 11.6923704,189.667778 C13.5860076,189.251776 14.9792187,187.637929 15.1143704,185.703852 L15.5907407,178.938519 C15.7265041,177.005994 14.5738263,175.214718 12.7587407,174.537556 C11.9802371,173.453746 11.3661256,172.260868 10.9362963,170.997556 L16.1020741,161.964 C17.4075655,161.690445 18.7468428,161.615304 20.0747407,161.741111 C21.5815977,162.969849 23.7190005,163.055345 25.3191852,161.950889 L30.9088889,158.104963 C32.5085453,157.006209 33.1920446,154.98419 32.5871111,153.140222 C32.9460667,151.855752 33.4939815,150.631781 34.2128889,149.508444 L44.4963704,147.91763 C45.5248237,148.767773 46.4191561,149.768188 47.1491852,150.885111 C47.1312236,152.823905 48.3927844,154.542759 50.2477778,155.106889 L56.7377778,157.077926 C58.5943392,157.641457 60.6001668,156.913522 61.6631852,155.290444 C62.891734,154.771136 64.1909546,154.438229 65.5178519,154.302741 L73.1703704,161.325926 C73.1481492,162.662997 72.9241933,163.989051 72.5060741,165.259259 C70.9770192,166.453345 70.4181785,168.512512 71.1337778,170.315778 L73.6423704,176.622222 C74.3588356,178.422487 76.1751189,179.536094 78.1045185,179.358074 C79.2799796,179.992844 80.3526573,180.801773 81.2861481,181.757407 L80.5475556,192.141407 Z M53.5561481,169.231926 C47.1864175,165.596491 39.2246723,166.323564 33.6187929,171.05262 C28.0129135,175.781675 25.9549274,183.507134 28.4652996,190.39828 C30.9756718,197.289425 37.5205997,201.880932 44.8547407,201.896074 C46.4152717,201.894928 47.9687187,201.686234 49.4742222,201.275481 C56.2967182,199.417199 61.3278679,193.631895 62.2214048,186.617535 C63.1149417,179.603174 59.6948759,172.741297 53.5561481,169.231926 Z M52.4679259,188.75 C50.3989144,192.370245 46.0608027,194.024935 42.1063899,192.702209 C38.1519772,191.379484 35.682504,187.447701 36.2080783,183.311187 C36.7336526,179.174672 40.1079103,175.985378 44.2674587,175.69359 C48.427007,175.401803 52.2134785,178.08878 53.3114074,182.111407 C53.9264294,184.348236 53.6227907,186.738048 52.4679259,188.75 L52.4679259,188.75 Z M127.362963,103.523412 C148.223217,103.532246 167.034351,90.9731348 175.02335,71.7033094 C183.012349,52.433484 178.605602,30.2485652 163.8583,15.4950113 C149.110998,0.741457486 126.927948,-3.67469108 107.654739,4.30614035 C88.3815294,12.2869718 75.8144444,31.0927811 75.8144444,51.953037 C75.8385223,80.4160572 98.8999555,103.487266 127.362963,103.523412 Z M127.362963,9.15399439 C144.687917,9.14516074 160.311859,19.5746589 166.947958,35.5782929 C173.584056,51.581927 169.925131,70.0072973 157.677663,82.2610168 C145.430195,94.5147364 127.006695,98.1830646 110.999676,91.5551341 C94.9926576,84.9272036 84.5551852,69.3085858 84.5551852,51.9836296 C84.5744447,28.34599 103.725336,9.18532264 127.362963,9.15399439 Z M209.871185,204.929111 L209.823111,204.929111 C208.663229,204.916436 207.555963,204.44318 206.745234,203.613598 C205.934506,202.784015 205.486826,201.666164 205.500815,200.506296 C205.500815,200.182889 205.601333,167.780963 183.954889,146.313704 C170.555333,133.023407 151.614148,126.546519 127.446,126.970444 C113.771559,126.344884 100.139905,128.920367 87.6362963,134.491852 C85.4945411,135.370689 83.0390285,134.426902 82.0372333,132.339829 C81.035438,130.252755 81.8349564,127.746554 83.8602963,126.625185 C97.546715,120.503787 112.465592,117.637592 127.446,118.251556 C154.070296,117.762074 175.026222,125.134889 190.173926,140.195185 C214.455704,164.302148 214.276519,199.147111 214.259037,200.619926 C214.208096,203.009687 212.26118,204.929111 209.871185,204.929111 Z" id="Shape"></path>
        </g>
    </g>
</svg>