<?xml version="1.0" encoding="UTF-8"?>
<svg width="22px" height="22px" viewBox="0 0 22 22" version="1.1" xmlns="http://www.w3.org/2000/svg" xmlns:xlink="http://www.w3.org/1999/xlink">
    <title>70430F7E-5905-47A2-A819-BAB051E6CB28</title>
    <g id="Final-layouts" stroke="none" stroke-width="1" fill="none" fill-rule="evenodd">
        <g id="Home-page-your-preferences" transform="translate(-295.000000, -735.000000)" fill="#024F9D" fill-rule="nonzero">
            <g id="Group-12" transform="translate(8.000000, 258.000000)">
                <g id="Group-2" transform="translate(8.000000, 431.000000)">
                    <g id="noun_all-archive_2088819" transform="translate(279.000000, 46.000000)">
                        <path d="M13.316875,13.193125 C13.75,13.193125 14.1097917,12.8333333 14.1097917,12.4025 L14.1097917,11.323125 C14.1120833,10.45 14.8179167,9.73958333 15.6910417,9.73958333 L18.02625,9.73958333 C18.02625,7.05833333 18.02625,7.60604167 18.02625,4.92479167 C18.02625,4.49166667 17.6710417,4.13416667 17.235625,4.13416667 L4.18229167,4.13416667 C3.95770833,4.13416667 3.77666667,3.966875 3.77666667,3.73770833 C3.77666667,3.52 3.953125,3.34354167 4.17083333,3.34354167 L17.235625,3.34354167 C18.1064583,3.34354167 18.8191667,4.05625 18.8191667,4.92479167 L18.8191667,5.96291667 L19.1995833,5.96291667 C20.68,5.96291667 21.8922917,7.17520833 21.8922917,8.655625 C21.8922917,12.16875 21.8922917,15.681875 21.8922917,19.195 C21.8922917,20.6754167 20.68,21.8854167 19.1995833,21.8854167 L2.80041667,21.8854167 C1.32,21.8854167 0.107708333,20.6754167 0.107708333,19.195 C0.107708333,15.681875 0.107708333,12.16875 0.107708333,8.655625 C0.107708333,7.17291667 1.31770833,5.96291667 2.80041667,5.96291667 L3.57729167,5.96291667 C3.79729167,5.96291667 3.97375,6.14166667 3.97375,6.359375 L3.97375,9.73958333 L6.30895833,9.73958333 C7.17979167,9.73958333 7.88791667,10.4522917 7.89020833,11.323125 L7.89020833,12.4025 C7.89020833,12.835625 8.25,13.193125 8.683125,13.193125 L13.316875,13.193125 Z M5.95833333,0.9075 C5.740625,0.9075 5.561875,0.72875 5.561875,0.511041667 C5.561875,0.293333333 5.740625,0.114583333 5.95833333,0.114583333 L16.0416667,0.114583333 C16.259375,0.114583333 16.438125,0.293333333 16.438125,0.511041667 C16.438125,0.72875 16.259375,0.9075 16.0416667,0.9075 L5.95833333,0.9075 Z M5.121875,2.48416667 C4.90416667,2.48416667 4.72541667,2.30541667 4.72541667,2.08770833 C4.72541667,1.87 4.90416667,1.69125 5.121875,1.69125 L16.878125,1.69125 C17.0958333,1.69125 17.2745833,1.87 17.2745833,2.08770833 C17.2745833,2.30541667 17.0958333,2.48416667 16.878125,2.48416667 L5.121875,2.48416667 Z M13.316875,13.9860417 L8.683125,13.9860417 C7.81,13.9860417 7.101875,13.2733333 7.101875,12.4025 L7.09958333,11.323125 C7.09958333,10.89 6.74208333,10.5325 6.30895833,10.5325 L2.80041667,10.5325 C1.75541667,10.5325 0.900625,11.3872917 0.900625,12.4322917 L0.900625,19.195 C0.900625,20.2377083 1.75770833,21.0925 2.80041667,21.0925 L19.1995833,21.0925 C20.2422917,21.0925 21.099375,20.2377083 21.099375,19.195 L21.099375,12.4322917 C21.099375,11.3872917 20.2445833,10.5325 19.1995833,10.5325 C18.0308333,10.5325 16.8620833,10.5325 15.6910417,10.5325 C15.2602083,10.5325 14.9004167,10.89 14.9004167,11.323125 L14.898125,12.4025 C14.898125,13.2733333 14.19,13.9860417 13.316875,13.9860417 Z" id="Shape"></path>
                    </g>
                </g>
            </g>
        </g>
    </g>
</svg>