<?xml version="1.0" encoding="UTF-8"?>
<svg width="512px" height="432px" viewBox="0 0 512 432" version="1.1" xmlns="http://www.w3.org/2000/svg" xmlns:xlink="http://www.w3.org/1999/xlink">
    <!-- Generator: sketchtool 53.1 (72631) - https://sketchapp.com -->
    <title>C4F904B5-6E21-4BC3-997A-CC98914F0F78</title>
    <desc>Created with sketchtool.</desc>
    <g id="Portal" stroke="none" stroke-width="1" fill="none" fill-rule="evenodd">
        <g id="Cerrtificate-AP" transform="translate(-165.000000, -82.000000)" fill="#F9F4EB">
            <path d="M427.599445,301.926081 C417.433856,301.632009 407.725446,300.762647 398.416364,306.640883 C392.348508,310.471861 387.651382,314.416128 384.252675,320.981337 C375.159729,338.542126 374.301615,356.659724 378.394526,375.473132 C379.134528,378.871839 379.499307,382.383836 380.556682,385.677288 C382.93658,393.082933 381.864742,399.968729 380.138874,407.510966 C378.793051,413.387595 380.727823,420.475867 382.695537,426.541313 C385.560736,435.366702 388.086867,444.723993 387.700394,453.085776 C383.936106,447.365825 380.555075,442.227591 377.173241,437.088553 C377.246358,444.095674 373.24424,451.513372 380.494815,457.580425 C379.100782,457.888157 378.43711,458.24249 377.866642,458.128396 C371.84378,456.924788 368.435431,460.503474 364.663108,464.426851 C361.515086,467.700215 357.439852,470.320353 353.334085,472.332259 C351.429042,473.265095 348.284234,472.578123 346.040123,471.730455 C339.838086,469.385909 335.592514,470.632905 331.522904,476.273312 C325.630206,484.439047 316.925338,487.4786 306.865005,486.707262 C302.466774,486.370605 298.035599,486.471843 293.634153,486.17536 C290.661289,485.974491 288.550556,486.880813 286.940388,489.492113 C283.432408,495.179925 279.944516,500.900679 276.031584,506.307275 C274.053424,509.039899 271.195457,511.146615 268.665309,513.460629 C268.244287,513.846297 267.416706,514.08252 266.857486,513.973247 C263.322188,513.282257 258.593727,506.361108 260.076142,503.16568 C260.842659,501.510518 263.618671,500.141394 265.661109,499.845714 C271.578715,498.988405 271.048421,499.115354 272.213462,493.26765 C273.235485,488.13263 275.571995,483.228208 277.578277,478.325392 C280.871728,470.277769 281.596464,472.423855 275.41371,467.129747 C271.540149,463.812995 272.086513,459.878369 272.065622,455.811169 C272.030269,448.913321 272.050356,450.236647 266.619657,449.649306 C264.623017,449.434777 262.628788,449.194538 260.62813,449.022594 C254.09265,448.460964 251.531166,445.814311 251.57375,439.028146 C251.58982,436.360603 250.657787,435.120035 248.296369,433.865004 C244.573057,431.886041 241.242646,429.169486 237.219638,426.403919 C233.088964,433.209367 225.841603,437.324775 217.875131,440.30005 C215.18027,441.305199 212.241955,441.660336 209.474781,442.299904 C206.309886,433.096881 202.261166,430.353811 192.256273,430.780457 C191.053469,430.831879 189.642563,432.299028 188.804537,433.456035 C186.144225,437.122299 186.231804,437.186577 181.572443,436.216781 C181.491291,435.968507 181.268728,435.642295 181.355504,435.480796 C184.111429,430.328903 182.606517,426.291432 178.536907,422.472507 C177.13484,421.156412 176.774079,418.730716 175.666085,416.189319 C179.412697,418.403701 182.17264,420.114303 185.006502,421.693134 C189.705235,424.310058 194.603229,423.397309 199.428911,422.181648 C200.372192,421.943819 201.847376,420.778778 201.802381,420.129569 C201.440013,414.879651 204.87568,412.135778 208.439903,409.4369 C209.401664,408.709753 210.494393,408.155354 211.428836,407.580868 C205.037179,400.720783 197.717505,401.313749 190.50389,401.860917 C189.448122,401.940461 188.542604,403.482333 187.488442,404.238405 C186.35795,405.049113 185.188892,406.239865 183.941896,406.370832 C180.664514,406.716327 176.887369,407.281171 175.390492,403.178619 C174.081628,399.592702 175.740005,396.710631 178.595561,394.456075 C179.535629,393.713662 180.485338,392.984909 181.431834,392.250531 C181.325775,391.906643 181.221323,391.562755 181.116068,391.21967 C178.700817,390.910332 176.29119,390.54475 173.868707,390.3021 C167.346886,389.64807 163.533585,383.461299 165.532635,377.06723 C166.874442,372.776664 168.164022,368.420213 168.835729,363.99627 C169.111321,362.18443 167.661045,360.127529 167.06808,358.161422 C166.674376,356.852558 166.409229,355.504324 166.630988,353.796132 C171.684054,357.928413 177.452214,358.085895 183.134401,358.683682 C185.57215,358.939991 187.013587,358.312475 187.294001,355.757419 C187.309267,355.625649 187.338192,355.489861 187.388008,355.366929 C190.141522,348.664326 189.0271,342.873669 184.865894,336.734303 C178.116689,326.778422 178.369784,326.409626 184.427999,316.115481 C186.42946,312.715168 186.149046,309.66517 185.304592,306.203792 C183.893687,300.417152 186.102445,297.664441 192.206458,297.899056 C203.703407,298.340968 215.196339,298.941165 226.678022,299.665098 C234.022604,300.1279 241.397717,300.593113 248.660344,301.702715 C253.280335,302.409774 256.515936,300.507141 259.402025,297.71747 C262.438364,294.783976 265.211162,294.613639 268.572105,296.960595 C270.135671,298.051716 272.027859,298.671197 274.438289,298.824661 C272.889186,295.699136 271.340886,292.573612 269.692955,289.248021 C277.961535,289.248021 285.682947,289.015013 293.378648,289.364525 C296.422218,289.50192 297.976142,288.793253 298.299139,285.839673 C298.670346,282.456232 300.590655,281.178704 303.872858,280.994708 C309.731811,280.665282 315.574694,280.056247 322.031433,279.512293 C323.018103,273.290972 324.283579,266.868782 324.972962,260.384725 C325.403625,256.332791 326.997723,254.381146 331.08501,253.478842 C338.526008,251.836535 345.816756,249.527343 353.187853,247.559628 C358.543025,246.12944 364.046038,243.246565 368.829939,249.783652 C371.773074,244.873605 375.030369,241.258763 374.680857,235.763786 C374.398836,231.338235 377.382145,228.198248 382.251215,226.834748 C386.491162,225.647209 389.398141,227.035617 392.086574,230.797496 C394.128209,233.655463 396.52498,236.313364 399.058342,238.754326 C403.194641,242.741981 407.37513,241.841284 411.556424,238.019145 C408.863169,234.062825 406.623076,229.725658 401.142561,228.47143 C399.86664,228.179768 398.93541,226.376766 397.845896,225.268772 C399.047093,224.315045 400.192048,223.274542 401.473593,222.442944 C402.11075,222.029153 403.09501,222.160924 403.757074,221.768023 C407.962472,219.276442 411.57651,218.129077 416.309792,221.830695 C418.582025,223.607182 423.302451,222.610067 426.832124,222.186635 C427.79951,222.070131 428.882597,219.568908 429.195953,218.018197 C430.003447,214.026525 432.264431,212.299853 436.19986,212.719268 C441.444153,213.277684 445.381189,211.2939 448.720439,207.244377 C450.628696,204.931167 453.295436,203.242259 456.643523,200.405183 C450.48166,197.731212 445.102383,195.225971 439.592942,193.054174 C434.134121,190.90407 430.362601,184.259317 431.672268,177.938365 C434.35347,178.197084 437.084488,178.459821 440.11922,178.752287 C440.546669,177.289959 440.86565,175.871823 441.375857,174.525999 C442.555361,171.414133 444.919994,169.492217 448.158808,170.420233 C456.379983,172.777633 464.396271,170.791439 472.424611,169.67541 C474.961991,169.322683 477.332247,167.661897 479.745891,166.528995 C487.37651,162.945488 494.942851,159.217356 502.653818,155.818649 C504.180424,155.146139 506.263839,155.495651 508.048361,155.716607 C510.160702,155.977737 512.216799,156.943516 514.317087,157.017436 C520.06757,157.221519 522.545493,154.605399 522.555938,148.795458 C522.561562,145.581551 522.762431,142.358002 522.568794,139.156951 C522.183125,132.743599 524.907714,127.831142 530.300651,123.026351 C531.366864,125.449637 533.030061,127.572423 533.124872,129.764307 C533.400464,136.085259 537.442756,139.775628 540.56587,142.808753 C543.848073,140.746228 546.698005,138.9834 549.514191,137.168346 C550.27187,136.679832 551.281036,136.172838 551.570288,135.436853 C553.066362,131.634801 555.414121,131.840491 558.894782,132.80627 C561.484388,133.524579 564.610716,132.840016 567.373069,132.222143 C569.306235,131.789069 570.117746,124.779537 568.806472,121.922374 C567.872029,119.884757 565.740405,117.523338 566.209635,115.90594 C567.063731,112.961197 569.361675,110.393285 571.274753,107.830998 C571.70863,107.250084 573.387093,106.83549 573.89248,107.193037 C577.931558,110.050201 581.422665,108.313888 584.995726,106.261808 C586.837295,105.205236 588.796171,104.351944 591.229099,103.145121 C588.58325,99.5005507 586.126218,96.113896 583.025601,91.8426135 C586.629194,91.4039151 589.549832,90.697659 592.445563,90.7844345 C595.972022,90.8904935 599.093529,90.3971587 601.620464,87.8003218 C603.787441,85.5730841 605.823451,85.8800122 607.72046,88.0839491 C609.951715,90.6743582 612.804057,93.0068513 614.18443,96.0046232 C619.947769,108.519578 627.878085,108.21747 639.080159,106.760767 C639.473862,106.710148 639.845069,106.496423 640.239576,106.438573 C647.56648,105.3587 652.737657,101.578342 655.209955,94.4547165 C656.43124,90.9370951 659.614615,90.4775064 662.556143,89.7077756 C665.628639,88.9042989 668.02541,87.947358 668.916466,84.1541441 C669.851713,80.1697027 672.880017,82.9384837 676.100352,82.910362 C672.423642,88.3041017 669.491755,93.208524 665.972527,97.6485367 C657.247572,108.656972 648.251846,119.452486 639.36941,130.337186 C638.608518,131.267612 637.414551,132.136171 637.215289,133.184708 C636.226209,138.388827 632.135709,140.112285 627.973699,141.596306 C614.140239,146.529654 603.376061,156.132005 592.468863,165.327797 C588.847594,168.381812 586.671778,173.298286 584.262955,177.603315 C581.989919,181.666497 578.850735,184.180576 574.597129,186.058301 C561.020782,192.050631 547.36248,197.856554 535.103031,206.519641 C527.825139,211.661089 522.938393,218.485821 518.838251,226.048948 C518.178596,227.266215 518.560248,229.401856 519.114647,230.865791 C522.511747,239.849465 519.244007,247.626317 514.8747,255.179802 C514.363689,256.062823 512.950373,256.53366 511.861662,256.953879 C502.373405,260.616126 492.977547,264.582891 483.305293,267.681097 C479.125607,269.01969 474.347331,268.936128 469.866341,268.77704 C463.131598,268.538407 457.967653,272.413576 452.214759,274.736427 C451.439404,275.049783 450.93241,276.363468 450.578077,277.317194 C449.693449,279.6987 448.768647,282.094667 448.219069,284.565359 C446.974484,290.160771 444.52629,294.612836 439.147013,297.465178 C437.570591,298.300794 436.558211,301.141888 436.23923,303.210841 C435.590825,307.421059 433.372425,309.254593 428.843227,309.300391 C428.419794,306.789526 428.026894,304.459444 427.599445,301.926081 Z" id="Fill-1"></path>
        </g>
    </g>
</svg>