<svg xmlns="http://www.w3.org/2000/svg" xmlns:xlink="http://www.w3.org/1999/xlink" width="32" height="32" xmlns:v="https://vecta.io/nano"><defs><path d="M12.57.486c1.077.9 2.05 1.515 2.917 1.874.898.372 2.302.715 4.2 1.03h0a1 1 0 0 1 .835.915c.118 1.628.36 2.884.726 3.77.364.88 1.1 1.968 2.176 3.266h0a1 1 0 0 1-.014 1.3c-1.064 1.216-1.785 2.278-2.162 3.188-.382.923-.627 2.2-.733 3.86h0a1 1 0 0 1-.833.922c-1.947.325-3.35.665-4.205 1.02-.83.344-1.8.972-2.913 1.884h0a1 1 0 0 1-1.196.054c-1.38-.937-2.5-1.583-3.358-1.94s-2.122-.695-3.78-1.013h0a1 1 0 0 1-.805-.866c-.207-1.768-.486-3.075-.837-3.923-.345-.833-1.043-1.905-2.095-3.216h0a1 1 0 0 1-.01-1.239c1.055-1.36 1.756-2.46 2.105-3.3.352-.85.63-2.13.836-3.835h0a1 1 0 0 1 .799-.862c1.69-.333 2.953-.673 3.786-1.017s1.946-.987 3.355-1.934h0a1 1 0 0 1 1.195.059z" id="A"/><filter x="-28.0%" y="-23.9%" width="155.8%" height="156.2%" id="B"><feMorphology radius="0.5" operator="dilate" in="SourceAlpha"/><feOffset dy="1"/><feGaussianBlur stdDeviation="2"/><feComposite in2="SourceAlpha" operator="out"/><feColorMatrix values="0 0 0 0 0 0 0 0 0 0 0 0 0 0 0 0 0 0 0.5 0"/></filter></defs><g transform="translate(4 3)" fill-rule="evenodd"><use fill="#000" filter="url(#B)" xlink:href="#A"/><use stroke="#fff" fill="#008840" xlink:href="#A"/><path d="M10.904 13.826l4.583-4.98c.296-.316.985-.412 1.37 0s.358 1.163.062 1.48l-5.27 5.7a1 1 0 0 1-1.413.056l-.053-.052-.25-.267-.02-.018-.023-.023-2.83-3.025c-.343-.367-.21-.982.09-1.31s1-.48 1.303-.182l2.45 2.62z" fill="#fff" fill-rule="nonzero"/></g></svg>