<?xml version="1.0" encoding="UTF-8"?>
<svg width="18px" height="24px" viewBox="0 0 18 24" version="1.1" xmlns="http://www.w3.org/2000/svg" xmlns:xlink="http://www.w3.org/1999/xlink">
    <title>ADD53880-E7BE-4E00-99C1-75A2F4D18CCD</title>
    <g id="Final-layouts" stroke="none" stroke-width="1" fill="none" fill-rule="evenodd">
        <g id="Home-page-01" transform="translate(-311.000000, -518.000000)" fill="#FFFFFF" fill-rule="nonzero">
            <g id="Group-19-Copy" transform="translate(16.000000, 371.000000)">
                <g id="Group-21" transform="translate(270.000000, 35.000000)">
                    <g id="Group-Copy" transform="translate(25.000000, 112.000000)">
                        <path d="M17.4473236,6.22639155 L3.16405053,6.22639155 C3.1372945,6.22639155 3.10994147,6.22580193 3.08318543,6.2251587 C2.2581986,6.20479 1.48596404,5.87208328 0.90878261,5.28841268 C0.330407198,4.70367003 0.0119398133,3.9313745 0.0119398133,3.11373179 C0.0119398133,1.39654275 1.4262107,0 3.16459325,0 L17.4473236,0 C17.7470129,0 17.9900424,0.239975508 17.9900424,0.536018556 C17.9900424,0.832061604 17.7470129,1.07203711 17.4473236,1.07203711 L3.16459325,1.07203711 C2.02472098,1.07203711 1.09737739,1.98771761 1.09737739,3.11319577 C1.09737739,4.22961522 1.98157484,5.12557024 3.11032137,5.1534432 C3.12806828,5.15387202 3.14630363,5.15435443 3.16405053,5.15435443 L17.4473236,5.15435443 C17.7470129,5.15435443 17.9900424,5.39432994 17.9900424,5.69037299 C17.9900424,5.98641604 17.7470129,6.22639155 17.4473236,6.22639155 Z" id="Path"></path>
                        <path d="M3.09566797,23.889811 C2.79597865,23.889811 2.55294918,23.6503715 2.55294918,23.3543285 L2.55294918,5.76219948 C2.55294918,5.46615643 2.79597865,5.22618092 3.09566797,5.22618092 C3.39535728,5.22618092 3.63838675,5.46615643 3.63838675,5.76219948 L3.63838675,23.3532564 C3.63838675,23.6492995 3.39541155,23.889811 3.09566797,23.889811 Z" id="Path"></path>
                        <path d="M0.554658601,21.3131698 C0.254969287,21.3131698 0.0119398133,21.0731943 0.0119398133,20.7771513 L0.0119398133,3.11373179 C0.0119398133,2.81768874 0.254969287,2.57771324 0.554658601,2.57771324 C0.854347916,2.57771324 1.09737739,2.81768874 1.09737739,3.11373179 L1.09737739,20.7771513 C1.09737739,21.0731943 0.854402188,21.3131698 0.554658601,21.3131698 Z" id="Path"></path>
                        <path d="M17.4473236,23.890347 C17.1476343,23.890347 16.9046048,23.6503715 16.9046048,23.3543285 L16.9046048,5.70109336 C16.9046048,5.40505031 17.1476343,5.16507481 17.4473236,5.16507481 C17.7470129,5.16507481 17.9900424,5.40505031 17.9900424,5.70109336 L17.9900424,23.3543285 C17.9900424,23.6503715 17.7470129,23.890347 17.4473236,23.890347 Z" id="Path"></path>
                        <path d="M14.9600434,4.50845207 L10.8755418,4.50845207 C10.5758525,4.50845207 10.332823,4.26847657 10.332823,3.97243352 C10.332823,3.67639047 10.5758525,3.43641496 10.8755418,3.43641496 L14.9595007,3.43641496 C15.2592443,3.43641496 15.5024908,3.67639047 15.5024908,3.97243352 C15.5024908,4.26847657 15.2597327,4.50845207 14.9600434,4.50845207 Z" id="Path"></path>
                        <path d="M9.62722039,12.0720371 L5.54271879,12.0720371 C5.24302947,12.0720371 5,11.8320616 5,11.5360186 C5,11.2399755 5.24302947,11 5.54271879,11 L9.62667767,11 C9.92642125,11 10.1696678,11.2399755 10.1696678,11.5360186 C10.1696678,11.8320616 9.9269097,12.0720371 9.62722039,12.0720371 Z" id="Path-Copy"></path>
                        <path d="M14.8107957,2.7905126 L6.42524773,2.7905126 C6.12555842,2.7905126 5.88252894,2.55053709 5.88252894,2.25449405 C5.88252894,1.958451 6.12555842,1.71847549 6.42524773,1.71847549 L14.8107957,1.71847549 C15.110485,1.71847549 15.3535145,1.958451 15.3535145,2.25449405 C15.3535145,2.55053709 15.110485,2.7905126 14.8107957,2.7905126 Z" id="Path"></path>
                        <path d="M13.9282668,15.0720371 L5.54271879,15.0720371 C5.24302947,15.0720371 5,14.8320616 5,14.5360186 C5,14.2399755 5.24302947,14 5.54271879,14 L13.9282668,14 C14.2279561,14 14.4709856,14.2399755 14.4709856,14.5360186 C14.4709856,14.8320616 14.2279561,15.0720371 13.9282668,15.0720371 Z" id="Path-Copy-2"></path>
                        <path d="M13.9282668,18.0720371 L5.54271879,18.0720371 C5.24302947,18.0720371 5,17.8320616 5,17.5360186 C5,17.2399755 5.24302947,17 5.54271879,17 L13.9282668,17 C14.2279561,17 14.4709856,17.2399755 14.4709856,17.5360186 C14.4709856,17.8320616 14.2279561,18.0720371 13.9282668,18.0720371 Z" id="Path-Copy-3"></path>
                        <path d="M17.4473236,23.890347 L3.16405053,23.890347 C3.13686032,23.890347 3.10961584,23.8897574 3.08242563,23.8891142 C2.2570589,23.8680487 1.48514996,23.5350739 0.908239892,22.9514033 C0.330244382,22.3666071 0.0118855415,21.5944724 0.0118855415,20.7771513 C0.0118855415,20.4811082 0.254915015,20.2411327 0.554604329,20.2411327 C0.854293644,20.2411327 1.09732312,20.4811082 1.09732312,20.7771513 C1.09732312,21.8924987 1.98124921,22.7886681 3.10961584,22.8174523 C3.1272542,22.8178811 3.14559809,22.8183635 3.16399626,22.8183635 L17.4472693,22.8183635 C17.7469586,22.8183635 17.9899881,23.058339 17.9899881,23.3543821 C17.9899881,23.6503715 17.7470129,23.890347 17.4473236,23.890347 Z" id="Path"></path>
                        <path d="M17.4201877,6.22639155 C16.0859135,6.22639155 14.8913895,5.39229307 14.4477169,4.1508741 C14.3286444,3.81988264 14.2680227,3.47055934 14.2680227,3.11373179 C14.2680769,1.39654275 15.6820765,0 17.4201877,0 C17.719877,0 17.9629064,0.239975508 17.9629064,0.536018556 C17.9629064,0.832061604 17.719877,1.07203711 17.4201877,1.07203711 C16.280641,1.07203711 15.3535145,1.98771761 15.3535145,3.11319577 C15.3535145,3.3479183 15.3929702,3.57647661 15.4709046,3.79297451 C15.7620732,4.60766911 16.5452707,5.15435443 17.4201877,5.15435443 C17.719877,5.15435443 17.9629064,5.39432994 17.9629064,5.69037299 C17.9629064,5.98641604 17.719877,6.22639155 17.4201877,6.22639155 Z" id="Path"></path>
                    </g>
                </g>
            </g>
        </g>
    </g>
</svg>