<?xml version="1.0" encoding="UTF-8"?>
<svg width="21px" height="24px" viewBox="0 0 21 24" version="1.1" xmlns="http://www.w3.org/2000/svg" xmlns:xlink="http://www.w3.org/1999/xlink">
    <title>961B5B57-3260-430E-B09D-C8BB37445862</title>
    <g id="Final-layouts" stroke="none" stroke-width="1" fill="none" fill-rule="evenodd">
        <g id="Home-page-01" transform="translate(-40.000000, -518.000000)" fill="#FFFFFF" fill-rule="nonzero">
            <g id="Group-19-Copy" transform="translate(16.000000, 371.000000)">
                <g id="calculator-copy" transform="translate(24.000000, 147.000000)">
                    <g id="Group" transform="translate(8.742857, 17.739130)">
                        <ellipse id="Oval" cx="2.62876545" cy="2.67632655" rx="1" ry="1"></ellipse>
                        <path d="M0.489149246,0.00611306084 C0.752899272,0.00611306084 0.965799187,0.223973282 0.965799187,0.492591512 C0.965799187,0.761209742 0.752899272,0.979069963 0.489149246,0.979069963 C0.225958012,0.979069963 0.0130580967,0.761209742 0.0130580967,0.492591512 C0.0130580967,0.223973282 0.225958012,0.00611306084 0.489149246,0.00611306084 Z" id="Path"></path>
                    </g>
                    <g id="Group">
                        <path d="M19.1453146,24 L1.42417856,24 C0.658488176,24 0.0355489188,23.3626634 0.0355489188,22.5792764 L0.0355489188,1.42072362 C0.0355489188,0.637336617 0.658488176,0 1.42417856,0 L19.1453146,0 C19.911005,0 20.5339443,0.637336617 20.5339443,1.42072362 L20.5339443,22.5792764 C20.5339443,23.3626634 19.911005,24 19.1453146,24 Z M1.42417856,1.1365789 C1.27104048,1.1365789 1.14645263,1.26404622 1.14645263,1.42072362 L1.14645263,22.5792764 C1.14645263,22.7359538 1.27104048,22.8634211 1.42417856,22.8634211 L19.1453146,22.8634211 C19.2984527,22.8634211 19.4230405,22.7359538 19.4230405,22.5792764 L19.4230405,1.42072362 C19.4230405,1.26404622 19.2984527,1.1365789 19.1453146,1.1365789 L1.42417856,1.1365789 Z" id="Shape"></path>
                        <path d="M19.9784924,7.48380375 L0.591000776,7.48380375 C0.284224715,7.48380375 0.0355489188,7.22938056 0.0355489188,6.9155143 C0.0355489188,6.60164804 0.284224715,6.34722485 0.591000776,6.34722485 L19.9784924,6.34722485 C20.2852685,6.34722485 20.5339443,6.60164804 20.5339443,6.9155143 C20.5339443,7.22938056 20.2852685,7.48380375 19.9784924,7.48380375 Z" id="Path"></path>
                        <path d="M13.51581,23.9471491 C13.209034,23.9471491 12.9603582,23.6927259 12.9603582,23.3788596 L12.9603582,6.96552377 C12.9603582,6.65165751 13.209034,6.39723432 13.51581,6.39723432 C13.8225861,6.39723432 14.0712619,6.65165751 14.0712619,6.96552377 L14.0712619,23.3788596 C14.0712619,23.6927259 13.8225861,23.9471491 13.51581,23.9471491 Z" id="Path"></path>
                        <path d="M13.4752621,15.7404812 L0.631548761,15.7404812 C0.324772701,15.7404812 0.0760969044,15.486058 0.0760969044,15.1721917 C0.0760969044,14.8583254 0.324772701,14.6039023 0.631548761,14.6039023 L13.4752621,14.6039023 C13.7820381,14.6039023 14.0307139,14.8583254 14.0307139,15.1721917 C14.0307139,15.486058 13.7820381,15.7404812 13.4752621,15.7404812 Z" id="Path"></path>
                        <path d="M5.19569667,11.6124266 L2.44898724,11.6124266 C2.14221118,11.6124266 1.89353538,11.3580034 1.89353538,11.0441371 C1.89353538,10.7302709 2.14221118,10.4758477 2.44898724,10.4758477 L5.19569667,10.4758477 C5.50247273,10.4758477 5.75114853,10.7302709 5.75114853,11.0441371 C5.75114853,11.3580034 5.50247273,11.6124266 5.19569667,11.6124266 Z" id="Path"></path>
                        <path d="M3.82261968,13.0172381 C3.51584362,13.0172381 3.26716782,12.7628149 3.26716782,12.4489487 L3.26716782,9.63875734 C3.26716782,9.32489108 3.51584362,9.07046789 3.82261968,9.07046789 C4.12939574,9.07046789 4.37807154,9.32489108 4.37807154,9.63875734 L4.37807154,12.4489487 C4.37807154,12.7628149 4.12939574,13.0172381 3.82261968,13.0172381 Z" id="Path"></path>
                        <path d="M11.6855962,11.6124266 L8.883897,11.6124266 C8.57712094,11.6124266 8.32844514,11.3580034 8.32844514,11.0441371 C8.32844514,10.7302709 8.57712094,10.4758477 8.883897,10.4758477 L11.6855962,10.4758477 C11.9923722,10.4758477 12.241048,10.7302709 12.241048,11.0441371 C12.241048,11.3580034 11.9923722,11.6124266 11.6855962,11.6124266 Z" id="Path"></path>
                        <path d="M4.88575453,20.9596514 C4.74355886,20.9596514 4.60147427,20.9041864 4.49299453,20.7931995 L2.36622491,18.6172192 C2.14932096,18.3953021 2.14926542,18.0354613 2.36616937,17.8135442 C2.58307332,17.5916272 2.93478543,17.5915704 3.15168938,17.8135442 L5.27851454,19.9895245 C5.49541849,20.2114416 5.49541849,20.5712824 5.27851454,20.7931995 C5.17003479,20.9041296 5.02789466,20.9596514 4.88575453,20.9596514 Z" id="Path"></path>
                        <path d="M2.75892937,20.9596514 C2.6167337,20.9596514 2.47453802,20.9041296 2.36605828,20.7930858 C2.14920987,20.571112 2.14926542,20.2112711 2.36622491,19.9894109 L4.49288344,17.8136011 C4.7096763,17.5915704 5.06138841,17.5915135 5.27840345,17.8134306 C5.49536295,18.0352908 5.49547404,18.3951317 5.27862563,18.6171055 L3.15157829,20.7932563 C3.04309854,20.9041864 2.90101396,20.9596514 2.75892937,20.9596514 Z" id="Path"></path>
                        <path d="M9.22105628,20.9596514 C9.07891615,20.9596514 8.93672047,20.9041864 8.82829627,20.7931995 C8.61139232,20.5712824 8.61139232,20.2114416 8.82829627,19.9895245 L10.9551214,17.8135442 C11.1720254,17.5916272 11.5237375,17.5916272 11.740697,17.8135442 C11.9576009,18.0354613 11.9576009,18.3953021 11.740697,18.617276 L9.61387183,20.7932563 C9.50539208,20.9041864 9.36319641,20.9596514 9.22105628,20.9596514 Z" id="Path"></path>
                        <path d="M18.1505003,14.7499526 L15.3115859,14.7499526 C15.0048098,14.7499526 14.756134,14.4955295 14.756134,14.1816632 C14.756134,13.8677969 15.0048098,13.6133737 15.3115859,13.6133737 L18.1505003,13.6133737 C18.4572764,13.6133737 18.7059522,13.8677969 18.7059522,14.1816632 C18.7059522,14.4955295 18.4572764,14.7499526 18.1505003,14.7499526 Z" id="Path"></path>
                        <path d="M18.1505003,16.7338511 L15.3115859,16.7338511 C15.0048098,16.7338511 14.756134,16.4794279 14.756134,16.1655617 C14.756134,15.8516954 15.0048098,15.5972722 15.3115859,15.5972722 L18.1505003,15.5972722 C18.4572764,15.5972722 18.7059522,15.8516954 18.7059522,16.1655617 C18.7059522,16.4794279 18.4572764,16.7338511 18.1505003,16.7338511 Z" id="Path"></path>
                        <path d="M7.05368313,23.9471491 C6.74690707,23.9471491 6.49823128,23.6927259 6.49823128,23.3788596 L6.49823128,6.96552377 C6.49823128,6.65165751 6.74690707,6.39723432 7.05368313,6.39723432 C7.36045919,6.39723432 7.60913499,6.65165751 7.60913499,6.96552377 L7.60913499,23.3788596 C7.60913499,23.6927259 7.36045919,23.9471491 7.05368313,23.9471491 Z" id="Path"></path>
                    </g>
                </g>
            </g>
        </g>
    </g>
</svg>