<?xml version="1.0" encoding="utf-8"?>
<!-- Generator: Adobe Illustrator 24.2.1, SVG Export Plug-In . SVG Version: 6.00 Build 0)  -->
<svg version="1.1" id="Layer_1" xmlns="http://www.w3.org/2000/svg" xmlns:xlink="http://www.w3.org/1999/xlink" x="0px" y="0px"
	 viewBox="0 0 383 225" style="enable-background:new 0 0 383 225;" xml:space="preserve">
<style type="text/css">
	.st0{filter:url(#Adobe_OpacityMaskFilter);}
	.st1{fill-rule:evenodd;clip-rule:evenodd;fill:#FFFFFF;}
	.st2{mask:url(#mask-2_1_);}
	.st3{fill-rule:evenodd;clip-rule:evenodd;fill:#C3C2FF;}
	.st4{fill-rule:evenodd;clip-rule:evenodd;fill:#008840;}
	.st5{fill:none;stroke:#4A00B2;stroke-width:1.5;stroke-linecap:round;}
	.st6{fill-rule:evenodd;clip-rule:evenodd;fill:#FBF272;}
	.st7{filter:url(#Adobe_OpacityMaskFilter_1_);}
	.st8{mask:url(#mask-4_1_);fill-rule:evenodd;clip-rule:evenodd;fill:#FFFFFF;}
	.st9{fill:none;stroke:#D9CBC3;stroke-width:1.5;}
	.st10{fill:none;stroke:#D7CBC4;stroke-width:1.5;stroke-linecap:round;}
</style>
<g id="Textbooks">
	<g id="_x31_440-X-768" transform="translate(-93.000000, -985.000000)">
		<g id="Group-20" transform="translate(93.000000, 985.000000)">
			<g id="Mask">
			</g>
			<defs>
				<filter id="Adobe_OpacityMaskFilter" filterUnits="userSpaceOnUse" x="1" y="57" width="381" height="186">
					<feColorMatrix  type="matrix" values="1 0 0 0 0  0 1 0 0 0  0 0 1 0 0  0 0 0 1 0"/>
				</filter>
			</defs>
			<mask maskUnits="userSpaceOnUse" x="1" y="57" width="381" height="186" id="mask-2_1_">
				<g class="st0">
					<rect id="path-1_1_" class="st1" width="383" height="225"/>
				</g>
			</mask>
			<g class="st2">
				<g transform="translate(1.000000, 0.000000)">
					<path id="Combined-Shape" class="st3" d="M92.8,57c33.8,0,38,149.6,38,149.6s11.8-68.5,33.8-68.5c22,0-4.2,76.1,6.8,74.4
						c11-1.7,3.4-141.2,34.6-104c31.3,37.2,16.9,94.7,50.7,93.8c33.8-0.8-11.8-27.1,7.6-52.4c19.4-25.4,68.4,33.8,72.7,49
						c0,0-2.5-82,20.3-82c22.8,0,23.7,117.5,23.7,117.5L26.1,243c0,0-35.5-96.4-23.7-126c11.8-29.6,51.5,31.3,59.2,54.1
						C61.6,171.1,59,57,92.8,57z M203.1,142.7l-0.1,0c-0.5,0.1-0.8,0.4-0.8,0.9l0,0.1l9.5,82l0,0.1c0.1,0.4,0.5,0.7,1,0.7
						c0.5-0.1,0.8-0.4,0.8-0.9l0-0.1l-9.5-82l0-0.1c-0.1-0.4-0.4-0.6-0.7-0.7L203.1,142.7z M22.7,142.5c-0.2-0.4-0.7-0.6-1.1-0.5
						c-0.5,0.2-0.7,0.7-0.6,1.1l0,0l27.2,82.2l0,0.1c0.2,0.4,0.7,0.6,1.1,0.5c0.5-0.2,0.7-0.7,0.6-1.1l0,0l-27.2-82.2L22.7,142.5z
						 M361.1,157l-0.1,0c-0.5,0-0.8,0.4-0.8,0.9l0,0.1l0.3,3.3l0.2,2.6c0.2,2.1,0.4,4.3,0.5,6.7l0.1,1.2l0.1,1.9
						c0.4,6.2,0.8,12.2,0.9,17.9c0.4,14.7-0.2,25.4-2.2,30.2c-0.2,0.5,0,1,0.5,1.2s1,0,1.2-0.5c2-4.9,2.7-14.9,2.4-28.7l0-0.7l0-1.5
						c-0.2-5.8-0.5-11.9-0.9-18.1l-0.1-1.7l-0.1-1.2c-0.1-1.9-0.3-3.8-0.5-5.6l-0.1-1.1l-0.2-2.1c0-0.5-0.1-1-0.1-1.5l0-0.5
						l-0.2-1.9c0-0.4-0.4-0.7-0.8-0.8L361.1,157z M283.2,169.2c-0.3,0.3-0.3,0.8,0,1.2l0.1,0.1l1.1,1l1.1,0.9
						c0.9,0.8,1.8,1.6,2.8,2.6c3.7,3.6,7.5,7.5,11,11.8c9.3,11.3,15.1,22.6,15.8,33c0,0.5,0.5,0.9,0.9,0.8c0.5,0,0.9-0.5,0.8-0.9
						c-0.7-10.9-6.7-22.4-16.2-34c-3.5-4.3-7.3-8.3-11.1-12c-1.3-1.3-2.6-2.4-3.7-3.4c-0.3-0.3-0.6-0.5-0.8-0.7l-0.2-0.2l-0.4-0.3
						C284,168.7,283.5,168.8,283.2,169.2z M95.6,94c-0.5,0-0.8,0.3-0.9,0.8l0,0.1v122.4l0,0.1c0.1,0.4,0.4,0.8,0.9,0.8
						c0.5,0,0.8-0.3,0.9-0.8l0-0.1V94.9l0-0.1C96.4,94.3,96.1,94,95.6,94z"/>
					<g id="Group-68" transform="translate(39.000000, 79.000000)">
						<path id="Fill-1" class="st4" d="M246.9,138.9c0,0-30.2,1.3-35.6-6c-5.4-7.3,11-7.4,11-7.4s-23.4-4-28.3-15.3
							c-4.9-11.3,25.3-10.1,25.3-10.1s-20-13.6-22.7-27.3s59.6,25.5,59.6,25.5s1.1-22.5,6.4-25.3c0,0,11.6-6.5,7.1,23.4
							c0,0,17.4-17.9,22.9-9.9c5.4,8-18.5,22.1-18.5,22.1L246.9,138.9z"/>
						<path id="Stroke-3" class="st5" d="M221.5,130.9c0,0,16.7,2.7,23-19.9"/>
						<path id="Stroke-5" class="st5" d="M209.5,109.6c0,0,32.9-4.4,55,8.4c0,0-22.2-21.9-52.9-35"/>
						<path id="Stroke-7" class="st5" d="M263.7,84c0,0-7.9,8,1.1,35c0,0,4.1-20.5,21.7-27.2"/>
						<path id="Fill-9" class="st6" d="M246.6,148c0,0-14.4-32.8-10.4-35c4-2.1,14.1,12.6,14.1,12.6s-3.1-18.1,4.9-22.5
							c8-4.4,12,17,12,17s15-23.3,24.5-17c9.5,6.3-10.7,28.4-10.7,28.4s19.3-11,22.1-2.5c2.8,8.6-8.6,19-8.6,19H246.6z"/>
						<path id="Stroke-11" class="st5" d="M257.5,115.2c0,0,6.9,17.2,6.9,27.8h4.7c0,0,8.8-25.9,15.5-33"/>
						<path id="Stroke-13" class="st5" d="M295.5,135c0,0-5.6,0.2-12,8"/>
						<path id="Fill-15" class="st4" d="M22.8,154.7c0,0-23.7-22.3-22.3-32s14,2.9,14,2.9S0,104.6,4.9,92.3c5-12.3,26.8,12,26.8,12
							s-4.7-25.7,3.8-38s25.4,65.2,25.4,65.2s18.1-16.1,24.2-14c0,0,13.7,4.1-12.5,23.1c0,0,26.8,0,24.8,10.2
							c-2,10.2-30.9,2.3-30.9,2.3L22.8,154.7z"/>
						<path id="Stroke-17" class="st5" d="M9.5,129c0,0,10.4,15.7,32,3.1"/>
						<path id="Stroke-19" class="st5" d="M16.5,105.5c0,0,28.3,21.9,35,48.5c0,0,0.4-33.6-12.6-67"/>
						<path id="Stroke-21" class="st5" d="M77.6,127c0,0-11.9,0.1-26.1,27c0,0,18.8-12.3,37-4.1"/>
						<path id="Fill-23" class="st6" d="M50.1,90c0,0-35.9-14.1-34.5-18.8c1.4-4.7,20.3-1.2,20.3-1.2S19.7,58.5,22.4,49
							c2.7-9.5,22.1,3.9,22.1,3.9s-6.3-29.3,5.7-31.8c12-2.5,13.4,29.9,13.4,29.9s6.3-23.2,14.9-18.8s7.9,21.1,7.9,21.1L50.1,90z"/>
						<path id="Stroke-25" class="st5" d="M33.5,56.4c0,0,18.3,7.7,26.4,15.6l3.6-3.5c0,0-13-26.1-13.2-36.5"/>
						<path id="Stroke-27" class="st5" d="M77.5,51c0,0-4,4.3-2.8,15"/>
						<g id="Group-41" transform="translate(63.500000, 0.000000)">
							<g id="Clip-40">
							</g>
							<defs>
								<filter id="Adobe_OpacityMaskFilter_1_" filterUnits="userSpaceOnUse" x="0.2" y="0.7" width="167.1" height="144">
									<feColorMatrix  type="matrix" values="1 0 0 0 0  0 1 0 0 0  0 0 1 0 0  0 0 0 1 0"/>
								</filter>
							</defs>
							<mask maskUnits="userSpaceOnUse" x="0.2" y="0.7" width="167.1" height="144" id="mask-4_1_">
								<g class="st7">
									<polygon id="path-3_1_" class="st1" points="0.2,0.7 167.3,0.7 167.3,144.7 0.2,144.7 									"/>
								</g>
							</mask>
							<path id="Fill-39" class="st8" d="M79.6,144.6L3.3,133.9c-1.7-0.2-3-1.7-3-3.5V4.3c0-2.3,2.2-4,4.4-3.4L79.3,20
								c0.6,0.1,1.1,0.1,1.7,0l80.8-19.2c2.2-0.5,4.3,1.1,4.4,3.4l1.1,124.1c0,1.8-1.3,3.3-3,3.5l-83.7,12.8
								C80.3,144.7,79.9,144.7,79.6,144.6"/>
						</g>
						<line id="Stroke-42" class="st9" x1="144.2" y1="24" x2="143.8" y2="140"/>
						<path id="Stroke-44" class="st10" d="M127.8,74.8l-50.6-13c-2.7-0.7-4.6-3.2-4.6-6V23.2c0-4.1,3.8-7,7.7-6l50.6,13
							c2.7,0.7,4.6,3.2,4.6,6v32.6C135.5,72.8,131.7,75.8,127.8,74.8z"/>
						<path id="Stroke-46" class="st10" d="M71.5,78c0,0,4.1,8.3,12.5,6.1c8.5-2.3,11.9,0,19.1,4.6c7.3,4.6,11.3-1.1,17.3-0.3
							c6,0.8,13.1,6.7,13.1,6.7"/>
						<path id="Stroke-48" class="st10" d="M71.5,91c0,0,4.1,8.3,12.5,6.1c8.5-2.3,11.9,0,19.1,4.6c7.3,4.6,11.3-1.1,17.3-0.3
							c6,0.8,13.1,6.7,13.1,6.7"/>
						<path id="Stroke-50" class="st10" d="M214.5,18c0,0-3.6,8.1-11.1,5.8c-7.5-2.3-10.5-0.1-17,4.3c-6.4,4.4-10-1.1-15.4-0.5
							c-5.3,0.7-11.6,6.4-11.6,6.4"/>
						<path id="Stroke-52" class="st10" d="M214.5,29c0,0-3.6,8.1-11.1,5.8c-7.5-2.3-10.5-0.1-17,4.3c-6.4,4.4-10-1.1-15.4-0.5
							S159.5,45,159.5,45"/>
						<path id="Stroke-54" class="st10" d="M214.5,40c0,0-3.6,8.1-11.1,5.8c-7.5-2.3-10.5-0.1-17,4.3c-6.4,4.4-10-1.1-15.4-0.5
							S159.5,56,159.5,56"/>
						<path id="Stroke-56" class="st10" d="M214.5,50c0,0-3.6,8.1-11.1,5.8c-7.5-2.3-10.5-0.1-17,4.3c-6.4,4.4-10-1.1-15.4-0.5
							S159.5,66,159.5,66"/>
						<path id="Stroke-58" class="st10" d="M214.5,62c0,0-3.6,8.1-11.1,5.8c-7.5-2.3-10.5-0.1-17,4.3c-6.4,4.4-10-1.1-15.4-0.5
							c-5.3,0.7-11.6,6.4-11.6,6.4"/>
						<path id="Stroke-60" class="st10" d="M214.5,73c0,0-3.6,8.1-11.1,5.8c-7.5-2.3-10.5-0.1-17,4.3c-6.4,4.4-10-1.1-15.4-0.5
							c-5.3,0.7-11.6,6.4-11.6,6.4"/>
						<path id="Stroke-62" class="st10" d="M214.5,83c0,0-3.6,8.1-11.1,5.8c-7.5-2.3-10.5-0.1-17,4.3c-6.4,4.4-10-1.1-15.4-0.5
							c-5.3,0.7-11.6,6.4-11.6,6.4"/>
						<path id="Stroke-64" class="st10" d="M214.5,95c0,0-3.6,8.1-11.1,5.8c-7.5-2.3-10.5-0.1-17,4.3s-10-1.1-15.4-0.5
							c-5.3,0.7-11.6,6.4-11.6,6.4"/>
						<path id="Stroke-66" class="st10" d="M214.5,106c0,0-3.6,8.1-11.1,5.8c-7.5-2.3-10.5-0.1-17,4.3c-6.4,4.4-10-1.1-15.4-0.5
							c-5.3,0.7-11.6,6.4-11.6,6.4"/>
					</g>
				</g>
			</g>
		</g>
	</g>
</g>
</svg>
