<?xml version="1.0" encoding="UTF-8"?>
<svg width="381px" height="168px" viewBox="0 0 381 168" version="1.1" xmlns="http://www.w3.org/2000/svg" xmlns:xlink="http://www.w3.org/1999/xlink">
    <title>196FAB6C-D0E5-41EE-9ECF-D4ABB55514F3</title>
    <g id="Textbooks" stroke="none" stroke-width="1" fill="none" fill-rule="evenodd">
        <g id="1440-X-768" transform="translate(-94.000000, -1042.000000)" fill="#C3C2FF">
            <path d="M186.835957,1042 C220.637421,1042 224.863223,1191.64531 224.863223,1191.64531 C224.863223,1191.64531 236.693983,1123.1637 258.665925,1123.1637 C280.636629,1123.1637 254.440123,1199.25382 265.425475,1197.56346 C276.412065,1195.87309 268.805869,1056.37247 300.073585,1093.57173 C331.340064,1130.77222 316.974318,1188.26333 350.77702,1187.41753 C384.578484,1186.57296 338.94626,1160.36296 358.381978,1134.99876 C377.818934,1109.6358 426.831552,1168.81728 431.057354,1184.03555 C431.057354,1184.03555 428.522368,1102.02605 451.33848,1102.02605 C474.15583,1102.02605 475,1219.54568 475,1219.54568 L120.075961,1228 C120.075961,1228 84.5836808,1131.61802 96.4144408,1102.02605 C108.245201,1072.43654 147.963283,1133.30839 155.568241,1156.13642 C155.568241,1156.13642 153.033255,1042 186.835957,1042 Z M297.097798,1127.69578 L296.986778,1127.70177 C296.535697,1127.75409 296.20259,1128.13498 296.198575,1128.5778 L296.204549,1128.68964 L305.705811,1210.67698 L305.727809,1210.79616 C305.836471,1211.22145 306.245267,1211.51154 306.693214,1211.45958 C307.144295,1211.40725 307.477402,1211.02637 307.481417,1210.58355 L307.475443,1210.4717 L297.974181,1128.48437 L297.952183,1128.36518 C297.861631,1128.01078 297.562654,1127.75026 297.206281,1127.70333 L297.097798,1127.69578 Z M116.684384,1127.49881 C116.491594,1127.10374 116.033618,1126.90304 115.607253,1127.0461 C115.142127,1127.20217 114.890755,1127.70824 115.045797,1128.17644 L115.045797,1128.17644 L142.269834,1210.38873 L142.315616,1210.50119 C142.508406,1210.89626 142.966382,1211.09696 143.392747,1210.9539 C143.857873,1210.79783 144.109245,1210.29176 143.954203,1209.82356 L143.954203,1209.82356 L116.730166,1127.61127 Z M455.067168,1141.95462 L454.955319,1141.95933 C454.503673,1142.00652 454.166261,1142.38359 454.157216,1142.82634 L454.16192,1142.93824 L454.483937,1146.25832 L454.717026,1148.84411 C454.901685,1150.95051 455.084523,1153.17861 455.260042,1155.4977 L455.347166,1156.6647 L455.480677,1158.51942 C455.914606,1164.69029 456.2361,1170.73815 456.40402,1176.43229 C456.838474,1191.16451 456.197995,1201.88142 454.224365,1206.66995 C454.036828,1207.12496 454.253484,1207.64592 454.708279,1207.83355 C455.163075,1208.02117 455.683788,1207.80441 455.871325,1207.3494 C457.873343,1202.492 458.558698,1192.45788 458.24294,1178.60174 L458.226605,1177.91721 L458.184732,1176.37972 C458.014635,1170.61177 457.687929,1164.48707 457.246917,1158.24028 L457.123839,1156.53375 L457.036439,1155.36307 C456.889711,1153.42438 456.737883,1151.54907 456.584137,1149.75487 L456.491685,1148.68822 L456.306012,1146.61672 C456.257205,1146.08407 456.210137,1145.5797 456.165098,1145.10523 L456.120746,1144.64078 L455.933769,1142.7531 C455.89053,1142.3389 455.570233,1142.02072 455.176283,1141.9636 L455.067168,1141.95462 Z M377.16163,1154.16243 C376.875494,1154.51114 376.898023,1155.01205 377.196636,1155.33366 L377.284897,1155.41668 L378.420311,1156.38661 L379.483636,1157.32816 C380.346387,1158.1026 381.275301,1158.96112 382.257113,1159.8981 C385.998719,1163.46883 389.740621,1167.43794 393.231126,1171.69743 C402.504902,1183.01428 408.323269,1194.26855 409.028138,1204.69338 C409.061341,1205.18443 409.486147,1205.55558 409.976969,1205.52236 C410.467791,1205.48915 410.838765,1205.06414 410.805563,1204.57308 C410.070443,1193.70087 404.096017,1182.14474 394.608789,1170.56741 C391.068727,1166.24745 387.27788,1162.22641 383.486736,1158.60841 C382.159356,1157.34164 380.926254,1156.21531 379.818761,1155.24256 C379.508021,1154.96963 379.224918,1154.72444 378.971458,1154.50785 L378.786953,1154.35077 L378.415286,1154.03911 C378.03506,1153.72681 377.473779,1153.78202 377.16163,1154.16243 Z M189.60634,1078.97872 C189.152237,1078.97872 188.777501,1079.31869 188.722536,1079.75811 L188.715596,1079.86989 L188.715596,1202.25678 L188.723728,1202.37771 C188.78271,1202.81269 189.155391,1203.14795 189.60634,1203.14795 C190.060442,1203.14795 190.435178,1202.80798 190.490143,1202.36857 L190.497083,1202.25678 L190.497083,1079.86989 L190.488951,1079.74897 C190.429969,1079.31399 190.057288,1078.97872 189.60634,1078.97872 Z" id="Combined-Shape"></path>
        </g>
    </g>
</svg>