<?xml version="1.0" encoding="UTF-8"?>
<svg width="12px" height="14px" viewBox="0 0 12 14" version="1.1" xmlns="http://www.w3.org/2000/svg" xmlns:xlink="http://www.w3.org/1999/xlink">
    <title>@0.5xnoun_copy_1935346</title>
    <g id="Page-1" stroke="none" stroke-width="1" fill="none" fill-rule="evenodd">
        <g id="Group-5" transform="translate(0.000000, -5.000000)" fill="#024F9D" fill-rule="nonzero">
            <g id="noun_copy_1935346" transform="translate(0.000000, 5.000000)">
                <path d="M7.26262727,13.7205413 L2.02008285,13.7205413 C0.911527202,13.7205413 0.0108257387,12.8198398 0.0108257387,11.7112842 L0.0108257387,4.29781828 C0.0108257387,3.18926263 0.911527202,2.28856117 2.02008285,2.28856117 L7.26262727,2.28856117 C8.37118291,2.28856117 9.27188438,3.18926263 9.27188438,4.29781828 L9.27188438,11.7112842 C9.27188438,12.8198398 8.37118291,13.7205413 7.26262727,13.7205413 L7.26262727,13.7205413 Z M2.02008285,3.44330664 C1.54663721,3.44330664 1.16557121,3.82437264 1.16557121,4.29781828 L1.16557121,11.7112842 C1.16557121,12.1847298 1.54663721,12.5657958 2.02008285,12.5657958 L7.26262727,12.5657958 C7.73607291,12.5657958 8.11713891,12.1847298 8.11713891,11.7112842 L8.11713891,4.29781828 C8.11713891,3.82437264 7.73607291,3.44330664 7.26262727,3.44330664 L2.02008285,3.44330664 Z" id="Shape"></path>
                <path d="M10.9462653,10.7066556 C10.6229366,10.7066556 10.3688926,10.4526116 10.3688926,10.1292829 L10.3688926,3.32783209 C10.3688926,2.12689681 9.39890638,1.15691061 8.19797109,1.15691061 L3.57898923,1.15691061 C3.2556605,1.15691061 3.0016165,0.902866611 3.0016165,0.579537881 C3.0016165,0.25620915 3.2556605,0.00216514775 3.57898923,0.00216514775 L8.19797109,0.00216514775 C10.0340164,0.00216514775 11.523638,1.4917868 11.523638,3.32783209 L11.523638,10.1292829 C11.523638,10.4410642 11.269594,10.7066556 10.9462653,10.7066556 L10.9462653,10.7066556 Z" id="Path"></path>
            </g>
        </g>
    </g>
</svg>