<svg xmlns="http://www.w3.org/2000/svg" width="12" height="14" fill="#024f9d" xmlns:v="https://vecta.io/nano"><path d="M7.263 13.72H2.02a2.01 2.01 0 0 1-2.009-2.009V4.298A2.01 2.01 0 0 1 2.02 2.289h5.243a2.01 2.01 0 0 1 2.009 2.009v7.413a2.01 2.01 0 0 1-2.009 2.009h0zM2.02 3.443c-.473 0-.855.38-.855.855v7.413c0 .473.38.855.855.855h5.243c.473 0 .855-.38.855-.855V4.298c0-.473-.38-.855-.855-.855H2.02zm8.926 7.264a.57.57 0 0 1-.577-.577v-6.8a2.17 2.17 0 0 0-2.171-2.171H3.58A.57.57 0 0 1 3.002.58.57.57 0 0 1 3.579.002H8.2c1.836 0 3.326 1.5 3.326 3.326v6.8a.58.58 0 0 1-.577.577h0z"/></svg>