<?xml version="1.0" encoding="UTF-8"?>
<svg width="22px" height="18px" viewBox="0 0 22 18" version="1.1" xmlns="http://www.w3.org/2000/svg" xmlns:xlink="http://www.w3.org/1999/xlink">
    <title>EAA755B5-3666-48B9-8A86-0AD803A56B1B@2x</title>
    <g id="Final-layouts" stroke="none" stroke-width="1" fill="none" fill-rule="evenodd">
        <g id="Home-page-your-preferences" transform="translate(-127.000000, -739.000000)" fill="#0531FF" fill-rule="nonzero">
            <g id="Group-12" transform="translate(8.000000, 258.000000)">
                <g id="Group-2" transform="translate(8.000000, 431.000000)">
                    <g id="Group-17" transform="translate(111.000000, 50.000000)">
                        <path d="M20.1058834,16.1095296 C20.2267715,16.2326254 20.3006475,16.4010722 20.3006475,16.569519 C20.3006475,16.7379658 20.2267715,16.9064126 20.1058834,17.0295083 C19.9782794,17.1461253 19.8036633,17.2173913 19.6290472,17.2173913 C19.4544311,17.2173913 19.279815,17.1461253 19.1522109,17.0295083 C19.0313228,16.9064126 18.9574468,16.7379658 18.9574468,16.569519 C18.9574468,16.4010722 19.0313228,16.2326254 19.1522109,16.1095296 C19.4074191,15.8698169 19.8573913,15.8698169 20.1058834,16.1095296 Z M10.654513,0.0871225765 C10.8688999,-0.0290408588 11.1311001,-0.0290408588 11.345487,0.0871225765 L11.345487,0.0871225765 L21.6433594,5.66692304 C22.1188802,5.92457933 22.1188802,6.58119724 21.6433594,6.83885353 L21.6433594,6.83885353 L20.205,7.617 L20.2090657,7.66316753 L20.2090657,14.4079813 C20.2090657,14.7797174 19.8947124,15.0810691 19.506938,15.0810691 C19.1514782,15.0810691 18.8577124,14.82785 18.81122,14.4993153 L18.8048104,14.4079813 L18.803,8.377 L17.454,9.108 L17.4542067,13.9649795 C17.4542067,14.1961185 17.317373,14.4072297 17.1012021,14.5096059 C13.260269,16.3286298 8.73973097,16.3286298 4.89879792,14.5096059 C4.70964835,14.4200268 4.58124134,14.2471973 4.55209505,14.0505446 L4.54579326,13.9649795 L4.545,9.108 L0.35664065,6.83885353 C-0.0871788255,6.59837433 -0.11676679,6.01035522 0.267876755,5.72353737 L0.35664065,5.66692304 Z M16.186,9.795 L11.345487,12.418654 C11.1311001,12.5348174 10.8688999,12.5348174 10.654513,12.418654 L10.654513,12.418654 L5.813,9.795 L5.81268085,13.5793224 L6.12090909,13.7106493 C9.2355488,14.9750507 12.7644512,14.9750507 15.8790909,13.7106493 L16.186383,13.5793224 L16.186,9.795 Z M11,1.44579263 L2.12885106,6.25253711 L11,11.0583841 L17.397,7.592 L12.0864661,5.59171952 C11.7556213,5.4671205 11.5787833,5.128463 11.6608227,4.8063819 L11.6896944,4.71912587 C11.8196691,4.40196473 12.1729377,4.23244074 12.5089148,4.31108703 L12.5999354,4.33876453 L18.972,6.738 L19.8702128,6.25253711 L11,1.44579263 Z" id="Combined-Shape"></path>
                    </g>
                </g>
            </g>
        </g>
    </g>
</svg>