<?xml version="1.0" encoding="UTF-8"?>
<svg width="39px" height="35px" viewBox="0 0 39 35" version="1.1" xmlns="http://www.w3.org/2000/svg" xmlns:xlink="http://www.w3.org/1999/xlink">
    <title>Group 46</title>
    <g id="V1" stroke="none" stroke-width="1" fill="none" fill-rule="evenodd">
        <g id="01-Landing-page" transform="translate(-147, -576)">
            <g id="Group-46" transform="translate(148, 577)">
                <path d="M32.8406886,28.7808074 L0,28.7808074 C0,31.110978 1.87984825,33 4.19882824,33 L28.6418603,33 C30.9608403,33 32.8406886,31.110978 32.8406886,28.7808074" id="Fill-1" fill="#ADD5FA"></path>
                <path d="M26.4674975,9.79452555 L6.37321361,9.79452555 C4.01284535,9.79452555 2.09942537,11.7172821 2.09942537,14.0890417 L2.09942537,28.7808074 L30.7412857,28.7808074 L30.7412857,14.0890417 C30.7412857,11.7172821 28.8278095,9.79452555 26.4674975,9.79452555" id="Fill-3" fill="#FFFFFF"></path>
                <path d="M13.0463122,28.7808074 L1.12468115e-05,28.7808074 C1.12468115e-05,31.110978 1.8798595,33 4.19883949,33 L28.6418716,33 C30.9608516,33 32.8406998,31.110978 32.8406998,28.7808074 L19.7943989,28.7808074" id="Stroke-5" stroke="#000000" stroke-width="1.48939832" stroke-linecap="round" stroke-linejoin="round"></path>
                <path d="M7.7858412,24.4109508 C6.81248593,24.4109508 6.02329719,23.617991 6.02329719,22.6398019 L6.02329719,15.9355537 C6.02329719,14.9573646 6.81248593,14.1644048 7.7858412,14.1644048 L17.4569741,14.1644048 C18.4304419,14.1644048 19.2195744,14.9573646 19.2195744,15.9355537 L19.2195744,22.6398019 C19.2195744,23.617991 18.4304419,24.4109508 17.4569741,24.4109508 L7.7858412,24.4109508 Z" id="Fill-7" fill="#F32290"></path>
                <path d="M17.4569741,24.4109508 L7.7858412,24.4109508 C6.81248593,24.4109508 6.02329719,23.617991 6.02329719,22.6398019 L6.02329719,15.9355537 C6.02329719,14.9573646 6.81248593,14.1644048 7.7858412,14.1644048 L17.4569741,14.1644048 C18.4304419,14.1644048 19.2195744,14.9573646 19.2195744,15.9355537 L19.2195744,22.6398019 C19.2195744,23.617991 18.4304419,24.4109508 17.4569741,24.4109508 Z" id="Stroke-9" stroke="#000000" stroke-width="1.48939832" stroke-linecap="round" stroke-linejoin="round"></path>
                <polygon id="Stroke-11" stroke="#000000" stroke-width="1.48939832" stroke-linecap="round" stroke-linejoin="round" points="11.6257781 18.132419 13.6170822 19.2876439 11.6257781 20.4429252"></polygon>
                <polygon id="Fill-13" fill="#2386FC" points="32.8807047 12.3561649 27.5262666 14.6415255 22.1717723 12.3561649 22.1717723 6.85833662 32.8807047 6.85833662"></polygon>
                <polygon id="Fill-15" fill="#2386FC" points="36.8895406 4.89727408 27.5262891 9.79454816 18.1629814 4.89727408 27.5262891 0"></polygon>
                <polygon id="Stroke-17" stroke="#000000" stroke-width="1.48939832" stroke-linecap="round" stroke-linejoin="round" points="36.8895406 4.89727408 27.5262891 9.79454816 18.1629814 4.89727408 27.5262891 0"></polygon>
                <line x1="36.9307118" y1="4.89727408" x2="36.9307118" y2="10.749965" id="Stroke-19" stroke="#000000" stroke-width="1.48939832" stroke-linecap="round" stroke-linejoin="round"></line>
                <line x1="23.0184772" y1="24.4514474" x2="27.1173213" y2="24.4514474" id="Stroke-23" stroke="#000000" stroke-width="1.48939832" stroke-linecap="round" stroke-linejoin="round"></line>
                <line x1="23.0184772" y1="20.8350127" x2="27.1173213" y2="20.8350127" id="Stroke-25" stroke="#000000" stroke-width="1.48939832" stroke-linecap="round" stroke-linejoin="round"></line>
                <polyline id="Stroke-27" stroke="#000000" stroke-width="1.48939832" stroke-linecap="round" stroke-linejoin="round" points="32.8807047 6.99397552 32.8807047 12.3561875 27.5262666 14.6415481 22.1717723 12.3561875 22.1717723 6.99397552"></polyline>
                <path d="M30.8078769,28.7808074 L30.8078769,14.0890417 C30.8078769,13.8195608 30.7603495,13.5559001 30.6693005,13.3001504" id="Stroke-29" stroke="#000000" stroke-width="1.48939832" stroke-linecap="round" stroke-linejoin="round"></path>
                <path d="M22.1717948,9.79452555 L6.37317424,9.79452555 C4.01286222,9.79452555 2.099386,11.7172821 2.099386,14.0890417 L2.099386,28.7808074" id="Stroke-31" stroke="#000000" stroke-width="1.48939832" stroke-linecap="round" stroke-linejoin="round"></path>
                <line x1="16.4615155" y1="28.821304" x2="16.4615155" y2="28.821304" id="Stroke-33" stroke="#000000" stroke-width="1.48939832" stroke-linecap="round" stroke-linejoin="round"></line>
            </g>
        </g>
    </g>
</svg>