<?xml version="1.0" encoding="UTF-8"?>
<svg width="17px" height="20px" viewBox="0 0 17 20" version="1.1" xmlns="http://www.w3.org/2000/svg" xmlns:xlink="http://www.w3.org/1999/xlink">
    <title>0E02CBFF-B63D-4F06-A0A2-20A768F478C3</title>
    <g id="Search-page" stroke="none" stroke-width="1" fill="none" fill-rule="evenodd">
        <g id="Search-page-01" transform="translate(-171.000000, -329.000000)">
            <g id="Group-20" transform="translate(172.000000, 330.000000)">
                <path d="M13,18 L2,18 C0.896,18 0,17.104 0,16 L0,2 C0,0.896 0.896,0 2,0 L9.671,0 C10.202,0 10.711,0.211 11.086,0.586 L14.414,3.914 C14.789,4.289 15,4.798 15,5.329 L15,16 C15,17.104 14.104,18 13,18" id="Combined-Shape" stroke="#008840"></path>
                <path d="M11.25,12 L3.75,12 C3.336,12 3,11.664 3,11.25 C3,10.836 3.336,10.5 3.75,10.5 L11.25,10.5 C11.664,10.5 12,10.836 12,11.25 C12,11.664 11.664,12 11.25,12" id="Fill-3" fill="#008C36"></path>
                <path d="M6.75,9 L3.75,9 C3.336,9 3,8.664 3,8.25 C3,7.836 3.336,7.5 3.75,7.5 L6.75,7.5 C7.164,7.5 7.5,7.836 7.5,8.25 C7.5,8.664 7.164,9 6.75,9" id="Fill-5" fill="#008C36"></path>
                <path d="M11.25,15 L3.75,15 C3.336,15 3,14.664 3,14.25 C3,13.836 3.336,13.5 3.75,13.5 L11.25,13.5 C11.664,13.5 12,13.836 12,14.25 C12,14.664 11.664,15 11.25,15" id="Fill-7" fill="#008C36"></path>
            </g>
        </g>
    </g>
</svg>