<svg xmlns="http://www.w3.org/2000/svg" width="20" height="20" fill="#0e65a7" fill-rule="evenodd" xmlns:v="https://vecta.io/nano"><path d="M18.884 12.247c-.28 0-.5.233-.5.52v4.626c-.001.863-.685 1.562-1.53 1.563H2.548c-.844-.001-1.528-.7-1.53-1.563V3.817c.001-.863.685-1.562 1.53-1.563h4.524c.28 0 .5-.233.5-.52s-.228-.52-.5-.52H2.548C1.14 1.214.002 2.38 0 3.817v13.578C.002 18.833 1.14 19.998 2.548 20h14.298c1.407-.002 2.546-1.167 2.548-2.605V12.77c0-.288-.228-.52-.5-.52zM7.88 9.15l7.332-7.332 2.365 2.365-7.332 7.332zm-1.213 3.577l2.424-.67-1.753-1.753zM18.935.4a1.4 1.4 0 0 0-1.978 0l-.593.593 2.634 2.634.593-.593a1.4 1.4 0 0 0 0-1.978L18.935.4z"/></svg>