<?xml version="1.0" encoding="UTF-8"?>
<svg width="16px" height="16px" viewBox="0 0 16 16" version="1.1" xmlns="http://www.w3.org/2000/svg" xmlns:xlink="http://www.w3.org/1999/xlink">
    <!-- Generator: sketchtool 61 (101010) - https://sketch.com -->
    <title>BB71C17A-27EC-4651-8823-A6AF6E8205C0@3x</title>
    <desc>Created with sketchtool.</desc>
    <g id="Page-1" stroke="none" stroke-width="1" fill="none" fill-rule="evenodd">
        <g id="C-3" transform="translate(-719.000000, -384.000000)" fill="#E55A28" fill-rule="nonzero">
            <g id="Group-7" transform="translate(111.000000, 360.000000)">
                <g id="Group-17" transform="translate(49.000000, 14.000000)">
                    <g id="noun_Warning_1157122" transform="translate(559.000000, 10.000000)">
                        <path d="M7.96734694,11.0367347 C7.52653061,11.0367347 7.18367347,11.3959184 7.18367347,11.8204082 C7.18367347,12.244898 7.54285714,12.6040816 7.96734694,12.6040816 C8.40816327,12.6040816 8.75102041,12.244898 8.75102041,11.8204082 C8.75102041,11.3959184 8.40816327,11.0367347 7.96734694,11.0367347 Z" id="Path"></path>
                        <path d="M7.96734694,0.0489795918 C3.5755102,0.0489795918 0,3.6244898 0,8.01632653 C0,12.4244898 3.5755102,16 7.96734694,16 C12.3591837,16 15.9346939,12.4244898 15.9346939,8.03265306 C15.9346939,3.6244898 12.3591837,0.0489795918 7.96734694,0.0489795918 Z M14.7265306,8.01632653 C14.7265306,11.7387755 11.6897959,14.7755102 7.96734694,14.7755102 C4.24489796,14.7755102 1.2244898,11.755102 1.2244898,8.01632653 C1.2244898,4.27755102 4.24489796,1.27346939 7.96734694,1.27346939 C11.6897959,1.27346939 14.7265306,4.29387755 14.7265306,8.01632653 Z" id="Shape"></path>
                        <path d="M7.96734694,9.99183673 C8.32653061,9.99183673 8.62040816,9.71428571 8.62040816,9.37142857 L8.62040816,3.67346939 C8.62040816,3.33061224 8.32653061,3.05306122 7.96734694,3.05306122 C7.60816327,3.05306122 7.31428571,3.33061224 7.31428571,3.67346939 L7.31428571,9.35510204 C7.31428571,9.71428571 7.60816327,9.99183673 7.96734694,9.99183673 Z" id="Path"></path>
                    </g>
                </g>
            </g>
        </g>
    </g>
</svg>