<?xml version="1.0" encoding="UTF-8"?>
<svg width="16px" height="16px" viewBox="0 0 16 16" version="1.1" xmlns="http://www.w3.org/2000/svg" xmlns:xlink="http://www.w3.org/1999/xlink">
    <title>Group 30</title>
    <defs>
        <polygon id="path-1" points="0.294117647 0 0.882352941 0 0.882352941 2.21666667 0.294117647 2.21666667"></polygon>
        <polygon id="path-3" points="0 0.291666667 2.11764706 0.291666667 2.11764706 0.875 0 0.875"></polygon>
    </defs>
    <g id="V1" stroke="none" stroke-width="1" fill="none" fill-rule="evenodd">
        <g id="Group-30">
            <rect id="Rectangle" x="0" y="0" width="16" height="16"></rect>
            <g id="uuid-5d7ccb30-5f73-4e60-a255-c0ee47297b6c-copy" transform="translate(1, 1)">
                <g id="Clipped" transform="translate(6.5294, 0)">
                    <mask id="mask-2" fill="white">
                        <use xlink:href="#path-1"></use>
                    </mask>
                    <g id="uuid-daa3fb14-950d-4027-8121-0685c28da950"></g>
                    <g id="Group" mask="url(#mask-2)" fill="#607D8B">
                        <g transform="translate(-0.1176, 0)" id="uuid-af334e84-55c5-47c2-94aa-694b58c68da9">
                            <path d="M0.647058824,0 C0.529411765,0 0.294117647,0 0.294117647,0.233333333 L0.294117647,2.21666667 L0.882352941,2.21666667 L0.882352941,0.233333333 C0.882352941,0.116666667 0.764705882,0 0.529411765,0"></path>
                        </g>
                    </g>
                </g>
                <g id="Clipped" transform="translate(0, 6.475)">
                    <mask id="mask-4" fill="white">
                        <use xlink:href="#path-3"></use>
                    </mask>
                    <g id="uuid-8eedcbf8-b468-47c4-bf06-a7c9e1c37cc6"></g>
                    <g id="Group" mask="url(#mask-4)" fill="#607D8B">
                        <g transform="translate(0, 0.0583)" id="uuid-b6190444-948d-439f-830f-885086063fd2">
                            <path d="M0.235294118,0.233333333 C0.117647059,0.233333333 0,0.35 0,0.583333333 C0,0.816666667 0,0.933333333 0.235294118,0.933333333 L2.23529412,0.933333333 L2.23529412,0.35 L0.235294118,0.35 L0.235294118,0.233333333 Z"></path>
                        </g>
                    </g>
                </g>
                <path d="M6.82352941,11.7833333 L6.82352941,13.7666667 C6.82352941,13.8833333 6.94117647,14 7.17647059,14 C7.41176471,14 7.52941176,14 7.52941176,13.7666667 L7.52941176,11.7833333 L6.94117647,11.7833333 L6.82352941,11.7833333 Z" id="uuid-a1e8b12a-7b2a-4ef6-b971-f9a0a37ef43d" fill="#607D8B"></path>
                <path d="M13.7647059,6.76666667 L11.7647059,6.76666667 L11.7647059,7.35 L13.7647059,7.35 C13.8823529,7.35 14,7.23333333 14,7 C14,6.76666667 14,6.65 13.7647059,6.65" id="uuid-25d26534-89f4-4324-8440-caa7358c3d50" fill="#607D8B"></path>
                <path d="M7.05882353,0.933333333 C10.4705882,0.933333333 13.1764706,3.61666667 13.1764706,7 C13.1764706,10.3833333 10.4705882,13.0666667 7.05882353,13.0666667 C3.64705882,13.0666667 0.941176471,10.3833333 0.941176471,7 C0.941176471,3.61666667 3.64705882,0.933333333 7.05882353,0.933333333" id="uuid-cb64d2fd-8ba5-4d3b-b763-d8c065cc8131" fill="#B0BEC5"></path>
                <path d="M6.94117647,11.7833333 C4.23529412,11.7833333 2.11764706,9.68333333 2.11764706,7 C2.11764706,4.31666667 4.23529412,2.21666667 6.94117647,2.21666667 C9.64705882,2.21666667 11.7647059,4.31666667 11.7647059,7 C11.7647059,9.68333333 9.64705882,11.7833333 6.94117647,11.7833333" id="uuid-a3ed0301-f716-4af6-aea8-c326fd20dcca" fill="#ECEFF1"></path>
                <path d="M11.4117647,2.8 L7.05882353,5.95 C6.70588235,5.95 6.35294118,5.95 6.11764706,6.3 L6.11764706,7.81666667 C6.23529412,7.81666667 7.76470588,7.93333333 7.76470588,7.93333333 C8,7.7 8.11764706,7.35 8.11764706,7 L11.2941176,2.68333333 L11.4117647,2.8 Z" id="uuid-b660004c-6f62-4524-a6d5-09f1e6733d8e" fill="#0154D2"></path>
                <path d="M6.35294118,6.18333333 C6.11764706,6.41666667 6,6.76666667 6,7.11666667 L2.82352941,11.4333333 L7.17647059,8.28333333 C7.52941176,8.28333333 7.88235294,8.28333333 8.11764706,7.93333333 L6.47058824,6.3 L6.35294118,6.18333333 Z" id="uuid-618a2e71-f1bd-4010-8518-eb1da5d2948b" fill="#546E7A"></path>
                <path d="M7.05882353,6.76666667 C7.17647059,6.76666667 7.41176471,6.88333333 7.41176471,7.11666667 C7.41176471,7.35 7.29411765,7.46666667 7.05882353,7.46666667 C6.82352941,7.46666667 6.70588235,7.35 6.70588235,7.11666667 C6.70588235,6.88333333 6.82352941,6.76666667 7.05882353,6.76666667" id="uuid-8dfb9157-dbc8-422e-9bf3-112bc1fcc2ff" fill="#ECEFF1"></path>
            </g>
        </g>
    </g>
</svg>