<?xml version="1.0" encoding="UTF-8"?>
<svg width="110px" height="56px" viewBox="0 0 110 56" version="1.1" xmlns="http://www.w3.org/2000/svg" xmlns:xlink="http://www.w3.org/1999/xlink">
    <title>325FE56B-5E46-4678-8A88-77BA2D6C6A23</title>
    <g id="Textbooks" stroke="none" stroke-width="1" fill="none" fill-rule="evenodd" fill-opacity="0.25">
        <g id="1440-X-768" transform="translate(-115.000000, -1124.000000)" fill="#008815">
            <g id="Group-20-Copy" transform="translate(60.000000, 916.000000)">
                <path d="M126.590522,194.128055 C147.571144,194.128055 148.967095,307.917151 148.967095,307.917151 L148.737363,307.917911 C146.337933,307.925841 125.142975,307.995889 85.1524859,308.128055 C85.1524859,308.128055 63.1223711,249.055231 70.4657427,230.918212 C77.8091143,212.78271 102.462191,250.091263 107.182601,264.082635 C107.182601,264.082635 105.609131,194.128055 126.590522,194.128055 Z M83.1237236,246.271928 C83.0031138,246.028127 82.7166034,245.904277 82.4498687,245.99256 C82.1588855,246.088869 82.0016264,246.401162 82.0986209,246.690088 L82.0986209,246.690088 L99.1300184,297.422958 L99.1586593,297.492354 C99.2792691,297.736155 99.5657795,297.860005 99.8325142,297.771722 C100.123497,297.675413 100.280757,297.36312 100.183762,297.074194 L100.183762,297.074194 L83.1523645,246.341324 Z M128.310103,216.792434 C128.035287,216.792434 127.807302,216.990513 127.764453,217.250037 L127.757217,217.338633 L127.757217,292.349955 L127.762264,292.424071 C127.798874,292.690671 128.030198,292.896154 128.310103,292.896154 C128.584918,292.896154 128.812903,292.698075 128.855752,292.438551 L128.862988,292.349955 L128.862988,217.338633 L128.857941,217.264517 C128.821331,216.997917 128.590007,216.792434 128.310103,216.792434 Z" id="Combined-Shape" transform="translate(108.967095, 251.128055) rotate(47.000000) translate(-108.967095, -251.128055) "></path>
            </g>
        </g>
    </g>
</svg>