<svg xmlns="http://www.w3.org/2000/svg" xmlns:xlink="http://www.w3.org/1999/xlink" width="383" height="225" xmlns:v="https://vecta.io/nano"><style><![CDATA[.B{stroke-width:1.5}.C{stroke-linecap:round}.D{stroke:#4a00b2}]]></style><defs><path id="A" d="M0 0h383v225H0z"/><path id="B" d="M.2.705h167.07V144.67H.2z"/></defs><g fill="none" fill-rule="evenodd"><mask id="C" fill="#fff"><use xlink:href="#A"/></mask><g mask="url(#C)"><g transform="translate(1)"><path d="M92.836 57c33.8 0 38.027 149.645 38.027 149.645s11.83-68.482 33.803-68.482-4.226 76.1 6.76 74.4 3.38-141.19 34.648-103.992 16.9 94.692 50.703 93.846-11.83-27.055 7.605-52.42 68.45 33.82 72.675 49.037c0 0-2.535-82 20.28-82S381 234.546 381 234.546L26.076 243S-9.416 146.618 2.414 117.026s51.55 31.282 59.154 54.1c0 0-2.535-114.136 31.268-114.136zm110.262 85.696l-.11.006a.89.89 0 0 0-.788.876l.006.112 9.523 82.107a.89.89 0 0 0 1.754-.213l-.006-.112-9.523-82.107a.89.89 0 0 0-.746-.662l-.108-.008zM22.684 142.5c-.193-.395-.65-.596-1.077-.453-.465.156-.716.662-.56 1.13h0l27.27 82.325c.193.395.65.596 1.077.453.465-.156.716-.662.56-1.13h0L22.73 142.61zm338.383 14.456l-.112.005a.89.89 0 0 0-.798.867l.005.112.322 3.32.233 2.586.543 6.654.087 1.167.134 1.855c.434 6.17.755 12.22.923 17.913.434 14.732-.206 25.45-2.18 30.238a.89.89 0 0 0 1.647.679c2.002-4.857 2.687-14.892 2.372-28.748l-.016-.685-.042-1.537c-.17-5.768-.497-11.893-.938-18.14l-.123-1.707-.087-1.17-.452-5.608-.092-1.067-.186-2.07-.185-1.976-.187-1.888a.89.89 0 0 0-.757-.79l-.11-.01zm-77.906 12.208a.89.89 0 0 0 .035 1.171l.088.083 1.135.97 1.063.942c.863.774 1.792 1.633 2.773 2.57 3.742 3.57 7.484 7.54 10.974 11.8 9.274 11.317 15.092 22.57 15.797 32.996a.89.89 0 1 0 1.777-.12c-.735-10.872-6.7-22.428-16.197-34.006a134.41 134.41 0 0 0-11.122-11.959 121.22 121.22 0 0 0-3.668-3.366l-.847-.735-.185-.157-.372-.312a.89.89 0 0 0-1.254.123zM95.606 93.98a.89.89 0 0 0-.884.779l-.007.112.008 122.508a.89.89 0 0 0 1.766-.009l.007-.112L96.49 94.75a.89.89 0 0 0-.883-.77z" fill-opacity=".25" fill="#6236ff"/><g transform="translate(39 79)"><path d="M246.895 138.914s-30.168 1.274-35.6-5.98 11.02-7.424 11.02-7.424-23.38-3.988-28.278-15.287 25.34-10.073 25.34-10.073-20.035-13.642-22.663-27.27 59.565 25.54 59.565 25.54 1.107-22.517 6.436-25.265c0 0 11.602-6.467 7.127 23.393 0 0 17.416-17.877 22.855-9.855s-18.52 22.12-18.52 22.12l-27.282 30.1z" fill="#008840"/><g class="B C D"><path d="M221.5 130.9s16.725 2.695 23-19.9m-35-1.436s32.93-4.352 55 8.436c0 0-22.175-21.935-52.876-35"/><path d="M263.674 84s-7.855 7.96 1.147 35c0 0 4.084-20.546 21.68-27.22"/></g><path d="M246.627 148s-14.417-32.807-10.43-34.952 14.11 12.57 14.11 12.57-3.067-18.1 4.908-22.54 11.962 17.022 11.962 17.022 15.03-23.31 24.54-17.022-10.736 28.366-10.736 28.366 19.325-11.038 22.085-2.452S294.48 148 294.48 148h-47.852z" fill="#fbf272"/><g class="B C D"><path d="M257.5 115.24s6.876 17.156 6.876 27.76h4.652s8.783-25.875 15.472-33m11 25s-5.577.245-12 8"/></g><path d="M22.84 154.67S-.894 132.35.565 122.71s13.998 2.92 13.998 2.92S-.02 104.594 4.94 92.322s26.83 11.98 26.83 11.98-4.666-25.712 3.79-37.984 25.373 65.156 25.373 65.156 18.082-16.07 24.206-14.024c0 0 13.707 4.09-12.54 23.082 0 0 26.83 0 24.8 10.226s-30.913 2.338-30.913 2.338L22.84 154.67z" fill="#008840"/><g class="B C D"><path d="M9.5 129s10.45 15.68 32 3.136"/><path d="M16.5 105.518s28.298 21.897 35 48.482c0 0 .362-33.6-12.648-67m38.755 40s-11.94.072-26.107 27c0 0 18.845-12.292 37-4.12"/></g><path d="M50.067 90S14.137 75.906 15.54 71.214s20.3-1.164 20.3-1.164S19.738 58.538 22.43 49.04s22.054 3.885 22.054 3.885-6.295-29.34 5.728-31.793 13.407 29.925 13.407 29.925 6.31-23.225 14.943-18.763 7.925 21.12 7.925 21.12L50.067 90z" fill="#fbf272"/><g class="B C D"><path d="M33.5 56.35S51.85 64.036 59.926 72l3.574-3.52S50.54 42.4 50.253 32M77.5 51s-3.996 4.303-2.764 15"/></g><g transform="translate(63.5)"><mask id="D" fill="#fff"><use xlink:href="#B"/></mask><path d="M79.586 144.636L3.253 133.89C1.508 133.643.2 132.15.2 130.387V4.332A3.54 3.54 0 0 1 4.622.906L79.256 19.97c.554.14 1.135.147 1.692.014L161.782.8a3.54 3.54 0 0 1 4.354 3.408l1.143 124.086a3.54 3.54 0 0 1-3.002 3.529L80.615 144.63c-.34.052-.687.055-1.028.006" fill="#fff" mask="url(#D)"/></g><g class="B"><path stroke="#d9cbc3" d="M144.177 24l-.353 116"/><g stroke="#d7cbc4"><path d="M127.78 74.803L77.15 61.788a6.2 6.2 0 0 1-4.649-6.01v-32.57c0-4.05 3.808-7.016 7.72-6l50.63 13.015a6.2 6.2 0 0 1 4.649 6.009v32.572c0 4.05-3.807 7.016-7.72 6z"/><g class="C"><path d="M71.5 78s4.07 8.35 12.524 6.075 11.855.001 19.124 4.588 11.28-1.086 17.267-.334S133.5 95 133.5 95m-62-4s4.07 8.35 12.524 6.075 11.855.002 19.124 4.6 11.28-1.085 17.267-.334S133.5 108 133.5 108m81-90s-3.555 8.056-11.1 5.8-10.542-.088-16.97 4.3-10.037-1.136-15.355-.453S159.5 34 159.5 34m55-5s-3.555 8.056-11.1 5.8-10.542-.088-16.97 4.3-10.037-1.136-15.355-.453S159.5 45 159.5 45m55-5s-3.555 8.056-11.1 5.8-10.542-.088-16.97 4.3-10.037-1.136-15.355-.453S159.5 56 159.5 56m55-6s-3.555 8.056-11.1 5.8-10.542-.088-16.97 4.3-10.037-1.136-15.355-.453S159.5 66 159.5 66m55-4s-3.555 8.056-11.1 5.8-10.542-.088-16.97 4.3-10.037-1.136-15.355-.453S159.5 78 159.5 78m55-5s-3.555 8.056-11.1 5.8-10.542-.088-16.97 4.3-10.037-1.136-15.355-.453S159.5 89 159.5 89m55-6s-3.555 8.056-11.1 5.8-10.542-.088-16.97 4.3-10.037-1.136-15.355-.453S159.5 99 159.5 99m55-4s-3.555 8.056-11.1 5.8-10.542-.088-16.97 4.3-10.037-1.136-15.355-.453S159.5 111 159.5 111m55-5s-3.555 8.056-11.1 5.8-10.542-.088-16.97 4.3-10.037-1.136-15.355-.453S159.5 122 159.5 122"/></g></g></g></g><g transform="translate(83)"><g stroke="#979797" fill="#000"><path d="M191 .25c6.558 0 12.496 2.658 16.794 6.956S214.75 17.442 214.75 24h0v244.75H.25V24c0-6.558 2.658-12.496 6.956-16.794S17.442.25 24 .25h0z" stroke-width=".5"/><path d="M190 3.588c5.913 0 11.266 2.397 15.14 6.27s6.27 9.228 6.27 15.14h0v243.412H3.588V25c0-5.913 2.397-11.266 6.27-15.14s9.228-6.27 15.14-6.27h0z" stroke-width="1.176" opacity=".205"/></g><path d="M23 29h169c7.18 0 13 5.82 13 13v227H10V42c0-7.18 5.82-13 13-13z" fill="#fff"/></g><g transform="translate(123 9)" stroke="#4a4a4a"><g fill="#000" fill-rule="nonzero"><circle cx="6.5" cy="6.5" r="6.5"/><circle cx="115.716" cy="6.5" r="3.5"/><circle cx="130.557" cy="6.5" r="3.5"/></g><rect x="26.546" y="4.5" width="74.949" height="5" rx="2.5"/></g></g></g></g></svg>