<svg xmlns="http://www.w3.org/2000/svg" xmlns:xlink="http://www.w3.org/1999/xlink" width="383" height="225" xmlns:v="https://vecta.io/nano"><style><![CDATA[.B{stroke-width:1.5}.C{stroke-linecap:round}.D{stroke:#4a00b2}]]></style><defs><path id="A" d="M0 0h383v225H0z"/><path id="B" d="M.2.705h167.07V144.67H.2z"/></defs><g fill="none" fill-rule="evenodd"><mask id="C" fill="#fff">
  <use xlink:href="#A"/></mask><g mask="url(#C)">
  <g transform="translate(83)"><g stroke="#979797" fill="#000"><path d="M191 .25c6.558 0 12.496 2.658 16.794 6.956S214.75 17.442 214.75 24h0v244.75H.25V24c0-6.558 2.658-12.496 6.956-16.794S17.442.25 24 .25h0z" stroke-width=".5"/><path d="M190 3.588c5.913 0 11.266 2.397 15.14 6.27s6.27 9.228 6.27 15.14h0v243.412H3.588V25c0-5.913 2.397-11.266 6.27-15.14s9.228-6.27 15.14-6.27h0z" stroke-width="1.176" opacity=".205"/></g><path d="M23 29h169c7.18 0 13 5.82 13 13v227H10V42c0-7.18 5.82-13 13-13z" fill="#fff"/></g><g transform="translate(123 9)" stroke="#4a4a4a"><g fill="#000" fill-rule="nonzero"><circle cx="6.5" cy="6.5" r="6.5"/><circle cx="115.716" cy="6.5" r="3.5"/><circle cx="130.557" cy="6.5" r="3.5"/></g><rect x="26.546" y="4.5" width="74.949" height="5" rx="2.5"/></g></g></g></svg>