<svg xmlns="http://www.w3.org/2000/svg" viewBox="0 0 21 19.5"><defs><style>.cls-1{fill:none;stroke:#024f9d;stroke-linecap:round;stroke-linejoin:round;stroke-width:1.5px;}</style></defs><g id="Layer_2" data-name="Layer 2"><g id="Layer_1-2" data-name="Layer 1"><path class="cls-1" d="M14.25,6.25v8.5a1,1,0,0,1-1,1h-5l-4.5,3v-3h-2a1,1,0,0,1-1-1V6.25a1,1,0,0,1,1-1h11.5A1,1,0,0,1,14.25,6.25Z"/><path class="cls-1" d="M20.25,1.75v8.5a1,1,0,0,1-1,1h-2v3l-3-2v-6a1,1,0,0,0-1-1H6.75V1.75a1,1,0,0,1,1-1h11.5A1,1,0,0,1,20.25,1.75Z"/><line class="cls-1" x1="3.75" y1="9.75" x2="11.25" y2="9.75"/><line class="cls-1" x1="3.75" y1="12.75" x2="8.25" y2="12.75"/></g></g></svg>