<?xml version="1.0" encoding="UTF-8"?>
<svg width="17px" height="24px" viewBox="0 0 17 24" version="1.1" xmlns="http://www.w3.org/2000/svg" xmlns:xlink="http://www.w3.org/1999/xlink">
    <title>951EE67D-315D-4419-B671-4C976BA44410</title>
    <g id="Final-layouts" stroke="none" stroke-width="1" fill="none" fill-rule="evenodd">
        <g id="Home-page-your-preferences" transform="translate(-311.000000, -473.000000)" fill-rule="nonzero">
            <g id="Group-12" transform="translate(8.000000, 258.000000)">
                <g id="Group-19-Copy" transform="translate(8.000000, 156.000000)">
                    <g id="Group-21" transform="translate(270.000000, 35.000000)">
                        <g id="Group" transform="translate(25.000000, 24.000000)">
                            <path d="M11.2566786,23.59447 L3.53144432,23.59447 C3.23724609,23.59447 2.99866955,23.3531072 2.99866955,23.0553527 L2.99866955,21.6962379 C2.99866955,21.3984834 3.23724609,21.1571206 3.53144432,21.1571206 C4.47339012,21.1571206 5.31906353,20.5898613 5.68598551,19.7119627 C5.80756472,19.4212167 5.86920676,19.1114938 5.86920676,18.7914737 C5.86920676,18.4937192 6.1077833,18.2523564 6.40198153,18.2523564 C6.69623304,18.2523564 6.93475631,18.4937192 6.93475631,18.7914737 C6.93475631,19.2566781 6.84477065,19.7077576 6.66725009,20.1320968 C6.20352293,21.2416003 5.21432,22.0102199 4.06416582,22.1932502 L4.06416582,22.5161815 L10.7238505,22.5161815 L10.7238505,22.1934119 C10.2210177,22.1134608 9.74306543,21.9202951 9.31966931,21.6233493 C8.76185412,21.232004 8.33648674,20.6889511 8.08943908,20.0528466 C7.9328033,19.6502876 7.85326002,19.2257867 7.85326002,18.7914737 C7.85326002,18.4937192 8.09183657,18.2523564 8.3860348,18.2523564 C8.68023303,18.2523564 8.91880957,18.4937192 8.91880957,18.7914737 C8.91880957,19.089983 8.97336571,19.3815377 9.08103949,19.6581588 C9.25072826,20.0950594 9.54311505,20.4680747 9.92676617,20.737256 C10.3183556,21.0119363 10.7782468,21.1571206 11.2566253,21.1571206 C11.5508235,21.1571206 11.7894001,21.3984834 11.7894001,21.6962379 L11.7894001,23.0553527 C11.7894001,23.3531072 11.5509301,23.59447 11.2566786,23.59447 Z" id="Path" fill="#FFFFFF"></path>
                            <path d="M7.3861231,19.3014787 C7.0405121,19.3014787 6.69319623,19.2826635 6.35387197,19.2455184 C4.35005276,19.0267984 2.49722193,18.1862067 0.995969165,16.8146383 C0.777531507,16.615111 0.760376159,16.2742271 0.957502826,16.053189 C1.15473605,15.8322048 1.49155626,15.8147913 1.70999392,16.0143186 C3.04358246,17.232616 4.68900408,17.9792396 6.46825872,18.1734835 C7.07636784,18.2400645 7.7109026,18.2394715 8.31895845,18.171974 C10.3795715,17.9437117 12.2828028,16.9560488 13.6781932,15.3908833 C15.0837063,13.8143425 15.8577215,11.7757782 15.8577215,9.65073936 C15.8577215,4.92386642 12.0573858,1.07823466 7.38606982,1.07823466 C7.09187159,1.07823466 6.85329505,0.836871835 6.85329505,0.539117332 C6.85329505,0.24136283 7.09187159,-6.12905447e-15 7.38606982,-6.12905447e-15 C12.6448765,-6.12905447e-15 16.9232711,4.32927391 16.9232711,9.65073936 C16.9232711,12.0431264 16.0518114,14.3381489 14.4693637,16.1131388 C12.8986904,17.8749743 10.7556572,18.9867959 8.43494352,19.2438471 C8.09023824,19.2820705 7.73727495,19.3014787 7.3861231,19.3014787 Z" id="Path" fill="#FFFFFF"></path>
                            <path d="M6.07405866,16.9547549 C5.89744382,16.9547549 5.72274697,16.9348615 5.55055417,16.8943738 C5.26392134,16.8269841 5.08560162,16.5372624 5.15219847,16.2472173 C5.21874203,15.9571722 5.50516175,15.7767296 5.79168803,15.8440654 C6.70246651,16.0581489 7.91937737,15.1534022 8.89185117,13.5391231 C9.43352328,12.6414928 9.87977544,11.5642824 10.1829776,10.4227554 C10.1839366,10.4188198 10.1848955,10.4148843 10.1859611,10.4110026 C10.4846879,9.2828457 10.6320534,8.13765266 10.6122342,7.09925877 C10.5794153,5.32248977 10.0603861,3.9666636 9.25765433,3.56054651 C9.18370519,3.52291612 9.10597335,3.49304902 9.02579075,3.47126868 C8.74160868,3.39401317 8.5731453,3.09830731 8.64949192,2.81074212 C8.72583855,2.52323085 9.0178524,2.35276195 9.30224758,2.42996355 C9.45206385,2.47066691 9.59767119,2.52673511 9.73507381,2.59665863 C10.9277434,3.20009266 11.6360675,4.83399556 11.6775174,7.07882622 C11.6992013,8.21307517 11.5403811,9.45762754 11.2182122,10.6784587 C11.2172532,10.6825021 11.216241,10.6865994 11.2151221,10.6906428 C10.885814,11.9345482 10.3970465,13.1137056 9.80145754,14.1007756 C8.70154402,15.9266042 7.34238229,16.9545932 6.07405866,16.9547549 Z" id="Path" fill="#FFFFFF"></path>
                            <path d="M5.61496664,16.8938885 C5.56936111,16.8938885 5.52295643,16.8879043 5.47681814,16.8753968 C4.04914157,16.4884723 3.16127241,14.7721923 3.10170819,12.2843814 C3.07368423,11.1322338 3.23213145,9.86773409 3.55994777,8.62706337 C3.56096004,8.62301999 3.56191904,8.61903053 3.56298459,8.61504106 C3.88717804,7.39135254 4.36571634,6.22906948 4.94692034,5.25391405 C6.09206645,3.33099035 7.51281694,2.2753447 8.84464732,2.35464886 C8.97123461,2.36225041 9.09984644,2.38106561 9.22670012,2.41050142 C9.51349278,2.47708241 9.69261166,2.76631886 9.62686725,3.05652572 C9.56106956,3.34673258 9.27544901,3.52814556 8.98844324,3.46140283 C8.91902268,3.44528322 8.84938902,3.43503999 8.78140696,3.43099661 C7.88469373,3.37681532 6.76581343,4.28873229 5.85951026,5.81060661 C5.33083785,6.69767027 4.8938027,7.75978532 4.59523572,8.8830902 C4.59422344,8.88707966 4.59326445,8.89096131 4.5921989,8.89489686 C4.28841072,10.0409525 4.14136488,11.2039364 4.16704463,12.2580725 C4.21307637,14.1818049 4.83546386,15.585289 5.75258236,15.833876 C6.0368177,15.9109159 6.20554747,16.2065139 6.12936068,16.4940791 C6.06553426,16.7350107 5.85023998,16.8938885 5.61496664,16.8938885 Z" id="Path" fill="#FFFFFF"></path>
                            <path d="M14.008407,12.0008596 C13.945433,12.0008596 13.8814468,11.9894843 13.8191121,11.9654935 C13.5551755,11.8639238 13.4172934,11.57307 13.499021,11.3038348 C14.3983449,7.89715242 12.3926077,4.38442562 9.02605713,3.47132259 L9.01204516,3.46765659 C9.00426665,3.46555404 8.99648813,3.46339757 8.98881618,3.46161848 C8.98375482,3.46048633 8.97880001,3.45924636 8.97379193,3.45789857 C7.34946819,3.03194196 5.65609685,3.26818318 4.20545769,4.12327718 C2.75748241,4.97686165 1.72016992,6.34794485 1.28340116,7.98497463 C1.22650081,8.22083846 1.01632116,8.39615942 0.765810462,8.39615942 C0.471612231,8.39615942 0.233035687,8.15533571 0.233035687,7.85758121 C0.233035687,7.81040844 0.239109319,7.762427 0.251203307,7.71692549 C0.759470442,5.79836864 1.97329121,4.19120596 3.66906005,3.19157461 C5.36221828,2.19350669 7.33849303,1.91683167 9.23474501,2.41244224 C9.25088809,2.41632388 9.267191,2.42058291 9.28338735,2.42489585 L9.29686655,2.42845402 C13.2365762,3.49693066 15.5803057,7.60381868 14.5275427,11.5854158 C14.5230142,11.6030989 14.5166741,11.6258496 14.5064449,11.6531829 C14.4255697,11.8684524 14.2231685,12.0008596 14.008407,12.0008596 Z" id="Path" fill="#5E2A41"></path>
                            <path d="M11.3552419,15.8522599 C11.1882703,15.8522599 11.023856,15.7730636 10.9200182,15.6246985 C10.7499565,15.3817183 10.806697,15.0452552 11.0468719,14.873169 C12.2412996,14.0171046 13.1098291,12.7575647 13.4927876,11.3261004 L13.4931605,11.3246448 C13.4939597,11.3213562 13.4957178,11.3144015 13.4965703,11.3111129 C13.8680208,9.88757361 13.7410073,8.36715491 13.1390251,7.02987437 C13.017073,6.75891399 13.1352957,6.4391635 13.403015,6.31575955 C13.6706811,6.1924095 13.9866698,6.3118779 14.1087285,6.58289219 C14.8118314,8.14482292 14.9606354,9.9201363 14.5278091,11.5825046 L14.5268501,11.586548 C14.5258379,11.5905374 14.5239732,11.5980851 14.5229076,11.6020745 C14.0761227,13.277166 13.0603876,14.7513824 11.6627595,15.7530624 C11.5692042,15.8200207 11.4616903,15.8522599 11.3552419,15.8522599 Z" id="Path" fill="#FFFFFF"></path>
                            <path d="M1.15825236,13.0871811 C0.956650387,13.0871811 0.763732641,12.9707317 0.673906813,12.773253 C-0.04160971,11.1992461 -0.192917746,9.40872959 0.247740271,7.73148166 L0.249498427,7.72468878 C0.250137757,7.72210102 0.250990197,7.71870458 0.251736081,7.71617073 C0.697721846,6.05622846 1.70455962,4.59241708 3.08663066,3.59429525 C3.32600637,3.42123859 3.65888405,3.47757635 3.82974492,3.7199635 C4.00065907,3.96235066 3.94509066,4.29902943 3.70555512,4.47197827 C2.52338117,5.32572448 1.66209747,6.57787839 1.28025779,7.99796736 L1.27897913,8.00298115 C1.27855291,8.0045985 1.27791358,8.00702453 1.27754063,8.00858797 C0.900442648,9.44393396 1.02985364,10.9760515 1.64201186,12.3226588 C1.76497628,12.5931879 1.64792566,12.9133157 1.38063255,13.037744 C1.30849485,13.0712771 1.23278755,13.0871811 1.15825236,13.0871811 Z" id="Path" fill="#FFFFFF"></path>
                            <path d="M11.4240764,7.63163713 C11.3273778,7.63163713 11.2297202,7.63034325 11.1310503,7.62775549 C10.1330033,7.60214741 9.09579735,7.44531818 8.04857525,7.16158073 C7.00087366,6.87757372 6.02514994,6.4887623 5.14846904,6.0058749 C4.28617307,5.53134383 3.56719351,4.99308908 3.01145614,4.40604422 C2.90447497,4.29304523 2.85130404,4.13858811 2.86579552,3.98272929 C2.88023371,3.82692438 2.96084254,3.68513652 3.08673722,3.59424134 C4.7750472,2.3750275 6.9028431,1.92734446 8.92456354,2.36564685 C9.04917956,2.39260272 9.1742218,2.42317067 9.29590756,2.4563803 C9.42675704,2.49212378 9.54609859,2.52781335 9.66075172,2.56555156 C11.6271701,3.20796377 13.24883,4.67231427 14.1087818,6.58278436 C14.1728746,6.72521916 14.1726615,6.88884127 14.1081424,7.03106042 C14.0436234,7.17333349 13.9211918,7.28018654 13.7727074,7.32390896 C13.0782355,7.52839616 12.2893026,7.63163713 11.4240764,7.63163713 Z M4.26241131,4.1128183 C4.66087357,4.44938925 5.13371118,4.77048754 5.65764189,5.05880749 C5.65769517,5.0588614 5.65774845,5.05891531 5.65780173,5.05891531 C6.46069331,5.50109935 7.35783276,5.85815676 8.32423292,6.12011387 C9.2903667,6.38180142 10.243927,6.5264466 11.1583816,6.54995212 C11.7545033,6.56542478 12.3226543,6.52682398 12.8341714,6.43700704 C12.0525375,5.09325708 10.8056314,4.07276189 9.3322428,3.59143793 C9.2338393,3.55903698 9.13149326,3.52846903 9.01827862,3.4975776 C8.91465393,3.46927394 8.8080457,3.44323458 8.70143746,3.42016036 C7.187185,3.09178399 5.60313904,3.34463002 4.26241131,4.1128183 Z" id="Shape" fill="#FFFFFF"></path>
                            <path d="M7.38862714,17.1581639 C6.74833842,17.1581639 6.10373421,17.0736303 5.46983879,16.9018675 C3.33005546,16.3214538 1.57546829,14.8178016 0.656058858,12.7764338 C0.591166891,12.6323278 0.592179163,12.466657 0.65877601,12.3233596 C0.725426134,12.1800622 0.850894594,12.0736405 1.0020428,12.032398 L1.01791949,12.0278694 C1.301995,11.9495357 1.59464818,12.1190881 1.6719538,12.4063837 C1.67594961,12.4213172 1.67935937,12.4362508 1.68202324,12.4511843 C2.48305012,14.1364651 3.95707809,15.3753028 5.74554973,15.8604006 C7.53428776,16.3452827 9.42329401,16.0176611 10.9498003,14.9627703 C10.9516117,14.9606138 10.9534232,14.9585112 10.9552879,14.9564087 C11.1499638,14.7331602 11.4866242,14.711919 11.7072995,14.9090203 C11.7285039,14.9279433 11.7486428,14.9484297 11.7672899,14.9698866 C11.8666524,15.084449 11.9134833,15.2362106 11.8961681,15.3876486 C11.8788529,15.5390867 11.79899,15.6760225 11.6763453,15.7645456 C10.4062635,16.6812068 8.90959257,17.15811 7.38862714,17.1581639 Z" id="Path" fill="#FFFFFF"></path>
                            <path d="M7.39358195,17.1310463 C6.77593615,17.1310463 6.15482732,17.0524969 5.54357482,16.8927564 C5.52780468,16.8889826 5.51176816,16.8847775 5.49589147,16.8805184 L5.48198605,16.8768524 C5.48028117,16.8763672 5.47846974,16.8759359 5.47676486,16.8754507 C3.34678458,16.2982717 1.59619323,14.8030837 0.673853536,12.7731991 C0.609014846,12.6304409 0.608908291,12.4661718 0.673587149,12.3233596 C0.738319284,12.1804935 0.861283702,12.0733709 1.01051392,12.0299181 C1.78197179,11.80516 2.66989423,11.705046 3.64897444,11.732487 C4.64057485,11.7586342 5.67245303,11.91514 6.71503999,12.1975836 C7.7553893,12.4795419 8.72626477,12.8658734 9.60070801,13.3459035 C10.4627909,13.8183859 11.1821434,14.3545381 11.7385201,14.9392108 C11.8461939,15.0523716 11.8996844,15.2074217 11.8851397,15.3637657 C11.8705417,15.5201637 11.7892935,15.6623289 11.6625997,15.7531163 C10.3983784,16.6589951 8.90708853,17.1310463 7.39358195,17.1310463 Z M5.75151681,15.8336604 L5.76728694,15.8378116 C5.77490562,15.8398603 5.7825243,15.8419628 5.79003643,15.843688 C5.79499123,15.8448201 5.79994604,15.8460601 5.80479429,15.8473001 C7.39523355,16.2645769 9.06692096,16.0390102 10.4850076,15.2327602 C10.0870781,14.8987231 9.61530604,14.579997 9.09297365,14.2937257 C8.29168038,13.8539137 7.39901625,13.4990667 6.43948888,13.2390504 C5.47772385,12.978495 4.52922492,12.8342811 3.62041771,12.8102904 C3.02658694,12.7936856 2.46072686,12.8308847 1.95080812,12.9187608 C2.78982183,14.3513573 4.14450826,15.3978919 5.75151681,15.8336604 Z" id="Shape" fill="#FFFFFF"></path>
                            <path d="M13.9731373,11.9776776 C13.9274785,11.9776776 13.8810738,11.9716934 13.8348823,11.9591859 L0.607096857,8.37265391 C0.323021346,8.29491319 0.155090737,7.99888386 0.231863582,7.71148041 C0.308636427,7.42402305 0.601183057,7.25414718 0.885258567,7.33178007 L0.904971234,7.33717125 L14.110753,10.9176651 C14.3949351,10.9947589 14.5636116,11.2903569 14.4874248,11.577976 C14.4236517,11.8188536 14.2083574,11.9776776 13.9731373,11.9776776 Z" id="Path" fill="#FFFFFF"></path>
                            <path d="M9.28898149,3.3459239 C9.24332269,3.3459239 9.19691801,3.3399397 9.15077971,3.32743217 C8.86654437,3.25039231 8.69786787,2.95474036 8.77405467,2.66712127 L9.16937355,1.17430537 C9.24556034,0.8867941 9.53778731,0.716055641 9.82186282,0.793095507 C10.1060982,0.870135374 10.2747747,1.16578732 10.1985879,1.45340642 L9.80326898,2.94622231 C9.73949584,3.18704602 9.52420155,3.3459239 9.28898149,3.3459239 Z" id="Path" fill="#FFFFFF"></path>
                            <path d="M5.1535304,18.9624818 C5.10792488,18.9624818 5.06146692,18.9564975 5.01527535,18.94399 C4.73109328,18.8668962 4.56241679,18.5712982 4.63860358,18.283733 L5.10105209,16.537532 C5.17723888,16.2499668 5.46925273,16.0792283 5.75359463,16.1563221 C6.0377767,16.2334159 6.20645319,16.5290139 6.1302664,16.816633 L5.66781789,18.5628341 C5.60409803,18.8036578 5.38880374,18.9624818 5.1535304,18.9624818 Z" id="Path" fill="#FFFFFF"></path>
                        </g>
                    </g>
                </g>
            </g>
        </g>
    </g>
</svg>