<svg xmlns="http://www.w3.org/2000/svg" viewBox="0 0 24 24" xmlns:v="https://vecta.io/nano"><path d="M12.3 16.3c2.8 0 5 2.1 5 4.7v.6H6.7V21c0-2.6 2.2-4.7 5-4.7h.6zm-7.9 1.4c.8 0 1.6.2 2.2.6-.7.9-1.1 1.9-1.1 3v.3H0v-.5c0-1.9 1.7-3.5 3.9-3.5h.5zm15.7 0c2.2 0 3.9 1.6 3.9 3.5v.5h-5.6v-.3c0-1.1-.4-2.2-1.1-3 .6-.4 1.4-.6 2.2-.6h.6zM4.7 12.3c1.1 0 2 .9 2 2s-.9 2-2 2-2-.9-2-2 .9-2 2-2zm14.6 0c1.1 0 2 .9 2 2s-.9 2-2 2-2-.9-2-2 .9-2 2-2zM12 9.7a2.69 2.69 0 0 1 2.7 2.7c0 1.5-1.2 2.6-2.7 2.6a2.69 2.69 0 0 1-2.7-2.7c0-1.5 1.2-2.6 2.7-2.6zM7.3 2.3v3.3h3.3V7H7.3v3.3H6V7H2.7V5.7H6V2.4h1.3z"/></svg>