<?xml version="1.0" encoding="UTF-8"?>
<svg width="72px" height="63px" viewBox="0 0 72 63" version="1.1" xmlns="http://www.w3.org/2000/svg" xmlns:xlink="http://www.w3.org/1999/xlink">
    <!-- Generator: sketchtool 55.1 (78136) - https://sketchapp.com -->
    <title>84B0D48E-9BFE-49D1-8813-AFE6F6328D82xhdpi/</title>
    <desc>Created with sketchtool.</desc>
    <g id="Proto-1" stroke="none" stroke-width="1" fill="none" fill-rule="evenodd">
        <g id="Library---class-4" transform="translate(-148.000000, -266.000000)">
            <g id="Group" transform="translate(149.000000, 266.000000)">
                <g id="Group-7" opacity="0.5" transform="translate(9.000000, 56.000000)" fill="#BCD1E9" fill-rule="nonzero">
                    <ellipse id="Oval-Copy-2" opacity="0.75" cx="25" cy="3.66336634" rx="25" ry="2.72277228"></ellipse>
                </g>
                <g id="noun_Book_550275" stroke="#A2BEDD" stroke-width="0.5">
                    <path d="M68.1201111,22.1518889 C67.6643333,21.2154444 67.4146667,20.1973333 67.4146667,19.1411111 C67.4146667,17.878 67.7701111,16.6716667 68.4148889,15.5952222 L69.4827778,14.8205556 C69.853,14.5506667 70.0474444,14.1018889 69.9891111,13.6484444 C69.9338889,13.1942222 69.6336667,12.81 69.2097778,12.6381111 L38.9915556,0.550666667 C37.9672222,0.139222222 36.4855556,0.332888889 35.6058889,0.974555556 L2.09844444,25.3446667 C1.99577778,25.4185556 1.911,25.5087778 1.83788889,25.6067778 L1.834,25.6044444 C0.633888889,27.1957778 0,29.0857778 0,31.0667778 C0,33.0485556 0.633888889,34.9362222 1.834,36.5283333 L2.04477778,36.8075556 L32.5888889,49.0264444 C32.97,49.1773333 33.3993333,49.252 33.8364444,49.252 C34.6025556,49.252 35.392,49.0264444 35.9745556,48.6048889 L52.7286667,36.421 L69.4827778,24.2355556 C70.0443333,23.8264444 70.168,23.0416667 69.7581111,22.4824444 C69.3777778,21.9558889 68.6707778,21.833 68.1201111,22.1518889 Z M36.7336667,8.78422222 L55.5644444,16.317 L48.6585556,21.3383333 L29.8277778,13.8055556 L36.7336667,8.78422222 Z M51.2524444,34.3925556 L34.4991111,46.5733333 C34.2867778,46.7273333 33.7617778,46.7934444 33.5198889,46.6954444 L3.64388889,34.7448889 C2.90266667,33.6528889 2.51144444,32.3874444 2.51144444,31.0667778 C2.51144444,29.9483333 2.79922222,28.8773333 3.33433333,27.9074444 L32.5881111,39.6122222 C32.956,39.7592222 33.3861111,39.8377778 33.8317778,39.8377778 C34.6258889,39.8377778 35.4067778,39.6021111 35.9745556,39.1914444 L65.835,17.4735556 C65.7276667,18.0203333 65.6568889,18.5748889 65.6568889,19.1418889 C65.6568889,20.566 65.9991111,21.9442222 66.6586667,23.1871111 L51.2524444,34.3925556 Z" id="Shape" fill="#E6F2FF"></path>
                    <path d="M16.0214444,35.9784444 L7.38733333,32.5266667 C7.19522222,32.4473333 6.97433333,32.473 6.80322222,32.5904444 C6.62977778,32.7047778 6.52711111,32.9007778 6.52711111,33.11 L6.52711111,46.9194444 C6.52711111,47.1473333 6.65077778,47.3565556 6.84988889,47.4654444 C7.04588889,47.5766667 7.29088889,47.572 7.48455556,47.453 L11.2972222,45.094 L15.2747778,50.7313333 C15.3937778,50.904 15.5874444,50.9988889 15.7873333,50.9988889 C15.8511111,50.9988889 15.9148889,50.9895556 15.9771111,50.9701111 C16.2384444,50.8868889 16.415,50.6442222 16.415,50.3712222 L16.415,36.5617778 C16.415,36.3043333 16.2594444,36.0741111 16.0214444,35.9784444 Z" id="Path" fill="#B0CDEC"></path>
                </g>
            </g>
        </g>
    </g>
</svg>