<svg xmlns="http://www.w3.org/2000/svg" width="221" height="167" fill="none" fill-rule="evenodd" xmlns:v="https://vecta.io/nano"><g fill-rule="nonzero"><path d="M59.827 69.69c-.04.024-.083.035-.128.033h-.538l-3.883.02c-.2-.005-.36-.173-.355-.375s.172-.362.373-.357l4.397-.02a.39.39 0 0 1 .373.36.41.41 0 0 1-.239.339zm-8.81-.228c-.05.023-.107.03-.16.02-1.475-.148-2.94-.392-4.382-.733-.193-.053-.308-.253-.257-.447.024-.092.083-.17.165-.218a.35.35 0 0 1 .271-.034c1.41.327 2.842.565 4.283.712.197.02.34.195.326.393-.017.14-.112.26-.245.306h0zm-8.5-2.13a.4.4 0 0 1-.278 0c-1.368-.598-2.67-1.34-3.883-2.213-.16-.118-.196-.342-.08-.504.055-.08.14-.13.234-.147s.19.008.268.066c1.174.843 2.43 1.564 3.748 2.153.18.08.26.29.18.47a.3.3 0 0 1-.188.174zm-7.076-5.13c-.143.048-.3.01-.406-.1a20.39 20.39 0 0 1-2.61-3.654c-.067-.114-.066-.255.001-.368s.19-.18.322-.175a.36.36 0 0 1 .307.201 20.3 20.3 0 0 0 2.512 3.522.36.36 0 0 1-.03.507c-.022.035-.056.06-.096.072v-.006zm.535-5.236a17.51 17.51 0 0 1-2.336.733c-.197.045-.393-.078-.44-.276-.024-.096-.008-.197.045-.28a.36.36 0 0 1 .233-.161 16.66 16.66 0 0 0 2.24-.7c.607-.24 1.198-.518 1.768-.835a.36.36 0 0 1 .487.147c.094.176.03.395-.146.49a15.97 15.97 0 0 1-1.852.889v-.006zm-6.652 1.255c-.033.015-.08.015-.113.033-1.477.043-2.955.01-4.43-.096a.37.37 0 0 1-.34-.393c.006-.097.05-.188.123-.252s.168-.097.265-.1a41.83 41.83 0 0 0 4.367.099.36.36 0 0 1 .261.1c.07.067.11.16.112.257a.38.38 0 0 1-.245.348v-.006zm11.86-4.876a.32.32 0 0 1-.355-.066.36.36 0 0 1-.051-.504c.48-.58.9-1.216 1.22-1.895.285-.593.486-1.224.597-1.874.035-.198.224-.33.42-.294s.328.225.293.423c-.127.718-.35 1.415-.666 2.072-.355.73-.796 1.415-1.314 2.04-.04.045-.088.08-.143.105v-.006zm-9.96 1.2c-.018 0-.033.018-.05.018-.092.024-.19.01-.273-.04s-.14-.13-.163-.223c-.398-1.466-.535-3-.406-4.504a.36.36 0 0 1 .388-.327c.196.02.34.193.326.4-.11 1.43.022 2.87.388 4.258a.36.36 0 0 1-.209.42v.006zM20.545 57.8c-.05.022-.107.027-.16.015l-1.544-.1-2.825-.066c-.2.004-.368-.156-.372-.36s.156-.37.357-.374l2.873.063 1.556.1c.2.017.35.2.34.4-.01.14-.096.265-.224.324v.006zM.49 64.203a.32.32 0 0 1-.34-.048c-.16-.118-.196-.342-.08-.504.897-1.22 1.975-2.292 3.196-3.183.163-.115.388-.078.505.084s.08.387-.08.504a13.69 13.69 0 0 0-3.035 3.018c-.04.058-.098.1-.164.123v.006zm11.263-6.23c-.026.012-.055.017-.084.015-1.426.212-2.827.568-4.18 1.063a.38.38 0 0 1-.472-.213c-.063-.185.03-.386.212-.456 1.405-.505 2.855-.87 4.33-1.093a.35.35 0 0 1 .266.064c.076.057.127.142.14.236.024.078.015.163-.026.235a.3.3 0 0 1-.187.144v.006zm30.844-12.887c-.18.07-.38-.017-.454-.195-.44-1.058-1.256-1.914-2.288-2.402-.2-.098-.428-.18-.65-.243-.193-.06-.302-.264-.243-.458s.262-.304.455-.245c.257.068.508.162.747.28a5.39 5.39 0 0 1 2.646 2.771.37.37 0 0 1 .005.3c-.04.096-.12.17-.217.205v-.012zm-10.5.883c-.107.038-.225.026-.323-.033-.085-.048-.147-.13-.172-.224s-.01-.196.04-.28c.788-1.325 1.9-2.425 3.23-3.198.1-.068.25-.07.36-.007s.182.184.18.315-.073.25-.187.31a8.32 8.32 0 0 0-2.969 2.936c-.022.08-.083.146-.16.174v.006z" fill="#0c519b"/><path d="M27.914 124.77c-9.16-15.58-4.23-39.64 7.492-57.618 11.79-18.084 30.472-30 50.33-40.673 20.026-10.693 41.423-19.982 61.02-16.93s37.563 18.412 49.525 37.147c12.06 18.804 18.112 41 13.476 59.977-4.74 18.906-20.332 34.645-36.344 43.145s-32.6 9.955-47.612 9.627-28.757-2.324-47.124-6.932c-18.47-4.7-41.676-12.062-50.762-27.743z" fill="#edf4f9"/></g><path d="M18.963 127.943c-10.045-17.076-4.632-43.447 8.21-63.153C40.107 44.972 60.58 31.894 82.343 20.2 104.298 8.48 127.757-1.7 149.232 1.646S190.41 21.83 203.52 42.363c13.233 20.6 19.85 44.923 14.77 65.723-5.19 20.725-22.286 37.96-39.84 47.3s-35.712 10.933-52.188 10.566-31.523-2.55-51.66-7.607c-20.24-5.13-45.68-13.214-55.64-30.402z" stroke="#0c519b" stroke-width=".5" stroke-linecap="round" stroke-dasharray="5"/><path d="M159.97 139.903L87.06 128.37c-2.01-.322-3.382-2.22-3.07-4.243l15.23-97.558c.153-.973.683-1.844 1.474-2.423s1.778-.818 2.744-.664l72.923 11.538c.966.154 1.832.687 2.407 1.484a3.73 3.73 0 0 1 .66 2.763l-15.245 97.558c-.327 2.018-2.208 3.393-4.214 3.08z" fill="#2c6da8" fill-rule="nonzero"/><path d="M150.552 141.198l-73.684 1.644a3.65 3.65 0 0 1-2.621-1.027 3.71 3.71 0 0 1-1.127-2.598L70.922 40.44c-.025-.983.34-1.936 1.015-2.646s1.602-1.12 2.577-1.137l73.684-1.643a3.64 3.64 0 0 1 2.624 1.024c.704.68 1.1 1.616 1.127 2.6l2.194 98.77c.043 2.046-1.564 3.742-3.592 3.79h0z" stroke="#2c6da8" stroke-linecap="round" stroke-dasharray="12"/><g fill-rule="nonzero"><path d="M156.34 146.985l-73.684 1.647a3.65 3.65 0 0 1-2.621-1.027 3.71 3.71 0 0 1-1.127-2.598L76.712 46.23a3.71 3.71 0 0 1 1.016-2.645c.674-.7 1.602-1.12 2.576-1.138l73.684-1.643a3.64 3.64 0 0 1 2.624 1.024c.704.68 1.1 1.616 1.127 2.6l2.194 98.768c.045 2.047-1.563 3.743-3.592 3.79z" fill="#fff"/><g fill="#2c6da8"><path d="M197.936 127.713c6.7-6.072 7.264-16.37 1.267-23.004s-16.297-7.086-22.994-1.014-7.267 16.373-1.267 23.004 16.294 7.09 22.994 1.014z"/><path d="M207.588 143.167l-18.56-20.687a3.41 3.41 0 0 1 .237-4.792l.018-.024a3.38 3.38 0 0 1 4.774.238l18.56 20.696c1.246 1.39 1.14 3.53-.237 4.792l-.02.027a3.37 3.37 0 0 1-4.771-.25z"/></g><path d="M195.64 124.414c5.062-4.593 5.494-12.377.965-17.384s-12.3-5.35-17.372-.757-5.497 12.373-.968 17.38 12.3 5.35 17.375.76z" fill="#fff"/><g fill="#20bb83"><circle cx="105.658" cy="85.671" r="2.171"/><circle cx="129.539" cy="85.671" r="2.171"/><path d="M123.88 96.526c-.326 0-.59-.277-.59-.618.047-2.16-1.027-4.177-2.808-5.272s-3.988-1.094-5.768 0-2.855 3.112-2.808 5.272c0 .34-.265.618-.59.618s-.59-.277-.59-.618c-.052-2.605 1.247-5.035 3.395-6.354s4.81-1.318 6.957 0 3.447 3.75 3.395 6.354c0 .34-.265.618-.59.618z"/></g><ellipse fill="#e55a28" cx="35.822" cy="112.447" rx="19.901" ry="3.618"/><ellipse fill="#a03e20" cx="35.822" cy="112.447" rx="15.559" ry="2.895"/><path d="M15.197 114.618s2.935 9.6 4.675 16.35a8.1 8.1 0 0 0 7.846 6.083h15.35a8.11 8.11 0 0 0 7.776-5.828l4.88-16.606s-20.124 6.126-40.526 0z" fill="#e55a28"/><path d="M35.354 90.37l2.588 9.445c2 8.01 1.018 12.886-.333 13.328-1.23.4-3.745-3.793-6.44-10.327-1.26-3.055-3.54-6.402-4.757-10.25-1.257-3.954-1.307-7.93-2.05-11.22-1.53-6.758.974-16.98 2.187-17.375S28 73.196 30.574 79.294c1.357 3.216 3.453 6.905 4.78 11.077z" fill="#239e6f"/><path d="M40.32 82.78c.22 4.367.217 9.72.196 13.518-.064 11.388-2.725 17.493-4.473 17.595-1.586.078-3.303-6.43-4.515-16.114-.57-4.524-2.253-9.82-2.535-15.38-.29-5.73.863-11.026.983-15.683.242-9.552 6.35-22.216 7.916-22.294s-1.1 12.803.113 21.86c.637 4.78 2.008 10.462 2.314 16.5z" fill="#20bb83"/><path d="M44.657 92.772l-2.242 9.526c-2.044 7.987-4.912 11.825-6.107 11.586-1.084-.218-1.1-5.08-.217-12.097.412-3.278.208-7.282.993-11.24.8-4.068 2.522-7.597 3.416-10.842 1.842-6.653 8.186-14.516 9.255-14.292s-2.983 8.803-3.762 15.37c-.41 3.472-.485 7.697-1.336 11.99z" fill="#36ce94"/><g opacity=".43"><path d="M15.317 114.857s2.912 9.47 4.638 16.13a8.03 8.03 0 0 0 7.784 6h15.23a8.04 8.04 0 0 0 7.715-5.749l4.842-16.38s-19.966 6.042-40.208 0z" fill="#e55a28"/><path d="M15.296 114.893s2.91 9.47 4.635 16.13c.918 3.534 4.12 6.002 7.784 6h15.232c3.566.001 6.706-2.34 7.712-5.75l4.845-16.38s-19.97 6.048-40.208 0z" fill="#e89074"/></g></g></svg>