<?xml version="1.0" encoding="utf-8"?>
<!-- Generator: Adobe Illustrator 24.2.0, SVG Export Plug-In . SVG Version: 6.00 Build 0)  -->
<svg version="1.1" id="Layer_1" xmlns="http://www.w3.org/2000/svg" xmlns:xlink="http://www.w3.org/1999/xlink" x="0px" y="0px"
	 viewBox="0 0 24 24" style="enable-background:new 0 0 24 24;" xml:space="preserve">
<g id="Page-1">
	<g id="My-groups" transform="translate(-1163.000000, -157.000000)">
		<g id="Create-Group_CTA" transform="translate(1147.000000, 153.000000)">
			<g id="Group-2" transform="translate(16.000000, 4.000000)">
				<g id="Group-4-Copy">
					<path id="Combined-Shape" d="M12.3,16.3c2.8,0,5,2.1,5,4.7v0.6H6.7V21c0-2.6,2.2-4.7,5-4.7H12.3z M4.4,17.7
						c0.8,0,1.6,0.2,2.2,0.6c-0.7,0.9-1.1,1.9-1.1,3v0.3H0v-0.5c0-1.9,1.7-3.5,3.9-3.5H4.4z M20.1,17.7c2.2,0,3.9,1.6,3.9,3.5v0.5
						h-5.6v-0.3c0-1.1-0.4-2.2-1.1-3c0.6-0.4,1.4-0.6,2.2-0.6H20.1z M4.7,12.3c1.1,0,2,0.9,2,2s-0.9,2-2,2s-2-0.9-2-2
						S3.6,12.3,4.7,12.3z M19.3,12.3c1.1,0,2,0.9,2,2s-0.9,2-2,2c-1.1,0-2-0.9-2-2S18.2,12.3,19.3,12.3z M12,9.7
						c1.5,0,2.7,1.2,2.7,2.7S13.5,15,12,15s-2.7-1.2-2.7-2.7S10.5,9.7,12,9.7z M7.3,2.3l0,3.3h3.3V7H7.3l0,3.3H6L6,7H2.7V5.7H6
						l0-3.3H7.3z"/>
				</g>
			</g>
		</g>
	</g>
</g>
</svg>
