<svg xmlns="http://www.w3.org/2000/svg" width="72" height="63" fill="none" fill-rule="evenodd" xmlns:v="https://vecta.io/nano"><ellipse opacity=".375" cx="35" cy="59.663" rx="25" ry="2.723" fill="#bcd1e9" fill-rule="nonzero"/><g stroke="#a2bedd" stroke-width=".5"><path d="M69.12 22.152c-.456-.936-.705-1.955-.705-3.01 0-1.263.355-2.47 1-3.546l1.068-.775c.37-.27.565-.72.506-1.172s-.355-.838-.78-1L39.992.55c-1.024-.41-2.506-.218-3.386.424L3.098 25.345c-.103.074-.187.164-.26.262l-.004-.002C1.634 27.196 1 29.086 1 31.067s.634 3.87 1.834 5.462l.21.28 30.544 12.22a3.41 3.41 0 0 0 1.248.226c.766 0 1.556-.226 2.138-.647l33.508-24.37c.562-.41.685-1.194.275-1.753-.38-.527-1.087-.65-1.638-.33zM37.734 8.784l18.83 7.533-6.906 5.02-18.83-7.533 6.906-5.02zm14.52 25.608L35.5 46.573a1.33 1.33 0 0 1-.979.122L4.644 34.745a6.51 6.51 0 0 1-1.132-3.678c0-1.118.288-2.19.823-3.16l29.254 11.705c.368.147.798.226 1.244.226.794 0 1.575-.236 2.143-.646l29.86-21.718a8.64 8.64 0 0 0-.178 1.668c0 1.424.342 2.802 1.002 4.045L52.252 34.393z" fill="#e6f2ff"/><path d="M17.02 35.978l-8.634-3.452a.62.62 0 0 0-.86.583v13.81a.62.62 0 0 0 .323.546c.196.11.44.107.635-.012l3.813-2.36 3.978 5.637a.62.62 0 0 0 .513.268c.064 0 .128-.01.2-.03a.63.63 0 0 0 .438-.599v-13.81c0-.257-.156-.488-.394-.583z" fill="#b0cdec"/></g></svg>