<?xml version="1.0" encoding="UTF-8"?>
<svg width="221px" height="167px" viewBox="0 0 221 167" version="1.1" xmlns="http://www.w3.org/2000/svg" xmlns:xlink="http://www.w3.org/1999/xlink">
    <title>E1EEE911-6BDC-44FE-9914-C11C7992A8FB</title>
    <g id="Page-1" stroke="none" stroke-width="1" fill="none" fill-rule="evenodd">
        <g id="Search-member_no-results" transform="translate(-1076.000000, -476.000000)">
            <g id="empty" transform="translate(1076.000000, 477.000000)">
                <path d="M59.8268472,68.6911828 C59.7883319,68.7149662 59.7435605,68.7264798 59.6984157,68.7242109 L59.1607955,68.7242109 C57.927256,68.7452288 56.6459279,68.757239 55.2779833,68.7452288 C55.0767379,68.740254 54.917608,68.5722178 54.9225566,68.3699094 C54.9275053,68.167601 55.0946586,68.0076306 55.295904,68.0126054 C56.6429411,68.0126054 57.9242692,68.0126054 59.1578088,67.9915875 L59.6924421,67.9915875 C59.8899783,67.9986509 60.0507097,68.153768 60.0657895,68.3518941 C60.0536526,68.5003329 59.962085,68.6303554 59.8268472,68.6911828 Z M51.0158502,68.4629886 C50.9653781,68.4860141 50.909208,68.4933339 50.8545641,68.4840065 C49.3796759,68.3362949 47.9160039,68.0915625 46.4729598,67.751383 C46.2795173,67.6986509 46.1647539,67.4987664 46.2160969,67.3040023 C46.239864,67.2119296 46.2994614,67.1333315 46.3814781,67.0858945 C46.4634947,67.0384576 46.561041,67.0261667 46.6521665,67.0517877 C48.0635883,67.3790545 49.4940942,67.6167259 50.9352071,67.7633933 C51.1319297,67.7839563 51.2764172,67.9585236 51.260766,68.156728 C51.2437277,68.2973389 51.148795,68.4160497 51.0158502,68.4629886 L51.0158502,68.4629886 Z M42.5154781,66.334177 C42.4258103,66.3672495 42.3273755,66.3672495 42.2377077,66.334177 C40.8694374,65.7362514 39.5679248,64.9944964 38.3548955,64.1212938 C38.1950908,64.0037524 38.1591315,63.7788238 38.2742524,63.6168645 C38.3294242,63.5383322 38.4137502,63.4854653 38.5081764,63.4702095 C38.6026026,63.4549537 38.6991601,63.4785965 38.7760312,63.5357955 C39.9501766,64.3785009 41.206025,65.0997754 42.5244385,65.6886276 C42.7032162,65.7692423 42.7833752,65.9800995 42.7036452,66.1600288 C42.6700704,66.2435048 42.6010024,66.3074271 42.5154781,66.334177 Z M35.4397995,61.2028101 C35.2966915,61.2505925 35.1390069,61.2121286 35.0335976,61.1037258 C34.0320402,59.986212 33.1565648,58.7607184 32.4231531,57.4496161 C32.3564027,57.3359573 32.3568148,57.194705 32.4242271,57.0814416 C32.4916394,56.9681783 32.6152608,56.9010348 32.7464466,56.9064319 C32.8776324,56.911829 32.9953829,56.9889027 33.0533633,57.1073248 C33.7632475,58.3680626 34.6053383,59.548788 35.5652442,60.6293221 C35.6958965,60.7779062 35.6825475,61.0046959 35.5353764,61.1367539 C35.5136434,61.1719821 35.4795261,61.1977052 35.4397995,61.2088152 L35.4397995,61.2028101 Z M35.9744329,55.9663538 C35.2137522,56.2648043 34.4333084,56.509605 33.638772,56.6989773 C33.4417618,56.7439168 33.2456225,56.6205146 33.1997155,56.4227422 C33.1757389,56.3270048 33.1918901,56.2255707 33.2443953,56.1421403 C33.2969005,56.0587098 33.3811598,56.0005922 33.4774859,55.9813666 C34.2395468,55.8011562 34.9880817,55.567383 35.7175699,55.2817712 C36.3246244,55.0430322 36.9153049,54.7641867 37.4857429,54.4470609 C37.6605954,54.3525398 37.8785633,54.41841 37.9725878,54.5941861 C38.0666123,54.7699622 38.0010882,54.9890815 37.8262356,55.0836026 C37.2285094,55.4193598 36.6099715,55.7162216 35.9744329,55.9723589 L35.9744329,55.9663538 Z M29.3228768,57.2214219 C29.2900222,57.2364347 29.2422338,57.2364347 29.2093792,57.25445 C27.7322474,57.2973778 26.2539015,57.2653097 24.7799865,57.1583683 C24.5780795,57.1439439 24.4258192,56.968054 24.4394937,56.7650335 C24.4456271,56.667804 24.4900365,56.577036 24.5629015,56.5128015 C24.6357664,56.4485671 24.7310835,56.4161584 24.8277749,56.4227422 C26.2806415,56.5317923 27.7381639,56.564865 29.1944453,56.5218265 C29.2913195,56.518593 29.3854255,56.554614 29.4556278,56.6217996 C29.5258301,56.6889852 29.5662439,56.7817035 29.5677927,56.8791306 C29.5652426,57.0348376 29.4680422,57.1730669 29.3228768,57.227427 L29.3228768,57.2214219 Z M41.1833748,52.3452722 C41.0626007,52.398315 40.9218748,52.372161 40.8279482,52.279216 C40.6762992,52.153513 40.6536479,51.9284818 40.7771729,51.7747868 C41.2582915,51.1952587 41.6674987,50.5590488 41.9957786,49.8801744 C42.2809224,49.2867374 42.4819936,48.6560818 42.5931344,48.00658 C42.6285997,47.8084172 42.8171487,47.6766768 43.0142702,47.7123295 C43.2113916,47.7479823 43.3424398,47.9375271 43.3069745,48.1356898 C43.180219,48.8536409 42.9561137,49.5507237 42.6409228,50.2074529 C42.2859729,50.9376647 41.844727,51.6221841 41.3267402,52.2461879 C41.2874445,52.2916358 41.2384337,52.3275617 41.1833748,52.3512774 L41.1833748,52.3452722 Z M31.222468,53.5462943 C31.2045474,53.5462943 31.1896135,53.5643097 31.1716928,53.5643097 C31.0793621,53.5887973 30.9811135,53.5749067 30.8990832,53.5257674 C30.817053,53.4766282 30.7581419,53.3963742 30.7356231,53.3030874 C30.3376968,51.8375257 30.2001872,50.3128645 30.3294212,48.7992545 C30.3468042,48.6011246 30.5206022,48.454632 30.7177024,48.471976 C30.913976,48.4910153 31.0588396,48.664701 31.0432613,48.8623082 C30.9339267,50.2933657 31.0651906,51.7327145 31.4315425,53.1199315 C31.4748556,53.2927477 31.3859824,53.471433 31.222468,53.5402892 L31.222468,53.5462943 Z M20.5447344,56.8100718 C20.493885,56.8320198 20.4374419,56.8372736 20.3834483,56.8250846 L18.8392837,56.7260003 C17.8327393,56.6749569 16.906838,56.6599441 16.0137911,56.6599441 C15.8125458,56.6640897 15.6460611,56.5034471 15.6419372,56.3011387 C15.6378133,56.0988304 15.7976119,55.9314663 15.9988572,55.9273206 C16.8948908,55.9093053 17.8476732,55.9423334 18.8721383,55.9903743 L20.42825,56.0894586 C20.6273941,56.1069501 20.7774975,56.2790249 20.7687428,56.4797908 C20.758588,56.6208976 20.6727114,56.7452132 20.5447344,56.8040667 L20.5447344,56.8100718 Z M0.488515704,63.2025119 C0.375279611,63.2537085 0.24286476,63.2350258 0.148022938,63.154471 C-0.0117817304,63.0369296 -0.0477410233,62.812001 0.0673799146,62.6500417 C0.96447,61.4310675 2.04229403,60.3576766 3.26323307,59.4673332 C3.42605865,59.3519274 3.65089713,59.3893755 3.76799866,59.5514048 C3.8831196,59.713364 3.84716031,59.9382926 3.68735564,60.055834 C2.52474414,60.8955669 1.50071509,61.9138595 0.65278853,63.073402 C0.612794555,63.1312936 0.555126632,63.1745095 0.488515704,63.1965068 L0.488515704,63.2025119 Z M11.751658,56.9722098 C11.7255312,56.9843661 11.6967255,56.9895371 11.6680282,56.9872226 C10.242196,57.1992997 8.84127655,57.5554033 7.48653809,58.0501271 C7.29795417,58.1146652 7.09184052,58.0215553 7.01462706,57.8369457 C6.95190391,57.652251 7.04553812,57.4507358 7.22668834,57.3805573 C8.63155105,56.8756755 10.0820167,56.5096353 11.5575174,56.2876272 C11.6511541,56.2721454 11.7470449,56.2952768 11.8234969,56.3517884 C11.899949,56.4083001 11.9505018,56.4934167 11.9637193,56.5878828 C11.9874556,56.6663566 11.9782242,56.7511762 11.93817,56.8226339 C11.8981157,56.8940915 11.8307258,56.9459661 11.751658,56.9662047 L11.751658,56.9722098 Z M42.5961211,44.0852428 C42.4171713,44.1554279 42.21527,44.0686325 42.1421308,43.8900768 C41.7015001,42.832348 40.8863135,41.9764812 39.8542583,41.4880326 C39.644017,41.3896404 39.4262834,41.308312 39.2031406,41.2448256 C39.010143,41.1859572 38.9011591,40.980953 38.9597182,40.786936 C39.0182773,40.5929189 39.2222043,40.4833593 39.4152019,40.5422277 C39.6726891,40.6102048 39.922817,40.7037439 40.1618965,40.8214653 C41.3518313,41.388297 42.2934565,42.3744266 42.8081824,43.5928238 C42.8519487,43.6874271 42.853868,43.7962266 42.8134661,43.8923305 C42.7730642,43.9884344 42.694111,44.062875 42.5961211,44.0972531 L42.5961211,44.0852428 Z M32.0975942,44.9679941 C31.9905712,45.0060652 31.8722121,44.9939465 31.7750221,44.934966 C31.6899337,44.886641 31.627941,44.8057339 31.6031806,44.7106947 C31.5784201,44.6156555 31.593003,44.5145871 31.6436038,44.4305367 C32.4315641,43.10575 33.5428833,42.0050963 34.8723115,41.2328154 C34.9824689,41.1645165 35.1208495,41.161811 35.2335652,41.2257525 C35.346281,41.289694 35.4155131,41.4101742 35.4143169,41.5402759 C35.4130894,41.6703775 35.3416252,41.7895333 35.2277382,41.8513418 C34.0058604,42.560504 32.9840497,43.5711775 32.2588802,44.7878408 C32.2365115,44.868816 32.176343,44.9337828 32.0975942,44.961989 L32.0975942,44.9679941 Z" id="Shape" fill="#0C519B" fill-rule="nonzero"></path>
                <path d="M27.9137401,123.769529 C18.7524231,108.19047 23.6835884,84.1301805 35.4052604,66.1520238 C47.1961312,48.0683792 65.8767937,36.1422156 85.7338355,25.4788931 C105.759361,14.7854313 127.156828,5.49646583 146.755127,8.54958783 C166.353425,11.6027098 184.318031,26.961752 196.280394,45.6964078 C208.339034,64.5003842 214.392423,86.6860022 209.756105,105.673829 C205.017493,124.58028 189.423698,140.319078 173.411701,148.818391 C157.399705,157.317704 140.822083,158.773438 125.79993,158.444918 C110.777777,158.116398 97.0433234,156.12117 78.6755597,151.512854 C60.2055022,146.823162 36.999841,139.451063 27.9137401,123.769529 Z" id="Path" fill="#EDF4F9" fill-rule="nonzero"></path>
                <path d="M18.9633168,126.943462 C8.91791893,109.867194 14.3316064,83.4965913 27.1740762,63.7901921 C40.1067741,43.9723211 60.5795357,30.8939724 82.3425594,19.2014888 C104.29807,7.47887769 127.757382,-2.7012053 149.231676,0.645960191 C170.70597,3.99312569 190.408785,20.8313867 203.518931,41.3632794 C216.75239,61.9735037 223.369119,86.286398 218.289275,107.086425 C213.098151,127.811134 196.002928,145.047078 178.450551,154.386604 C160.898173,163.72613 142.738259,165.319874 126.262603,164.952319 C109.786947,164.584763 94.7399038,162.403532 74.6039939,157.345125 C54.3628179,152.214411 28.9245018,144.131202 18.9633168,126.943462 Z" id="Path" stroke="#0C519B" stroke-width="0.5" stroke-linecap="round" stroke-dasharray="5"></path>
                <path d="M159.969426,138.903343 L87.0610501,127.368726 C85.0516654,127.047184 83.679155,125.14973 83.9917286,123.125484 L99.2214382,25.5671269 C99.3740123,24.5945993 99.9040694,23.7229414 100.694985,23.1439368 C101.485901,22.5649323 102.472878,22.3260181 103.438758,22.4797607 L176.36212,34.017396 C177.32802,34.1710171 178.193737,34.7047116 178.768795,35.5010552 C179.343853,36.2973987 179.581139,37.2911479 179.428444,38.2636562 L164.183748,135.822013 C163.857014,137.839645 161.976047,139.214927 159.969426,138.903343 Z" id="Path" fill="#2C6DA8" fill-rule="nonzero"></path>
                <path d="M150.551574,140.198437 L76.8675033,141.842105 C75.8933801,141.864524 74.950166,141.495349 74.2467066,140.815268 C73.5432473,140.135187 73.1375833,139.20031 73.1195364,138.217639 L70.9222459,39.4404203 C70.8973549,38.4571154 71.2627316,37.5044863 71.9372318,36.7940961 C72.611732,36.083706 73.5395189,35.6743628 74.5145465,35.6569748 L148.198618,34.0143615 C149.17348,33.989255 150.11793,34.357796 150.82222,35.0381377 C151.526511,35.7184794 151.932339,36.6543013 151.949578,37.6377731 L154.143875,136.408953 C154.187356,138.45519 152.580154,140.150612 150.551574,140.198437 L150.551574,140.198437 Z" id="Path" stroke="#2C6DA8" stroke-linecap="round" stroke-dasharray="12"></path>
                <path d="M156.340982,145.984891 L82.6569028,147.631579 C81.6827795,147.653998 80.7395652,147.284823 80.0361058,146.604742 C79.3326464,145.92466 78.9269823,144.989784 78.9089355,144.007113 L76.7116448,45.229894 C76.6875629,44.2468182 77.0532079,43.2946552 77.7275371,42.5844453 C78.4018662,41.8742354 79.32918,41.464642 80.3039457,41.4464484 L153.988025,39.8038352 C154.962887,39.7787287 155.907337,40.1472696 156.611628,40.8276114 C157.315918,41.5079531 157.721747,42.443775 157.738986,43.4272468 L159.933283,142.195407 C159.978429,144.242296 158.370282,145.938715 156.340982,145.984891 Z" id="Path" fill="#FFFFFF" fill-rule="nonzero"></path>
                <path d="M197.935807,126.713069 C204.635202,120.641177 205.19996,110.342888 199.202776,103.708672 C193.205592,97.0744567 182.905497,96.6228036 176.20909,102.694696 C169.512684,108.766589 168.94195,119.067869 174.942122,125.699093 C180.942293,132.330318 191.236413,132.787953 197.935807,126.713069 Z" id="Path" fill="#2C6DA8" fill-rule="nonzero"></path>
                <path d="M207.588361,142.166848 L189.028549,121.479754 C187.780836,120.089334 187.886727,117.947651 189.265457,116.688203 L189.28345,116.664109 C190.668954,115.410724 192.802464,115.517048 194.057601,116.90203 L212.617414,137.59816 C213.863454,138.989177 213.757631,141.129502 212.380505,142.389711 L212.359514,142.416816 C211.694001,143.019474 210.817248,143.331749 209.922353,143.284864 C209.027458,143.237979 208.187819,142.83578 207.588361,142.166848 Z" id="Path" fill="#2C6DA8" fill-rule="nonzero"></path>
                <path d="M195.638657,123.413863 C200.700522,118.821106 201.132928,111.037337 196.603254,106.029809 C192.07358,101.022281 184.293306,100.680171 179.231441,105.272928 C174.169576,109.865685 173.734146,117.646426 178.26382,122.653954 C182.793494,127.661482 190.573768,128.003592 195.638657,123.413863 Z" id="Path" fill="#FFFFFF" fill-rule="nonzero"></path>
                <circle id="Oval" fill="#20BB83" fill-rule="nonzero" cx="105.657895" cy="84.6710526" r="2.17105263"></circle>
                <circle id="Oval" fill="#20BB83" fill-rule="nonzero" cx="129.539474" cy="84.6710526" r="2.17105263"></circle>
                <path d="M123.881312,95.5263158 C123.554973,95.5263158 123.290423,95.2495219 123.290423,94.9080792 C123.337459,92.7481593 122.263025,90.7309128 120.48265,89.636496 C118.702275,88.5420792 116.495094,88.5420792 114.714719,89.636496 C112.934344,90.7309128 111.859909,92.7481593 111.906946,94.9080792 C111.906946,95.2495219 111.642396,95.5263158 111.316057,95.5263158 C110.989718,95.5263158 110.725168,95.2495219 110.725168,94.9080792 C110.673549,92.303213 111.972227,89.8727684 114.120127,88.5544947 C116.268027,87.2362211 118.929341,87.2362211 121.077241,88.5544947 C123.225142,89.8727684 124.52382,92.303213 124.472201,94.9080792 C124.472201,95.2495219 124.207651,95.5263158 123.881312,95.5263158 Z" id="Path" fill="#20BB83" fill-rule="nonzero"></path>
                <ellipse id="Oval" fill="#E55A28" fill-rule="nonzero" cx="35.8223684" cy="111.447368" rx="19.9013158" ry="3.61842105"></ellipse>
                <ellipse id="Oval" fill="#A03E20" fill-rule="nonzero" cx="35.8223684" cy="111.447368" rx="15.5592105" ry="2.89473684"></ellipse>
                <path d="M15.1973684,113.618421 C15.1973684,113.618421 18.1323039,123.219219 19.8720853,129.969495 C20.7968331,133.553323 24.0242689,136.055717 27.7177428,136.052632 L43.067153,136.052632 C46.6619265,136.052866 49.8274509,133.680206 50.8432193,130.224223 L55.7236842,113.618421 C55.7236842,113.618421 35.5997088,119.744009 15.1973684,113.618421 Z" id="Path" fill="#E55A28" fill-rule="nonzero"></path>
                <path d="M35.3543125,89.3713238 C36.3163374,92.3902348 37.2754113,96.147434 37.9423365,98.8166296 C39.9431121,106.827205 38.9604302,111.702298 37.6088739,112.144673 C36.3783083,112.545202 33.8640593,108.351606 31.1697995,101.817606 C29.909724,98.7628272 27.6286037,95.4151239 26.4127932,91.5682541 C25.1556687,87.6137795 25.1055017,83.6383818 24.3618506,80.3474699 C22.8332344,73.5892938 25.3356794,63.3668425 26.548539,62.9722918 C27.7613986,62.577741 28.0004293,72.1964101 30.5736982,78.2940126 C31.9311566,81.510199 34.0263641,85.1986507 35.3543125,89.3713238 Z" id="Path" fill="#239E6F" fill-rule="nonzero"></path>
                <path d="M40.3209667,81.7813978 C40.5413795,86.1485072 40.5383182,91.5018353 40.5168892,95.2989283 C40.4526021,106.687191 37.7923414,112.791493 36.044345,112.894036 C34.4585969,112.972451 32.7412134,106.46401 31.5289427,96.7797644 C30.9595429,92.2558251 29.2758335,86.9598003 28.9941949,81.3983709 C28.7033724,75.6680479 29.8574786,70.372023 29.9768689,65.7153816 C30.2187108,56.1638378 36.3259836,43.4998239 37.893364,43.4210526 C39.4607443,43.342994 36.8035448,56.224157 38.0066317,65.2810834 C38.6433799,70.0613792 40.0148377,75.7434469 40.3209667,81.7813978 Z" id="Path" fill="#20BB83" fill-rule="nonzero"></path>
                <path d="M44.6574577,91.7723865 C44.0404619,94.8782268 43.0954051,98.6342673 42.4152049,101.298576 C40.3715946,109.285455 37.5033169,113.123148 36.3084521,112.884238 C35.2249474,112.666496 35.2098987,107.803603 36.0917511,100.787489 C36.5040848,97.5092697 36.2994228,93.5052458 37.0849637,89.5465847 C37.8945825,85.4790528 39.6071219,81.9498263 40.5010133,78.7048734 C42.3429712,72.0516615 48.6874932,64.1887747 49.7559492,64.4125645 C50.8244052,64.6363544 46.7733015,73.2159736 45.9937801,79.7814841 C45.5844561,83.253251 45.5092127,87.4780406 44.6574577,91.7723865 Z" id="Path" fill="#36CE94" fill-rule="nonzero"></path>
                <g id="Group" opacity="0.43" transform="translate(15.197368, 113.618421)" fill-rule="nonzero">
                    <g id="Path">
                        <path d="M0.120077973,0.239298246 C0.120077973,0.239298246 3.03196881,9.70952632 4.75808967,16.368 C5.67557644,19.9030882 8.87767089,22.3714495 12.5421442,22.3684063 L27.7710331,22.3684063 C31.337581,22.3686379 34.4782502,20.0282457 35.4860429,16.6192632 L40.3281871,0.239298246 C40.3281871,0.239298246 20.3622222,6.28157895 0.120077973,0.239298246 Z" fill="#E55A28"></path>
                        <path d="M0.0990643275,0.275192982 C0.0990643275,0.275192982 3.00795322,9.74542105 4.73407407,16.4038947 C5.65249678,19.9383682 8.85401735,22.4062871 12.5181287,22.4042994 L27.7500195,22.4042994 C31.3161187,22.4051914 34.4562728,20.0642723 35.4620273,16.6551579 L40.3071735,0.275192982 C40.3071735,0.275192982 20.3382066,6.32345614 0.0990643275,0.275192982 Z" fill="#E89074"></path>
                    </g>
                </g>
            </g>
        </g>
    </g>
</svg>