<?xml version="1.0" encoding="UTF-8"?>
<svg width="122px" height="123px" viewBox="0 0 122 123" version="1.1" xmlns="http://www.w3.org/2000/svg" xmlns:xlink="http://www.w3.org/1999/xlink">
    <!-- Generator: sketchtool 53.1 (72631) - https://sketchapp.com -->
    <title>02B6E653-EB8C-4D78-97BD-A0DDC4623F5B</title>
    <desc>Created with sketchtool.</desc>
    <defs>
        <polygon id="path-1" points="0 0.8746 18.2162 0.8746 18.2162 26.8386 0 26.8386"></polygon>
        <polygon id="path-3" points="0.0155049937 0.945 15.8879 0.945 15.8879 8.7487 0.0155049937 8.7487"></polygon>
        <polygon id="path-5" points="0.0157 0.266 28.208 0.266 28.208 13.843 0.0157 13.843"></polygon>
    </defs>
    <g id="Portal-Onboarding" stroke="none" stroke-width="1" fill="none" fill-rule="evenodd">
        <g id="Portal-Onboarding-Language-Copy" transform="translate(-839.000000, -279.000000)">
            <g id="Group-7" transform="translate(216.000000, 96.000000)">
                <g id="Group-2">
                    <g id="Group-11" transform="translate(558.000000, 169.000000)">
                        <g id="Group" transform="translate(65.000000, 14.000000)">
                            <circle id="Oval" fill="#E5EDF5" cx="61" cy="61" r="61"></circle>
                            <g id="Group-318" transform="translate(7.000000, 40.000000)">
                                <path d="M68.0925,47.3952 L73.5735,76.4622 C73.5735,76.4622 64.9745,81.9532 51.2665,81.8342 C37.5575,81.7152 37.3025,74.2652 37.3025,74.2652 L39.8855,50.7492 L68.0925,47.3952 Z" id="Fill-1" fill="#2E353A"></path>
                                <path d="M43.9295,15.9118 C43.9295,15.9118 44.0755,26.1668 44.7185,26.7168 C45.3605,27.2658 54.9375,36.6488 59.6405,30.8568 C64.3435,25.0658 61.4265,16.5968 61.4265,16.5968 L43.9295,15.9118 Z" id="Fill-3" fill="#A56825"></path>
                                <path d="M44.8591,18.8727 C44.8591,18.8727 44.9411,24.5167 47.8801,25.6527 C47.8801,25.6527 46.4571,27.5967 46.8261,28.4757 C47.1901,29.3547 51.1751,31.0777 52.0981,30.6377 C53.0191,30.1977 54.6721,25.0307 54.6721,25.0307 L50.2941,18.6167 L44.8591,18.8727 Z" id="Fill-5" fill="#030000"></path>
                                <path d="M55.8445,23.7233 L53.1565,23.7233 L50.4675,23.7233 C50.6015,30.8333 47.3395,32.2993 47.3395,32.2993 C49.4075,35.8913 53.1565,35.6713 53.1565,35.6713 C53.1565,35.6713 56.9045,35.8913 58.9725,32.2993 C58.9725,32.2993 55.7115,30.8333 55.8445,23.7233" id="Fill-7" fill="#BB715A"></path>
                                <path d="M56.9548,29.9509 C56.4308,28.8749 55.9828,27.3429 55.8688,25.1889 L53.1168,25.1889 L50.4438,25.1889 C50.3758,26.4829 50.1878,27.5549 49.9338,28.4349 C51.1948,29.1829 53.8918,30.4589 56.9548,29.9509" id="Fill-9" fill="#A35D4B"></path>
                                <path d="M46.0652,16.6491 C46.0652,16.6491 44.9642,14.9011 43.8552,15.5051 C43.2332,15.8441 44.1132,20.5611 46.2862,20.1961 C46.2862,20.1961 46.6632,20.0451 46.6432,19.2781 L46.0652,16.6491 Z" id="Fill-11" fill="#D0846A"></path>
                                <path d="M44.4002,16.072 C44.4002,16.072 43.8922,17.928 44.7612,18.306 C44.7612,18.306 45.2192,18.419 45.2062,18.618 C45.1912,18.816 45.4732,20.121 45.9522,19.67 C45.9522,19.67 46.3032,19.046 45.8032,18.852 C45.3032,18.659 45.6472,18.628 46.0022,18.126 C46.0022,18.126 45.1422,15.892 44.4002,16.072" id="Fill-13" fill="#A5644F"></path>
                                <path d="M44.28,17.4235 C44.206,17.0915 44.15,16.7535 44.187,16.3985 C44.2,16.3095 44.216,16.2175 44.267,16.1215 C44.296,16.0245 44.467,15.9215 44.582,15.9575 C44.674,15.9675 44.801,16.0395 44.864,16.0835 C44.939,16.1385 45.009,16.1965 45.07,16.2595 C45.328,16.5045 45.537,16.7805 45.726,17.0735 C45.824,17.2205 45.898,17.3795 45.967,17.5445 C46.031,17.7125 46.099,17.8825 46.079,18.1105 L46.075,18.1535 L46.042,18.1895 C45.921,18.3145 45.804,18.4625 45.725,18.6015 C45.706,18.6335 45.691,18.6705 45.686,18.6935 C45.677,18.7255 45.685,18.7095 45.678,18.7185 C45.696,18.7275 45.692,18.7285 45.774,18.7465 L45.909,18.7905 C45.958,18.8185 46.014,18.8725 46.058,18.9185 C46.095,18.9675 46.106,19.0225 46.128,19.0735 C46.149,19.1805 46.149,19.2875 46.12,19.3845 C46.103,19.4845 46.05,19.5755 45.993,19.6535 C45.937,19.7385 45.847,19.7855 45.763,19.8255 C45.924,19.7195 45.995,19.5375 46.009,19.3665 C46.02,19.2805 45.998,19.1955 45.973,19.1225 C45.941,19.0415 45.9,19.0095 45.856,18.9745 L45.717,18.9445 C45.709,18.9445 45.61,18.9415 45.547,18.8955 C45.47,18.8435 45.436,18.7315 45.451,18.6685 C45.456,18.5985 45.475,18.5455 45.496,18.4945 C45.583,18.2955 45.708,18.1495 45.837,17.9955 L45.8,18.0735 C45.804,17.8265 45.622,17.5035 45.464,17.2355 C45.297,16.9545 45.104,16.6825 44.881,16.4515 C44.827,16.3935 44.765,16.3425 44.708,16.2925 C44.635,16.2405 44.62,16.2105 44.545,16.1885 C44.497,16.1745 44.484,16.1725 44.443,16.2285 C44.408,16.2785 44.38,16.3545 44.362,16.4305 C44.293,16.7425 44.282,17.0855 44.28,17.4235" id="Fill-15" fill="#975238"></path>
                                <path d="M44.6619,17.8337 C44.6619,17.8337 44.5659,17.4857 44.6019,17.1087 C44.6139,16.9197 44.6959,16.7297 44.7949,16.5957 C44.9199,16.4867 45.0229,16.4237 45.0229,16.4237 L45.1279,16.7187 C45.1279,16.7187 45.0759,16.7447 44.9799,16.7837 C44.9039,16.8527 44.8049,16.9747 44.7549,17.1417 C44.6479,17.4667 44.6619,17.8337 44.6619,17.8337" id="Fill-17" fill="#975238"></path>
                                <path d="M60.2195,16.6491 C60.2195,16.6491 61.3205,14.9011 62.4295,15.5051 C63.0515,15.8441 62.1705,20.5611 59.9995,20.1961 C59.9995,20.1961 59.6185,20.0451 59.6415,19.2781 L60.2195,16.6491 Z" id="Fill-19" fill="#D0846A"></path>
                                <path d="M61.8845,16.072 C61.8845,16.072 62.3915,17.928 61.5225,18.306 C61.5225,18.306 61.0655,18.419 61.0795,18.618 C61.0945,18.816 60.8115,20.121 60.3335,19.67 C60.3335,19.67 59.9815,19.046 60.4815,18.852 C60.9805,18.659 60.6375,18.628 60.2805,18.126 C60.2805,18.126 61.1425,15.892 61.8845,16.072" id="Fill-21" fill="#A5644F"></path>
                                <path d="M62.0056,17.4235 C62.0026,17.0855 61.9916,16.7425 61.9216,16.4305 C61.9036,16.3545 61.8776,16.2785 61.8426,16.2285 C61.8016,16.1725 61.7876,16.1745 61.7386,16.1885 C61.6636,16.2105 61.6496,16.2405 61.5756,16.2925 C61.5176,16.3425 61.4586,16.3935 61.4036,16.4515 C61.1816,16.6825 60.9866,16.9545 60.8206,17.2355 C60.6616,17.5035 60.4796,17.8265 60.4846,18.0735 L60.4476,17.9955 C60.5766,18.1505 60.7016,18.2955 60.7886,18.4945 C60.8086,18.5455 60.8296,18.5985 60.8336,18.6695 C60.8476,18.7315 60.8136,18.8445 60.7376,18.8965 C60.6736,18.9425 60.5736,18.9445 60.5656,18.9455 L60.4296,18.9745 C60.3846,19.0105 60.3446,19.0415 60.3106,19.1225 C60.2866,19.1955 60.2646,19.2805 60.2766,19.3675 C60.2876,19.5375 60.3606,19.7195 60.5216,19.8255 C60.4376,19.7855 60.3466,19.7385 60.2906,19.6545 C60.2346,19.5765 60.1816,19.4855 60.1636,19.3855 C60.1346,19.2875 60.1346,19.1805 60.1566,19.0745 C60.1796,19.0235 60.1906,18.9685 60.2266,18.9185 C60.2706,18.8725 60.3266,18.8185 60.3756,18.7905 L60.5096,18.7465 C60.5926,18.7285 60.5896,18.7275 60.6056,18.7185 C60.5996,18.7095 60.6076,18.7255 60.5976,18.6935 C60.5936,18.6705 60.5786,18.6345 60.5596,18.6015 C60.4796,18.4625 60.3626,18.3145 60.2426,18.1895 L60.2096,18.1535 L60.2056,18.1105 C60.1866,17.8825 60.2536,17.7125 60.3186,17.5445 C60.3856,17.3795 60.4626,17.2205 60.5586,17.0735 C60.7466,16.7805 60.9566,16.5045 61.2136,16.2595 C61.2766,16.1965 61.3446,16.1385 61.4206,16.0835 C61.4826,16.0395 61.6106,15.9675 61.7026,15.9575 C61.8186,15.9215 61.9876,16.0245 62.0186,16.1215 C62.0676,16.2175 62.0856,16.3095 62.0966,16.3985 C62.1346,16.7535 62.0786,17.0915 62.0056,17.4235" id="Fill-23" fill="#975238"></path>
                                <path d="M61.6238,17.8337 C61.6238,17.8337 61.6388,17.4667 61.5298,17.1417 C61.4818,16.9747 61.3808,16.8527 61.3058,16.7837 C61.2088,16.7447 61.1578,16.7187 61.1578,16.7187 L61.2608,16.4237 C61.2608,16.4237 61.3638,16.4867 61.4888,16.5947 C61.5908,16.7287 61.6708,16.9187 61.6828,17.1087 C61.7198,17.4857 61.6238,17.8337 61.6238,17.8337" id="Fill-25" fill="#975238"></path>
                                <path d="M52.5496,27.154 C52.5496,27.154 49.1496,25.35 47.9866,23.347 C47.0296,21.942 45.5576,15.5 45.4356,14.386 C45.4316,14.35 45.4266,14.313 45.4226,14.276 C45.4196,14.24 45.4166,14.222 45.4166,14.222 L45.4196,14.222 C45.3996,13.993 45.3866,13.759 45.3866,13.525 C45.3866,9.234 48.8646,5.756 53.1556,5.756 C57.4476,5.756 60.9256,9.234 60.9256,13.525 C60.9256,13.804 60.9106,14.08 60.8806,14.35 L60.8826,14.35 C60.8826,14.35 59.3736,21.807 58.3256,23.347 C57.0966,25.644 53.7646,27.154 53.7646,27.154 C53.7646,27.154 53.2936,27.502 52.5496,27.154" id="Fill-27" fill="#D0846A"></path>
                                <path d="M46.072,16.3903 C46.072,16.3903 46.776,16.1153 48.929,12.2543 C51.046,8.4613 53.288,9.4943 53.288,9.4943 C53.288,9.4943 55.648,8.0023 60.023,15.9483 C61.133,17.9603 59.604,8.8633 59.604,8.8633 L52.4,8.3213 L46.438,9.0973 C46.438,9.0973 45.07,15.4673 46.072,16.3903" id="Fill-29" fill="#A35D4B"></path>
                                <path d="M51.28,16.9948 C51.28,16.9948 51.399,16.9008 51.345,16.6898 C51.29,16.4798 49.375,14.8778 48.098,16.8318 C48.098,16.8318 49.91,18.5998 51.28,16.9948" id="Fill-31" fill="#F0F0ED"></path>
                                <path d="M50.7263,16.7272 C50.7263,17.1782 50.3593,17.5432 49.9103,17.5432 C49.4583,17.5432 49.0943,17.1782 49.0943,16.7272 C49.0943,16.2762 49.4583,15.9122 49.9103,15.9122 C50.3593,15.9122 50.7263,16.2762 50.7263,16.7272" id="Fill-33" fill="#2C1117"></path>
                                <path d="M50.2937,16.7272 C50.2937,16.9392 50.1217,17.1112 49.9097,17.1112 C49.6967,17.1112 49.5267,16.9392 49.5267,16.7272 C49.5267,16.5152 49.6967,16.3432 49.9097,16.3432 C50.1217,16.3432 50.2937,16.5152 50.2937,16.7272" id="Fill-35" fill="#040000"></path>
                                <path d="M48.7654,17.3181 C48.5214,17.1861 48.2814,17.0501 48.0484,16.9011 L47.9754,16.8541 L48.0284,16.7851 C48.1314,16.6411 48.2094,16.4761 48.3384,16.3461 C48.4544,16.2051 48.5994,16.0921 48.7554,15.9901 C48.8294,15.9331 48.9224,15.9061 49.0044,15.8621 C49.0884,15.8171 49.1804,15.7991 49.2724,15.7751 C49.4524,15.7231 49.6484,15.7251 49.8284,15.7471 C50.1984,15.7911 50.5454,15.9221 50.8404,16.1291 C50.9884,16.2321 51.1304,16.3391 51.2494,16.4741 C51.3014,16.5381 51.3844,16.6191 51.3884,16.7231 C51.3904,16.8221 51.3584,16.9041 51.3274,16.9851 C51.3294,16.8991 51.3314,16.8091 51.3144,16.7351 C51.2934,16.6661 51.2274,16.6251 51.1604,16.5711 C51.0284,16.4691 50.8854,16.3801 50.7364,16.3041 C50.4364,16.1621 50.1244,16.0441 49.8044,16.0221 C49.6454,16.0061 49.4864,16.0261 49.3334,16.0551 C49.2584,16.0741 49.1774,16.0831 49.1074,16.1201 C49.0364,16.1541 48.9574,16.1721 48.8924,16.2181 C48.7514,16.2981 48.6254,16.3981 48.5084,16.5121 C48.3784,16.6131 48.2864,16.7561 48.1704,16.8781 L48.1484,16.7621 C48.3614,16.9371 48.5654,17.1261 48.7654,17.3181" id="Fill-37" fill="#030000"></path>
                                <path d="M49.7507,16.4479 C49.7507,16.5559 49.6647,16.6429 49.5587,16.6429 C49.4497,16.6429 49.3637,16.5559 49.3637,16.4479 C49.3637,16.3419 49.4497,16.2549 49.5587,16.2549 C49.6647,16.2549 49.7507,16.3419 49.7507,16.4479" id="Fill-39" fill="#F0F0ED"></path>
                                <path d="M48.2761,16.7272 C48.2761,16.7272 48.0091,17.2482 47.4691,16.8372 C47.4691,16.8372 47.8421,16.9532 48.2941,16.3942 L48.2761,16.7272 Z" id="Fill-41" fill="#030000"></path>
                                <path d="M47.5818,16.3259 C47.5818,16.3259 47.8018,16.4369 48.0328,16.4149 C48.2668,16.4049 48.4498,16.2719 48.4498,16.2719 L48.5238,16.3989 C48.5218,16.3979 48.2838,16.5189 48.0318,16.4869 C47.7798,16.4719 47.5818,16.3259 47.5818,16.3259" id="Fill-43" fill="#030000"></path>
                                <path d="M47.9646,15.9987 C47.9646,15.9957 48.0056,16.0327 48.0826,16.0557 C48.1516,16.0917 48.2526,16.1057 48.3566,16.1077 C48.4556,16.1337 48.5526,16.0737 48.6226,16.0637 C48.6936,16.0447 48.7396,16.0317 48.7396,16.0317 L48.7906,16.1697 C48.7906,16.1697 48.7346,16.1757 48.6486,16.1847 C48.5656,16.1837 48.4546,16.2257 48.3486,16.1817 C48.2376,16.1587 48.1376,16.1247 48.0706,16.0747 C47.9986,16.0387 47.9656,15.9967 47.9646,15.9987" id="Fill-45" fill="#030000"></path>
                                <path d="M51.8953,14.446 C51.8953,14.446 51.5483,14.805 50.1823,14.26 C48.6753,13.661 47.3093,14.058 47.1753,14.21 C47.1753,14.21 49.3103,12.577 51.8953,14.446" id="Fill-47" fill="#030000"></path>
                                <path d="M54.9236,16.9948 C54.9236,16.9948 54.8046,16.9008 54.8596,16.6898 C54.9126,16.4798 56.8286,14.8778 58.1066,16.8318 C58.1066,16.8318 56.2936,18.5998 54.9236,16.9948" id="Fill-49" fill="#F0F0ED"></path>
                                <path d="M55.4783,16.7272 C55.4783,17.1782 55.8443,17.5432 56.2933,17.5432 C56.7473,17.5432 57.1103,17.1782 57.1103,16.7272 C57.1103,16.2762 56.7473,15.9122 56.2933,15.9122 C55.8443,15.9122 55.4783,16.2762 55.4783,16.7272" id="Fill-51" fill="#2C1117"></path>
                                <path d="M55.9119,16.7272 C55.9119,16.9392 56.0829,17.1112 56.2939,17.1112 C56.5069,17.1112 56.6779,16.9392 56.6779,16.7272 C56.6779,16.5152 56.5069,16.3432 56.2939,16.3432 C56.0829,16.3432 55.9119,16.5152 55.9119,16.7272" id="Fill-53" fill="#040000"></path>
                                <path d="M57.4382,17.3181 C57.6402,17.1261 57.8442,16.9371 58.0582,16.7621 L58.0352,16.8781 C57.9192,16.7561 57.8272,16.6131 57.6972,16.5121 C57.5772,16.3981 57.4522,16.2981 57.3112,16.2181 C57.2482,16.1721 57.1672,16.1541 57.0962,16.1201 C57.0262,16.0831 56.9472,16.0741 56.8712,16.0551 C56.7182,16.0261 56.5602,16.0061 56.4002,16.0221 C56.0802,16.0441 55.7692,16.1621 55.4672,16.3031 C55.3192,16.3801 55.1742,16.4691 55.0442,16.5701 C54.9772,16.6251 54.9122,16.6651 54.8922,16.7351 C54.8732,16.8091 54.8742,16.8991 54.8782,16.9851 C54.8452,16.9041 54.8142,16.8221 54.8162,16.7231 C54.8192,16.6191 54.9012,16.5381 54.9542,16.4741 C55.0732,16.3381 55.2162,16.2311 55.3642,16.1291 C55.6582,15.9221 56.0062,15.7911 56.3752,15.7471 C56.5582,15.7251 56.7512,15.7241 56.9322,15.7751 C57.0242,15.8001 57.1182,15.8171 57.2002,15.8621 C57.2832,15.9061 57.3742,15.9331 57.4482,15.9901 C57.6042,16.0921 57.7502,16.2051 57.8662,16.3461 C57.9942,16.4761 58.0752,16.6411 58.1782,16.7851 L58.2282,16.8541 L58.1542,16.9011 C57.9222,17.0501 57.6822,17.1861 57.4382,17.3181" id="Fill-55" fill="#030000"></path>
                                <path d="M56.4519,16.4479 C56.4519,16.5559 56.5399,16.6429 56.6469,16.6429 C56.7539,16.6429 56.8409,16.5559 56.8409,16.4479 C56.8409,16.3419 56.7539,16.2549 56.6469,16.2549 C56.5399,16.2549 56.4519,16.3419 56.4519,16.4479" id="Fill-57" fill="#F0F0ED"></path>
                                <path d="M57.9295,16.7272 C57.9295,16.7272 58.1945,17.2482 58.7355,16.8372 C58.7355,16.8372 58.3625,16.9532 57.9095,16.3942 L57.9295,16.7272 Z" id="Fill-59" fill="#030000"></path>
                                <path d="M58.6228,16.3259 C58.6228,16.3259 58.4248,16.4719 58.1718,16.4869 C57.9208,16.5189 57.6818,16.3979 57.6818,16.3989 L57.7548,16.2719 C57.7548,16.2719 57.9368,16.4049 58.1718,16.4149 C58.4018,16.4369 58.6228,16.3259 58.6228,16.3259" id="Fill-61" fill="#030000"></path>
                                <path d="M58.242,15.9987 C58.24,15.9967 58.206,16.0387 58.135,16.0747 C58.067,16.1247 57.967,16.1587 57.858,16.1817 C57.751,16.2257 57.64,16.1837 57.555,16.1847 C57.471,16.1757 57.415,16.1697 57.415,16.1697 L57.465,16.0317 C57.465,16.0317 57.512,16.0447 57.582,16.0637 C57.652,16.0737 57.749,16.1337 57.848,16.1077 C57.95,16.1057 58.053,16.0917 58.123,16.0557 C58.199,16.0327 58.24,15.9957 58.242,15.9987" id="Fill-63" fill="#030000"></path>
                                <path d="M54.3093,14.446 C54.3093,14.446 54.6583,14.805 56.0213,14.26 C57.5293,13.661 58.8953,14.058 59.0303,14.21 C59.0303,14.21 56.8943,12.577 54.3093,14.446" id="Fill-65" fill="#030000"></path>
                                <path d="M53.0242,21.2175 C53.0242,21.2175 52.1322,20.8355 52.1002,21.0925 C52.0662,21.3495 52.5942,21.4705 53.0242,21.2175" id="Fill-67" fill="#975238"></path>
                                <path d="M53.2879,21.2175 C53.2879,21.2175 54.1799,20.8355 54.2129,21.0925 C54.2469,21.3495 53.7189,21.4705 53.2879,21.2175" id="Fill-69" fill="#975238"></path>
                                <path d="M50.9021,22.7253 C50.9021,22.7253 52.3881,21.8653 53.1571,22.1433 C53.1571,22.1433 53.8931,21.8753 55.4121,22.7253 C55.4121,22.7253 54.8791,24.1183 53.2791,24.1193 C51.5031,24.1193 50.9021,22.7253 50.9021,22.7253" id="Fill-71" fill="#EE3A52"></path>
                                <path d="M55.407,22.7321 C55.41,22.7291 55.412,22.7251 55.412,22.7251 C55.384,22.7111 55.361,22.7001 55.335,22.6861 C54.247,22.3901 53.157,22.3891 53.157,22.3891 C52.852,22.3141 51.571,22.5561 51.005,22.6701 C50.939,22.7051 50.902,22.7251 50.902,22.7251 C50.902,22.7251 50.903,22.7291 50.906,22.7321 L55.407,22.7321 Z" id="Fill-73" fill="#B52744"></path>
                                <path d="M51.0281,22.8024 C51.0281,22.8024 51.8461,23.7384 53.2201,23.6884 C54.5701,23.6414 55.2861,22.9464 55.4121,22.7254 L51.0281,22.8024 Z" id="Fill-75" fill="#B52744"></path>
                                <path d="M53.157,22.6345 C52.586,22.5605 50.902,22.7255 50.902,22.7255 C52.057,23.4585 53.157,23.3855 53.157,23.3855 C53.157,23.3855 54.255,23.4585 55.412,22.7255 C55.412,22.7255 53.727,22.5605 53.157,22.6345" id="Fill-77" fill="#55010E"></path>
                                <path d="M51.8562,23.1765 C52.5962,23.4215 53.1572,23.3855 53.1572,23.3855 C53.1572,23.3855 53.7092,23.4205 54.4402,23.1815 C53.2252,22.6605 52.2582,22.9835 51.8562,23.1765" id="Fill-79" fill="#F06362"></path>
                                <path d="M54.6355,23.4724 C54.6355,23.4724 53.5895,23.7364 53.7585,23.8844 C53.9255,24.0344 54.8605,23.4974 54.6355,23.4724" id="Fill-81" fill="#F27F93"></path>
                                <path d="M53.6228,23.9118 C53.6228,23.9118 53.6488,23.6898 52.9318,23.8428 C52.2138,23.9928 53.7658,24.1508 53.6228,23.9118" id="Fill-83" fill="#F27F93"></path>
                                <path d="M46.4382,20.1091 C46.4382,20.4281 46.1792,20.6871 45.8592,20.6871 C45.5402,20.6871 45.2822,20.4281 45.2822,20.1091 C45.2822,19.7901 45.5402,19.5331 45.8592,19.5331 C46.1792,19.5331 46.4382,19.7901 46.4382,20.1091" id="Fill-85" fill="#EA882D"></path>
                                <path d="M46.2019,20.1091 C46.2019,20.2981 46.0499,20.4531 45.8589,20.4531 C45.6699,20.4531 45.5149,20.2981 45.5149,20.1091 C45.5149,19.9201 45.6699,19.7651 45.8589,19.7651 C46.0499,19.7651 46.2019,19.9201 46.2019,20.1091" id="Fill-87" fill="#B06226"></path>
                                <path d="M60.9744,20.1091 C60.9744,20.4281 60.7174,20.6871 60.3984,20.6871 C60.0784,20.6871 59.8194,20.4281 59.8194,20.1091 C59.8194,19.7901 60.0784,19.5331 60.3984,19.5331 C60.7174,19.5331 60.9744,19.7901 60.9744,20.1091" id="Fill-89" fill="#EA882D"></path>
                                <path d="M60.74,20.1091 C60.74,20.2981 60.588,20.4531 60.398,20.4531 C60.208,20.4531 60.053,20.2981 60.053,20.1091 C60.053,19.9201 60.208,19.7651 60.398,19.7651 C60.588,19.7651 60.74,19.9201 60.74,20.1091" id="Fill-91" fill="#B06226"></path>
                                <path d="M45.282,15.8727 C45.282,15.8727 45.936,17.2027 46.643,15.1817 C47.247,13.4657 50.902,6.7077 53.156,8.9797 L53.156,4.5577 C53.156,4.5577 52.865,3.0677 51.345,3.2637 C49.679,3.4767 43.43,4.6317 44.955,15.5517 L45.282,15.8727 Z" id="Fill-93" fill="#030000"></path>
                                <path d="M61.03,15.8727 C61.03,15.8727 60.377,17.2027 59.667,15.1817 C59.067,13.4657 55.41,6.7087 53.156,8.9797 L53.156,4.5577 C53.156,4.5577 53.447,3.0677 54.968,3.2637 C56.633,3.4767 62.759,4.7777 61.357,15.5517 L61.03,15.8727 Z" id="Fill-95" fill="#030000"></path>
                                <path d="M53.156,8.9802 L53.156,4.5572 C53.156,4.5572 53.135,4.4502 53.076,4.2962 C53.052,4.4592 53.024,4.5712 53.024,4.5712 C50.961,3.7272 49.558,5.0832 49.558,5.0832 C52.164,4.4592 52.739,6.1832 52.739,6.1832 C51.31,5.8162 50.138,6.7692 50.138,6.7692 C52.119,6.3832 53.024,7.7952 53.024,7.7952 C50.59,6.5872 47.88,11.4612 47.88,11.4612 C48.079,10.3972 49.364,8.3212 49.364,8.3212 C47.927,9.6892 46.438,13.1102 46.438,13.1102 C47.279,8.7112 49.094,6.2192 49.094,6.2192 C45.522,9.2612 45.515,14.6732 45.515,14.6732 C44.848,10.9102 45.917,7.5332 46.746,5.6242 C45.274,7.3442 44.225,10.3332 44.955,15.5512 L45.282,15.8732 C45.282,15.8732 45.936,17.2032 46.643,15.1812 C47.247,13.4652 50.902,6.7082 53.156,8.9802" id="Fill-97" fill="#000000"></path>
                                <path d="M61.5476,13.3513 C61.3556,12.3363 60.9746,11.4733 60.9746,11.4733 C61.2666,12.5963 61.1226,14.4293 61.1226,14.4293 C60.6056,11.1813 58.5076,8.5403 58.5076,8.5403 C59.5086,9.9833 60.7066,14.6733 60.3846,14.6733 C60.0626,14.6733 57.6276,9.8853 56.8406,8.6553 C56.0576,7.4253 53.7386,7.9553 53.7386,7.9553 C54.5916,6.6353 56.1356,7.0763 56.1356,7.0763 C54.7436,6.1473 53.5706,6.6113 53.5706,6.6113 C54.4286,5.2903 56.9926,6.6113 56.9926,6.6113 C55.3546,4.9243 53.5706,5.3163 53.5706,5.3163 C54.5226,4.4753 56.2936,5.3163 56.2936,5.3163 C55.2156,4.3543 53.5586,4.6813 53.1556,4.7793 L53.1556,8.9803 C55.4096,6.7083 59.0676,13.4653 59.6666,15.1813 C60.3766,17.2033 61.0296,15.8723 61.0296,15.8723 L61.3576,15.5513 C61.4596,14.7693 61.5216,14.0373 61.5476,13.3513" id="Fill-99" fill="#000000"></path>
                                <path d="M51.3543,22.6862 L51.3543,22.6862 C51.3543,22.6862 53.2843,23.4372 54.8433,22.6772 C54.3013,22.6342 53.5133,22.5882 53.1573,22.6342 C52.7743,22.5842 51.8943,22.6432 51.3543,22.6862" id="Fill-101" fill="#FFFFFF"></path>
                                <path d="M58.242,29.6999 C56.17,31.1789 53.96,31.1499 53.96,31.1499 C44.862,30.4379 43.607,17.4559 45.706,11.3169 C47.775,5.2559 53.142,6.0339 53.142,6.0339 C66.03,7.4009 58.242,29.6999 58.242,29.6999 M66.88,33.3709 C66.88,33.3709 66.245,32.0609 65.609,31.8169 C64.974,31.5729 64.104,31.0709 63.406,30.4839 C63.406,30.4839 62.78,26.9489 62.264,26.1669 C62.264,26.1669 65.93,10.4159 60.926,4.8609 C57.36,0.9039 52.562,2.2209 52.562,2.2209 C52.562,2.2209 45.824,1.2449 43.661,10.6269 C41.498,20.0099 43.661,26.9389 43.661,26.9389 C43.661,26.9389 42.466,28.2029 41.928,30.7079 C41.928,30.7079 40.953,31.0369 39.878,32.1609 C38.803,33.2839 37.315,34.0179 36.972,34.1649 C36.972,34.1649 35.752,34.7949 34.578,35.6739 C33.406,36.5539 33.064,40.4209 33.064,43.5969 C33.064,46.7719 32.137,57.2789 31.501,58.7459 C31.501,58.7459 32.673,59.9189 34.578,60.2109 C34.578,60.2109 33.991,62.6539 34.334,63.0459 C34.677,63.4369 46.922,63.6959 53.739,58.7119 C53.739,58.7119 55.914,60.9109 56.061,60.9599 C56.208,61.0089 59.726,60.7639 61.826,58.8579 C61.826,58.8579 63.391,59.8359 63.929,59.7379 C64.466,59.6399 66.469,55.7799 67.594,55.3399 C67.594,55.3399 68.765,56.2679 69.351,56.1709 C69.939,56.0729 73.555,51.1369 73.8,48.9879 C73.8,48.9879 73.301,39.6869 72.273,37.4879 C71.248,35.2879 68.737,34.7979 66.88,33.3709 Z" id="Fill-103" fill="#FDE37B"></path>
                                <path d="M73.7996,48.988 C73.7996,48.988 73.3006,39.687 72.2736,37.488 C72.1486,37.219 72.0016,36.975 71.8346,36.754 C58.1536,58.676 42.2696,60.15 34.4226,60.946 C34.2776,61.698 34.1136,62.795 34.3336,63.046 C34.6766,63.437 46.9216,63.696 53.7386,58.712 C53.7386,58.712 55.9136,60.911 56.0616,60.96 C56.2076,61.009 59.7266,60.764 61.8256,58.858 C61.8256,58.858 61.8646,58.883 61.9346,58.924 C65.6926,56.427 69.3666,53.971 72.7016,51.722 C73.2786,50.691 73.7216,49.69 73.7996,48.988" id="Fill-105" fill="#E2C863"></path>
                                <path d="M15.6189,22.7263 C15.6909,21.7393 14.8099,20.3753 13.9929,19.5923 C13.1769,18.8093 12.6709,17.7473 13.0969,16.1673 C13.4259,14.9473 14.1989,15.0383 14.5049,14.3213 C14.7309,13.7893 14.6369,13.1833 14.6829,12.6083 C14.8439,10.6313 17.0179,9.0813 18.9379,9.5763 C19.4789,7.6963 21.2319,6.2283 23.1779,6.0263 C25.1229,5.8233 27.1399,6.8993 28.0569,8.6263 C29.1669,8.0493 30.5659,8.0703 31.6599,8.6783 C32.7539,9.2873 33.5079,10.4653 33.6019,11.7123 C34.6839,10.9313 36.3459,11.2323 37.2019,12.2563 C38.0579,13.2813 38.1109,14.8493 37.4609,16.0153 C36.8099,17.1813 35.5499,17.9403 34.2299,18.1433 C32.9099,18.3453 31.5459,18.0343 30.3509,17.4383 C29.1559,16.8423 28.1159,15.9753 27.1689,15.0343" id="Fill-107" fill="#090000"></path>
                                <path d="M22.992,46.3786 L22.992,46.3786 C26.161,46.3836 28.774,43.9226 28.931,40.7866 C29.061,38.1746 29.184,35.5916 29.184,35.5916 C29.184,35.5916 32.592,34.0016 33.994,31.1496 C34.657,29.8026 34.613,26.0286 34.82,23.9116 C35.27,19.3176 34.976,14.8596 34.976,14.8596 C29.627,12.0516 23.163,12.3326 18.083,15.5946 L17.622,15.8906 L17.061,40.4266 C17.025,43.6986 19.69,46.3736 22.992,46.3786" id="Fill-109" fill="#FFBE9D"></path>
                                <path d="M29.5974,27.1237 C29.6014,27.0837 29.9954,27.0937 30.6284,27.1417 C30.7924,27.1577 30.9244,27.1517 30.9514,27.0837 C30.9974,27.0097 30.9664,26.8557 30.9184,26.6827 C30.8334,26.3177 30.7464,25.9477 30.6564,25.5617 C30.3034,23.9687 30.0944,22.6677 30.1914,22.6567 C30.2874,22.6457 30.6524,23.9297 31.0054,25.5227 C31.0864,25.9107 31.1634,26.2807 31.2414,26.6467 C31.2664,26.8117 31.3394,27.0117 31.2084,27.2137 C31.1414,27.3137 30.9974,27.3687 30.8864,27.3717 C30.7744,27.3777 30.6834,27.3597 30.6064,27.3487 C29.9784,27.2467 29.5924,27.1637 29.5974,27.1237" id="Fill-111" fill="#A5644F"></path>
                                <path d="M29.1843,35.5915 C29.1843,35.5915 26.1373,35.5915 23.0843,33.3285 C23.0843,33.3285 24.2813,36.8635 29.0943,36.8215 L29.1843,35.5915 Z" id="Fill-113" fill="#EB996E"></path>
                                <path d="M17.5056,22.8542 C17.5106,22.4702 17.2146,22.1402 16.8276,22.1222 C15.9336,22.0802 14.4636,22.4032 14.2776,24.8472 C14.0146,28.3382 17.4236,27.5332 17.4376,27.4332 C17.4476,27.3552 17.4876,24.2122 17.5056,22.8542" id="Fill-115" fill="#FFBE9D"></path>
                                <path d="M16.6863,26.0446 C16.6713,26.0316 16.6223,26.0826 16.5143,26.1216 C16.4103,26.1596 16.2343,26.1786 16.0553,26.0976 C15.6933,25.9336 15.4243,25.3246 15.4553,24.6936 C15.4693,24.3756 15.5603,24.0776 15.6923,23.8356 C15.8193,23.5886 15.9993,23.4226 16.1893,23.4036 C16.3793,23.3746 16.5033,23.4956 16.5393,23.5976 C16.5793,23.6986 16.5513,23.7666 16.5693,23.7736 C16.5793,23.7836 16.6493,23.7216 16.6323,23.5746 C16.6233,23.5046 16.5873,23.4186 16.5103,23.3456 C16.4303,23.2716 16.3093,23.2276 16.1773,23.2316 C15.9043,23.2306 15.6413,23.4596 15.4953,23.7256 C15.3343,23.9906 15.2253,24.3246 15.2083,24.6826 C15.1783,25.3876 15.4923,26.0726 15.9903,26.2566 C16.2333,26.3396 16.4453,26.2806 16.5583,26.2066 C16.6733,26.1286 16.6983,26.0516 16.6863,26.0446" id="Fill-117" fill="#EB996E"></path>
                                <path d="M27.2537,22.6706 C27.2537,22.6706 26.8707,20.5776 24.7847,21.0416 C23.4747,21.3336 23.7397,22.7906 23.7397,22.7906 L27.2537,22.6706 Z" id="Fill-119" fill="#EB996E"></path>
                                <path d="M27.1853,22.9938 C27.1853,22.9938 27.3113,22.8928 27.2533,22.6708 C27.1963,22.4468 25.1643,20.7468 23.8093,22.8208 C23.8093,22.8208 25.7303,24.6958 27.1853,22.9938" id="Fill-121" fill="#EFEFEC"></path>
                                <path d="M26.5965,22.7097 C26.5965,23.1887 26.2085,23.5747 25.7305,23.5747 C25.2535,23.5747 24.8655,23.1887 24.8655,22.7097 C24.8655,22.2317 25.2535,21.8437 25.7305,21.8437 C26.2085,21.8437 26.5965,22.2317 26.5965,22.7097" id="Fill-123" fill="#2A191D"></path>
                                <path d="M26.1384,22.7097 C26.1384,22.9347 25.9564,23.1167 25.7304,23.1167 C25.5064,23.1167 25.3244,22.9347 25.3244,22.7097 C25.3244,22.4837 25.5064,22.3027 25.7304,22.3027 C25.9564,22.3027 26.1384,22.4837 26.1384,22.7097" id="Fill-125" fill="#040000"></path>
                                <path d="M24.5164,23.3376 C24.2584,23.1966 24.0034,23.0536 23.7574,22.8946 L23.6804,22.8456 L23.7344,22.7716 C23.8434,22.6186 23.9284,22.4436 24.0644,22.3066 C24.1874,22.1556 24.3414,22.0356 24.5074,21.9276 C24.5864,21.8676 24.6824,21.8376 24.7714,21.7926 C24.8594,21.7436 24.9584,21.7266 25.0544,21.6986 C25.2464,21.6456 25.4524,21.6466 25.6464,21.6696 C26.0374,21.7156 26.4074,21.8566 26.7194,22.0746 C26.8744,22.1836 27.0264,22.2966 27.1534,22.4416 C27.2094,22.5076 27.2954,22.5946 27.3004,22.7046 C27.3004,22.8086 27.2684,22.8966 27.2344,22.9836 C27.2384,22.8916 27.2404,22.7966 27.2204,22.7186 C27.1994,22.6436 27.1284,22.6016 27.0584,22.5426 C26.9184,22.4356 26.7654,22.3406 26.6094,22.2606 C26.2894,22.1086 25.9584,21.9836 25.6194,21.9616 C25.4504,21.9436 25.2824,21.9656 25.1204,21.9976 C25.0384,22.0166 24.9554,22.0256 24.8804,22.0646 C24.8044,22.1016 24.7214,22.1196 24.6524,22.1706 C24.5034,22.2546 24.3704,22.3596 24.2454,22.4816 C24.1054,22.5886 24.0084,22.7396 23.8864,22.8696 L23.8624,22.7466 C24.0874,22.9336 24.3034,23.1326 24.5164,23.3376" id="Fill-127" fill="#000000"></path>
                                <path d="M25.5642,22.4138 C25.5642,22.5268 25.4722,22.6198 25.3572,22.6198 C25.2442,22.6198 25.1522,22.5268 25.1522,22.4138 C25.1522,22.3008 25.2442,22.2078 25.3572,22.2078 C25.4722,22.2078 25.5642,22.3008 25.5642,22.4138" id="Fill-129" fill="#EFEFEC"></path>
                                <path d="M27.8386,20.2907 C27.8386,20.2907 27.4696,20.6707 26.0206,20.0937 C24.4236,19.4557 22.9716,19.8797 22.8316,20.0377 C22.8316,20.0377 25.0966,18.3067 27.8386,20.2907" id="Fill-131" fill="#000000"></path>
                                <path d="M30.824,22.9792 C30.824,22.9792 31.207,20.8862 33.293,21.3502 C34.603,21.6422 34.337,23.0992 34.337,23.0992 L30.824,22.9792 Z" id="Fill-133" fill="#EB996E"></path>
                                <path d="M30.8923,23.3024 C30.8923,23.3024 30.7653,23.2014 30.8243,22.9794 C30.8813,22.7554 32.9133,21.0554 34.2673,23.1294 C34.2673,23.1294 32.3473,25.0044 30.8923,23.3024" id="Fill-135" fill="#EFEFEC"></path>
                                <path d="M31.4802,23.0183 C31.4802,23.4973 31.8692,23.8833 32.3472,23.8833 C32.8232,23.8833 33.2122,23.4973 33.2122,23.0183 C33.2122,22.5403 32.8232,22.1523 32.3472,22.1523 C31.8692,22.1523 31.4802,22.5403 31.4802,23.0183" id="Fill-137" fill="#2A191D"></path>
                                <path d="M31.9392,23.0183 C31.9392,23.2433 32.1212,23.4253 32.3472,23.4253 C32.5702,23.4253 32.7532,23.2433 32.7532,23.0183 C32.7532,22.7923 32.5702,22.6113 32.3472,22.6113 C32.1212,22.6113 31.9392,22.7923 31.9392,23.0183" id="Fill-139" fill="#040000"></path>
                                <path d="M33.5603,23.6462 C33.8183,23.5052 34.0743,23.3622 34.3203,23.2032 L34.3973,23.1542 L34.3433,23.0802 C34.2333,22.9272 34.1493,22.7522 34.0133,22.6152 C33.8893,22.4642 33.7353,22.3442 33.5703,22.2362 C33.4903,22.1762 33.3943,22.1472 33.3053,22.1012 C33.2183,22.0522 33.1183,22.0352 33.0223,22.0072 C32.8313,21.9542 32.6243,21.9552 32.4313,21.9782 C32.0403,22.0242 31.6693,22.1662 31.3583,22.3832 C31.2033,22.4922 31.0503,22.6052 30.9243,22.7502 C30.8683,22.8172 30.7813,22.9032 30.7773,23.0132 C30.7763,23.1172 30.8093,23.2052 30.8423,23.2922 C30.8393,23.2002 30.8363,23.1052 30.8573,23.0272 C30.8773,22.9522 30.9493,22.9102 31.0193,22.8512 C31.1593,22.7442 31.3113,22.6492 31.4683,22.5692 C31.7873,22.4172 32.1193,22.2922 32.4583,22.2702 C32.6273,22.2522 32.7953,22.2742 32.9563,22.3062 C33.0393,22.3252 33.1213,22.3342 33.1973,22.3732 C33.2723,22.4102 33.3563,22.4282 33.4253,22.4792 C33.5733,22.5632 33.7063,22.6682 33.8323,22.7902 C33.9713,22.8972 34.0693,23.0482 34.1913,23.1782 L34.2143,23.0552 C33.9903,23.2422 33.7733,23.4412 33.5603,23.6462" id="Fill-141" fill="#000000"></path>
                                <path d="M32.5134,22.7224 C32.5134,22.8354 32.6054,22.9284 32.7194,22.9284 C32.8334,22.9284 32.9244,22.8354 32.9244,22.7224 C32.9244,22.6094 32.8334,22.5164 32.7194,22.5164 C32.6054,22.5164 32.5134,22.6094 32.5134,22.7224" id="Fill-143" fill="#EFEFEC"></path>
                                <path d="M30.239,20.5993 C30.239,20.5993 30.608,20.9793 32.057,20.4023 C33.653,19.7643 35.106,20.1883 35.245,20.3463 C35.245,20.3463 32.981,18.6153 30.239,20.5993" id="Fill-145" fill="#000000"></path>
                                <path d="M35.6511,16.362 C35.6511,16.362 32.7741,17.755 29.0291,15.885 C26.5731,14.659 23.7091,14.06 23.0771,14.554 C22.4461,15.049 22.3121,17.58 19.8791,18.319 C19.8791,18.319 20.0461,23.149 18.1201,22.977 C16.1941,22.804 17.3971,15.323 17.3971,15.323 L22.1091,13.022 L27.2511,12.051 L32.0941,12.734 L35.8431,13.76 L35.6511,16.362 Z" id="Fill-147" fill="#090000"></path>
                                <path d="M3.407,44.3122 C8.441,39.1352 17.303,39.7002 17.303,39.7002 L24.648,44.9582 L28.814,40.1092 C28.814,40.1092 33.191,40.5892 37.293,42.7332 L37.576,42.8202 L37.572,42.8782 C40.794,44.6282 41.9634425,51.9584801 46.3104425,56.0304801 L44.502,57.7242 L38.745,62.8332 C38.745,62.8332 38.767,62.8712 38.755,62.9362 C38.695,63.2462 39.555,70.2752 40.436,75.6172 C35.193,80.6202 28.511,82.7622 21.092,81.4612 C18.736,81.0492 17.596,80.4752 15.416,79.9032 C12.193,79.0572 9.857,76.2632 9.568,72.9442 C9.176,68.4662 8.877,62.9222 8.877,62.9222" id="Fill-149" fill="#67AD72"></path>
                                <path d="M33.4197,41.0124 C33.4377,41.0064 33.5487,41.3004 33.7357,41.8384 C33.9247,42.3754 34.1807,43.1584 34.4827,44.1294 C35.0897,46.0724 35.8617,48.7764 36.5927,51.7944 C37.3197,54.8154 37.8677,57.5744 38.2147,59.5784 C38.3887,60.5814 38.5177,61.3954 38.5957,61.9584 C38.6737,62.5224 38.7087,62.8344 38.6907,62.8374 C38.6727,62.8404 38.6027,62.5334 38.4927,61.9764 C38.3747,61.3744 38.2177,60.5774 38.0287,59.6144 C37.6347,57.6194 37.0597,54.8714 36.3317,51.8574 C35.6037,48.8444 34.8607,46.1374 34.3027,44.1834 C34.0307,43.2394 33.8067,42.4584 33.6367,41.8694 C33.4807,41.3234 33.4017,41.0184 33.4197,41.0124" id="Fill-151" fill="#263238"></path>
                                <path d="M38.1492,59.5212 C38.1022,59.4632 40.2982,57.5972 43.0542,55.3522 C45.8102,53.1072 48.0822,51.3332 48.1282,51.3912 C48.1742,51.4482 45.9792,53.3142 43.2222,55.5592 C40.4672,57.8042 38.1962,59.5782 38.1492,59.5212" id="Fill-153" fill="#263238"></path>
                                <path d="M10.0525,51.4196 L5.5465,66.2426 L7.2235,67.1146 L8.8765,62.9226 C8.8765,62.9226 10.5755,54.1156 10.0525,51.4196" id="Fill-155" fill="#000000"></path>
                                <path d="M32.9314,41.0212 C35.3604,42.3012 29.2724,45.3832 26.5234,45.3002 L28.5194,40.0322 C28.5194,40.0322 32.1164,40.5912 32.9314,41.0212" id="Fill-157" fill="#000000" opacity="0.4"></path>
                                <path d="M16.5789,40.0319 L16.5789,36.1059 C16.5789,36.1059 24.2459,38.0799 24.5239,42.6669 C24.5239,42.6669 25.4999,37.5959 29.4499,37.3529 L30.0079,44.4859 L25.4109,48.4849 L20.7519,48.4849 L17.0609,45.3019 L16.5789,40.3479" id="Fill-159" fill="#67AD72"></path>
                                <path d="M26.2498,64.6706 C26.2308,64.6696 26.2278,64.3686 26.2358,63.8266 C26.2478,63.2836 26.2578,62.4996 26.2608,61.5296 C26.2668,59.5916 26.2058,56.9126 25.9628,53.9666 C25.7168,51.0196 25.3348,48.3666 25.0078,46.4556 C24.8448,45.5366 24.7088,44.7746 24.6048,44.1946 C24.5068,43.6616 24.4618,43.3646 24.4788,43.3596 C24.4968,43.3566 24.5778,43.6466 24.7068,44.1736 C24.8398,44.7006 25.0068,45.4686 25.1938,46.4226 C25.5688,48.3286 25.9818,50.9866 26.2288,53.9436 C26.4738,56.9006 26.5048,59.5906 26.4488,61.5326 C26.4228,62.5036 26.3838,63.2896 26.3408,63.8306 C26.2998,64.3726 26.2688,64.6716 26.2498,64.6706" id="Fill-161" fill="#263238"></path>
                                <path d="M24.1716,41.3464 C24.1686,41.3694 23.9976,41.2804 23.7166,41.3884 C23.4236,41.4834 23.1616,41.8484 22.9466,42.3684 C22.4766,43.3894 21.8946,44.8604 21.4886,46.6114 L21.4476,46.7854 L21.2936,46.6924 C20.8346,46.4154 20.3646,46.1164 19.8926,45.7954 C18.9766,45.1714 18.1386,44.5364 17.4056,43.9074 C17.0376,43.5904 16.7346,43.2064 16.5606,42.7984 C16.3876,42.3904 16.3196,41.9824 16.3016,41.6154 C16.2716,40.8754 16.3926,40.2934 16.4716,39.8984 C16.5576,39.5014 16.6226,39.2864 16.6396,39.2904 C16.6586,39.2934 16.6286,39.5164 16.5736,39.9154 C16.5266,40.3134 16.4376,40.8954 16.4896,41.6024 C16.5206,41.9534 16.5956,42.3354 16.7626,42.7074 C16.9326,43.0794 17.2086,43.4194 17.5686,43.7214 C18.2936,44.3274 19.1356,44.9574 20.0426,45.5744 C20.5116,45.8924 20.9766,46.1914 21.4296,46.4684 L21.2336,46.5504 C21.6566,44.7804 22.2776,43.3034 22.7946,42.2944 C22.9216,42.0434 23.0436,41.8104 23.1976,41.6344 C23.3476,41.4554 23.5296,41.3464 23.6876,41.3024 C24.0126,41.2114 24.1836,41.3424 24.1716,41.3464" id="Fill-163" fill="#263238"></path>
                                <path d="M29.45,37.3532 C29.469,37.3522 29.492,37.5712 29.521,37.9652 C29.554,38.4152 29.596,38.9752 29.644,39.6362 C29.702,40.3402 29.787,41.1762 29.931,42.0972 C29.987,42.5522 30.147,43.0452 30.023,43.6042 C29.864,44.1532 29.452,44.5622 29.014,44.8922 C28.4,45.3492 27.759,45.6912 27.328,46.1742 L27.123,46.4032 L27.103,46.0972 C26.997,44.4762 26.455,43.1422 25.971,42.2742 C25.483,41.4002 25.081,40.9502 25.113,40.9242 C25.124,40.9162 25.233,41.0192 25.416,41.2272 C25.596,41.4372 25.845,41.7582 26.111,42.1932 C26.643,43.0532 27.233,44.4102 27.359,46.0802 L27.136,46.0032 C27.604,45.4712 28.267,45.1182 28.853,44.6792 C29.271,44.3682 29.639,43.9822 29.769,43.5402 C29.879,43.0892 29.743,42.5992 29.687,42.1332 C29.555,41.2032 29.489,40.3582 29.456,39.6492 C29.422,38.9402 29.416,38.3662 29.418,37.9692 C29.42,37.5732 29.431,37.3532 29.45,37.3532" id="Fill-165" fill="#263238"></path>
                                <path d="M54.1277,38.3376 C53.8157,38.7046 42.5277,53.7976 42.5277,53.7976 L44.1167,54.6976 L55.6997,39.7976 L54.1277,38.3376 Z" id="Fill-167" fill="#263238"></path>
                                <path d="M10.9441,48.903 C10.9441,48.903 20.4971,70.414 20.9411,69.759 C23.2931,66.298 35.0711,59.763 40.1711,54.436 C40.3831,54.151 40.7661,52.127 41.6311,50.929 C41.6311,50.929 43.3781,45.03 44.7451,45.481 C46.1131,45.931 43.9961,48.461 44.8861,50.689 C45.7771,52.918 49.8571,47.603 50.0201,47.126 L51.0721,45.751 C51.0721,45.751 52.0351,48.879 52.1001,50.185 C52.3481,55.088 44.5021,57.724 44.5021,57.724 C44.5021,57.724 30.1241,81.369 17.9461,82.051 C14.4381,82.249 8.2061,72.297 4.0391,64.834 C1.5221,60.327 2.7781,54.65 6.9491,51.609 L10.9441,48.903 Z" id="Fill-169" fill="#FFBE9D"></path>
                                <path d="M50.1023,50.9284 C50.0633,50.9044 50.4433,50.2324 50.8633,49.3804 C51.2863,48.5294 51.5893,47.8194 51.6323,47.8354 C51.6723,47.8504 51.4333,48.5924 51.0063,49.4514 C50.5823,50.3124 50.1373,50.9514 50.1023,50.9284" id="Fill-171" fill="#EB996E"></path>
                                <g id="Group-175" transform="translate(0.000000, 41.054800)">
                                    <mask id="mask-2" fill="white">
                                        <use xlink:href="#path-1"></use>
                                    </mask>
                                    <g id="Clip-174"></g>
                                    <path d="M6.7732,0.8746 C6.7732,0.8746 -5.9718,5.4056 3.5032,26.8386 L18.2162,17.9586 L16.1242,12.9466 L6.7732,0.8746 Z" id="Fill-173" fill="#67AD72" mask="url(#mask-2)"></path>
                                </g>
                                <path d="M5.7966,42.2995 C5.7966,42.2995 6.3536,42.2075 7.3306,42.4295 C7.8146,42.5535 8.3946,42.7665 9.0026,43.1345 C9.6116,43.4995 10.2446,44.0125 10.8586,44.6575 C12.0966,45.9465 13.2506,47.7465 14.3206,49.8295 C15.4006,51.9135 16.4056,54.2875 17.4376,56.7815 C17.7466,57.5285 18.0516,58.2645 18.3396,58.9625 L18.3856,59.0725 L18.2806,59.1295 C14.0246,61.4495 10.3176,63.6235 7.6966,65.2495 C6.3866,66.0615 5.3426,66.7285 4.6256,67.1925 C4.2826,67.4115 4.0086,67.5875 3.7996,67.7225 C3.6096,67.8415 3.5086,67.9005 3.5036,67.8935 C3.4986,67.8865 3.5916,67.8135 3.7716,67.6805 C3.9526,67.5495 4.2196,67.3535 4.5716,67.1125 C5.2726,66.6225 6.3026,65.9315 7.6026,65.0995 C10.1996,63.4305 13.8966,61.2275 18.1526,58.8975 L18.0946,59.0645 C17.8056,58.3665 17.4996,57.6305 17.1906,56.8835 C16.1586,54.3905 15.1626,52.0215 14.1026,49.9435 C13.0496,47.8635 11.9226,46.0725 10.7226,44.7875 C10.1256,44.1445 9.5136,43.6315 8.9246,43.2615 C8.3356,42.8895 7.7746,42.6665 7.3046,42.5295 C6.3536,42.2815 5.7936,42.3375 5.7966,42.2995" id="Fill-176" fill="#263238"></path>
                                <path d="M33.2136,10.5241 C33.2236,10.5221 33.2436,10.5981 33.2766,10.7481 C33.3006,10.8971 33.3326,11.1221 33.3146,11.4131 C33.2856,11.9821 33.0776,12.8651 32.3416,13.6351 C31.6306,14.4071 30.2756,14.8941 28.9116,14.5021 C28.2436,14.3061 27.5686,13.8991 27.1546,13.2281 C26.9546,12.8961 26.8346,12.4831 26.8926,12.0691 C26.9476,11.6641 27.1516,11.2531 27.5236,11.0091 C27.8936,10.7581 28.3796,10.7651 28.7556,10.9301 C29.1356,11.0921 29.4496,11.4021 29.5976,11.7771 C29.8986,12.5311 29.6766,13.3451 29.2606,13.9111 C28.3766,15.0821 26.7786,15.1761 25.8946,14.6431 C25.4266,14.4281 25.0146,14.2261 24.6256,14.1561 C24.2386,14.0771 23.8966,14.1441 23.6456,14.2591 C23.1416,14.5021 22.9386,14.7701 22.9146,14.7411 C22.9076,14.7341 22.9596,14.6731 23.0656,14.5641 C23.1166,14.5081 23.1816,14.4391 23.2746,14.3761 C23.3626,14.3061 23.4656,14.2261 23.6016,14.1661 C23.8586,14.0281 24.2346,13.9381 24.6506,14.0081 C25.0696,14.0701 25.5046,14.2691 25.9696,14.4691 C26.2036,14.5641 26.4486,14.6681 26.7106,14.7141 C26.9666,14.7581 27.2546,14.7531 27.5366,14.6991 C28.1036,14.5971 28.6836,14.2871 29.0626,13.7651 C29.4336,13.2541 29.6176,12.5121 29.3566,11.8781 C29.1266,11.2581 28.2636,10.8381 27.6696,11.2331 C27.3796,11.4211 27.2026,11.7621 27.1556,12.1041 C27.1076,12.4501 27.2046,12.7971 27.3806,13.0941 C27.7416,13.6911 28.3616,14.0801 28.9816,14.2651 C30.2486,14.6431 31.5236,14.2111 32.2076,13.5031 C32.9206,12.7931 33.1516,11.9551 33.2106,11.4041 C33.2716,10.8411 33.1846,10.5271 33.2136,10.5241" id="Fill-178" fill="#455A64"></path>
                                <path d="M34.0593,12.2526 C34.0823,12.2406 34.2723,12.5816 34.3063,13.1956 C34.3443,13.7976 34.1693,14.6916 33.5443,15.4176 C32.9143,16.1406 32.0533,16.4396 31.4523,16.4866 C30.8393,16.5406 30.4753,16.4016 30.4843,16.3766 C30.4903,16.3306 30.8573,16.3986 31.4273,16.2996 C31.9893,16.2086 32.7683,15.9006 33.3423,15.2426 C33.9123,14.5816 34.1063,13.7676 34.1173,13.1976 C34.1333,12.6196 34.0143,12.2656 34.0593,12.2526" id="Fill-180" fill="#455A64"></path>
                                <path d="M16.698,55.2077 C16.73,55.2727 13.345,57.0147 9.137,59.0947 C4.928,61.1757 1.491,62.8097 1.458,62.7427 C1.426,62.6767 4.81,60.9367 9.019,58.8547 C13.226,56.7737 16.665,55.1417 16.698,55.2077" id="Fill-182" fill="#E0E0E0"></path>
                                <path d="M13.6121,49.3845 C13.6471,49.4495 10.6331,51.1355 6.8831,53.1485 C3.1301,55.1625 0.0601,56.7415 0.0261,56.6765 C-0.0089,56.6125 3.0041,54.9275 6.7571,52.9125 C10.5081,50.8995 13.5781,49.3205 13.6121,49.3845" id="Fill-184" fill="#E0E0E0"></path>
                                <path d="M10.6316,44.6765 C10.6496,44.7095 10.0696,45.0425 9.1246,45.5685 C8.1146,46.1315 6.8446,46.8405 5.4396,47.6245 C4.0396,48.4215 2.7766,49.1435 1.7726,49.7155 C0.8336,50.2515 0.2486,50.5755 0.2296,50.5435 C0.2096,50.5135 0.7606,50.1315 1.6746,49.5535 C2.5886,48.9755 3.8686,48.2025 5.3076,47.3915 C6.7456,46.5805 8.0686,45.8845 9.0356,45.4015 C10.0046,44.9175 10.6156,44.6445 10.6316,44.6765" id="Fill-186" fill="#E0E0E0"></path>
                                <path d="M21.906,43.5632 C21.899,43.5932 21.505,43.5422 20.915,43.2962 C20.325,43.0552 19.561,42.5912 18.839,41.9452 C18.115,41.2982 17.554,40.6252 17.164,40.1312 C16.776,39.6362 16.557,39.3142 16.585,39.2912 C16.614,39.2662 16.885,39.5462 17.308,40.0092 C17.733,40.4692 18.309,41.1142 19.016,41.7452 C19.722,42.3762 20.441,42.8472 20.994,43.1252 C21.546,43.4072 21.918,43.5222 21.906,43.5632" id="Fill-188" fill="#E0E0E0"></path>
                                <path d="M29.3953,40.7819 C29.4603,40.8019 29.1493,41.6359 28.3293,42.3209 C27.5143,43.0129 26.6383,43.1779 26.6303,43.1099 C26.6053,43.0329 27.3953,42.7669 28.1573,42.1169 C28.9273,41.4769 29.3243,40.7439 29.3953,40.7819" id="Fill-190" fill="#E0E0E0"></path>
                                <path d="M42.7449,48.5085 C42.7459,48.5175 42.6469,48.5355 42.4589,48.5615 C42.2409,48.5885 41.9679,48.6215 41.6329,48.6635 C40.9149,48.7425 39.8739,48.8435 38.5869,48.9435 C36.0119,49.1485 32.4489,49.3495 28.5109,49.4925 C24.5709,49.6305 21.0029,49.6845 18.4199,49.6625 C17.1289,49.6545 16.0839,49.6295 15.3609,49.6015 C15.0249,49.5835 14.7499,49.5705 14.5309,49.5585 C14.3409,49.5455 14.2409,49.5345 14.2419,49.5255 C14.2419,49.5165 14.3419,49.5095 14.5319,49.5045 C14.7519,49.5025 15.0259,49.4995 15.3629,49.4965 C16.1219,49.4905 17.1569,49.4835 18.4199,49.4735 C20.9999,49.4465 24.5639,49.3625 28.5019,49.2265 C32.4359,49.0825 35.9979,48.9105 38.5739,48.7545 C39.8339,48.6735 40.8659,48.6085 41.6239,48.5595 C41.9599,48.5385 42.2339,48.5225 42.4539,48.5085 C42.6429,48.4985 42.7439,48.4985 42.7449,48.5085" id="Fill-192" fill="#E0E0E0"></path>
                                <path d="M38.6902,54.5954 C38.6922,54.6144 38.3922,54.6604 37.8462,54.7284 C37.3012,54.7964 36.5112,54.8814 35.5342,54.9694 C33.5782,55.1504 30.8712,55.3354 27.8772,55.4574 C24.8812,55.5774 22.1682,55.6114 20.2052,55.5884 C19.2222,55.5804 18.4282,55.5594 17.8792,55.5344 C17.3312,55.5114 17.0272,55.4894 17.0282,55.4704 C17.0282,55.4524 17.3322,55.4394 17.8802,55.4314 C18.4752,55.4234 19.2572,55.4124 20.2042,55.4004 C22.1662,55.3734 24.8752,55.3104 27.8662,55.1914 C30.8562,55.0694 33.5612,54.9124 35.5192,54.7814 C36.4622,54.7174 37.2442,54.6644 37.8372,54.6244 C38.3842,54.5884 38.6882,54.5774 38.6902,54.5954" id="Fill-194" fill="#E0E0E0"></path>
                                <path d="M29.4881,62.1052 C29.4921,62.1402 28.8421,62.2362 27.7871,62.3442 C26.7311,62.4532 25.2701,62.5702 23.6541,62.6512 C22.0371,62.7312 20.5711,62.7592 19.5101,62.7562 C18.4501,62.7532 17.7951,62.7222 17.7941,62.6862 C17.7941,62.6492 18.4491,62.6132 19.5071,62.5672 C20.6411,62.5172 22.0651,62.4542 23.6401,62.3842 C25.2151,62.2972 26.6371,62.2182 27.7711,62.1562 C28.8291,62.0962 29.4851,62.0672 29.4881,62.1052" id="Fill-196" fill="#E0E0E0"></path>
                                <path d="M17.7234,44.2868 C17.7214,44.3628 16.1474,44.3808 14.2084,44.4618 C12.2704,44.5398 10.6994,44.6518 10.6914,44.5758 C10.6834,44.5058 12.2484,44.2728 14.1984,44.1938 C16.1464,44.1128 17.7264,44.2158 17.7234,44.2868" id="Fill-198" fill="#E0E0E0"></path>
                                <path d="M39.3816,44.0095 C39.3816,44.0835 37.3386,44.1355 34.8196,44.1255 C32.2996,44.1165 30.2586,44.0485 30.2586,43.9755 C30.2586,43.9015 32.3006,43.8495 34.8206,43.8595 C37.3396,43.8675 39.3816,43.9365 39.3816,44.0095" id="Fill-200" fill="#E0E0E0"></path>
                                <path d="M40.1697,75.2487 C40.1777,75.2657 40.0117,75.3597 39.7017,75.5177 C39.3947,75.6777 38.9387,75.8867 38.3667,76.1257 C37.2247,76.6057 35.6017,77.1737 33.7557,77.6007 C31.9077,78.0247 30.1997,78.2257 28.9627,78.2937 C28.3437,78.3287 27.8427,78.3397 27.4957,78.3307 C27.1487,78.3247 26.9577,78.3127 26.9577,78.2947 C26.9567,78.2517 27.7217,78.2227 28.9477,78.1047 C30.1747,77.9887 31.8637,77.7607 33.6947,77.3407 C35.5257,76.9167 37.1447,76.3827 38.2977,75.9497 C39.4517,75.5187 40.1517,75.2107 40.1697,75.2487" id="Fill-202" fill="#E0E0E0"></path>
                                <path d="M85.9304,36.2448 C85.9304,36.2448 84.3424,34.4348 84.4754,25.6538 L80.1354,25.6538 L75.9984,25.6538 C76.1314,34.4348 74.3414,36.2448 74.3414,36.2448" id="Fill-204" fill="#BB715A"></path>
                                <path d="M85.0047,33.3444 C84.5727,31.6234 84.5837,29.8594 84.4377,27.2004 L79.9937,27.4654 L75.9487,27.0834 C75.8607,28.6814 75.9927,30.3284 75.8387,31.4734" id="Fill-206" fill="#A35D4B"></path>
                                <path d="M89.1072,17.8112 C89.1072,17.8112 90.3472,15.3542 91.7762,16.0792 C92.5772,16.4852 91.8462,22.9412 89.1072,22.6292 C89.1072,22.6292 88.6232,22.4572 88.5882,21.4162 L89.1072,17.8112 Z" id="Fill-208" fill="#D0846A"></path>
                                <path d="M91.1404,16.8893 C91.1404,16.8893 91.9164,19.3603 90.8614,19.9463 C90.8614,19.9463 90.2994,20.1363 90.3314,20.4043 C90.3664,20.6693 90.1164,22.4603 89.4834,21.8873 C89.4834,21.8873 88.9944,21.0743 89.6034,20.7713 C90.2134,20.4663 89.7834,20.4533 89.2974,19.8053 C89.2974,19.8053 90.2014,16.7083 91.1404,16.8893" id="Fill-210" fill="#A5644F"></path>
                                <path d="M91.3943,18.7106 C91.3613,18.2616 91.3213,17.8076 91.2133,17.3916 C91.1883,17.2866 91.1483,17.1906 91.1043,17.1136 C91.0473,17.0376 91.0163,17.0336 90.9863,17.0496 C90.8763,17.0876 90.8763,17.1266 90.7823,17.2046 C90.7123,17.2776 90.6403,17.3546 90.5773,17.4396 C90.3103,17.7756 90.0923,18.1636 89.9063,18.5566 C89.7293,18.9356 89.5273,19.3816 89.5533,19.7226 L89.5043,19.6276 C89.6793,19.8236 89.8473,20.0136 89.9683,20.2716 C89.9963,20.3366 90.0253,20.4056 90.0343,20.4946 C90.0543,20.5726 90.0283,20.7116 89.9383,20.7946 C89.8613,20.8666 89.7223,20.8816 89.7173,20.8826 L89.5403,20.9386 C89.5203,20.9716 89.5023,20.9946 89.4703,21.0176 L89.4103,21.1556 C89.3913,21.2596 89.3683,21.3726 89.3893,21.4866 C89.3913,21.5466 89.4023,21.6026 89.4243,21.6576 C89.4473,21.7096 89.4533,21.7746 89.4903,21.8186 C89.5453,21.9276 89.6263,22.0096 89.7313,22.0846 C89.6183,22.0366 89.5003,21.9746 89.4233,21.8646 C89.3723,21.8186 89.3553,21.7556 89.3183,21.6996 C89.2843,21.6446 89.2603,21.5816 89.2473,21.5176 C89.2033,21.3916 89.1963,21.2526 89.2073,21.1126 C89.2263,21.0436 89.2463,20.9726 89.2733,20.9026 C89.3233,20.8336 89.3873,20.7626 89.4513,20.7066 L89.6233,20.6336 C89.7343,20.5986 89.7203,20.5986 89.7413,20.5866 C89.7383,20.5976 89.7353,20.5096 89.6743,20.4176 C89.5653,20.2366 89.4073,20.0436 89.2443,19.8826 L89.1993,19.8366 L89.1943,19.7866 C89.1483,19.2196 89.3573,18.8086 89.5453,18.3806 C89.7583,17.9686 89.9983,17.5746 90.3033,17.2136 C90.3773,17.1226 90.4613,17.0366 90.5543,16.9546 C90.6253,16.8886 90.8013,16.7686 90.9153,16.7536 C91.1073,16.6986 91.2923,16.8626 91.3373,16.9816 C91.3933,17.1056 91.4253,17.2256 91.4413,17.3426 C91.5073,17.8106 91.4633,18.2636 91.3943,18.7106" id="Fill-212" fill="#975238"></path>
                                <path d="M71.2888,17.8112 C71.2888,17.8112 70.0488,15.3542 68.6198,16.0792 C67.8168,16.4852 68.5498,22.9412 71.2888,22.6292 C71.2888,22.6292 71.7728,22.4572 71.8078,21.4162 L71.2888,17.8112 Z" id="Fill-214" fill="#D0846A"></path>
                                <path d="M69.2547,16.8893 C69.2547,16.8893 68.4807,19.3603 69.5347,19.9463 C69.5347,19.9463 70.0937,20.1363 70.0627,20.4043 C70.0307,20.6693 70.2797,22.4603 70.9127,21.8873 C70.9127,21.8873 71.4007,21.0743 70.7897,20.7713 C70.1817,20.4663 70.6127,20.4533 71.0987,19.8053 C71.0987,19.8053 70.1977,16.7083 69.2547,16.8893" id="Fill-216" fill="#A5644F"></path>
                                <path d="M68.9998,18.7106 C68.9318,18.2636 68.8878,17.8106 68.9528,17.3426 C68.9708,17.2256 69.0018,17.1056 69.0578,16.9816 C69.1038,16.8626 69.2888,16.6986 69.4798,16.7536 C69.5938,16.7686 69.7678,16.8896 69.8428,16.9546 C69.9338,17.0366 70.0168,17.1246 70.0928,17.2156 C70.3968,17.5746 70.6368,17.9686 70.8508,18.3806 C71.0388,18.8086 71.2478,19.2196 71.1998,19.7866 L71.1948,19.8386 L71.1488,19.8826 C70.9868,20.0436 70.8318,20.2366 70.7208,20.4176 C70.6578,20.5096 70.6558,20.5976 70.6528,20.5866 C70.6728,20.5986 70.6578,20.5986 70.7708,20.6336 L70.9428,20.7066 C71.0058,20.7606 71.0698,20.8326 71.1208,20.9016 C71.1478,20.9716 71.1658,21.0416 71.1868,21.1106 C71.1988,21.2516 71.1918,21.3906 71.1478,21.5166 C71.1348,21.5806 71.1108,21.6426 71.0768,21.6986 C71.0408,21.7556 71.0248,21.8186 70.9728,21.8646 C70.8958,21.9736 70.7788,22.0366 70.6648,22.0846 C70.7698,22.0096 70.8508,21.9276 70.9048,21.8186 C70.9428,21.7746 70.9488,21.7096 70.9718,21.6556 C70.9928,21.6026 71.0048,21.5456 71.0058,21.4856 C71.0258,21.3716 71.0038,21.2576 70.9818,21.1556 L70.9238,21.0176 C70.8908,20.9936 70.8738,20.9716 70.8538,20.9376 L70.6768,20.8826 C70.6698,20.8826 70.5298,20.8656 70.4528,20.7936 C70.3648,20.7096 70.3408,20.5716 70.3578,20.4936 C70.3698,20.4046 70.3968,20.3366 70.4278,20.2716 C70.5468,20.0136 70.7148,19.8236 70.8908,19.6266 L70.8408,19.7216 C70.8668,19.3816 70.6648,18.9356 70.4888,18.5566 C70.3038,18.1636 70.0848,17.7756 69.8178,17.4396 C69.7548,17.3546 69.6828,17.2776 69.6108,17.2056 C69.5178,17.1266 69.5178,17.0876 69.4098,17.0496 C69.3768,17.0336 69.3488,17.0366 69.2908,17.1136 C69.2448,17.1906 69.2068,17.2866 69.1808,17.3916 C69.0748,17.8076 69.0318,18.2616 68.9998,18.7106" id="Fill-218" fill="#975238"></path>
                                <path d="M79.1375,31.7067 C79.1375,31.7067 74.4335,28.5377 72.9855,26.6397 C71.6615,24.9027 70.7495,16.9477 70.6005,15.5737 C70.5955,15.5267 70.5895,15.4827 70.5855,15.4357 C70.5805,15.3937 70.5785,15.3687 70.5785,15.3687 L70.5805,15.3707 C70.5565,15.0877 70.5405,14.8007 70.5405,14.5097 C70.5405,9.2097 74.8375,4.9147 80.1355,4.9147 C85.4355,4.9147 89.7295,9.2097 89.7295,14.5097 C89.7295,14.8527 89.7095,15.1937 89.6755,15.5277 C89.6755,15.5277 88.7335,24.7367 87.2845,26.6397 C85.8365,28.5377 81.1305,31.7067 81.1305,31.7067" id="Fill-220" fill="#D0846A"></path>
                                <path d="M80.2322,25.5671 C78.5142,25.5401 77.1102,25.3901 77.1102,25.3901 C77.2942,26.2541 78.8572,26.5571 80.2322,26.5591 C81.6112,26.5571 83.1702,26.2541 83.3562,25.3901 C83.3562,25.3901 81.9522,25.5401 80.2322,25.5671" id="Fill-222" fill="#F0F0ED"></path>
                                <path d="M69.7478,16.0935 C69.7478,16.0935 70.7058,16.5995 71.0988,18.5855 C71.0988,18.5855 71.6258,17.6785 71.8078,15.7775 C71.9888,13.8735 72.3058,13.3455 73.0048,12.0105 C73.0048,12.0105 74.7048,9.2445 73.9608,6.6475 C73.4858,4.9895 70.9798,4.1835 70.0378,6.0135 C68.1858,9.6105 69.3658,15.4335 69.7478,16.0935" id="Fill-224" fill="#090000"></path>
                                <path d="M83.6306,15.6052 C83.6306,15.6052 83.0216,16.1202 82.4916,16.7332 C82.2236,17.0362 81.9936,17.3662 81.8446,17.6302 C81.7706,17.7622 81.7376,17.8832 81.7006,17.9652 C81.6676,18.0492 81.6506,18.0972 81.6506,18.0972 C81.6506,18.0972 81.6596,18.0472 81.6786,17.9602 C81.7006,17.8752 81.7146,17.7422 81.7686,17.5962 C81.8726,17.3042 82.0516,16.9262 82.2726,16.5742 C82.7016,15.8652 83.2466,15.2232 83.2466,15.2232 L83.6306,15.6052 Z" id="Fill-226" fill="#975238"></path>
                                <path d="M78.6472,14.5612 C78.6472,14.5612 78.4912,15.8032 78.0272,15.9072 C76.7312,16.2002 74.4172,14.8262 72.4872,16.3132 C72.4872,16.3132 72.6282,15.0662 73.7572,14.6902 C74.8882,14.3162 78.2722,14.7632 78.6472,14.5612" id="Fill-228" fill="#000000"></path>
                                <path d="M81.9744,14.6667 C81.9744,14.6667 82.0634,15.8987 82.5074,15.9817 C83.7534,16.2157 86.0774,14.7327 87.8814,16.1317 C87.8814,16.1317 87.8044,14.8917 86.7244,14.5687 C85.6464,14.2447 82.3284,14.8507 81.9744,14.6667" id="Fill-230" fill="#000000"></path>
                                <path d="M78.0769,18.5573 C78.0769,18.5573 78.2189,18.3013 78.1509,18.0413 C78.0849,17.7833 75.7199,15.8033 74.1409,18.2153 C74.1409,18.2153 75.9009,20.6723 78.0769,18.5573" id="Fill-232" fill="#F0F0ED"></path>
                                <path d="M77.3865,18.0866 C77.3865,18.6446 76.9375,19.0946 76.3795,19.0946 C75.8235,19.0946 75.3715,18.6446 75.3715,18.0866 C75.3715,17.5316 75.8235,17.0796 76.3795,17.0796 C76.9375,17.0796 77.3865,17.5316 77.3865,18.0866" id="Fill-234" fill="#2C1117"></path>
                                <path d="M76.8513,18.0866 C76.8513,18.3486 76.6403,18.5616 76.3793,18.5616 C76.1173,18.5616 75.9053,18.3486 75.9053,18.0866 C75.9053,17.8256 76.1173,17.6136 76.3793,17.6136 C76.6403,17.6136 76.8513,17.8256 76.8513,18.0866" id="Fill-236" fill="#040000"></path>
                                <path d="M74.8865,18.9352 L73.9665,18.4222 L73.8035,18.3312 L73.9135,18.0672 C74.0465,17.8982 74.1535,17.7132 74.3085,17.5612 C74.4665,17.4102 74.6245,17.2612 74.8205,17.1512 C74.9095,17.0872 75.0065,17.0342 75.1145,16.9972 C75.2185,16.9582 75.3155,16.8992 75.4265,16.8842 C75.6425,16.8212 75.8655,16.8072 76.0825,16.8182 C76.5195,16.8522 76.9215,17.0012 77.2805,17.2052 C77.4585,17.3072 77.6275,17.4242 77.7845,17.5532 C77.8615,17.6232 77.9425,17.6842 78.0085,17.7642 C78.0765,17.8432 78.1465,17.9092 78.1915,18.0302 C78.1965,18.1922 78.1405,18.3342 78.1135,18.4772 C78.1135,18.3282 78.1385,18.1842 78.1075,18.0462 L78.1105,18.0512 C78.0095,17.9242 77.8275,17.8082 77.6745,17.7052 C77.5105,17.6042 77.3395,17.5162 77.1625,17.4452 C76.8105,17.3032 76.4365,17.2262 76.0775,17.2472 C75.7235,17.2762 75.3885,17.3812 75.1045,17.5882 C74.8105,17.7792 74.5955,18.0782 74.3695,18.3632 L74.4475112,18.2767978 L74.8865,18.9352 Z" id="Fill-238" fill="#030000"></path>
                                <path d="M76.1843,17.7429 C76.1843,17.8749 76.0763,17.9829 75.9443,17.9829 C75.8133,17.9829 75.7043,17.8749 75.7043,17.7429 C75.7043,17.6109 75.8133,17.5039 75.9443,17.5039 C76.0763,17.5039 76.1843,17.6109 76.1843,17.7429" id="Fill-240" fill="#F0F0ED"></path>
                                <path d="M82.5554,18.5573 C82.5554,18.5573 82.4124,18.3013 82.4804,18.0413 C82.5484,17.7833 84.9104,15.8033 86.4884,18.2153 C86.4884,18.2153 84.7294,20.6723 82.5554,18.5573" id="Fill-242" fill="#F0F0ED"></path>
                                <path d="M83.2449,18.0866 C83.2449,18.6446 83.6949,19.0946 84.2529,19.0946 C84.8079,19.0946 85.2609,18.6446 85.2609,18.0866 C85.2609,17.5316 84.8079,17.0796 84.2529,17.0796 C83.6949,17.0796 83.2449,17.5316 83.2449,18.0866" id="Fill-244" fill="#2C1117"></path>
                                <path d="M83.7791,18.0866 C83.7791,18.3486 83.9901,18.5616 84.2531,18.5616 C84.5151,18.5616 84.7251,18.3486 84.7251,18.0866 C84.7251,17.8256 84.5151,17.6136 84.2531,17.6136 C83.9901,17.6136 83.7791,17.8256 83.7791,18.0866" id="Fill-246" fill="#040000"></path>
                                <path d="M85.7439,18.9352 L86.1636942,18.2474848 L86.2619,18.3632 L86.2609,18.3632 C86.0339,18.0782 85.8169,17.7792 85.5259,17.5872 C85.2419,17.3812 84.9069,17.2762 84.5529,17.2472 C84.1949,17.2262 83.8199,17.3032 83.4689,17.4462 C83.2919,17.5162 83.1209,17.6052 82.9569,17.7062 C82.8029,17.8092 82.6209,17.9242 82.5199,18.0512 L82.5219,18.0452 C82.4949,18.1842 82.5169,18.3282 82.5199,18.4772 C82.4919,18.3342 82.4369,18.1932 82.4369,18.0372 C82.4849,17.9092 82.5549,17.8432 82.6229,17.7642 C82.6889,17.6842 82.7699,17.6232 82.8449,17.5542 C83.0039,17.4242 83.1719,17.3072 83.3499,17.2052 C83.7079,17.0012 84.1099,16.8522 84.5489,16.8182 C84.7649,16.8072 84.9879,16.8212 85.2039,16.8832 C85.3149,16.8992 85.4109,16.9582 85.5169,16.9972 C85.6229,17.0342 85.7199,17.0872 85.8089,17.1512 C86.0049,17.2612 86.1629,17.4102 86.3209,17.5612 C86.4759,17.7132 86.5839,17.8982 86.7139,18.0652 L86.8279,18.3312 L86.6629,18.4222 L85.7439,18.9352 Z" id="Fill-248" fill="#030000"></path>
                                <path d="M84.447,17.7429 C84.447,17.8749 84.555,17.9829 84.69,17.9829 C84.819,17.9829 84.927,17.8749 84.927,17.7429 C84.927,17.6109 84.819,17.5039 84.69,17.5039 C84.555,17.5039 84.447,17.6109 84.447,17.7429" id="Fill-250" fill="#F0F0ED"></path>
                                <path d="M81.1013,19.779 C81.1013,19.779 80.9713,21.571 81.0463,22.787 C81.0853,23.444 80.7503,23.826 80.4353,23.893 C80.4353,23.893 81.7623,24.103 81.9623,22.855 C82.0973,22.013 81.3033,21.091 81.1013,19.779" id="Fill-252" fill="#A5644F"></path>
                                <path d="M79.742,23.7663 C79.742,23.7663 78.472,23.3223 78.68,23.7183 C78.889,24.1123 79.742,23.7663 79.742,23.7663" id="Fill-254" fill="#975238"></path>
                                <path d="M77.2048,1.0349 C77.2048,1.0349 70.8838,1.4879 71.4468,5.4699 L73.5708,7.9139 C73.5708,7.9139 76.0098,11.3699 79.3108,12.0959 C79.3108,12.0959 77.5418,11.0079 76.7738,10.3519 C76.7738,10.3519 80.1638,12.1959 83.9218,12.5299 C83.9218,12.5299 81.5308,11.7159 80.6428,10.5689 C80.6428,10.5689 82.9748,12.2409 87.2748,12.5299 C87.2748,12.5299 85.6428,12.0049 85.0328,11.3699 C85.0328,11.3699 87.2328,11.9649 87.9528,12.5299 C88.6728,13.0949 89.2978,17.6239 89.2978,17.6239 C89.2978,17.6239 89.7288,16.8749 90.3568,16.2699 C90.3568,16.2699 91.3978,10.5909 90.9588,9.0469 C90.5008,7.4359 88.3298,0.4479 77.2048,1.0349" id="Fill-256" fill="#090000"></path>
                                <path d="M75.3191,1.3679 C73.5071,1.8369 71.0901,2.9419 71.4471,5.4699 L73.5711,7.9139 C73.5711,7.9139 76.0091,11.3699 79.3111,12.0959 C79.3111,12.0959 77.5421,11.0079 76.7741,10.3519 C76.7741,10.3519 80.1641,12.1959 83.9221,12.5299 C83.9221,12.5299 81.5311,11.7159 80.6431,10.5689 C80.6431,10.5689 82.9741,12.2409 87.2751,12.5299 C87.2751,12.5299 85.6421,12.0049 85.0331,11.3699 C85.0331,11.3699 87.2331,11.9649 87.9531,12.5299 C88.6731,13.0949 89.2981,17.6239 89.2981,17.6239 C89.2981,17.6239 89.7291,16.8749 90.3571,16.2699 C90.3571,16.2699 91.3981,10.5909 90.9591,9.0469 C90.9401,8.9739 90.9151,8.8929 90.8871,8.8039 C89.0241,12.7789 74.3791,6.9619 72.7551,4.9149 C71.7051,3.5859 73.6091,2.2389 75.3191,1.3679" id="Fill-258" fill="#000000"></path>
                                <path d="M70.8543,10.8542 C69.8153,9.1802 69.6793,5.9692 71.5783,4.9722 C70.9713,5.0072 70.3953,5.3232 70.0383,6.0132 C68.1863,9.6102 69.3663,15.4332 69.7483,16.0932 C69.7483,16.0932 70.7063,16.5992 71.0983,18.5852 C71.0983,18.5852 71.6253,17.6782 71.8073,15.7772 C71.8753,15.0692 71.9603,14.5512 72.0793,14.1132 C71.8563,13.1722 71.4643,11.8342 70.8543,10.8542" id="Fill-260" fill="#000000"></path>
                                <g id="Group-264" transform="translate(75.000000, 0.054800)">
                                    <mask id="mask-4" fill="white">
                                        <use xlink:href="#path-3"></use>
                                    </mask>
                                    <g id="Clip-263"></g>
                                    <path d="M0.4109,1.2877 C0.0219,1.6017 -0.1321,1.9917 0.1889,2.4737 C1.3769,4.2387 12.3429,1.3567 15.8879,8.7487 C15.2959,6.7837 12.8459,0.4167 2.2049,0.9797" id="Fill-262" fill="#2B101A" mask="url(#mask-4)"></path>
                                </g>
                                <path d="M84.4304,25.0056 C83.5504,24.3266 80.3764,24.1226 80.3764,24.1226 C80.3764,24.1226 77.2004,24.3266 76.3224,25.0056 C75.4444,25.6856 75.6924,26.5596 75.6924,26.5596 C75.6924,26.5596 76.1454,25.5326 76.7794,25.6606 C77.1364,25.7346 80.3764,25.9786 80.3764,24.9826 C80.3764,25.9786 83.6104,25.6456 83.9754,25.6606 C84.4714,25.6856 85.0604,26.4386 85.0604,26.4386 C85.0604,26.4386 85.3104,25.6856 84.4304,25.0056" id="Fill-265" fill="#000000"></path>
                                <path d="M79.4304,72.4001 C79.4234,72.4081 79.2824,72.2991 79.0324,72.0981 C78.9094,71.9961 78.7564,71.8721 78.5704,71.7411 C78.3854,71.6081 78.1824,71.4461 77.9394,71.2951 C77.7014,71.1351 77.4394,70.9631 77.1454,70.7981 C76.8584,70.6221 76.5354,70.4631 76.2004,70.2901 C75.5174,69.9621 74.7464,69.6471 73.9114,69.3931 C73.0734,69.1471 72.2554,68.9871 71.5054,68.8861 C71.1294,68.8471 70.7734,68.8021 70.4364,68.7931 C70.1004,68.7681 69.7864,68.7691 69.5004,68.7711 C69.2134,68.7641 68.9554,68.7891 68.7284,68.7971 C68.4994,68.8051 68.3054,68.8251 68.1454,68.8421 C67.8264,68.8751 67.6484,68.8871 67.6474,68.8771 C67.6454,68.8671 67.8204,68.8351 68.1384,68.7851 C68.2974,68.7571 68.4924,68.7301 68.7214,68.7141 C68.9504,68.6971 69.2094,68.6661 69.4974,68.6661 C69.7864,68.6561 70.1024,68.6491 70.4424,68.6691 C70.7824,68.6721 71.1424,68.7131 71.5234,68.7501 C72.2804,68.8431 73.1084,69.0011 73.9534,69.2501 C74.7984,69.5061 75.5764,69.8291 76.2604,70.1661 C76.5984,70.3451 76.9224,70.5081 77.2084,70.6921 C77.5024,70.8621 77.7634,71.0421 77.9984,71.2081 C78.2404,71.3661 78.4404,71.5351 78.6214,71.6741 C78.8044,71.8131 78.9514,71.9431 79.0704,72.0531 C79.3094,72.2701 79.4374,72.3931 79.4304,72.4001" id="Fill-267" fill="#FAFAFA"></path>
                                <path d="M62.8842646,60.3040477 L64.8903,47.417 C65.7923,43.574 66.8613,39.882 68.6583,39.445 L68.6583,40.634 L67.8893,69.823 C67.8893,69.823 66.6533517,69.8942874 62.6441929,67.5177568 C62.5042192,66.8156538 62.4464276,66.0981546 62.4708184,65.3652593 C62.4997769,64.4951082 62.6375923,62.8080376 62.8842646,60.3040477 Z" id="Fill-269" fill="#4EA7FF"></path>
                                <path d="M86.7937,36.5661 C91.4807,37.4631 96.7587,40.1981 99.1867,47.2001 C100.0727,49.7571 106.5257,68.6221 106.5257,68.6221 L95.5217,68.3931 L93.7287,64.5031 L94.6037,70.8121 L95.3497,79.8141 L67.5617,80.2821 L67.7567,66.7231 L68.0227,39.7521 C68.0227,39.7521 68.3357,39.3421 73.1267,36.7001 C76.1037,35.0571 86.7937,36.5661 86.7937,36.5661" id="Fill-271" fill="#4EA7FF"></path>
                                <path d="M89.5662,54.5944 C90.0222,60.2874 90.5482,62.0464 91.0042,67.7404 C91.0472,68.2784 91.0932,68.8264 91.3042,69.3234 C91.5152,69.8194 91.9252,70.2634 92.4542,70.3704 C93.2632,70.5354 94.3152,71.1204 94.5442,70.3264 L93.7762,64.8434 C93.7762,64.8434 93.5942,63.8124 93.0172,62.5294 C91.3122,58.7434 90.6802,58.5224 89.5662,54.5944" id="Fill-273" fill="#000000" opacity="0.3"></path>
                                <path d="M73.1267,39.6179 L73.2187,39.0259 L74.1067,33.3449 C74.1607,33.0019 74.4697,32.7589 74.8147,32.7879 L85.7567,33.7009 C86.4437,33.7589 86.9567,34.3589 86.9057,35.0469 L86.6627,38.3479 L83.2457,42.8059 L78.3267,43.5729" id="Fill-275" fill="#4EA7FF"></path>
                                <path d="M67.6336,50.3005 C67.6756,50.3005 67.7086,54.7515 67.7086,60.2395 C67.7086,65.7315 67.6756,70.1815 67.6336,70.1815 C67.5926,70.1815 67.5596,65.7315 67.5596,60.2395 C67.5596,54.7515 67.5926,50.3005 67.6336,50.3005" id="Fill-277" fill="#2E353A"></path>
                                <path d="M95.7547,69.3025 C95.7517,69.3035 95.7397,69.2815 95.7187,69.2385 C95.6947,69.1865 95.6647,69.1215 95.6287,69.0425 C95.5477,68.8595 95.4367,68.6065 95.2957,68.2865 C95.0067,67.6155 94.5987,66.6645 94.0947,65.4945 C93.0907,63.1215 91.7107,59.8625 90.1867,56.2615 C89.4287,54.4555 88.7077,52.7365 88.0507,51.1705 C87.7017,50.3975 87.4697,49.6045 87.3437,48.8595 C87.2117,48.1125 87.1587,47.4065 87.1527,46.7615 C87.1397,45.4725 87.3327,44.4305 87.5907,43.7565 C87.6227,43.6725 87.6507,43.5915 87.6817,43.5185 C87.7167,43.4475 87.7497,43.3795 87.7807,43.3175 C87.8407,43.1915 87.8957,43.0875 87.9527,43.0115 C88.0027,42.9395 88.0427,42.8815 88.0747,42.8335 C88.1037,42.7945 88.1187,42.7755 88.1207,42.7775 C88.1417,42.7885 87.8787,43.0995 87.6467,43.7765 C87.4067,44.4485 87.2327,45.4825 87.2587,46.7605 C87.2937,48.0315 87.4677,49.5775 88.1777,51.1165 C88.8377,52.6815 89.5637,54.3995 90.3237,56.2025 C91.8327,59.8105 93.1977,63.0755 94.1927,65.4535 C94.6777,66.6315 95.0707,67.5885 95.3497,68.2645 C95.4797,68.5885 95.5817,68.8445 95.6567,69.0315 C95.6877,69.1135 95.7127,69.1785 95.7337,69.2325 C95.7497,69.2785 95.7567,69.3015 95.7547,69.3025" id="Fill-279" fill="#2E353A"></path>
                                <path d="M90.2048,37.5563 C90.2048,37.5563 90.1028,37.6613 89.8858,37.8333 C89.6678,38.0053 89.3208,38.2313 88.8378,38.4453 C88.3518,38.6553 87.7278,38.8423 86.9888,38.9633 C86.2488,39.0853 85.3998,39.1653 84.4588,39.2123 C83.5178,39.2543 82.4858,39.2363 81.3828,39.2573 C80.2808,39.2833 79.0968,39.3543 77.9038,39.6813 C76.7208,39.9993 75.5008,40.5883 74.6318,41.6113 C74.2048,42.1193 73.8888,42.7393 73.7238,43.4063 C73.5548,44.0713 73.5498,44.7903 73.7568,45.4623 C73.8658,45.7953 74.0318,46.1053 74.2378,46.3823 C74.4478,46.6543 74.7168,46.8793 75.0158,47.0363 C75.3118,47.1963 75.6498,47.2743 75.9758,47.2393 C76.3008,47.2063 76.6058,47.0453 76.8178,46.8063 C77.2498,46.3153 77.3308,45.6063 77.2438,44.9873 C77.1978,44.6723 77.1068,44.3673 76.9708,44.0883 C76.8308,43.8113 76.6498,43.5553 76.4588,43.3173 C75.6728,42.3683 74.5688,41.8203 73.5118,41.5713 C72.4428,41.3183 71.3948,41.3693 70.4938,41.6053 C69.5868,41.8303 68.8158,42.2053 68.1838,42.5923 C67.5468,42.9793 67.0468,43.3843 66.6528,43.7313 C66.2578,44.0773 65.9778,44.3743 65.7838,44.5713 C65.6938,44.6673 65.6228,44.7433 65.5698,44.8013 C65.5198,44.8523 65.4948,44.8773 65.4928,44.8763 C65.4928,44.8763 65.8398,44.4043 66.6138,43.6873 C67.0028,43.3323 67.5018,42.9173 68.1388,42.5213 C68.7728,42.1243 69.5488,41.7383 70.4678,41.5023 C71.3798,41.2553 72.4498,41.1973 73.5398,41.4503 C74.6188,41.6983 75.7508,42.2533 76.5648,43.2293 C76.7638,43.4753 76.9488,43.7353 77.0968,44.0263 C77.2408,44.3193 77.3368,44.6373 77.3858,44.9663 C77.4338,45.2953 77.4338,45.6363 77.3678,45.9723 C77.3018,46.3053 77.1648,46.6393 76.9278,46.9053 C76.6918,47.1703 76.3518,47.3503 75.9918,47.3863 C75.6318,47.4253 75.2638,47.3383 74.9458,47.1683 C74.6268,47.0003 74.3438,46.7623 74.1198,46.4743 C73.9028,46.1823 73.7288,45.8573 73.6138,45.5083 C73.3968,44.8053 73.4038,44.0573 73.5788,43.3693 C73.7498,42.6813 74.0768,42.0423 74.5188,41.5163 C75.4188,40.4633 76.6668,39.8683 77.8678,39.5473 C79.0788,39.2193 80.2748,39.1543 81.3798,39.1333 C82.4868,39.1173 83.5178,39.1423 84.4548,39.1073 C85.3918,39.0673 86.2398,38.9933 86.9758,38.8803 C87.7118,38.7683 88.3308,38.5903 88.8138,38.3913 C89.2968,38.1883 89.6448,37.9733 89.8678,37.8093 C89.9818,37.7333 90.0588,37.6603 90.1178,37.6193 C90.1738,37.5763 90.2028,37.5543 90.2048,37.5563" id="Fill-281" fill="#FAFAFA"></path>
                                <path d="M99.7136,49.5241 C99.7136,49.5291 99.6716,49.5361 99.5906,49.5441 C99.5106,49.5501 99.3916,49.5661 99.2366,49.5691 C98.9296,49.5851 98.4836,49.5801 97.9346,49.5391 C97.3846,49.4991 96.7346,49.4151 96.0166,49.3161 C95.2976,49.2181 94.5086,49.1081 93.6766,49.0631 C92.8466,49.0241 92.0506,49.0871 91.3486,49.2391 C90.6476,49.3951 90.0356,49.6311 89.5726,49.9151 C88.6316,50.4771 88.2926,51.1091 88.2616,51.0781 C88.2576,51.0751 88.2776,51.0381 88.3226,50.9691 C88.3706,50.9051 88.4276,50.7961 88.5316,50.6821 C88.7216,50.4381 89.0496,50.1231 89.5176,49.8241 C89.9846,49.5231 90.6056,49.2711 91.3176,49.1041 C92.0326,48.9421 92.8406,48.8741 93.6846,48.9141 C94.5256,48.9591 95.3176,49.0741 96.0356,49.1791 C96.7536,49.2861 97.3996,49.3801 97.9426,49.4331 C98.4876,49.4871 98.9306,49.5081 99.2366,49.5111 C99.5426,49.5141 99.7126,49.5111 99.7136,49.5241" id="Fill-283" fill="#FAFAFA"></path>
                                <path d="M92.8035,62.4138 C92.7995,62.4508 92.2265,62.2088 91.1525,62.2738 C90.6175,62.3008 89.9695,62.4128 89.2375,62.6168 C88.5015,62.8148 87.6835,63.1058 86.7635,63.3888 C85.8475,63.6698 84.8065,63.9378 83.6635,63.9288 C82.5285,63.9298 81.3075,63.7028 80.1325,63.1948 C78.9545,62.6988 77.8245,61.9098 76.9115,60.8538 C76.4535,60.3298 76.0555,59.7308 75.7715,59.0648 C75.4915,58.3998 75.3365,57.6528 75.4435,56.9058 C75.5535,56.1668 75.9015,55.4608 76.4635,54.9818 C76.7435,54.7458 77.0735,54.5628 77.4315,54.4868 C77.7875,54.4088 78.1575,54.4228 78.5015,54.5198 C78.8435,54.6168 79.1675,54.7808 79.4235,55.0248 C79.6795,55.2658 79.8725,55.5788 79.9435,55.9208 C80.0185,56.2588 79.9845,56.6148 79.8655,56.9298 C79.7455,57.2458 79.5495,57.5208 79.3255,57.7548 C78.8745,58.2248 78.3135,58.5378 77.7465,58.7578 C77.4615,58.8628 77.1705,58.9478 76.8805,58.9948 C76.7365,59.0208 76.5935,59.0528 76.4505,59.0748 C76.3075,59.0918 76.1645,59.1078 76.0245,59.1248 C74.8915,59.2488 73.8235,59.1238 72.8855,58.9048 C71.9465,58.6808 71.1345,58.3398 70.4625,57.9728 C69.7895,57.6058 69.2535,57.2138 68.8505,56.8568 C68.7485,56.7688 68.6545,56.6848 68.5635,56.6058 C68.4805,56.5218 68.4015,56.4418 68.3275,56.3688 C68.1795,56.2238 68.0605,56.0958 67.9725,55.9838 C67.8855,55.8798 67.8175,55.7978 67.7665,55.7358 C67.7205,55.6808 67.6985,55.6498 67.6995,55.6488 C67.7015,55.6468 67.7285,55.6738 67.7785,55.7268 C67.8315,55.7848 67.9045,55.8638 67.9945,55.9638 C68.0865,56.0718 68.2075,56.1958 68.3595,56.3368 C68.4335,56.4088 68.5135,56.4858 68.5985,56.5678 C68.6895,56.6448 68.7855,56.7268 68.8875,56.8128 C69.2945,57.1598 69.8315,57.5428 70.5025,57.8978 C71.1715,58.2558 71.9795,58.5858 72.9095,58.8018 C73.8395,59.0128 74.8945,59.1288 76.0115,59.0008 C76.1505,58.9838 76.2905,58.9678 76.4325,58.9498 C76.5735,58.9278 76.7135,58.8958 76.8555,58.8698 C77.1425,58.8218 77.4215,58.7378 77.6995,58.6348 C78.2505,58.4188 78.7965,58.1098 79.2265,57.6588 C79.4395,57.4348 79.6225,57.1748 79.7335,56.8808 C79.8425,56.5888 79.8735,56.2628 79.8025,55.9498 C79.6715,55.3198 79.1065,54.8298 78.4625,54.6618 C78.1415,54.5698 77.7935,54.5598 77.4635,54.6318 C77.1335,54.7018 76.8235,54.8728 76.5605,55.0968 C76.0315,55.5468 75.6965,56.2218 75.5915,56.9278 C75.4905,57.6388 75.6375,58.3608 75.9085,59.0078 C76.1845,59.6548 76.5745,60.2428 77.0245,60.7588 C77.9175,61.7968 79.0285,62.5768 80.1875,63.0678 C81.3435,63.5718 82.5445,63.7998 83.6645,63.8048 C84.7885,63.8188 85.8175,63.5608 86.7335,63.2878 C87.6515,63.0128 88.4745,62.7268 89.2145,62.5358 C89.9535,62.3388 90.6105,62.2328 91.1495,62.2158 C91.4185,62.1948 91.6585,62.2218 91.8665,62.2278 C92.0715,62.2588 92.2465,62.2728 92.3855,62.3048 C92.5165,62.3378 92.6195,62.3628 92.6985,62.3828 C92.7685,62.4008 92.8035,62.4118 92.8035,62.4138" id="Fill-285" fill="#FAFAFA"></path>
                                <path d="M67.5369,59.3483 C67.5129,59.3583 67.3809,59.0443 67.1009,58.5763 C66.8239,58.1073 66.3779,57.4943 65.7699,56.9263 C65.1609,56.3603 64.5179,55.9583 64.0319,55.7143 C63.5449,55.4683 63.2219,55.3593 63.2299,55.3333 C63.2329,55.3243 63.3159,55.3433 63.4649,55.3863 C63.6139,55.4283 63.8239,55.5063 64.0769,55.6193 C64.5839,55.8413 65.2509,56.2393 65.8729,56.8173 C66.4929,57.3963 66.9349,58.0343 67.1939,58.5233 C67.3239,58.7673 67.4169,58.9723 67.4679,59.1183 C67.5209,59.2633 67.5469,59.3443 67.5369,59.3483" id="Fill-287" fill="#FAFAFA"></path>
                                <path d="M102.2302,58.737 C102.2502,58.762 101.6862,58.996 101.1202,59.751 C100.8342,60.121 100.5462,60.599 100.2192,61.132 C99.8902,61.663 99.4822,62.224 98.9902,62.756 C98.0042,63.823 96.8902,64.553 96.0432,64.971 C95.6222,65.185 95.2622,65.321 95.0142,65.412 C94.7622,65.494 94.6232,65.535 94.6192,65.525 C94.6162,65.515 94.7502,65.456 94.9932,65.357 C95.2332,65.251 95.5832,65.101 95.9952,64.877 C96.8222,64.439 97.9092,63.706 98.8802,62.654 C99.3652,62.129 99.7692,61.581 100.1022,61.057 C100.4352,60.533 100.7352,60.053 101.0372,59.685 C101.3382,59.316 101.6352,59.062 101.8622,58.921 C101.9742,58.85 102.0652,58.8 102.1292,58.774 C102.1942,58.745 102.2282,58.732 102.2302,58.737" id="Fill-289" fill="#FAFAFA"></path>
                                <path d="M86.6902,36.8991 C86.6912,36.9051 86.6462,36.9161 86.5582,36.9331 C86.4542,36.9521 86.3282,36.9741 86.1762,37.0021 C85.8432,37.0561 85.3612,37.1291 84.7632,37.2101 C83.5682,37.3721 81.9122,37.5591 80.0762,37.6941 C79.1592,37.7601 78.2802,37.8211 77.4782,37.7871 C76.6762,37.7571 75.9572,37.6271 75.3812,37.4281 C74.8032,37.2351 74.3752,36.9811 74.1012,36.7821 C73.9632,36.6821 73.8642,36.5961 73.7982,36.5361 C73.7342,36.4741 73.7022,36.4401 73.7052,36.4361 C73.7132,36.4261 73.8542,36.5501 74.1342,36.7341 C74.4142,36.9161 74.8422,37.1511 75.4142,37.3281 C75.9832,37.5091 76.6912,37.6281 77.4832,37.6491 C78.2752,37.6751 79.1482,37.6111 80.0642,37.5451 C81.8972,37.4101 83.5522,37.2401 84.7502,37.1051 C85.3312,37.0391 85.8092,36.9841 86.1682,36.9441 C86.5032,36.9061 86.6892,36.8891 86.6902,36.8991" id="Fill-291" fill="#2E353A"></path>
                                <path d="M106.3855,70.654 C107.2955,75.388 103.6965,79.791 98.8755,79.84 L77.0965,79.597 L77.6685,72.545 L96.3415,69.759" id="Fill-293" fill="#AA8776"></path>
                                <path d="M79.0154,72.8659 C78.9154,72.8989 77.6584,72.3359 76.5314,71.8139 C75.3344,71.2609 74.0224,71.0059 72.7054,71.0729 L67.5144,71.3369 C67.5144,71.3369 67.8344,72.1929 68.3854,72.4979 C68.9364,72.8029 72.1634,72.8679 72.1634,72.8679 L71.9984,73.0379 C71.3184,73.7379 70.3904,74.1439 69.4144,74.1689 L68.9184,74.1809 C68.5504,74.1519 68.1864,74.0809 67.8344,73.9699 L66.5544,73.4519 C66.1664,73.2769 65.7574,73.3049 65.5884,73.6959 C65.4364,74.0489 65.5484,74.5349 66.6054,75.0669 C67.1964,75.3649 69.3874,76.1229 69.3874,76.1229 C69.3874,76.1229 69.4194,76.7279 69.5154,77.0479 C69.6114,77.3659 70.4714,77.6849 70.4714,77.6849 C70.4714,77.6849 71.0134,78.8019 71.2374,79.0559 C71.3364,79.1709 72.1174,79.4139 72.9464,79.6459 C74.2864,80.0219 75.7034,80.0129 77.0364,79.6149 L79.0154,79.0239 L79.0154,72.9979" id="Fill-295" fill="#AA8776"></path>
                                <path d="M71.9138,76.8034 C71.9108,76.8374 71.2958,76.8054 70.5638,76.6114 C69.8308,76.4194 69.2798,76.1454 69.2938,76.1154 C69.3088,76.0784 69.8758,76.2974 70.5978,76.4864 C71.3168,76.6764 71.9178,76.7654 71.9138,76.8034" id="Fill-297" fill="#996552"></path>
                                <path d="M71.7312,78.0192 C71.7312,78.0532 71.3962,78.0752 71.0012,77.9662 C70.6052,77.8602 70.3272,77.6712 70.3442,77.6422 C70.3622,77.6092 70.6562,77.7402 71.0352,77.8412 C71.4132,77.9452 71.7332,77.9822 71.7312,78.0192" id="Fill-299" fill="#996552"></path>
                                <path d="M72.6795,72.3991 C72.6915,72.4121 72.5425,72.5791 72.2785,72.8281 C72.0135,73.0741 71.6295,73.4031 71.1475,73.6841 C70.6645,73.9651 70.1775,74.1231 69.8225,74.1961 C69.4645,74.2681 69.2395,74.2731 69.2375,74.2591 C69.2255,74.2111 70.1365,74.1281 71.0815,73.5721 C71.5525,73.2971 71.9395,72.9851 72.2175,72.7581 C72.4945,72.5301 72.6665,72.3851 72.6795,72.3991" id="Fill-301" fill="#996552"></path>
                                <g id="Group-305" transform="translate(79.000000, 66.054800)">
                                    <mask id="mask-6" fill="white">
                                        <use xlink:href="#path-5"></use>
                                    </mask>
                                    <g id="Clip-304"></g>
                                    <path d="M0.5447,5.86 L0.0157,13.836 L20.5317,13.843 C21.9247,13.843 23.2917,13.465 24.4847,12.749 C27.2567,11.084 28.6877,7.862 28.0637,4.69 C27.8517,3.394 27.3587,1.88 26.7387,0.266 L16.4247,1.964 L16.7547,3.248 L0.5447,5.86 Z" id="Fill-303" fill="#4EA7FF" mask="url(#mask-6)"></path>
                                </g>
                                <path d="M100.5056,68.6364 C100.5066,68.6414 100.4356,68.6574 100.2986,68.6844 C100.1476,68.7114 99.9486,68.7464 99.6996,68.7914 C99.1626,68.8814 98.4126,69.0064 97.4926,69.1594 C95.6116,69.4594 93.0416,69.8684 90.2006,70.3214 C87.3576,70.7554 84.7836,71.1504 82.9016,71.4384 C81.9786,71.5724 81.2266,71.6814 80.6866,71.7594 C80.4366,71.7924 80.2356,71.8194 80.0836,71.8394 C79.9446,71.8564 79.8716,71.8624 79.8716,71.8574 C79.8706,71.8524 79.9426,71.8354 80.0786,71.8094 C80.2306,71.7824 80.4296,71.7464 80.6776,71.7014 C81.2156,71.6124 81.9656,71.4874 82.8856,71.3324 C84.7656,71.0334 87.3366,70.6244 90.1776,70.1724 C93.0206,69.7384 95.5936,69.3434 97.4756,69.0554 C98.3986,68.9214 99.1516,68.8124 99.6906,68.7344 C99.9416,68.7004 100.1416,68.6744 100.2936,68.6544 C100.4326,68.6374 100.5056,68.6314 100.5056,68.6364" id="Fill-306" fill="#2E353A"></path>
                                <path d="M90.0086,79.904 C89.9736,79.897 90.1316,79.328 90.1516,78.389 C90.1516,78.154 90.1556,77.898 90.1216,77.624 C90.1076,77.348 90.0506,77.059 89.9956,76.755 C89.8626,76.151 89.6486,75.502 89.3286,74.863 C89.0066,74.224 88.6056,73.669 88.2076,73.195 C88.1046,73.08 88.0036,72.967 87.9046,72.857 C87.8066,72.75 87.6986,72.655 87.6016,72.557 C87.4086,72.359 87.2056,72.201 87.0276,72.049 C86.2936,71.461 85.7736,71.187 85.7896,71.159 C85.7946,71.15 85.9246,71.216 86.1566,71.345 C86.2736,71.409 86.4156,71.487 86.5706,71.595 C86.7236,71.705 86.9106,71.812 87.0926,71.966 C87.2786,72.115 87.4876,72.27 87.6866,72.467 C87.7866,72.564 87.8976,72.658 88.0006,72.766 C88.1016,72.877 88.2046,72.989 88.3116,73.105 C88.7216,73.581 89.1336,74.144 89.4626,74.795 C89.7876,75.446 90.0026,76.111 90.1306,76.727 C90.1836,77.039 90.2366,77.334 90.2446,77.614 C90.2756,77.893 90.2636,78.154 90.2576,78.392 C90.2616,78.631 90.2176,78.842 90.1996,79.031 C90.1836,79.218 90.1466,79.378 90.1146,79.507 C90.0566,79.765 90.0196,79.907 90.0086,79.904" id="Fill-308" fill="#FAFAFA"></path>
                                <path d="M102.4959,79.3034 C102.4959,79.3034 102.1509,79.3184 101.5449,79.1894 C101.2439,79.1164 100.8759,79.0124 100.4799,78.8144 C100.0869,78.6164 99.6609,78.3314 99.2809,77.9204 C98.9049,77.5114 98.5699,76.9764 98.3989,76.3394 C98.3169,76.0214 98.2529,75.6854 98.2479,75.3344 C98.2249,74.9864 98.2549,74.6224 98.3329,74.2604 C98.4119,73.8994 98.5469,73.5354 98.7579,73.2044 C98.9659,72.8744 99.2599,72.5814 99.6189,72.3844 C99.9749,72.1874 100.3949,72.0734 100.8219,72.1084 C101.2479,72.1374 101.6719,72.3494 101.9489,72.6914 C102.2289,73.0264 102.3869,73.4694 102.3269,73.9034 C102.2689,74.3414 101.9709,74.7024 101.6209,74.9124 C100.9029,75.3404 100.0719,75.3354 99.3529,75.2244 C97.8849,74.9804 96.7399,74.1034 96.1429,73.1694 C95.5269,72.2314 95.3739,71.3054 95.3539,70.6934 C95.3369,70.0724 95.4359,69.7384 95.4359,69.7384 C95.4559,69.7404 95.3769,70.0774 95.4129,70.6904 C95.4489,71.2944 95.6179,72.2014 96.2309,73.1114 C96.8249,74.0154 97.9479,74.8594 99.3759,75.0884 C100.0749,75.1944 100.8799,75.1884 101.5439,74.7884 C101.8659,74.5924 102.1299,74.2674 102.1799,73.8824 C102.2319,73.4994 102.0909,73.0934 101.8339,72.7864 C101.5779,72.4744 101.2019,72.2854 100.8089,72.2564 C100.4179,72.2234 100.0249,72.3274 99.6899,72.5124 C99.0049,72.8834 98.6189,73.6004 98.4679,74.2894 C98.3909,74.6394 98.3579,74.9914 98.3789,75.3294 C98.3819,75.6704 98.4419,75.9974 98.5189,76.3064 C98.6799,76.9254 98.9979,77.4474 99.3589,77.8494 C99.7239,78.2534 100.1359,78.5374 100.5179,78.7394 C100.9029,78.9414 101.2639,79.0514 101.5589,79.1324 C102.1539,79.2774 102.4989,79.2824 102.4959,79.3034" id="Fill-310" fill="#FAFAFA"></path>
                                <path d="M29.5017,29.5329 C31.2577,29.5219 32.6907,29.3839 32.6907,29.3839 C32.4927,30.2629 30.9007,30.5559 29.4917,30.5479 C28.0877,30.5299 26.4967,30.2069 26.3157,29.3229 C26.3157,29.3229 27.7477,29.4889 29.5017,29.5329" id="Fill-312" fill="#F0F0ED"></path>
                                <path d="M30.3982,31.0642 C30.3982,31.0642 29.1552,31.3152 28.0032,31.0422 C28.0032,31.0422 29.1462,32.2382 30.3982,31.0642" id="Fill-314" fill="#A5644F"></path>
                                <path d="M25.3025,28.8435 C26.2075,28.1565 29.4505,27.9815 29.4505,27.9815 C29.4505,27.9815 32.6925,28.2175 33.5815,28.9215 C34.4725,29.6215 34.2085,30.5115 34.2085,30.5115 C34.2085,30.5115 33.7575,29.4615 33.1085,29.5845 C32.7405,29.6555 29.4335,29.8725 29.4425,28.8575 C29.4335,29.8725 26.1355,29.5015 25.7625,29.5155 C25.2565,29.5345 24.6475,30.2995 24.6475,30.2995 C24.6475,30.2995 24.3995,29.5275 25.3025,28.8435" id="Fill-316" fill="#20030C"></path>
                            </g>
                        </g>
                    </g>
                </g>
            </g>
        </g>
    </g>
</svg>