<svg xmlns="http://www.w3.org/2000/svg" xmlns:xlink="http://www.w3.org/1999/xlink" width="125" height="124" xmlns:v="https://vecta.io/nano"><style><![CDATA[.B{fill:#fff}.C{fill:#010000}.D{fill:#ccc}.E{fill:#030000}.F{fill:#ffc19f}.G{fill:#ffa727}.H{fill:#2c1117}.I{fill:#040000}.J{fill:#f0f0ed}.K{fill:#f7e3bf}]]></style><defs><path id="A" d="M.116.497h15.952V23.54H.116z"/></defs><g fill="none" fill-rule="evenodd"><circle fill="#e5edf5" cx="62" cy="61" r="61"/><g transform="translate(0 39)"><path d="M122.063 74.06c-.796 1.53-3.66 3.342-7.836 4.552l-4.703-24.374s5.582-4.736 8.334.55c1.264 2.426 6.21 15.418 4.205 19.272" class="F"/><g fill="#f95006"><path d="M75.336 48.32c-1.408 2.78-6.52.583-7.792 3.555 6.146 3.108 11.287 5.313 11.788 5.26 5.215-.54 9.055-10.61 9.46-11.155-3.263-1.058-7.505-.365-13.456 2.34"/><path d="M113.762 76.92c-7.365-.202-15.803 5.04-21.51 4.43-5.37-.573-6.18-3.363-13.338-4.04-.295-1.038 2.1-2.78 2.132-3.41l1.597-27.93c2.983-.524 19.407-3.234 29.226.82 1.613 6.365 2 21.816 1.894 30.13"/></g><path d="M87.042 46.892c-.045-.47.063-1.094.154-1.545l1.153-.184c4.394-.6 10.506-.87 16.145-.164.016.083.038.18.044.24.343 3.624-3.227 7.227-8.06 7.683s-9.095-2.407-9.437-6.03" fill="#a02e07"/><path d="M89.147 36.118v10.668c-.008 2.298 2.9 4.172 6.493 4.184s6.55-1.842 6.557-4.14v-10.71h-13.05z" class="F"/><path d="M89.225 42.474c-.084-.354-.09-.7-.072-1.064 3.525-.91 8.878-1.987 12.765-2.383.06.148.15.28.19.44.648 2.74-1.708 5.637-5.266 6.467s-6.967-.718-7.616-3.46" fill="#821c08"/><g transform="translate(108 45.12)"><mask id="B" class="B"><use xlink:href="#A"/></mask><path d="M5.762 2.093c1.97 1.14 4.475 6.17 10.307 14.7-3.338 3.062-13.143 6.763-13.504 6.736C-.735 17.908.394.65.116.497c1.183.27 4.607.995 5.646 1.596" fill="#f95006" mask="url(#B)"/></g><path d="M68.915 76.92c-1.3-4.43-3.738-33.385-3.2-35.37 4.772 3.617 15.41 5.32 15.71 17.23L68.915 76.92z" class="B"/><path d="M65.813 41.8c-.337 3.116 1.818 29.52 3.156 34.8l12.32-17.838c-.244-8.928-6.425-12.108-11.395-14.643-1.514-.772-2.946-1.504-4.08-2.33h0zm3.05 35.443l-.08-.276c-1.372-4.683-3.705-33.58-3.2-35.443l.052-.198.162.123c1.14.863 2.637 1.627 4.22 2.436 5.043 2.572 11.317 5.767 11.546 14.9l-12.7 18.468z" class="D"/><path d="M68.915 76.92c-1.3-4.43-7.697-30.112-7.714-31.185 9.906-2.894 19.59 6.715 20.226 13.043-.008.116-4.804 18.027-5.19 19.672-1.44-1.214-5.372-2.52-7.323-1.53" class="B"/><path d="M71.094 76.447c1.874.12 4 .975 5.062 1.765l5.13-19.45c-.356-3.46-3.424-7.763-7.47-10.49-4.018-2.7-8.447-3.574-12.47-2.434.277 2.045 6.352 26.366 7.653 30.9.6-.254 1.32-.33 2.093-.28m5.228 2.252l-.172-.143c-1.473-1.24-5.356-2.438-7.174-1.514l-.146.074-.047-.158c-1.287-4.392-7.7-30.076-7.72-31.22l-.001-.103.1-.03c4.137-1.21 8.684-.34 12.808 2.44 4.116 2.775 7.235 7.186 7.592 10.72-.004.075-.26 1.044-1.715 6.522L76.322 78.7" class="D"/><path d="M69.23 77.095C67.93 72.666 58.015 50.853 58 49.78c13.195-4.693 22.463 4.335 23.428 8.998-.008.115-4.803 18.026-5.188 19.67-1.442-1.213-5.06-2.346-7-1.355" class="B"/><path d="M71.53 76.594c1.707.1 3.577.824 4.626 1.617.374-1.508 5.06-19.148 5.13-19.45-.46-2.15-2.814-5.484-6.914-7.793-3.397-1.91-8.962-3.646-16.224-1.097.195.843 2.288 5.702 4.497 10.832 2.76 6.4 5.88 13.656 6.667 16.2.63-.278 1.405-.364 2.217-.31m4.79 2.104l-.172-.142c-1.404-1.186-4.98-2.293-6.86-1.34l-.147.074-.047-.158c-.698-2.378-3.887-9.786-6.702-16.32-2.804-6.515-4.524-10.532-4.533-11.03v-.098l.094-.033c7.41-2.633 13.093-.867 16.553 1.08 4.196 2.36 6.598 5.825 7.056 8.033-.004.05-.26 1.044-1.715 6.52L76.32 78.698" class="D"/><path d="M99.622 77.824c3.09-4.188 6.484-3.748 6.35-10.73-.026-1.32.302-15.36.236-19.47-11.004-.693-22.913 2.298-25.396 9.498-.016.114.802 18.496 1 20.18 2.53-.977 5.366-1.523 8.365-1.51 3.434.01 6.653.753 9.443 2.032" class="B"/><path d="M80.95 57.163c.02.595.743 17.377.982 19.948 2.6-.978 5.364-1.47 8.246-1.458 3.283.023 6.534.704 9.4 2 .976-1.3 1.988-2.16 2.884-2.92 1.935-1.645 3.463-2.947 3.373-7.634-.01-.494.275-16.682.238-19.344-10.34-.622-22.566 2.06-25.122 9.4h0zm.75 20.33l-.02-.175c-.212-1.797-1.008-20.163-1-20.216 2.604-7.553 15.06-10.273 25.54-9.615l.127.01-.234 19.598c.09 4.815-1.48 6.153-3.472 7.845-.904.77-1.93 1.64-2.905 2.966l-.066.088-.1-.045c-2.853-1.308-6.103-2.013-9.387-2.02-2.91-.012-5.707.493-8.315 1.502l-.164.062z" class="D"/><path d="M99.622 77.824c3.09-4.188 5.31-8.138 8.666-12.123.858-1.02-.168-11.122-.402-14.81-6.553-2.198-21.838-2.655-27.073 6.23-.016.114.802 18.496 1 20.18 2.53-.977 5.366-1.523 8.365-1.51 3.434.01 6.653.753 9.443 2.032" class="B"/><path d="M80.95 57.163l.982 19.948c2.6-.978 5.364-1.47 8.246-1.458 3.283.023 6.534.704 9.4 2l3.26-4.703 5.342-7.338c.656-.776.107-7.757-.223-11.927l-.203-2.692c-6.598-2.177-21.592-2.62-26.804 6.17h0zm.75 20.33l-.02-.175c-.212-1.797-1.008-20.163-1-20.216l.012-.05c5.298-8.988 20.603-8.52 27.24-6.29l.087.03.213 2.87c.468 5.935.834 11.33.16 12.126-2.044 2.428-3.638 4.8-5.327 7.312-1.046 1.56-2.13 3.17-3.33 4.804l-.066.088-.1-.045c-2.853-1.308-6.103-2.013-9.387-2.02-2.91-.012-5.707.493-8.315 1.502l-.164.062z" class="D"/><path d="M99.622 77.824c3.09-4.188 7.22-8.23 10.578-12.214.86-1.02-.47-8.286-.47-9.98-5.03-4.454-18.673-7.722-28.917 1.494-.016.114.802 18.496 1 20.18 2.53-.977 5.366-1.523 8.365-1.51 3.434.01 6.653.753 9.443 2.032" class="B"/><path d="M80.95 57.163l.982 19.948c2.6-.978 5.364-1.47 8.246-1.458 3.283.023 6.534.704 9.4 2 1.902-2.565 4.21-5.097 6.443-7.547l4.073-4.585c.552-.653.1-4.47-.216-7l-.283-2.83c-4.646-4.06-18.155-7.915-28.644 1.474h0zm.75 20.33l-.02-.175c-.212-1.797-1.008-20.163-1-20.216l.012-.05c10.66-9.588 24.46-5.66 29.132-1.528l.047.103c-.002.524.13 1.606.28 2.86.428 3.54.736 6.524.154 7.212-1.282 1.52-2.706 3.08-4.08 4.592-2.253 2.472-4.585 5.028-6.5 7.615l-.066.088-.1-.045c-2.853-1.308-6.103-2.013-9.387-2.02-2.91-.012-5.707.493-8.315 1.502l-.164.062z" class="D"/><path d="M83.464 57.082c.208.398-1.733 1.715-3.662 1.735s-3.493-1.21-3.517-1.66c-.01-.217 7.092-.243 7.18-.075" fill="#481651"/><path d="M113.762 83.403c-.812-6.4-1.517-18.36-2.352-24.99-8.046-7.34-24.88-3.63-27.893-1.84l-.233.152c-1.937 1.567-5.686 1.297-6.802-.014-2.507-2.946-10.823-7.27-18.524-2.817.02.048-.288.628-.268.678 2.093 5.436 8.736 20.933 11.33 26.5 2.122-2.67 12.37-2.02 16.073 1.857.357.95 3.63 1.412 5.235.187 11.683-4.603 19.965-.824 22.957.533.067.03.416-.282.477-.255" fill="#f47193"/><path d="M68.96 81.356C66.365 75.78 59.7 59.813 57.69 54.57c8.14-4.842 17.185.15 19 3.112-.008.115 8.568 23.868 8.184 25.514-3.668-3.84-13.82-4.486-15.924-1.84" fill="#bf3452"/><path d="M74.697 76.975c2.307-.024 4.718.5 6.47 1.68-.692-2.334-5.973-18.78-6.045-19.046-.75-1.224-3.105-2.9-6.02-3.618-2.103-.52-5.267-.727-8.48 1.154 1.574 4.2 6.5 16.375 8.645 21.17 1.34-.845 3.34-1.318 5.43-1.34h0zm7.166 2.28l-.413.25c-3.056-2.598-9.43-2.544-12.144-.607l-.38-.104c-2.11-4.664-7.336-17.59-8.856-21.674l.105-.305c3.422-2.086 6.807-1.868 9.048-1.32 3.1.76 5.54 2.527 6.347 3.874l1.62 5.063 4.67 14.823z" class="G"/><path d="M113.285 83.658c-.805-6.33-1.503-18.188-2.33-24.758-7.973-7.272-24.64-3.54-27.626-1.767-.016.114 6.408 24.604 6.607 26.29 11.9-4.74 20.56-1.044 23.35.236" fill="#bf3452"/><path d="M92.443 80.067c3.24-1.165 6.212-1.602 8.803-1.63 4.218-.044 7.43.994 9.186 1.742l-.86-9.24-.918-9.766c-6.14-5.467-18.854-2.654-21.352-1.4l1.093 4.245 4.047 16.038zm18.192.76c-2.53-1.156-9.375-3.484-18.3-.18l-.34-.208c-.1-.904-2.602-10.53-4.09-16.283l-1.143-4.54.122-.183c2.385-1.4 15.722-4.45 22.186 1.426l.08.156c.33 2.606.636 6.306.934 9.882l.91 9.665-.358.264z" class="G"/><path d="M84.883 83.197c.354.942 3.597 1.406 5.188.192-.058-.384-6.607-26.306-6.607-26.306-1.9 1.682-6.095 1.426-7.18.075l8.598 26.04z" fill="#b22248"/><path d="M89.124 79.554c-1.09.646-2.543.827-3.682.73a5.68 5.68 0 0 1-1.644-.373l.197.6c.424.132.886.237 1.403.28l.762.028c1.018-.01 2.16-.218 3.1-.725l-.135-.54M84.22 60.08l-.127.113c-1.1.972-2.904 1.198-4.24 1.085-1.14-.096-2.085-.452-2.513-.93l.27.825c.57.314 1.322.537 2.2.61.24.022.494.032.758.03 1.285-.014 2.776-.334 3.8-1.2l-.137-.544" fill="#000"/><path d="M100.92 73.214c.076.34.166 1.054 2.71 1.472.42.07-1.99.05-1.653.43.943 1.062 2.67 2.74 5.786 3.32 7.46 1.4 10.927-1.28 11.642-2.973.504-1.19-1.43-7.955-7.242-9.234-.005.87.47 3.72-.07 3.973-.74.346-2.67-.463-4.6-.743-4.067-.59-7 .318-6.194 1.464.278.395 6.915 1.79 6.93 2.034s-7.366.001-7.31.256" class="F"/><g class="C"><path d="M75.665 22.417S70.057-.135 95.918.026l-3.94 10.21-16.314 12.182z"/><path d="M113.93 15.862c-.533 9.217-7.116 17.095-16.337 17.558a16.72 16.72 0 0 1-17.534-15.859C79.597 8.34 86.697.5 95.918.027s18.634 5.084 18.012 15.835"/></g><path d="M83.135 26.893c.012 2.84-2.28 5.153-5.122 5.165s-5.153-2.28-5.165-5.12 2.28-5.153 5.12-5.166 5.153 2.28 5.166 5.122" fill="#eb996e"/><path d="M89.06 4.705s-8.756-.397-11.906 9.633.02 27.627 12.647 29.04c10.985 1.23 19.334-4.454 19.927-15.826.664-12.744-1.66-24.817-20.668-22.848" fill="#ffbe9d"/><path d="M109.795 22.243l-3.09 4.384-2.626-1.088s2.308-9.837-1.006-14.97l6.767-.34-.046 12.015z" class="C"/><path d="M116.917 26.604a5.31 5.31 0 1 1-10.622.045 5.31 5.31 0 1 1 10.622-.045" fill="#ffbe9d"/><g class="C"><path d="M109.204 28.402c-.02 0-.038-.002-.057-.008-.118-.03-.188-.152-.156-.27.01-.04 1.104-3.97 5.3-2.966a.22.22 0 0 1 .163.265c-.028.12-.146.197-.265.165-3.762-.896-4.722 2.504-4.76 2.65a.22.22 0 0 1-.214.164M80.037 6.072s-3.156 7.304 8.272 8.066c0 0-2.768-2.6-2.874-4.676 0 0 4.3 7.154 25.272 7.308 0 0 .652-8.304-6.247-11.72S80.037 6.072 80.037 6.072"/><path d="M82.645 3.225s-4.682-.154-8.015 4.46c0 0 2.375-.492 6.355-.007l1.66-4.453zm4.277 29.183c-.105 0-.2-.076-.218-.185-.008-.05-.193-1.22.503-1.68.552-.365 1.414-.164 2.635.6.102.066.133.202.067.305a.22.22 0 0 1-.304.068c-1.014-.644-1.78-.86-2.153-.616-.38.25-.354.98-.3 1.24a.22.22 0 0 1-.183.253c-.012.002-.024.003-.036.003"/></g><path d="M86.415 25.603s.292-.524.153-1.06c-.135-.53-4.982-4.585-8.214.357 0 0 3.604 5.034 8.06.702" class="B"/><path d="M85.634 24.638a2.06 2.06 0 0 1-2.063 2.065c-1.14 0-2.065-.923-2.065-2.065s.925-2.063 2.065-2.063a2.06 2.06 0 0 1 2.063 2.063" class="H"/><path d="M84.538 24.638a.97.97 0 0 1-.967.972.97.97 0 1 1 0-1.941.97.97 0 0 1 .967.969" class="I"/><path d="M79.88 26.376l-2.218-1.238.227-.54v-.003c.27-.343.49-.722.806-1.034.326-.31.65-.614 1.05-.838.184-.132.382-.242.602-.32.214-.077.412-.2.64-.23.443-.13.9-.158 1.344-.135.896.07 1.72.375 2.453.79.367.21.713.45 1.036.714.155.144.32.27.456.434s.283.294.375.544l.006.006v.006c.003.32-.11.613-.167.904.002-.306.053-.6-.01-.883l.005.01c-.206-.26-.578-.498-.89-.7-.337-.206-.69-.386-1.05-.532-.72-.29-1.488-.45-2.222-.405-.727.06-1.412.275-1.995.698-.6.392-1.042 1.004-1.505 1.588l-.107-.728 1.165 1.9z" class="E"/><path d="M83.172 23.934c0 .27-.224.49-.493.49s-.49-.22-.49-.49.222-.49.49-.49.493.22.493.49" class="J"/><path d="M92.094 25.544s-.29-.524-.154-1.058 4.98-4.585 8.212.357c0 0-3.605 5.034-8.058.7" class="B"/><path d="M94.14 24.58c0 1.143.923 2.065 2.065 2.065s2.064-.922 2.064-2.065c0-1.137-.925-2.063-2.064-2.063s-2.065.926-2.065 2.063" class="H"/><path d="M95.233 24.58a.97.97 0 0 0 .971.973c.537 0 .966-.436.966-.973s-.43-.97-.966-.97a.97.97 0 0 0-.971.969" class="I"/><path d="M98.627 26.32l1.163-1.9-.103.727h-.002c-.465-.584-.9-1.196-1.506-1.59-.58-.422-1.267-.637-1.993-.697-.734-.044-1.5.116-2.222.407a6.87 6.87 0 0 0-1.047.532c-.316.212-.688.45-.895.708l.003-.01c-.056.284-.008.58-.003.884-.058-.29-.17-.582-.17-.902v-.007l.004-.007c.094-.25.236-.382.376-.544s.302-.29.455-.432a7.94 7.94 0 0 1 1.035-.716c.733-.416 1.556-.72 2.455-.79.444-.022.9.005 1.343.134.227.03.424.154.64.23a2.44 2.44 0 0 1 .599.318c.4.224.724.53 1.05.84.317.312.536.69.803 1.033v.004l.234.54-.337.187-1.883 1.052z" class="E"/><path d="M96.603 23.876c0 .27.22.49.496.49.265 0 .488-.22.488-.49s-.223-.492-.488-.492c-.275 0-.496.22-.496.492" class="J"/><path d="M85.972 35.747l7.544-1.083s.204 3.45-3.252 3.524-4.292-2.44-4.292-2.44" class="B"/><path d="M77.66 19.347s2.766-2.06 7.32-.03c0 0 .055-2.65-3.667-2.64-2.952.007-3.653 2.67-3.653 2.67m22.686-.097s-3.33-2.032-8.764.038c0 0-.1-2.648 4.366-2.674 3.533-.02 4.398 2.636 4.398 2.636" class="C"/><g fill="#ff2c5e"><path d="M0 57.338c2.73 1.63 8.48 5.382 11.54 6.297 4.096-5.243 7.948-21.24 7.944-21.75-3.595.227-7.774.7-8.93 1.328C8.503 45.912 2.938 52.94 0 57.338m57.2.08c-2.73 1.63-8.48 5.382-11.54 6.297-4.096-5.244-7.948-21.24-7.944-21.75 3.595.227 7.774.7 8.93 1.328C48.696 46 54.262 53.017 57.2 57.416"/><path d="M9.197 76.414c9.363 5.182 26.806 6.078 38.23-1.24 0 0-3.018-25.564-4.47-32.385-7.872-2.032-22.552-1.455-29.764-.297L9.197 76.414"/></g><g class="F"><path d="M37.014 43.212c.02-.47-.058-.92-.17-1.366-4.82-.326-12.06-.43-17.22-.02-.04.202-.126.392-.135.602-.162 3.63 3.63 6.748 8.468 6.965s8.895-2.55 9.057-6.182"/><path d="M34.444 33.155l-.11 10.253c-.025 2.205-2.845 3.962-6.302 3.925s-6.24-1.857-6.216-4.06l.11-10.253 12.518.136z"/></g><path d="M35.1 38.87c.017-.36-.044-.708-.13-1.05-3.703-.25-9.265-.33-13.23-.014-.03.155-.097.3-.104.462-.125 2.8 2.79 5.185 6.508 5.352s6.834-1.96 6.958-4.75" fill="#601805"/><path d="M52.016 77.518c.73-2.962 2.927-21.126 3.597-25.777-6.235-1.412-20.604-.157-26.405 10.884-.004.107 4.57 14.407 4.927 15.922 2.218-1.117 15.192-1.943 17.88-1.03" fill="#fff8e9"/><path d="M29.238 62.663c.047.174 4.633 14.695 4.916 15.828 1.22-.58 5.245-1.037 8.73-1.247 3.268-.195 7.6-.25 9.094.238.512-2.14 1.732-11.555 2.624-18.444l.955-7.214c-5.8-1.298-20.416-.366-26.32 10.84m4.88 15.965l-.025-.052c-.23-.975-2.26-7.388-3.6-11.64L29.16 62.65c3.214-6.116 8.885-8.91 13.07-10.155 5.352-1.592 10.556-1.394 13.382-.754l.038-.004-.97 7.323-2.637 18.504-.012.046-.034-.01c-2.56-.872-15.6-.118-17.88 1.03" class="K"/><path d="M56.028 68.816c.115-.264.944-11.9 1.167-14.036-5.757-2.543-20.472-1.613-28.103 7.988-.002.106 4.685 14.264 5.042 15.78 2.218-1.117 18.837-7.9 21.894-9.73" fill="#f9e7d4"/><path d="M29.137 62.786c.057.194 4.727 14.55 5.018 15.705.84-.418 3.425-1.53 6.677-2.915 5.57-2.372 13.193-5.62 15.167-6.802.072-.3.368-4.136.63-7.52l.524-6.44c-3.12-1.363-8.334-1.58-13.3-.543-6.134 1.278-11.36 4.3-14.718 8.514h0zm4.98 15.842l-.024-.052c-.233-.99-2.34-7.486-3.74-11.775l-1.298-4.037c3.368-4.238 8.627-7.315 14.785-8.598 4.993-1.04 10.24-.82 13.366.56l.033.015-.533 6.525-.644 7.577c-1.956 1.178-9.622 4.456-15.207 6.836l-6.706 2.917-.033.03z" class="K"/><path d="M8.77 77.6c-2.53-4.07-1.2-7.755-3.993-11.66-.714-1-1.707-9.19-2.527-13.834 6.19-1.462 19.653-.8 26.737 10.41.007.107-3.494 14.56-3.802 16.078-2.254-1.098-4.822-1.83-7.58-2.066-3.16-.272-6.174.138-8.834 1.074" fill="#fff8e9"/><path d="M15.62 76.38l1.986.08c2.68.23 5.22.92 7.553 2.05.21-1.003 3.73-15.706 3.786-15.992C22.2 51.9 9.34 50.5 2.298 52.14c.25 1.427.5 3.14.787 4.955.606 3.99 1.234 8.12 1.72 8.798 1.456 2.035 1.804 4.053 2.14 6.007.314 1.813.638 3.7 1.838 5.63 2.14-.75 4.47-1.14 6.836-1.15m9.592 2.27l-.04-.02c-2.335-1.14-4.882-1.833-7.57-2.064-3.032-.26-6.086.1-8.82 1.073-1.225-1.97-1.593-3.886-1.9-5.72-.35-2.026-.68-3.94-2.12-5.955-.502-.702-1.13-4.845-1.74-8.852l-.806-5.062.04-.01c2.965-.7 7.948-.95 13.046.456 5.88 1.62 10.624 5.066 13.725 9.968.002.05-.212 1.037-1.412 6.05l-2.39 10.134" class="K"/><path d="M4.934 69.495C4.81 69.232 1.412 57.328.9 55.1c6.023-3.1 19.98-2.627 28.077 7.403.007.106-3.494 14.56-3.802 16.078-2.254-1.1-17.137-7.27-20.25-9.087" fill="#f9e7d4"/><path d="M4.96 69.453c2.067 1.2 9.247 4.297 14.492 6.56l5.706 2.5c.21-1.002 3.724-15.685 3.786-15.993-4.588-5.67-10.567-7.8-14.778-8.588-4.9-.917-9.956-.457-13.21 1.202.56 2.445 3.82 13.82 4.003 14.32m20.25 9.198l-.04-.018c-.768-.374-2.963-1.32-5.74-2.52-5.258-2.267-12.458-5.372-14.512-6.57-.11-.233-3.513-12.058-4.047-14.43l-.012-.048.035-.017c3.262-1.68 8.35-2.15 13.28-1.226 4.226.793 10.233 2.937 14.838 8.642.003.05-.212 1.037-1.41 6.05L25.21 78.65" class="K"/><path d="M.296 58.962l.55-.544c10.1-2.584 18.9-.193 24.575 4.078.218 1.644 1.08 18.414.7 20.542-8.077-2.4-18.62-25.653-25.837-24.076m58.058 0l-.55-.544c-10.1-2.584-18.9-.193-24.576 4.078-.217 1.644-1.077 18.414-.7 20.542 8.077-2.4 18.62-25.653 25.837-24.076" fill="#cf79db"/><path d="M52.254 81.996c1.617-6.556 4.42-15.94 6.098-23.034-10.23-3.14-19.37-.135-25.032 4.012-.216 1.596-1.52 18.35-1.152 20.416 8.076-2.34 12.867-2.927 20.086-1.394" fill="#a841b7"/><path d="M50.673 79.385l2.114-7.92 2.645-10.022c-6.733-2.01-14-.83-19.502 3.165-.22 1.797-1.114 13.62-.933 15.866 3.8-1.09 6.757-1.727 9.93-1.727 1.79 0 3.643.202 5.746.638M34.74 80.893c-.044-.03-.073-.076-.083-.13-.3-1.682.765-15.182.915-16.298.008-.054.038-.103.08-.136 5.65-4.132 13.145-5.336 20.057-3.215.097.03.155.135.13.24-.73 3.086-1.726 6.714-2.7 10.222l-2.16 8.09c-.024.103-.124.165-.215.145-5.92-1.253-9.84-.648-15.885 1.104l-.048.008a.18.18 0 0 1-.1-.031" class="G"/><path d="M6.394 81.996C4.778 75.44 1.975 66.057.296 58.962c10.23-3.14 19.37-.135 25.032 4.012.216 1.596 1.52 18.35 1.152 20.416-8.076-2.34-12.867-2.927-20.086-1.394" fill="#a841b7"/><path d="M13.72 78.747c3.173 0 6.14.636 9.93 1.727.18-2.247-.714-14.07-.933-15.867-5.5-3.994-12.77-5.175-19.5-3.165.723 3.038 1.7 6.59 2.644 10.023l2.114 7.92c2.102-.436 3.957-.638 5.746-.638m10.087 2.177l-.05-.008c-6.044-1.752-9.963-2.357-15.884-1.105-.09.02-.192-.042-.216-.144-.583-2.36-1.347-5.144-2.158-8.09l-2.7-10.223c-.027-.104.032-.2.13-.24 6.912-2.12 14.406-.917 20.057 3.216a.21.21 0 0 1 .078.136c.15 1.116 1.216 14.616.916 16.298-.01.053-.04.1-.083.13a.18.18 0 0 1-.1.031" class="G"/><path d="M33.267 62.952c.005.326-1.662.984-3.9.993s-4.083-.65-4.03-.97c.037-.226 1.785-.787 4.034-.796s3.902.6 3.905.774" fill="#481651"/><path d="M25.412 65.08l-.093-2.662c2.984.748 5.24.798 7.948.045.043.45-.182 2.4-.126 2.936-1.937.87-6.108 1.16-7.73-.32" fill="#cf79db"/><path d="M26.48 83.4l-1.152-20.416c2.954.562 5.23.71 7.94-.022.007 1.614-.185 16.833-.344 20.222-1.11 1.004-4.823 1.144-6.443.216" fill="#8b2d9b"/><path d="M33.24 66.014l.006-.557c-.628.602-2.215 1.02-4.252 1.02-1.47 0-2.706-.22-3.532-.566l.025.484c.05.02.085.044.145.063.9.295 2.084.458 3.362.458 1.678 0 3.32-.298 4.246-.902m-3.845 15.57c1.322 0 2.644-.177 3.598-.546l.012-.48c-.825.36-2.103.6-3.6.6-1.213 0-2.246-.162-3.048-.406l.026.462c.847.235 1.884.38 3.022.38" fill="#000"/><path d="M51.148 70.2c-.82-.502-2.583-1.784-3.375-.832-.327.392 1.277 1.54 2.792 2.654.506.372.785.297 2.456 1-.03.17-.972.083-2.04-.373-.58-.247-1.828-2.026-2.976-.97-.196.18 1.68 2.05 2.124 2.482.7.7 5.58 3.203 5.9 3.2 1.392.032 2.6-.88 3.147-2.67.267-1.45-.404-5.516-1.837-8-1.615-1.03-2.824-1.536-4.064-2.095-3.66-.8-5.355-1.343-5.44-.616-.2 1.742 2.76 2.33 4.233 2.807a15.59 15.59 0 0 1 2.834 1.624c-.02.313-1.903-.752-3-1.215-.934-.322-4.268-1.217-4.388-.568-.32 1.742 1.318 1.6 3.662 2.692.9.5 2.5 1.573 2.533 1.757-.285.148-.802-.12-2.564-.87M7.9 70.08c.8-.545 2.482-1.92 3.325-1.014.347.374-1.192 1.607-2.644 2.802-.486.4-.768.34-2.4 1.123.04.167.975.028 2.017-.483.567-.28 1.716-2.122 2.92-1.13.206.17-1.566 2.14-1.987 2.594-.67.725-5.396 3.5-5.727 3.525-1.4.108-2.643-.738-3.287-2.494-.345-1.433.104-5.53 1.4-8.096 1.558-1.116 2.737-1.687 3.946-2.313 3.6-.997 5.274-1.63 5.396-.9.294 1.728-2.63 2.475-4.074 3.032a15.87 15.87 0 0 0-2.742 1.775c.038.3 1.86-.854 2.94-1.376.914-.373 4.196-1.446 4.35-.806.415 1.724-1.23 1.68-3.5 2.888-.872.538-2.402 1.705-2.435 1.9.292.132.795-.165 2.514-1" class="F"/><g class="C"><path d="M10.012 9.4s-7.95 9.878-6.67 27.562l46.815 1.406S55.255 12.782 37.7 3.646L10.012 9.4z"/><path d="M46.53 18.656c-.442 9.345-9.49 16.5-20.21 16.003S7.266 26.166 7.71 16.82 17.2.31 27.92.818s19.05 8.493 18.6 17.838"/></g><path d="M48.768 28.14a4.05 4.05 0 0 1-4.236 3.854 4.05 4.05 0 0 1-3.854-4.237 4.05 4.05 0 0 1 4.236-3.853 4.05 4.05 0 0 1 3.854 4.236" fill="#f4a179"/><path d="M27.533 5.527c1.246-.137 2.503-.07 3.74.137 4.002.675 12.532 3.02 14.658 10.877 2.807 10.363-.522 23.006-12.288 24.882-9.505 1.518-22.42-4.924-21.466-17.84.89-12.108 7.246-17.162 15.357-18.057" fill="#fdb68d"/><path d="M35.782 31.528c-.104 0-.196-.078-.2-.185-.001-.005-.076-.574-.454-.72-.348-.133-.885.102-1.558.682-.1.076-.22.067-.298-.02s-.065-.223.022-.298c.8-.7 1.48-.954 1.988-.756.613.238.714 1.028.718 1.06.014.116-.067.22-.183.234l-.026.002m-2.51 5.14c-2.65 0-4.253-1.335-4.322-1.394a.281.281 0 1 1 .364-.428c.016.013 1.647 1.38 4.282 1.254 2.56-.113 3.38-1.28 3.388-1.3.086-.127.26-.163.4-.077a.28.28 0 0 1 .08.387c-.038.058-.96 1.416-3.832 1.542l-.35.007m10.456-16.02s-2.642-1.965-7-.03c0 0-.053-2.53 3.5-2.52 2.818.007 3.488 2.55 3.488 2.55m-21.66-.09s3.18-1.94 8.367.036c0 0 .087-2.528-4.167-2.553-3.374-.02-4.2 2.517-4.2 2.517" class="C"/><path d="M30.668 25.95s.314-.25.17-.803-5.195-4.782-8.56.37c0 0 4.778 4.664 8.39.432" class="B"/><path d="M28.574 25.243c0 1.187-.968 2.15-2.152 2.15a2.15 2.15 0 1 1 0-4.303c1.184 0 2.152.962 2.152 2.152" class="H"/><path d="M27.435 25.243c0 .558-.455 1.012-1.013 1.012a1.01 1.01 0 1 1 0-2.025c.558 0 1.013.453 1.013 1.013" class="I"/><path d="M24.036 26.8l-1.892-1.1-.19-.124.14-.183c.27-.378.477-.814.818-1.156.306-.375.69-.67 1.1-.94.195-.147.438-.222.655-.336.222-.12.466-.165.707-.23.474-.135 1-.132 1.467-.076.974.117 1.9.466 2.67 1.01.388.272.762.553 1.08.91.136.167.355.38.366.656.005.26-.082.477-.164.692.008-.228.013-.465-.033-.66-.054-.184-.23-.29-.408-.434a6.95 6.95 0 0 0-1.116-.703c-.8-.375-1.612-.687-2.458-.742-.42-.043-.84.01-1.24.087-.198.048-.412.07-.6.17-.184.09-.393.137-.566.26-.37.2-.7.472-1.012.774-.342.265-.586.645-.89.964l-.06-.306 1.63 1.467" class="E"/><path d="M26 24.506a.51.51 0 0 1-.508.514.51.51 0 1 1 0-1.026.51.51 0 0 1 .508.512" class="J"/><g class="E"><path d="M22.745 25.243s-.703 1.37-2.128.29c0 0 .984.304 2.174-1.17l-.046.88z"/><path d="M20.914 24.183s.58.295 1.19.234c.617-.024 1.1-.374 1.1-.374l.195.333c-.004-.001-.63.317-1.297.234-.665-.04-1.187-.427-1.187-.427"/><path d="M21.923 23.322c0-.01.1.09.312.15.183.094.45.133.72.14.263.067.52-.09.703-.117l.3-.084.133.362-.375.04c-.218-.001-.51.11-.792-.01-.29-.056-.556-.147-.732-.278-.188-.096-.277-.208-.28-.2"/></g><path d="M37.356 25.948s-.314-.248-.17-.803 5.195-4.78 8.564.37c0 0-4.782 4.665-8.394.432" class="B"/><path d="M38.188 25.243c0 1.188.964 2.152 2.148 2.152a2.15 2.15 0 1 0 0-4.303 2.15 2.15 0 0 0-2.148 2.151" class="H"/><path d="M39.33 25.243a1.01 1.01 0 0 0 1.007 1.013c.56 0 1.014-.455 1.014-1.013s-.453-1.012-1.014-1.012a1.01 1.01 0 0 0-1.007 1.012" class="I"/><path d="M43.99 26.8l1.633-1.467-.062.306c-.303-.32-.547-.7-.89-.964-.315-.303-.645-.565-1.016-.774-.17-.124-.382-.17-.566-.26-.185-.098-.395-.12-.597-.17-.4-.078-.818-.13-1.24-.087-.846.055-1.664.365-2.46.74a6.98 6.98 0 0 0-1.114.703c-.178.144-.352.25-.404.435-.052.195-.048.432-.036.66-.087-.215-.17-.432-.165-.692.01-.274.224-.49.364-.656.313-.36.693-.64 1.08-.913.775-.54 1.695-.89 2.666-1.007.485-.056.99-.058 1.47.076.242.067.488.11.705.23.22.113.46.19.655.336.413.27.797.566 1.1.94.34.343.553.78.824 1.157l.133.182-.195.125-1.887 1.1" class="E"/><path d="M40.754 24.506c0 .286.232.513.515.513a.51.51 0 0 0 0-1.025c-.283 0-.515.23-.515.512" class="J"/><g class="E"><path d="M45.283 25.243s.698 1.37 2.124.292c0 0-.982.304-2.176-1.17l.052.88z"/><path d="M47.1 24.183s-.52.386-1.19.426c-.662.084-1.29-.235-1.29-.233l.19-.334s.483.35 1.1.375c.61.06 1.19-.234 1.19-.234"/><path d="M46.107 23.322c-.006-.007-.095.104-.284.2-.178.13-.443.222-.73.278-.284.118-.573.007-.8.01l-.37-.04.134-.362.31.084c.184.026.44.183.703.117.267-.006.536-.045.723-.14.2-.058.308-.156.314-.147"/></g><path d="M35.938 5.775s-5.042 5-14.064 8.28c-7.34 2.667-8.306 14.037-8.306 14.037l-5.096-8.36 9.062-12.536s9.303-5.067 15.943-2.344l2.46.924z" class="C"/><path d="M14.252 28.493c-.106 2.233-2.003 3.96-4.236 3.854a4.05 4.05 0 0 1-3.855-4.237 4.05 4.05 0 1 1 8.091.383" fill="#fdb68d"/><path d="M12.092 29.515a.21.21 0 0 1-.201-.146c-.7-2.135-3.112-1.97-3.216-1.96-.123.017-.218-.078-.228-.194a.21.21 0 0 1 .194-.227c.026-.001 2.856-.203 3.65 2.253a.21.21 0 0 1-.136.264.18.18 0 0 1-.064.011M33.477 4.85s-.692 1.247 6.255 5.3c4.5 2.636 6.8 8.496 6.8 8.496s2.086-5.74-6.4-11.946L33.48 4.85z" class="C"/><path d="M13.53 15.694S20.552 4.355 33.476 4.85c0 0 5.44-.448 12.342 6.034 0 0-3.58-8.205-14.13-8.772s-16.805 5.7-18.16 13.58" fill="#fca165"/></g></g></svg>