<?xml version="1.0" encoding="UTF-8"?>
<svg width="122px" height="128px" viewBox="0 0 122 128" version="1.1" xmlns="http://www.w3.org/2000/svg" xmlns:xlink="http://www.w3.org/1999/xlink">
    <!-- Generator: sketchtool 53.1 (72631) - https://sketchapp.com -->
    <title>515D2075-D39C-46E5-8FFB-30FA14026426</title>
    <desc>Created with sketchtool.</desc>
    <g id="Portal-Onboarding" stroke="none" stroke-width="1" fill="none" fill-rule="evenodd">
        <g id="Portal-Onboarding-Language-Copy" transform="translate(-479.000000, -279.000000)">
            <g id="Group-7" transform="translate(216.000000, 96.000000)">
                <g id="Group-2">
                    <g id="Group-10" transform="translate(246.000000, 169.000000)">
                        <g id="Group-34" transform="translate(17.000000, 14.000000)">
                            <circle id="Oval" fill="#E5EDF5" cx="61" cy="61" r="61"></circle>
                            <g id="Group-129" transform="translate(19.435758, 12.000000)">
                                <polygon id="Fill-1" fill="#FFBE9D" points="64.0446141 52.2711932 19.1093675 52.2711932 31.4478195 82.6835238 61.8365523 67.1030742"></polygon>
                                <g id="Group-128" transform="translate(0.386348, 0.000000)">
                                    <path d="M56.5919403,31.8097176 L43.1773746,24.3540115 L43.1773746,24.3508778 L43.1749471,24.3533847 L43.1749471,24.3508778 L43.1749471,24.3540115 L29.7609883,31.8097176 C29.7609883,31.8097176 27.1568487,38.8480145 35.3370392,41.6771215 C35.3370392,41.6771215 32.0980989,46.2993334 35.9372476,48.3707111 C35.9372476,48.3707111 33.683887,54.3686186 43.1749471,54.6468915 L43.1773746,54.6468915 C52.6654003,54.3686186 50.4175017,48.3707111 50.4175017,48.3707111 C54.2572573,46.2993334 51.012855,41.6771215 51.012855,41.6771215 C59.1936524,38.8480145 56.5919403,31.8097176 56.5919403,31.8097176" id="Fill-2" fill="#000000"></path>
                                    <path d="M49.7769356,38.4437041 L42.9385658,38.4437041 L36.1008029,38.4437041 C36.4394442,51.8271228 30.953819,52.8480833 30.953819,52.8480833 C36.2167177,59.6093608 42.9385658,60.933037 42.9385658,60.933037 C42.9385658,60.933037 50.9470081,58.8729406 56.2080861,52.1122898 C56.2080861,52.1122898 49.4413287,51.8271228 49.7769356,38.4437041" id="Fill-4" fill="#FFBE9D"></path>
                                    <path d="M52.509067,49.8890529 C50.7770198,47.6822992 49.7956883,44.334251 49.7665578,39.7402424 L42.8462587,39.7402424 L36.1153074,39.7402424 C36.0461226,42.6013132 35.9113943,44.9998495 35.2929795,46.9195559 C38.3589578,48.5522152 45.0662407,51.000264 52.509067,49.8890529" id="Fill-6" fill="#946451" opacity="0.4"></path>
                                    <path d="M30.276597,25.2974441 C30.276597,25.2974441 28.2684176,22.0070559 26.2468868,23.1433366 C25.1156548,23.7826121 26.7147944,32.6616461 30.6753199,31.9728582 C30.6753199,31.9728582 31.3665608,31.6876912 31.3307547,30.2455611 L30.276597,25.2974441 Z" id="Fill-8" fill="#FFBE9D"></path>
                                    <path d="M27.2392636,24.2123054 C27.2392636,24.2123054 26.3167998,27.7063842 27.901981,28.4177348 C27.901981,28.4177348 28.7352329,28.6295731 28.7079231,29.0024838 C28.6836477,29.3760212 29.1958579,31.8334711 30.0667365,30.9811038 C30.0667365,30.9811038 30.7112474,29.8084722 29.7978869,29.4437092 C28.8875608,29.0783194 29.5156858,29.021286 30.1626242,28.0780414 C30.1626242,28.0780414 28.5926151,23.8713585 27.2392636,24.2123054" id="Fill-10" fill="#946451" opacity="0.4"></path>
                                    <path d="M27.0229094,26.7571856 C26.8875743,26.1323252 26.7874384,25.49493 26.8548025,24.8255711 C26.8760435,24.6582313 26.9063877,24.4846242 26.9974203,24.3060031 C27.051433,24.1211146 27.3609439,23.9268251 27.5715326,23.9957665 C27.7384258,24.0145687 27.9708624,24.1486912 28.0861703,24.2326745 C28.2233261,24.3342065 28.3489511,24.4457663 28.464866,24.5617133 C28.9303461,25.0242478 29.3126831,25.5438158 29.6592139,26.096601 C29.8333896,26.3711134 29.9735798,26.6706954 30.0973842,26.9828122 C30.2157266,27.2986895 30.3395309,27.6177004 30.302511,28.0476445 L30.2952284,28.128494 L30.2351469,28.193675 C30.0142411,28.430583 29.8018316,28.710736 29.6580001,28.9702066 C29.6221939,29.0341342 29.595491,29.1005687 29.5869947,29.1444405 C29.5706088,29.2046076 29.5845671,29.1757776 29.5730363,29.1908193 C29.6039874,29.2083681 29.5967048,29.2115018 29.7459983,29.2453458 L29.993607,29.329329 C30.0816052,29.3788415 30.1859892,29.4841339 30.2642773,29.5699974 C30.3304277,29.6615015 30.3510617,29.7655405 30.3911161,29.8626853 C30.4311704,30.061362 30.4311704,30.264426 30.3771577,30.4474342 C30.3468135,30.6348297 30.2497121,30.8071833 30.1465418,30.9538406 C30.0445853,31.112406 29.8776921,31.2026566 29.726578,31.2772388 C30.019703,31.0773085 30.1489693,30.7351082 30.1732447,30.414217 C30.1944856,30.2518912 30.1550382,30.0920723 30.1113425,29.9541894 C30.0506541,29.8006379 29.9772211,29.7410976 29.8946849,29.6752898 L29.6416142,29.6188832 C29.6288697,29.6188832 29.4468044,29.611989 29.3302827,29.5254988 C29.1943407,29.428354 29.1330454,29.2152622 29.1585345,29.0980617 C29.1658171,28.9651927 29.202837,28.8661677 29.2392501,28.7690229 C29.3988606,28.3948588 29.6246215,28.1203464 29.8619131,27.8320457 L29.7915146,27.9780763 C29.8030454,27.5130348 29.4686523,26.9044696 29.1785617,26.39869 C28.8751196,25.8728546 28.5255544,25.3595541 28.1165145,24.9258496 C28.0175924,24.8142897 27.9077464,24.7202787 27.8021486,24.6256408 C27.6680272,24.5278693 27.6419312,24.4720894 27.5053823,24.4300978 C27.417991,24.4025212 27.3949294,24.398134 27.3148207,24.5059334 C27.2535254,24.6018247 27.2061884,24.7422146 27.1728098,24.8869917 C27.0477917,25.4748743 27.0277645,26.1210439 27.0229094,26.7571856" id="Fill-12" fill="#A37866"></path>
                                    <path d="M27.7174883,27.5265724 C27.7174883,27.5265724 27.5433125,26.8716284 27.6106767,26.1615313 C27.6300969,25.8042892 27.7793904,25.4470471 27.9626694,25.1944706 C28.1914647,24.9901532 28.3808126,24.8742061 28.3808126,24.8742061 L28.5677328,25.4276181 C28.5677328,25.4276181 28.4748796,25.4771306 28.2982763,25.551086 C28.1599067,25.6789411 27.9766278,25.9083281 27.8892365,26.2223252 C27.6919991,26.8359042 27.7174883,27.5265724 27.7174883,27.5265724" id="Fill-14" fill="#A37866"></path>
                                    <path d="M56.0774847,25.2974441 C56.0774847,25.2974441 58.0832366,22.0070559 60.1023399,23.1433366 C61.2359994,23.7826121 59.6332185,32.6616461 55.6763343,31.9728582 C55.6763343,31.9728582 54.9826658,31.6876912 55.0239339,30.2455611 L56.0774847,25.2974441 Z" id="Fill-16" fill="#FFBE9D"></path>
                                    <path d="M59.110752,24.2123054 C59.110752,24.2123054 60.0338227,27.7063842 58.4504621,28.4177348 C58.4504621,28.4177348 57.6196378,28.6295731 57.6439132,29.0024838 C57.6681885,29.3760212 57.1541577,31.8334711 56.2869204,30.9811038 C56.2869204,30.9811038 55.6430164,29.8084722 56.5539494,29.4437092 C57.4636686,29.0783194 56.838578,29.021286 56.1873914,28.0780414 C56.1873914,28.0780414 57.7592212,23.8713585 59.110752,24.2123054" id="Fill-18" fill="#946451" opacity="0.4"></path>
                                    <path d="M59.3300192,26.7571856 C59.3215228,26.1210439 59.3045301,25.4748743 59.179512,24.8869917 C59.1473471,24.7422146 59.0981895,24.6018247 59.0332529,24.5059334 C58.9586062,24.398134 58.9325101,24.4037747 58.8463326,24.4288443 C58.7091768,24.4720894 58.6836877,24.5266158 58.5495663,24.6256408 C58.4439685,24.7202787 58.3335156,24.8142897 58.2364141,24.9258496 C57.8279811,25.3595541 57.4753815,25.8728546 57.1725463,26.39869 C56.8830626,26.9044696 56.5492764,27.5130348 56.5589865,27.9780763 L56.4910155,27.8320457 C56.7283072,28.1203464 56.9528543,28.3948588 57.1136786,28.7690229 C57.1500916,28.8649142 57.1877184,28.9639392 57.1968217,29.0980617 C57.2229177,29.2127553 57.1616224,29.428354 57.0226459,29.5254988 C56.907338,29.6132425 56.7258796,29.6176297 56.7101006,29.6188832 L56.4600644,29.6752898 C56.3787419,29.7410976 56.3022745,29.8006379 56.2409793,29.9541894 C56.2009249,30.0920723 56.1566224,30.2518912 56.1784702,30.4154705 C56.2033524,30.7363616 56.3350463,31.0773085 56.6275644,31.2772388 C56.4740227,31.2039101 56.3083434,31.114913 56.2076006,30.9550941 C56.1038235,30.8084368 56.0073289,30.6354564 55.975164,30.4486877 C55.9235789,30.264426 55.9235789,30.0626155 55.9612057,29.8626853 C56.0030807,29.7655405 56.0237148,29.6615015 56.0898651,29.5699974 C56.1699738,29.4841339 56.2743579,29.380095 56.3623561,29.329329 L56.6081441,29.2453458 C56.7592583,29.2115018 56.7513688,29.2083681 56.7811061,29.1920728 C56.7695753,29.177031 56.7835336,29.2058611 56.765934,29.145694 C56.7592583,29.1018222 56.7295209,29.0341342 56.6961423,28.9702066 C56.5504901,28.710736 56.3362601,28.430583 56.1171749,28.193675 L56.0577003,28.128494 L56.0510245,28.0476445 C56.0140046,27.6177004 56.137809,27.2986895 56.2561514,26.9828122 C56.3799557,26.6706954 56.5183253,26.3711134 56.692501,26.096601 C57.0390318,25.5438158 57.4213688,25.0242478 57.8868489,24.5617133 C58.0021569,24.4457663 58.1289956,24.3342065 58.2649377,24.2326745 C58.3790319,24.1486912 58.6145029,24.0133153 58.7820029,23.9957665 C58.9938054,23.9280785 59.3021025,24.1211146 59.3536877,24.3060031 C59.4441134,24.4846242 59.4762783,24.6582313 59.4969123,24.8255711 C59.5648834,25.49493 59.4653544,26.1323252 59.3300192,26.7571856" id="Fill-20" fill="#A37866"></path>
                                    <path d="M58.7432837,26.1616567 C58.8094341,26.8717538 58.6340446,27.5266977 58.6340446,27.5266977 C58.6340446,27.5266977 58.6601406,26.8360296 58.4622964,26.223704 C58.3755119,25.9084535 58.1940536,25.6784397 58.0550771,25.5505846 C57.8809014,25.477256 57.7862275,25.4277434 57.7862275,25.4277434 L57.9725409,24.8737048" id="Fill-22" fill="#A37866"></path>
                                    <path d="M42.0960286,45.069167 C42.0960286,45.069167 35.895494,41.6772469 33.7768616,37.9061487 C32.0357112,35.2613034 29.3514629,23.1351263 29.1281296,21.0380523 C29.1190263,20.9684841 29.1129575,20.8995426 29.1044611,20.8306012 C29.0983923,20.7647934 29.094751,20.7278157 29.094751,20.7278157 L29.0983923,20.7290692 C29.0613724,20.2972449 29.0395245,19.8578998 29.0395245,19.4173011 C29.0395245,11.3398683 35.3814632,4.78854885 43.2017714,4.78854885 C51.025114,4.78854885 57.3615907,11.3398683 57.3615907,19.4173011 C57.3615907,19.9406295 57.3342809,20.4601975 57.2826958,20.9716178 L57.2826958,20.9703643 C57.2826958,20.9703643 54.5359384,35.0074735 52.6254674,37.9061487 C50.3842445,42.2300321 44.3081211,45.069167 44.3081211,45.069167 C44.3081211,45.069167 43.4530214,45.7253644 42.0960286,45.069167" id="Fill-24" fill="#FFBE9D"></path>
                                    <path d="M30.2866713,24.8078343 C30.2866713,24.8078343 31.5714449,24.2920268 35.4979849,17.0243428 C39.3553401,9.88702093 43.4427044,11.8274098 43.4427044,11.8274098 C43.4427044,11.8274098 47.7430849,9.02149217 55.7230037,23.9767763 C57.742107,27.7679302 54.9559022,10.6403631 54.9559022,10.6403631 L41.8235376,9.62128292 L30.9542438,11.0809618 C30.9542438,11.0809618 28.4599502,23.0711361 30.2866713,24.8078343" id="Fill-26" fill="#A37866"></path>
                                    <path d="M46.165247,21.3423975 C46.165247,21.3423975 46.003209,21.662662 45.8241782,22.1452522 C45.620872,22.6209484 45.3920767,23.2752655 45.2051564,23.9502652 C44.9660441,24.6146102 44.8665151,25.3065318 44.7718412,25.8260998 C44.6765604,26.3488014 44.6122307,26.6966425 44.6122307,26.6966425 C44.6122307,26.6966425 44.6407542,26.3444142 44.6832361,25.8160719 C44.725718,25.2871029 44.7584897,24.5713651 44.9259897,23.8800702 C45.0461528,23.177494 45.2160803,22.4824387 45.3756908,21.9685114 C45.5134535,21.442676 45.6396854,21.1199046 45.6396854,21.1199046 L46.165247,21.3423975 Z" id="Fill-28" fill="#946451" opacity="0.4"></path>
                                    <path d="M39.9002613,25.3745958 C39.9002613,25.3745958 39.242399,21.6617845 35.6575347,22.4846949 C33.4053879,23.0030094 33.8629785,25.5889411 33.8629785,25.5889411 L39.9002613,25.3745958 Z" id="Fill-30" fill="#946451" opacity="0.4"></path>
                                    <path d="M39.782283,25.9486902 C39.782283,25.9486902 39.9995475,25.7700692 39.9000186,25.3745958 C39.8004896,24.977869 36.3090855,21.9613666 33.981685,25.6422141 C33.981685,25.6422141 37.2825275,28.9702066 39.782283,25.9486902" id="Fill-32" fill="#EFEFEC"></path>
                                    <path d="M38.7712142,25.4443521 C38.7712142,26.2929588 38.1042486,26.9804933 37.2825275,26.9804933 C36.463234,26.9804933 35.7950547,26.2929588 35.7950547,25.4443521 C35.7950547,24.5969988 36.463234,23.9082109 37.2825275,23.9082109 C38.1042486,23.9082109 38.7712142,24.5969988 38.7712142,25.4443521" id="Fill-34" fill="#2A191D"></path>
                                    <path d="M37.9829931,25.4443521 C37.9829931,25.8435858 37.6710547,26.1663572 37.2826489,26.1663572 C36.8984913,26.1663572 36.5835184,25.8435858 36.5835184,25.4443521 C36.5835184,25.0444916 36.8984913,24.7217202 37.2826489,24.7217202 C37.6710547,24.7217202 37.9829931,25.0444916 37.9829931,25.4443521" id="Fill-36" fill="#040000"></path>
                                    <path d="M35.1969097,26.5582581 C34.7544912,26.3100689 34.3145003,26.053732 33.8927158,25.7723254 L33.7598082,25.6845817 L33.8520546,25.5529662 C34.0414024,25.2834678 34.1858408,24.9744846 34.4188843,24.7281756 C34.6312937,24.4618108 34.8965021,24.248719 35.1811307,24.0563097 C35.3170728,23.9510172 35.4821452,23.8977443 35.6356869,23.8168948 C35.7849804,23.7304046 35.9567286,23.6990675 36.1211942,23.6508085 C36.4513391,23.5555439 36.8045456,23.5580509 37.1371181,23.598789 C37.8089388,23.6796386 38.4461671,23.9309616 38.9820457,24.3176605 C39.2484678,24.5113233 39.509428,24.7118803 39.7272994,24.9675905 C39.8244008,25.0866712 39.9724805,25.2395959 39.98037,25.435139 C39.9815838,25.6206542 39.9245367,25.7760859 39.8668827,25.9296373 C39.8729515,25.766058 39.8771997,25.599345 39.8426073,25.4595819 C39.807408,25.3273396 39.6854243,25.251504 39.5640475,25.1487185 C39.3249352,24.9575626 39.0621544,24.7889694 38.792091,24.6466993 C38.2440747,24.3778276 37.6748174,24.1565882 37.0909949,24.1171035 C36.8002974,24.08702 36.5114206,24.1233709 36.2340746,24.1804043 C36.0944913,24.2136216 35.9518735,24.2311703 35.8213934,24.299485 C35.6915202,24.3659195 35.5482956,24.39851 35.4293463,24.4868805 C35.1750619,24.6372982 34.9456597,24.8240669 34.7290021,25.0396657 C34.4898898,25.2301948 34.3236035,25.4990665 34.1136216,25.7297071 L34.0723535,25.5103479 C34.4595455,25.8406401 34.8309586,26.1960021 35.1969097,26.5582581" id="Fill-38" fill="#000000"></path>
                                    <path d="M36.9961996,24.9192061 C36.9961996,25.1210166 36.8390166,25.2858494 36.6417793,25.2858494 C36.4469695,25.2858494 36.2891797,25.1210166 36.2891797,24.9192061 C36.2891797,24.7180224 36.4469695,24.5544431 36.6417793,24.5544431 C36.8390166,24.5544431 36.9961996,24.7180224 36.9961996,24.9192061" id="Fill-40" fill="#EFEFEC"></path>
                                    <path d="M34.3037584,25.4443521 C34.3037584,25.4443521 33.8200718,26.4233209 32.8344921,25.6518032 C32.8344921,25.6518032 33.5166298,25.8692822 34.3383508,24.8169847 L34.3037584,25.4443521 Z" id="Fill-42" fill="#000000"></path>
                                    <path d="M33.040772,24.6859959 C33.040772,24.6859959 33.4419223,24.8965808 33.8637068,24.8558426 C34.2903463,24.8395474 34.6223119,24.5875977 34.6223119,24.5875977 L34.7564332,24.8270126 C34.7564332,24.8257591 34.3206905,25.0526392 33.8618861,24.9930988 C33.4055093,24.9611351 33.040772,24.6859959 33.040772,24.6859959" id="Fill-44" fill="#000000"></path>
                                    <path d="M33.7354115,24.0715395 C33.737839,24.0665255 33.8136995,24.1367205 33.9508553,24.1780854 C34.0789079,24.2451466 34.2652213,24.2739767 34.449714,24.2796173 C34.632993,24.3259961 34.8071687,24.2156898 34.9364351,24.1956341 C35.0657014,24.1605366 35.1518789,24.1367205 35.1518789,24.1367205 L35.2435184,24.3961911 C35.2435184,24.3961911 35.1391343,24.4074724 34.9849858,24.4237677 C34.8302303,24.4231409 34.6317793,24.50023 34.4345419,24.4149933 C34.2360908,24.3755087 34.0540256,24.3084474 33.9302213,24.2156898 C33.8003481,24.1473751 33.7390528,24.0665255 33.7354115,24.0715395" id="Fill-46" fill="#000000"></path>
                                    <path d="M40.9053827,21.1514297 C40.9053827,21.1514297 40.270582,21.827056 37.7811435,20.8010817 C35.0374206,19.6710684 32.5413064,20.4225304 32.3015871,20.7026834 C32.3015871,20.7026834 36.192321,17.630401 40.9053827,21.1514297" id="Fill-48" fill="#000000"></path>
                                    <path d="M46.3057407,25.3745958 C46.3057407,25.3745958 46.9623893,21.6617845 50.5484673,22.4846949 C52.8042554,23.0030094 52.340596,25.5889411 52.340596,25.5889411 L46.3057407,25.3745958 Z" id="Fill-50" fill="#946451" opacity="0.4"></path>
                                    <path d="M46.4248114,25.9486902 C46.4248114,25.9486902 46.2051193,25.7700692 46.3058621,25.3745958 C46.4066048,24.977869 49.8967952,21.9613666 52.2266231,25.6422141 C52.2266231,25.6422141 48.9209256,28.9702066 46.4248114,25.9486902" id="Fill-52" fill="#EFEFEC"></path>
                                    <path d="M47.4335134,25.4443521 C47.4335134,26.2929588 48.1029065,26.9804933 48.9209863,26.9804933 C49.7427073,26.9804933 50.4084591,26.2929588 50.4084591,25.4443521 C50.4084591,24.5969988 49.7427073,23.9082109 48.9209863,23.9082109 C48.1029065,23.9082109 47.4335134,24.5969988 47.4335134,25.4443521" id="Fill-54" fill="#2A191D"></path>
                                    <path d="M48.2229482,25.4443521 C48.2229482,25.8435858 48.5373141,26.1663572 48.9208649,26.1663572 C49.3092707,26.1663572 49.6206022,25.8435858 49.6206022,25.4443521 C49.6206022,25.0444916 49.3092707,24.7217202 48.9208649,24.7217202 C48.5373141,24.7217202 48.2229482,25.0444916 48.2229482,25.4443521" id="Fill-56" fill="#040000"></path>
                                    <path d="M51.0078785,26.5582581 C51.3744365,26.1960021 51.7476702,25.8406401 52.1354692,25.5103479 L52.0960217,25.7297071 C51.884826,25.4990665 51.717326,25.2301948 51.4788206,25.0396657 C51.2615561,24.8240669 51.0321539,24.6372982 50.7766557,24.4868805 C50.6589202,24.39851 50.5163024,24.3659195 50.3846086,24.3007385 C50.256556,24.2311703 50.1115108,24.2136216 49.9731412,24.1804043 C49.6945814,24.1233709 49.4044908,24.08702 49.1162209,24.1171035 C48.529364,24.1565882 47.9613205,24.3778276 47.413911,24.6466993 C47.1438476,24.7889694 46.8822806,24.9575626 46.6419545,25.1487185 C46.5181501,25.251504 46.398594,25.3285931 46.3621809,25.4583284 C46.3300161,25.599345 46.3379056,25.766058 46.3403331,25.9296373 C46.2784309,25.7760859 46.2219907,25.6206542 46.2232045,25.435139 C46.2335215,25.2389692 46.382815,25.0866712 46.4762751,24.9675905 C46.696574,24.7118803 46.9575342,24.5100699 47.2227425,24.3176605 C47.7610487,23.9297081 48.398277,23.6796386 49.0700977,23.598789 C49.4020633,23.5580509 49.7546629,23.5555439 50.0854147,23.6508085 C50.2529147,23.6990675 50.4210216,23.7304046 50.5733495,23.8168948 C50.722643,23.8977443 50.8913568,23.9510172 51.0260851,24.0575632 C51.3107137,24.248719 51.5771358,24.4618108 51.7883315,24.7281756 C52.0213749,24.9744846 52.1688478,25.2834678 52.3569818,25.5529662 L52.4486213,25.6845817 L52.3132862,25.7723254 C51.8927155,26.053732 51.4527246,26.3100689 51.0078785,26.5582581" id="Fill-58" fill="#000000"></path>
                                    <path d="M49.2097417,24.9192061 C49.2097417,25.1210166 49.3681384,25.2858494 49.5629482,25.2858494 C49.7565443,25.2858494 49.9167617,25.1210166 49.9167617,24.9192061 C49.9167617,24.7180224 49.7565443,24.5544431 49.5629482,24.5544431 C49.3681384,24.5544431 49.2097417,24.7180224 49.2097417,24.9192061" id="Fill-60" fill="#EFEFEC"></path>
                                    <path d="M51.8998161,25.4443521 C51.8998161,25.4443521 52.387144,26.4233209 53.3702962,25.6518032 C53.3702962,25.6518032 52.690586,25.8692822 51.8676512,24.8169847 L51.8998161,25.4443521 Z" id="Fill-62" fill="#000000"></path>
                                    <path d="M53.1663224,24.6859959 C53.1663224,24.6859959 52.8027989,24.9611351 52.3446014,24.9930988 C51.8876177,25.0513857 51.4482336,24.8257591 51.4482336,24.8270126 L51.5835688,24.5875977 C51.5835688,24.5875977 51.9167481,24.8382939 52.3446014,24.8558426 C52.7639583,24.8978343 53.1663224,24.6859959 53.1663224,24.6859959" id="Fill-64" fill="#000000"></path>
                                    <path d="M52.468163,24.0715395 C52.4657355,24.0665255 52.4044402,24.1473751 52.274567,24.2156898 C52.1525833,24.3084474 51.9686974,24.3755087 51.7702463,24.4162468 C51.5742228,24.50023 51.3745579,24.4218875 51.2173749,24.4237677 C51.0644401,24.4074724 50.9600561,24.3961911 50.9600561,24.3961911 L51.0541231,24.1367205 C51.0541231,24.1367205 51.1390869,24.1605366 51.2671394,24.1956341 C51.395192,24.2150631 51.5705815,24.3272496 51.756288,24.2796173 C51.9377463,24.2739767 52.1258804,24.2464001 52.2521123,24.1780854 C52.3892681,24.1367205 52.4657355,24.0665255 52.468163,24.0715395" id="Fill-66" fill="#000000"></path>
                                    <path d="M45.3005586,21.1514297 C45.3005586,21.1514297 45.9353593,21.827056 48.4247978,20.8010817 C51.1733758,19.6710684 53.6622074,20.4225304 53.9055679,20.7026834 C53.9055679,20.7026834 50.0148341,17.630401 45.3005586,21.1514297" id="Fill-68" fill="#000000"></path>
                                    <path d="M42.9625377,33.8961997 C42.9625377,33.8961997 41.3360884,33.177955 41.2747931,33.661172 C41.2147115,34.1431355 42.1784435,34.3712691 42.9625377,33.8961997" id="Fill-70" fill="#87533C"></path>
                                    <path d="M43.442583,33.8961997 C43.442583,33.8961997 45.0690323,33.177955 45.1272932,33.661172 C45.1861609,34.1431355 44.2266772,34.3712691 43.442583,33.8961997" id="Fill-72" fill="#87533C"></path>
                                    <path d="M39.0912848,36.7348332 C39.0912848,36.7348332 41.8016291,35.1153355 43.2017107,35.6386639 C43.2017107,35.6386639 44.5441383,35.1353912 47.309709,36.7348332 C47.309709,36.7348332 46.3399083,39.3564891 43.4214027,39.3564891 C40.1891381,39.3577426 39.0912848,36.7348332 39.0912848,36.7348332" id="Fill-74" fill="#CD3C52"></path>
                                    <path d="M47.3061284,36.7464906 C47.3097697,36.7427302 47.3097697,36.7345825 47.3097697,36.7345825 C47.2630396,36.7082594 47.2199509,36.6856968 47.1732208,36.6600004 C45.1862823,36.105335 43.2017714,36.1040815 43.2017714,36.1040815 C42.6495069,35.9605579 40.3142169,36.4161983 39.2800865,36.6299168 C39.1611372,36.6957246 39.0913455,36.7345825 39.0913455,36.7345825 C39.0913455,36.7345825 39.0980212,36.7427302 39.1004488,36.7464906 L47.3061284,36.7464906 Z" id="Fill-76" fill="#9B2B44"></path>
                                    <path d="M39.3236001,36.8792969 C39.3236001,36.8792969 40.8122867,38.6416915 43.3168973,38.5489339 C45.7796329,38.45931 47.0801855,37.1481686 47.3095876,36.7351466 L39.3236001,36.8792969 Z" id="Fill-78" fill="#9B2B44"></path>
                                    <path d="M43.2019535,36.5628556 C42.1611473,36.4243459 39.0915276,36.7345825 39.0915276,36.7345825 C41.1986291,38.1159188 43.2019535,37.9761556 43.2019535,37.9761556 C43.2019535,37.9761556 45.2058847,38.1159188 47.3099518,36.7345825 C47.3099518,36.7345825 44.246401,36.4243459 43.2019535,36.5628556" id="Fill-80" fill="#490615"></path>
                                    <path d="M40.830736,37.5831266 C42.1798393,38.0444077 43.2018321,37.976093 43.2018321,37.976093 C43.2018321,37.976093 44.2092596,38.0444077 45.542584,37.594408 C43.3244227,36.6123054 41.5668864,37.2208706 40.830736,37.5831266" id="Fill-82" fill="#D36362"></path>
                                    <path d="M45.900949,38.1407377 C45.900949,38.1407377 43.9910848,38.6352361 44.2975613,38.9172693 C44.6034309,39.1986759 46.309382,38.1902502 45.900949,38.1407377" id="Fill-84" fill="#D87E91"></path>
                                    <path d="M44.0548076,38.965779 C44.0548076,38.965779 44.1015377,38.5515035 42.7906681,38.8366705 C41.4834398,39.120584 44.3127334,39.420166 44.0548076,38.965779" id="Fill-86" fill="#D87E91"></path>
                                    <path d="M30.9540617,31.8097176 C30.9540617,32.4101351 30.4843335,32.898366 29.9023316,32.898366 C29.3209367,32.898366 28.8493878,32.4101351 28.8493878,31.8097176 C28.8493878,31.2111803 29.3209367,30.7248296 29.9023316,30.7248296 C30.4843335,30.7248296 30.9540617,31.2111803 30.9540617,31.8097176" id="Fill-88" fill="#D38738"></path>
                                    <path d="M30.5308815,31.8097176 C30.5308815,32.1694667 30.2480735,32.4571406 29.9021496,32.4571406 C29.5550119,32.4571406 29.2752383,32.1694667 29.2752383,31.8097176 C29.2752383,31.4549824 29.5550119,31.163548 29.9021496,31.163548 C30.2480735,31.163548 30.5308815,31.4549824 30.5308815,31.8097176" id="Fill-90" fill="#9D622F"></path>
                                    <path d="M57.4524413,31.8097176 C57.4524413,32.4101351 56.982713,32.898366 56.4019249,32.898366 C55.8193162,32.898366 55.3514086,32.4101351 55.3514086,31.8097176 C55.3514086,31.2111803 55.8193162,30.7248296 56.4019249,30.7248296 C56.982713,30.7248296 57.4524413,31.2111803 57.4524413,31.8097176" id="Fill-92" fill="#D38738"></path>
                                    <path d="M57.0263479,31.8097176 C57.0263479,32.1694667 56.7477882,32.4571406 56.4018642,32.4571406 C56.0541196,32.4571406 55.7743461,32.1694667 55.7743461,31.8097176 C55.7743461,31.4549824 56.0541196,31.163548 56.4018642,31.163548 C56.7477882,31.163548 57.0263479,31.4549824 57.0263479,31.8097176" id="Fill-94" fill="#9D622F"></path>
                                    <g id="Group-98" transform="translate(27.309784, 0.000000)" fill="#000000">
                                        <path d="M1.5397256,23.8346315 C1.5397256,23.8346315 2.72861151,26.3390869 4.02248836,22.5316378 C5.12216231,19.3020435 11.7815013,6.58547682 15.8919272,10.8617279 L15.8919272,2.53547908 C15.8919272,2.53547908 15.3590829,-0.267931605 12.5904778,0.0993383846 C9.5554505,0.501705848 -1.83333611,2.6746155 0.943158546,23.2310803 L1.5397256,23.8346315 Z" id="Fill-96"></path>
                                    </g>
                                    <g id="Group-101" transform="translate(43.088770, 0.000000)" fill="#000000">
                                        <path d="M14.4632614,23.8346315 C14.4632614,23.8346315 13.2749823,26.3390869 11.983533,22.5316378 C10.8844659,19.3020435 4.22087877,6.58547682 0.112880439,10.8617279 L0.112880439,2.53547908 C0.112880439,2.53547908 0.643904007,-0.267931605 3.41554359,0.0993383846 C6.45239152,0.501705848 17.6160241,2.95163484 15.067111,23.2310803 L14.4632614,23.8346315 Z" id="Fill-99"></path>
                                    </g>
                                    <path d="M43.2019535,10.8616026 L43.2019535,2.53535374 C43.2019535,2.53535374 43.1643266,2.33291652 43.0508393,2.04524259 C43.010785,2.35171874 42.9622342,2.55979662 42.9622342,2.55979662 C39.2019805,0.974142909 36.6415366,3.52685736 36.6415366,3.52685736 C41.3940458,2.35297222 42.4433484,5.59572807 42.4433484,5.59572807 C39.8386019,4.90443319 37.701763,6.700045 37.701763,6.700045 C41.309082,5.97302591 42.9622342,8.62915256 42.9622342,8.62915256 C38.524091,6.35471093 33.5852683,15.5295665 33.5852683,15.5295665 C33.9451506,13.5283838 36.2889369,9.62128292 36.2889369,9.62128292 C33.6726597,12.19656 30.953819,18.6338127 30.953819,18.6338127 C32.4898426,10.3558229 35.7949333,5.66466953 35.7949333,5.66466953 C29.2824602,11.3905716 29.2751776,21.5776133 29.2751776,21.5776133 C28.0577682,14.4929376 30.0040454,8.13653445 31.5188281,4.54217713 C28.8357935,7.78305275 26.92775,13.4055426 28.2525779,23.230955 L28.8497519,23.8345062 C28.8497519,23.8345062 30.0386378,26.3389616 31.3319078,22.5315125 C32.4321886,19.3019182 39.0915276,6.58535147 43.2019535,10.8616026" id="Fill-102" fill="#000000"></path>
                                    <path d="M58.4967067,19.0875729 C58.1447139,17.1804013 57.4522592,15.5527559 57.4522592,15.5527559 C57.9863172,17.6680054 57.7223226,21.1182124 57.7223226,21.1182124 C56.7786179,15.0037312 52.9552482,10.0330515 52.9552482,10.0330515 C54.7789348,12.7468383 56.9631106,21.5788668 56.3786813,21.5776133 C55.7918243,21.5776133 51.3530742,12.5625765 49.9165796,10.2480235 C48.4831194,7.93347049 44.2634544,8.92873456 44.2634544,8.92873456 C45.8140432,6.4468418 48.6354473,7.27288591 48.6354473,7.27288591 C46.0968512,5.5267866 43.9587986,6.400463 43.9587986,6.400463 C45.5172769,3.91731675 50.1939256,6.400463 50.1939256,6.400463 C47.2098766,3.22602187 43.9587986,3.96244207 43.9587986,3.96244207 C45.6890251,2.38117555 48.9212897,3.96244207 48.9212897,3.96244207 C46.9531646,2.15366871 43.9320957,2.76850124 43.2020141,2.95276297 L43.2020141,10.8616026 C47.3094056,6.58535147 53.9729928,19.3019182 55.0720598,22.5315125 C56.3635092,26.3389616 57.5517882,23.8345062 57.5517882,23.8345062 L58.1556378,23.230955 C58.3370962,21.7574878 58.4475491,20.3805387 58.4967067,19.0875729" id="Fill-104" fill="#000000"></path>
                                    <path d="M39.9185892,36.6613792 L39.9185892,36.6613792 C39.9185892,36.6613792 43.4348756,38.0734258 46.2781275,36.645084 C45.2907271,36.5654879 43.8542325,36.4764907 43.2018321,36.562981 C42.505736,36.4702233 40.9029552,36.5792762 39.9185892,36.6613792" id="Fill-106" fill="#FFFFFF"></path>
                                    <path d="M44.0707687,18.732587 C44.0707687,19.0898292 43.7897814,19.3818903 43.4426437,19.3818903 C43.0936853,19.3818903 42.8139118,19.0898292 42.8139118,18.732587 C42.8139118,18.3740914 43.0936853,18.082657 43.4426437,18.082657 C43.7897814,18.082657 44.0707687,18.3740914 44.0707687,18.732587" id="Fill-108" fill="#CD3C52"></path>
                                    <polygon id="Fill-110" fill="#A72A3E" points="31.8134703 66.4138208 32.7765953 66.4138208 32.7765953 51.6459321 31.8134703 51.6459321"></polygon>
                                    <path d="M54.1241069,51.3408348 C54.1241069,51.3408348 26.481144,67.3120654 18.9806637,77.0534945 C18.9806637,77.0534945 15.2968773,88.6381677 16.9779462,95.5987488 C18.6590151,102.559957 20.7284898,109.90473 20.7284898,109.90473 L45.2994055,101.622353 L76.72447,108.302154 L86.294425,95.5987488 L81.1213451,62.5062185 C81.1213451,62.5062185 78.1470063,52.4771155 69.4825223,51.6454307 L54.1241069,51.3408348 Z" id="Fill-112" fill="#CE3506"></path>
                                    <path d="M26.9180399,52.031879 C26.9180399,52.031879 27.2384747,61.9024166 29.6957483,67.2441267 C29.6957483,67.2441267 20.1130487,74.9925207 18.980603,77.0538706 L16.9778855,96.852606 C16.9778855,96.852606 7.76538523,90.0436962 1.97692489,94.2108944 C4.04882713,80.1048438 6.11648119,65.629643 8.31400843,60.2710109 C8.31400843,60.2710109 11.9346788,52.031879 18.6595613,52.031879 L26.9180399,52.031879 Z" id="Fill-113" fill="#055AE2"></path>
                                    <path d="M16.8682823,90.291196 C17.1601935,83.9003222 18.9802389,77.0538079 18.9802389,77.0538079 C26.4813261,67.3123788 54.124289,51.3411482 54.124289,51.3411482 L69.4820975,51.6457441 C50.8726041,63.3845955 33.4629205,76.5705909 16.8682823,90.291196" id="Fill-114" fill="#E5A025"></path>
                                    <path d="M71.4238231,52.031879 C71.4238231,52.031879 38.415398,72.525043 17.3152524,92.9210623 L16.9778248,95.5991248 C16.9778248,95.5991248 46.3030704,71.9396673 73.5788684,52.9055554 C73.5788684,52.9055554 72.4439952,52.1196227 71.4238231,52.031879" id="Fill-115" fill="#E5A025"></path>
                                    <polygon id="Fill-116" fill="#024F9D" points="29.695809 67.8821487 33.2624667 115.946885 65.6288084 115.946885 68.9575675 67.8821487"></polygon>
                                    <path d="M69.0668067,97.2697646 C69.0668067,97.2697646 57.2301396,99.7704595 37.3983817,93.8045158 L32.203454,91.9618984 C32.203454,91.9618984 27.6663886,87.4318174 17.5350658,87.0432382 C17.5350658,87.0432382 15.3715241,90.3436542 16.8019498,97.4533996 C16.8019498,97.4533996 20.2102108,98.0582042 28.3278923,98.5295132 L35.2931008,101.886336 C35.2931008,101.886336 62.1513626,113.622053 79.4548415,114.154783 C79.4548415,114.154783 86.6864721,113.799421 87.8055664,106.776166 L85.828338,93.5839031 C80.7614629,91.6698373 75.0270152,93.7869671 69.0668067,97.2697646" id="Fill-117" fill="#EFAC8F"></path>
                                    <polygon id="Fill-118" fill="#A72A3E" points="35.6413916 102.619748 36.8933935 102.999552 39.7839823 92.8469815 38.5319805 92.4671767"></polygon>
                                    <polygon id="Fill-119" fill="#A72A3E" points="33.6761189 102.022965 34.9281207 102.40277 37.8181027 92.2501991 36.5667078 91.8703943"></polygon>
                                    <polygon id="Fill-120" fill="#A72A3E" points="31.7405228 101.435396 32.9925247 101.815201 35.8831135 91.6626298 34.6317186 91.282825"></polygon>
                                    <polygon id="Fill-121" fill="#A72A3E" points="29.8374557 100.857666 31.0894576 101.237471 33.9800464 91.0849003 32.7286515 90.7050955"></polygon>
                                    <path d="M1.97710695,94.2107691 L-0.000121376816,107.403032 C1.11897286,114.426287 8.35060354,114.781649 8.35060354,114.781649 C25.6540824,114.248919 52.5129511,102.513202 52.5129511,102.513202 L59.4775527,99.1563791 C67.5952342,98.6850702 69.0669281,97.2698899 69.0669281,97.2698899 C73.3284681,90.6684312 68.4472994,82.9614021 68.4472994,82.9614021 C60.3047357,88.3845885 57.5670817,92.5423856 57.5670817,92.5423856 L50.4070633,94.4313817 C45.7559037,96.3742776 16.9780676,96.8524807 16.9780676,96.8524807 C11.0925058,93.2499757 5.77255998,91.3873027 1.97710695,94.2107691" id="Fill-122" fill="#FFBE9D"></path>
                                    <polygon id="Fill-123" fill="#A72A3E" points="53.6416341 102.567728 52.3720326 102.879845 49.9948676 92.5862574 51.2644691 92.2735139"></polygon>
                                    <polygon id="Fill-124" fill="#A72A3E" points="55.6341559 102.076865 54.3645544 102.388982 51.9873894 92.0953942 53.2569909 91.7826506"></polygon>
                                    <polygon id="Fill-125" fill="#A72A3E" points="57.5964548 101.593335 56.3268534 101.906078 53.9496884 91.6124906 55.218683 91.299747"></polygon>
                                    <polygon id="Fill-126" fill="#A72A3E" points="59.525618 101.118391 58.2560165 101.430507 55.8788515 91.1369198 57.148453 90.8241762"></polygon>
                                    <polygon id="Fill-127" fill="#FFFFFF" points="67.1370974 66.556467 30.9097592 66.556467 29.695991 67.8820233 68.9577496 67.8820233"></polygon>
                                    <g id="Group-24" transform="translate(31.332650, 21.081275)" stroke="#333333" stroke-width="0.25">
                                        <path d="M9.91218676,3.95273899 C10.7750379,3.82216445 11.4311502,3.75687718 11.8805236,3.75687718 C12.3298971,3.75687718 12.9954097,3.82216445 13.8770615,3.95273899" id="Line-2"></path>
                                        <ellipse id="Oval" cx="18.8331549" cy="3.95273899" rx="4.95609338" ry="3.95273899"></ellipse>
                                        <ellipse id="Oval-Copy" cx="4.95609338" cy="3.95273899" rx="4.95609338" ry="3.95273899"></ellipse>
                                    </g>
                                </g>
                            </g>
                        </g>
                    </g>
                </g>
            </g>
        </g>
    </g>
</svg>