<svg xmlns="http://www.w3.org/2000/svg" width="122" height="128" fill="none" fill-rule="evenodd" xmlns:v="https://vecta.io/nano"><circle fill="#e5edf5" cx="61" cy="61" r="61"/><path fill="#ffbe9d" d="M83.48 64.27H38.545l12.338 30.412 30.39-15.58z"/><path d="M76.414 43.8l-13.417-7.456L49.583 43.8s-2.604 7.038 5.576 9.867c0 0-3.24 4.622.6 6.694 0 0-2.253 5.998 7.238 6.276H63c9.488-.278 7.24-6.276 7.24-6.276 3.84-2.07.595-6.694.595-6.694 8.18-2.83 5.58-9.867 5.58-9.867" fill="#000"/><path d="M69.6 50.444H55.923c.34 13.383-5.147 14.404-5.147 14.404 5.263 6.76 11.985 8.085 11.985 8.085s8.008-2.06 13.27-8.82c0 0-6.767-.285-6.43-13.67" fill="#ffbe9d"/><path d="M72.33 61.89c-1.732-2.207-2.713-5.555-2.743-10.15h-13.65c-.07 2.86-.204 5.26-.822 7.18 3.066 1.633 9.773 4.08 17.216 2.97" fill="#946451" opacity=".4"/><path d="M50.1 37.297s-2.008-3.3-4.03-2.154c-1.13.64.468 9.518 4.428 8.83 0 0 .69-.285.655-1.727L50.1 37.297z" fill="#ffbe9d"/><path d="M47.06 36.212s-.922 3.494.663 4.205c0 0 .833.212.806.585s.488 2.83 1.36 1.98c0 0 .645-1.173-.27-1.537s-.282-.422.365-1.366c0 0-1.57-4.207-2.923-3.866" fill="#946451" opacity=".4"/><g fill="#a37866"><path d="M46.845 38.757c-.135-.625-.235-1.262-.168-1.932.02-.167.052-.34.143-.52.054-.185.364-.38.574-.3.167.02.4.153.515.237.137.102.263.213.38.33.465.463.848.982 1.194 1.535a5.28 5.28 0 0 1 .438.886c.118.316.242.635.205 1.065l-.007.08-.06.065c-.22.237-.433.517-.577.777a.66.66 0 0 0-.071.174c-.016.06-.002.03-.014.046.03.018.024.02.173.055l.248.084c.088.05.192.155.27.24.066.092.087.196.127.293.04.2.04.402-.014.585-.03.187-.127.36-.23.506-.102.16-.27.25-.42.323.293-.2.422-.542.447-.863.02-.162-.018-.322-.062-.46a.59.59 0 0 0-.217-.279l-.253-.056c-.013 0-.195-.007-.31-.093a.48.48 0 0 1-.172-.427c.007-.133.044-.232.08-.33.16-.374.385-.65.623-.937l-.07.146c.012-.465-.323-1.074-.613-1.58-.303-.526-.653-1.04-1.062-1.473-.1-.112-.21-.206-.314-.3-.134-.098-.16-.154-.297-.196-.087-.028-.1-.032-.19.076-.06.096-.11.236-.142.38-.125.588-.145 1.234-.15 1.87"/><path d="M47.54 39.527s-.174-.655-.107-1.365c.02-.357.17-.714.352-.967.23-.204.418-.32.418-.32l.187.553s-.093.05-.27.123a1.47 1.47 0 0 0-.409.671c-.197.614-.172 1.304-.172 1.304"/></g><path d="M75.9 37.297s2.006-3.3 4.025-2.154c1.134.64-.47 9.518-4.426 8.83 0 0-.694-.285-.652-1.727l1.054-4.948z" fill="#ffbe9d"/><path d="M78.933 36.212s.923 3.494-.66 4.205c0 0-.83.212-.807.585s-.5 2.83-1.357 1.98c0 0-.644-1.173.267-1.537s.285-.422-.367-1.366c0 0 1.572-4.207 2.923-3.866" fill="#946451" opacity=".4"/><g fill="#a37866"><path d="M79.152 38.757c-.008-.636-.025-1.282-.15-1.87-.032-.145-.08-.285-.146-.38-.075-.108-.1-.102-.187-.077-.137.043-.163.098-.297.197l-.313.3c-.408.434-.76.947-1.064 1.473-.29.506-.623 1.114-.614 1.58l-.068-.146c.237.288.462.563.623.937.036.096.074.195.083.33.026.115-.035.33-.174.427-.115.088-.297.092-.313.093l-.25.056c-.08.066-.158.125-.22.28-.04.138-.084.298-.063.46.025.32.157.662.45.862-.154-.073-.32-.162-.42-.322a1.28 1.28 0 0 1-.232-.506c-.052-.184-.052-.386-.014-.586.042-.097.063-.2.13-.293.08-.086.184-.2.272-.24l.246-.084c.15-.034.143-.037.173-.053-.012-.015.002.014-.015-.046-.007-.044-.036-.112-.07-.175-.146-.26-.36-.54-.58-.777l-.06-.065-.007-.08c-.037-.43.087-.75.205-1.065.124-.312.262-.612.436-.886.347-.553.73-1.072 1.194-1.535.115-.116.242-.228.378-.33.114-.084.35-.22.517-.237.212-.068.52.125.572.3.1.18.123.352.143.52.068.67-.032 1.307-.167 1.932"/><path d="M78.565 38.162c.066.7-.11 1.365-.11 1.365s.026-.69-.172-1.303a1.46 1.46 0 0 0-.407-.673l-.27-.123.186-.554"/></g><path d="M61.918 57.07s-6.2-3.392-8.32-7.163c-1.74-2.645-4.425-14.77-4.65-16.868-.01-.07-.015-.14-.024-.207l-.01-.103.004.001c-.037-.432-.06-.87-.06-1.312 0-8.077 6.342-14.63 14.162-14.63s14.16 6.55 14.16 14.63a15.5 15.5 0 0 1-.079 1.554v-.001s-2.747 14.037-4.657 16.936c-2.24 4.324-8.317 7.163-8.317 7.163s-.855.656-2.212 0" fill="#ffbe9d"/><path d="M50.11 36.808s1.285-.516 5.21-7.783c3.857-7.137 7.945-5.197 7.945-5.197s4.3-2.806 12.28 12.15c2.02 3.79-.767-13.336-.767-13.336l-13.132-1.02-10.87 1.46s-2.494 12-.668 13.727" fill="#a37866"/><path d="M65.987 33.342s-.162.32-.34.803a15.08 15.08 0 0 0-.619 1.805c-.24.664-.34 1.356-.433 1.876l-.16.87.07-.88c.042-.53.075-1.245.243-1.936a15.7 15.7 0 0 1 .45-1.912l.264-.85.526.222zm-6.265 4.033s-.658-3.713-4.243-2.9c-2.252.518-1.795 3.104-1.795 3.104l6.037-.214z" opacity=".4" fill="#946451"/><path d="M59.604 37.95s.217-.18.118-.574-3.59-3.413-5.918.268c0 0 3.3 3.328 5.8.306" fill="#efefec"/><path d="M58.593 37.444c0 .85-.667 1.536-1.49 1.536s-1.487-.688-1.487-1.536.668-1.536 1.487-1.536 1.49.69 1.49 1.536" fill="#2a191d"/><path d="M57.805 37.444a.71.71 0 0 1-.7.722c-.384 0-.7-.323-.7-.722s.315-.723.7-.723a.71.71 0 0 1 .7.723" fill="#040000"/><path d="M55.02 38.558l-1.304-.786-.133-.088.092-.132c.19-.27.334-.578.567-.825.212-.266.478-.48.762-.672.136-.105.3-.16.455-.24.15-.086.32-.118.486-.166.33-.095.683-.093 1.016-.052a3.97 3.97 0 0 1 1.845.719c.266.194.527.394.745.65.097.12.245.272.253.468.001.186-.056.34-.113.494.006-.164.01-.33-.024-.47-.035-.132-.157-.208-.28-.31-.24-.19-.502-.36-.772-.502-.548-.27-1.117-.5-1.7-.53-.29-.03-.58.006-.857.063-.14.033-.282.05-.413.12s-.273.1-.392.187c-.254.15-.484.337-.7.553-.24.19-.405.46-.615.7l-.04-.22 1.125 1.048" fill="#000"/><path d="M56.818 36.92a.36.36 0 0 1-.354.367.36.36 0 0 1-.353-.367c0-.2.158-.365.353-.365s.354.164.354.365" fill="#efefec"/><g fill="#000"><path d="M54.126 37.444s-.484.98-1.47.207c0 0 .682.217 1.504-.835l-.035.627z"/><path d="M52.863 36.686s.4.21.823.17c.427-.016.76-.268.76-.268l.134.24c0-.001-.436.226-.895.166-.456-.032-.82-.307-.82-.307"/><path d="M53.557 36.072c.002-.005.078.065.215.107.128.067.314.096.5.102.183.046.357-.064.487-.084l.215-.06.092.26-.26.028c-.155-.001-.353.076-.55-.01-.198-.04-.38-.107-.504-.2-.13-.068-.2-.15-.195-.144m7.17-2.92s-.635.676-3.124-.35c-2.744-1.13-5.24-.38-5.48-.098 0 0 3.9-3.072 8.604.45"/></g><path d="M66.128 37.375s.657-3.713 4.243-2.9c2.256.518 1.792 3.104 1.792 3.104l-6.035-.214z" fill="#946451" opacity=".4"/><path d="M66.247 37.95s-.22-.18-.12-.574 3.59-3.413 5.92.268c0 0-3.306 3.328-5.802.306" fill="#efefec"/><path d="M67.256 37.444c0 .85.67 1.536 1.487 1.536s1.487-.688 1.487-1.536-.666-1.536-1.487-1.536-1.487.69-1.487 1.536" fill="#2a191d"/><path d="M68.045 37.444c0 .4.314.722.698.722a.71.71 0 0 0 .7-.722.71.71 0 0 0-.7-.723c-.384 0-.698.323-.698.723" fill="#040000"/><path d="M70.83 38.558l1.128-1.048-.04.22c-.21-.23-.38-.5-.617-.7a3.57 3.57 0 0 0-.702-.553c-.118-.088-.26-.12-.392-.186s-.273-.087-.41-.12c-.28-.057-.57-.093-.857-.063-.587.04-1.155.26-1.702.53-.27.142-.532.31-.772.502-.124.103-.243.18-.28.3-.032.14-.024.308-.022.47-.062-.154-.118-.31-.117-.494.01-.196.16-.348.253-.468.22-.256.48-.458.746-.65.538-.388 1.176-.638 1.847-.72.332-.04.685-.043 1.015.052.167.048.336.08.488.166.15.08.318.134.453.24.285.19.55.404.762.67.233.246.38.555.57.825l.092.132-.135.088-1.305.786" fill="#000"/><path d="M69.032 36.92c0 .202.158.367.353.367s.354-.165.354-.367-.16-.365-.354-.365a.36.36 0 0 0-.353.365" fill="#efefec"/><g fill="#000"><path d="M71.722 37.444s.487.98 1.47.207c0 0-.68.217-1.503-.835l.032.627z"/><path d="M72.988 36.686s-.364.275-.822.307c-.457.058-.896-.167-.896-.166l.135-.24a1.51 1.51 0 0 0 .761.268c.42.042.822-.17.822-.17"/><path d="M72.3 36.072c-.002-.005-.064.076-.194.144a1.29 1.29 0 0 1-.504.201c-.196.084-.396.006-.553.008l-.257-.028.094-.26.213.06c.128.02.303.132.5.084.18-.006.37-.033.496-.102.137-.04.214-.112.216-.107m-7.178-2.922s.635.676 3.124-.35c2.75-1.13 5.237-.38 5.48-.098 0 0-3.9-3.072-8.605.45"/></g><path d="M62.785 45.896s-1.626-.718-1.688-.235.904.7 1.688.235m.48 0s1.626-.718 1.685-.235-.9.7-1.685.235" fill="#87533c"/><path d="M58.913 48.735s2.7-1.62 4.1-1.096c0 0 1.342-.503 4.108 1.096 0 0-.97 2.622-3.888 2.622-3.232.001-4.33-2.622-4.33-2.622" fill="#cd3c52"/><g fill="#9b2b44"><path d="M67.128 48.746c-.043-.038-.086-.06-.133-.086-1.987-.555-3.97-.556-3.97-.556-.552-.144-2.888.312-3.922.526l-.19.105 8.215.012z"/><path d="M59.146 48.88s1.49 1.762 3.993 1.67c2.463-.1 3.763-1.4 3.993-1.814l-7.986.144z"/></g><path d="M63.024 48.563c-1.04-.14-4.1.172-4.1.172 2.107 1.38 4.1 1.242 4.1 1.242s2.004.14 4.108-1.242c0 0-3.064-.3-4.108-.172" fill="#490615"/><path d="M60.653 49.583c1.35.46 2.37.393 2.37.393s1.007.068 2.34-.382c-2.218-.982-3.976-.374-4.712-.01" fill="#d36362"/><path d="M65.723 50.14s-1.9.494-1.603.777 2.012-.727 1.603-.777m-1.846.826s.047-.414-1.264-.13 1.522.583 1.264.13" fill="#d87e91"/><path d="M50.776 43.8c0 .6-.47 1.09-1.052 1.09S48.67 44.4 48.67 43.8s.472-1.085 1.053-1.085 1.052.486 1.052 1.085" fill="#d38738"/><path d="M50.353 43.8c0 .36-.283.647-.63.647s-.627-.288-.627-.647c0-.355.28-.646.627-.646a.64.64 0 0 1 .629.646" fill="#9d622f"/><path d="M77.274 43.8c0 .6-.47 1.09-1.05 1.09s-1.05-.488-1.05-1.09.468-1.085 1.05-1.085 1.05.486 1.05 1.085" fill="#d38738"/><path d="M76.848 43.8c0 .36-.28.647-.624.647s-.628-.288-.628-.647c0-.355.28-.646.628-.646s.624.29.624.646" fill="#9d622f"/><g fill="#000"><path d="M48.672 35.835s1.19 2.504 2.483-1.303c1.1-3.23 7.76-15.946 11.87-11.67v-8.326s-.533-2.803-3.3-2.436c-3.035.402-14.424 2.575-11.647 23.132l.597.604z"/><path d="M77.374 35.835s-1.188 2.504-2.48-1.303c-1.1-3.23-7.763-15.946-11.87-11.67v-8.326s.53-2.803 3.303-2.436c3.037.402 14.2 2.852 11.652 23.132l-.604.604z"/><path d="M63.024 22.862v-8.326s-.038-.202-.15-.5l-.09.515c-3.76-1.586-6.32.967-6.32.967 4.753-1.174 5.802 2.07 5.802 2.07-2.605-.69-4.742 1.104-4.742 1.104 3.607-.727 5.26 1.93 5.26 1.93-4.438-2.274-9.377 6.9-9.377 6.9.36-2 2.704-5.908 2.704-5.908-2.616 2.575-5.335 9.013-5.335 9.013 1.536-8.278 4.84-12.97 4.84-12.97-6.512 5.726-6.52 15.913-6.52 15.913-1.217-7.085.73-13.44 2.244-17.035-2.683 3.24-4.59 8.863-3.266 18.69l.597.604s1.19 2.504 2.482-1.303c1.1-3.23 7.76-15.946 11.87-11.67"/><path d="M78.32 31.088c-.352-1.907-1.044-3.535-1.044-3.535.534 2.115.27 5.565.27 5.565-.944-6.114-4.767-11.085-4.767-11.085C74.6 24.747 76.785 33.58 76.2 33.578s-5.026-9.015-6.462-11.33-5.653-1.32-5.653-1.32c1.55-2.482 4.372-1.656 4.372-1.656-2.54-1.746-4.677-.872-4.677-.872 1.558-2.483 6.235 0 6.235 0-2.984-3.174-6.235-2.438-6.235-2.438 1.73-1.58 4.962 0 4.962 0-1.968-1.81-4.99-1.194-5.72-1v7.91c4.107-4.276 10.77 8.44 11.87 11.67 1.29 3.807 2.48 1.303 2.48 1.303l.604-.604c.18-1.473.292-2.85.34-4.143"/></g><path d="M59.74 48.66h0s3.516 1.412 6.36-.016c-.987-.08-2.424-.17-3.076-.082-.696-.093-2.3.016-3.283.098" fill="#fff"/><path d="M63.893 30.733a.64.64 0 0 1-.628.649c-.35 0-.63-.292-.63-.65s.28-.65.63-.65a.64.64 0 0 1 .628.65" fill="#cd3c52"/><path fill="#a72a3e" d="M51.635 78.414h.963V63.646h-.963z"/><path d="M73.946 63.34s-27.643 15.97-35.143 25.713c0 0-3.684 11.585-2.003 18.545s3.75 14.306 3.75 14.306l24.57-8.282 31.425 6.68 9.57-12.703-5.173-33.093s-2.974-10.03-11.64-10.86l-15.358-.305z" fill="#ce3506"/><path d="M46.74 64.032s.32 9.87 2.778 15.212c0 0-9.583 7.748-10.715 9.8l-2.003 19.8s-9.213-6.81-15-2.642c2.072-14.106 4.14-28.58 6.337-33.94 0 0 3.62-8.24 10.346-8.24h8.258z" fill="#055ae2"/><path d="M36.7 102.3c.292-6.4 2.112-13.237 2.112-13.237 7.5-9.74 35.144-25.713 35.144-25.713l15.358.305C70.695 75.385 53.285 88.57 36.7 102.3m54.546-38.258s-33.008 20.493-54.1 40.9L36.8 107.6s29.325-23.66 56.6-42.694c0 0-1.135-.786-2.155-.874" fill="#e5a025"/><path fill="#024f9d" d="M49.518 79.882l3.567 48.065H85.45l3.33-48.065z"/><path d="M88.89 109.27s-11.837 2.5-31.668-3.465l-5.195-1.843s-4.537-4.53-14.668-4.92c0 0-2.164 3.3-.733 10.4 0 0 3.408.605 11.526 1.076l6.965 3.357s26.858 11.736 44.162 12.268c0 0 7.232-.355 8.35-7.38l-1.977-13.192c-5.067-1.914-10.8.203-16.762 3.686" fill="#efac8f"/><path d="M55.463 114.62l1.252.38 2.9-10.153-1.252-.38zm-1.965-.597l1.252.38 2.9-10.153-1.25-.38zm-1.935-.588l1.252.38 2.9-10.153-1.25-.38zm-1.903-.577l1.252.38 2.9-10.153-1.25-.38z" fill="#a72a3e"/><path d="M21.8 106.21l-1.977 13.192c1.12 7.023 8.35 7.38 8.35 7.38 17.303-.533 44.162-12.268 44.162-12.268l6.965-3.357c8.118-.47 9.59-1.886 9.59-1.886 4.262-6.6-.62-14.308-.62-14.308-8.143 5.423-10.88 9.58-10.88 9.58l-7.16 1.89c-4.65 1.943-33.43 2.42-33.43 2.42-5.886-3.603-11.206-5.465-15-2.642" fill="#ffbe9d"/><path d="M73.464 114.568l-1.27.312-2.377-10.294 1.27-.313zm1.992-.49l-1.27.312-2.377-10.294 1.27-.313zm1.962-.484l-1.27.313-2.377-10.294 1.27-.313zm1.93-.475l-1.27.312-2.377-10.294 1.27-.313z" fill="#a72a3e"/><path fill="#fff" d="M86.96 78.556H50.732l-1.214 1.326H88.78z"/><g stroke="#333" stroke-width=".25"><path d="M61.067 37.034c.863-.13 1.52-.196 1.968-.196s1.115.065 1.997.196"/><ellipse cx="69.988" cy="37.034" rx="4.956" ry="3.953"/><ellipse cx="56.111" cy="37.034" rx="4.956" ry="3.953"/></g></svg>