<?xml version="1.0" encoding="UTF-8"?>
<svg width="125px" height="124px" viewBox="0 0 125 124" version="1.1" xmlns="http://www.w3.org/2000/svg" xmlns:xlink="http://www.w3.org/1999/xlink">
    <!-- Generator: sketchtool 53.1 (72631) - https://sketchapp.com -->
    <title>C575C9D0-38F5-4168-A504-AC2DF12F074B</title>
    <desc>Created with sketchtool.</desc>
    <defs>
        <polygon id="path-1" points="0.1157 0.4967 16.068 0.4967 16.068 23.5388469 0.1157 23.5388469"></polygon>
    </defs>
    <g id="Portal-Onboarding" stroke="none" stroke-width="1" fill="none" fill-rule="evenodd">
        <g id="Portal-Onboarding-Language-Copy" transform="translate(-658.000000, -279.000000)">
            <g id="Group-7" transform="translate(216.000000, 96.000000)">
                <g id="Group-2">
                    <g id="Group-6" transform="translate(426.000000, 169.000000)">
                        <g id="Group" transform="translate(16.000000, 14.000000)">
                            <circle id="Oval" fill="#E5EDF5" cx="62" cy="61" r="61"></circle>
                            <g id="Group-216" transform="translate(0.000000, 39.000000)">
                                <path d="M122.0625,74.0608 C121.2665,75.5898 118.4025,77.4028 114.2265,78.6128 C112.7145,70.8588 110.0945,56.3958 109.5235,54.2388 C109.5235,54.2388 115.1055,49.5028 117.8575,54.7888 C119.1215,57.2148 124.0685,70.2068 122.0625,74.0608" id="Fill-1" fill="#FFC19F"></path>
                                <path d="M75.336,48.3206 C73.928,51.0996 68.815,48.9036 67.544,51.8756 C73.69,54.9836 78.831,57.1886 79.332,57.1366 C84.547,56.5956 88.387,46.5256 88.792,45.9816 C85.529,44.9236 81.287,45.6166 75.336,48.3206" id="Fill-3" fill="#F95006"></path>
                                <path d="M113.7617,76.9202 C106.3967,76.7182 97.9587,81.9612 92.2507,81.3512 C86.8807,80.7782 86.0707,77.9882 78.9127,77.3122 C78.6177,76.2742 81.0137,74.5312 81.0447,73.9032 C81.5427,63.9442 82.0887,52.4222 82.6417,45.9722 C85.6247,45.4482 102.0487,42.7382 111.8677,46.7912 C113.4807,53.1562 113.8687,68.6072 113.7617,76.9202" id="Fill-5" fill="#F95006"></path>
                                <path d="M87.042,46.8919 C86.997,46.4219 87.105,45.7979 87.196,45.3469 C87.56,45.2849 87.956,45.2149 88.349,45.1629 C92.743,44.5729 98.855,44.2929 104.494,44.9989 C104.51,45.0819 104.532,45.1779 104.538,45.2399 C104.881,48.8639 101.311,52.4669 96.479,52.9229 C91.646,53.3799 87.384,50.5159 87.042,46.8919" id="Fill-7" fill="#A02E07"></path>
                                <path d="M89.1474835,36.1175 L89.1475,46.7855 C89.1395,49.0835 92.0375,50.9575 95.6405,50.9695 C99.2445,50.9805 102.1895,49.1275 102.1975,46.8285 L102.1975,36.1175 L89.1474835,36.1175 Z" id="Fill-9" fill="#FFC19F"></path>
                                <path d="M89.2246,42.4739 C89.1406,42.1199 89.1336,41.7639 89.1526,41.4099 C92.6776,40.4989 98.0306,39.4229 101.9176,39.0269 C101.9766,39.1749 102.0686,39.3069 102.1066,39.4659 C102.7546,42.2069 100.3986,45.1029 96.8406,45.9329 C93.2846,46.7639 89.8736,45.2149 89.2246,42.4739" id="Fill-11" fill="#821C08"></path>
                                <g id="Group-15" transform="translate(108.000000, 45.119500)">
                                    <mask id="mask-2" fill="white">
                                        <use xlink:href="#path-1"></use>
                                    </mask>
                                    <g id="Clip-14"></g>
                                    <path d="M5.7617,2.0927 C7.7317,3.2317 10.2367,8.2617 16.0687,16.8027 C12.7307,19.8647 2.9257,23.5657 2.5647,23.5387 C-0.7353,17.9077 0.3937,0.6487 0.1157,0.4967 C1.2987,0.7667 4.7227,1.4917 5.7617,2.0927" id="Fill-13" fill="#F95006" mask="url(#mask-2)"></path>
                                </g>
                                <path d="M68.9151,76.9202 C67.6161,72.4912 65.1771,43.5352 65.7161,41.5492 C70.4881,45.1662 81.1271,46.8702 81.4271,58.7782 L68.9151,76.9202 Z" id="Fill-16" fill="#FFFFFF"></path>
                                <path d="M65.8125,41.7903 C65.4755,44.9063 67.6305,71.3113 68.9685,76.6003 L81.2875,58.7623 C81.0435,49.8343 74.8625,46.6543 69.8925,44.1193 C68.3785,43.3473 66.9465,42.6153 65.8125,41.7903 L65.8125,41.7903 Z M68.8635,77.2333 L68.7835,76.9573 C67.4115,72.2743 65.0785,43.3783 65.5835,41.5143 L65.6355,41.3163 L65.7975,41.4393 C66.9375,42.3023 68.4345,43.0663 70.0165,43.8753 C75.0595,46.4473 81.3335,49.6423 81.5625,58.7653 L68.8635,77.2333 Z" id="Fill-18" fill="#CCCCCC"></path>
                                <path d="M68.9151,76.9202 C67.6161,72.4912 61.2181,46.8082 61.2011,45.7352 C71.1071,42.8412 80.7921,52.4502 81.4271,58.7782 C81.4191,58.8942 76.6231,76.8052 76.2381,78.4502 C74.7971,77.2362 70.8661,75.9292 68.9151,76.9202" id="Fill-20" fill="#FFFFFF"></path>
                                <path d="M71.0938,76.4466 C72.9678,76.5676 75.1038,77.4216 76.1558,78.2116 C76.5308,76.7036 81.2258,59.0226 81.2868,58.7616 C80.9308,55.3026 77.8628,50.9986 73.8178,48.2706 C69.7998,45.5606 65.3708,44.6966 61.3478,45.8366 C61.6248,47.8816 67.6998,72.2026 69.0008,76.7266 C69.5908,76.4726 70.3208,76.3956 71.0938,76.4466 M76.3218,78.6986 L76.1498,78.5556 C74.6768,77.3146 70.7938,76.1176 68.9758,77.0416 L68.8298,77.1156 L68.7828,76.9576 C67.4958,72.5656 61.0828,46.8816 61.0638,45.7376 L61.0628,45.6346 L61.1628,45.6046 C65.2998,44.3936 69.8468,45.2636 73.9708,48.0436 C78.0868,50.8186 81.2058,55.2296 81.5628,58.7646 C81.5588,58.8396 81.3028,59.8086 79.8478,65.2866 C78.4028,70.7256 76.3218,78.6986 76.3218,78.6986" id="Fill-22" fill="#CCCCCC"></path>
                                <path d="M69.2285,77.095 C67.9295,72.666 58.0145,50.853 57.9985,49.781 C71.1935,45.088 80.4615,54.116 81.4265,58.779 C81.4185,58.894 76.6235,76.805 76.2385,78.45 C74.7965,77.237 71.1795,76.104 69.2285,77.095" id="Fill-24" fill="#FFFFFF"></path>
                                <path d="M71.5303,76.594 C73.2373,76.704 75.1073,77.418 76.1563,78.211 C76.5303,76.703 81.2153,59.063 81.2873,58.762 C80.8283,56.613 78.4733,53.278 74.3733,50.969 C70.9763,49.058 65.4113,47.323 58.1493,49.872 C58.3443,50.715 60.4373,55.574 62.6463,60.704 C65.4063,67.114 68.5263,74.36 69.3133,76.905 C69.9433,76.627 70.7183,76.541 71.5303,76.594 M76.3213,78.698 L76.1493,78.556 C74.7453,77.37 71.1683,76.263 69.2903,77.217 L69.1433,77.291 L69.0963,77.133 C68.3983,74.755 65.2093,67.347 62.3943,60.812 C59.5903,54.297 57.8703,50.28 57.8613,49.782 L57.8593,49.684 L57.9533,49.651 C65.3623,47.018 71.0463,48.784 74.5063,50.732 C78.7023,53.091 81.1043,56.557 81.5623,58.765 C81.5583,58.815 81.3023,59.809 79.8473,65.286 C78.4023,70.726 76.3213,78.698 76.3213,78.698" id="Fill-26" fill="#CCCCCC"></path>
                                <path d="M99.6221,77.8235 C102.7111,73.6355 106.1061,74.0755 105.9731,67.0945 C105.9471,65.7745 106.2751,51.7335 106.2091,47.6245 C95.2051,46.9315 83.2961,49.9225 80.8131,57.1225 C80.7971,57.2365 81.6151,75.6185 81.8141,77.3025 C84.3441,76.3255 87.1801,75.7795 90.1791,75.7915 C93.6131,75.8025 96.8321,76.5445 99.6221,77.8235" id="Fill-28" fill="#FFFFFF"></path>
                                <path d="M80.9512,57.1634 C80.9702,57.7584 81.6942,74.5404 81.9332,77.1114 C84.5232,76.1334 87.2972,75.6424 90.1792,75.6534 C93.4622,75.6764 96.7132,76.3574 99.5782,77.6524 C100.5542,76.3534 101.5662,75.4924 102.4622,74.7314 C104.3972,73.0864 105.9252,71.7844 105.8352,67.0974 C105.8262,66.6034 106.1102,50.4154 106.0732,47.7534 C95.7322,47.1314 83.5072,49.8144 80.9512,57.1634 L80.9512,57.1634 Z M81.7002,77.4934 L81.6792,77.3184 C81.4672,75.5214 80.6712,57.1554 80.6782,57.1024 C83.2822,49.5494 95.7392,46.8294 106.2172,47.4874 L106.3442,47.4964 C106.3442,47.4964 106.1002,66.6034 106.1102,67.0944 C106.2012,71.9094 104.6302,73.2474 102.6382,74.9394 C101.7342,75.7094 100.7092,76.5804 99.7332,77.9054 L99.6672,77.9934 L99.5662,77.9484 C96.7132,76.6404 93.4632,75.9354 90.1792,75.9294 C87.2682,75.9174 84.4722,76.4224 81.8642,77.4314 L81.7002,77.4934 Z" id="Fill-30" fill="#CCCCCC"></path>
                                <path d="M99.6221,77.8235 C102.7111,73.6355 104.9311,69.6855 108.2881,65.7005 C109.1461,64.6815 108.1201,54.5785 107.8861,50.8915 C101.3331,48.6935 86.0481,48.2365 80.8131,57.1225 C80.7971,57.2365 81.6151,75.6185 81.8141,77.3025 C84.3441,76.3255 87.1801,75.7795 90.1791,75.7915 C93.6131,75.8025 96.8321,76.5445 99.6221,77.8235" id="Fill-32" fill="#FFFFFF"></path>
                                <path d="M80.9512,57.1634 C80.9742,57.8174 81.6952,74.5464 81.9332,77.1114 C84.5232,76.1334 87.2972,75.6424 90.1792,75.6534 C93.4622,75.6764 96.7132,76.3574 99.5782,77.6524 C100.7522,76.0564 101.8122,74.4764 102.8392,72.9494 C104.5292,70.4314 106.1272,68.0534 108.1812,65.6114 C108.8372,64.8354 108.2882,57.8544 107.9582,53.6844 C107.8752,52.6344 107.8022,51.7024 107.7552,50.9924 C101.1572,48.8154 86.1632,48.3734 80.9512,57.1634 L80.9512,57.1634 Z M81.7002,77.4934 L81.6792,77.3184 C81.4672,75.5214 80.6712,57.1554 80.6782,57.1024 L80.6902,57.0524 C85.9882,48.0644 101.2932,48.5324 107.9302,50.7634 L108.0172,50.7924 C108.0172,50.7924 108.1432,52.5684 108.2302,53.6634 C108.6982,59.5984 109.0642,64.9924 108.3912,65.7894 C106.3472,68.2174 104.7532,70.5904 103.0642,73.1014 C102.0182,74.6604 100.9352,76.2714 99.7332,77.9054 L99.6672,77.9934 L99.5662,77.9484 C96.7132,76.6404 93.4632,75.9354 90.1792,75.9294 C87.2682,75.9174 84.4722,76.4224 81.8642,77.4314 L81.7002,77.4934 Z" id="Fill-34" fill="#CCCCCC"></path>
                                <path d="M99.6221,77.8235 C102.7111,73.6355 106.8431,69.5945 110.2001,65.6095 C111.0591,64.5905 109.7301,57.3235 109.7301,55.6285 C104.6991,51.1745 91.0571,47.9065 80.8131,57.1225 C80.7971,57.2365 81.6151,75.6185 81.8141,77.3025 C84.3441,76.3255 87.1801,75.7795 90.1791,75.7915 C93.6131,75.8025 96.8321,76.5445 99.6221,77.8235" id="Fill-36" fill="#FFFFFF"></path>
                                <path d="M80.9512,57.1634 C80.9862,58.1034 81.6982,74.5684 81.9332,77.1114 C84.5232,76.1334 87.2972,75.6424 90.1792,75.6534 C93.4622,75.6764 96.7132,76.3574 99.5782,77.6524 C101.4802,75.0874 103.7892,72.5554 106.0212,70.1054 C107.3942,68.5974 108.8162,67.0394 110.0942,65.5204 C110.6462,64.8674 110.1842,61.0494 109.8782,58.5204 C109.7312,57.3054 109.6032,56.2494 109.5952,55.6894 C104.9492,51.6294 91.4402,47.7744 80.9512,57.1634 L80.9512,57.1634 Z M81.7002,77.4934 L81.6792,77.3184 C81.4672,75.5214 80.6712,57.1554 80.6782,57.1024 L80.6902,57.0524 C91.3492,47.4644 105.1492,51.3914 109.8222,55.5244 L109.8692,55.6274 C109.8672,56.1514 109.9992,57.2334 110.1502,58.4864 C110.5782,62.0254 110.8862,65.0104 110.3042,65.6984 C109.0222,67.2194 107.5982,68.7794 106.2232,70.2904 C103.9702,72.7624 101.6382,75.3184 99.7332,77.9054 L99.6672,77.9934 L99.5662,77.9484 C96.7132,76.6404 93.4632,75.9354 90.1792,75.9294 C87.2682,75.9174 84.4722,76.4224 81.8642,77.4314 L81.7002,77.4934 Z" id="Fill-38" fill="#CCCCCC"></path>
                                <path d="M83.4639,57.0823 C83.6719,57.4803 81.7309,58.7973 79.8019,58.8173 C77.8739,58.8383 76.3089,57.6063 76.2849,57.1573 C76.2749,56.9403 83.3769,56.9143 83.4639,57.0823" id="Fill-40" fill="#481651"></path>
                                <path d="M113.7617,83.4026 C112.9497,77.0126 112.2447,65.0436 111.4097,58.4116 C103.3637,51.0716 86.5307,54.7816 83.5167,56.5716 L83.2837,56.7236 C81.3467,58.2906 77.5977,58.0206 76.4817,56.7096 C73.9747,53.7636 65.6587,49.4406 57.9577,53.8926 C57.9767,53.9406 57.6697,54.5206 57.6897,54.5706 C59.7827,60.0066 66.4257,75.5036 69.0197,81.0806 C71.1417,78.4106 81.3907,79.0616 85.0927,82.9376 C85.4497,83.8886 88.7217,84.3496 90.3277,83.1246 C102.0107,78.5216 110.2927,82.3006 113.2847,83.6576 C113.3517,83.6876 113.7007,83.3756 113.7617,83.4026" id="Fill-42" fill="#F47193"></path>
                                <path d="M68.959,81.3558 C66.365,75.7808 59.699,59.8128 57.689,54.5708 C65.83,49.7288 74.874,54.7208 76.699,57.6828 C76.691,57.7978 85.267,81.5508 84.883,83.1968 C81.215,79.3568 71.062,78.7108 68.959,81.3558" id="Fill-44" fill="#BF3452"></path>
                                <path d="M74.6973,76.9749 C77.0043,76.9509 79.4153,77.4749 81.1673,78.6549 C80.4753,76.3209 75.1943,59.8749 75.1223,59.6089 C74.3713,58.3849 72.0173,56.7079 69.1023,55.9909 C66.9993,55.4719 63.8353,55.2639 60.6233,57.1449 C62.1973,61.3449 67.1233,73.5199 69.2683,78.3139 C70.6073,77.4689 72.6083,76.9959 74.6973,76.9749 L74.6973,76.9749 Z M81.8633,79.2559 L81.4503,79.5069 C78.3943,76.9089 72.0203,76.9629 69.3063,78.8999 L68.9273,78.7959 C66.8183,74.1319 61.5913,61.2069 60.0713,57.1219 L60.1763,56.8169 C63.5983,54.7309 66.9833,54.9489 69.2243,55.4959 C72.3233,56.2569 74.7633,58.0229 75.5713,59.3699 C75.5713,59.3699 76.3593,61.8349 77.1923,64.4329 L81.8633,79.2559 Z" id="Fill-46" fill="#FFA727"></path>
                                <path d="M113.2852,83.6575 C112.4802,77.3275 111.7822,65.4695 110.9552,58.8995 C102.9822,51.6275 86.3152,55.3585 83.3292,57.1325 C83.3132,57.2465 89.7372,81.7365 89.9362,83.4215 C101.8352,78.6805 110.4952,82.3775 113.2852,83.6575" id="Fill-48" fill="#BF3452"></path>
                                <path d="M92.4434,80.0667 C95.6844,78.9017 98.6554,78.4647 101.2464,78.4377 C105.4644,78.3937 108.6764,79.4317 110.4324,80.1797 C110.1334,77.7057 109.8484,74.2697 109.5734,70.9397 C109.2814,67.4127 108.9784,63.7637 108.6554,61.1737 C102.5154,55.7067 89.8014,58.5197 87.3034,59.7837 C87.4344,60.3157 87.8674,61.9887 88.3964,64.0287 L92.4434,80.0667 Z M110.6354,80.8267 C108.1064,79.6707 101.2604,77.3427 92.3344,80.6467 L91.9934,80.4387 C91.8834,79.5347 89.3914,69.9077 87.9024,64.1557 C86.7474,59.6967 86.7474,59.6967 86.7594,59.6167 L86.8814,59.4337 C89.2664,58.0237 102.6034,54.9847 109.0674,60.8597 L109.1484,61.0157 C109.4784,63.6217 109.7844,67.3217 110.0824,70.8977 C110.3744,74.4267 110.6764,78.0767 110.9934,80.5627 L110.6354,80.8267 Z" id="Fill-50" fill="#FFA727"></path>
                                <path d="M84.8828,83.1966 C85.2368,84.1386 88.4798,84.6026 90.0708,83.3886 C90.0128,83.0046 83.4638,57.0826 83.4638,57.0826 C81.5628,58.7646 77.3688,58.5086 76.2848,57.1576 L84.8828,83.1966 Z" id="Fill-52" fill="#B22248"></path>
                                <path d="M89.124,79.554 C88.033,80.2 86.581,80.381 85.442,80.283 C84.816,80.23 84.255,80.096 83.798,79.91 L83.995,80.51 C84.419,80.642 84.881,80.747 85.398,80.791 C85.639,80.812 85.895,80.822 86.16,80.819 C87.178,80.808 88.32,80.601 89.259,80.094 C89.216,79.921 89.17,79.738 89.124,79.554 M84.221,60.081 L84.094,60.194 C82.995,61.166 81.19,61.392 79.853,61.279 C78.713,61.183 77.768,60.827 77.34,60.35 L77.611,61.175 C78.18,61.489 78.933,61.712 79.81,61.786 C80.049,61.808 80.304,61.818 80.568,61.815 C81.853,61.801 83.344,61.481 84.358,60.625 C84.312,60.439 84.265,60.256 84.221,60.081" id="Fill-54" fill="#000000"></path>
                                <path d="M100.919,73.2142 C100.995,73.5542 101.085,74.2682 103.63,74.6862 C104.05,74.7552 101.639,74.7372 101.977,75.1172 C102.92,76.1792 104.648,77.8562 107.763,78.4372 C115.224,79.8272 118.69,77.1572 119.405,75.4642 C119.909,74.2732 117.974,67.5092 112.163,66.2302 C112.158,67.1002 112.634,69.9502 112.093,70.2032 C111.352,70.5492 109.423,69.7402 107.493,69.4602 C103.426,68.8692 100.494,69.7782 101.299,70.9242 C101.577,71.3192 108.214,72.7152 108.228,72.9582 C108.241,73.2002 100.862,72.9592 100.919,73.2142" id="Fill-56" fill="#FFC19F"></path>
                                <path d="M75.6651,22.4173 C75.6651,22.4173 70.0571,-0.1347 95.9181,0.0263 L91.9791,10.2353 L75.6651,22.4173 Z" id="Fill-58" fill="#010000"></path>
                                <path d="M113.9297,15.8616 C113.3967,25.0786 106.8137,32.9566 97.5927,33.4196 C88.3707,33.8826 80.5217,26.7816 80.0587,17.5606 C79.5967,8.3396 86.6967,0.4896 95.9177,0.0266 C105.1387,-0.4364 114.5517,5.1106 113.9297,15.8616" id="Fill-60" fill="#010000"></path>
                                <path d="M83.1348,26.8929 C83.1468,29.7339 80.8538,32.0459 78.0128,32.0579 C75.1718,32.0709 72.8598,29.7779 72.8478,26.9369 C72.8348,24.0959 75.1278,21.7839 77.9688,21.7709 C80.8098,21.7589 83.1218,24.0519 83.1348,26.8929" id="Fill-62" fill="#EB996E"></path>
                                <path d="M89.0586,4.7054 C89.0586,4.7054 80.3026,4.3084 77.1526,14.3384 C74.0016,24.3684 77.1716,41.9654 89.7996,43.3794 C100.7846,44.6084 109.1336,38.9254 109.7266,27.5534 C110.3906,14.8094 108.0666,2.7364 89.0586,4.7054" id="Fill-64" fill="#FFBE9D"></path>
                                <path d="M109.7949,22.2434 L106.7059,26.6274 L104.0799,25.5394 C104.0799,25.5394 106.3879,15.7024 103.0739,10.5684 L109.8409,10.2284 L109.7949,22.2434 Z" id="Fill-66" fill="#010000"></path>
                                <path d="M116.917,26.6038 C116.929,29.5368 114.562,31.9248 111.629,31.9368 C108.695,31.9498 106.308,29.5828 106.295,26.6488 C106.282,23.7158 108.649,21.3288 111.583,21.3158 C114.516,21.3028 116.904,23.6698 116.917,26.6038" id="Fill-68" fill="#FFBE9D"></path>
                                <path d="M109.2041,28.4017 C109.1851,28.4017 109.1661,28.3997 109.1471,28.3937 C109.0291,28.3627 108.9591,28.2417 108.9911,28.1247 C109.0011,28.0847 110.0951,24.1547 114.2811,25.1587 C114.3991,25.1867 114.4731,25.3057 114.4441,25.4237 C114.4161,25.5437 114.2981,25.6207 114.1791,25.5887 C110.4171,24.6927 109.4571,28.0927 109.4181,28.2377 C109.3911,28.3377 109.3021,28.4017 109.2041,28.4017" id="Fill-70" fill="#010000"></path>
                                <path d="M80.0371,6.0716 C80.0371,6.0716 76.8811,13.3756 88.3091,14.1376 C88.3091,14.1376 85.5411,11.5486 85.4351,9.4616 C85.4351,9.4616 89.7451,16.6156 110.7071,16.7696 C110.7071,16.7696 111.3591,8.4656 104.4601,5.0486 C97.5601,1.6316 80.0371,6.0716 80.0371,6.0716" id="Fill-72" fill="#010000"></path>
                                <path d="M82.6445,3.2249 C82.6445,3.2249 77.9625,3.0709 74.6295,7.6849 C74.6295,7.6849 77.0045,7.1929 80.9845,7.6779 L82.6445,3.2249 Z" id="Fill-74" fill="#010000"></path>
                                <path d="M86.9219,32.4075 C86.8169,32.4075 86.7229,32.3315 86.7039,32.2225 C86.6959,32.1735 86.5109,31.0035 87.2069,30.5425 C87.7589,30.1775 88.6209,30.3785 89.8419,31.1535 C89.9439,31.2195 89.9749,31.3555 89.9089,31.4585 C89.8449,31.5615 89.7069,31.5925 89.6049,31.5265 C88.5909,30.8825 87.8249,30.6655 87.4519,30.9105 C87.0709,31.1615 87.0979,31.8905 87.1409,32.1515 C87.1599,32.2715 87.0779,32.3855 86.9579,32.4045 C86.9459,32.4065 86.9339,32.4075 86.9219,32.4075" id="Fill-76" fill="#010000"></path>
                                <path d="M86.4151,25.6028 C86.4151,25.6028 86.7071,25.0788 86.5681,24.5438 C86.4331,24.0148 81.5861,19.9588 78.3541,24.9008 C78.3541,24.9008 81.9581,29.9348 86.4151,25.6028" id="Fill-78" fill="#FFFFFF"></path>
                                <path d="M85.6338,24.638 C85.6338,25.78 84.7138,26.703 83.5708,26.703 C82.4308,26.703 81.5058,25.78 81.5058,24.638 C81.5058,23.5 82.4308,22.575 83.5708,22.575 C84.7138,22.575 85.6338,23.5 85.6338,24.638" id="Fill-80" fill="#2C1117"></path>
                                <path d="M84.5381,24.638 C84.5381,25.175 84.1051,25.61 83.5711,25.61 C83.0331,25.61 82.6001,25.175 82.6001,24.638 C82.6001,24.104 83.0331,23.669 83.5711,23.669 C84.1051,23.669 84.5381,24.104 84.5381,24.638" id="Fill-82" fill="#040000"></path>
                                <path d="M79.8789,26.3763 L77.9939,25.3253 L77.6609,25.1383 L77.8879,24.5973 L77.8879,24.5943 C78.1589,24.2513 78.3769,23.8723 78.6939,23.5603 C79.0199,23.2513 79.3439,22.9463 79.7439,22.7223 C79.9279,22.5903 80.1259,22.4803 80.3459,22.4033 C80.5599,22.3263 80.7579,22.2033 80.9859,22.1743 C81.4289,22.0443 81.8849,22.0163 82.3299,22.0393 C83.2259,22.1083 84.0499,22.4143 84.7829,22.8303 C85.1499,23.0413 85.4959,23.2813 85.8189,23.5443 C85.9739,23.6883 86.1399,23.8133 86.2749,23.9783 C86.4149,24.1393 86.5579,24.2723 86.6499,24.5223 L86.6559,24.5283 L86.6559,24.5343 C86.6589,24.8543 86.5469,25.1473 86.4889,25.4383 C86.4909,25.1323 86.5419,24.8383 86.4789,24.5553 L86.4839,24.5653 C86.2779,24.3063 85.9059,24.0673 85.5929,23.8553 C85.2559,23.6493 84.9039,23.4693 84.5429,23.3233 C83.8219,23.0323 83.0549,22.8743 82.3209,22.9183 C81.5939,22.9783 80.9089,23.1933 80.3259,23.6163 C79.7249,24.0083 79.2839,24.6203 78.8209,25.2043 L78.7139,24.4763 L79.8789,26.3763 Z" id="Fill-84" fill="#030000"></path>
                                <path d="M83.1719,23.9339 C83.1719,24.2049 82.9479,24.4249 82.6789,24.4249 C82.4099,24.4249 82.1879,24.2049 82.1879,23.9339 C82.1879,23.6629 82.4099,23.4429 82.6789,23.4429 C82.9479,23.4429 83.1719,23.6629 83.1719,23.9339" id="Fill-86" fill="#F0F0ED"></path>
                                <path d="M92.0938,25.5442 C92.0938,25.5442 91.8028,25.0202 91.9398,24.4862 C92.0798,23.9562 96.9188,19.9012 100.1518,24.8432 C100.1518,24.8432 96.5468,29.8772 92.0938,25.5442" id="Fill-88" fill="#FFFFFF"></path>
                                <path d="M94.1387,24.5794 C94.1387,25.7224 95.0617,26.6444 96.2037,26.6444 C97.3427,26.6444 98.2677,25.7224 98.2677,24.5794 C98.2677,23.4424 97.3427,22.5164 96.2037,22.5164 C95.0617,22.5164 94.1387,23.4424 94.1387,24.5794" id="Fill-90" fill="#2C1117"></path>
                                <path d="M95.2334,24.5794 C95.2334,25.1164 95.6654,25.5524 96.2044,25.5524 C96.7414,25.5524 97.1704,25.1164 97.1704,24.5794 C97.1704,24.0464 96.7414,23.6104 96.2044,23.6104 C95.6654,23.6104 95.2334,24.0464 95.2334,24.5794" id="Fill-92" fill="#040000"></path>
                                <path d="M98.627,26.3186 L99.79,24.4186 L99.687,25.1456 L99.685,25.1456 C99.22,24.5616 98.775,23.9496 98.179,23.5566 C97.599,23.1346 96.912,22.9196 96.186,22.8596 C95.452,22.8156 94.686,22.9756 93.964,23.2666 C93.603,23.4106 93.252,23.5926 92.917,23.7986 C92.601,24.0106 92.229,24.2476 92.022,24.5066 L92.025,24.4956 C91.969,24.7796 92.017,25.0746 92.022,25.3796 C91.964,25.0886 91.852,24.7976 91.852,24.4776 L91.852,24.4706 L91.856,24.4636 C91.95,24.2146 92.092,24.0816 92.232,23.9196 C92.367,23.7556 92.534,23.6306 92.687,23.4876 C93.013,23.2226 93.357,22.9826 93.722,22.7716 C94.455,22.3556 95.278,22.0506 96.177,21.9806 C96.621,21.9586 97.077,21.9856 97.52,22.1146 C97.747,22.1456 97.944,22.2686 98.161,22.3456 C98.377,22.4226 98.575,22.5316 98.76,22.6636 C99.16,22.8876 99.484,23.1936 99.81,23.5026 C100.127,23.8146 100.346,24.1936 100.613,24.5356 L100.613,24.5396 L100.847,25.0796 L100.51,25.2666 L98.627,26.3186 Z" id="Fill-94" fill="#030000"></path>
                                <path d="M96.6026,23.8763 C96.6026,24.1463 96.8236,24.3673 97.0986,24.3673 C97.3636,24.3673 97.5866,24.1463 97.5866,23.8763 C97.5866,23.6053 97.3636,23.3843 97.0986,23.3843 C96.8236,23.3843 96.6026,23.6053 96.6026,23.8763" id="Fill-96" fill="#F0F0ED"></path>
                                <path d="M85.9717,35.7474 L93.5157,34.6644 C93.5157,34.6644 93.7197,38.1134 90.2637,38.1884 C86.8077,38.2644 85.9717,35.7474 85.9717,35.7474" id="Fill-98" fill="#FFFFFF"></path>
                                <path d="M77.6611,19.347 C77.6611,19.347 80.4271,17.288 84.9811,19.316 C84.9811,19.316 85.0361,16.666 81.3141,16.676 C78.3621,16.683 77.6611,19.347 77.6611,19.347" id="Fill-100" fill="#010000"></path>
                                <path d="M100.3457,19.2513 C100.3457,19.2513 97.0157,17.2193 91.5817,19.2893 C91.5817,19.2893 91.4917,16.6413 95.9477,16.6153 C99.4807,16.5953 100.3457,19.2513 100.3457,19.2513" id="Fill-102" fill="#010000"></path>
                                <path d="M0,57.3382 C2.729,58.9692 8.481,62.7202 11.539,63.6352 C15.635,58.3922 19.487,42.3952 19.4830031,41.8862 C15.888,42.1132 11.709,42.5872 10.554,43.2142 C8.503,45.9122 2.938,52.9392 0,57.3382" id="Fill-104" fill="#FF2C5E"></path>
                                <path d="M57.2012,57.4173 C54.4722,59.0483 48.7202,62.7993 45.6612,63.7143 C41.5652,58.4703 37.7132,42.4733 37.7171969,41.9653 C41.3122,42.1923 45.4912,42.6663 46.6472,43.2933 C48.6972,45.9913 54.2632,53.0183 57.2012,57.4173" id="Fill-106" fill="#FF2C5E"></path>
                                <path d="M9.1973,76.4143 C18.5603,81.5963 36.0033,82.4923 47.4263,75.1733 C47.4263,75.1733 44.4083,49.6093 42.9553,42.7883 C35.0833,40.7563 20.4033,41.3333 13.1913,42.4913 C12.1373,51.1963 10.4343,63.5583 9.1973,76.4143" id="Fill-108" fill="#FF2C5E"></path>
                                <path d="M37.0137,43.2122 C37.0347,42.7432 36.9557,42.2912 36.8437,41.8462 C32.0247,41.5202 24.7847,41.4162 19.6237,41.8272 C19.5837,42.0292 19.4977,42.2192 19.4887,42.4292 C19.3267,46.0592 23.1177,49.1772 27.9567,49.3942 C32.7967,49.6092 36.8517,46.8432 37.0137,43.2122" id="Fill-110" fill="#FFC19F"></path>
                                <path d="M34.4443,33.1546 L34.3333,43.4076 C34.3083,45.6126 31.4883,47.3696 28.0313,47.3326 C24.5743,47.2946 21.7923,45.4756 21.8153,43.2716 L21.9263,33.0186 L34.4443,33.1546 Z" id="Fill-112" fill="#FFC19F"></path>
                                <path d="M35.1006,38.8704 C35.1176,38.5104 35.0566,38.1624 34.9696,37.8204 C31.2666,37.5704 25.7046,37.4894 21.7386,37.8064 C21.7076,37.9614 21.6416,38.1064 21.6346,38.2684 C21.5096,41.0584 24.4236,43.4534 28.1426,43.6204 C31.8606,43.7864 34.9766,41.6594 35.1006,38.8704" id="Fill-114" fill="#601805"></path>
                                <path d="M52.0156,77.5179 C52.7446,74.5559 54.9426,56.3919 55.6126,51.7409 C49.3776,50.3289 35.0086,51.5839 29.2076,62.6249 C29.2036,62.7319 33.7776,77.0319 34.1346,78.5469 C36.3526,77.4299 49.3266,76.6039 52.0156,77.5179" id="Fill-116" fill="#FFF8E9"></path>
                                <path d="M29.2383,62.6634 C29.2853,62.8374 33.8713,77.3584 34.1543,78.4914 C35.3733,77.9104 39.3993,77.4544 42.8853,77.2444 C46.1533,77.0494 50.4753,76.9954 51.9793,77.4824 C52.4913,75.3424 53.7113,65.9274 54.6033,59.0384 C55.0053,55.9434 55.3513,53.2674 55.5583,51.8244 C49.7483,50.5264 35.1423,51.4584 29.2383,62.6634 M34.1173,78.6284 L34.0923,78.5764 C33.8633,77.6014 31.8333,71.1884 30.4933,66.9364 C29.3443,63.2944 29.1583,62.6924 29.1593,62.6494 C32.3733,56.5334 38.0443,53.7384 42.2303,52.4944 C47.5823,50.9024 52.7863,51.1004 55.6123,51.7404 L55.6503,51.7364 C55.6503,51.7364 55.0863,55.9254 54.6803,59.0594 C53.7813,66.0014 52.5493,75.5074 52.0433,77.5634 L52.0313,77.6094 L51.9973,77.5984 C49.4383,76.7264 36.3973,77.4804 34.1173,78.6284" id="Fill-118" fill="#F7E3BF"></path>
                                <path d="M56.0283,68.8157 C56.1433,68.5517 56.9723,56.9167 57.1953,54.7797 C51.4383,52.2367 36.7233,53.1667 29.0923,62.7677 C29.0903,62.8737 33.7773,77.0317 34.1343,78.5467 C36.3523,77.4297 52.9713,70.6567 56.0283,68.8157" id="Fill-120" fill="#F9E7D4"></path>
                                <path d="M29.1367,62.7864 C29.1937,62.9804 33.8637,77.3354 34.1547,78.4914 C34.9957,78.0734 37.5797,76.9614 40.8317,75.5764 C46.4017,73.2044 54.0247,69.9574 55.9987,68.7744 C56.0707,68.4644 56.3667,64.6384 56.6297,61.2544 C56.8477,58.4444 57.0537,55.7884 57.1537,54.8154 C54.0327,53.4524 48.8197,53.2364 43.8547,54.2724 C37.7207,55.5504 32.4947,58.5734 29.1367,62.7864 L29.1367,62.7864 Z M34.1167,78.6284 L34.0927,78.5764 C33.8597,77.5854 31.7517,71.0904 30.3537,66.8014 C29.2237,63.3354 29.0537,62.8074 29.0557,62.7644 C32.4237,58.5264 37.6827,55.4494 43.8407,54.1664 C48.8337,53.1264 54.0807,53.3464 57.2067,54.7274 L57.2397,54.7424 C57.2397,54.7424 56.9287,58.4134 56.7067,61.2674 C56.3497,65.8834 56.1267,68.6954 56.0627,68.8444 C54.1067,70.0224 46.4407,73.3004 40.8557,75.6804 C37.6857,77.0294 34.9487,78.1954 34.1497,78.5974 L34.1167,78.6284 Z" id="Fill-122" fill="#F7E3BF"></path>
                                <path d="M8.7695,77.5901 C6.2385,73.5201 7.5695,69.8351 4.7765,65.9291 C4.0625,64.9301 3.0695,56.7401 2.2495,52.0951 C8.4385,50.6331 21.9025,51.3051 28.9865,62.5041 C28.9935,62.6111 25.4925,77.0641 25.1845,78.5821 C22.9305,77.4841 20.3625,76.7531 17.6035,76.5161 C14.4445,76.2441 11.4295,76.6541 8.7695,77.5901" id="Fill-124" fill="#FFF8E9"></path>
                                <path d="M15.6191,76.3811 C16.2801,76.3781 16.9421,76.4051 17.6051,76.4621 C20.2861,76.6931 22.8261,77.3831 25.1581,78.5131 C25.3691,77.5101 28.8871,62.8071 28.9441,62.5211 C22.2101,51.9001 9.3411,50.4901 2.2981,52.1391 C2.5481,53.5661 2.8081,55.2801 3.0851,57.0941 C3.6911,61.0851 4.3191,65.2131 4.8041,65.8921 C6.2601,67.9271 6.6081,69.9451 6.9451,71.8991 C7.2591,73.7121 7.5831,75.5891 8.7831,77.5301 C10.9231,76.7801 13.2541,76.3911 15.6191,76.3811 M25.2111,78.6521 L25.1721,78.6331 C22.8371,77.4941 20.2901,76.8001 17.6011,76.5691 C14.5691,76.3101 11.5151,76.6791 8.7801,77.6421 C7.5551,75.6721 7.1871,73.7561 6.8701,71.9211 C6.5191,69.8951 6.1891,67.9811 4.7491,65.9661 C4.2471,65.2641 3.6181,61.1211 3.0091,57.1141 C2.7291,55.2771 2.2031,52.0521 2.2031,52.0521 L2.2431,52.0431 C5.2081,51.3421 10.1911,51.0941 15.2891,52.4991 C21.1681,54.1191 25.9131,57.5651 29.0141,62.4671 C29.0161,62.5161 28.8021,63.5041 27.6021,68.5181 C26.6201,72.6251 25.2111,78.6521 25.2111,78.6521" id="Fill-126" fill="#F7E3BF"></path>
                                <path d="M4.9336,69.4954 C4.8086,69.2324 1.4116,57.3284 0.9096,55.1014 C6.9326,52.0014 20.8906,52.4744 28.9866,62.5044 C28.9936,62.6104 25.4926,77.0634 25.1846,78.5824 C22.9306,77.4834 8.0476,71.3114 4.9336,69.4954" id="Fill-128" fill="#F9E7D4"></path>
                                <path d="M4.96,69.4534 C7.027,70.6544 14.207,73.7504 19.452,76.0124 C22.187,77.1904 24.356,78.1264 25.158,78.5134 C25.369,77.5114 28.882,62.8284 28.944,62.5204 C24.356,56.8504 18.377,54.7214 14.166,53.9324 C9.267,53.0154 4.21,53.4754 0.957,55.1344 C1.517,57.5794 4.776,68.9554 4.96,69.4534 M25.211,78.6514 L25.172,78.6334 C24.404,78.2594 22.209,77.3124 19.431,76.1144 C14.173,73.8474 6.973,70.7424 4.919,69.5454 C4.81,69.3124 1.406,57.4874 0.872,55.1164 L0.86,55.0684 L0.895,55.0514 C4.157,53.3714 9.245,52.9024 14.176,53.8254 C18.402,54.6184 24.409,56.7624 29.014,62.4674 C29.017,62.5164 28.802,63.5044 27.603,68.5174 C26.62,72.6254 25.211,78.6514 25.211,78.6514" id="Fill-130" fill="#F7E3BF"></path>
                                <path d="M0.2959,58.9622 C0.5199,58.7222 0.5779,58.6702 0.8469,58.4182 C10.9559,55.8342 19.7579,58.2252 25.4219,62.4962 C25.6399,64.1402 26.5009,80.9102 26.1329,83.0382 C18.0559,80.6282 7.5139,57.3852 0.2959,58.9622" id="Fill-132" fill="#CF79DB"></path>
                                <path d="M58.3516,58.9622 C58.1276,58.7222 58.0696,58.6702 57.8006,58.4182 C47.6916,55.8342 38.8896,58.2252 33.2246,62.4962 C33.0076,64.1402 32.1476,80.9102 32.5146,83.0382 C40.5916,80.6282 51.1336,57.3852 58.3516,58.9622" id="Fill-134" fill="#CF79DB"></path>
                                <path d="M52.2539,81.9964 C53.8709,75.4404 56.6729,66.0574 58.3519,58.9624 C48.1219,55.8214 38.9829,58.8274 33.3199,62.9744 C33.1039,64.5704 31.7989,81.3234 32.1679,83.3904 C40.2439,81.0504 45.0349,80.4634 52.2539,81.9964" id="Fill-136" fill="#A841B7"></path>
                                <path d="M50.6729,79.385 C51.2509,77.06 51.9979,74.34 52.7869,71.465 C53.7319,68.031 54.7079,64.481 55.4319,61.443 C48.6989,59.432 41.4309,60.614 35.9299,64.608 C35.7109,66.405 34.8159,78.228 34.9969,80.474 C38.7869,79.383 41.7539,78.747 44.9269,78.747 C46.7159,78.747 48.5699,78.949 50.6729,79.385 M34.7399,80.893 C34.6959,80.864 34.6669,80.817 34.6569,80.763 C34.3569,79.081 35.4219,65.581 35.5719,64.465 C35.5799,64.411 35.6099,64.362 35.6509,64.329 C41.3019,60.197 48.7959,58.993 55.7079,61.114 C55.8049,61.143 55.8629,61.249 55.8369,61.354 C55.1059,64.44 54.1109,68.068 53.1469,71.576 C52.3359,74.524 51.5709,77.307 50.9879,79.667 C50.9639,79.77 50.8639,79.832 50.7729,79.812 C44.8519,78.559 40.9329,79.164 34.8879,80.916 L34.8399,80.924 C34.8059,80.924 34.7719,80.914 34.7399,80.893" id="Fill-138" fill="#FFA727"></path>
                                <path d="M6.3936,81.9964 C4.7776,75.4404 1.9746,66.0574 0.2956,58.9624 C10.5256,55.8214 19.6646,58.8274 25.3276,62.9744 C25.5436,64.5704 26.8476,81.3234 26.4796,83.3904 C18.4036,81.0504 13.6126,80.4634 6.3936,81.9964" id="Fill-140" fill="#A841B7"></path>
                                <path d="M13.7207,78.7474 C16.8937,78.7474 19.8607,79.3834 23.6507,80.4744 C23.8317,78.2274 22.9367,66.4044 22.7177,64.6074 C17.2167,60.6134 9.9487,59.4324 3.2167,61.4424 C3.9397,64.4804 4.9157,68.0314 5.8607,71.4654 C6.6497,74.3404 7.3967,77.0604 7.9747,79.3854 C10.0767,78.9494 11.9317,78.7474 13.7207,78.7474 M23.8077,80.9244 L23.7587,80.9164 C17.7147,79.1644 13.7957,78.5594 7.8747,79.8114 C7.7837,79.8324 7.6827,79.7694 7.6587,79.6674 C7.0757,77.3074 6.3117,74.5234 5.5007,71.5764 C4.5367,68.0674 3.5417,64.4394 2.8107,61.3534 C2.7837,61.2494 2.8427,61.1434 2.9397,61.1134 C9.8517,58.9934 17.3457,60.1964 22.9967,64.3294 C23.0377,64.3614 23.0677,64.4114 23.0747,64.4654 C23.2257,65.5814 24.2907,79.0814 23.9907,80.7634 C23.9807,80.8164 23.9507,80.8644 23.9077,80.8934 C23.8757,80.9144 23.8417,80.9244 23.8077,80.9244" id="Fill-142" fill="#FFA727"></path>
                                <path d="M33.2666,62.9515 C33.2716,63.2775 31.6046,63.9355 29.3566,63.9445 C27.1076,63.9545 25.2736,63.2955 25.3276,62.9735 C25.3646,62.7475 27.1126,62.1865 29.3616,62.1775 C31.6106,62.1685 33.2636,62.7675 33.2666,62.9515" id="Fill-144" fill="#481651"></path>
                                <path d="M25.4121,65.0813 C25.3961,64.0613 25.3271,63.1003 25.3191,62.4193 C28.3031,63.1673 30.5591,63.2173 33.2671,62.4643 C33.3101,62.9143 33.0851,64.8633 33.1411,65.4003 C31.2041,66.2703 27.0331,66.5613 25.4121,65.0813" id="Fill-146" fill="#CF79DB"></path>
                                <path d="M26.4795,83.3899 C26.2395,77.8229 25.5975,69.7409 25.3275,62.9739 C28.2815,63.5359 30.5575,63.6829 33.2665,62.9519 C33.2735,64.5659 33.0815,79.7849 32.9225,83.1739 C31.8135,84.1779 28.0995,84.3179 26.4795,83.3899" id="Fill-148" fill="#8B2D9B"></path>
                                <path d="M33.2412,66.014 C33.2432,65.822 33.2452,65.636 33.2472,65.457 C32.6192,66.059 31.0322,66.477 28.9952,66.477 C27.5252,66.477 26.2892,66.256 25.4632,65.911 C25.4702,66.072 25.4802,66.235 25.4882,66.395 C25.5372,66.415 25.5732,66.439 25.6332,66.458 C26.5222,66.753 27.7172,66.916 28.9952,66.916 C30.6732,66.916 32.3162,66.618 33.2412,66.014" id="Fill-150" fill="#000000"></path>
                                <path d="M29.3945,81.5843 C30.7165,81.5843 32.0385,81.4073 32.9925,81.0383 C32.9965,80.8833 32.9995,80.7233 33.0045,80.5583 C32.1795,80.9183 30.9015,81.1473 29.3945,81.1473 C28.1815,81.1473 27.1485,80.9853 26.3465,80.7413 C26.3545,80.8923 26.3645,81.0553 26.3725,81.2033 C27.2195,81.4383 28.2565,81.5843 29.3945,81.5843" id="Fill-152" fill="#000000"></path>
                                <path d="M51.1484,70.1897 C50.3284,69.6877 48.5654,68.4057 47.7734,69.3577 C47.4464,69.7497 49.0504,70.8967 50.5654,72.0117 C51.0714,72.3837 51.3504,72.3087 53.0214,73.0027 C52.9904,73.1717 52.0494,73.0857 50.9814,72.6297 C50.4004,72.3827 49.1534,70.6037 48.0054,71.6597 C47.8094,71.8407 49.6854,73.7107 50.1294,74.1417 C50.8384,74.8307 55.7084,77.3447 56.0404,77.3527 C57.4324,77.3847 58.6394,76.4717 59.1874,74.6837 C59.4544,73.2347 58.7834,69.1677 57.3504,66.6747 C55.7354,65.6457 54.5264,65.1387 53.2864,64.5797 C49.6264,63.7787 47.9314,63.2367 47.8474,63.9637 C47.6484,65.7057 50.6084,66.2937 52.0804,66.7707 C53.2164,67.2497 54.3724,67.9957 54.9144,68.3947 C54.8934,68.7077 53.0114,67.6427 51.9054,67.1797 C50.9714,66.8577 47.6374,65.9627 47.5174,66.6117 C47.1964,68.3537 48.8354,68.2217 51.1794,69.3037 C52.0794,69.7937 53.6704,70.8767 53.7124,71.0607 C53.4274,71.2087 52.9104,70.9397 51.1484,70.1897" id="Fill-154" fill="#FFC19F"></path>
                                <path d="M7.9092,70.0804 C8.7002,69.5354 10.3912,68.1594 11.2342,69.0664 C11.5812,69.4404 10.0422,70.6734 8.5902,71.8684 C8.1042,72.2684 7.8222,72.2074 6.1902,72.9914 C6.2302,73.1584 7.1652,73.0194 8.2072,72.5084 C8.7742,72.2294 9.9232,70.3864 11.1262,71.3784 C11.3322,71.5494 9.5602,73.5174 9.1392,73.9724 C8.4692,74.6974 3.7432,77.4724 3.4122,77.4974 C2.0232,77.6054 0.7692,76.7594 0.1252,75.0034 C-0.2198,73.5704 0.2292,69.4734 1.5252,66.9074 C3.0832,65.7914 4.2622,65.2204 5.4712,64.5944 C9.0812,63.5974 10.7452,62.9634 10.8672,63.6854 C11.1612,65.4134 8.2372,66.1604 6.7932,66.7174 C5.6832,67.2574 4.5712,68.0644 4.0512,68.4924 C4.0892,68.8034 5.9102,67.6384 6.9902,67.1164 C7.9042,66.7434 11.1862,65.6704 11.3412,66.3104 C11.7562,68.0344 10.1122,67.9904 7.8302,69.1984 C6.9582,69.7364 5.4282,70.9034 5.3952,71.0894 C5.6872,71.2214 6.1902,70.9244 7.9092,70.0804" id="Fill-156" fill="#FFC19F"></path>
                                <path d="M10.0117,9.3987 C10.0117,9.3987 2.0627,19.2767 3.3427,36.9607 L50.1577,38.3667 C50.1577,38.3667 55.2547,12.7817 37.6997,3.6457 L10.0117,9.3987 Z" id="Fill-158" fill="#010000"></path>
                                <path d="M46.5303,18.6556 C46.0883,28.0006 37.0393,35.1656 26.3193,34.6586 C15.5993,34.1516 7.2663,26.1656 7.7093,16.8206 C8.1503,7.4746 17.1993,0.3106 27.9203,0.8176 C38.6393,1.3246 46.9713,9.3106 46.5303,18.6556" id="Fill-160" fill="#010000"></path>
                                <path d="M48.7676,28.1399 C48.6626,30.3729 46.7656,32.0989 44.5316,31.9939 C42.2966,31.8879 40.5726,29.9919 40.6776,27.7569 C40.7836,25.5239 42.6796,23.7979 44.9136,23.9039 C47.1476,24.0089 48.8726,25.9059 48.7676,28.1399" id="Fill-162" fill="#F4A179"></path>
                                <path d="M27.5332,5.5267 C28.7792,5.3897 30.0362,5.4557 31.2722,5.6637 C35.2742,6.3387 43.8042,8.6837 45.9302,16.5407 C48.7372,26.9037 45.4082,39.5467 33.6422,41.4227 C24.1372,42.9407 11.2232,36.4987 12.1762,23.5837 C13.0672,11.4757 19.4222,6.4217 27.5332,5.5267" id="Fill-164" fill="#FDB68D"></path>
                                <path d="M35.7822,31.5276 C35.6782,31.5276 35.5862,31.4496 35.5732,31.3426 C35.5722,31.3376 35.4972,30.7686 35.1192,30.6236 C34.7712,30.4906 34.2342,30.7256 33.5612,31.3056 C33.4722,31.3816 33.3402,31.3726 33.2632,31.2846 C33.1872,31.1956 33.1982,31.0616 33.2852,30.9866 C34.0962,30.2876 34.7652,30.0326 35.2732,30.2306 C35.8862,30.4686 35.9872,31.2586 35.9912,31.2916 C36.0052,31.4076 35.9242,31.5116 35.8082,31.5256 C35.8002,31.5266 35.7912,31.5276 35.7822,31.5276" id="Fill-166" fill="#010000"></path>
                                <path d="M33.2705,36.6663 C30.6215,36.6663 29.0175,35.3313 28.9485,35.2723 C28.8305,35.1723 28.8155,34.9953 28.9165,34.8773 C29.0155,34.7593 29.1935,34.7433 29.3125,34.8443 C29.3285,34.8573 30.9595,36.2253 33.5945,36.0983 C36.1535,35.9853 36.9735,34.8183 36.9825,34.8073 C37.0685,34.6803 37.2435,34.6443 37.3715,34.7303 C37.4995,34.8153 37.5355,34.9873 37.4515,35.1173 C37.4135,35.1753 36.4925,36.5333 33.6195,36.6593 C33.5005,36.6643 33.3845,36.6663 33.2705,36.6663" id="Fill-168" fill="#010000"></path>
                                <path d="M43.7256,20.6468 C43.7256,20.6468 41.0836,18.6818 36.7366,20.6178 C36.7366,20.6178 36.6836,18.0878 40.2376,18.0968 C43.0556,18.1038 43.7256,20.6468 43.7256,20.6468" id="Fill-170" fill="#010000"></path>
                                <path d="M22.0654,20.5559 C22.0654,20.5559 25.2464,18.6169 30.4324,20.5919 C30.4324,20.5919 30.5194,18.0639 26.2654,18.0389 C22.8914,18.0199 22.0654,20.5559 22.0654,20.5559" id="Fill-172" fill="#010000"></path>
                                <path d="M30.668,25.9485 C30.668,25.9485 30.982,25.6995 30.838,25.1455 C30.692,24.5915 25.643,20.3635 22.277,25.5165 C22.277,25.5165 27.055,30.1805 30.668,25.9485" id="Fill-174" fill="#FFFFFF"></path>
                                <path d="M28.5742,25.2434 C28.5742,26.4304 27.6062,27.3944 26.4222,27.3944 C25.2302,27.3944 24.2712,26.4304 24.2712,25.2434 C24.2712,24.0534 25.2302,23.0914 26.4222,23.0914 C27.6062,23.0914 28.5742,24.0534 28.5742,25.2434" id="Fill-176" fill="#2C1117"></path>
                                <path d="M27.4346,25.2434 C27.4346,25.8014 26.9796,26.2554 26.4216,26.2554 C25.8616,26.2554 25.4126,25.8014 25.4126,25.2434 C25.4126,24.6834 25.8616,24.2304 26.4216,24.2304 C26.9796,24.2304 27.4346,24.6834 27.4346,25.2434" id="Fill-178" fill="#040000"></path>
                                <path d="M24.0361,26.8001 C23.3921,26.4521 22.7591,26.0941 22.1441,25.7011 L21.9531,25.5771 L22.0921,25.3941 C22.3631,25.0161 22.5691,24.5801 22.9101,24.2381 C23.2161,23.8631 23.5991,23.5671 24.0111,23.2971 C24.2061,23.1501 24.4491,23.0751 24.6661,22.9611 C24.8881,22.8411 25.1321,22.7961 25.3731,22.7311 C25.8471,22.5961 26.3631,22.5991 26.8401,22.6551 C27.8141,22.7721 28.7301,23.1211 29.5091,23.6641 C29.8971,23.9361 30.2711,24.2171 30.5881,24.5751 C30.7241,24.7421 30.9431,24.9551 30.9541,25.2311 C30.9591,25.4911 30.8721,25.7081 30.7901,25.9231 C30.7981,25.6951 30.8031,25.4581 30.7571,25.2631 C30.7031,25.0791 30.5271,24.9721 30.3491,24.8291 C30.0041,24.5621 29.6271,24.3251 29.2331,24.1261 C28.4431,23.7511 27.6211,23.4391 26.7751,23.3841 C26.3561,23.3411 25.9351,23.3931 25.5341,23.4711 C25.3361,23.5191 25.1221,23.5421 24.9351,23.6401 C24.7511,23.7311 24.5421,23.7771 24.3691,23.9011 C24.0001,24.1111 23.6681,24.3731 23.3571,24.6751 C23.0151,24.9401 22.7711,25.3201 22.4661,25.6391 L22.4071,25.3331 C22.9691,25.7951 23.5091,26.2921 24.0361,26.8001" id="Fill-180" fill="#030000"></path>
                                <path d="M26.001,24.5061 C26.001,24.7921 25.775,25.0201 25.493,25.0201 C25.208,25.0201 24.982,24.7921 24.982,24.5061 C24.982,24.2241 25.208,23.9941 25.493,23.9941 C25.775,23.9941 26.001,24.2241 26.001,24.5061" id="Fill-182" fill="#F0F0ED"></path>
                                <path d="M22.7451,25.2434 C22.7451,25.2434 22.0421,26.6134 20.6171,25.5344 C20.6171,25.5344 21.6011,25.8384 22.7911,24.3644 L22.7451,25.2434 Z" id="Fill-184" fill="#030000"></path>
                                <path d="M20.9141,24.1829 C20.9141,24.1829 21.4951,24.4779 22.1031,24.4169 C22.7201,24.3929 23.2031,24.0429 23.2031,24.0429 L23.3981,24.3759 C23.3941,24.3749 22.7671,24.6929 22.1011,24.6099 C21.4361,24.5689 20.9141,24.1829 20.9141,24.1829" id="Fill-186" fill="#030000"></path>
                                <path d="M21.9229,23.3216 C21.9229,23.3126 22.0329,23.4106 22.2349,23.4706 C22.4179,23.5646 22.6849,23.6036 22.9559,23.6096 C23.2189,23.6766 23.4749,23.5186 23.6589,23.4926 C23.8459,23.4426 23.9689,23.4086 23.9689,23.4086 L24.1019,23.7706 C24.1019,23.7706 23.9539,23.7876 23.7269,23.8096 C23.5089,23.8086 23.2159,23.9186 22.9349,23.8006 C22.6459,23.7446 22.3789,23.6536 22.2029,23.5226 C22.0149,23.4266 21.9259,23.3146 21.9229,23.3216" id="Fill-188" fill="#030000"></path>
                                <path d="M37.3564,25.9475 C37.3564,25.9475 37.0424,25.6995 37.1864,25.1445 C37.3284,24.5915 42.3814,20.3635 45.7504,25.5155 C45.7504,25.5155 40.9684,30.1805 37.3564,25.9475" id="Fill-190" fill="#FFFFFF"></path>
                                <path d="M38.1875,25.2425 C38.1875,26.4305 39.1515,27.3945 40.3355,27.3945 C41.5315,27.3945 42.4905,26.4305 42.4905,25.2425 C42.4905,24.0535 41.5315,23.0915 40.3355,23.0915 C39.1515,23.0915 38.1875,24.0535 38.1875,25.2425" id="Fill-192" fill="#2C1117"></path>
                                <path d="M39.3291,25.2425 C39.3291,25.8005 39.7801,26.2555 40.3361,26.2555 C40.8971,26.2555 41.3501,25.8005 41.3501,25.2425 C41.3501,24.6835 40.8971,24.2305 40.3361,24.2305 C39.7801,24.2305 39.3291,24.6835 39.3291,25.2425" id="Fill-194" fill="#040000"></path>
                                <path d="M43.9893,26.8001 C44.5213,26.2921 45.0593,25.7951 45.6223,25.3331 L45.5603,25.6391 C45.2573,25.3201 45.0133,24.9401 44.6693,24.6751 C44.3543,24.3721 44.0243,24.1101 43.6533,23.9011 C43.4843,23.7771 43.2713,23.7301 43.0873,23.6401 C42.9023,23.5421 42.6923,23.5191 42.4903,23.4711 C42.0893,23.3931 41.6723,23.3411 41.2513,23.3841 C40.4053,23.4391 39.5873,23.7491 38.7913,24.1241 C38.3993,24.3241 38.0183,24.5611 37.6773,24.8271 C37.4993,24.9711 37.3253,25.0771 37.2733,25.2621 C37.2213,25.4571 37.2253,25.6941 37.2373,25.9231 C37.1503,25.7081 37.0673,25.4911 37.0723,25.2311 C37.0813,24.9571 37.2963,24.7421 37.4363,24.5751 C37.7493,24.2151 38.1293,23.9341 38.5173,23.6621 C39.2923,23.1211 40.2123,22.7711 41.1833,22.6551 C41.6683,22.5991 42.1743,22.5971 42.6533,22.7311 C42.8953,22.7981 43.1413,22.8401 43.3583,22.9611 C43.5793,23.0741 43.8183,23.1501 44.0133,23.2971 C44.4263,23.5671 44.8103,23.8631 45.1143,24.2371 C45.4543,24.5801 45.6673,25.0161 45.9383,25.3941 L46.0713,25.5761 L45.8763,25.7011 C45.2653,26.0931 44.6323,26.4521 43.9893,26.8001" id="Fill-196" fill="#030000"></path>
                                <path d="M40.7539,24.5061 C40.7539,24.7921 40.9859,25.0191 41.2689,25.0191 C41.5509,25.0191 41.7799,24.7921 41.7799,24.5061 C41.7799,24.2241 41.5509,23.9941 41.2689,23.9941 C40.9859,23.9941 40.7539,24.2241 40.7539,24.5061" id="Fill-198" fill="#F0F0ED"></path>
                                <path d="M45.2832,25.2425 C45.2832,25.2425 45.9812,26.6135 47.4072,25.5345 C47.4072,25.5345 46.4252,25.8385 45.2312,24.3635 L45.2832,25.2425 Z" id="Fill-200" fill="#030000"></path>
                                <path d="M47.1104,24.1829 C47.1104,24.1829 46.5894,24.5689 45.9214,24.6089 C45.2594,24.6929 44.6304,24.3739 44.6304,24.3759 L44.8214,24.0419 C44.8214,24.0419 45.3044,24.3919 45.9214,24.4169 C46.5304,24.4779 47.1104,24.1829 47.1104,24.1829" id="Fill-202" fill="#030000"></path>
                                <path d="M46.1074,23.3216 C46.1014,23.3146 46.0124,23.4256 45.8234,23.5226 C45.6454,23.6516 45.3804,23.7446 45.0944,23.8006 C44.8104,23.9186 44.5214,23.8076 44.2954,23.8096 C44.0744,23.7866 43.9244,23.7706 43.9244,23.7706 L44.0584,23.4086 C44.0584,23.4086 44.1804,23.4426 44.3674,23.4926 C44.5514,23.5186 44.8074,23.6756 45.0704,23.6096 C45.3374,23.6036 45.6064,23.5646 45.7934,23.4686 C45.9934,23.4106 46.1014,23.3126 46.1074,23.3216" id="Fill-204" fill="#030000"></path>
                                <path d="M35.9375,5.7747 C35.9375,5.7747 30.8955,10.7757 21.8735,14.0537 C14.5335,16.7207 13.5675,28.0907 13.5675,28.0907 L8.4715,19.7307 L17.5335,7.1947 C17.5335,7.1947 26.8365,2.1277 33.4765,4.8507 L35.9375,5.7747 Z" id="Fill-206" fill="#010000"></path>
                                <path d="M14.252,28.4925 C14.146,30.7255 12.249,32.4515 10.016,32.3465 C7.781,32.2405 6.056,30.3445 6.161,28.1095 C6.268,25.8755 8.164,24.1505 10.398,24.2565 C12.632,24.3615 14.357,26.2585 14.252,28.4925" id="Fill-208" fill="#FDB68D"></path>
                                <path d="M12.0918,29.5149 C12.0018,29.5149 11.9198,29.4579 11.8908,29.3689 C11.1998,27.2339 8.7788,27.3999 8.6748,27.4079 C8.5518,27.4249 8.4568,27.3299 8.4468,27.2139 C8.4388,27.0979 8.5248,26.9959 8.6408,26.9869 C8.6668,26.9859 11.4968,26.7839 12.2918,29.2399 C12.3278,29.3499 12.2668,29.4689 12.1558,29.5039 C12.1348,29.5119 12.1128,29.5149 12.0918,29.5149" id="Fill-210" fill="#010000"></path>
                                <path d="M33.4766,4.8509 C33.4766,4.8509 32.7846,6.0979 39.7316,10.1599 C44.2406,12.7959 46.5306,18.6559 46.5306,18.6559 C46.5306,18.6559 48.6166,12.9149 40.1396,6.7099 L33.4766,4.8509 Z" id="Fill-212" fill="#010000"></path>
                                <path d="M13.5303,15.6936 C13.5303,15.6936 20.5523,4.3546 33.4763,4.8506 C33.4763,4.8506 38.9163,4.4026 45.8183,10.8846 C45.8183,10.8846 42.2393,2.6796 31.6893,2.1126 C21.1383,1.5456 14.8843,7.8026 13.5303,15.6936" id="Fill-214" fill="#FCA165"></path>
                            </g>
                        </g>
                    </g>
                </g>
            </g>
        </g>
    </g>
</svg>