<?xml version="1.0" encoding="UTF-8"?>
<svg width="122px" height="123px" viewBox="0 0 122 123" version="1.1" xmlns="http://www.w3.org/2000/svg" xmlns:xlink="http://www.w3.org/1999/xlink">
    <title>FD9E3183-9807-49D0-B602-7F5C9BB9F79C</title>
    <defs>
        <polygon id="path-1" points="0.0196955325 0.200405405 20.181927 0.200405405 20.181927 10.1132135 0.0196955325 10.1132135"></polygon>
        <polygon id="path-3" points="0.000159793187 0.0297828125 0.594979136 0.0297828125 0.594979136 0.127604167 0.000159793187 0.127604167"></polygon>
        <polygon id="path-5" points="4.31873479e-06 0.0284834852 70.9929173 0.0284834852 70.9929173 43.9924606 4.31873479e-06 43.9924606"></polygon>
    </defs>
    <g id="Onboard-" stroke="none" stroke-width="1" fill="none" fill-rule="evenodd">
        <g id="User-Role-Selection-Copy-2" transform="translate(-33.000000, -364.000000)">
            <g id="Group-21" transform="translate(16.000000, 350.000000)">
                <g id="Group-20" transform="translate(17.000000, 14.000000)">
                    <circle id="Oval-Copy-2" fill="#E5EDF5" cx="61" cy="61" r="61"></circle>
                    <g id="Group-5" transform="translate(45.000000, 26.000000)">
                        <path d="M22.3790127,47.5176486 C22.3790127,47.5176486 20.3618235,44.7832515 20.5307694,31.5176486 L15.0177964,31.5176486 L9.76268833,31.5176486 C9.93163427,44.7832515 7.65785049,47.5176486 7.65785049,47.5176486" id="Fill-204" fill="#E2947A"></path>
                        <path d="M20.8945771,41.1644319 C20.6130106,38.6490638 20.6683397,36.8598973 20.4828802,33.4822486 L14.8377991,33.8188703 L9.6995559,33.333627 C9.58777211,35.3635189 9.75544779,37.4556541 9.55982617,38.9101135 L20.8945771,41.1644319 Z" id="Fill-206" fill="#CB765A"></path>
                        <path d="M26.4144072,21.555427 C26.4144072,21.555427 27.9895424,18.434373 29.8047586,19.3553189 C30.8222451,19.8710486 29.8936775,28.0719135 26.4144072,27.6755892 C26.4144072,27.6755892 25.7995964,27.4571027 25.755137,26.1347514 L26.4144072,21.555427 Z" id="Fill-208" fill="#E2947A"></path>
                        <path d="M28.9971208,20.3843649 C28.9971208,20.3843649 29.9828505,23.5232027 28.6427154,24.2675811 C28.6427154,24.2675811 27.9288235,24.5089324 27.9694721,24.8493649 C28.0139316,25.1859865 27.696364,27.4610405 26.8922829,26.7331757 C26.8922829,26.7331757 26.2711208,25.7004459 27.0447154,25.3155541 C27.8195802,24.9281216 27.273364,24.9116081 26.6560127,24.088473 C26.6560127,24.088473 27.804337,20.1544459 28.9971208,20.3843649" id="Fill-210" fill="#CB765A"></path>
                        <path d="M29.3196424,22.6979081 C29.2777235,22.1275568 29.2269127,21.5508541 29.0897235,21.0224216 C29.0579667,20.8890432 29.0071559,20.7670973 28.951264,20.6692865 C28.8788586,20.5727459 28.8394802,20.5676649 28.8013721,20.5879892 C28.6616424,20.6362595 28.6616424,20.6858 28.542237,20.7848811 C28.4533181,20.8776108 28.3618586,20.9754216 28.2818316,21.0833946 C27.9426694,21.5102054 27.6657505,22.0030703 27.4294802,22.5022865 C27.2046424,22.9837189 26.9480478,23.5502595 26.9810748,23.9834216 L26.9188316,23.8627459 C27.1411289,24.1117189 27.3545343,24.3530703 27.508237,24.6808 C27.5438045,24.7633676 27.5806424,24.8510162 27.5920748,24.9640703 C27.6174802,25.0631514 27.5844532,25.2397189 27.4701289,25.3451514 C27.3723181,25.4366108 27.1957505,25.4556649 27.1893991,25.4569351 L26.9645613,25.5280703 C26.9391559,25.5699892 26.916291,25.5992054 26.8756424,25.6284216 L26.7994262,25.8037189 C26.775291,25.935827 26.7460748,26.0793676 26.7727505,26.2241784 C26.775291,26.3003946 26.789264,26.3715297 26.81721,26.4413946 C26.8464262,26.5074486 26.8540478,26.5900162 26.9010478,26.6459081 C26.9709127,26.7843676 27.0738045,26.8885297 27.2071829,26.9838 C27.0636424,26.922827 26.9137505,26.8440703 26.8159397,26.7043405 C26.7511559,26.6459081 26.7295613,26.5658811 26.6825613,26.4947459 C26.6393721,26.4248811 26.6088856,26.3448541 26.5923721,26.2635568 C26.5364802,26.1035027 26.5275883,25.9269351 26.5415613,25.7490973 C26.5656964,25.6614486 26.5911018,25.5712595 26.6253991,25.4823405 C26.6889127,25.3946919 26.77021,25.3045027 26.8515072,25.2333676 L27.0699937,25.1406378 C27.2109937,25.0961784 27.19321,25.0961784 27.2198856,25.0809351 C27.2160748,25.0949081 27.212264,24.9831243 27.1347775,24.8662595 C26.9963181,24.6363405 26.7956154,24.3911784 26.5885613,24.1866649 L26.5313991,24.1282324 L26.5250478,24.0647189 C26.4666154,23.3444757 26.7321018,22.8223946 26.9709127,22.2787189 C27.2414802,21.7553676 27.5463451,21.2548811 27.9337775,20.7963135 C28.0277775,20.6807189 28.1344802,20.5714757 28.2526154,20.4673135 C28.3428045,20.3834757 28.5663721,20.2310432 28.7111829,20.2119892 C28.9550748,20.1421243 29.1900748,20.3504486 29.247237,20.5016108 C29.3183721,20.6591243 29.3590208,20.8115568 29.3793451,20.9601784 C29.4631829,21.5546649 29.407291,22.1300973 29.3196424,22.6979081" id="Fill-212" fill="#975238"></path>
                        <path d="M3.78022346,21.555427 C3.78022346,21.555427 2.20508833,18.434373 0.389872113,19.3553189 C-0.630154914,19.8710486 0.300953194,28.0719135 3.78022346,27.6755892 C3.78022346,27.6755892 4.39503427,27.4571027 4.43949373,26.1347514 L3.78022346,21.555427 Z" id="Fill-214" fill="#E2947A"></path>
                        <path d="M1.19636671,20.3843649 C1.19636671,20.3843649 0.213177518,23.5232027 1.55204238,24.2675811 C1.55204238,24.2675811 2.26212346,24.5089324 2.22274509,24.8493649 C2.18209644,25.1859865 2.49839373,27.4610405 3.30247482,26.7331757 C3.30247482,26.7331757 3.92236671,25.7004459 3.14623157,25.3155541 C2.37390725,24.9281216 2.92139373,24.9116081 3.53874509,24.088473 C3.53874509,24.088473 2.39423157,20.1544459 1.19636671,20.3843649" id="Fill-216" fill="#CB765A"></path>
                        <path d="M0.872574815,22.6979081 C0.786196437,22.1300973 0.730304545,21.5546649 0.812872113,20.9601784 C0.835736978,20.8115568 0.875115356,20.6591243 0.946250491,20.5016108 C1.00468292,20.3504486 1.23968292,20.1421243 1.48230455,20.2119892 C1.62711536,20.2310432 1.84814238,20.3847459 1.94341265,20.4673135 C2.05900725,20.5714757 2.16443968,20.6832595 2.26098022,20.7988541 C2.64714238,21.2548811 2.95200725,21.7553676 3.22384509,22.2787189 C3.4626559,22.8223946 3.72814238,23.3444757 3.66716941,24.0647189 L3.66081806,24.130773 L3.60238563,24.1866649 C3.39660184,24.3911784 3.19970995,24.6363405 3.05870995,24.8662595 C2.97868292,24.9831243 2.97614238,25.0949081 2.97233157,25.0809351 C2.99773698,25.0961784 2.97868292,25.0961784 3.12222346,25.1406378 L3.34070995,25.2333676 C3.42073698,25.3019622 3.50203427,25.3934216 3.56681806,25.4810703 C3.60111536,25.5699892 3.62398022,25.6589081 3.6506559,25.7465568 C3.66589914,25.9256649 3.65700725,26.1022324 3.60111536,26.2622865 C3.58460184,26.3435838 3.55411536,26.4223405 3.51092617,26.4934757 C3.46519644,26.5658811 3.44487211,26.6459081 3.37881806,26.7043405 C3.28100725,26.8428 3.13238563,26.922827 2.98757482,26.9838 C3.12095319,26.8885297 3.22384509,26.7843676 3.29243968,26.6459081 C3.34070995,26.5900162 3.34833157,26.5074486 3.37754779,26.4388541 C3.40422346,26.3715297 3.41946671,26.2991243 3.42073698,26.2229081 C3.44614238,26.0780973 3.41819644,25.9332865 3.39025049,25.8037189 L3.31657482,25.6284216 C3.2746559,25.5979351 3.2530613,25.5699892 3.2276559,25.5268 L3.00281806,25.4569351 C2.99392617,25.4569351 2.81608833,25.4353405 2.71827752,25.3438811 C2.60649373,25.2371784 2.57600725,25.0618811 2.59760184,24.9628 C2.61284509,24.8497459 2.64714238,24.7633676 2.68652076,24.6808 C2.83768292,24.3530703 3.05108833,24.1117189 3.2746559,23.8614757 L3.21114238,23.9821514 C3.24416941,23.5502595 2.98757482,22.9837189 2.76400725,22.5022865 C2.52900725,22.0030703 2.25081806,21.5102054 1.9116559,21.0833946 C1.83162887,20.9754216 1.74016941,20.8776108 1.64870995,20.7861514 C1.53057482,20.6858 1.53057482,20.6362595 1.39338563,20.5879892 C1.35146671,20.5676649 1.31589914,20.5714757 1.24222346,20.6692865 C1.18379103,20.7670973 1.13552076,20.8890432 1.10249373,21.0224216 C0.967845086,21.5508541 0.913223464,22.1275568 0.872574815,22.6979081" id="Fill-218" fill="#975238"></path>
                        <path d="M13.7501937,39.2064676 C13.7501937,39.2064676 7.77484238,35.1809811 5.93549103,32.7700081 C4.25365319,30.5635486 3.09516671,20.4585486 2.90589644,18.7131973 C2.89954509,18.6534946 2.89192346,18.5976027 2.88684238,18.5379 C2.88049103,18.4845486 2.87795049,18.4527919 2.87795049,18.4527919 L2.88049103,18.4553324 C2.85000455,18.0958459 2.82968022,17.7312784 2.82968022,17.3616297 C2.82968022,10.6291973 8.28803157,5.17338649 15.0179235,5.17338649 C21.7503559,5.17338649 27.2048964,10.6291973 27.2048964,17.3616297 C27.2048964,17.7973324 27.179491,18.2304946 27.1363018,18.6547649 C27.1363018,18.6547649 25.9397072,30.3526838 24.0990856,32.7700081 C22.2597343,35.1809811 16.2818424,39.2064676 16.2818424,39.2064676" id="Fill-220" fill="#E2947A"></path>
                        <path d="M15.1407586,31.4075162 C12.9584343,31.3732189 11.1749748,31.1826784 11.1749748,31.1826784 C11.4087045,32.2801919 13.394137,32.6650838 15.1407586,32.6676243 C16.8924613,32.6650838 18.8728127,32.2801919 19.1090829,31.1826784 C19.1090829,31.1826784 17.3256235,31.3732189 15.1407586,31.4075162" id="Fill-222" fill="#F0F0ED"></path>
                        <path d="M1.82273698,19.3734838 C1.82273698,19.3734838 3.0396559,20.0162405 3.53887211,22.5389973 C3.53887211,22.5389973 4.20830455,21.3868622 4.43949373,18.9720784 C4.66941265,16.5534838 5.07208833,15.8827811 5.96000725,14.1869703 C5.96000725,14.1869703 8.11946671,10.6734027 7.17438563,7.37451081 C6.57100725,5.2684027 3.38770995,4.24456486 2.19111536,6.56915946 C-0.161425185,11.1383216 1.33749373,18.5351054 1.82273698,19.3734838" id="Fill-224" fill="#090000"></path>
                        <path d="M19.4576451,18.7532108 C19.4576451,18.7532108 18.6840505,19.4074 18.0108072,20.1860757 C17.6703748,20.5709676 17.3782127,20.9901568 17.1889424,21.3255081 C17.0949424,21.4931838 17.0530235,21.6468865 17.0060235,21.7510486 C16.9641045,21.8577514 16.94251,21.9187243 16.94251,21.9187243 C16.94251,21.9187243 16.9539424,21.8552108 16.9780775,21.7446973 C17.0060235,21.6367243 17.0238072,21.4677784 17.0924018,21.2823189 C17.22451,20.9114 17.4518883,20.4312378 17.7326181,19.9841027 C18.277564,19.0834811 18.9698613,18.2679676 18.9698613,18.2679676 L19.4576451,18.7532108 Z" id="Fill-226" fill="#975238"></path>
                        <path d="M12.8248649,18.0146229 C12.8248649,18.0146229 12.6267027,18.7131608 12.0372973,18.7716535 C10.391027,18.9364454 7.45162162,18.1636668 5,19 C5,19 5.17910811,18.29865 6.61324324,18.0871764 C8.04991892,17.8768276 12.3485135,18.1282337 12.8248649,18.0146229" id="Fill-228" fill="#000000"></path>
                        <path d="M17.3538235,18.1175357 C17.3538235,18.1175357 17.4668775,18.859649 18.0308775,18.9096453 C19.6136343,19.0505986 22.5657424,18.1572917 24.85731,19 C24.85731,19 24.7594991,18.2530677 23.3876072,18.0585039 C22.0182559,17.8633377 17.8034991,18.2283708 17.3538235,18.1175357" id="Fill-230" fill="#000000"></path>
                        <path d="M12.4029451,22.5031757 C12.4029451,22.5031757 12.5833235,22.1779865 12.4969451,21.8477162 C12.4131072,21.5199865 9.40891806,19.0048514 7.4031613,22.0687432 C7.4031613,22.0687432 9.63883698,25.1897973 12.4029451,22.5031757" id="Fill-232" fill="#F0F0ED"></path>
                        <path d="M11.5259505,21.9052595 C11.5259505,22.6140703 10.9555991,23.1856919 10.2467883,23.1856919 C9.54051806,23.1856919 8.9663559,22.6140703 8.9663559,21.9052595 C8.9663559,21.2002595 9.54051806,20.6260973 10.2467883,20.6260973 C10.9555991,20.6260973 11.5259505,21.2002595 11.5259505,21.9052595" id="Fill-234" fill="#2C1117"></path>
                        <path d="M10.8461018,21.9052595 C10.8461018,22.2380703 10.5780748,22.5086378 10.2465343,22.5086378 C9.91372346,22.5086378 9.64442617,22.2380703 9.64442617,21.9052595 C9.64442617,21.5737189 9.91372346,21.3044216 10.2465343,21.3044216 C10.5780748,21.3044216 10.8461018,21.5737189 10.8461018,21.9052595" id="Fill-236" fill="#040000"></path>
                        <path d="M8.35027482,22.9832108 L7.18162617,22.3315622 L6.97457211,22.2159676 L7.11430184,21.8806162 C7.28324779,21.6659405 7.41916671,21.4309405 7.6160586,21.2378595 C7.8167613,21.0460486 8.017464,20.8567784 8.26643698,20.7170486 C8.37949103,20.6357514 8.50270725,20.568427 8.63989644,20.521427 C8.77200455,20.4718865 8.89522076,20.3969405 9.03622076,20.3778865 C9.31059914,20.2978595 9.59386941,20.2800757 9.86951806,20.2940486 C10.4246262,20.3372378 10.9352748,20.5265081 11.3913018,20.7856432 C11.61741,20.9152108 11.8320856,21.0638324 12.0315181,21.2276973 C12.1293289,21.3166162 12.2322208,21.3941027 12.3160586,21.4957243 C12.402437,21.5960757 12.4913559,21.6799135 12.5485181,21.8336162 C12.5548694,22.0394 12.4837343,22.2197784 12.449437,22.401427 C12.449437,22.2121568 12.4811937,22.0292378 12.4418154,21.8539405 L12.4456262,21.8602919 C12.3173289,21.6989676 12.0861397,21.5516162 11.8917883,21.4207784 C11.683464,21.2924811 11.4662478,21.1806973 11.24141,21.0905081 C10.7942748,20.9101297 10.3191937,20.8123189 9.86316671,20.8389946 C9.41349103,20.8758324 8.98795049,21.0092108 8.62719373,21.2721568 C8.25373427,21.5147784 7.98062617,21.8945892 7.69354509,22.2566162 L7.79264034,22.146862 L8.35027482,22.9832108 Z" id="Fill-238" fill="#030000"></path>
                        <path d="M9.99883157,21.4686676 C9.99883157,21.6363432 9.86164238,21.7735324 9.69396671,21.7735324 C9.5275613,21.7735324 9.38910184,21.6363432 9.38910184,21.4686676 C9.38910184,21.3009919 9.5275613,21.165073 9.69396671,21.165073 C9.86164238,21.165073 9.99883157,21.3009919 9.99883157,21.4686676" id="Fill-240" fill="#F0F0ED"></path>
                        <path d="M18.0918505,22.5031757 C18.0918505,22.5031757 17.9102018,22.1779865 17.9965802,21.8477162 C18.0829586,21.5199865 21.083337,19.0048514 23.0878235,22.0687432 C23.0878235,22.0687432 20.8534181,25.1897973 18.0918505,22.5031757" id="Fill-242" fill="#F0F0ED"></path>
                        <path d="M18.9677018,21.9052595 C18.9677018,22.6140703 19.5393235,23.1856919 20.2481343,23.1856919 C20.9531343,23.1856919 21.5285667,22.6140703 21.5285667,21.9052595 C21.5285667,21.2002595 20.9531343,20.6260973 20.2481343,20.6260973 C19.5393235,20.6260973 18.9677018,21.2002595 18.9677018,21.9052595" id="Fill-244" fill="#2C1117"></path>
                        <path d="M19.6462802,21.9052595 C19.6462802,22.2380703 19.9143072,22.5086378 20.2483883,22.5086378 C20.5811991,22.5086378 20.8479559,22.2380703 20.8479559,21.9052595 C20.8479559,21.5737189 20.5811991,21.3044216 20.2483883,21.3044216 C19.9143072,21.3044216 19.6462802,21.5737189 19.6462802,21.9052595" id="Fill-246" fill="#040000"></path>
                        <path d="M22.1421072,22.9832108 L22.6753594,22.1096266 L22.8001072,22.2566162 L22.798837,22.2566162 C22.5104856,21.8945892 22.234837,21.5147784 21.8651883,21.2708865 C21.5044316,21.0092108 21.078891,20.8758324 20.6292154,20.8389946 C20.1744586,20.8123189 19.6981072,20.9101297 19.2522424,21.0917784 C19.0274045,21.1806973 18.8101883,21.2937514 18.601864,21.4220486 C18.4062424,21.5528865 18.1750532,21.6989676 18.0467559,21.8602919 L18.0492964,21.8526703 C18.0149991,22.0292378 18.0429451,22.2121568 18.0467559,22.401427 C18.0111883,22.2197784 17.9413235,22.0406703 17.9413235,21.8425081 C18.0022964,21.6799135 18.0912154,21.5960757 18.1775937,21.4957243 C18.2614316,21.3941027 18.3643235,21.3166162 18.4595937,21.2289676 C18.6615667,21.0638324 18.8749721,20.9152108 19.1010802,20.7856432 C19.555837,20.5265081 20.0664856,20.3372378 20.6241343,20.2940486 C20.8985127,20.2800757 21.1817829,20.2978595 21.4561613,20.3766162 C21.5971613,20.3969405 21.7191072,20.4718865 21.8537559,20.521427 C21.9884045,20.568427 22.1116208,20.6357514 22.2246748,20.7170486 C22.4736478,20.8567784 22.6743505,21.0460486 22.8750532,21.2378595 C23.0719451,21.4309405 23.2091343,21.6659405 23.3742694,21.8780757 L23.5190802,22.2159676 L23.3094856,22.3315622 L22.1421072,22.9832108 Z" id="Fill-248" fill="#030000"></path>
                        <path d="M20.4946937,21.4686676 C20.4946937,21.6363432 20.6318829,21.7735324 20.8033694,21.7735324 C20.9672343,21.7735324 21.1044235,21.6363432 21.1044235,21.4686676 C21.1044235,21.3009919 20.9672343,21.165073 20.8033694,21.165073 C20.6318829,21.165073 20.4946937,21.3009919 20.4946937,21.4686676" id="Fill-250" fill="#F0F0ED"></path>
                        <path d="M14.5180721,29.1200135 C14.5180721,29.1200135 12.9048289,28.5560135 13.1690451,29.0590405 C13.4345316,29.559527 14.5180721,29.1200135 14.5180721,29.1200135" id="Fill-254" fill="#975238"></path>
                        <path d="M17.5180721,29.1200135 C17.5180721,29.1200135 15.9048289,28.5560135 16.1690451,29.0590405 C16.4345316,29.559527 17.5180721,29.1200135 17.5180721,29.1200135" id="Fill-254" fill="#975238" transform="translate(16.828938, 29.074361) scale(-1, 1) translate(-16.828938, -29.074361) "></path>
                        <path d="M3.98092617,5.87864054 L6.67898022,8.98318108 C6.67898022,8.98318108 9.77716941,13.3732351 13.9703316,14.2954514 C13.9703316,14.2954514 15.4171752,14.9858523 19.8275478,14.8467486 C19.8275478,14.8467486 16.7903316,13.8127486 15.6623316,12.3557486 C15.6623316,12.3557486 18.6246018,14.4796405 24.086764,14.8467486 C24.086764,14.8467486 25.0580363,14.8106171 25.2845777,14.8383078 C26.6550067,14.4757163 26.6565208,21.3175054 26.6565208,21.3175054 C26.6565208,21.3175054 27.2040072,20.366073 28.001737,19.5975595 C28.001737,19.5975595 29.3240883,12.3836946 28.7664397,10.4223973 C28.1846559,8.37599189 25.4268991,-0.500656757 11.2951424,0.244991892 C11.2951424,0.244991892 3.265764,0.820424324 3.98092617,5.87864054 Z" id="Fill-256" fill="#090000"></path>
                        <path d="M3.22829103,12.7181568 C1.90848022,10.5917243 1.73572346,6.51288649 4.14796671,5.24642703 C3.37691265,5.29088649 2.64523698,5.69229189 2.19175049,6.56877838 C-0.160790049,11.1379405 1.33812887,18.5347243 1.82337211,19.3731027 C1.82337211,19.3731027 3.04029103,20.0158595 3.53823698,22.5386162 C3.53823698,22.5386162 4.20766941,21.3864811 4.4388586,18.9716973 C4.52523698,18.0723459 4.63320995,17.4143459 4.78437211,16.8579676 C4.50110184,15.6626432 4.0031559,13.9630216 3.22829103,12.7181568" id="Fill-260" fill="#000000"></path>
                        <g id="Group-264" transform="translate(8.494450, 0.000000)">
                            <mask id="mask-2" fill="white">
                                <use xlink:href="#path-1"></use>
                            </mask>
                            <g id="Clip-263"></g>
                            <path d="M0.521954054,0.635727027 C0.0278189189,1.03459189 -0.167802703,1.5299973 0.239954054,2.14226757 C1.74903514,4.38429459 15.6788189,0.723375676 20.181927,10.1132135 C19.429927,7.61713243 16.3177649,-0.470678378 2.80081892,0.244483784" id="Fill-262" fill="#2B101A" mask="url(#mask-2)"></path>
                        </g>
                    </g>
                    <g id="Group-3" transform="translate(51.000000, 44.000000)" stroke="#131212" stroke-width="0.5">
                        <path d="M8,4.09910182 C8.65287143,3.96696606 9.14931508,3.90089818 9.48933094,3.90089818 C9.82934681,3.90089818 10.3329032,3.96696606 11,4.09910182" id="Line-2"></path>
                        <circle id="Oval" cx="15" cy="4" r="4"></circle>
                        <circle id="Oval-Copy" cx="4" cy="4" r="4"></circle>
                    </g>
                    <g id="Group-18" transform="translate(25.000000, 67.000000)">
                        <g id="Group-17" transform="translate(0.267241, 0.000000)">
                            <polygon id="Fill-1" fill="#E7E7E7" points="20.0085255 31.4497081 51.8103929 31.4497081 51.8103929 6.86570694 20.0085255 6.86570694"></polygon>
                            <g id="Group-16" transform="translate(0.000000, 0.013570)">
                                <path d="M37.1346195,9.77801746 C37.0502746,9.94426961 36.6905672,10.0691995 36.3250727,10.0691995 L33.8983324,10.0691995 C33.5328811,10.0691995 33.1731305,9.94426961 33.0887856,9.77801746 L31.7001396,7.04111653 C31.4299595,6.50865439 31.7990818,6.01081718 32.5659595,6.01081718 L37.6574024,6.01081718 C38.4243233,6.01081718 38.7934456,6.50865439 38.5232655,7.04111653 L37.1346195,9.77801746 Z" id="Fill-2" fill="#D5533B"></path>
                                <path d="M29.2282607,0.963342819 C29.2848793,0.973892258 35.2103338,6.01082593 35.2103338,6.01082593 L27.8396355,10.309394 L26.1458709,3.96476005 L29.2282607,0.963342819 Z" id="Fill-4" fill="#FEFEFE"></path>
                                <path d="M41.0070341,1.06100083 C40.9504155,1.07155026 35.17733,6.01082593 35.17733,6.01082593 L42.6247723,10.309394 L44.1612917,3.95797514 L41.0070341,1.06100083 Z" id="Fill-6" fill="#FEFEFE"></path>
                                <polygon id="Fill-8" fill="#D5533B" points="34.602338 47.8698617 35.1870083 47.8698617 35.1880448 47.8698617 39.6841501 47.8698617 39.579248 46.3155485 39.5540698 45.9430351 39.5470734 45.8442819 39.2926568 42.1892296 38.5614518 31.440358 38.5614518 31.4397452 38.5624451 31.3252772 37.7300089 18.7321361 37.1345418 9.6992775 33.0754493 9.6992775 32.4756634 18.7321361 31.6944907 30.4752813 31.6898696 30.551535 31.6862851 30.6069086 31.0853763 39.549506 30.6558782 45.9456178 30.6307431 46.3153734 30.5257547 47.8698617 34.5932255 47.8698617"></polygon>
                                <g id="Group-12" transform="translate(34.593066, 47.837758)">
                                    <mask id="mask-4" fill="white">
                                        <use xlink:href="#path-3"></use>
                                    </mask>
                                    <g id="Clip-11"></g>
                                    <polygon id="Fill-10" fill="#D5533B" mask="url(#mask-4)" points="0.0092723236 0.0935848958 0.000159793187 0.0935848958 0.594979136 0.0935848958 0.59394264 0.0935848958"></polygon>
                                </g>
                                <g id="Group-15" transform="translate(0.000000, 3.889058)">
                                    <mask id="mask-6" fill="white">
                                        <use xlink:href="#path-5"></use>
                                    </mask>
                                    <g id="Clip-14"></g>
                                    <path d="M61.0287367,6.71971686 C61.0183285,6.6640806 61.0153486,6.65948438 61.0116777,6.63269493 C60.9892187,6.46708454 60.9193493,6.22746319 60.8647896,6.06600418 C60.8484267,6.01758101 60.8334407,5.97618824 60.8215238,5.94593083 C59.7835159,4.76807065 49.7957507,0.348993826 44.0649192,0.0986963488 L41.3334922,14.3795288 L39.1128851,25.9986196 L37.5324009,34.2673662 L35.6971546,41.1720397 L35.4996588,42.1802771 L35.0451552,43.0982096 L34.8560378,42.4545188 L34.6506387,42.0568793 L31.740157,26.8289174 L31.694508,26.5917082 L29.4510548,14.8539909 L26.2422349,0.0284834852 C26.2276375,0.0290525421 26.1219149,0.0364065079 26.1072744,0.0375883952 C25.0885712,0.0856080407 24.4095366,0.30036135 23.1976996,0.587428657 C23.1748967,0.592769037 23.152612,0.598722247 23.1304137,0.604018853 C22.8629976,0.668103412 22.592688,0.736871747 22.3200031,0.809798574 C16.891699,2.26347625 10.6611035,5.3706581 9.85362962,6.28635816 L9.65112415,6.76585424 L2.15858911,34.9756868 L11.5359496,43.9924606 L11.7089149,43.440563 L16.4875086,30.1247197 L18.7319119,24.3330339 C18.9373109,25.9871509 19.0923967,28.0393013 19.205893,30.290753 C19.3720347,33.5853296 19.4510244,37.3069178 19.4732659,40.8327942 C19.4803054,41.9104128 19.4820329,42.9692526 19.4795712,43.9924606 L34.925483,43.9745134 L34.925483,43.9924606 L51.3767963,43.9924606 C51.3713979,42.8599937 51.3711387,41.6757863 51.3774009,40.4644831 C51.3949782,36.9504694 51.4674897,33.21286 51.6266783,29.877355 C51.7355536,27.5966189 51.8852409,25.5041967 52.0859757,23.7996525 L54.3072306,29.5316311 L59.0858243,42.8474744 L59.4237221,43.9924606 L68.392888,34.6276065 L61.0287367,6.71971686 Z" id="Fill-13" fill="#252925" mask="url(#mask-6)"></path>
                                </g>
                            </g>
                        </g>
                    </g>
                    <g id="Group-4" transform="translate(23.000000, 97.000000)">
                        <rect id="Rectangle" fill="#7A7777" x="7.87942981" y="24" width="59" height="2"></rect>
                        <path d="M2.76164854,0 L72.5425002,0 C73.6470697,-6.64219967e-15 74.5425002,0.8954305 74.5425002,2 C74.5425002,2.22727853 74.5037605,2.45289436 74.4279455,2.66715499 L66.8794298,24 L66.8794298,24 L7.87942981,24 L0.861437531,2.62385747 C0.516890566,1.57439991 1.08833351,0.444335962 2.13779107,0.099788996 C2.33914319,0.0336831664 2.54972247,4.83019397e-16 2.76164854,0 Z" id="Rectangle-Copy-4" fill="#8F8F8F"></path>
                    </g>
                    <path d="M61.3955804,49.0885185 L61.5049996,49 C60.990031,50.331556 61.2418935,51.8882582 61.9285549,53.5782151 L62,54 L61.6452742,53.7273626 C60.8637894,51.9621454 60.8426755,50.7349415 61.3116143,49.322306 L61.3955804,49.0885185 Z" id="Path-3" fill="#975238" fill-rule="nonzero"></path>
                </g>
            </g>
        </g>
    </g>
</svg>