<?xml version="1.0" encoding="UTF-8"?>
<svg width="532px" height="432px" viewBox="0 0 532 432" version="1.1" xmlns="http://www.w3.org/2000/svg" xmlns:xlink="http://www.w3.org/1999/xlink">
    <!-- Generator: sketchtool 53.1 (72631) - https://sketchapp.com -->
    <title>B67328D2-F727-4C33-96B4-04D312F5767B</title>
    <desc>Created with sketchtool.</desc>
    <g id="Portal" stroke="none" stroke-width="1" fill="none" fill-rule="evenodd">
        <g id="Certificate-Gujarat" transform="translate(-155.000000, -82.000000)" fill="#F9F4EB">
            <path d="M572.962204,112.442328 C575.260596,112.802773 577.411636,113.085589 579.531382,113.52275 C579.91541,113.601902 580.416408,114.297524 580.441929,114.733468 C580.554645,116.655638 580.56771,118.588464 580.504211,120.513983 C580.472918,121.459238 580.818968,121.984379 581.61467,122.430065 C583.15473,123.292515 584.642228,124.248729 586.371263,125.299621 C585.192749,126.591622 584.226604,127.893364 583.026214,128.921424 C579.261287,132.147468 577.181645,136.305372 575.89254,140.993897 C575.628218,141.955286 575.851221,142.349523 576.603173,142.803124 C578.727477,144.085078 580.789801,145.471756 582.933549,146.718701 C583.814017,147.231057 584.233288,147.894714 584.383071,148.851842 C584.563843,150.002891 585.005596,151.147852 584.984937,152.289464 C584.917489,156.008989 588.024951,157.111939 590.265314,158.91873 C590.472518,159.086167 591.1154,158.887678 591.454158,158.686755 C593.58788,157.42063 595.723729,156.152984 597.793345,154.78579 C598.7364,154.162622 599.525114,154.105693 600.390695,154.806795 C600.545947,154.93222 600.742518,155.006197 600.917821,155.107572 C604.668773,157.26872 604.687306,157.269329 604.611351,161.601975 C604.601325,162.175217 604.366776,162.788948 604.090605,163.306174 C602.490085,166.300547 600.885313,169.294615 599.193647,172.237539 C598.654976,173.175183 598.743995,173.699107 599.589524,174.377377 C603.265128,177.326085 606.856271,180.379821 610.545851,183.309959 C611.503185,184.07073 611.749886,184.867118 611.710389,186.02791 C611.618636,188.702631 611.681223,191.382832 611.681223,194.331236 C613.958348,194.331236 616.374925,194.410692 618.782996,194.299879 C620.125573,194.23808 620.494713,194.822586 620.896666,195.997076 C622.226178,199.88008 621.919321,203.359714 619.138464,206.550139 C618.256781,207.561455 617.691374,208.849194 616.897494,210.147588 C617.793457,210.665423 618.614376,211.133636 619.429523,211.611895 C622.48564,213.405292 625.563024,215.163375 628.581164,217.019484 C629.515712,217.594248 630.366709,217.796389 631.432811,217.527273 C632.556638,217.24324 633.733026,217.174439 634.869005,216.930286 C635.744612,216.741844 636.279638,217.000305 636.384455,217.888327 C636.638144,220.044909 638.051511,221.130506 639.834322,222.092504 C653.724631,229.588786 665.93725,239.30071 676.965885,250.55183 C677.524609,251.121723 678.054166,251.765288 678.426648,252.465477 C680.950474,257.208191 683.446652,261.966126 685.896954,266.747198 C686.191962,267.32257 686.379722,268.113783 686.246953,268.723557 C684.86488,275.066658 683.331808,281.361051 680.014711,287.056326 C679.512194,287.91908 679.076213,288.382423 678.033506,288.191545 C677.24388,288.046941 676.385591,288.225641 675.615409,288.030806 C671.864154,287.082203 668.835988,288.227164 666.225878,290.971904 C664.323666,292.972313 661.947192,294.189119 659.195502,294.528558 C657.11191,294.785497 655.932484,296.303689 654.446505,297.509536 C652.220118,299.315719 651.929363,301.107289 653.023416,303.747914 C654.639734,307.647661 654.44134,307.731684 658.611562,307.75482 C660.687558,307.766693 662.765985,307.834886 664.83864,307.753907 C665.976746,307.70946 666.618108,308.328366 666.87757,309.197514 C667.007908,309.635589 666.585904,310.38266 666.207952,310.804599 C664.723492,312.460394 663.157608,314.042516 661.531568,315.746715 C659.295459,314.20569 657.141685,312.721899 655.013128,311.255156 C653.587,312.647314 652.194293,313.959407 650.869946,315.337865 C650.591344,315.627987 650.48288,316.15252 650.436092,316.584506 C650.046596,320.163384 649.654973,323.742871 649.363003,327.330273 C649.320164,327.859068 649.652846,328.59731 650.060571,328.951667 C651.549893,330.247016 653.178971,331.380104 654.674065,332.669365 C655.039864,332.984754 655.336391,333.702296 655.257702,334.165029 C654.313736,339.71022 653.317209,345.247191 652.250196,350.769854 C652.154189,351.267902 651.553235,351.85332 651.049807,352.05668 C648.094861,353.24974 645.133536,354.444323 642.110839,355.44468 C636.636929,357.255734 631.716882,360.176434 626.701131,362.914781 C626.532208,363.007024 626.386374,363.142495 626.146357,363.319369 C626.531904,363.727305 626.810202,364.180601 627.213978,364.42384 C630.201128,366.22363 629.920703,369.121194 629.727474,371.955437 C629.695877,372.424868 629.274479,372.944834 628.89987,373.300408 C627.319099,374.799421 625.647486,376.204669 624.103781,377.739605 C623.737375,378.104008 623.690283,378.829769 623.587592,379.405446 C623.538677,379.680955 623.743755,379.992082 623.764111,380.291945 C624.116238,385.431027 628.176477,388.003764 631.320094,391.195712 C631.610241,391.490095 632.250692,391.522365 632.730726,391.53028 C635.464491,391.575336 638.201902,391.649921 640.931717,391.549764 C641.834667,391.516581 642.838486,391.171966 643.591958,390.665395 C646.83067,388.488112 650.316995,387.677415 654.211957,387.973321 C657.738993,388.241219 661.294589,388.190684 664.836513,388.159023 C666.229524,388.146846 666.622969,388.694211 666.461641,389.959422 C666.391459,390.509222 666.375964,391.080942 666.437944,391.631047 C666.713204,394.065268 665.865548,395.865058 663.543155,396.81153 C662.866549,397.087039 662.131611,397.364984 661.41794,397.379597 C656.153361,397.488583 650.887263,397.574736 645.621773,397.569256 C643.903372,397.567734 642.337488,397.870947 640.827811,398.692603 C639.584887,399.368742 638.308846,400.01596 636.982979,400.498177 C635.685064,400.970043 635.39917,401.75121 635.555029,403.042906 C635.833631,405.356574 635.935715,407.691247 636.144438,410.014351 C636.221912,410.877715 635.993136,411.3715 635.029726,411.37698 C631.896135,411.394637 629.092795,412.514025 626.482381,414.130548 C622.265067,416.741948 617.44528,417.578522 612.803531,418.957285 C612.014512,419.191696 611.211822,419.620333 610.598715,420.165567 C608.386608,422.133402 606.252886,424.189217 603.822636,426.461178 C607.793857,426.718116 611.365555,427.182981 614.925708,427.107178 C617.93534,427.043248 619.855478,428.17664 621.253046,430.730807 C624.633945,436.911648 628.098699,443.046824 631.502689,449.215183 C631.733895,449.634078 631.817142,450.173833 631.838409,450.662747 C631.888843,451.827496 631.733592,453.01325 631.888236,454.159734 C632.333331,457.462798 630.265537,459.061968 627.773309,460.265989 C625.361592,461.430738 622.866325,462.435356 620.35921,463.38122 C619.286424,463.786112 618.97349,464.383099 619.142414,465.427598 C619.247232,466.077251 619.197101,466.757348 619.348707,467.392389 C619.933255,469.84031 618.830392,471.724426 617.343804,473.453284 C617.074317,473.766847 616.478527,473.982383 616.055611,473.950418 C611.968028,473.641726 607.882572,473.299547 603.804711,472.883087 C603.233531,472.824941 602.57637,472.434357 602.183228,471.995673 C600.1206,469.69327 598.058883,467.382647 596.143303,464.958472 C595.121559,463.665253 593.963097,463.154115 592.349817,462.917573 C589.953595,462.566261 588.187798,462.883173 587.024778,465.282689 C586.326602,466.722947 585.22708,467.967761 584.24939,469.385187 C585.20156,470.554807 586.070786,471.740866 587.06549,472.809719 C587.989404,473.802161 588.316314,474.909981 588.394091,476.24034 C588.606461,479.85027 588.456678,483.380439 587.547347,486.930396 C586.07747,492.671031 584.919919,498.491731 583.53815,504.256416 C583.381379,504.911245 582.748827,505.70398 582.139974,505.957875 C577.284032,507.982638 572.389505,509.915768 567.478268,511.80232 C566.98912,511.990154 566.152402,511.88543 565.747107,511.569127 C563.951536,510.167532 562.207006,508.689525 560.556356,507.120797 C560.153492,506.738129 559.953579,505.876592 560.03561,505.287825 C560.699759,500.51893 561.456269,495.762821 562.174497,491.001233 C562.233438,490.608823 562.215209,490.20454 562.241034,489.625819 C558.185048,489.625819 554.197117,489.596594 550.211314,489.669961 C549.79022,489.677572 549.297122,490.226155 548.977808,490.634091 C545.25815,495.382893 541.585888,500.168531 537.845266,504.900285 C537.27044,505.627568 536.492359,506.273873 535.67782,506.716514 C531.0145,509.252111 526.311683,511.714949 521.236991,514 C521.700923,512.189555 521.97193,510.300263 522.669803,508.585105 C524.043977,505.20776 525.625052,501.912915 527.190936,498.617461 C527.523618,497.916968 528.062289,497.243264 528.665978,496.755263 C531.97548,494.079628 535.353645,491.489234 538.655552,488.804771 C539.134978,488.414797 539.621697,487.671379 539.613797,487.098137 C539.52964,481.018976 539.326385,474.941337 539.200907,468.862481 C539.160499,466.90317 538.583243,465.213279 537.241577,463.762975 C536.660068,463.134632 536.192794,462.396694 535.702126,461.68859 C534.685851,460.220629 534.990581,459.037919 536.571656,458.293587 C538.806854,457.241173 541.04752,456.200936 543.668568,454.976519 C540.78897,451.1818 538.052471,447.575219 535.229079,443.853868 C534.146875,445.461866 533.24514,446.801662 532.166278,448.405095 C531.298267,446.535286 529.953867,445.156219 530.91272,442.992331 C532.41146,439.610419 533.023352,436.049502 532.715279,432.321758 C532.628691,431.274519 532.353735,430.890937 531.303432,430.919249 C529.634553,430.963696 527.959598,430.942386 526.293454,430.843142 C525.744453,430.810568 525.214896,430.450123 524.676528,430.239457 C525.22796,429.937767 525.75144,429.454637 526.335077,429.365135 C529.028738,428.951414 531.739108,428.647289 534.735069,428.266751 C534.289367,425.35427 533.858551,422.53738 533.410114,419.60572 C530.82674,419.482122 528.349398,419.437066 525.889982,419.201437 C525.131345,419.128983 524.279436,418.686038 523.720713,418.150241 C522.665549,417.13862 521.90509,415.810088 520.819544,414.840783 C518.549711,412.814193 518.135301,410.229888 517.816899,407.378293 C517.51551,404.682261 518.121022,402.605745 519.884388,400.616904 C521.317807,399.000686 522.480219,397.143359 523.870192,395.245847 C522.777658,394.682956 521.81121,394.185214 520.844457,393.687166 C523.619237,393.898136 525.336423,391.889203 527.380823,390.650782 C529.566194,389.327121 531.670749,387.868902 533.961242,386.371106 C529.873963,385.230712 525.693715,385.685226 521.989248,384.023952 C521.989551,383.857429 521.989855,383.690601 521.990159,383.524078 C523.887206,382.72982 525.799444,381.969354 527.6734,381.123648 C528.395579,380.797908 529.129606,380.38023 529.690152,379.832256 C534.6898,374.941285 539.652686,370.01226 544.624079,365.092369 C544.763836,364.953853 544.879287,364.790374 545.188575,364.420187 C544.590659,364.36539 544.186276,364.284716 543.785235,364.298111 C536.247785,364.55231 528.708208,364.76328 521.175924,365.120985 C519.429875,365.20379 517.653444,365.631818 515.988211,366.191361 C513.567988,367.005102 511.573415,365.978564 509.342167,365.177609 C510.151238,362.952226 510.564128,360.687877 512.753145,359.372435 C518.15748,356.123863 521.180177,350.562538 525.412378,346.173876 C528.014286,343.475714 529.540977,340.685918 530.776306,336.560588 C527.83807,336.809003 525.043542,335.379704 522.167893,336.873238 C520.067288,337.964619 517.874625,338.878822 515.538863,339.956808 C515.398498,339.319636 515.271806,338.953103 515.244766,338.578958 C515.190078,337.820623 515.257223,337.049198 515.154835,336.299387 C514.589732,332.15914 515.406702,328.425307 517.963644,325.022999 C518.542419,324.252486 518.498973,322.913299 518.502619,321.835313 C518.506872,320.682741 518.834086,320.279372 520.040551,320.214528 C524.234775,319.988946 528.335726,320.639512 532.373787,321.571372 C534.157813,321.983266 535.767751,323.116963 537.500735,323.812585 C537.931551,323.985806 538.738191,323.934662 539.026515,323.643322 C543.691658,318.926485 548.301203,314.154242 552.792865,309.139672 C551.521382,309.609712 550.218605,310.009428 548.983884,310.561664 C543.544306,312.99345 537.972263,313.312189 532.256816,311.745592 C531.574742,311.558672 530.769318,311.596117 530.206645,311.237194 C527.559468,309.547913 524.806563,309.979899 522.015376,310.635032 C521.768979,310.692874 521.514378,310.796075 521.271931,310.775983 C515.760043,310.31812 510.53405,312.510625 505.065912,312.530108 C503.723336,312.534979 503.310749,312.017144 502.967433,310.810992 C501.94417,307.215675 500.755326,303.66724 499.614181,300.106019 C499.463183,299.635066 499.21314,299.195469 498.94821,298.606702 C497.38901,299.438708 495.905461,300.183648 494.480549,301.027833 C494.165488,301.214448 493.940662,301.732892 493.875341,302.131696 C493.555419,304.081874 493.21575,306.036314 493.058067,308.00354 C492.950515,309.348816 492.490837,310.355261 491.270396,310.919369 C488.345528,312.270734 487.116884,314.542694 487.548003,317.716376 C487.779513,319.419053 488.070572,321.113814 488.331249,322.790005 C487.055208,323.059121 485.466234,323.363551 483.892451,323.733129 C480.57991,324.510339 478.270581,326.894025 475.877701,329.034167 C473.620932,331.052842 471.637601,333.377773 469.402707,335.704531 C471.632132,337.801749 473.202877,340.485907 476.31672,341.451255 C477.642587,341.862539 478.233819,343.683639 477.245799,344.787806 C476.844454,345.236232 475.367285,345.126941 474.623536,344.766801 C473.368459,344.158854 472.348538,343.082999 471.148452,342.335624 C470.554182,341.965437 469.766986,341.682926 469.086128,341.718848 C467.22007,341.817484 465.337911,341.984007 463.515907,342.374895 C462.712913,342.547202 461.984658,343.264744 461.321421,343.848031 C460.41209,344.648073 459.596944,345.555883 458.580668,346.579072 C460.390823,348.654675 462.192775,350.752502 464.044552,352.805273 C464.276063,353.061603 464.761566,353.160238 465.142555,353.197378 C469.314296,353.604706 473.496063,353.921313 477.658385,354.405356 C479.244929,354.589841 480.810509,355.074189 482.337504,355.57041 C482.730039,355.697661 483.085507,356.349141 483.211592,356.82527 C484.247919,360.740543 485.2487,364.665862 486.1954,368.603663 C486.324219,369.140678 486.223048,369.818034 486.009463,370.340131 C483.984812,375.282247 481.601654,379.980818 477.776571,383.863213 C475.399186,386.276124 473.453224,389.113411 471.094068,391.546719 C468.302882,394.425713 466.364516,397.725125 465.410523,401.579816 C464.867598,403.774147 463.577886,405.037836 461.609442,406.088728 C449.43085,412.588915 449.443307,412.589829 434.756385,415.951344 C431.262768,416.750777 427.841764,417.878994 424.410431,418.932017 C423.838947,419.107369 423.297237,419.596587 422.895284,420.071498 C421.69368,421.491968 420.568637,422.977282 419.315079,424.561231 C417.750714,422.739522 416.304839,421.05572 414.770552,419.268716 C413.221682,421.18632 411.764869,423.05552 410.226633,424.85531 C409.756321,425.405415 409.124681,425.914726 408.462051,426.187495 C403.878331,428.074961 399.30798,430.010526 394.644659,431.682455 C392.635503,432.402736 390.430384,432.713255 388.288155,432.891346 C384.006431,433.247834 379.707998,433.426534 375.412906,433.581185 C374.377794,433.618629 373.801145,433.861564 373.37033,434.869836 C372.120722,437.794495 370.744117,440.66466 369.36174,443.677298 C368.801193,443.408791 368.371593,443.203301 367.803755,442.931445 C369.391514,440.153218 370.914863,437.487629 372.605313,434.529484 C371.391556,434.529484 370.409308,434.611984 369.444378,434.51548 C364.171293,433.987598 359.195343,434.914283 354.522908,437.440138 C353.129289,438.193298 351.7141,438.233178 350.133936,437.940316 C347.369182,437.427657 344.809809,436.572513 342.339455,435.177615 C336.389765,431.818231 330.327053,428.659466 324.343031,425.360359 C323.589255,424.944812 322.793249,424.290592 322.421678,423.544739 C319.761134,418.205343 315.91296,413.978942 311.023599,410.600988 C305.959845,407.102479 302.345916,402.117439 298.239192,397.651148 C291.755387,390.599334 285.224186,383.581006 279.007439,376.296303 C274.440125,370.944425 270.326717,365.202268 266.040437,359.611412 C249.448264,337.968881 232.844243,316.335482 216.3101,294.648808 C214.041482,291.67331 212.115573,288.432654 210.094568,285.273584 C209.767354,284.762142 209.657068,284.038208 209.645827,283.408647 C209.59995,280.82221 209.576556,278.232121 209.667094,275.647815 C209.69383,274.891002 209.983066,274.058082 210.395045,273.416648 C211.708455,271.369966 213.273428,269.475803 214.478678,267.371583 C215.518044,265.556877 217.050811,265.14133 219.110705,265.006772 C219.469212,267.565201 219.851113,270.093491 220.171034,272.629392 C220.455105,274.88126 220.426242,274.875172 222.724027,275.284326 C223.658574,275.450849 224.583096,275.672169 225.782878,275.925455 C224.63353,277.314569 223.695033,278.561818 222.633792,279.693384 C221.874852,280.502559 221.607187,281.342177 221.714132,282.434776 C222.014305,285.498254 222.238524,288.569343 222.518949,291.956734 C224.777844,290.670518 226.798849,289.565437 228.774889,288.383945 C231.990815,286.460861 235.148408,284.437011 238.397754,282.572987 C239.15639,282.137652 240.203655,281.954385 241.083211,282.035668 C243.042237,282.216499 244.995794,282.563549 246.919881,282.987316 C248.241495,283.278046 249.418186,283.216552 250.50434,282.38424 C254.528121,279.301583 259.19296,278.685721 264.086879,278.559078 C269.649808,278.415083 275.238866,278.213855 280.74893,277.50636 C283.892243,277.102381 286.910079,275.667603 289.956778,274.616102 C290.336248,274.485197 290.6188,273.891559 290.819624,273.453789 C291.643885,271.657652 292.441411,269.848121 293.202478,268.024585 C293.55187,267.187708 294.044968,266.891193 294.814846,267.440689 C297.553168,269.394216 300.464667,269.272139 303.615272,268.600567 C305.995391,268.093082 307.78276,267.187099 309.429763,265.295676 C320.381229,252.718763 331.448754,240.240485 343.597571,228.788136 C344.881207,227.578331 345.266449,226.311598 345.399218,224.58061 C345.611284,221.818822 344.800391,220.065305 342.256817,218.821405 C339.775829,217.607947 340.665108,217.23776 338.50708,219.145014 C337.899746,219.681724 337.300311,220.22848 336.706648,220.780716 C331.262209,225.843385 331.274361,225.90488 324.010349,227.304649 C322.248198,227.644088 320.372418,227.566763 318.564694,227.444991 C316.628758,227.314695 315.068647,227.876064 313.543171,229.045075 C311.213182,230.830252 308.640441,232.307346 306.374254,234.164672 C303.484022,236.533746 300.147176,237.3965 296.600087,238.224854 C287.639853,240.316592 278.543203,240.431058 269.445642,240.707785 C268.776936,240.728181 267.976676,240.358299 267.433751,239.923878 C264.507061,237.580985 261.678505,235.114494 258.729332,232.801131 C258.04422,232.263812 257.037059,232.096071 256.148996,231.876273 C255.623389,231.746281 255.036106,231.798034 254.484675,231.851614 C247.005558,232.582246 239.914115,231.08232 233.078791,228.124783 C232.200754,227.744854 231.359175,227.277554 230.511519,226.830347 C222.272855,222.48187 214.829286,217.033792 207.894005,210.810636 C204.937541,208.157834 202.105643,205.473371 199.811808,202.210795 C198.181514,199.891344 196.558512,197.508266 194.576092,195.507553 C190.313813,191.205958 187.580656,185.988638 185.060172,180.612406 C184.81256,180.084524 184.790685,179.33928 184.931353,178.760254 C185.360345,176.996996 185.920284,175.265703 186.479008,173.352057 C183.870416,172.366008 181.365731,171.281629 178.77385,170.480674 C176.439303,169.759479 174.985832,168.100945 173.380148,166.236616 C174.554105,165.341288 175.739,164.566514 176.75406,163.610604 C177.27754,163.117123 177.745422,162.326823 177.814389,161.628461 C178.083269,158.904726 178.208442,156.165162 178.332401,153.428945 C178.382227,152.32904 178.845247,151.813336 179.952061,151.667818 C181.906833,151.411184 183.876493,151.157289 185.782654,150.675377 C187.518677,150.236389 189.354656,149.777309 190.842762,148.841795 C198.247747,144.185235 205.552471,139.368241 212.892742,134.60787 C212.823471,134.417297 212.754504,134.22642 212.685538,134.035846 C212.283281,133.989573 211.881328,133.936298 211.47816,133.898549 C206.405292,133.423029 201.562718,134.667843 196.644493,135.659676 C188.355395,137.330996 181.098978,141.273059 173.873854,145.356073 C172.420991,146.17712 170.89035,146.963158 169.664744,148.065499 C166.066006,151.302807 162.426252,150.095742 158.748521,148.411332 C157.517749,147.847832 156.358072,147.128464 155,146.389612 C157.570614,143.899071 159.995091,141.549786 162.58363,139.041588 C160.146089,137.169952 158.006594,135.527249 155.614322,133.690319 C156.597481,133.32348 157.291404,133.073848 157.978035,132.806558 C160.002686,132.018389 162.080809,131.339815 164.033455,130.400649 C166.342177,129.290393 168.648468,128.525665 171.261921,128.409982 C175.656969,128.215755 180.033484,127.499127 184.427013,127.400188 C189.324882,127.28968 194.233384,127.602938 199.136418,127.771592 C202.120834,127.874185 205.104642,128.025487 208.085108,128.212102 C208.998692,128.269335 209.423431,127.992304 209.68107,127.074143 C210.816746,123.024616 212.046606,119.001575 213.205676,114.958441 C213.38341,114.338013 213.428375,113.662179 213.432933,113.011308 C213.462707,108.901808 213.497342,104.7917 213.452073,100.682809 C213.43992,99.567987 213.854634,99.1889717 214.916482,99.0872921 C218.175246,98.774947 218.171904,98.7417642 219.745383,101.579964 C220.531971,102.998608 221.382969,104.38559 222.08388,105.845332 C222.600676,106.9221 223.157273,107.281328 224.416603,106.94889 C229.298066,105.659934 234.321716,104.879376 238.91455,102.593716 C239.450183,102.32734 240.339766,102.371178 240.902743,102.628421 C244.897661,104.455305 249.22435,104.718637 253.46445,105.317146 C254.449735,105.45627 255.654075,104.955179 256.577989,104.43095 C258.762145,103.190703 260.978505,102.966338 263.413312,103.436073 C270.11374,104.729596 276.838777,105.894954 283.538902,107.189085 C284.238293,107.324252 285.026096,107.84361 285.450228,108.422027 C287.696667,111.487636 289.868974,114.609565 292.001177,117.756761 C292.606992,118.650872 293.280255,119.011926 294.366105,118.999749 C304.087103,118.89198 313.808709,118.823179 323.530315,118.780255 C324.412302,118.776297 324.896589,118.477651 325.294896,117.700137 C326.796674,114.768173 328.482871,111.924797 329.856133,108.935904 C330.6649,107.176299 331.837642,106.693169 333.624099,106.594534 C338.827913,106.306848 344.028082,105.913829 349.217617,105.430089 C350.301037,105.329019 351.533023,104.901904 352.349689,104.212674 C354.81427,102.1322 357.514919,101.220737 360.724465,101.596403 C362.115349,101.759273 363.540868,101.623802 365.209139,101.623802 C365.047508,102.608024 364.958185,103.38432 364.788957,104.142351 C364.237222,106.614931 363.685182,109.088424 363.071771,111.546086 C362.836919,112.485862 363.065695,113.011308 363.943125,113.480434 C367.827149,115.557255 371.662258,117.726014 375.545675,119.803748 C376.133565,120.118224 376.890075,120.276832 377.559388,120.253086 C382.061988,120.09387 386.563981,119.898426 391.060505,119.621699 C391.672396,119.58395 392.382422,119.152572 392.824782,118.690143 C394.856421,116.566745 396.838841,114.393115 398.773866,112.180823 C399.451078,111.406962 400.124038,111.161287 401.149124,111.315024 C403.599425,111.682471 406.067652,111.945498 408.535879,112.165906 C409.007103,112.207917 409.660922,112.004253 409.979932,111.672425 C413.172463,108.349268 416.313042,104.97588 419.651711,101.421052 C418.760609,101.131843 418.079143,100.889517 417.385828,100.689202 C414.470075,99.8465403 411.565868,98.9579094 408.626113,98.2096207 C407.398988,97.8969712 406.629414,97.2731943 405.979849,96.2016009 C403.547472,92.1898235 403.511622,92.2080893 406.40398,88.5856777 C407.953762,86.644937 409.548205,84.7385969 411.054844,82.7646733 C411.671293,81.9564119 412.190216,81.8568633 413.203453,82.1518559 C416.859613,83.2173606 419.509827,85.6059177 422.082568,88.2465428 C426.199622,92.47203 426.254309,92.4205814 432.167845,92.5368736 C433.016716,92.5533128 433.865891,92.5393091 434.649137,92.5393091 C434.649137,90.2588246 434.714458,88.0940234 434.623616,85.9359198 C434.573182,84.7325083 434.984857,84.2487692 436.162156,84.3601905 C436.461418,84.3888069 436.777086,84.3772386 437.070575,84.3142216 C440.882594,83.498045 444.075734,84.3607994 446.625384,87.5043427 C447.137927,88.1363392 448.282718,88.4197634 449.179896,88.5427531 C452.73853,89.0301454 456.309924,89.4365594 459.887091,89.7577329 C460.604104,89.8222721 461.387958,89.4362549 462.099198,89.1522218 C462.506012,88.9896562 462.889432,88.6666561 463.178668,88.3266079 C465.051713,86.1219264 467.228577,85.9922393 469.608697,87.3627828 C470.244286,87.7287075 470.912385,88.1421234 471.369025,88.6961858 C472.913338,90.5699519 474.369239,92.5164768 475.992849,94.6073015 C477.793889,93.1929201 479.571535,91.8808272 481.244667,90.4469622 C482.082904,89.7285076 482.858858,89.5181466 483.83989,89.9930572 C487.283377,91.6592022 490.77517,91.718566 494.41219,90.5702564 C495.543612,90.2128556 497.000425,90.1568405 498.09782,90.5513817 C502.6466,92.1858659 507.225459,91.9255783 511.861436,91.2442642 C514.265253,90.8911255 514.310826,90.9255261 514.457874,93.3478749 C514.633482,96.2338705 514.703968,99.1259547 514.886563,102.011341 C514.921502,102.563273 515.115947,103.251589 515.490252,103.613861 C520.515725,108.477433 525.585859,113.294732 530.649005,118.119033 C530.751392,118.21645 530.905125,118.259984 531.145446,118.387236 C532.501087,114.777914 533.841537,111.208169 535.180468,107.642686 C535.464235,107.745888 535.59427,107.751672 535.648046,107.818647 C537.633808,110.300359 540.498519,110.889127 543.376294,111.526907 C544.105764,111.68856 544.933671,112.145205 545.381501,112.725752 C549.993172,118.704756 556.330536,122.597501 562.339471,126.879917 C562.810695,127.215703 563.689036,127.271109 564.275407,127.101237 C566.702922,126.396787 569.078484,125.51394 571.499923,124.78483 C572.463333,124.495013 572.717934,123.966218 572.710035,123.02279 C572.685425,120.131314 572.73434,117.23923 572.776267,114.348059 C572.785078,113.758683 572.888376,113.170524 572.962204,112.442328" id="Fill-1"></path>
        </g>
    </g>
</svg>