<?xml version="1.0" encoding="UTF-8"?>
<svg width="24px" height="24px" viewBox="0 0 24 24" version="1.1" xmlns="http://www.w3.org/2000/svg" xmlns:xlink="http://www.w3.org/1999/xlink">
    <title>D86A5939-B108-4FC5-970E-AC03EDCA6C2E</title>
    <g id="3-Banners" stroke="none" stroke-width="1" fill="none" fill-rule="evenodd">
        <g id="FLN-Programme">
            <rect id="Rectangle" fill-opacity="0.02" fill="#D8D8D8" x="0" y="0" width="24" height="24"></rect>
            <g id="Group-13" transform="translate(1.000000, 1.000000)" stroke="#231F20" stroke-linecap="round" stroke-linejoin="round" stroke-width="1.5">
                <path d="M18.1441761,14.6677 C18.1131761,14.7827 18.1861761,14.9507 18.1231761,15.0657 C18.0391761,15.1917 17.8401761,15.2227 17.7351761,15.3277 C17.6201761,15.4327 17.5361761,15.5687 17.5261761,15.7257 C17.5051761,15.9767 17.6521761,15.8937 17.6831761,16.0927 C17.7151761,16.2807 17.5051761,16.5327 17.4841761,16.7837 C17.4631761,17.1817 17.6201761,17.2867 17.8721761,17.5277 C18.0081761,17.6527 18.0081761,17.6527 18.1131761,17.7897 C18.2071761,17.9257 18.2801761,18.0617 18.3951761,18.1767 C18.6781761,18.4697 18.9721761,18.6067 19.2541761,18.6167 L19.2541761,19.7797 L10.7171761,22.0007 L2.18017606,19.7797 L2.18017606,18.6167 C2.46317606,18.6067 2.75617606,18.4697 3.03917606,18.1767 C3.16517606,18.0617 3.23817606,17.9257 3.33217606,17.7897 C3.42617606,17.6527 3.43717606,17.6527 3.57317606,17.5277 C3.82517606,17.2867 3.97117606,17.1817 3.95017606,16.7837 C3.94017606,16.5327 3.72017606,16.2807 3.75117606,16.0927 C3.78317606,15.8937 3.94017606,15.9767 3.90817606,15.7257 C3.89817606,15.5687 3.81417606,15.4327 3.69917606,15.3277 C3.60517606,15.2227 3.39517606,15.1917 3.32217606,15.0657 C3.24817606,14.9507 3.32217606,14.7827 3.30117606,14.6677 C3.21717606,14.3117 2.92417606,14.1547 2.60917606,14.0707 C2.34817606,14.0077 2.22217606,13.9867 2.18017606,13.8607 L2.18017606,8.4877 L10.7171761,10.8967 L19.2541761,8.4877 L19.2541761,13.8817 C19.1921761,13.9867 19.0761761,14.0077 18.8251761,14.0707 C18.5111761,14.1547 18.2281761,14.3117 18.1441761,14.6677 Z" id="Stroke-1"></path>
                <path d="M3.95037606,16.7837 C3.97137606,17.1817 3.82437606,17.2867 3.57337606,17.5277 C3.43737606,17.6527 3.42637606,17.6527 3.33237606,17.7897 C3.23837606,17.9257 3.16437606,18.0617 3.03937606,18.1767 C2.75637606,18.4697 2.46337606,18.6067 2.18037606,18.6167 C1.16437606,18.7107 0.305376063,17.2657 0.0953760635,16.3437 C-0.0306239365,15.7887 -0.0616239365,15.0657 0.189376063,14.5417 C0.430376063,14.0497 0.870376063,13.5367 1.23737606,13.1387 C1.40537606,12.9607 1.66637606,12.7297 1.92837606,12.7617 L2.02337606,12.8977 C2.14837606,13.1807 2.14837606,13.2427 2.14837606,13.5787 C2.14837606,13.7037 2.14837606,13.7987 2.18037606,13.8607 C2.22237606,13.9867 2.34737606,14.0077 2.60937606,14.0707 C2.92337606,14.1547 3.21737606,14.3117 3.30137606,14.6677 C3.32237606,14.7827 3.24837606,14.9507 3.32237606,15.0657 C3.39537606,15.1917 3.60437606,15.2227 3.69937606,15.3277 C3.81437606,15.4327 3.89837606,15.5687 3.90837606,15.7257 C3.94037606,15.9767 3.78237606,15.8937 3.75137606,16.0927 C3.72037606,16.2807 3.94037606,16.5327 3.95037606,16.7837 Z" id="Stroke-3"></path>
                <path d="M21.3390761,16.3438 C21.1300761,17.2658 20.2710761,18.7108 19.2540761,18.6168 C18.9720761,18.6068 18.6780761,18.4698 18.3950761,18.1768 C18.2800761,18.0618 18.2070761,17.9258 18.1130761,17.7898 C18.0080761,17.6528 18.0080761,17.6528 17.8720761,17.5278 C17.6200761,17.2868 17.4630761,17.1818 17.4840761,16.7838 C17.5050761,16.5328 17.7150761,16.2808 17.6830761,16.0928 C17.6520761,15.8938 17.5050761,15.9768 17.5260761,15.7258 C17.5370761,15.5688 17.6200761,15.4328 17.7360761,15.3278 C17.8400761,15.2228 18.0390761,15.1918 18.1230761,15.0658 C18.1860761,14.9508 18.1130761,14.7828 18.1440761,14.6678 C18.2280761,14.3118 18.5110761,14.1548 18.8250761,14.0708 C19.0760761,14.0078 19.1920761,13.9868 19.2540761,13.8818 C19.2860761,13.8188 19.2960761,13.7248 19.2960761,13.5788 C19.2860761,13.2428 19.2860761,13.1798 19.4120761,12.8978 L19.5060761,12.7618 C19.7680761,12.7298 20.0300761,12.9598 20.1970761,13.1388 C20.5740761,13.5368 21.0040761,14.0498 21.2450761,14.5418 C21.4960761,15.0658 21.4650761,15.7888 21.3390761,16.3438 Z" id="Stroke-5"></path>
                <path d="M12.1884761,2.237 C12.1884761,2.237 12.7984761,5.125 14.9094761,5.393 C14.9964761,5.051 15.0474761,4.697 15.0474761,4.329 C15.0474761,1.938 13.1094761,0 10.7184761,0 C8.32747606,0 6.38947606,1.938 6.38947606,4.329 C6.38947606,4.574 6.41547606,4.814 6.45447606,5.049 C7.42247606,5.121 11.7744761,5.272 12.1884761,2.237 Z" id="Stroke-7"></path>
                <path d="M12.1884761,2.237 C11.7744761,5.272 7.42247606,5.121 6.45447606,5.049 C6.79847606,7.096 8.57347606,8.657 10.7184761,8.657 C12.7414761,8.657 14.4344761,7.268 14.9094761,5.393 C12.7984761,5.125 12.1884761,2.237 12.1884761,2.237 Z" id="Stroke-9"></path>
                <line x1="10.7173761" y1="10.8967" x2="10.7173761" y2="22.0007" id="Stroke-11"></line>
            </g>
        </g>
    </g>
</svg>