<?xml version="1.0" encoding="UTF-8"?>
<svg width="24px" height="24px" viewBox="0 0 24 24" version="1.1" xmlns="http://www.w3.org/2000/svg" xmlns:xlink="http://www.w3.org/1999/xlink">
    <title>CF3DDCDA-DB56-4F95-8ED3-6FAC0CC55ECB</title>
    <g id="3-Banners" stroke="none" stroke-width="1" fill="none" fill-rule="evenodd">
        <g id="NISHTHA-FLN-COurses">
            <rect id="Rectangle" x="0" y="-3.55271368e-15" width="24" height="24"></rect>
            <g id="Group-21" transform="translate(1.000000, 3.000000)" stroke="#231F20" stroke-linecap="round" stroke-linejoin="round" stroke-width="1.5">
                <path d="M11.2,3.41 L11.2,18.3 L11.15,18.3 C10.89,16.72 9.67,15.53 8.2,15.53 L2.43,15.53 L2.43,0 L8.2,0 C9.62,0 10.8,1.11 11.11,2.61 C11.17,2.87 11.2,3.13 11.2,3.41 Z" id="Stroke-1"></path>
                <path d="M19.97,0 L19.97,15.53 L14.2,15.53 C12.73,15.53 11.51,16.72 11.25,18.3 L11.2,18.3 L11.2,3.41 C11.2,3.13 11.23,2.87 11.29,2.61 C11.6,1.11 12.78,0 14.2,0 L19.97,0 Z" id="Stroke-3"></path>
                <path d="M11.2,3.41 C11.2,3.13 11.17,2.87 11.11,2.61 L11.29,2.61 C11.23,2.87 11.2,3.13 11.2,3.41 Z" id="Stroke-5"></path>
                <path d="M22.2,2.6099 L22.2,18.8499 L0,18.8499 L0,2.6099 L2.43,2.6099 L2.43,15.5299 L8.2,15.5299 C9.67,15.5299 10.89,16.7199 11.15,18.2999 L11.25,18.2999 C11.51,16.7199 12.73,15.5299 14.2,15.5299 L19.97,15.5299 L19.97,2.6099 L22.2,2.6099 Z" id="Stroke-7"></path>
                <line x1="5.1401" y1="4.4366" x2="8.4901" y2="4.4366" id="Stroke-9"></line>
                <line x1="5.1401" y1="7.9128" x2="8.4901" y2="7.9128" id="Stroke-11"></line>
                <line x1="5.1401" y1="11.389" x2="8.4901" y2="11.389" id="Stroke-13"></line>
                <line x1="13.9101" y1="4.4366" x2="17.2601" y2="4.4366" id="Stroke-15"></line>
                <line x1="13.9101" y1="7.9128" x2="17.2601" y2="7.9128" id="Stroke-17"></line>
                <line x1="13.9101" y1="11.389" x2="17.2601" y2="11.389" id="Stroke-19"></line>
            </g>
        </g>
    </g>
</svg>