<?xml version="1.0" encoding="UTF-8"?>
<svg width="24px" height="24px" viewBox="0 0 24 24" version="1.1" xmlns="http://www.w3.org/2000/svg" xmlns:xlink="http://www.w3.org/1999/xlink">
    <title>2B0DB8F4-3EF1-4EB9-82E9-48F181FF527F</title>
    <g id="3-Banners" stroke="none" stroke-width="1" fill="none" fill-rule="evenodd">
        <g id="Revision-Preperation">
            <polygon id="Stroke-11" points="0 24 24 24 24 0 0 0"></polygon>
            <path d="M19.577,8.5622 C19.577,3.7502 15.796,1.0002 11.671,1.0002 C6.545,1.0002 2.389,5.1552 2.389,10.2812 C2.389,13.1922 3.73,15.7882 5.827,17.4902 L5.827,23.0002 L15.452,23.0002 L15.452,19.6752 C16.935,19.6852 18.218,19.5462 18.889,18.8752 C19.749,18.0152 19.577,14.7502 19.577,14.7502 C19.577,14.7502 20.363,14.7812 20.98,14.7552 C21.194,14.7472 21.392,14.6382 21.515,14.4622 C21.638,14.2872 21.591,14.0732 21.607,13.8592 C21.717,12.3232 19.577,9.3292 19.577,8.5622 Z" id="Stroke-1" stroke="#231F20" stroke-width="1.5" stroke-linecap="round" stroke-linejoin="round"></path>
            <path d="M8.2992,5.7575 C8.1112,5.8965 7.9362,6.0475 7.7672,6.2175 C7.0792,6.9115 6.6222,7.7375 6.3912,8.6145 C5.9222,10.3985 6.3792,12.3845 7.7672,13.7845 C9.1562,15.1845 11.1272,15.6445 12.8912,15.1655" id="Stroke-3" stroke="#231F20" stroke-width="1.5" stroke-linecap="round" stroke-linejoin="round"></path>
            <path d="M14.7425,14.2451 C14.9305,14.1061 15.1055,13.9551 15.2745,13.7851 C15.9625,13.0911 16.4195,12.2651 16.6445,11.3821 C17.1195,9.6041 16.6625,7.6181 15.2745,6.2181 C13.8855,4.8181 11.9145,4.3581 10.1445,4.8301" id="Stroke-5" stroke="#231F20" stroke-width="1.5" stroke-linecap="round" stroke-linejoin="round"></path>
            <polyline id="Stroke-7" stroke="#231F20" stroke-width="1.5" stroke-linecap="round" stroke-linejoin="round" points="16.8673 14.318 14.7393 14.318 14.7393 12.173"></polyline>
            <polyline id="Stroke-9" stroke="#231F20" stroke-width="1.5" stroke-linecap="round" stroke-linejoin="round" points="6.1692 5.6788 8.2972 5.6788 8.2972 7.8238"></polyline>
        </g>
    </g>
</svg>