<?xml version="1.0" encoding="UTF-8"?>
<svg width="24px" height="24px" viewBox="0 0 24 24" version="1.1" xmlns="http://www.w3.org/2000/svg" xmlns:xlink="http://www.w3.org/1999/xlink">
    <title>2D57C36C-F405-4ACD-89DC-404E04DDC0A1</title>
    <g id="3-Banners" stroke="none" stroke-width="1" fill="none" fill-rule="evenodd">
        <g id="NISHTA--Secondary-Courses">
            <rect id="Rectangle" x="0" y="-5.32907052e-15" width="24" height="24"></rect>
            <path d="M21.1058834,19.1095296 C21.2267715,19.2326254 21.3006475,19.4010722 21.3006475,19.569519 C21.3006475,19.7379658 21.2267715,19.9064126 21.1058834,20.0295083 C20.9782794,20.1461253 20.8036633,20.2173913 20.6290472,20.2173913 C20.4544311,20.2173913 20.279815,20.1461253 20.1522109,20.0295083 C20.0313228,19.9064126 19.9574468,19.7379658 19.9574468,19.569519 C19.9574468,19.4010722 20.0313228,19.2326254 20.1522109,19.1095296 C20.4074191,18.8698169 20.8573913,18.8698169 21.1058834,19.1095296 Z M11.654513,3.08712258 C11.8688999,2.97095914 12.1311001,2.97095914 12.345487,3.08712258 L12.345487,3.08712258 L22.6433594,8.66692304 C23.1188802,8.92457933 23.1188802,9.58119724 22.6433594,9.83885353 L22.6433594,9.83885353 L21.205,10.617 L21.2090657,10.6631675 L21.2090657,17.4079813 C21.2090657,17.7797174 20.8947124,18.0810691 20.506938,18.0810691 C20.1514782,18.0810691 19.8577124,17.82785 19.81122,17.4993153 L19.8048104,17.4079813 L19.803,11.377 L18.454,12.108 L18.4542067,16.9649795 C18.4542067,17.1961185 18.317373,17.4072297 18.1012021,17.5096059 C14.260269,19.3286298 9.73973097,19.3286298 5.89879792,17.5096059 C5.70964835,17.4200268 5.58124134,17.2471973 5.55209505,17.0505446 L5.54579326,16.9649795 L5.545,12.108 L1.35664065,9.83885353 C0.912821175,9.59837433 0.88323321,9.01035522 1.26787675,8.72353737 L1.35664065,8.66692304 Z M17.186,12.795 L12.345487,15.418654 C12.1311001,15.5348174 11.8688999,15.5348174 11.654513,15.418654 L11.654513,15.418654 L6.813,12.795 L6.81268085,16.5793224 L7.12090909,16.7106493 C10.2355488,17.9750507 13.7644512,17.9750507 16.8790909,16.7106493 L17.186383,16.5793224 L17.186,12.795 Z M12,4.44579263 L3.12885106,9.25253711 L12,14.0583841 L18.397,10.592 L13.0864661,8.59171952 C12.7556213,8.4671205 12.5787833,8.128463 12.6608227,7.8063819 L12.6896944,7.71912587 C12.8196691,7.40196473 13.1729377,7.23244074 13.5089148,7.31108703 L13.5999354,7.33876453 L19.972,9.738 L20.8702128,9.25253711 L12,4.44579263 Z" id="Combined-Shape" fill="#333333" fill-rule="nonzero"></path>
        </g>
    </g>
</svg>