<?xml version="1.0" encoding="UTF-8"?>
<svg width="24px" height="24px" viewBox="0 0 24 24" version="1.1" xmlns="http://www.w3.org/2000/svg" xmlns:xlink="http://www.w3.org/1999/xlink">
    <title>C2347A5B-F49F-44B8-8B06-76297A9C5906</title>
    <g id="Page-1" stroke="none" stroke-width="1" fill="none" fill-rule="evenodd">
        <g id="My-groups" transform="translate(-1304.000000, -157.000000)" fill="#024F9D">
            <path d="M1317.2,175 L1317.2,167.8 L1314.8,167.8 L1314.8,175 L1317.2,175 Z M1304,169 C1304,175.624 1309.376,181 1316,181 C1322.624,181 1328,175.624 1328,169 C1328,162.376 1322.624,157 1316,157 C1309.376,157 1304,162.376 1304,169 Z M1306.4,169 C1306.4,163.708 1310.708,159.4 1316,159.4 C1321.292,159.4 1325.6,163.708 1325.6,169 C1325.6,174.292 1321.292,178.6 1316,178.6 C1310.708,178.6 1306.4,174.292 1306.4,169 Z M1317.2,165.4 L1317.2,163 L1314.8,163 L1314.8,165.4 L1317.2,165.4 Z" id="info-icon"></path>
        </g>
    </g>
</svg>