<?xml version="1.0" encoding="UTF-8"?>
<svg width="24px" height="24px" viewBox="0 0 24 24" version="1.1" xmlns="http://www.w3.org/2000/svg" xmlns:xlink="http://www.w3.org/1999/xlink">
    <title>8898D48C-C2E9-4484-8BD0-3C0922D397D4</title>
    <g id="Page-1" stroke="none" stroke-width="1" fill="none" fill-rule="evenodd">
        <g id="My-group-default" transform="translate(-114.000000, -480.000000)">
            <g id="Group-5" transform="translate(16.000000, 468.000000)">
                <g id="Group-3" transform="translate(98.000000, 12.000000)">
                    <g id="ic_group_add">
                        <g id="Icon-24px">
                            <polygon id="Shape" points="0 0 24 0 24 24 0 24"></polygon>
                            <path d="M8,11 L5,11 L5,8 L3,8 L3,11 L0,11 L0,13 L3,13 L3,16 L5,16 L5,13 L8,13 L8,11 L8,11 Z M18,12 C19.66,12 20.99,10.66 20.99,9 C20.99,7.34 19.66,6 18,6 C17.68,6 17.37,6.05 17.09,6.14 C17.66,6.95 17.99,7.93 17.99,9 C17.99,10.07 17.65,11.04 17.09,11.86 C17.37,11.95 17.68,12 18,12 L18,12 Z M13,12 C14.66,12 15.99,10.66 15.99,9 C15.99,7.34 14.66,6 13,6 C11.34,6 10,7.34 10,9 C10,10.66 11.34,12 13,12 L13,12 Z M19.62,14.16 C20.45,14.89 21,15.82 21,17 L21,19 L24,19 L24,17 C24,15.46 21.63,14.51 19.62,14.16 L19.62,14.16 Z M13,14 C11,14 7,15 7,17 L7,19 L19,19 L19,17 C19,15 15,14 13,14 L13,14 Z" id="Shape" fill="#FFFFFF"></path>
                        </g>
                    </g>
                </g>
            </g>
        </g>
    </g>
</svg>