<?xml version="1.0" encoding="UTF-8"?>
<svg width="24px" height="24px" viewBox="0 0 24 24" version="1.1" xmlns="http://www.w3.org/2000/svg" xmlns:xlink="http://www.w3.org/1999/xlink">
    <title>C2677DAA-CC36-419F-AF28-3DAB435A3D1D</title>
    <g id="Page-1" stroke="none" stroke-width="1" fill="none" fill-rule="evenodd">
        <g id="My-groups" transform="translate(-1163.000000, -157.000000)">
            <g id="Create-Group_CTA" transform="translate(1147.000000, 153.000000)">
                <g id="Group-2" transform="translate(16.000000, 4.000000)">
                    <g id="Group-4-Copy">
                        <rect id="Rectangle" x="0" y="0" width="24" height="24"></rect>
                        <path d="M12.25,15 C14.3210678,15 16,16.5801715 16,18.5294118 L16,19 L8,19 L8,18.5294118 C8,16.5801715 9.67893219,15 11.75,15 L12.25,15 Z M6.31479404,16 C6.94229492,16 7.52364186,16.1788423 8,16.4832794 C7.49192639,17.1276423 7.19302272,17.9164001 7.19302272,18.7683408 L7.19302272,19 L3,19 L3,18.6470588 C3,17.1851286 4.30948573,16 5.92481829,16 L6.31479404,16 Z M18.073564,16 C19.68979,16 21,17.1851286 21,18.6470588 L21,19 L16.8080399,19 L16.8080399,18.7683408 C16.8080399,17.9156224 16.5087123,17.1262023 16,16.4815151 C16.4761049,16.1781516 17.0567381,16 17.6833725,16 L18.073564,16 Z M6.5,12 C7.32842711,12 8,12.6715729 8,13.5 C8,14.3284271 7.32842711,15 6.5,15 C5.67157286,15 5,14.3284271 5,13.5 C5,12.6715729 5.67157286,12 6.5,12 Z M17.5,12 C18.3284271,12 19,12.6715729 19,13.5 C19,14.3284271 18.3284271,15 17.5,15 C16.6715729,15 16,14.3284271 16,13.5 C16,12.6715729 16.6715729,12 17.5,12 Z M12,10 C13.1045695,10 14,10.8954305 14,12 C14,13.1045695 13.1045695,14 12,14 C10.8954305,14 10,13.1045695 10,12 C10,10.8954305 10.8954305,10 12,10 Z M8.5,4.5 L8.499,7 L11,7 L11,8 L8.499,8 L8.5,10.5 L7.5,10.5 L7.499,8 L5,8 L5,7 L7.499,7 L7.5,4.5 L8.5,4.5 Z" id="Combined-Shape" fill="#FFFFFF"></path>
                    </g>
                </g>
            </g>
        </g>
    </g>
</svg>