<?xml version="1.0" encoding="utf-8"?>
<!-- Generator: Adobe Illustrator 24.0.1, SVG Export Plug-In . SVG Version: 6.00 Build 0)  -->
<svg version="1.1" id="Layer_1" xmlns="http://www.w3.org/2000/svg" xmlns:xlink="http://www.w3.org/1999/xlink" x="0px" y="0px"
	 viewBox="0 0 20 20" style="enable-background:new 0 0 20 20;" xml:space="preserve">
<style type="text/css">
	.st0{fill:#F3A637;}
</style>
<g>
	<path class="st0" d="M17,0H3C1.3,0,0,1.4,0,3v10c0,1.7,1.3,3,3,3v3c0,1.2,1.3,1.2,1.7,0.7L8.4,16H17c1.7,0,3-1.3,3-3V3
		C20,1.4,18.7,0,17,0z M18,13c0,0.6-0.4,1-1,1H8c-0.3,0-0.5,0.1-0.7,0.3L5,16.6V15c0-0.6-0.4-1-1-1H3c-0.6,0-1-0.4-1-1V3
		c0-0.6,0.4-1,1-1h14c0.6,0,1,0.4,1,1V13z"/>
	<path class="st0" d="M10,6C9.4,6,9,6.5,9,7v5c0,0.6,0.4,1,1,1s1-0.4,1-1V7C11,6.5,10.6,6,10,6z"/>
	<circle class="st0" cx="10" cy="4" r="1"/>
</g>
<path class="st0" d="M11,13.1H9c-0.6,0-1-0.4-1-1v0c0-0.6,0.4-1,1-1h2c0.6,0,1,0.4,1,1v0C12,12.7,11.6,13.1,11,13.1z"/>
<path class="st0" d="M10,8H9C8.4,8,8,7.6,8,7v0c0-0.6,0.4-1,1-1h1c0.6,0,1,0.4,1,1v0C11,7.6,10.6,8,10,8z"/>
</svg>
