<?xml version="1.0" encoding="UTF-8"?>
<svg width="12px" height="12px" viewBox="0 0 12 12" version="1.1" xmlns="http://www.w3.org/2000/svg" xmlns:xlink="http://www.w3.org/1999/xlink">
    <!-- Generator: sketchtool 63.1 (101010) - https://sketch.com -->
    <title>83D1C0E0-18E3-400B-8879-E213B280F581@3x</title>
    <desc>Created with sketchtool.</desc>
    <g id="Page-1" stroke="none" stroke-width="1" fill="none" fill-rule="evenodd">
        <g id="Artboard" transform="translate(-1067.000000, -304.000000)" fill-rule="nonzero">
            <g id="Group-5" transform="translate(967.000000, 303.000000)">
                <g id="info-outline" transform="translate(99.000000, 0.000000)">
                    <rect id="Rectangle" fill="#000000" opacity="0" transform="translate(7.000000, 7.000000) rotate(180.000000) translate(-7.000000, -7.000000) " x="-1.03620816e-15" y="1.03620816e-15" width="14" height="14"></rect>
                    <path d="M7,1.16666667 C3.77833896,1.16666667 1.16666667,3.77833896 1.16666667,7 C1.16666667,10.221661 3.77833896,12.8333333 7,12.8333333 C10.221661,12.8333333 12.8333333,10.221661 12.8333333,7 C12.8333333,5.45290381 12.2187518,3.96917265 11.1247896,2.87521044 C10.0308273,1.78124824 8.54709619,1.16666667 7,1.16666667 Z M7,11.6666667 C4.42267117,11.6666667 2.33333333,9.57732883 2.33333333,7 C2.33333333,4.42267117 4.42267117,2.33333333 7,2.33333333 C9.57732883,2.33333333 11.6666667,4.42267117 11.6666667,7 C11.6666667,8.23767695 11.1750014,9.42466188 10.2998316,10.2998316 C9.42466188,11.1750014 8.23767695,11.6666667 7,11.6666667 Z" id="Shape" fill="#333333"></path>
                    <circle id="Oval" fill="#333333" cx="7" cy="4.66666667" r="1"></circle>
                    <path d="M7,5.83333333 C6.6778339,5.83333333 6.41666667,6.09450056 6.41666667,6.41666667 L6.41666667,9.33333333 C6.41666667,9.65549944 6.6778339,9.91666667 7,9.91666667 C7.3221661,9.91666667 7.58333333,9.65549944 7.58333333,9.33333333 L7.58333333,6.41666667 C7.58333333,6.09450056 7.3221661,5.83333333 7,5.83333333 Z" id="Path" fill="#333333"></path>
                </g>
            </g>
        </g>
    </g>
</svg>