<?xml version="1.0" encoding="utf-8"?>
<!-- Generator: Adobe Illustrator 23.0.3, SVG Export Plug-In . SVG Version: 6.00 Build 0)  -->
<svg version="1.1" id="Layer_1" xmlns="http://www.w3.org/2000/svg" xmlns:xlink="http://www.w3.org/1999/xlink" x="0px" y="0px"
	 viewBox="0 0 20 20" style="enable-background:new 0 0 20 20;" xml:space="preserve">
<style type="text/css">
	.st0{clip-path:url(#SVGID_2_);}
	.st1{clip-path:url(#SVGID_4_);fill:#020203;}
</style>
<g>
	<g>
		<g>
			<defs>
				<path id="SVGID_1_" d="M12,15H8.2v-0.5c0.1-0.1,0.3-0.1,0.4-0.2c0.2,0,0.3-0.1,0.5-0.2v-5L8.2,9V8.5c0.1,0,0.3-0.1,0.5-0.2
					s0.4-0.1,0.6-0.1c0.2,0,0.4-0.1,0.7-0.1C10.2,8,10.4,8,10.6,8H11v6.2c0.2,0,0.4,0.1,0.5,0.1c0.2,0,0.3,0.1,0.4,0.2L12,15L12,15z
					 M9.2,5.1C9.4,4.9,9.7,4.8,10,4.8s0.6,0.1,0.8,0.3c0.2,0.2,0.3,0.4,0.3,0.8c0,0.3-0.1,0.6-0.3,0.7c-0.2,0.2-0.5,0.3-0.8,0.3
					S9.4,6.8,9.2,6.6S8.9,6.2,8.9,5.9C8.9,5.6,9,5.3,9.2,5.1z M10,0C4.5,0,0,4.5,0,10s4.5,10,10,10s10-4.5,10-10S15.5,0,10,0z"/>
			</defs>
			<clipPath id="SVGID_2_">
				<use xlink:href="#SVGID_1_"  style="overflow:visible;"/>
			</clipPath>
			<g class="st0">
				<g>
					<g>
						<defs>
							<rect id="SVGID_3_" width="20" height="20"/>
						</defs>
						<clipPath id="SVGID_4_">
							<use xlink:href="#SVGID_3_"  style="overflow:visible;"/>
						</clipPath>
						<rect x="-5" y="-5" class="st1" width="30" height="30"/>
					</g>
				</g>
			</g>
		</g>
	</g>
</g>
</svg>
