<svg xmlns="http://www.w3.org/2000/svg" xmlns:xlink="http://www.w3.org/1999/xlink" viewBox="0 0 20 20" xmlns:v="https://vecta.io/nano"><defs><path id="A" d="M12 15H8.2v-.5c.1-.1.3-.1.4-.2.2 0 .3-.1.5-.2v-5L8.2 9v-.5c.1 0 .3-.1.5-.2s.4-.1.6-.1.4-.1.7-.1c.2-.1.4-.1.6-.1h.4v6.2c.2 0 .4.1.5.1.2 0 .3.1.4.2l.1.5zM9.2 5.1c.2-.2.5-.3.8-.3s.6.1.8.3.3.4.3.8c0 .3-.1.6-.3.7-.2.2-.5.3-.8.3s-.6-.1-.8-.3-.3-.4-.3-.7.1-.6.3-.8zM10 0C4.5 0 0 4.5 0 10s4.5 10 10 10 10-4.5 10-10S15.5 0 10 0z"/></defs><clipPath id="B"><use xlink:href="#A"/></clipPath><g clip-path="url(#B)"><defs><path id="C" d="M0 0h20v20H0z"/></defs><clipPath id="D"><use xlink:href="#C"/></clipPath><path d="M-5-5h30v30H-5z" clip-path="url(#D)" fill="#020203"/></g></svg>