<?xml version="1.0" encoding="UTF-8"?>
<svg width="24px" height="24px" viewBox="0 0 24 24" version="1.1" xmlns="http://www.w3.org/2000/svg" xmlns:xlink="http://www.w3.org/1999/xlink">
    <title>74026CDA-DCF3-48C6-95CE-B975A3751FDE</title>
    <g id="Page-1" stroke="none" stroke-width="1" fill="none" fill-rule="evenodd">
        <g id="Specific-Group_-Empty-state" transform="translate(-1256.000000, -213.000000)" fill="#024F9D">
            <g id="Title-header" transform="translate(0.000000, 185.000000)">
                <path d="M1269.2,46 L1269.2,38.8 L1266.8,38.8 L1266.8,46 L1269.2,46 Z M1256,40 C1256,46.624 1261.376,52 1268,52 C1274.624,52 1280,46.624 1280,40 C1280,33.376 1274.624,28 1268,28 C1261.376,28 1256,33.376 1256,40 Z M1258.4,40 C1258.4,34.708 1262.708,30.4 1268,30.4 C1273.292,30.4 1277.6,34.708 1277.6,40 C1277.6,45.292 1273.292,49.6 1268,49.6 C1262.708,49.6 1258.4,45.292 1258.4,40 Z M1269.2,36.4 L1269.2,34 L1266.8,34 L1266.8,36.4 L1269.2,36.4 Z" id="info-icon"></path>
            </g>
        </g>
    </g>
</svg>