<?xml version="1.0" encoding="UTF-8"?>
<svg width="16px" height="16px" viewBox="0 0 16 16" version="1.1" xmlns="http://www.w3.org/2000/svg" xmlns:xlink="http://www.w3.org/1999/xlink">
    <!-- Generator: sketchtool 61 (101010) - https://sketch.com -->
    <title>8B7A2496-C699-4DBA-A25B-176027488CBE@3x</title>
    <desc>Created with sketchtool.</desc>
    <g id="Page-1" stroke="none" stroke-width="1" fill="none" fill-rule="evenodd">
        <g id="C-12" transform="translate(-982.000000, -785.000000)" fill="#999999" fill-rule="nonzero">
            <g id="Group-4" transform="translate(266.000000, 777.000000)">
                <g id="Group-7">
                    <g id="Group-2-Copy" transform="translate(615.000000, 0.000000)">
                        <g id="noun_Info_1845673-(1)" transform="translate(101.000000, 8.000000)">
                            <g id="Group">
                                <path d="M8.02526316,15.7670181 C4.89236987,15.7681529 2.06738286,13.8816673 0.867952,10.9874684 C-0.331478861,8.09326948 0.330934531,4.761515 2.54622476,2.54622476 C4.761515,0.330934531 8.09326948,-0.331478861 10.9874684,0.867952 C13.8816673,2.06738286 15.7681529,4.89236987 15.7670181,8.02526316 C15.7608336,12.298352 12.298352,15.7608336 8.02526316,15.7670181 Z M8.02526316,1.40350817 C5.34675836,1.40237333 2.93136507,3.0149919 1.90555881,5.48928185 C0.879752547,7.96357179 1.44558867,10.8121667 3.33917617,12.7065572 C5.23276368,14.6009478 8.08111841,15.1679917 10.5558431,14.1432346 C13.0305677,13.1184775 14.6442105,10.7037682 14.6442105,8.02526316 C14.6411176,4.37054679 11.6799779,1.40815132 8.02526316,1.40350817 Z" id="Shape"></path>
                                <circle id="Oval" cx="8.02526316" cy="5.38666667" r="1"></circle>
                                <rect id="Rectangle" x="7.32631579" y="6.9754386" width="1.3922807" height="4.58385965"></rect>
                            </g>
                        </g>
                    </g>
                </g>
            </g>
        </g>
    </g>
</svg>