<svg xmlns="http://www.w3.org/2000/svg" width="512" height="512" xmlns:v="https://vecta.io/nano">
<path d="M256 512c-68.38 0-132.667-26.63-181.02-74.98S0 324.38 0 256 26.63 123.333 74.98 74.98 187.62 0 256 0s132.667 26.63 181.02 74.98S512 187.62 512 256s-26.63 132.667-74.98 181.02S324.38 512 256 512z" fill="#5c8db7"/>
<path d="M437.02 74.98C388.667 26.63 324.38 0 256 0v512c68.38 0 132.667-26.63 181.02-74.98S512 324.38 512 256s-26.63-132.667-74.98-181.02z" fill="#5c8db7"/>
<g fill="#fff"><path d="M256 185c-30.327 0-55-24.673-55-55s24.673-55 55-55 55 24.673 55 55-24.673 55-55 55zm45 210V215H191v30h30v150h-30v30h140v-30h-30z"/>
<path d="M256 185c30.327 0 55-24.673 55-55s-24.673-55-55-55v110zm45 210V215h-45v210h75v-30z"/></g></svg>