<?xml version="1.0" encoding="UTF-8"?>
<svg width="23px" height="24px" viewBox="0 0 23 24" version="1.1" xmlns="http://www.w3.org/2000/svg" xmlns:xlink="http://www.w3.org/1999/xlink">
    <title>4F509638-A0D5-49BA-8359-4EB22B35DD46</title>
    <g id="Page-2" stroke="none" stroke-width="1" fill="none" fill-rule="evenodd" stroke-linecap="round" stroke-linejoin="round">
        <g id="Diksha_new-Header-" transform="translate(-1202.000000, -35.000000)" stroke="#333333" stroke-width="1.5">
            <g id="Languages" transform="translate(1186.000000, 28.000000)">
                <g id="Group-18" transform="translate(16.000000, 8.000000)">
                    <polyline id="Stroke-1" points="13.4214 9.2969 15.3444 3.5279 16.1134 3.5279 18.0374 9.2969"></polyline>
                    <line x1="14.3829" y1="7.374" x2="17.0749" y2="7.374" id="Stroke-2"></line>
                    <g id="Group-17" transform="translate(0.000000, 0.500000)">
                        <path d="M21.5001,1.79 L21.5001,10.25 C21.5001,11.1 20.8101,11.79 19.9601,11.79 L15.7301,11.79 L12.2701,15.25 L12.2701,11.79 L11.5001,11.79 C11.4501,11.79 11.4001,11.79 11.3501,11.78 C10.6301,11.71 10.0601,11.15 9.9801,10.44 C9.9601,10.38 9.9601,10.32 9.9601,10.25 L9.9601,1.79 C9.9601,0.94 10.6501,0.25 11.5001,0.25 L19.9601,0.25 C20.8101,0.25 21.5001,0.94 21.5001,1.79 Z" id="Stroke-3"></path>
                        <path d="M15.7501,13.75 C15.7501,15.44 15.1801,16.99 14.2401,18.25 C14.1101,18.42 13.9801,18.59 13.8301,18.74 C13.6501,18.95 13.4501,19.15 13.2401,19.34 C13.1201,19.45 13.0001,19.55 12.8701,19.64 C12.8301,19.68 12.7801,19.72 12.7401,19.75 C12.5901,19.87 12.4301,19.97 12.2701,20.08 C11.9501,20.28 11.6101,20.46 11.2601,20.61 C11.1501,20.66 11.0401,20.71 10.9301,20.75 C10.9101,20.76 10.8901,20.77 10.8601,20.78 C10.7101,20.84 10.5501,20.89 10.4001,20.93 C10.1801,21 9.9501,21.05 9.7201,21.1 C9.5801,21.13 9.4301,21.15 9.2901,21.17 C9.1401,21.2 8.9901,21.21 8.8501,21.22 C8.7101,21.23 8.5601,21.24 8.4101,21.24 C8.3501,21.25 8.3001,21.25 8.2501,21.25 C8.1901,21.25 8.1401,21.25 8.0801,21.24 C7.9301,21.24 7.7801,21.23 7.6401,21.22 C7.5001,21.21 7.3501,21.2 7.2001,21.17 C7.0601,21.15 6.9201,21.13 6.7701,21.1 C6.5701,21.06 6.3801,21.02 6.1901,20.96 C6.0001,20.91 5.8201,20.85 5.6401,20.78 C5.4301,20.71 5.2301,20.62 5.0201,20.51 C4.8701,20.45 4.7301,20.37 4.5901,20.29 C4.2601,20.11 3.9401,19.9 3.6401,19.66 C3.4901,19.54 3.3401,19.42 3.2001,19.29 C3.0601,19.16 2.9201,19.03 2.7901,18.89 C2.6001,18.69 2.4201,18.47 2.2501,18.25 C1.3101,16.99 0.7501,15.44 0.7501,13.75 C0.7501,12.06 1.3101,10.51 2.2501,9.25 C3.5901,7.47 5.7001,6.3 8.0801,6.26 C8.1401,6.25 8.1901,6.25 8.2501,6.25 C8.3001,6.25 8.3501,6.25 8.4101,6.26 C8.9401,6.27 9.4601,6.33 9.9601,6.45 L9.9601,10.25 C9.9601,10.32 9.9601,10.38 9.9801,10.44 C10.0601,11.15 10.6301,11.71 11.3501,11.78 C11.4001,11.79 11.4501,11.79 11.5001,11.79 L12.2701,11.79 L12.2701,15.25 L15.5301,11.99 C15.6801,12.55 15.7501,13.14 15.7501,13.75 Z" id="Stroke-5"></path>
                        <path d="M11.46,13.75 C11.46,15 11.33,16.17 11.1,17.21 C10.59,19.5 9.58,21.1 8.41,21.24 C8.35,21.25 8.3,21.25 8.25,21.25 C8.19,21.25 8.14,21.25 8.08,21.24 C6.91,21.1 5.9,19.5 5.4,17.21 C5.16,16.17 5.03,15 5.03,13.75 C5.03,12.5 5.16,11.33 5.4,10.29 C5.9,8 6.91,6.4 8.08,6.26 C8.14,6.25 8.19,6.25 8.25,6.25 C8.3,6.25 8.35,6.25 8.41,6.26 C8.98,6.33 9.51,6.74 9.96,7.41 L9.96,10.25 C9.96,10.32 9.96,10.38 9.98,10.44 C10.06,11.15 10.63,11.71 11.35,11.78 C11.42,12.41 11.46,13.07 11.46,13.75 Z" id="Stroke-7"></path>
                        <path d="M9.98,10.4404 C9.43,10.5094 8.84,10.5404 8.25,10.5404 C7.24,10.5404 6.27,10.4504 5.4,10.2904 C4.14,10.0704 3.05,9.7104 2.25,9.2504 C3.59,7.4694 5.7,6.2994 8.08,6.2594 C8.14,6.2504 8.19,6.2504 8.25,6.2504 C8.3,6.2504 8.35,6.2504 8.41,6.2594 C8.94,6.2694 9.46,6.3304 9.96,6.4504 L9.96,10.2504 C9.96,10.3204 9.96,10.3794 9.98,10.4404 Z" id="Stroke-9"></path>
                        <path d="M14.2388,18.25 C12.8738,20.071 10.6958,21.25 8.2458,21.25 C5.7958,21.25 3.6168,20.071 2.2528,18.25 C3.0528,17.786 4.1388,17.429 5.3958,17.207 C6.2748,17.05 7.2388,16.964 8.2458,16.964 C9.2528,16.964 10.2178,17.05 11.0958,17.207 C12.3528,17.429 13.4388,17.786 14.2388,18.25 Z" id="Stroke-11"></path>
                        <line x1="15.7501" y1="13.75" x2="13.7701" y2="13.75" id="Stroke-13"></line>
                        <polyline id="Stroke-15" points="12.2701 13.75 11.4601 13.75 5.0301 13.75 0.7501 13.75"></polyline>
                    </g>
                </g>
            </g>
        </g>
    </g>
</svg>