<svg xmlns="http://www.w3.org/2000/svg" width="16" height="16" xmlns:v="https://vecta.io/nano"><path d="M8 0a8 8 0 1 0 0 16 8 8 0 0 0 5.657-13.657A8 8 0 0 0 8 0zm3.51 5.143A10.38 10.38 0 0 0 9.48 1.306c2.096.468 3.853 1.887 4.75 3.837H11.51zM7.97 14.59a9.27 9.27 0 0 1-2.283-3.731h4.63a9.27 9.27 0 0 1-2.286 3.731c-.018.013-.042.013-.06 0zm-2.57-4.874a9.43 9.43 0 0 1 0-3.429h5.206a9.43 9.43 0 0 1 0 3.429H5.397zM1.36 6.286h2.877a10.57 10.57 0 0 0 0 3.429H1.36A6.79 6.79 0 0 1 1.143 8a6.79 6.79 0 0 1 .217-1.714zM8 1.4c.01-.004.02-.004.03 0a9.27 9.27 0 0 1 2.283 3.743h-4.63a9.27 9.27 0 0 1 2.286-3.731c.008-.007.018-.01.03-.01zm3.763 4.886h2.877c.3 1.125.3 2.304 0 3.43h-2.877a10.57 10.57 0 0 0 0-3.429zM4.49 5.143H1.77c.9-1.95 2.656-3.37 4.75-3.837-.938 1.123-1.63 2.43-2.03 3.837zm0 5.714a10.38 10.38 0 0 0 2.029 3.837c-2.096-.468-3.853-1.887-4.75-3.837H4.49zm7.017 0h2.723c-.9 1.95-2.656 3.37-4.75 3.837.94-1.123 1.63-2.43 2.03-3.837z" fill="#008c36"/></svg>