<?xml version="1.0" encoding="UTF-8"?>
<svg width="20px" height="22px" viewBox="0 0 20 22" version="1.1" xmlns="http://www.w3.org/2000/svg" xmlns:xlink="http://www.w3.org/1999/xlink">
    <!-- Generator: sketchtool 63.1 (101010) - https://sketch.com -->
    <title>C438DBC5-F776-4C8D-A12C-5327563C555Amdpi/</title>
    <desc>Created with sketchtool.</desc>
<g id="Profile" stroke="none" stroke-width="1" fill="none" fill-rule="evenodd">
        <g id="Linked-Profile---Switch-User-LIUP-profile" transform="translate(-1066.000000, -375.000000)">
            <g id="Menu-Copy-3" transform="translate(1064.000000, 374.000000)">
                <g id="Users-and-Groups">
                    <g id="outline-settings-24px-copy">
                        <polygon id="Path" points="0 0 24 0 24 24 0 24"></polygon>
                        <path d="M21.5,13.5 C21.5,18.7467051 17.2467051,23 12,23 C6.75329488,23 2.5,18.7467051 2.5,13.5 C2.5,8.93937518 5.71366699,5.12934251 10.0000077,4.21089523 L10.000202,6.26956062 C6.82891188,7.14473813 4.5,10.0503958 4.5,13.5 C4.5,17.6421356 7.85786438,21 12,21 C16.1421356,21 19.5,17.6421356 19.5,13.5 C19.5,10.0507584 17.1715777,7.14534895 14.000798,6.26983665 L14.0009925,4.21110961 C18.2868329,5.12993524 21.5,8.93972993 21.5,13.5 Z" id="Combined-Shape" fill="#024F9D" fill-rule="nonzero"></path>
                        <polygon id="Line" fill="#024F9D" fill-rule="nonzero" points="11 1.5 13 1.5 13 12.913966 11 12.913966"></polygon>
                    </g>
                </g>
            </g>
        </g>
</g>
</svg>