<?xml version="1.0" encoding="UTF-8"?>
<svg width="24px" height="15px" viewBox="0 0 24 15" version="1.1" xmlns="http://www.w3.org/2000/svg" xmlns:xlink="http://www.w3.org/1999/xlink">
    <!-- Generator: sketchtool 63.1 (101010) - https://sketch.com -->
    <title>713B9023-5498-4823-8C19-D95E378605C1</title>
    <desc>Created with sketchtool.</desc>
<g id="Profile" stroke="none" stroke-width="1" fill="none" fill-rule="evenodd">
        <g id="Linked-Profile---Add-User-LIUP-profile" transform="translate(-1064.000000, -306.000000)">
            <g id="Menu-Copy-6" transform="translate(1064.000000, 302.000000)">
                <g id="Merge-Account">
                    <polygon id="Path" points="0 0 24 0 24 24 0 24"></polygon>
                    <g id="Group-9" transform="translate(0.000000, 4.000000)" fill="#024F9D">
                        <path d="M10.7076923,3.13846154 C10.7076923,4.8718122 9.30258143,6.27692308 7.56923077,6.27692308 C5.83588011,6.27692308 4.43076923,4.8718122 4.43076923,3.13846154 C4.43076923,1.40511088 5.83588011,0 7.56923077,0 C9.30258143,0 10.7076923,1.40511088 10.7076923,3.13846154" id="Fill-1"></path>
                        <path d="M16.4307692,0 C14.6974186,0 13.2923077,1.40511088 13.2923077,3.13846154 C13.2923077,4.8718122 14.6974186,6.27692308 16.4307692,6.27692308 C18.1640658,6.27692308 19.5692308,4.8718122 19.5692308,3.13846154 C19.5692308,1.40511088 18.1640658,0 16.4307692,0 M16.4307692,1.29867374 C17.4452499,1.29867374 18.270557,2.1239809 18.270557,3.13846154 C18.270557,4.15294218 17.4452499,4.97824934 16.4307692,4.97824934 C15.4162886,4.97824934 14.5909814,4.15294218 14.5909814,3.13846154 C14.5909814,2.1239809 15.4162886,1.29867374 16.4307692,1.29867374" id="Fill-3"></path>
                        <path d="M16.6153846,7.38461538 C12.536967,7.38461538 9.23076923,10.6908132 9.23076923,14.7692308 L24,14.7692308 C24,10.6908132 20.6938022,7.38461538 16.6153846,7.38461538 M16.6153846,8.6830093 C18.241082,8.6830093 19.7694539,9.31608453 20.9190194,10.4655959 C21.7560507,11.3027354 22.3193373,12.3406391 22.5635976,13.4708369 L10.6671175,13.4708369 C10.911432,12.3406391 11.4746644,11.3027354 12.3118039,10.4655959 C13.4613153,9.31608453 14.9896872,8.6830093 16.6153846,8.6830093" id="Fill-5"></path>
                        <path d="M11.0769231,8.46266143 C9.90250232,7.8697361 9.00241557,7.38461538 7.28674699,7.38461538 C3.26238072,7.38461538 0,10.6787468 0,14.7422796 L8.14087118,14.7692308 C8.14087118,12.1819203 9.04837813,9.97192588 11.0769231,8.46266143" id="Fill-7"></path>
                    </g>
                </g>
            </g>
        </g>
</g>
</svg>