<svg xmlns="http://www.w3.org/2000/svg" width="20" height="5" xmlns:v="https://vecta.io/nano"><path d="M2.236 4.316c.607 0 1.127-.17 1.56-.507s.65-.888.65-1.65c0-.797-.217-1.356-.65-1.677S2.843 0 2.236 0C1.612 0 1.083.16.65.48S0 1.36 0 2.158C0 2.92.217 3.47.65 3.81s.962.507 1.586.507zm7.4 0c.607 0 1.127-.17 1.56-.507s.65-.888.65-1.65c0-.797-.217-1.356-.65-1.677S10.253 0 9.646 0C9.022 0 8.493.16 8.06.48s-.65.88-.65 1.677c0 .763.217 1.313.65 1.65s.962.507 1.586.507zm7.4 0c.607 0 1.127-.17 1.56-.507s.65-.888.65-1.65c0-.797-.217-1.356-.65-1.677S17.663 0 17.056 0c-.624 0-1.153.16-1.586.48s-.65.88-.65 1.677c0 .763.217 1.313.65 1.65s.962.507 1.586.507z" fill="#333"/></svg>