<?xml version="1.0" encoding="UTF-8"?>
<svg width="20px" height="5px" viewBox="0 0 20 5" version="1.1" xmlns="http://www.w3.org/2000/svg" xmlns:xlink="http://www.w3.org/1999/xlink">
    <!-- Generator: sketchtool 63.1 (101010) - https://sketch.com -->
    <title>EC8AAAEF-336F-4FA3-BD45-8A95C0C985AD</title>
    <desc>Created with sketchtool.</desc>
<g id="Profile" stroke="none" stroke-width="1" fill="none" fill-rule="evenodd">
        <g id="Linked-Profile---Switch-User-LIUP-profile" transform="translate(-1310.000000, -164.000000)" fill="#333333" fill-rule="nonzero">
            <g id="Group-7-Copy-2" transform="translate(1275.000000, 150.000000)">
                <g id="Group-6-Copy-2" transform="translate(29.000000, 0.000000)">
                    <path d="M8.236,18.316 C8.84266667,18.316 9.36266667,18.147 9.796,17.809 C10.2293333,17.471 10.446,16.9206667 10.446,16.158 C10.446,15.3606667 10.2293333,14.8016667 9.796,14.481 C9.36266667,14.1603333 8.84266667,14 8.236,14 C7.612,14 7.08333333,14.1603333 6.65,14.481 C6.21666667,14.8016667 6,15.3606667 6,16.158 C6,16.9206667 6.21666667,17.471 6.65,17.809 C7.08333333,18.147 7.612,18.316 8.236,18.316 Z M15.646,18.316 C16.2526667,18.316 16.7726667,18.147 17.206,17.809 C17.6393333,17.471 17.856,16.9206667 17.856,16.158 C17.856,15.3606667 17.6393333,14.8016667 17.206,14.481 C16.7726667,14.1603333 16.2526667,14 15.646,14 C15.022,14 14.4933333,14.1603333 14.06,14.481 C13.6266667,14.8016667 13.41,15.3606667 13.41,16.158 C13.41,16.9206667 13.6266667,17.471 14.06,17.809 C14.4933333,18.147 15.022,18.316 15.646,18.316 Z M23.056,18.316 C23.6626667,18.316 24.1826667,18.147 24.616,17.809 C25.0493333,17.471 25.266,16.9206667 25.266,16.158 C25.266,15.3606667 25.0493333,14.8016667 24.616,14.481 C24.1826667,14.1603333 23.6626667,14 23.056,14 C22.432,14 21.9033333,14.1603333 21.47,14.481 C21.0366667,14.8016667 20.82,15.3606667 20.82,16.158 C20.82,16.9206667 21.0366667,17.471 21.47,17.809 C21.9033333,18.147 22.432,18.316 23.056,18.316 Z" id="…"></path>
                </g>
            </g>
        </g>
</g>
</svg>