<?xml version="1.0" encoding="UTF-8"?>
<svg width="216px" height="216px" viewBox="0 0 216 216" version="1.1" xmlns="http://www.w3.org/2000/svg" xmlns:xlink="http://www.w3.org/1999/xlink">
    <title>ED2B2A3E-7E7B-4955-8E34-660ED3C802C0</title>
    <g id="Page-1" stroke="none" stroke-width="1" fill="none" fill-rule="evenodd">
        <g id="My-group-Empty-state" transform="translate(-444.000000, -225.000000)">
            <g id="Create-Group-Card" transform="translate(420.000000, 225.000000)">
                <g id="My-groups_illustration" transform="translate(24.000000, 0.000000)">
                    <rect id="Rectangle" x="0" y="0" width="216" height="216"></rect>
                    <g id="Group-5" transform="translate(3.000000, 20.000000)">
                        <g id="no-member">
                            <path d="M189.058824,21.9998411 C202.652406,35.2865295 204.214526,60.609193 197.177848,81.545793 C190.1069,102.596613 174.331491,119.215682 157.016808,134.863877 C139.536489,150.569183 120.271298,165.240794 99.4668341,167.096875 C78.6623702,168.952957 56.1558526,158.073463 38.8468812,142.32247 C21.4265339,126.525788 9.18374229,105.843328 8.72110356,85.6919936 C8.3784082,65.5834916 19.9672229,45.9261601 33.9577608,33.4047484 C47.9482988,20.8833366 64.4290897,15.2636928 79.833246,11.8256586 C95.2374023,8.3876245 109.770541,6.94559191 129.749681,6.97095436 C149.848763,7.01697966 175.510934,8.5846547 189.058824,21.9998411 Z" id="Path" fill="#EDF4F9" fill-rule="nonzero"></path>
                            <path d="M196.669913,16.4315187 C211.492682,30.9542033 213.186958,58.6059672 205.527004,81.4673913 C197.812764,104.46045 180.612866,122.620244 161.727264,139.709795 C142.661663,156.879472 121.653217,172.904503 98.9676379,174.92194 C76.2820586,176.939377 51.7222049,165.075131 32.8651743,147.868253 C13.856716,130.609867 0.516795405,108.020296 0.00822700386,86.0059091 C-0.368913608,64.0401697 12.2710111,42.5666278 27.5280632,28.8881189 C42.7851152,15.2096101 60.762151,9.07145074 77.5591939,5.31701483 C94.3562368,1.56257893 110.210428,-0.017031301 131.99887,0 C153.907311,0.0659554683 181.892859,1.77433827 196.669913,16.4315187 Z" id="Path" stroke="#0C519B" stroke-width="0.5" stroke-linecap="round" stroke-dasharray="5"></path>
                            <g id="Group" transform="translate(172.000000, 37.000000)" fill-rule="nonzero">
                                <g>
                                    <path d="M0.26762253,49.2187759 C0.26762253,49.2187759 2.31180313,56.1486515 3.52464566,61.0238071 C4.16960993,63.6107541 6.4176096,65.4174574 8.99097818,65.4170644 L19.6901853,65.4170644 C22.1919049,65.4117288 24.3925455,63.6990398 25.0995768,61.2071058 L28.5017994,49.2187759 C28.5017994,49.2187759 14.4857812,53.6445539 0.26762253,49.2187759 Z" id="Path" fill="#E55A28"></path>
                                    <path d="M0.250540241,49.2453838 C0.250540241,49.2453838 2.29756789,56.1752593 3.50756337,61.0504149 C4.15388491,63.6372543 6.40313495,65.4428056 8.97674294,65.4407176 L19.673103,65.4407176 C22.1743491,65.4367441 24.3752391,63.7250638 25.0824946,61.2337137 L28.4847171,49.2453838 C28.4847171,49.2453838 14.4686989,53.6711618 0.250540241,49.2453838 Z" id="Path" fill="#E89074"></path>
                                    <ellipse id="Oval" fill="#E55A28" cx="14.3775934" cy="47.6929461" rx="14.3775934" ry="2.17842324"></ellipse>
                                    <ellipse id="Oval" fill="#A03E20" cx="13.9419087" cy="48.5643154" rx="11.3278008" ry="2.17842324"></ellipse>
                                    <path d="M0,49.8713693 C0,49.8713693 2.08190219,56.5815013 3.3171255,61.3020677 C3.9739914,63.8069837 6.26347377,65.5563971 8.88432914,65.5560166 L19.7809704,65.5560166 C22.3288547,65.5508502 24.5701041,63.8924698 25.2901824,61.4795541 L28.7551867,49.8713693 C28.7551867,49.8713693 14.4805286,54.1568077 0,49.8713693 Z" id="Path" fill="#E55A28"></path>
                                    <path d="M13.9962951,31.9851234 C14.6571595,34.1232503 15.3180238,36.7844751 15.7759672,38.6767746 C17.147055,44.3479562 16.4779642,47.800974 15.5456244,48.1096875 C14.7010343,48.3955334 12.9707214,45.4227366 11.1170106,40.7948923 C10.2504831,38.6310393 8.68470076,36.2613772 7.84285281,33.5344078 C6.97906746,30.735977 6.94341918,27.917537 6.43063231,25.5907518 C5.37763684,20.8028339 7.09972319,13.5623586 7.93608679,13.2822297 C8.77245038,13.0021008 8.93423875,19.8166657 10.7056843,24.1443718 C11.638024,26.4197047 13.0804084,29.0294773 13.9962951,31.9851234 Z" id="Path" fill="#239E6F"></path>
                                    <path d="M17.2891633,27.1458771 C17.4403762,30.2151126 17.4347758,33.9737105 17.4207746,36.6396261 C17.378771,44.6488148 15.5754166,48.9394516 14.3937155,49 C13.3184234,49.0538686 12.1535237,44.4829102 11.3330535,37.6808207 C10.9494206,34.5000286 9.80692285,30.7843371 9.61650655,26.8712763 C9.42048977,22.866682 10.2017566,19.1252467 10.2829636,15.8615023 C10.4481777,9.15094631 14.5841318,0.255025991 15.6454226,0.203319502 C16.7067134,0.152050708 14.9061593,9.1967131 15.7210291,15.5582973 C16.152266,18.9135753 17.0819456,22.9038675 17.2891633,27.1458771 Z" id="Path" fill="#20BB83"></path>
                                    <path d="M20.5790615,34.1925906 C20.1328965,36.3680658 19.4519078,39.0043982 18.9587781,40.870727 C17.49113,46.4668507 15.4100051,49.1718824 14.5558339,48.991547 C13.7721099,48.8398362 13.7603687,45.4306375 14.3973279,40.515781 C14.6908575,38.2258071 14.547028,35.4120017 15.1164755,32.6354083 C15.7035347,29.7729409 16.9363591,27.311219 17.5821242,25.0384198 C18.9147487,20.3640106 23.4938106,14.8652107 24.2687288,15.019784 C25.0436469,15.1743572 22.1142214,21.1912637 21.5506446,25.7941112 C21.2483091,28.2214836 21.1837325,31.1841373 20.5790615,34.1925906 Z" id="Path" fill="#36CE94"></path>
                                </g>
                            </g>
                        </g>
                        <g id="Group" transform="translate(52.000000, 77.000000)" fill="#003872" fill-rule="nonzero">
                            <path d="M3.24073869,15.4330948 L4.59283496,8.94860117 C4.75022183,8.15605195 4.9076087,7.3022603 5.06499556,6.3872262 C5.22238243,5.4721921 5.3511535,4.64001542 5.45130878,3.89069616 L5.45130878,3.89069616 L5.53715617,3.89069616 L5.8805457,15.4330948 L9.25005546,15.4330948 L14.8086735,3.89069616 L14.8945209,3.89069616 C14.7657498,4.39504566 14.590478,5.05790501 14.3687056,5.8792742 C14.1469332,6.70064339 13.9144299,7.68052242 13.6711957,8.8189113 L13.6711957,8.8189113 L12.2976375,15.4330948 L15.5598381,15.4330948 L18.8220386,6.75015599e-14 L13.8858141,6.75015599e-14 L8.47742902,11.2830189 L8.39158163,11.2830189 L8.02673026,6.75015599e-14 L3.24073869,6.75015599e-14 L9.05941988e-14,15.4330948 L3.24073869,15.4330948 Z M18.8649623,20.6206897 C20.0525177,20.6206897 21.0755324,20.3288874 21.9340062,19.745283 C22.79248,19.1616786 23.5436446,18.257452 24.1875,17.0326032 L24.1875,17.0326032 L31.2484472,3.56647148 L27.4067768,3.56647148 L24.8528172,9.14313598 C24.6525067,9.57543555 24.4736579,10.0149401 24.3162711,10.4616497 C24.1588842,10.9083592 24.0229592,11.2974289 23.908496,11.6288585 L23.908496,11.6288585 L23.8226486,11.6288585 C23.8226486,11.2541989 23.8190717,10.8363093 23.8119177,10.3751898 C23.8047638,9.91407022 23.7797249,9.46736066 23.7368012,9.03506109 L23.7368012,9.03506109 L23.2431788,3.56647148 L19.6805124,3.56647148 L21.3974601,15.3682498 L21.1399179,15.8437794 C20.8251442,16.4345888 20.4638698,16.8921058 20.0560947,17.2163305 C19.6483197,17.5405552 19.1225044,17.7026675 18.4786491,17.7026675 C18.2354148,17.7026675 18.0136424,17.6882575 17.8133319,17.6594376 C17.6130213,17.6306176 17.4413265,17.6017976 17.2982476,17.5729777 L17.2982476,17.5729777 L17.2982476,20.4261548 C17.4556344,20.4837948 17.659522,20.5306272 17.9099102,20.5666522 C18.1602984,20.6026772 18.4786491,20.6206897 18.8649623,20.6206897 Z" id="My"></path>
                            <path d="M39.6188121,15.7059139 C40.7846915,15.7059139 41.7814464,15.6275624 42.6090769,15.4708594 C43.4367073,15.3141564 44.2103619,15.1147162 44.9300405,14.8725389 L44.9300405,14.8725389 L46.6788597,6.75247454 L40.5040168,6.75247454 L39.856306,9.67997141 L42.4903299,9.67997141 L41.8642095,12.4792567 C41.576338,12.5504854 41.3172537,12.6003454 41.0869565,12.6288369 C40.8566594,12.6573283 40.5759847,12.6715741 40.2449325,12.6715741 C39.3237438,12.6715741 38.6472459,12.4115895 38.2154387,11.8916205 C37.7836315,11.3716515 37.5677279,10.5845751 37.5677279,9.53039128 C37.5677279,8.83235066 37.6684829,8.10225716 37.8699929,7.34011077 C38.071503,6.57796439 38.3809648,5.87280091 38.7983784,5.22462033 C39.215792,4.57643976 39.755551,4.04934786 40.4176554,3.64334465 C41.0797597,3.23734143 41.8714063,3.03433982 42.7925949,3.03433982 C43.4115186,3.03433982 43.9836631,3.12337562 44.5090285,3.3014472 C45.0343939,3.47951879 45.5417674,3.70388899 46.0311489,3.9745578 L46.0311489,3.9745578 L47.4129319,1.06842952 C46.1031167,0.356143172 44.5989884,6.92779167e-14 42.9005467,6.92779167e-14 C41.3892216,6.92779167e-14 40.0722096,0.263545947 38.9495109,0.790637842 C37.8268122,1.31772974 36.8876316,2.03713894 36.131969,2.94886546 C35.3763064,3.86059198 34.8113586,4.89696861 34.4371257,6.05799535 C34.0628928,7.2190221 33.8757764,8.43347031 33.8757764,9.70134 C33.8757764,11.6672503 34.3903466,13.1594902 35.4194871,14.1780597 C36.4486276,15.1966291 37.8484026,15.7059139 39.6188121,15.7059139 Z M51.558281,15.492228 L52.6809797,10.2782919 C52.940064,9.11014234 53.3466824,8.25896016 53.900835,7.7247454 C54.4549875,7.19053064 55.0847064,6.92342326 55.7899914,6.92342326 C56.0346822,6.92342326 56.2577826,6.94123042 56.4592926,6.97684474 C56.6608026,7.01245906 56.8335255,7.05875767 56.9774612,7.11574058 L56.9774612,7.11574058 L57.7547142,3.63266035 C57.4956299,3.57567745 57.1789713,3.54718599 56.8047383,3.54718599 C56.0274854,3.54718599 55.3509875,3.72881901 54.7752445,4.09208505 C54.1995016,4.45535108 53.6669394,5.03586445 53.1775579,5.83362516 L53.1775579,5.83362516 L53.0911965,5.83362516 L53.2855097,3.7608719 L50.478763,3.7608719 L47.9742813,15.492228 L51.558281,15.492228 Z M62.3534608,15.7059139 C63.4473723,15.7059139 64.3973482,15.4993508 65.2033883,15.0862248 C66.0094283,14.6730987 66.6823279,14.1139539 67.2220869,13.4087904 C67.7618459,12.7036269 68.1648659,11.8951819 68.431147,10.9834554 C68.6974281,10.0717289 68.8305687,9.1172652 68.8305687,8.12006432 C68.8305687,6.66700018 68.4275486,5.54158776 67.6215085,4.74382705 C66.8154684,3.94606635 65.7071633,3.54718599 64.2965931,3.54718599 C63.2170752,3.54718599 62.2742961,3.7501876 61.468256,4.15619082 C60.6622159,4.56219403 59.9893164,5.12133881 59.4495574,5.83362516 C58.9097984,6.5459115 58.50318,7.36147936 58.2297021,8.28032875 C57.9562242,9.19917813 57.8194853,10.171449 57.8194853,11.1971413 C57.8194853,12.6074683 58.2261037,13.7115121 59.0393406,14.5092728 C59.8525775,15.3070335 60.9572842,15.7059139 62.3534608,15.7059139 Z M62.7204969,12.9279971 C61.8712761,12.9279971 61.4466657,12.3652909 61.4466657,11.2398785 C61.4466657,10.6842952 61.5006416,10.1215889 61.6085934,9.55175987 C61.7165452,8.9819308 61.8784729,8.45127747 62.0943765,7.95979989 C62.3102801,7.46832232 62.5729628,7.07300339 62.8824246,6.77384313 C63.1918864,6.47468287 63.5481273,6.32510273 63.9511474,6.32510273 C64.3829546,6.32510273 64.6960148,6.48536716 64.890328,6.80589602 C65.0846413,7.12642487 65.1817979,7.55023525 65.1817979,8.07732714 C65.1817979,8.88933357 65.0810429,9.66572569 64.8795329,10.4065035 C64.6780228,11.1472813 64.3901514,11.7527247 64.0159185,12.2228337 C63.6416856,12.6929426 63.2098784,12.9279971 62.7204969,12.9279971 Z M73.9043032,15.7059139 C74.6959497,15.7059139 75.3724477,15.5207194 75.933797,15.1503305 C76.4951464,14.7799416 76.9845278,14.2528497 77.4019415,13.5690549 L77.4019415,13.5690549 L77.5098933,13.5690549 L77.3371704,15.492228 L80.1439171,15.492228 L82.6483989,3.7608719 L79.0643992,3.7608719 L77.9417005,9.01754511 C77.6826161,10.171449 77.333572,11.0974212 76.894568,11.7954619 C76.455564,12.4935025 75.9625841,12.8425228 75.4156284,12.8425228 C74.7679176,12.8425228 74.4440622,12.4792567 74.4440622,11.7527247 C74.4440622,11.2968614 74.5016365,10.8409982 74.6167851,10.3851349 L74.6167851,10.3851349 L76.0201584,3.7608719 L72.4361587,3.7608719 L71.0975564,10.0432374 C71.011195,10.4421178 70.9464239,10.8445596 70.9032432,11.2505628 C70.8600625,11.656566 70.8384721,12.0233935 70.8384721,12.3510452 C70.8384721,13.3197546 71.0867613,14.1210768 71.5833395,14.7550116 C72.0799178,15.3889465 72.8535724,15.7059139 73.9043032,15.7059139 Z M85.7574106,20.6206897 L86.4267118,17.5222441 C86.5850411,16.8242034 86.6965913,16.2187601 86.7613624,15.7059139 C86.8261334,15.1930677 86.8801093,14.6517301 86.9232901,14.081901 L86.9232901,14.081901 L87.0096515,14.081901 C87.297523,14.55201 87.6393703,14.9402061 88.0351936,15.2464892 C88.4310168,15.5527723 88.9455871,15.7059139 89.5789043,15.7059139 C90.399338,15.7059139 91.1442054,15.4815437 91.8135065,15.0328033 C92.4828077,14.5840629 93.0549522,13.9786195 93.5299401,13.2164731 C94.004928,12.4543267 94.3683658,11.6102674 94.6202533,10.6842952 C94.8721408,9.75832291 94.9980846,8.81098207 94.9980846,7.84227265 C94.9980846,6.36071705 94.6670324,5.27448038 94.004928,4.58356262 C93.3428237,3.89264487 92.5367836,3.54718599 91.5868078,3.54718599 C90.8959162,3.54718599 90.298583,3.71813472 89.7948079,4.06003216 C89.2910328,4.40192961 88.8664224,4.82217855 88.5209767,5.32077899 L88.5209767,5.32077899 L88.4346152,5.32077899 L88.5857478,3.7608719 L85.779001,3.7608719 L82.1734109,20.6206897 L85.7574106,20.6206897 Z M88.9096032,12.8425228 C88.5353703,12.8425228 88.240302,12.6893812 88.0243984,12.3830981 C87.8084948,12.076815 87.700543,11.6672503 87.700543,11.1544041 C87.700543,10.7127866 87.7509205,10.221309 87.8516755,9.67997141 C87.9524305,9.13863379 88.1035631,8.61866476 88.3050731,8.12006432 C88.5065831,7.62146388 88.7656674,7.21189923 89.082326,6.89137038 C89.3989846,6.57084152 89.7660208,6.41057709 90.1834344,6.41057709 C90.9606873,6.41057709 91.3493138,6.97328331 91.3493138,8.09869573 C91.3493138,8.65427908 91.2881411,9.21342386 91.1657957,9.77613007 C91.0434504,10.3388363 90.8707275,10.8516824 90.6476271,11.3146686 C90.4245267,11.7776547 90.1654424,12.1480436 89.8703742,12.4258353 C89.5753059,12.7036269 89.2550489,12.8425228 88.9096032,12.8425228 Z M99.8343251,15.7059139 C101.403225,15.7059139 102.651867,15.3568936 103.580253,14.658853 C104.508638,13.9608123 104.972831,12.9137514 104.972831,11.5176702 C104.972831,10.7626467 104.760526,10.1251504 104.335915,9.60518135 C103.911305,9.08521232 103.31757,8.64003335 102.55471,8.26964445 C101.993361,7.98472991 101.601136,7.74967542 101.378036,7.56448097 C101.154935,7.37928652 101.043385,7.17272348 101.043385,6.94479185 C101.043385,6.65987732 101.147739,6.44619141 101.356445,6.30373414 C101.565152,6.16127687 101.820638,6.09004824 102.122903,6.09004824 C102.569104,6.09004824 103.029698,6.17908403 103.504686,6.35715562 C103.979674,6.53522721 104.425875,6.75247454 104.843289,7.00889762 L104.843289,7.00889762 L105.987578,4.59424692 C105.383048,4.22385802 104.760526,3.95675064 104.120012,3.79292478 C103.479498,3.62909892 102.799401,3.54718599 102.079723,3.54718599 C100.53961,3.54718599 99.3737308,3.87483771 98.5820843,4.53014115 C97.7904378,5.18544458 97.3946145,6.0971711 97.3946145,7.26532071 C97.3946145,8.02034423 97.5781326,8.64003335 97.9451687,9.12438807 C98.3122048,9.60874278 98.8699557,10.0503603 99.6184215,10.4492407 C100.093409,10.7056637 100.453249,10.9229111 100.69794,11.1009827 C100.94263,11.2790543 101.108156,11.4428801 101.194518,11.5924602 C101.280879,11.7420404 101.32406,11.9023048 101.32406,12.0732535 C101.32406,12.4436424 101.136944,12.7036269 100.762711,12.8532071 C100.388478,13.0027872 100.014245,13.0775773 99.6400119,13.0775773 C98.4885261,13.0775773 97.344237,12.7641713 96.2071447,12.1373593 L96.2071447,12.1373593 L96.2071447,15.022119 C97.1283334,15.4779823 98.3373935,15.7059139 99.8343251,15.7059139 Z" id="Groups"></path>
                        </g>
                    </g>
                </g>
            </g>
        </g>
    </g>
</svg>