<svg xmlns="http://www.w3.org/2000/svg" width="216" height="216" fill="none" fill-rule="evenodd" xmlns:v="https://vecta.io/nano"><path d="M192.06 42c13.594 13.287 15.156 38.61 8.12 59.546-7.07 21.05-22.846 37.67-40.16 53.318-17.48 15.705-36.746 30.377-57.55 32.233s-43.31-9.023-60.62-24.774c-17.42-15.797-29.663-36.48-30.126-56.63-.343-20.11 11.246-39.766 25.237-52.287s30.47-18.14 45.875-21.58 29.937-4.88 49.916-4.855c20.1.046 45.76 1.614 59.31 15.03z" fill="#edf4f9" fill-rule="nonzero"/><path d="M199.67 36.432c14.823 14.523 16.517 42.174 8.857 65.036-7.714 22.993-24.914 41.153-43.8 58.242-19.066 17.17-40.074 33.195-62.76 35.212s-47.245-9.847-66.102-27.054C16.857 150.6 3.517 128.02 3.008 106.006 2.63 84.04 15.27 62.567 30.528 48.888s33.234-19.817 50.03-23.57S113.2 19.983 135 20c21.908.066 49.894 1.774 64.67 16.432z" stroke="#0c519b" stroke-width=".5" stroke-linecap="round" stroke-dasharray="5"/><g fill-rule="nonzero"><path d="M175.268 106.22s2.044 6.93 3.257 11.805c.645 2.587 2.893 4.394 5.466 4.393h10.7c2.502-.005 4.702-1.718 5.41-4.2l3.402-11.988s-14.016 4.426-28.234 0z" fill="#e55a28"/><path d="M175.25 106.245s2.047 6.93 3.257 11.805c.646 2.587 2.896 4.392 5.47 4.4h10.696c2.5-.004 4.702-1.716 5.41-4.207l3.402-11.988s-14.016 4.426-28.234 0z" fill="#e89074"/><ellipse fill="#e55a28" cx="189.378" cy="104.693" rx="14.378" ry="2.178"/><ellipse fill="#a03e20" cx="188.942" cy="105.564" rx="11.328" ry="2.178"/><path d="M175 106.87s2.082 6.7 3.317 11.43c.657 2.505 2.946 4.254 5.567 4.254h10.897c2.548-.005 4.79-1.664 5.51-4.076l3.465-11.608s-14.275 4.285-28.755 0z" fill="#e55a28"/><path d="M188.996 88.985l1.78 6.692c1.37 5.67.702 9.124-.23 9.433-.845.286-2.575-2.687-4.43-7.315-.867-2.164-2.432-4.534-3.274-7.26-.864-2.798-.9-5.617-1.412-7.944-1.053-4.788.67-12.028 1.505-12.31s.998 6.534 2.77 10.862c.932 2.275 2.375 4.885 3.29 7.84z" fill="#239e6f"/><path d="M192.29 84.146l.132 9.494c-.042 8.01-1.845 12.3-3.027 12.36-1.075.054-2.24-4.517-3.06-11.32-.384-3.18-1.526-6.896-1.717-10.8-.196-4.005.585-7.746.666-11 .165-6.71 4.3-15.606 5.362-15.658s-.74 8.993.076 15.355c.43 3.355 1.36 7.346 1.568 11.588z" fill="#20bb83"/><path d="M195.58 91.193l-1.62 6.678c-1.468 5.596-3.55 8.3-4.403 8.12-.784-.152-.795-3.56-.16-8.476.294-2.3.15-5.104.72-7.88.587-2.862 1.82-5.324 2.466-7.597 1.333-4.674 5.912-10.173 6.687-10.02s-2.155 6.17-2.718 10.774c-.302 2.427-.367 5.4-.972 8.398z" fill="#36ce94"/><path d="M58.24 112.433l1.352-6.484.472-2.56.386-2.497h.086l.343 11.542h3.37l5.56-11.542h.086l-.526 2-.698 2.94-1.374 6.614h3.262L73.822 97h-4.936l-5.408 11.283h-.086L63.027 97H58.24L55 112.433h3.24zm15.624 5.188c1.188 0 2.2-.292 3.07-.875s1.6-1.488 2.253-2.713h0l7.06-13.466h-3.842l-2.554 5.577-.537 1.32-.408 1.167h-.086l-.01-1.254-.075-1.34-.494-5.47h-3.56l1.717 11.802-.258.476c-.315.6-.676 1.048-1.084 1.373s-.934.486-1.577.486c-.243 0-.465-.014-.665-.043l-.515-.086v2.853a3.11 3.11 0 0 0 .612.14 6.92 6.92 0 0 0 .955.054zm20.756-4.915c1.166 0 2.163-.078 3-.235s1.6-.356 2.32-.598h0l1.75-8.12h-6.175l-.648 2.927H97.5l-.626 2.8a6.7 6.7 0 0 1-.777.15 7.01 7.01 0 0 1-.842.043c-.92 0-1.598-.26-2.03-.78s-.648-1.307-.648-2.36c0-.698.1-1.428.302-2.2a7.35 7.35 0 0 1 .928-2.115 5 5 0 0 1 1.62-1.58c.663-.405 1.454-.6 2.375-.6a5.34 5.34 0 0 1 1.716.267 9.32 9.32 0 0 1 1.522.673h0l1.382-2.906C101.103 97.356 99.6 97 97.9 97c-1.5 0-2.828.264-3.95.8s-2.062 1.247-2.818 2.158-1.32 1.948-1.695 3.1a11.78 11.78 0 0 0-.56 3.643c0 1.966.515 3.458 1.544 4.477s2.43 1.528 4.2 1.528zm11.94-.214l1.123-5.214c.26-1.168.666-2.02 1.22-2.554s1.184-.8 1.9-.8a3.86 3.86 0 0 1 .669.053c.202.036.374.082.518.14h0l.777-3.483a4.5 4.5 0 0 0-.95-.085c-.777 0-1.454.182-2.03.545s-1.108.944-1.598 1.742h0-.086l.194-2.073h-2.807l-2.504 11.73h3.584zm10.795.214c1.094 0 2.044-.207 2.85-.62a5.89 5.89 0 0 0 2.019-1.677c.54-.705.943-1.514 1.2-2.425a10.13 10.13 0 0 0 .4-2.863c0-1.453-.403-2.578-1.2-3.376s-1.914-1.197-3.325-1.197c-1.08 0-2.022.203-2.828.6s-1.48.965-2.02 1.677-.946 1.528-1.22 2.447-.4 1.9-.4 2.917c0 1.4.407 2.514 1.22 3.312s1.918 1.197 3.314 1.197zm.367-2.778c-.85 0-1.274-.563-1.274-1.688 0-.556.054-1.118.162-1.688s.27-1.1.486-1.592.48-.887.788-1.186.666-.45 1.07-.45c.432 0 .745.16.94.48s.3.744.3 1.27c0 .812-.1 1.588-.302 2.33s-.5 1.346-.864 1.816-.806.705-1.295.705zm11.184 2.778c.792 0 1.468-.185 2.03-.556s1.05-.897 1.468-1.58h.108l-.173 1.923h2.807l2.504-11.73h-3.584l-1.123 5.257c-.26 1.154-.608 2.08-1.047 2.778s-.932 1.047-1.48 1.047c-.648 0-.972-.363-.972-1.1 0-.456.058-.912.173-1.368h0l1.403-6.624h-3.584l-1.34 6.282a11.4 11.4 0 0 0-.194 1.207l-.065 1.1c0 .97.248 1.77.745 2.404s1.27.95 2.32.95zm11.853 4.915l.67-3.098.335-1.816.162-1.624H142c.288.47.63.858 1.026 1.165s.9.46 1.544.46c.82 0 1.565-.224 2.235-.673s1.24-1.054 1.716-1.816.838-1.606 1.1-2.532a10.78 10.78 0 0 0 .378-2.842c0-1.482-.33-2.568-.993-3.26a3.22 3.22 0 0 0-2.418-1.036c-.7 0-1.288.17-1.792.513a4.85 4.85 0 0 0-1.274 1.261h0-.086l.15-1.56h-2.807l-3.606 16.86h3.584zm3.152-7.778c-.374 0-.67-.153-.885-.46s-.324-.716-.324-1.23c0-.442.05-.933.15-1.474s.252-1.06.453-1.56.46-.908.777-1.23.684-.48 1.1-.48c.777 0 1.166.563 1.166 1.688a7.76 7.76 0 0 1-.184 1.677 6.92 6.92 0 0 1-.518 1.539c-.223.463-.482.833-.777 1.1s-.615.417-.96.417zm10.925 2.863c1.57 0 2.818-.35 3.746-1.047s1.393-1.745 1.393-3.14c0-.755-.212-1.393-.637-1.912s-1.018-.965-1.78-1.336c-.56-.285-.954-.52-1.177-.705s-.335-.392-.335-.62c0-.285.104-.5.313-.64s.464-.214.766-.214c.446 0 .907.1 1.382.267a7.74 7.74 0 0 1 1.339.652h0l1.144-2.415c-.605-.37-1.227-.637-1.868-.8s-1.32-.246-2.04-.246c-1.54 0-2.706.328-3.498.983s-1.187 1.567-1.187 2.735c0 .755.184 1.375.55 1.86s.925.926 1.673 1.325l1.08.652c.245.178.4.342.497.5s.13.3.13.48c0 .37-.187.63-.56.78a2.99 2.99 0 0 1-1.123.224c-1.15 0-2.296-.313-3.433-.94h0v2.885c.92.456 2.13.684 3.627.684z" fill="#003872"/></g></svg>