<?xml version="1.0" encoding="UTF-8"?>
<svg width="672px" height="293px" viewBox="0 0 672 293" version="1.1" xmlns="http://www.w3.org/2000/svg" xmlns:xlink="http://www.w3.org/1999/xlink">
    <title>FA387CA2-11E4-438D-92DD-10A8C5FB5BDF</title>
    <defs>
        <rect id="path-1" x="0" y="0" width="672" height="293" rx="20"></rect>
        <rect id="path-3" x="185" y="91" width="43" height="12" rx="3"></rect>
        <filter x="-9.3%" y="-16.7%" width="118.6%" height="166.7%" filterUnits="objectBoundingBox" id="filter-4">
            <feOffset dx="0" dy="2" in="SourceAlpha" result="shadowOffsetOuter1"></feOffset>
            <feGaussianBlur stdDeviation="1" in="shadowOffsetOuter1" result="shadowBlurOuter1"></feGaussianBlur>
            <feColorMatrix values="0 0 0 0 0   0 0 0 0 0   0 0 0 0 0  0 0 0 0.0917832168 0" type="matrix" in="shadowBlurOuter1"></feColorMatrix>
        </filter>
        <rect id="path-5" x="185" y="137" width="52" height="127" rx="3"></rect>
        <filter x="-7.7%" y="-1.6%" width="115.4%" height="106.3%" filterUnits="objectBoundingBox" id="filter-6">
            <feOffset dx="0" dy="2" in="SourceAlpha" result="shadowOffsetOuter1"></feOffset>
            <feGaussianBlur stdDeviation="1" in="shadowOffsetOuter1" result="shadowBlurOuter1"></feGaussianBlur>
            <feColorMatrix values="0 0 0 0 0   0 0 0 0 0   0 0 0 0 0  0 0 0 0.0917832168 0" type="matrix" in="shadowBlurOuter1"></feColorMatrix>
        </filter>
        <rect id="path-7" x="247" y="137" width="70" height="36" rx="3"></rect>
        <filter x="-5.7%" y="-5.6%" width="111.4%" height="122.2%" filterUnits="objectBoundingBox" id="filter-8">
            <feOffset dx="0" dy="2" in="SourceAlpha" result="shadowOffsetOuter1"></feOffset>
            <feGaussianBlur stdDeviation="1" in="shadowOffsetOuter1" result="shadowBlurOuter1"></feGaussianBlur>
            <feColorMatrix values="0 0 0 0 0   0 0 0 0 0   0 0 0 0 0  0 0 0 0.0917832168 0" type="matrix" in="shadowBlurOuter1"></feColorMatrix>
        </filter>
        <rect id="path-9" x="327" y="137" width="70" height="36" rx="3"></rect>
        <filter x="-5.7%" y="-5.6%" width="111.4%" height="122.2%" filterUnits="objectBoundingBox" id="filter-10">
            <feOffset dx="0" dy="2" in="SourceAlpha" result="shadowOffsetOuter1"></feOffset>
            <feGaussianBlur stdDeviation="1" in="shadowOffsetOuter1" result="shadowBlurOuter1"></feGaussianBlur>
            <feColorMatrix values="0 0 0 0 0   0 0 0 0 0   0 0 0 0 0  0 0 0 0.0917832168 0" type="matrix" in="shadowBlurOuter1"></feColorMatrix>
        </filter>
        <rect id="path-11" x="407" y="137" width="70" height="36" rx="3"></rect>
        <filter x="-5.7%" y="-5.6%" width="111.4%" height="122.2%" filterUnits="objectBoundingBox" id="filter-12">
            <feOffset dx="0" dy="2" in="SourceAlpha" result="shadowOffsetOuter1"></feOffset>
            <feGaussianBlur stdDeviation="1" in="shadowOffsetOuter1" result="shadowBlurOuter1"></feGaussianBlur>
            <feColorMatrix values="0 0 0 0 0   0 0 0 0 0   0 0 0 0 0  0 0 0 0.0917832168 0" type="matrix" in="shadowBlurOuter1"></feColorMatrix>
        </filter>
        <rect id="path-13" x="247" y="181" width="70" height="36" rx="3"></rect>
        <filter x="-5.7%" y="-5.6%" width="111.4%" height="122.2%" filterUnits="objectBoundingBox" id="filter-14">
            <feOffset dx="0" dy="2" in="SourceAlpha" result="shadowOffsetOuter1"></feOffset>
            <feGaussianBlur stdDeviation="1" in="shadowOffsetOuter1" result="shadowBlurOuter1"></feGaussianBlur>
            <feColorMatrix values="0 0 0 0 0   0 0 0 0 0   0 0 0 0 0  0 0 0 0.0917832168 0" type="matrix" in="shadowBlurOuter1"></feColorMatrix>
        </filter>
        <rect id="path-15" x="327" y="181" width="70" height="36" rx="3"></rect>
        <filter x="-5.7%" y="-5.6%" width="111.4%" height="122.2%" filterUnits="objectBoundingBox" id="filter-16">
            <feOffset dx="0" dy="2" in="SourceAlpha" result="shadowOffsetOuter1"></feOffset>
            <feGaussianBlur stdDeviation="1" in="shadowOffsetOuter1" result="shadowBlurOuter1"></feGaussianBlur>
            <feColorMatrix values="0 0 0 0 0   0 0 0 0 0   0 0 0 0 0  0 0 0 0.0917832168 0" type="matrix" in="shadowBlurOuter1"></feColorMatrix>
        </filter>
        <rect id="path-17" x="407" y="181" width="70" height="36" rx="3"></rect>
        <filter x="-5.7%" y="-5.6%" width="111.4%" height="122.2%" filterUnits="objectBoundingBox" id="filter-18">
            <feOffset dx="0" dy="2" in="SourceAlpha" result="shadowOffsetOuter1"></feOffset>
            <feGaussianBlur stdDeviation="1" in="shadowOffsetOuter1" result="shadowBlurOuter1"></feGaussianBlur>
            <feColorMatrix values="0 0 0 0 0   0 0 0 0 0   0 0 0 0 0  0 0 0 0.0917832168 0" type="matrix" in="shadowBlurOuter1"></feColorMatrix>
        </filter>
        <rect id="path-19" x="247" y="228" width="70" height="36" rx="3"></rect>
        <filter x="-5.7%" y="-5.6%" width="111.4%" height="122.2%" filterUnits="objectBoundingBox" id="filter-20">
            <feOffset dx="0" dy="2" in="SourceAlpha" result="shadowOffsetOuter1"></feOffset>
            <feGaussianBlur stdDeviation="1" in="shadowOffsetOuter1" result="shadowBlurOuter1"></feGaussianBlur>
            <feColorMatrix values="0 0 0 0 0   0 0 0 0 0   0 0 0 0 0  0 0 0 0.0917832168 0" type="matrix" in="shadowBlurOuter1"></feColorMatrix>
        </filter>
        <rect id="path-21" x="327" y="228" width="70" height="36" rx="3"></rect>
        <filter x="-5.7%" y="-5.6%" width="111.4%" height="122.2%" filterUnits="objectBoundingBox" id="filter-22">
            <feOffset dx="0" dy="2" in="SourceAlpha" result="shadowOffsetOuter1"></feOffset>
            <feGaussianBlur stdDeviation="1" in="shadowOffsetOuter1" result="shadowBlurOuter1"></feGaussianBlur>
            <feColorMatrix values="0 0 0 0 0   0 0 0 0 0   0 0 0 0 0  0 0 0 0.0917832168 0" type="matrix" in="shadowBlurOuter1"></feColorMatrix>
        </filter>
        <path d="M0,0 L228,0 C236.836556,-1.623249e-15 244,7.163444 244,16 L244,71 L244,71 L16,71 C7.163444,71 1.082166e-15,63.836556 0,55 L0,0 L0,0 Z" id="path-23"></path>
        <rect id="path-25" x="238" y="91" width="43" height="12" rx="3"></rect>
        <filter x="-9.3%" y="-16.7%" width="118.6%" height="166.7%" filterUnits="objectBoundingBox" id="filter-26">
            <feOffset dx="0" dy="2" in="SourceAlpha" result="shadowOffsetOuter1"></feOffset>
            <feGaussianBlur stdDeviation="1" in="shadowOffsetOuter1" result="shadowBlurOuter1"></feGaussianBlur>
            <feColorMatrix values="0 0 0 0 0   0 0 0 0 0   0 0 0 0 0  0 0 0 0.0917832168 0" type="matrix" in="shadowBlurOuter1"></feColorMatrix>
        </filter>
        <rect id="path-27" x="291" y="91" width="43" height="12" rx="3"></rect>
        <filter x="-9.3%" y="-16.7%" width="118.6%" height="166.7%" filterUnits="objectBoundingBox" id="filter-28">
            <feOffset dx="0" dy="2" in="SourceAlpha" result="shadowOffsetOuter1"></feOffset>
            <feGaussianBlur stdDeviation="1" in="shadowOffsetOuter1" result="shadowBlurOuter1"></feGaussianBlur>
            <feColorMatrix values="0 0 0 0 0   0 0 0 0 0   0 0 0 0 0  0 0 0 0.0917832168 0" type="matrix" in="shadowBlurOuter1"></feColorMatrix>
        </filter>
        <rect id="path-29" x="344" y="91" width="43" height="12" rx="3"></rect>
        <filter x="-9.3%" y="-16.7%" width="118.6%" height="166.7%" filterUnits="objectBoundingBox" id="filter-30">
            <feOffset dx="0" dy="2" in="SourceAlpha" result="shadowOffsetOuter1"></feOffset>
            <feGaussianBlur stdDeviation="1" in="shadowOffsetOuter1" result="shadowBlurOuter1"></feGaussianBlur>
            <feColorMatrix values="0 0 0 0 0   0 0 0 0 0   0 0 0 0 0  0 0 0 0.0917832168 0" type="matrix" in="shadowBlurOuter1"></feColorMatrix>
        </filter>
    </defs>
    <g id="Page-3" stroke="none" stroke-width="1" fill="none" fill-rule="evenodd">
        <g id="theme-intro-popup2" transform="translate(-384.000000, -370.000000)">
            <g id="Group-6" transform="translate(360.000000, 229.000000)">
                <g id="illustration" transform="translate(24.000000, 141.000000)">
                    <g id="Rectangle-+-Rectangle-Copy-12-Mask">
                        <mask id="mask-2" fill="white">
                            <use xlink:href="#path-1"></use>
                        </mask>
                        <use id="Mask" fill="#024F9D" xlink:href="#path-1"></use>
                        <path d="M194.502489,114 C243.474689,114 249.597111,331.22706 249.597111,331.22706 C249.597111,331.22706 266.73774,231.81828 298.571104,231.81828 C330.402676,231.81828 292.448683,342.271681 308.364468,339.81792 C324.282047,337.364159 313.262047,134.86326 358.563305,188.862182 C403.862769,242.862901 383.049405,326.317741 432.023398,325.089961 C480.995599,323.86398 414.88277,285.817201 443.041605,248.998202 C471.202235,212.181001 542.212642,298.089602 548.335064,320.180642 C548.335064,320.180642 544.662328,201.134582 577.718743,201.134582 C610.77695,201.134582 612,371.7276 612,371.7276 L97.7793449,384 C97.7793449,384 46.3574588,244.09068 63.4980875,201.134582 C80.6387162,158.18208 138.183024,246.544441 149.201231,279.6819 L149.197274,279.485733 C149.07538,273.120897 146.507975,114 194.502489,114 Z M354.22001,238.397238 L354.09108,238.405792 C353.427334,238.482933 352.939894,239.052036 352.949194,239.707645 L352.957772,239.8398 L366.72338,358.853676 L366.755251,359.026685 C366.912683,359.64404 367.504953,360.065136 368.153948,359.989709 C368.817694,359.912568 369.305134,359.343464 369.295834,358.687855 L369.287256,358.5557 L355.521648,239.541825 L355.489777,239.368815 C355.353336,238.833775 354.890283,238.446146 354.346756,238.40139 L354.22001,238.397238 Z M91.4394532,238.718529 C91.1602398,238.149429 90.4969643,237.860328 89.8794699,238.066405 C89.2058397,238.291217 88.8417829,239.020199 89.0663263,239.694633 L89.0663263,239.694633 L128.494243,358.119481 L128.560547,358.281471 C128.83976,358.850571 129.503036,359.139672 130.12053,358.933595 C130.79416,358.708783 131.158217,357.979801 130.933674,357.305367 L130.933674,357.305367 L91.5057572,238.880519 Z M583.090814,259.09515 L582.958887,259.102247 C582.29431,259.171822 581.80045,259.735336 581.802316,260.391009 L581.809396,260.523253 L582.27594,265.342721 L582.613644,269.096294 C582.89109,272.267207 583.165699,275.628122 583.428587,279.129322 L583.526603,280.448751 L583.720036,283.141088 C584.348721,292.098804 584.814507,300.877956 585.057793,309.143642 C585.687238,330.529129 584.759299,346.085934 581.899867,353.03702 C581.62816,353.697521 581.942056,354.453754 582.600972,354.726114 C583.259888,354.998474 584.014307,354.683824 584.286014,354.023323 C587.19773,346.945138 588.187139,332.294471 587.716712,312.060562 L587.698388,311.299178 L587.637722,309.067341 C587.386801,300.542265 586.900657,291.480339 586.243982,282.241096 L586.10068,280.258675 L585.974053,278.559301 C585.750841,275.604358 585.519484,272.750852 585.285317,270.028566 L585.184804,268.869992 L584.915796,265.862978 C584.84037,265.038228 584.76781,264.260188 584.698626,263.531705 L584.64738,262.994678 L584.376485,260.254502 C584.311704,259.632739 583.817679,259.160046 583.22029,259.101305 L583.090814,259.09515 Z M470.249921,276.816432 C469.827825,277.331822 469.869337,278.076268 470.324633,278.541814 L470.428512,278.63712 L472.073522,280.04508 L473.614087,281.411846 C474.864057,282.536028 476.209885,283.782274 477.632353,285.142397 C483.053262,290.325718 488.474601,296.087338 493.531709,302.270463 C506.967732,318.698151 515.397492,335.034996 516.41872,350.167804 C516.466824,350.880627 517.082291,351.419393 517.793404,351.371173 C518.504516,351.322953 519.041991,350.706006 518.993886,349.993184 C517.928831,334.210936 509.27297,317.435906 495.527695,300.630108 C490.398786,294.359196 484.906534,288.522212 479.413854,283.270266 C477.490721,281.43142 475.70418,279.796424 474.099622,278.384362 C473.630658,277.971658 473.205141,277.602662 472.826356,277.278755 L472.604719,277.089834 L472.066241,276.637411 C471.515362,276.184078 470.702168,276.264228 470.249921,276.816432 Z M198.516271,167.678794 C197.84808,167.678794 197.298496,168.187836 197.232409,168.840157 L197.225746,168.972423 L197.225746,346.630816 L197.237527,346.806354 C197.322981,347.437776 197.862929,347.924446 198.516271,347.924446 C199.184463,347.924446 199.734047,347.415403 199.800134,346.763082 L199.806797,346.630816 L199.806797,168.972423 L199.795016,168.796885 C199.709562,168.165464 199.169614,167.678794 198.516271,167.678794 Z" id="Combined-Shape-Copy-2" fill="#F5F5EF" opacity="0.0962146577" mask="url(#mask-2)"></path>
                        <g id="Group-17" mask="url(#mask-2)">
                            <g transform="translate(124.999909, 178.871050)">
                                <path d="M363.919488,99.926417 C363.919488,99.926417 337.975107,101.01556 333.304358,94.8133669 C328.63437,88.6119327 342.781085,88.4653465 342.781085,88.4653465 C342.781085,88.4653465 322.674379,85.0551273 318.461741,75.3941056 C314.249103,65.7338435 340.253502,66.7812137 340.253502,66.7812137 C340.253502,66.7812137 323.02309,55.1165933 320.763688,43.4626061 C318.504286,31.808619 371.989975,65.3016798 371.989975,65.3016798 C371.989975,65.3016798 372.941902,46.0479928 377.524523,43.6980556 C377.524523,43.6980556 387.502664,38.1680321 383.653931,63.7006237 C383.653931,63.7006237 398.631778,48.4146393 403.309363,55.2738128 C407.986189,62.1329863 387.381869,74.1887565 387.381869,74.1887565 L363.919488,99.926417 Z" id="Fill-1" stroke="none" fill="#FF4E00" fill-rule="evenodd"></path>
                                <path d="M378.686101,53 C378.686101,53 372.039978,59.8223711 379.656516,83 C379.656516,83 383.112288,65.3892023 398.000091,59.6690169" id="Stroke-7" stroke="#4A00B2" stroke-width="1" fill="none" stroke-linecap="round"></path>
                                <path d="M349.490633,115.12895 C349.490633,115.12895 337.193881,86.6010505 340.59471,84.7355139 C343.996292,82.8692099 352.630149,95.6662846 352.630149,95.6662846 C352.630149,95.6662846 350.014011,79.9270185 356.816422,76.0654882 C363.618833,72.2039579 367.019662,90.8669979 367.019662,90.8669979 C367.019662,90.8669979 379.839792,70.5962659 387.951025,76.0654882 C396.061504,81.5362453 378.793789,100.731857 378.793789,100.731857 C378.793789,100.731857 395.276814,91.1332839 397.630886,98.5992673 C399.985711,106.063716 390.30585,115.12895 390.30585,115.12895 L349.490633,115.12895 Z" id="Fill-9" stroke="none" fill="#FFEA54" fill-rule="evenodd"></path>
                                <path d="M358.000091,91.5743387 C358.000091,91.5743387 363.857556,106.131236 363.857556,115.12895 L367.820046,115.12895 C367.820046,115.12895 375.301667,93.1746184 381.000091,87.1289499" id="Stroke-11" stroke="#4A00B2" stroke-width="1" fill="none" stroke-linecap="round"></path>
                                <path d="M19.1153316,113.860141 C19.1153316,113.860141 -1.19267882,94.7289452 0.0552446384,86.4645958 C1.3031681,78.2002465 12.033196,88.9685997 12.033196,88.9685997 C12.033196,88.9685997 -0.443773758,70.9374986 3.79826008,60.4191669 C8.04104887,49.9008352 26.756881,70.6874771 26.756881,70.6874771 C26.756881,70.6874771 22.7639789,48.6484544 30.0008781,38.1301227 C37.2377772,27.611791 51.7115756,93.9781229 51.7115756,93.9781229 C51.7115756,93.9781229 67.1834107,80.2034496 72.4242363,81.9573888 C72.4242363,81.9573888 84.1530559,85.4637519 61.6934534,101.741671 C61.6934534,101.741671 84.6520743,101.741671 82.9051325,110.506822 C81.1581906,119.272729 56.4533828,112.510782 56.4533828,112.510782 L19.1153316,113.860141 Z" id="Fill-15" stroke="none" fill="#FF4E00" fill-rule="evenodd"></path>
                                <path d="M14,71.0308757 C14,71.0308757 38.2554978,89.9868653 43.9991375,113 C43.9991375,113 44.3094602,83.9122161 33.157665,55" id="Stroke-19" stroke="#4A00B2" stroke-width="1" fill="none" stroke-linecap="round"></path>
                                <path d="M42.6980734,59 C42.6980734,59 11.8292737,46.9486842 13.0343892,42.9366228 C14.2387487,38.9245613 30.4760549,41.9417404 30.4760549,41.9417404 C30.4760549,41.9417404 16.6414194,32.0980799 18.9533663,23.9771166 C21.2660691,15.8561534 37.9010483,27.2991913 37.9010483,27.2991913 C37.9010483,27.2991913 32.4923931,2.21226939 42.8220627,0.113559492 C53.1509762,-1.9851504 54.3409711,25.7013271 54.3409711,25.7013271 C54.3409711,25.7013271 59.7632349,5.84226581 67.1791559,9.65762053 C74.595077,13.4729753 73.987983,27.7168149 73.987983,27.7168149 L42.6980734,59 Z" id="Fill-23" stroke="none" fill="#FFEA54" fill-rule="evenodd"></path>
                                <path d="M28,30.3073364 C28,30.3073364 43.9022416,37.0314669 50.9023303,44 L54,40.9212892 C54,40.9212892 42.7680676,18.1078209 42.5192711,9" id="Stroke-25" stroke="#4A00B2" stroke-width="1" fill="none" stroke-linecap="round"></path>
                            </g>
                        </g>
                        <path d="M476.5,26.5 C480.780207,26.5 484.655207,28.2348966 487.460155,31.0398449 C490.265103,33.8447932 492,37.7197932 492,42 L492,42 L492,341.5 L163,341.5 L163,42 C163,37.7197932 164.734897,33.8447932 167.539845,31.0398449 C170.344793,28.2348966 174.219793,26.5 178.5,26.5 L178.5,26.5 Z" id="Rectangle" stroke="#FFFFFF" fill="#024F9D" mask="url(#mask-2)"></path>
                        <path d="M185.5,58 L469.5,58 C478.336556,58 485.5,65.163444 485.5,74 L485.5,352 L485.5,352 L169.5,352 L169.5,74 C169.5,65.163444 176.663444,58 185.5,58 Z" id="Rectangle-Copy-12" fill="#F2F2EA" mask="url(#mask-2)"></path>
                        <circle id="Oval" fill="#FF4747" mask="url(#mask-2)" cx="179" cy="42" r="2"></circle>
                        <circle id="Oval-Copy-3" fill="#FFC347" mask="url(#mask-2)" cx="186" cy="42" r="2"></circle>
                        <circle id="Oval-Copy-4" fill="#47FF5E" mask="url(#mask-2)" cx="193" cy="42" r="2"></circle>
                    </g>
                    <g id="Rectangle">
                        <use fill="black" fill-opacity="1" filter="url(#filter-4)" xlink:href="#path-3"></use>
                        <use fill="#FFFFFF" fill-rule="evenodd" xlink:href="#path-3"></use>
                    </g>
                    <g id="Rectangle-Copy-17">
                        <use fill="black" fill-opacity="1" filter="url(#filter-6)" xlink:href="#path-5"></use>
                        <use fill="#FFFFFF" fill-rule="evenodd" xlink:href="#path-5"></use>
                    </g>
                    <g id="Rectangle-Copy-18">
                        <use fill="black" fill-opacity="1" filter="url(#filter-8)" xlink:href="#path-7"></use>
                        <use fill="#FFFFFF" fill-rule="evenodd" xlink:href="#path-7"></use>
                    </g>
                    <g id="Rectangle-Copy-19">
                        <use fill="black" fill-opacity="1" filter="url(#filter-10)" xlink:href="#path-9"></use>
                        <use fill="#FFFFFF" fill-rule="evenodd" xlink:href="#path-9"></use>
                    </g>
                    <g id="Rectangle-Copy-20">
                        <use fill="black" fill-opacity="1" filter="url(#filter-12)" xlink:href="#path-11"></use>
                        <use fill="#FFFFFF" fill-rule="evenodd" xlink:href="#path-11"></use>
                    </g>
                    <g id="Rectangle-Copy-23">
                        <use fill="black" fill-opacity="1" filter="url(#filter-14)" xlink:href="#path-13"></use>
                        <use fill="#FFFFFF" fill-rule="evenodd" xlink:href="#path-13"></use>
                    </g>
                    <g id="Rectangle-Copy-22">
                        <use fill="black" fill-opacity="1" filter="url(#filter-16)" xlink:href="#path-15"></use>
                        <use fill="#FFFFFF" fill-rule="evenodd" xlink:href="#path-15"></use>
                    </g>
                    <g id="Rectangle-Copy-21">
                        <use fill="black" fill-opacity="1" filter="url(#filter-18)" xlink:href="#path-17"></use>
                        <use fill="#FFFFFF" fill-rule="evenodd" xlink:href="#path-17"></use>
                    </g>
                    <g id="Rectangle-Copy-26">
                        <use fill="black" fill-opacity="1" filter="url(#filter-20)" xlink:href="#path-19"></use>
                        <use fill="#FFFFFF" fill-rule="evenodd" xlink:href="#path-19"></use>
                    </g>
                    <g id="Rectangle-Copy-25">
                        <use fill="black" fill-opacity="1" filter="url(#filter-22)" xlink:href="#path-21"></use>
                        <use fill="#FFFFFF" fill-rule="evenodd" xlink:href="#path-21"></use>
                    </g>
                    <circle id="Oval" fill="#556A63" cx="189" cy="74" r="6"></circle>
                    <circle id="Oval-Copy" fill="#556A63" cx="205" cy="74" r="6"></circle>
                    <g id="Fill-15-+-Stroke-19-+-Fill-23-+-Stroke-25-Mask" transform="translate(242.000000, 58.000000)">
                        <mask id="mask-24" fill="white">
                            <use xlink:href="#path-23"></use>
                        </mask>
                        <use id="Mask" fill="#FFD954" xlink:href="#path-23"></use>
                        <path d="M237.21824,70.6200471 C237.21824,70.6200471 230.61202,64.2429817 231.017971,61.4881986 C231.423922,58.7334155 234.914413,62.3228666 234.914413,62.3228666 C234.914413,62.3228666 230.85564,56.3124995 232.235579,52.806389 C233.615763,49.3002784 239.704046,56.229159 239.704046,56.229159 C239.704046,56.229159 238.40515,48.8828181 240.759322,45.3767076 C243.113494,41.870597 247.821838,63.9927076 247.821838,63.9927076 C247.821838,63.9927076 252.854844,59.4011499 254.559691,59.9857963 C254.559691,59.9857963 258.37509,61.154584 251.068955,66.5805571 C251.068955,66.5805571 258.537422,66.5805571 257.969139,69.5022739 C257.400857,72.4242431 249.364353,70.1702608 249.364353,70.1702608 L237.21824,70.6200471 Z" id="Fill-15" fill="#FF4E00" mask="url(#mask-24)"></path>
                        <path d="M236,56.5278882 C236,56.5278882 243.276649,63.0644363 244.999741,71 C244.999741,71 245.092838,60.9697297 241.747299,51" id="Stroke-19" stroke="#4A00B2" stroke-linecap="round" mask="url(#mask-24)"></path>
                        <path d="M245.223927,53 C245.223927,53 234.596963,48.9148082 235.011839,47.5547874 C235.426454,46.1947665 241.016347,47.2175391 241.016347,47.2175391 C241.016347,47.2175391 236.253603,43.880705 237.04952,41.1278361 C237.845696,38.3749673 243.572492,42.2539632 243.572492,42.2539632 C243.572492,42.2539632 241.710496,33.7499218 245.266612,33.0384947 C248.822467,32.3270677 249.232138,41.7123143 249.232138,41.7123143 C249.232138,41.7123143 251.098819,34.9804291 253.651841,36.2737697 C256.204863,37.5671103 255.995863,42.3955305 255.995863,42.3955305 L245.223927,53 Z" id="Fill-23" fill="#72E8FB" mask="url(#mask-24)"></path>
                        <path d="M240,43.3053725 C240,43.3053725 245.504622,45.6107886 247.92773,48 L249,46.944442 C249,46.944442 245.112023,39.1226814 245.025902,36" id="Stroke-25" stroke="#4A00B2" stroke-linecap="round" mask="url(#mask-24)"></path>
                    </g>
                    <g id="Rectangle-Copy-14">
                        <use fill="black" fill-opacity="1" filter="url(#filter-26)" xlink:href="#path-25"></use>
                        <use fill="#FFFFFF" fill-rule="evenodd" xlink:href="#path-25"></use>
                    </g>
                    <g id="Rectangle-Copy-15">
                        <use fill="black" fill-opacity="1" filter="url(#filter-28)" xlink:href="#path-27"></use>
                        <use fill="#FFFFFF" fill-rule="evenodd" xlink:href="#path-27"></use>
                    </g>
                    <g id="Rectangle-Copy-16">
                        <use fill="black" fill-opacity="1" filter="url(#filter-30)" xlink:href="#path-29"></use>
                        <use fill="#FFFFFF" fill-rule="evenodd" xlink:href="#path-29"></use>
                    </g>
                    <circle id="Oval-Copy-2" fill="#FFFFFF" cx="471" cy="74" r="6"></circle>
                    <g id="Group-13" transform="translate(570.000000, 50.000000)" stroke="#FFD954">
                        <line x1="12" y1="11" x2="12" y2="0" id="Stroke-1"></line>
                        <line x1="11" y1="11" x2="4" y2="4" id="Stroke-3"></line>
                        <line x1="11" y1="12" x2="0" y2="12" id="Stroke-4"></line>
                        <line x1="11" y1="13" x2="4" y2="20" id="Stroke-6"></line>
                        <line x1="12" y1="24" x2="12" y2="13" id="Stroke-7"></line>
                        <line x1="20" y1="20" x2="13" y2="13" id="Stroke-9"></line>
                        <line x1="24" y1="12" x2="13" y2="12" id="Stroke-10"></line>
                        <line x1="20" y1="4" x2="13" y2="11" id="Stroke-12"></line>
                    </g>
                    <g id="Group-13-Copy" transform="translate(24.000000, 15.000000)" stroke="#FFFFFF">
                        <line x1="14" y1="13" x2="14" y2="0" id="Stroke-1"></line>
                        <line x1="13" y1="13" x2="4" y2="4" id="Stroke-3"></line>
                        <line x1="13" y1="14" x2="0" y2="14" id="Stroke-4"></line>
                        <line x1="13" y1="15" x2="4" y2="24" id="Stroke-6"></line>
                        <line x1="14" y1="28" x2="14" y2="15" id="Stroke-7"></line>
                        <line x1="24" y1="24" x2="15" y2="15" id="Stroke-9"></line>
                        <line x1="28" y1="14" x2="15" y2="14" id="Stroke-10"></line>
                        <line x1="24" y1="4" x2="15" y2="13" id="Stroke-12"></line>
                    </g>
                    <g id="Group-13-Copy-2" transform="translate(641.000000, 203.000000)" stroke="#FFFFFF">
                        <line x1="7" y1="7" x2="7" y2="0" id="Stroke-1"></line>
                        <line x1="6" y1="6" x2="2" y2="2" id="Stroke-3"></line>
                        <line x1="7" y1="7" x2="0" y2="7" id="Stroke-4"></line>
                        <line x1="6" y1="8" x2="2" y2="12" id="Stroke-6"></line>
                        <line x1="7" y1="14" x2="7" y2="7" id="Stroke-7"></line>
                        <line x1="12" y1="12" x2="8" y2="8" id="Stroke-9"></line>
                        <line x1="14" y1="7" x2="7" y2="7" id="Stroke-10"></line>
                        <line x1="12" y1="2" x2="8" y2="6" id="Stroke-12"></line>
                    </g>
                    <g id="Group-13-Copy-3" transform="translate(10.000000, 264.000000)" stroke="#FFDF5D">
                        <line x1="7" y1="7" x2="7" y2="0" id="Stroke-1"></line>
                        <line x1="6" y1="6" x2="2" y2="2" id="Stroke-3"></line>
                        <line x1="7" y1="7" x2="0" y2="7" id="Stroke-4"></line>
                        <line x1="6" y1="8" x2="2" y2="12" id="Stroke-6"></line>
                        <line x1="7" y1="14" x2="7" y2="7" id="Stroke-7"></line>
                        <line x1="12" y1="12" x2="8" y2="8" id="Stroke-9"></line>
                        <line x1="14" y1="7" x2="7" y2="7" id="Stroke-10"></line>
                        <line x1="12" y1="2" x2="8" y2="6" id="Stroke-12"></line>
                    </g>
                </g>
            </g>
        </g>
    </g>
</svg>