<svg xmlns="http://www.w3.org/2000/svg" xmlns:xlink="http://www.w3.org/1999/xlink" width="672" height="293" xmlns:v="https://vecta.io/nano"><style><![CDATA[.B{fill:#fff}.C{fill:#000}.D{filter:url(#G)}.E{mask:url(#S)}.F{stroke:#4a00b2}.G{stroke-linecap:round}.H{filter:url(#C)}.I{mask:url(#T)}.J{fill:#ff4e00}]]></style><defs><rect id="A" width="672" height="293" rx="20"/><rect id="B" x="185" y="91" width="43" height="12" rx="3"/><filter x="-9.3%" y="-16.7%" width="118.6%" height="166.7%" id="C"><feOffset dy="2" in="SourceAlpha"/><feGaussianBlur stdDeviation="1"/><feColorMatrix values="0 0 0 0 0 0 0 0 0 0 0 0 0 0 0 0 0 0 0.0917832168 0"/></filter><rect id="D" x="185" y="137" width="52" height="127" rx="3"/><filter x="-7.7%" y="-1.6%" width="115.4%" height="106.3%" id="E"><feOffset dy="2" in="SourceAlpha"/><feGaussianBlur stdDeviation="1"/><feColorMatrix values="0 0 0 0 0 0 0 0 0 0 0 0 0 0 0 0 0 0 0.0917832168 0"/></filter><rect id="F" x="247" y="137" width="70" height="36" rx="3"/><filter x="-5.7%" y="-5.6%" width="111.4%" height="122.2%" id="G"><feOffset dy="2" in="SourceAlpha"/><feGaussianBlur stdDeviation="1"/><feColorMatrix values="0 0 0 0 0 0 0 0 0 0 0 0 0 0 0 0 0 0 0.0917832168 0"/></filter><rect id="H" x="327" y="137" width="70" height="36" rx="3"/><rect id="I" x="407" y="137" width="70" height="36" rx="3"/><rect id="J" x="247" y="181" width="70" height="36" rx="3"/><rect id="K" x="327" y="181" width="70" height="36" rx="3"/><rect id="L" x="407" y="181" width="70" height="36" rx="3"/><rect id="M" x="247" y="228" width="70" height="36" rx="3"/><rect id="N" x="327" y="228" width="70" height="36" rx="3"/><path d="M0 0h228c8.837 0 16 7.163 16 16v55H16C7.163 71 0 63.837 0 55V0z" id="O"/><rect id="P" x="238" y="91" width="43" height="12" rx="3"/><rect id="Q" x="291" y="91" width="43" height="12" rx="3"/><rect id="R" x="344" y="91" width="43" height="12" rx="3"/></defs><g fill="none" fill-rule="evenodd"><mask id="S" class="B"><use xlink:href="#A"/></mask><use fill="#024f9d" xlink:href="#A"/><path d="M194.502 114c48.972 0 55.095 217.227 55.095 217.227s17.14-99.41 48.974-99.41-6.122 110.453 9.793 108 4.898-204.955 50.2-150.956 24.486 137.456 73.46 136.228-17.14-39.273 11.018-76.092 99.17 49.09 105.293 71.182c0 0-3.673-119.046 29.384-119.046S612 371.728 612 371.728L97.78 384s-51.422-139.91-34.28-182.865 74.685 45.4 85.703 78.547l-.004-.196C149.075 273.12 146.508 114 194.502 114zM354.22 238.397l-.13.01c-.664.077-1.15.646-1.142 1.302l.01.132 13.797 119.187a1.29 1.29 0 0 0 1.399.963c.664-.077 1.15-.646 1.142-1.302l-.01-.132L355.5 239.37c-.136-.535-.6-.923-1.143-.967l-.127-.004zm-262.78.32c-.28-.57-.942-.858-1.56-.652a1.29 1.29 0 0 0-.813 1.628h0L128.56 358.28c.28.57.942.858 1.56.652a1.29 1.29 0 0 0 .813-1.628h0L91.506 238.88zm491.65 20.377l-.132.007c-.665.07-1.158.633-1.157 1.29l.007.132.467 4.82.338 3.754.815 10.033.098 1.32.193 2.692c.63 8.958 1.094 17.737 1.338 26.003.63 21.385-.298 36.942-3.158 43.893-.272.66.042 1.417.7 1.69a1.29 1.29 0 0 0 1.685-.703c2.912-7.078 3.9-21.73 3.43-41.963l-.018-.76-.06-2.232c-.25-8.525-.737-17.587-1.394-26.826l-.143-1.982-.127-1.7-.69-8.53-.1-1.16-.27-3.007-.268-2.868-.27-2.74c-.065-.622-.56-1.094-1.156-1.153l-.13-.006zm-112.84 17.72c-.422.515-.38 1.26.075 1.725l.104.095 1.645 1.408 1.54 1.367c1.25 1.124 2.596 2.37 4.018 3.73 5.42 5.183 10.842 10.945 15.9 17.128 13.436 16.428 21.866 32.765 22.887 47.897a1.29 1.29 0 0 0 1.375 1.203c.71-.048 1.25-.665 1.2-1.378-1.065-15.782-9.72-32.557-23.466-49.363-5.13-6.27-10.62-12.108-16.114-17.36-1.923-1.84-3.7-3.474-5.314-4.886l-1.273-1.106-.222-.19-.538-.452a1.29 1.29 0 0 0-1.816.179zM198.516 167.68a1.29 1.29 0 0 0-1.284 1.161l-.007.132.012 177.834a1.29 1.29 0 0 0 2.563-.043l.007-.132-.012-177.834a1.29 1.29 0 0 0-1.279-1.118z" fill="#f5f5ef" opacity=".096" class="E"/><g class="E"><g transform="translate(125 178.871)"><path d="M363.92 99.926s-25.944 1.09-30.615-5.113 9.477-6.348 9.477-6.348-20.107-3.4-24.32-13.07 21.792-8.613 21.792-8.613-17.23-11.665-19.5-23.32S372 65.302 372 65.302s.952-19.254 5.535-21.604c0 0 9.978-5.53 6.13 20.003 0 0 14.978-15.286 19.655-8.427S387.382 74.19 387.382 74.19L363.92 99.926z" class="J"/><path d="M378.686 53s-6.646 6.822.97 30c0 0 3.456-17.61 18.344-23.33" class="F G"/><path d="M349.49 115.13s-12.297-28.528-8.896-30.393 12.035 10.93 12.035 10.93-2.616-15.74 4.186-19.6 10.203 14.802 10.203 14.802 12.82-20.27 20.93-14.802-9.157 24.666-9.157 24.666 16.483-9.6 18.837-2.133-7.325 16.53-7.325 16.53H349.49z" fill="#ffea54"/><path d="M358 91.574s5.857 14.557 5.857 23.555h3.962s7.482-21.954 13.18-28" class="F G"/><path d="M19.115 113.86S-1.193 94.73.055 86.465s11.978 2.504 11.978 2.504-12.477-18.03-8.235-28.55 22.96 10.268 22.96 10.268S22.764 48.648 30 38.13s21.71 55.848 21.71 55.848 15.472-13.775 20.713-12.02c0 0 11.73 3.506-10.73 19.784 0 0 22.96 0 21.212 8.765s-26.452 2.004-26.452 2.004l-37.338 1.35z" class="J"/><path d="M14 71.03S38.255 89.987 44 113c0 0 .3-29.088-10.84-58" class="F G"/><path d="M42.698 59S11.83 46.95 13.034 42.937s17.442-.995 17.442-.995-13.835-9.844-11.523-17.965S37.9 27.3 37.9 27.3 32.492 2.212 42.822.114 54.34 25.7 54.34 25.7 59.763 5.842 67.18 9.658s6.81 18.06 6.81 18.06L42.698 59z" fill="#ffea54"/><path d="M28 30.307S43.902 37.03 50.902 44L54 40.92S42.768 18.108 42.52 9" class="F G"/></g><path d="M476.5 26.5A15.45 15.45 0 0 1 492 42h0v299.5H163V42a15.45 15.45 0 0 1 15.5-15.5h0z" stroke="#fff" fill="#024f9d"/><path d="M185.5 58h284c8.837 0 16 7.163 16 16v278h-316V74c0-8.837 7.163-16 16-16z" fill="#f2f2ea"/><circle fill="#ff4747" cx="179" cy="42" r="2"/><circle fill="#ffc347" cx="186" cy="42" r="2"/><circle fill="#47ff5e" cx="193" cy="42" r="2"/></g><use xlink:href="#B" class="C H"/><use xlink:href="#B" class="B"/><use filter="url(#E)" xlink:href="#D" class="C"/><use xlink:href="#D" class="B"/><use xlink:href="#F" class="C D"/><use xlink:href="#F" class="B"/><use xlink:href="#H" class="C D"/><use xlink:href="#H" class="B"/><use xlink:href="#I" class="C D"/><use xlink:href="#I" class="B"/><use xlink:href="#J" class="C D"/><use xlink:href="#J" class="B"/><use xlink:href="#K" class="C D"/><use xlink:href="#K" class="B"/><use xlink:href="#L" class="C D"/><use xlink:href="#L" class="B"/><use xlink:href="#M" class="C D"/><use xlink:href="#M" class="B"/><use xlink:href="#N" class="C D"/><use xlink:href="#N" class="B"/><g fill="#556a63"><circle cx="189" cy="74" r="6"/><circle cx="205" cy="74" r="6"/></g><g transform="translate(242 58)"><mask id="T" class="B"><use xlink:href="#O"/></mask><use fill="#ffd954" xlink:href="#O"/><path d="M237.218 70.62s-6.606-6.377-6.2-9.132 3.896.835 3.896.835-4.06-6-2.68-9.516 7.468 3.423 7.468 3.423-1.3-7.346 1.055-10.852 7.063 18.616 7.063 18.616 5.033-4.592 6.738-4.007c0 0 3.815 1.17-3.49 6.595 0 0 7.468 0 6.9 2.922s-8.605.668-8.605.668l-12.146.45z" class="I J"/><path d="M236 56.528s7.277 6.537 9 14.472c0 0 .093-10.03-3.252-20" class="F G I"/><path d="M245.224 53s-10.627-4.085-10.212-5.445 6.005-.337 6.005-.337-4.763-3.337-3.967-6.1 6.523 1.126 6.523 1.126-1.862-8.504 1.694-9.215 3.966 8.674 3.966 8.674 1.867-6.732 4.42-5.44 2.344 6.122 2.344 6.122L245.224 53z" fill="#72e8fb" class="I"/><path d="M240 43.305s5.505 2.305 7.928 4.695L249 46.944s-3.888-7.822-3.974-10.944" class="F G I"/></g><use xlink:href="#P" class="C H"/><use xlink:href="#P" class="B"/><use xlink:href="#Q" class="C H"/><use xlink:href="#Q" class="B"/><use xlink:href="#R" class="C H"/><g class="B"><use xlink:href="#R"/><circle cx="471" cy="74" r="6"/></g><path d="M582 61V50m-1 11l-7-7m7 8h-11m11 1l-7 7m8 4V63m8 7l-7-7m11-1h-11m7-8l-7 7" stroke="#ffd954"/><g stroke="#fff"><path d="M38 28V15m-1 13l-9-9m9 10H24m13 1l-9 9m10 4V30m10 9l-9-9m13-1H39m9-10l-9 9m609 182v-7m-1 6l-4-4m5 5h-7m6 1l-4 4m5 2v-7m5 5l-4-4"/><path d="M655 210h-7m5-5l-4 4"/></g><g stroke="#ffdf5d"><path d="M17 271v-7m-1 6l-4-4m5 5h-7m6 1l-4 4m5 2v-7m5 5l-4-4"/><path d="M24 271h-7m5-5l-4 4"/></g></g></svg>