<?xml version="1.0" encoding="UTF-8"?>
<svg width="101px" height="125px" viewBox="0 0 101 125" version="1.1" xmlns="http://www.w3.org/2000/svg" xmlns:xlink="http://www.w3.org/1999/xlink">
    <!-- Generator: sketchtool 60.1 (101010) - https://sketch.com -->
    <title>846E877F-3507-426A-AFB1-C277AEE2A144</title>
    <desc>Created with sketchtool.</desc>
    <g id="Offline-Desktop" stroke="none" stroke-width="1" fill="none" fill-rule="evenodd">
        <g id="Offline-Desktop---Library-empty-state" transform="translate(-590.000000, -336.000000)">
            <g id="Group-7" transform="translate(590.000000, 337.000000)">
                <ellipse id="Oval-Copy-2" fill="#9D9D9E" fill-rule="nonzero" opacity="0.75" cx="50.5" cy="118.5" rx="50.5" ry="5.5"></ellipse>
                <g id="Group-2" transform="translate(16.000000, 0.000000)">
                    <path d="M14.791968,18.8000919 C14.791968,11.826034 15.7275643,3.95217394 6.52515533,3.47608697 C-2.67725365,3 4.75584027,26.8066078 6.52515533,30.2854935 C9.46388497,36.0637209 14.791968,25.7741498 14.791968,18.8000919 Z" id="Path-6" stroke="#333333" fill="#636060"></path>
                    <path d="M14.624545,19.1051206 C14.03642,10.6139844 9.76106243,5.84693961 4.4272061,3.97907759 C10.2948081,-0.0595915303 14.5742543,-0.742920639 17.2655449,1.92909026 C21.3024807,5.93710662 22.741573,9.34449935 22.741573,14.009449 C22.741573,21.0068734 15.5067324,31.841825 14.624545,19.1051206 Z" id="Path-7" stroke="#333333" fill="#E6F2FF"></path>
                    <path d="M65.0532718,20.038882 C65.0532718,12.8221281 65.1065253,3.01191724 56.5970593,3.46904374 C48.0875934,3.92617024 56.0697374,27.6350732 57.8390524,31.2350236 C60.7715839,37.2017209 65.0532718,26.665491 65.0532718,20.038882 Z" id="Path-6" stroke="#333333" fill="#636060" transform="translate(58.898522, 18.226817) scale(-1, 1) translate(-58.898522, -18.226817) "></path>
                    <path d="M54.2880073,19.1051206 C53.6998823,10.6139844 50.0754294,5.33690576 44.741573,3.46904374 C50.0763215,0.0172752349 53.9456743,-0.805739345 56.3496316,1 C59.9555675,3.70860902 62.4050353,9.34449935 62.4050353,14.009449 C62.4050353,21.0068734 55.1701947,31.841825 54.2880073,19.1051206 Z" id="Path-7" stroke="#333333" fill="#E6F2FF" transform="translate(53.573304, 12.534852) scale(-1, 1) translate(-53.573304, -12.534852) "></path>
                    <path d="M0.741573034,93.9133318 C2.34785656,96.90365 3.53046526,98.4973243 4.28939912,98.6943547 C18.7879424,102.45839 29.6712993,100.48083 37.0734671,100.48083 C44.304517,100.48083 53.8837794,102.286373 65.336094,98.6943547 C66.1304317,98.4452107 67.2655914,96.8515364 68.741573,93.9133318 L68.741573,43.646554 C68.741573,39.4182329 67.6960252,35.2560898 65.6987936,31.5337783 C58.7114723,18.5112594 48.3923988,12 34.741573,12 C21.0907468,12 10.7716731,18.5112599 3.7843518,31.5337796 C1.7871204,35.2560909 0.741573034,39.4182339 0.741573034,43.6465549 L0.741573034,93.9133318 Z" id="Path-2" stroke="#333333" fill="#E6F2FF"></path>
                    <path d="M3.74157303,97.8321343 C9.80384944,101.258639 14.1467902,103.285923 16.7703953,103.913986 C25.2004313,105.932048 31.7668006,104.345211 36.4934352,104.345211 C41.3831538,104.345211 47.3132342,106.073709 54.6724236,103.913986 C56.7227391,103.312274 60.0786478,101.28499 64.7401497,97.8321343 L64.741573,56.8396076 C64.741573,38.2765894 51.1331703,23.1784824 34.2408614,23 C34.2408614,23 34.2408614,23 34.2408614,23 C34.5977306,23 34.9571383,23.0050522 35.3190844,23.0151565 L35.3190844,23.0151565 C18.3167418,22.5405078 4.18345566,37.3013506 3.75150634,55.9844216 C3.7448844,56.2708397 3.74157303,56.5573386 3.74157303,56.8438491 L3.74157303,97.8321343 Z" id="Path-2" stroke="#333333" fill="#D8D8D8"></path>
                    <path d="M64.597518,67 C65.7672365,46.4588758 59.8134217,32.9317221 46.7360737,26.418539 C33.6587257,19.9053558 22.4251404,22.5957319 11.5061546,35.3785384 L64.597518,67 Z" id="Path-9" stroke="#333333" fill="#424040"></path>
                    <path d="M55.741573,63 L55.741573,33.511413 C48.3668247,26.0002769 40.5174789,22.5145629 32.1935356,23.054271 C23.8695924,23.593979 16.7189382,27.959451 10.741573,36.1506869 L55.741573,63 Z" id="Path-12" fill="#111111"></path>
                    <rect id="Rectangle" stroke="#979797" fill="#FFFFFF" x="22.241573" y="21.5" width="34" height="45" rx="2"></rect>
                    <g id="Group-3" transform="translate(31.741573, 30.000000)" fill="#000000">
                        <ellipse id="Oval" cx="12.1996034" cy="2" rx="2.05882353" ry="2"></ellipse>
                        <ellipse id="Oval-Copy-3" cx="7.47124917" cy="10.5" rx="2.22352941" ry="3.5"></ellipse>
                        <ellipse id="Oval-Copy" cx="2.3172505" cy="2" rx="2.05882353" ry="2"></ellipse>
                    </g>
                    <path d="M64.9144007,66.4878735 L9.91440067,36.452764 C10.8986467,52.1249019 16.6142279,63.0981025 27.0611442,69.3723658 C37.5080605,75.6466292 50.1258127,74.6851317 64.9144007,66.4878735 Z" id="Path-8" stroke="#333333" fill="#A8A3A3" stroke-linecap="round" stroke-linejoin="bevel" transform="translate(37.414401, 54.952764) rotate(1.000000) translate(-37.414401, -54.952764) "></path>
                    <path d="M64.5,76.8914797 C65.6045695,76.8914797 66.5,75.9960492 66.5,74.8914797 C66.5,73.7869102 65.6045695,68 64.5,68 C63.3954305,68 62.5,73.7869102 62.5,74.8914797 C62.5,75.9960492 63.3954305,76.8914797 64.5,76.8914797 Z" id="Oval" stroke="#979797" stroke-width="0.5" fill="#333333"></path>
                    <circle id="Oval" fill="#D8D8D8" cx="64.5" cy="74.5" r="1"></circle>
                    <path d="M16.741573,104.097908 L16.741573,90.0697674 C16.741573,85.0606732 20.729037,81 25.647823,81 L45.835323,81 C50.7541091,81 54.741573,85.0606732 54.741573,90.0697674 L54.741573,104.097908 C46.9803155,106.032636 40.8762381,107 36.4293408,107 C31.9824435,107 25.4198542,106.032636 16.741573,104.097908 Z" id="Path-11" stroke="#333333" fill="#E6F2FF"></path>
                </g>
            </g>
        </g>
    </g>
</svg>