<svg xmlns="http://www.w3.org/2000/svg" width="101" height="125" fill="none" fill-rule="evenodd" xmlns:v="https://vecta.io/nano"><ellipse fill="#9d9d9e" fill-rule="nonzero" opacity=".75" cx="50.5" cy="119.5" rx="50.5" ry="5.5"/><g stroke="#333"><path d="M30.792 19.8c0-6.974.936-14.848-8.267-15.324s-1.77 23.33 0 26.81c2.94 5.778 8.267-4.51 8.267-11.485z" fill="#636060"/><path d="M30.625 20.105c-.588-8.49-4.863-13.258-10.197-15.126C26.295.94 30.574.257 33.266 2.93c4.037 4.008 5.476 7.415 5.476 12.08 0 6.997-7.235 17.832-8.117 5.096z" fill="#e6f2ff"/><path d="M68.744 21.04c0-7.217-.053-17.027 8.456-16.57s.527 24.166-1.242 27.766c-2.933 5.967-7.214-4.57-7.214-11.196z" fill="#636060"/><g fill="#e6f2ff"><path d="M68.86 20.105c.588-8.49 4.213-13.768 9.546-15.636C73.07 1.017 69.2.194 66.797 2c-3.606 2.71-6.055 8.344-6.055 13.01 0 6.997 7.235 17.832 8.117 5.096z"/><path d="M16.742 94.913c1.606 3 2.79 4.584 3.548 4.78 14.5 3.764 25.382 1.786 32.784 1.786 7.23 0 16.8 1.806 28.263-1.786.794-.25 1.93-1.843 3.405-4.78V44.647a25.62 25.62 0 0 0-3.043-12.113C74.71 19.51 64.392 13 50.742 13s-23.97 6.51-30.957 19.534a25.62 25.62 0 0 0-3.043 12.113v50.267z"/></g><path d="M19.742 98.832c6.062 3.427 10.405 5.454 13.03 6.082 8.43 2.018 14.996.43 19.723.43 4.9 0 10.82 1.728 18.18-.43 2.05-.602 5.406-2.63 10.068-6.082l.001-40.993c0-18.563-13.608-33.66-30.5-33.84l1.078.015C34.317 23.54 20.183 38.3 19.752 56.984l-.01.86v40.988z" fill="#d8d8d8"/><path d="M80.598 68c1.17-20.54-4.784-34.068-17.86-40.58s-24.31-3.823-35.23 8.96L80.598 68z" fill="#424040"/></g><path d="M71.742 64V34.51C64.367 27 56.517 23.515 48.194 24.054S32.72 28.96 26.742 37.15l45 26.85z" fill="#111"/><rect stroke="#979797" fill="#fff" x="38.242" y="22.5" width="34" height="45" rx="2"/><g fill="#000"><ellipse cx="59.942" cy="33" rx="2.059" ry="2"/><ellipse cx="55.213" cy="41.5" rx="2.224" ry="3.5"/><ellipse cx="50.059" cy="33" rx="2.059" ry="2"/></g><path d="M80.71 67.966l-54.467-31c.71 15.687 6.234 26.758 16.57 33.214s22.968 5.714 37.898-2.223z" stroke="#333" fill="#a8a3a3" stroke-linejoin="bevel"/><path d="M80.5 77.89a2 2 0 0 0 2-2c0-1.105-.895-6.89-2-6.89s-2 5.787-2 6.89a2 2 0 0 0 2 2z" stroke="#979797" stroke-width=".5" fill="#333"/><circle fill="#d8d8d8" cx="80.5" cy="75.5" r="1"/><path d="M32.742 105.098V91.07c0-5.01 3.987-9.07 8.906-9.07h20.188c4.92 0 8.906 4.06 8.906 9.07v14.028C62.98 107.033 56.876 108 52.43 108s-11.01-.967-19.688-2.902z" stroke="#333" fill="#e6f2ff"/></svg>