<?xml version="1.0" encoding="UTF-8"?>
<svg width="22px" height="24px" viewBox="0 0 22 24" version="1.1" xmlns="http://www.w3.org/2000/svg" xmlns:xlink="http://www.w3.org/1999/xlink">
    <title>73BF33EC-B412-4F3D-BD2A-280AF91A6646@1.5x</title>
    <g id="Notification" stroke="none" stroke-width="1" fill="none" fill-rule="evenodd">
        <g id="Sunbird_notification" transform="translate(-1245.000000, -36.000000)" fill="#024F9D" fill-rule="nonzero">
            <g id="Languages-Copy" transform="translate(1236.000000, 28.000000)">
                <g id="noun_notification_1304328" transform="translate(9.000000, 8.000000)">
                    <path d="M14.8529507,20.4991544 C14.7465134,22.441652 13.1366177,23.9840107 11.1662447,23.9840107 C9.19587172,23.9840107 7.58597601,22.441652 7.47953876,20.4991544 L1.73139271,20.4991544 C1.05038352,20.4991544 0.499578059,19.9501093 0.499578059,19.2704228 L0.499578059,18.0392559 C0.499578059,16.6819445 1.6026197,15.5793574 2.96197268,15.5793574 C2.96037588,15.5793574 2.96111652,10.6592526 2.96111652,10.6592526 C2.96111652,7.19380602 5.12966889,4.15546825 8.29444985,2.97597782 L8.29444985,2.86793559 C8.29444985,1.28449567 9.58202196,0 11.1662447,0 C12.752167,0 14.0380396,1.28372269 14.0380396,2.86793559 L14.0380396,2.97604616 C17.2027425,4.15569362 19.3713729,7.19453591 19.3713729,10.6592526 L19.3713729,15.5786426 C20.7278416,15.5793574 21.8329114,16.6815167 21.8329114,18.0392559 L21.8329114,19.2704228 C21.8329114,19.9474169 21.2802967,20.4991544 20.6010967,20.4991544 L14.8529507,20.4991544 Z M19.5527844,18.2495772 L19.5527844,17.4876724 C19.5527844,17.0683239 19.2093236,16.7257677 18.7895762,16.7257677 C17.9470452,16.7257677 17.2655463,16.0450535 17.2655463,15.201294 L17.2655463,10.6302436 C17.2655463,7.89682029 15.449422,5.51956311 12.8609573,4.77335621 L12.3098638,4.61448604 L12.3098638,3.39062612 C12.3098638,2.760511 11.7980743,2.2495772 11.1662447,2.2495772 C10.5357493,2.2495772 10.0226257,2.76147484 10.0226257,3.39062612 L10.0226257,4.61447385 L9.47150247,4.7733284 C6.88292998,5.51945301 5.06694314,7.89615381 5.06694314,10.6302436 L5.06694314,15.201294 C5.06694314,16.0426372 4.38377726,16.7257677 3.54291328,16.7257677 C3.12204009,16.7257677 2.77970504,17.0679617 2.77970504,17.4876724 L2.77970504,18.2495772 L19.5527844,18.2495772 Z" id="Shape"></path>
                </g>
            </g>
        </g>
    </g>
</svg>