<?xml version="1.0" encoding="UTF-8"?>
<svg width="96px" height="102px" viewBox="0 0 96 102" version="1.1" xmlns="http://www.w3.org/2000/svg" xmlns:xlink="http://www.w3.org/1999/xlink">
    <title>32F6F195-81DE-4A18-AB7B-28B9C7616883</title>
    <g id="Page-1" stroke="none" stroke-width="1" fill="none" fill-rule="evenodd">
        <g id="My-group-default" transform="translate(-132.000000, -170.000000)" fill="#999999" fill-rule="nonzero">
            <g id="Group-2" transform="translate(8.000000, 130.000000)">
                <g id="noun_School_2000372" transform="translate(124.000000, 40.000000)">
                    <g id="Group">
                        <path d="M93.3254135,54.0421053 L80.2842105,54.0421053 L80.2842105,44.9157895 C80.2842105,44.0210526 79.9269173,43.3052632 79.2123308,42.7684211 L50.8075188,23.2631579 L50.8075188,16.2842105 L64.3846617,16.2842105 C65.8138346,16.2842105 66.8857143,15.2105263 66.8857143,13.7789474 L66.8857143,2.86315789 C66.8857143,1.43157895 65.8138346,0.357894737 64.3846617,0.357894737 L48.1278195,0.357894737 C46.6986466,0.357894737 45.6267669,1.43157895 45.6267669,2.86315789 L45.6267669,23.2631579 L17.4006015,42.9473684 C16.686015,43.4842105 16.3287218,44.2 16.3287218,45.0947368 L16.3287218,54.2210526 L2.93022556,54.2210526 C1.50105263,54.2210526 0.429172932,55.2947368 0.429172932,56.7263158 L0.429172932,99.3157895 C0.429172932,100.747368 1.50105263,101.821053 2.93022556,101.821053 L18.8297744,101.821053 L38.123609,101.821053 L58.3106767,101.821053 L77.6045113,101.821053 L93.1467669,101.821053 C94.5759398,101.821053 95.6478195,100.747368 95.6478195,99.3157895 L95.6478195,56.7263158 C95.8264662,55.2947368 94.7545865,54.0421053 93.3254135,54.0421053 Z M50.8075188,5.36842105 L61.883609,5.36842105 L61.883609,11.0947368 L50.8075188,11.0947368 L50.8075188,5.36842105 Z M5.60992481,59.2315789 L16.3287218,59.2315789 L16.3287218,96.6315789 L5.60992481,96.6315789 L5.60992481,59.2315789 Z M21.5094737,56.7263158 L21.5094737,46.3473684 L48.3064662,27.5578947 L75.1034586,46.3473684 L75.1034586,56.7263158 L75.1034586,96.6315789 L60.9903759,96.6315789 L60.9903759,78.7368421 C60.9903759,71.7578947 55.2736842,66.0315789 48.3064662,66.0315789 C41.3392481,66.0315789 35.6225564,71.7578947 35.6225564,78.7368421 L35.6225564,96.6315789 L21.5094737,96.6315789 L21.5094737,56.7263158 Z M40.8033083,96.6315789 L40.8033083,78.7368421 C40.8033083,74.6210526 44.197594,71.2210526 48.3064662,71.2210526 C52.4153383,71.2210526 55.8096241,74.6210526 55.8096241,78.7368421 L55.8096241,96.6315789 L40.8033083,96.6315789 Z M90.6457143,96.6315789 L80.2842105,96.6315789 L80.2842105,59.2315789 L90.6457143,59.2315789 L90.6457143,96.6315789 Z" id="Shape"></path>
                        <path d="M48.3064662,60.1263158 C54.0231579,60.1263158 58.8466165,55.4736842 58.8466165,49.5684211 C58.8466165,43.8421053 54.2018045,39.0105263 48.3064662,39.0105263 C42.5897744,39.0105263 37.7663158,43.6631579 37.7663158,49.5684211 C37.7663158,55.2947368 42.5897744,60.1263158 48.3064662,60.1263158 Z M48.3064662,44.2 C51.164812,44.2 53.6658647,46.5263158 53.6658647,49.5684211 C53.6658647,52.4315789 51.3434586,54.9368421 48.3064662,54.9368421 C45.4481203,54.9368421 42.9470677,52.6105263 42.9470677,49.5684211 C42.9470677,46.5263158 45.4481203,44.2 48.3064662,44.2 Z" id="Shape"></path>
                    </g>
                </g>
            </g>
        </g>
    </g>
</svg>