<?xml version="1.0" encoding="UTF-8"?>
<svg width="22px" height="17px" viewBox="0 0 22 17" version="1.1" xmlns="http://www.w3.org/2000/svg" xmlns:xlink="http://www.w3.org/1999/xlink">
    <title>C7830E85-3CBA-4D97-8F32-FA2FF74AFFB1@1.5x</title>
    <g id="Page-1" stroke="none" stroke-width="1" fill="none" fill-rule="evenodd">
        <g id="SUNBIRD-Desktop-Joyfull---ofline" transform="translate(-972.000000, -74.000000)" fill="#E55A28" fill-rule="nonzero">
            <g id="Group-19-Copy" transform="translate(972.000000, 71.000000)">
                <path d="M22,13.4399118 C22,10.9658214 20.1208333,8.96030871 17.7375,8.79162073 C17.1141667,5.5584344 14.3366667,3.13120176 11,3.13120176 C9.78083333,3.13120176 8.64416667,3.46857773 7.65416667,4.04024256 L9.02,5.43660419 C9.63416667,5.16482911 10.2941667,5.00551268 11,5.00551268 C13.7866667,5.00551268 16.0416667,7.3109151 16.0416667,10.1598677 L16.0416667,10.6284454 L17.4166667,10.6284454 C18.9383333,10.6284454 20.1666667,11.8842337 20.1666667,13.4399118 C20.1666667,14.3676957 19.7266667,15.1736494 19.0575,15.6890849 L20.35,17.0104741 C21.3491667,16.1482911 22,14.8831312 22,13.4399118 Z M4.0425,3 L2.75,4.3213892 L5.28916667,6.91730981 L4.90416667,6.91730981 C2.145,7.21719956 0,9.60694598 0,12.5027563 C0,15.6047409 2.46583333,18.1256891 5.5,18.1256891 L16.2525,18.1256891 L18.0858333,20 L19.3783333,18.6786108 L4.0425,3 Z M5.5,16.2513782 C3.47416667,16.2513782 1.83333333,14.5738699 1.83333333,12.5027563 C1.83333333,10.4316428 3.47416667,8.75413451 5.5,8.75413451 L7.08583333,8.75413451 L14.4191667,16.2513782 L5.5,16.2513782 Z" id="Shape-Copy-2"></path>
            </g>
        </g>
    </g>
</svg>