<?xml version="1.0" encoding="UTF-8"?>
<svg width="37px" height="28px" viewBox="0 0 37 28" version="1.1" xmlns="http://www.w3.org/2000/svg" xmlns:xlink="http://www.w3.org/1999/xlink">
    <!-- Generator: sketchtool 59.1 (101010) - https://sketch.com -->
    <title>5F7955A0-E6A8-485D-813B-CBA05877DFA5@1.5x</title>
    <desc>Created with sketchtool.</desc>
    <g id="Offline-Desktop" stroke="none" stroke-width="1" fill="none" fill-rule="evenodd" opacity="0.499762">
        <g id="Offline-Desktop---Library-offline" transform="translate(-1083.000000, -278.000000)" fill="#E55A28" fill-rule="nonzero">
            <g id="Group-19" transform="translate(1083.000000, 273.000000)">
                <path d="M37,22.1951488 C37,18.1201764 33.8395833,14.8169791 29.83125,14.53914 C28.7829167,9.21389195 24.1116667,5.21609702 18.5,5.21609702 C16.4495833,5.21609702 14.5379167,5.77177508 12.8729167,6.71334068 L15.17,9.01323043 C16.2029167,8.56560088 17.3129167,8.30319735 18.5,8.30319735 C23.1866667,8.30319735 26.9791667,12.1003308 26.9791667,16.7927233 L26.9791667,17.5644983 L29.2916667,17.5644983 C31.8508333,17.5644983 33.9166667,19.6328556 33.9166667,22.1951488 C33.9166667,23.7232635 33.1766667,25.0507166 32.05125,25.8996692 L34.225,28.076075 C35.9054167,26.6560088 37,24.5722161 37,22.1951488 Z M6.79875,5 L4.625,7.17640573 L8.89541667,11.4520397 L8.24791667,11.4520397 C3.6075,11.9459757 0,15.8820287 0,20.6515987 C0,25.7607497 4.14708333,29.9128997 9.25,29.9128997 L27.33375,29.9128997 L30.4170833,33 L32.5908333,30.8235943 L6.79875,5 Z M9.25,26.8257993 C5.84291667,26.8257993 3.08333333,24.0628445 3.08333333,20.6515987 C3.08333333,17.2403528 5.84291667,14.477398 9.25,14.477398 L11.9170833,14.477398 L24.2504167,26.8257993 L9.25,26.8257993 Z" id="Shape"></path>
            </g>
        </g>
    </g>
</svg>