<?xml version="1.0" encoding="UTF-8"?>
<svg width="9px" height="14px" viewBox="0 0 9 14" version="1.1" xmlns="http://www.w3.org/2000/svg" xmlns:xlink="http://www.w3.org/1999/xlink">
    <!-- Generator: sketchtool 53 (72520) - https://sketchapp.com -->
    <title>F99EAB63-8897-4E53-AE12-DDC5FD30FDFE</title>
    <desc>Created with sketchtool.</desc>
    <g id="Page-1" stroke="none" stroke-width="1" fill="none" fill-rule="evenodd">
        <g id="search" transform="translate(-267.000000, -479.000000)" fill="#024F9D">
            <g id="outline-location_on-24px" transform="translate(267.000000, 479.000000)">
                <path d="M4.5,0 C2.01214286,0 0,2.191 0,4.9 C0,8.575 4.5,14 4.5,14 C4.5,14 9,8.575 9,4.9 C9,2.191 6.98785714,0 4.5,0 Z M1.28571429,4.9 C1.28571429,2.968 2.72571429,1.4 4.5,1.4 C6.27428571,1.4 7.71428571,2.968 7.71428571,4.9 C7.71428571,6.916 5.86285714,9.933 4.5,11.816 C3.16285714,9.947 1.28571429,6.895 1.28571429,4.9 Z" id="Shape" fill-rule="nonzero"></path>
                <circle id="Oval" cx="4.5" cy="5.5" r="1.5"></circle>
            </g>
        </g>
    </g>
</svg>