<?xml version="1.0" encoding="UTF-8"?>
<svg width="16px" height="16px" viewBox="0 0 16 16" version="1.1" xmlns="http://www.w3.org/2000/svg" xmlns:xlink="http://www.w3.org/1999/xlink">
    <title>89F18183-2F51-4AF8-8C32-C1C37DB327F4</title>
    <g id="Page-1" stroke="none" stroke-width="1" fill="none" fill-rule="evenodd">
        <g id="Courses-search-suggesstions" transform="translate(-1246.000000, -245.000000)">
            <g id="Group-2" transform="translate(0.000000, 185.000000)">
                <g id="Group-7" transform="translate(1230.000000, 52.000000)">
                    <g id="outline-tune-24px" transform="translate(16.000000, 8.000000)">
                        <polygon id="Path" points="0 0 16 0 16 16 0 16"></polygon>
                        <path d="M2,11.3333333 L2,12.6666667 L6,12.6666667 L6,11.3333333 L2,11.3333333 Z M2,3.33333333 L2,4.66666667 L8.66666667,4.66666667 L8.66666667,3.33333333 L2,3.33333333 Z M8.66666667,14 L8.66666667,12.6666667 L14,12.6666667 L14,11.3333333 L8.66666667,11.3333333 L8.66666667,10 L7.33333333,10 L7.33333333,14 L8.66666667,14 Z M4.66666667,6 L4.66666667,7.33333333 L2,7.33333333 L2,8.66666667 L4.66666667,8.66666667 L4.66666667,10 L6,10 L6,6 L4.66666667,6 Z M14,8.66666667 L14,7.33333333 L7.33333333,7.33333333 L7.33333333,8.66666667 L14,8.66666667 Z M10,6 L11.3333333,6 L11.3333333,4.66666667 L14,4.66666667 L14,3.33333333 L11.3333333,3.33333333 L11.3333333,2 L10,2 L10,6 Z" id="Shape" fill="#024F9D" fill-rule="nonzero"></path>
                    </g>
                </g>
            </g>
        </g>
    </g>
</svg>