<svg xmlns="http://www.w3.org/2000/svg" width="22" height="20" xmlns:v="https://vecta.io/nano"><path d="M11 4a9.77 9.77 0 0 1 8.82 5.5c-.6 1.22-1.42 2.27-2.4 3.12l1.4 1.4c1.4-1.23 2.5-2.77 3.18-4.53C20.27 5.1 16 2 11 2a11.85 11.85 0 0 0-3.64.57L9 4.22c.65-.13 1.3-.22 2-.22zM9.93 5.14L12 7.2a2.5 2.5 0 0 1 1.28 1.28l2.07 2.07a4.68 4.68 0 0 0 .14-1.07C15.5 7 13.48 5 11 5c-.37 0-.72.05-1.07.14zM1 1.87L3.7 4.55C2.06 5.83.77 7.53 0 9.5 1.73 13.9 6 17 11 17a11.73 11.73 0 0 0 4.32-.82l3.42 3.42 1.4-1.4L2.42.45 1 1.87zm7.5 7.5l2.6 2.6A.5.5 0 0 1 11 12a2.5 2.5 0 0 1-2.5-2.5c0-.05.01-.08.01-.13h0zm-3.4-3.4l1.75 1.75A4.6 4.6 0 0 0 6.5 9.5 4.51 4.51 0 0 0 11 14c.63 0 1.23-.13 1.77-.36l.98.98c-.88.24-1.8.38-2.75.38a9.77 9.77 0 0 1-8.82-5.5c.7-1.43 1.72-2.6 2.93-3.53z" fill="#666" fill-rule="nonzero"/></svg>