<?xml version="1.0"?>
<svg xmlns="http://www.w3.org/2000/svg" xmlns:xlink="http://www.w3.org/1999/xlink" version="1.1" id="Capa_1" x="0px" y="0px" viewBox="0 0 512 512" style="enable-background:new 0 0 512 512;" xml:space="preserve" width="512px" height="512px"><g><g>
	<g>
		<g>
			<path d="M180,472H40V332c0-11.046-8.954-20-20-20s-20,8.954-20,20v160c0,11.046,8.954,20,20,20h160c11.046,0,20-8.954,20-20     C200,480.954,191.046,472,180,472z" data-original="#000000" class="active-path" data-old_color="#000000" fill="#024F9D"/>
			<path d="M180,0H20C8.954,0,0,8.954,0,20v160c0,11.046,8.954,20,20,20s20-8.954,20-20V40h140c11.046,0,20-8.954,20-20     S191.046,0,180,0z" data-original="#000000" class="active-path" data-old_color="#000000" fill="#024F9D"/>
			<path d="M492,312c-11.046,0-20,8.954-20,20v140H332c-11.046,0-20,8.954-20,20c0,11.046,8.954,20,20,20h160     c11.046,0,20-8.954,20-20V332C512,320.954,503.046,312,492,312z" data-original="#000000" class="active-path" data-old_color="#000000" fill="#024F9D"/>
			<path d="M492,0H332c-11.046,0-20,8.954-20,20s8.954,20,20,20h140v140c0,11.046,8.954,20,20,20c11.046,0,20-8.954,20-20V20     C512,8.954,503.046,0,492,0z" data-original="#000000" class="active-path" data-old_color="#000000" fill="#024F9D"/>
		</g>
	</g>
</g></g> </svg>
