<?xml version="1.0" encoding="UTF-8"?>
<svg width="24px" height="23px" viewBox="0 0 24 23" version="1.1" xmlns="http://www.w3.org/2000/svg" xmlns:xlink="http://www.w3.org/1999/xlink">
    <!-- Generator: sketchtool 58 (101010) - https://sketch.com -->
    <title>197B5025-6D61-4D85-A13B-6864F23F3D04</title>
    <desc>Created with sketchtool.</desc>
    <g id="Content-Print" stroke="none" stroke-width="1" fill="none" fill-rule="evenodd">
        <g id="Open-saved-PDF" transform="translate(-280.000000, -384.000000)" fill="#024F9D" fill-rule="nonzero" stroke="#024F9D" stroke-width="0.5">
            <g id="Group-5" transform="translate(-55.000000, 0.000000)">
                <g id="Group-4" transform="translate(319.214286, 383.000000)">
                    <g id="Group-3" transform="translate(16.000000, 0.000000)">
                        <path d="M4.66666663,2 C4.4106844,2 4.17780218,2.23820736 4.17777774,2.5 L4.17777774,7.5 L2.95555551,7.5 C1.88063556,7.5 1,8.40064619 1,9.5 L1,17 C1,18.0993529 1.88063556,19 2.95555551,19 L4.17777774,19 L4.17777774,22.5 C4.17780218,22.7618001 4.4106844,23 4.66666663,23 L19.3333333,23 C19.5893155,23 19.8221978,22.7618001 19.8222222,22.5 L19.8222222,19 L21.0444444,19 C22.1193644,19 23,18.0993529 23,17 L23,9.5 C23,8.40064619 22.1193644,7.5 21.0444444,7.5 L19.8222222,7.5 L19.8222222,2.5 C19.8221978,2.23820736 19.5893155,2 19.3333333,2 L4.66666663,2 Z M5.15555552,2.9999994 L18.8444444,2.9999994 L18.8444444,7.4999994 L5.15555552,7.4999994 L5.15555552,2.9999994 Z M2.95555551,8.49999613 L4.6284844,8.49999613 L19.3791667,8.49999613 L21.0444444,8.49999613 C21.5945422,8.49999613 22.0222222,8.93739587 22.0222222,9.49999613 L22.0222222,16.9999961 C22.0222222,17.5626032 21.5945422,17.9999961 21.0444444,17.9999961 L19.8222222,17.9999961 L19.8222222,14.4999961 C19.8221978,14.2382052 19.5893155,14.0000304 19.3333333,13.9999961 L4.66666663,13.9999961 C4.4106844,14.0000304 4.17780218,14.2382052 4.17777774,14.4999961 L4.17777774,17.9999961 L2.95555551,17.9999961 C2.40545773,17.9999961 1.97777778,17.5626032 1.97777778,16.9999961 L1.97777778,9.49999613 C1.97777778,8.93739587 2.40545773,8.49999613 2.95555551,8.49999613 Z M19.3333333,9.74999539 C18.5291111,9.74999539 17.8666667,10.427495 17.8666667,11.2499954 C17.8666667,12.0724815 18.5291111,12.7499811 19.3333333,12.7499811 C20.1375555,12.7499811 20.8,12.0724815 20.8,11.2499954 C20.8,10.427495 20.1375555,9.74999539 19.3333333,9.74999539 Z M5.15555552,15.0000048 L18.8444444,15.0000048 L18.8444444,22.0000048 L5.15555552,22.0000048 L5.15555552,15.0000048 Z" id="Shape"></path>
                    </g>
                </g>
            </g>
        </g>
    </g>
</svg>