<?xml version="1.0" encoding="UTF-8"?>
<svg width="40px" height="40px" viewBox="0 0 40 40" version="1.1" xmlns="http://www.w3.org/2000/svg" xmlns:xlink="http://www.w3.org/1999/xlink">
    <!-- Generator: sketchtool 59.1 (101010) - https://sketch.com -->
    <title>A666E2B9-5560-4ADC-B48A-6723E8FF7467</title>
    <desc>Created with sketchtool.</desc>
    <g id="Asset-Artboard-Page" stroke="none" stroke-width="1" fill="none" fill-rule="evenodd">
        <g id="Profile" fill-rule="nonzero">
            <circle id="Oval" stroke="#024F9D" fill="#FFFFFF" cx="20" cy="20" r="19.5"></circle>
            <path d="M26.2003125,25.2321875 C25.515,24.9878125 24.5321875,24.9028125 23.9053125,24.7646875 C23.5440625,24.685 23.018125,24.483125 22.8428125,24.2759375 C22.6675,24.0634375 22.77375,22.103125 22.77375,22.103125 C22.77375,22.103125 23.0978125,21.593125 23.273125,21.146875 C23.4484375,20.700625 23.6396875,19.47875 23.6396875,19.47875 C23.6396875,19.47875 24.0009375,19.47875 24.1284375,18.8465625 C24.2665625,18.1559375 24.4790625,17.8690625 24.4525,17.35375 C24.4259375,16.875625 24.17625,16.8490625 24.1496875,16.8490625 C24.1496875,16.8490625 24.41,16.1265625 24.4471875,14.5965625 C24.4896875,12.785 23.103125,11 20.5,11 C17.896875,11 16.515625,12.7796875 16.5528125,14.59125 C16.5846875,16.1159375 16.8503125,16.84375 16.8503125,16.84375 C16.82375,16.84375 16.5740625,16.8703125 16.5475,17.3484375 C16.5209375,17.86375 16.73875,18.14 16.8715625,18.830625 C16.9990625,19.4628125 17.3603125,19.468125 17.3603125,19.468125 C17.3603125,19.468125 17.5515625,20.6953125 17.726875,21.1415625 C17.9021875,21.593125 18.22625,22.0978125 18.22625,22.0978125 C18.22625,22.0978125 18.3325,24.058125 18.1571875,24.270625 C17.981875,24.483125 17.4559375,24.6796875 17.0946875,24.759375 C16.4625,24.8975 15.485,24.9878125 14.7996875,25.2321875 C14.114375,25.4765625 12,26.3 12,28 L29,28 C29,26.3 26.885625,25.4765625 26.2003125,25.2321875 Z" id="Mask" fill="#024F9D"></path>
        </g>
    </g>
</svg>