<?xml version="1.0" encoding="UTF-8"?>
<svg width="24px" height="20px" viewBox="0 0 24 20" version="1.1" xmlns="http://www.w3.org/2000/svg" xmlns:xlink="http://www.w3.org/1999/xlink">
    <!-- Generator: sketchtool 63.1 (101010) - https://sketch.com -->
    <title>EA1E459E-DE47-4A9F-9672-2DDA77914061</title>
    <desc>Created with sketchtool.</desc>
<g id="Profile" stroke="none" stroke-width="1" fill="none" fill-rule="evenodd">
        <g id="Linked-Profile---Add-User-LIUP-profile" transform="translate(-1064.000000, -256.000000)">
            <g id="Menu-Copy-4" transform="translate(1064.000000, 254.000000)">
                <g id="Profile">
                    <polygon id="Path" points="0 0 24 0 24 24 0 24"></polygon>
                    <path d="M12,2 C15.0124623,2 17.4545455,4.44208318 17.4545455,7.45454545 C17.4545455,10.4670077 15.0124623,12.9090909 12,12.9090909 C8.98753773,12.9090909 6.54545455,10.4670077 6.54545455,7.45454545 C6.54545455,4.44208318 8.98753773,2 12,2 Z M12,4 C10.0921072,4 8.54545455,5.54665268 8.54545455,7.45454545 C8.54545455,9.36243823 10.0921072,10.9090909 12,10.9090909 C13.9078928,10.9090909 15.4545455,9.36243823 15.4545455,7.45454545 C15.4545455,5.54665268 13.9078928,4 12,4 Z" id="Oval" fill="#024F9D" fill-rule="nonzero"></path>
                    <path d="M11.9987071,14.0635262 C17.1958966,14.0635262 21.6584448,17.2088996 23.586595,21.6998898 L0.430038959,21.6553616 C2.36850426,17.1881224 6.8187114,14.0635262 11.9987071,14.0635262 Z M11.9987071,16.0635262 C8.95163032,16.0635262 6.14281044,17.360176 4.17822995,19.5029179 L4.035,19.662 L19.987,19.692 L19.8933246,19.5846118 C17.9893633,17.4642354 15.2671058,16.1502305 12.2965674,16.0676625 L11.9987071,16.0635262 Z" id="Oval" fill="#024F9D" fill-rule="nonzero"></path>
                </g>
            </g>
        </g>
</g>
</svg>