<?xml version="1.0" encoding="UTF-8"?>
<svg width="14px" height="14px" viewBox="0 0 14 14" version="1.1" xmlns="http://www.w3.org/2000/svg" xmlns:xlink="http://www.w3.org/1999/xlink">
    <!-- Generator: Sketch 64 (93537) - https://sketch.com -->
    <title>@1.5xGroup 6 Copy</title>
    <desc>Created with Sketch.</desc>
    <g id="Final--new-grid---1232-breakpoint" stroke="none" stroke-width="1" fill="none" fill-rule="evenodd">
        <g id="5-View-All-results-template" transform="translate(-283.000000, -105.000000)" fill="#024F9D" fill-rule="nonzero">
            <g id="Group-16" transform="translate(267.000000, 96.000000)">
                <g id="Group-14" transform="translate(16.000000, 6.000000)">
                    <g id="Group-6-Copy" transform="translate(0.000000, 3.000000)">
                        <polygon id="Shape" points="13.6 13.6 6 13.6 6 7.6 -4.52970994e-14 7.6 -4.52970994e-14 6 7.6 6 7.6 12 13.6 12"></polygon>
                        <polygon id="Shape" points="13.7624 10.4376 12.1624 10.4376 12.1624 7.6 10.6 7.6 10.6 10.4376 9 10.4376 9 6 13.7624 6"></polygon>
                        <path d="M4.7626,4.7626 L9.76996262e-15,4.7626 L9.76996262e-15,9.76996262e-15 L4.7626,9.76996262e-15 L4.7626,4.7626 Z M1.6,3.1626 L3.1626,3.1626 L3.1626,1.6 L1.6,1.6 L1.6,3.1626 Z" id="Shape"></path>
                        <path d="M13.7624,4.7626 L9,4.7626 L9,9.76996262e-15 L13.7624,9.76996262e-15 L13.7624,4.7626 Z M10.6,3.1626 L12.1624,3.1626 L12.1624,1.6 L10.5998,1.6 L10.5998,3.1626 L10.6,3.1626 Z" id="Shape"></path>
                        <path d="M4.7626,13.7624 L9.76996262e-15,13.7624 L9.76996262e-15,9 L4.7626,9 L4.7626,13.7624 Z M1.6,12.1624 L3.1626,12.1624 L3.1626,10.5998 L1.6,10.5998 L1.6,12.1624 Z" id="Shape"></path>
                        <rect id="Rectangle-path" x="6" y="9.76996262e-15" width="1.6" height="4.7626"></rect>
                    </g>
                </g>
            </g>
        </g>
    </g>
</svg>