<?xml version="1.0" encoding="UTF-8"?>
<svg width="312px" height="186px" viewBox="0 0 312 186" version="1.1" xmlns="http://www.w3.org/2000/svg" xmlns:xlink="http://www.w3.org/1999/xlink">
    <title>undraw_login_re_4vu2</title>
    <g id="V1" stroke="none" stroke-width="1" fill="none" fill-rule="evenodd">
        <g id="01-Landing-page" transform="translate(-193, -2625)" fill-rule="nonzero">
            <g id="undraw_login_re_4vu2" transform="translate(193, 2625)">
                <path d="M238.884514,183.898134 C234.890624,180.512484 232.464671,175.164156 233.100878,169.957516 C233.737085,164.750876 237.677537,159.964386 242.78888,158.858724 C247.900223,157.753063 253.726806,160.813698 255.279289,165.822763 C256.133694,156.165482 257.118238,146.103573 262.236222,137.879497 C266.870429,130.432799 274.89696,125.104392 283.59591,124.151149 C292.29486,123.197906 301.453733,126.798209 306.878948,133.686246 C312.304163,140.574282 313.632507,150.58805 309.832826,158.496083 C307.033733,164.321653 301.876836,168.657118 296.473662,172.184239 C279.014113,183.485616 258.07366,188.081421 237.505193,185.126058 L238.884514,183.898134 Z" id="Path" fill="#F2F2F2"></path>
                <path d="M297.571013,127.198817 C290.443777,133.075219 283.905287,139.647526 278.050118,146.820672 C268.886804,158.008181 261.471755,170.551421 256.063296,184.013409 C255.667368,184.995484 257.242791,185.422995 257.634297,184.451826 C266.483488,162.573285 280.610417,143.28977 298.723032,128.364956 C299.536383,127.694529 298.377663,126.533918 297.571013,127.198817 L297.571013,127.198817 Z" id="Path" fill="#FFFFFF"></path>
                <path d="M99.9553519,183.099875 C105.415354,178.459303 108.731828,171.128571 107.862096,163.99205 C106.992364,156.85553 101.605394,150.29487 94.6177371,148.779398 C87.63008,147.263926 79.6646261,151.458997 77.5422437,158.324714 C76.3741955,145.087886 75.0282336,131.296444 68.031497,120.024049 C61.6961243,109.817183 50.723142,102.513744 38.8309086,101.207174 C26.9386752,99.9006029 14.4176841,104.83538 7.00093219,114.276542 C-0.415819696,123.717704 -2.23178034,137.44314 2.96271837,148.282348 C6.78932387,156.267216 13.8392811,162.209652 21.2258787,167.044134 C44.7916813,182.467798 74.0250365,188.900399 101.841008,184.782943" id="Path" fill="#F2F2F2"></path>
                <path d="M18.9606989,105.270797 C28.7399264,113.274866 37.7113403,122.226804 45.745175,131.997126 C53.7802788,141.757414 60.8543192,152.277854 66.867932,163.410671 C70.2292671,169.655677 73.2488352,176.080414 75.9131586,182.656206 C76.4563828,183.993861 74.2947898,184.576134 73.7575946,183.253359 C69.0384251,171.660265 63.1999229,160.559834 56.3258067,150.111235 C49.4850835,139.700499 41.6554985,129.981115 32.9470472,121.08963 C28.0215161,116.063025 22.824665,111.312366 17.3800257,106.859165 C16.2640306,105.945995 17.8539125,104.365158 18.9606918,105.270808 L18.9606989,105.270797 Z" id="Path" fill="#FFFFFF"></path>
                <path d="M223,186 L93,186 L93,51.7861272 C93,23.2311025 116.087384,0 144.465668,0 L171.534336,0 C199.91262,0 223,23.2311025 223,51.7861272 L223,186 Z" id="Path" fill="#F2F2F2"></path>
                <path d="M197,186 L93,186 L93,51.7851193 C92.9714687,40.843413 96.450517,30.178234 102.930779,21.3424104 C103.169658,21.0181516 103.407925,20.6980894 103.653659,20.3815286 C106.788113,16.2873677 110.518218,12.6817064 114.720859,9.68355257 C114.958248,9.51152816 115.196594,9.34249267 115.438475,9.17345001 C118.955106,6.74984694 122.759162,4.7685997 126.764058,3.27480456 C127.001886,3.1850329 127.244018,3.09508922 127.48615,3.0088154 C131.108206,1.72152632 134.862882,0.839737199 138.68083,0.379734034 C138.917518,0.347533214 139.160524,0.322335222 139.403538,0.297137229 C143.124143,-0.099045743 146.876559,-0.099045743 150.597164,0.297137229 C150.839472,0.322335222 151.082486,0.347533214 151.32198,0.380081667 C155.138947,0.840114978 158.892646,1.72179144 162.51376,3.00882973 C162.755982,3.09510356 162.998132,3.18504724 163.236644,3.2749945 C167.192133,4.74994613 170.951424,6.70162893 174.430623,9.08648809 C174.672316,9.25185731 174.914275,9.42089996 175.152629,9.58993904 C177.508316,11.2645774 179.721015,13.1302233 181.768136,15.1678306 C183.409784,16.8022124 184.939547,18.5443763 186.347133,20.3826002 C186.592076,20.6981109 186.830343,21.0181731 187.068786,21.3419087 C193.549294,30.1778233 197.0285,40.843195 197,51.7851193 L197,186 Z" id="Path" fill="#CCCCCC"></path>
                <circle id="Oval" fill="#6C63FF" cx="188" cy="120" r="6"></circle>
                <polygon id="Path" fill="#FFB8B8" points="212.999337 182 208.934125 182 207 165 213 165.000359"></polygon>
                <path d="M205.409093,181 L214,181 L214,186 L200,186 L200,186 C200,184.673918 200.569885,183.402148 201.584288,182.464466 C202.59869,181.526784 203.974515,181 205.409096,181 L205.409093,181 Z" id="Path" fill="#2F2E41"></path>
                <polygon id="Path" fill="#FFB8B8" points="234.999337 182 230.934125 182 229 165 235 165.000359"></polygon>
                <path d="M227.409093,181 L236,181 L236,186 L222,186 L222,186 C222,184.673918 222.569885,183.402148 223.584288,182.464466 C224.59869,181.526784 225.974515,181 227.409096,181 L227.409093,181 Z" id="Path" fill="#2F2E41"></path>
                <path d="M190.676202,121.266288 C190.025039,120.315047 189.832268,119.126689 190.149762,118.020975 C190.467255,116.915261 191.262399,116.005773 192.321237,115.537234 L207.520832,74 L215,78.0469475 L197.645333,117.741418 C198.336462,119.598025 197.517831,121.673743 195.739819,122.573031 C193.961807,123.47232 191.786418,122.910927 190.676202,121.266288 L190.676202,121.266288 Z" id="Path" fill="#FFB8B8"></path>
                <path d="M232.919469,129.473164 C231.886402,128.905135 231.168745,127.927443 230.959605,126.803165 C230.750465,125.678887 231.071325,124.523513 231.835849,123.647931 L227,80 L235.741382,80.3830016 L237.751145,123.316481 C239.232289,124.675547 239.419424,126.882248 238.186735,128.452985 C236.954047,130.023722 234.691169,130.462008 232.919469,129.473179 L232.919469,129.473164 Z" id="Path" fill="#FFB8B8"></path>
                <circle id="Oval" fill="#FFB8B8" cx="220" cy="58" r="9"></circle>
                <path d="M233.255093,119 L207,119 L207.031596,118.793735 C207.078776,118.485386 211.710831,87.8492068 208.294507,77.826486 C207.584533,75.7866681 208.512817,73.5346642 210.446533,72.6056999 L210.446622,72.6056999 C215.329719,70.2839921 224.703162,67.4251199 232.614587,74.3631503 C234.974935,76.4671419 236.217378,79.5696903 235.968668,82.7387469 L233.255093,119 Z" id="Path" fill="#6C63FF"></path>
                <path d="M210.582956,92 L199,89.6318485 L204.429391,76.6657777 C205.105907,74.0509792 207.754842,72.4813087 210.351114,73.1567623 C212.947387,73.832216 214.511352,76.4979267 213.847376,79.1159875 L210.582956,92 Z" id="Path" fill="#6C63FF"></path>
                <path d="M226.772582,97 L226.093079,80.5568439 C225.577804,77.4658007 227.254006,74.5437547 229.831879,74.0661269 C232.410497,73.5902456 234.928358,75.7340717 235.445952,78.8478317 L238,94.2123478 L226.772582,97 Z" id="Path" fill="#6C63FF"></path>
                <path d="M231.902732,117 C236.144156,133.127867 236.606871,153.6331 235.462601,176 L229.766811,175.289157 L219.443191,132.638554 L213.7474,176 L207.339636,175.644578 C205.425338,152.176184 203.561448,132.02891 206.627662,118.777108 L231.902732,117 Z" id="Path" fill="#2F2E41"></path>
                <path d="M224.912212,64.1227932 C223.315811,65.824056 220.351106,64.9107791 220.143093,62.5866169 C220.126779,62.4061742 220.127963,62.2245754 220.146626,62.0443609 C220.254026,61.0148557 220.848531,60.0801875 220.706123,58.9931799 C220.67389,58.7226429 220.573141,58.4648209 220.413422,58.2441459 C219.141304,56.5399064 216.155096,59.0064079 214.95451,57.4636123 C214.218325,56.5176124 215.083699,55.0281574 214.518774,53.9708334 C213.773162,52.5753336 211.564696,53.2637385 210.179753,52.4994932 C208.638836,51.6491808 208.731,49.283916 209.745338,47.8452397 C210.982365,46.0907165 213.151269,45.1545042 215.293151,45.0195755 C217.435033,44.8846467 219.562156,45.4639061 221.561793,46.243537 C223.833788,47.1293541 226.086794,48.3535665 227.484948,50.3522337 C229.185248,52.7828227 229.348878,56.050517 228.498524,58.8926334 C227.981244,60.6215233 226.215837,62.7335327 224.912212,64.1227932 Z" id="Path" fill="#2F2E41"></path>
                <path d="M300.575224,186 L36.4247763,186 C36.18998,185.999201 36,185.775578 36,185.5 C36,185.224422 36.18998,185.000799 36.4247763,185 L300.575224,185 C300.81002,185.000799 301,185.224422 301,185.5 C301,185.775578 300.81002,185.999201 300.575224,186 L300.575224,186 Z" id="Path" fill="#3F3D56"></path>
                <path d="M167.681818,147 L121.318182,147 C120.046835,147.006806 119.009829,145.983908 119,144.713322 L119,41.2866775 C119.009829,40.0160917 120.046835,38.9931943 121.318182,39 L167.681818,39 C168.953165,38.9931943 169.990171,40.0160917 170,41.2866775 L170,144.713322 C169.990171,145.983908 168.953165,147.006806 167.681818,147 Z" id="Path" fill="#FFFFFF"></path>
                <rect id="Rectangle" fill="#CCCCCC" x="119" y="72" width="51" height="1"></rect>
                <rect id="Rectangle" fill="#CCCCCC" x="120" y="112" width="51" height="1"></rect>
                <rect id="Rectangle" fill="#CCCCCC" x="136" y="38" width="1" height="109"></rect>
                <rect id="Rectangle" fill="#CCCCCC" x="153" y="38" width="1" height="109"></rect>
            </g>
        </g>
    </g>
</svg>