<?xml version="1.0" encoding="utf-8"?>
<!-- Generator: Adobe Illustrator 25.2.2, SVG Export Plug-In . SVG Version: 6.00 Build 0)  -->
<svg version="1.1" id="Layer_1" xmlns="http://www.w3.org/2000/svg" xmlns:xlink="http://www.w3.org/1999/xlink" x="0px" y="0px"
	 viewBox="0 0 18 18" style="enable-background:new 0 0 18 18;" xml:space="preserve">
<style type="text/css">
	.st0{fill:#2360A6;}
</style>
<rect x="0.4" y="3.56" class="st0" width="1.06" height="10.41"/>
<polygon class="st0" points="1.46,3.56 1.46,2.5 14.89,2.5 13.76,3.56 "/>
<polygon class="st0" points="15.25,13.97 14.18,13.97 14.18,7.11 15.25,6.15 "/>
<polygon class="st0" points="2.59,15.04 2.59,17.46 6.01,15.04 "/>
<rect x="3.56" y="5.62" class="st0" width="6.29" height="1.08"/>
<rect x="3.56" y="8.23" class="st0" width="5.33" height="1.08"/>
<rect x="3.56" y="10.75" class="st0" width="9.36" height="1.08"/>
<g>
	<rect x="1.46" y="13.97" class="st0" width="1.99" height="1.06"/>
	<polygon class="st0" points="5.17,13.97 3.66,15.04 14.18,15.04 14.18,13.97 	"/>
</g>
<polygon class="st0" points="16.2,1.97 10.05,7.39 10.06,7.41 10.05,7.41 10.05,8.89 11.52,8.83 17.67,3.41 "/>
</svg>
