<svg xmlns="http://www.w3.org/2000/svg" width="332" height="358" xmlns:v="https://vecta.io/nano"><path d="M118.918.565c35.42 5.01-10.162 51.55-10.162 51.55S185.34-2.236 230.55 15.542s-42.877 99.03-42.877 99.03 99.545-29.29 139.474 12.557-225.8 78.493-225.8 78.493 47.48 82.97 40.22 105.552c0 0-14.46 50.516-85.163-45.25 0 0 1.063 98.598-36.527 91.468s-9.8-113.52-9.8-113.52L2.568 83.58l.096-.104C5.787 80.095 84.2-4.346 118.918.565zm66.15 37.078L78.105 142.528l-.21.65c-5.478 17.505 5.14 26.323 31.41 26.323 25.778 0 66.9-8.395 123.36-25.183h0l3.477-1.038-.287-.958-1.74.52c-57.277 17.106-98.89 25.658-124.81 25.658h0l-.774-.003c-25.116-.166-34.867-8.468-29.68-25.032h0l.126-.395L185.767 38.357l-.7-.714z" fill="#f6a344" fill-rule="evenodd" fill-opacity=".5"/></svg>