<?xml version="1.0" encoding="UTF-8"?>
<svg width="332px" height="358px" viewBox="0 0 332 358" version="1.1" xmlns="http://www.w3.org/2000/svg" xmlns:xlink="http://www.w3.org/1999/xlink">
    <title>2232FB37-1E86-4D7A-98D5-F9E89D22DF9B</title>
    <g id="Illustration-&amp;-colour-palette-" stroke="none" stroke-width="1" fill="none" fill-rule="evenodd" fill-opacity="0.5">
        <g id="Textbooks" transform="translate(106.000000, -390.000000)" fill="#F6A344">
            <g id="Group-8" transform="translate(-106.000000, 390.000000)">
                <path d="M118.918045,0.564535521 C154.339379,5.57509002 108.755811,52.1143659 108.755811,52.1143659 C108.755811,52.1143659 185.339755,-2.23575328 230.549812,15.5417727 C275.757394,33.3168228 187.673287,114.572323 187.673287,114.572323 C187.673287,114.572323 287.217863,85.2828923 327.147644,127.129789 C367.077425,168.976685 101.348714,205.62258 101.348714,205.62258 C101.348714,205.62258 148.828363,288.592959 141.567958,311.1744 C141.567958,311.1744 127.106556,361.690251 56.4047156,265.925614 C56.4047156,265.925614 57.4676522,364.523693 19.8774293,357.393721 C-17.71032,350.261277 10.076548,243.873629 10.076548,243.873629 L2.56785415,83.5788451 L2.66395147,83.4746638 C5.78661141,80.0950646 84.2002875,-4.34581014 118.918045,0.564535521 Z M185.066826,37.6429976 L78.104636,142.528307 L77.8957176,143.177194 C72.4179048,160.682299 83.0348258,169.5 109.307095,169.5 C135.085318,169.5 176.196991,161.104755 232.667135,144.317206 L232.667135,144.317206 L236.143681,143.278911 L235.856319,142.321089 L234.115849,142.84208 C176.838582,159.948371 135.227065,168.5 109.307095,168.5 L109.307095,168.5 L108.533441,168.497459 C83.4175642,168.331435 73.6662583,160.0296 78.8533181,143.465566 L78.8533181,143.465566 L78.979,143.071 L185.766967,38.3570024 L185.066826,37.6429976 Z" id="Combined-Shape"></path>
            </g>
        </g>
    </g>
</svg>