<svg xmlns="http://www.w3.org/2000/svg" width="288" height="304" xmlns:v="https://vecta.io/nano"><path d="M184.14 114.166S177.053 3.758 221.545 10.12s66.312 79.788 66.312 79.788L183.013 303.773s-178.5-7.02-179.372-29.517 87.205-35.68 87.205-35.68S3.077 212.86.66 167.545s102.437-16.394 102.437-16.394l-.084-.14c-2.726-4.542-70.4-118.384-22.375-146.608 49.002-28.8 103.5 109.763 103.5 109.763zM99.572 66.643l-.7.714L205.66 172.07l.126.395c5.187 16.564-4.564 24.866-29.68 25.032l-.774.003c-25.92 0-67.53-8.552-124.81-25.658l-1.74-.52-.287.958 3.477 1.038c56.47 16.788 97.582 25.183 123.36 25.183 26.272 0 36.89-8.818 31.41-26.323l-.21-.65L99.572 66.643z" fill="#fff" fill-rule="evenodd"/></svg>