<svg xmlns="http://www.w3.org/2000/svg" width="16" height="16" xmlns:v="https://vecta.io/nano"><path d="M15.707 14.37l-4.38-4.382a6.2 6.2 0 0 0 1.2-3.694C12.51 2.828 9.707.02 6.24 0 4.582-.007 2.99.65 1.817 1.823S-.01 4.6 0 6.25c.015 3.467 2.82 6.275 6.286 6.295a6.18 6.18 0 0 0 3.705-1.213l.005-.003 4.377 4.38c.237.248.59.35.92.263s.59-.346.677-.678-.015-.685-.263-.92h0zM6.28 11.29a5.06 5.06 0 0 1-5.029-5.035 4.97 4.97 0 0 1 4.992-4.999 5.06 5.06 0 0 1 5.029 5.035 4.97 4.97 0 0 1-4.992 4.999z" fill="#999" fill-rule="evenodd"/></svg>