<?xml version="1.0" encoding="UTF-8"?>
<svg width="89px" height="68px" viewBox="0 0 89 68" version="1.1" xmlns="http://www.w3.org/2000/svg" xmlns:xlink="http://www.w3.org/1999/xlink">
    <!-- Generator: sketchtool 60.1 (101010) - https://sketch.com -->
    <title>308A74E4-67DE-455B-99B2-EB5ACB90EBA7@1.5x</title>
    <desc>Created with sketchtool.</desc>
    <g id="Offline-Desktop" stroke="none" stroke-width="1" fill="none" fill-rule="evenodd" opacity="0.529761905">
        <g id="DIKSHA-Desktop---Content-Detail-page-Internet-connection-lost" transform="translate(-387.000000, -385.000000)" fill="#FFFFFF" fill-rule="nonzero">
            <g id="Group-26" transform="translate(31.000000, 225.000000)">
                <g id="Group-19" transform="translate(245.000000, 160.000000)">
                    <path d="M200,41.7596472 C200,31.8632856 192.397917,23.8412348 182.75625,23.1664829 C180.234583,10.2337376 168.998333,0.524807056 155.5,0.524807056 C150.567917,0.524807056 145.969583,1.87431092 141.964583,4.16097023 L147.49,9.74641676 C149.974583,8.65931643 152.644583,8.02205072 155.5,8.02205072 C166.773333,8.02205072 175.895833,17.2436604 175.895833,28.6394708 L175.895833,30.5137817 L181.458333,30.5137817 C187.614167,30.5137817 192.583333,35.536935 192.583333,41.7596472 C192.583333,45.4707828 190.803333,48.6945976 188.09625,50.7563396 L193.325,56.0418964 C197.367083,52.5931643 200,47.5325248 200,41.7596472 Z M127.35375,0 L122.125,5.28555678 L132.397083,15.6692393 L130.839583,15.6692393 C119.6775,16.8687982 111,26.4277839 111,38.0110254 C111,50.4189636 120.975417,60.5027563 133.25,60.5027563 L176.74875,60.5027563 L184.165417,68 L189.394167,62.7144432 L127.35375,0 Z M133.25,53.0055127 C125.054583,53.0055127 118.416667,46.2954796 118.416667,38.0110254 C118.416667,29.7265711 125.054583,23.016538 133.25,23.016538 L139.665417,23.016538 L169.332083,53.0055127 L133.25,53.0055127 Z" id="Shape"></path>
                </g>
            </g>
        </g>
    </g>
</svg>