<?xml version="1.0" encoding="UTF-8"?>
<svg width="10px" height="16px" viewBox="0 0 10 16" version="1.1" xmlns="http://www.w3.org/2000/svg" xmlns:xlink="http://www.w3.org/1999/xlink">
    <title>sort</title>
    <g id="Activity-dashboard" stroke="none" stroke-width="1" fill="none" fill-rule="evenodd">
        <g id="Activity-Dashboard-7" transform="translate(-1109.000000, -301.000000)" fill="#333333">
            <g id="Group-22" transform="translate(60.000000, 246.000000)">
                <g id="Group-20-Copy" transform="translate(1049.000000, 53.000000)">
                    <g id="sort" transform="translate(0.000000, 2.500000)">
                        <path d="M2.17422064,9 L7.45735836,9 C8.00964311,9 8.45735836,9.44771525 8.45735836,10 C8.45735836,10.2387113 8.3719662,10.4695483 8.21661497,10.6507914 L5.5750461,13.7326217 C5.21562395,14.1519476 4.58432397,14.2005091 4.16499813,13.8410869 C4.12611932,13.8077623 4.08985759,13.7715005 4.0565329,13.7326217 L1.41496403,10.6507914 C1.05554188,10.2314655 1.10410342,9.60016555 1.52342926,9.2407434 C1.70467237,9.08539216 1.93550936,9 2.17422064,9 Z" id="Path-3"></path>
                        <path d="M2.17422064,0 L7.45735836,0 C8.00964311,7.86725357e-16 8.45735836,0.44771525 8.45735836,1 C8.45735836,1.23871127 8.3719662,1.46954826 8.21661497,1.65079137 L5.5750461,4.73262171 C5.21562395,5.15194756 4.58432397,5.20050909 4.16499813,4.84108694 C4.12611932,4.80776225 4.08985759,4.77150052 4.0565329,4.73262171 L1.41496403,1.65079137 C1.05554188,1.23146553 1.10410342,0.600165549 1.52342926,0.240743398 C1.70467237,0.085392161 1.93550936,-1.17739478e-15 2.17422064,0 Z" id="Path-3-Copy" transform="translate(4.815790, 2.809211) scale(1, -1) translate(-4.815790, -2.809211) "></path>
                    </g>
                </g>
            </g>
        </g>
    </g>
</svg>