<svg width="0" height="0" class="hidden">
 <symbol viewBox="0 0 14 14" xmlns="http://www.w3.org/2000/svg" id="arrow-round-right">
   <path d="M7 0C3.1 0 0 3.1 0 7s3.1 7 7 7 7-3.1 7-7-3.1-7-7-7zM5.9 10.1l-.7-.7L7.4 7 5.2 4.6l.7-.7 3 3.1-3 3.1z"></path>
  </symbol>
  <symbol viewBox="0 0 12 8" xmlns="http://www.w3.org/2000/svg" id="arrow-up">
    <polygon points="12,6.2 10.6,7.5 6,3.2 1.4,7.5 0,6.2 6,0.5 "/>
  </symbol>
  <symbol viewBox="0 0 12 14" xmlns="http://www.w3.org/2000/svg" id="doc">
  <path d="M7.5 0h-6C.7 0 0 .6 0 1.4v11.2c0 .8.7 1.4 1.5 1.4h9c.8 0 1.5-.6 1.5-1.4V4.2L7.5 0zM9 11.2H3V9.8h6v1.4zm0-2.8H3V7h6v1.4zM6.7 4.9V1l4.1 3.8H6.7v.1z"></path>
  </symbol>
  <symbol viewBox="0 0 12 8" xmlns="http://www.w3.org/2000/svg" id="arrow-down">
    <polygon class="st0" points="0,1.8 1.4,0.5 6,4.8 10.6,0.5 12,1.8 6,7.5 "/>
  </symbol>
  <symbol viewBox="0 0 14 14" xmlns="http://www.w3.org/2000/svg" id="play">
  <path d="M7 0C3.1 0 0 3.1 0 7s3.1 7 7 7 7-3.1 7-7-3.1-7-7-7zM5.6 10.1V3.8l4.2 3.1-4.2 3.2z" ></path>
  </symbol>
  <symbol viewBox="0 0 23 22" xmlns="http://www.w3.org/2000/svg" id="rating-star">
    <path d="M22.5 8.5l-7.9-.7L11.5.4 8.4 7.8l-8 .7 6 5.3-1.8 7.8 6.8-4.2 6.8 4.2-1.8-7.8 6.1-5.3zm-11 7l-4.1 2.6 1.1-4.9-3.6-3.3 4.8-.4 1.9-4.6 1.9 4.6 4.8.4-3.6 3.3 1.1 4.9-4.3-2.6z" fill="#024f9d"></path>
  </symbol>
  <symbol viewBox="0 0 12 12" xmlns="http://www.w3.org/2000/svg" id="arrow-long-right">
    <path d="M6 0L4.942 1.057 9.127 5.25H0v1.5h9.127l-4.185 4.192L6 12l6-6z"></path>
  </symbol>
   <symbol xmlns="http://www.w3.org/2000/svg" viewBox="0 0 12 12" id="arrow-long-left">
    <path d="M6 12l1.1-1.1-4.2-4.2H12V5.2H2.9l4.2-4.1L6 0 0 6z"></path>
  </symbol>
  <symbol viewBox="0 0 10 14" xmlns="http://www.w3.org/2000/svg" id="touch">
    <path d="M2.8 5.5V3c0-.9.7-1.7 1.7-1.7S6.2 2 6.2 3v2.5C7 5 7.5 4 7.5 3c0-1.7-1.3-3-3-3s-3 1.3-3 3c0 1 .5 2 1.3 2.5zm6.6 3.1l-3-1.5C6.3 7 6.1 7 6 7h-.5V3c0-.6-.4-1-1-1s-1 .4-1 1v7.2l-2.3-.5H1c-.2 0-.4.1-.5.2l-.5.5 3.3 3.3c.2.2.4.3.7.3h4.5c.5 0 .9-.4 1-.9l.5-3.5v-.1c0-.4-.3-.8-.6-.9z"></path>
  </symbol>
  <symbol xmlns="http://www.w3.org/2000/svg" viewBox="0 0 357 357" id="close-button">
        <path d="M357 35.7L321.3 0 178.5 142.8 35.7 0 0 35.7l142.8 142.8L0 321.3 35.7 357l142.8-142.8L321.3 357l35.7-35.7-142.8-142.8z"></path>
      </symbol>
      <symbol xmlns="http://www.w3.org/2000/svg" viewBox="0 0 512 512" id="close">
        <path d="M505.943 6.058c-8.077-8.077-21.172-8.077-29.249 0L6.058 476.693c-8.077 8.077-8.077 21.172 0 29.249A20.612 20.612 0 0 0 20.683 512a20.614 20.614 0 0 0 14.625-6.059L505.943 35.306c8.076-8.076 8.076-21.171 0-29.248z"></path>
        <path d="M505.942 476.694L35.306 6.059c-8.076-8.077-21.172-8.077-29.248 0-8.077 8.076-8.077 21.171 0 29.248l470.636 470.636a20.616 20.616 0 0 0 14.625 6.058 20.615 20.615 0 0 0 14.624-6.057c8.075-8.078 8.075-21.173-.001-29.25z"></path>
      </symbol>
  <symbol xmlns="http://www.w3.org/2000/svg" viewBox="0 0 16 16" id="search">
    <path fill="none" d="M0 0h16v16H0z"></path>
    <path d="M11.4 10.1h-.7l-.3-.2c.9-1 1.4-2.4 1.4-3.9C11.8 2.7 9.1.1 5.9.1 2.6.1 0 2.8 0 6c0 3.3 2.7 5.9 5.9 5.9 1.5 0 2.8-.5 3.9-1.4l.2.3v.7l4.6 4.6 1.4-1.4-4.6-4.6zM6 10c-2.2 0-4-1.8-4-4s1.8-4 4-4 4 1.8 4 4-1.8 4-4 4z"></path>
  </symbol>
<!--offline-->
 <symbol xmlns="http://www.w3.org/2000/svg" viewBox="0 0 31.427 31.427" id="minimise">
    <path d="M1.111 16.832A1.117 1.117 0 0 1 0 15.706c0-.619.492-1.111 1.111-1.111H30.3c.619 0 1.127.492 1.127 1.111s-.508 1.127-1.127 1.127H1.111z"></path>
  </symbol>
  <symbol xmlns="http://www.w3.org/2000/svg" viewBox="0 0 294.8 294.8" id="maximise">
    <path d="M287.9 0H7C3.1 0 0 3.1 0 7v280.9c0 3.9 3.1 7 7 7h280.9c3.9 0 7-3.1 7-7V7c-.1-3.9-3.2-7-7-7zm-7 280.9H14V14h266.9v266.9z"></path>
  </symbol>
  <symbol xmlns="http://www.w3.org/2000/svg" viewBox="0 0 294.834 294.834" id="restore-down">
    <path d="M288.834 0H47.413a6 6 0 0 0-6 6v17.398a6 6 0 0 0 12 0V12h229.421v229.421h-11.398a6 6 0 0 0 0 12h17.398a6 6 0 0 0 6-6V6a6 6 0 0 0-6-6z"></path>
    <path d="M247.421 41.413H6a6 6 0 0 0-6 6v241.421a6 6 0 0 0 6 6h241.421a6 6 0 0 0 6-6V47.413a6 6 0 0 0-6-6zm-6 241.421H12V53.413h229.421v229.421z"></path>
  </symbol>
  <symbol xmlns="http://www.w3.org/2000/svg" viewBox="0 0 493.746 493.746" id="wifi">
    <path d="M212.524 356.921c-18.966 18.968-18.966 49.737 0 68.706 18.976 18.965 49.74 18.965 68.715 0 18.965-18.969 18.965-49.738 0-68.706-18.975-18.969-49.739-18.969-68.715 0zm34.358-115.538c-40.027 0-77.683 15.591-105.971 43.907-11.113 11.108-11.113 29.112 0 40.213 11.104 11.108 29.1 11.108 40.213 0 17.546-17.571 40.907-27.244 65.758-27.244s48.213 9.673 65.759 27.244a28.401 28.401 0 0 0 20.111 8.33c7.294 0 14.55-2.776 20.102-8.33 11.113-11.101 11.113-29.104 0-40.213-28.289-28.316-65.945-43.907-105.972-43.907z"></path>
    <path d="M246.882 147.743c-65.053 0-126.209 25.335-172.199 71.331-11.104 11.108-11.104 29.114 0 40.213 11.112 11.108 29.118 11.108 40.212 0 35.248-35.258 82.129-54.672 131.986-54.672 49.837 0 96.718 19.414 131.967 54.672a28.362 28.362 0 0 0 20.102 8.332c7.294 0 14.56-2.777 20.111-8.332 11.104-11.099 11.104-29.105 0-40.213-45.99-45.996-107.126-71.331-172.179-71.331z"></path>
    <path d="M485.436 152.721c-63.711-63.733-148.425-98.825-238.554-98.825S72.039 88.988 8.328 152.721c-11.104 11.109-11.104 29.115 0 40.214a28.368 28.368 0 0 0 20.111 8.329c7.275 0 14.57-2.775 20.102-8.329 52.97-52.989 123.419-82.166 198.341-82.166 74.923 0 145.351 29.177 198.323 82.166 11.102 11.108 29.098 11.098 40.213.01 11.102-11.109 11.102-29.115.018-40.224z"></path>
  </symbol>
  <symbol xmlns="http://www.w3.org/2000/svg" viewBox="0 0 512 512" id="qr-code">
    <path d="M215 0H15C6.716 0 0 6.716 0 15v200c0 8.284 6.716 15 15 15h200c8.284 0 15-6.716 15-15V15c0-8.284-6.716-15-15-15zm-15 200H30V30h170v170z"></path>
    <path d="M145 70H85c-8.284 0-15 6.716-15 15v60c0 8.284 6.716 15 15 15h60c8.284 0 15-6.716 15-15V85c0-8.284-6.716-15-15-15zm-15 60h-30v-30h30v30zM497 0H297c-8.284 0-15 6.716-15 15v200c0 8.284 6.716 15 15 15h200c8.284 0 15-6.716 15-15V15c0-8.284-6.716-15-15-15zm-15 200H312V30h170v170z"></path>
    <path d="M427 70h-60c-8.284 0-15 6.716-15 15v60c0 8.284 6.716 15 15 15h60c8.284 0 15-6.716 15-15V85c0-8.284-6.716-15-15-15zm-15 60h-30v-30h30v30zM215 282H15c-8.284 0-15 6.716-15 15v200c0 8.284 6.716 15 15 15h200c8.284 0 15-6.716 15-15V297c0-8.284-6.716-15-15-15zm-15 200H30V312h170v170z"></path>
    <path d="M145 352H85c-8.284 0-15 6.716-15 15v60c0 8.284 6.716 15 15 15h60c8.284 0 15-6.716 15-15v-60c0-8.284-6.716-15-15-15zm-15 60h-30v-30h30v30zm367 10.637h-85V367c0-8.284-6.716-15-15-15s-15 6.716-15 15v70.637c0 8.284 6.716 15 15 15h85V482h-85c-8.284 0-15 6.716-15 15s6.716 15 15 15h100c8.284 0 15-6.716 15-15v-59.363c0-8.284-6.716-15-15-15zM497 282c-8.284 0-15 6.716-15 15v70c0 8.284 6.716 15 15 15s15-6.716 15-15v-70c0-8.284-6.716-15-15-15zm-130 0h-70c-8.284 0-15 6.716-15 15v70c0 8.284 6.716 15 15 15s15-6.716 15-15v-55h55c8.284 0 15-6.716 15-15s-6.716-15-15-15zm-70 140.637c-8.284 0-15 6.716-15 15V497c0 8.284 6.716 15 15 15s15-6.716 15-15v-59.363c0-8.284-6.716-15-15-15z"></path>
  </symbol>
  <symbol viewBox="0 0 24 23" xmlns="http://www.w3.org/2000/svg" id="print">
    <path d="M4.881 1a.514.514 0 0 0-.489.5v5H3.17c-1.075 0-1.956.9-1.956 2V16c0 1.1.88 2 1.956 2h1.222v3.5c0 .262.233.5.489.5h14.667a.514.514 0 0 0 .489-.5V18h1.222c1.075 0 1.955-.9 1.955-2V8.5c0-1.1-.88-2-1.955-2h-1.222v-5c0-.262-.233-.5-.49-.5H4.882zm.489 1h13.689v4.5H5.369V2zm-2.2 5.5h18.089c.55 0 .978.437.978 1V16c0 .563-.428 1-.978 1h-1.222v-3.5c0-.262-.233-.5-.49-.5H4.882a.514.514 0 0 0-.489.5V17H3.17c-.55 0-.978-.437-.978-1V8.5c0-.563.428-1 .978-1zm16.378 1.25c-.805 0-1.467.677-1.467 1.5 0 .822.662 1.5 1.467 1.5.804 0 1.466-.678 1.466-1.5 0-.823-.662-1.5-1.466-1.5zM5.37 14h13.689v7H5.369v-7z"
      stroke-width=".5"></path>
  </symbol>
    <symbol viewBox="0 0 37 28" xmlns="http://www.w3.org/2000/svg" id="cloud-error">
    <path d="M37 17.195c0-4.075-3.16-7.378-7.169-7.656C28.783 4.214 24.111.216 18.5.216c-2.05 0-3.962.556-5.627 1.497l2.297 2.3a8.31 8.31 0 0 1 3.33-.71c4.687 0 8.48 3.797 8.48 8.49v.771h2.312a4.622 4.622 0 0 1 4.625 4.631c0 1.528-.74 2.856-1.866 3.705l2.174 2.176c1.68-1.42 2.775-3.504 2.775-5.88zM6.799 0L4.625 2.176l4.27 4.276h-.647C3.608 6.946 0 10.882 0 15.652c0 5.109 4.147 9.26 9.25 9.26h18.084L30.417 28l2.174-2.176L6.799 0zM9.25 21.826a6.169 6.169 0 0 1-6.167-6.174A6.169 6.169 0 0 1 9.25 9.477h2.667L24.25 21.826h-15z"></path>
  </symbol>
  <symbol viewBox="0 0 12 12" xmlns="http://www.w3.org/2000/svg" id="filter">
      <path d="M0 9.333v1.334h4V9.333H0zm0-8v1.334h6.667V1.333H0zM6.667 12v-1.333H12V9.333H6.667V8H5.333v4h1.334zm-4-8v1.333H0v1.334h2.667V8H4V4H2.667zM12 6.667V5.333H5.333v1.334H12zM8 4h1.333V2.667H12V1.333H9.333V0H8v4z"></path>
  </symbol>
  <symbol viewBox="0 0 14 14" xmlns="http://www.w3.org/2000/svg" id="qr">
    <path d="M4.916 9v4.762H.12V9h4.797zm2.859-3v6h6.044v1.6H6.163v-6H.119V6h7.656zm-4.47 4.6H1.73v1.562h1.575V10.6zM13.983 6v4.438H12.37V7.6h-1.574v2.838H9.185V6h4.798zM4.916 0v4.763H.12V0h4.797zm9.067 0v4.763H9.185V0h4.798zM7.775 0v4.763H6.163V0h1.612zm-4.47 1.6H1.73v1.563h1.575V1.6zm9.066 0h-1.574v1.563h1.574V1.6z"></path>
  </symbol>
  <symbol viewBox="0 0 25 24" xmlns="http://www.w3.org/2000/svg" id="refresh">
      <path d="M12.133 6v3l4-4-4-4v3c-4.42 0-8 3.58-8 8 0 1.57.46 3.03 1.24 4.26l1.46-1.46a5.87 5.87 0 0 1-.7-2.8c0-3.31 2.69-6 6-6zm6.76 1.74l-1.46 1.46c.44.84.7 1.79.7 2.8 0 3.31-2.69 6-6 6v-3l-4 4 4 4v-3c4.42 0 8-3.58 8-8 0-1.57-.46-3.03-1.24-4.26z"
        ></path>
  </symbol>
  <symbol xmlns="http://www.w3.org/2000/svg" viewBox="0 0 357 357" id="fullscreen">
    <path d="M51 229.5H0V357h127.5v-51H51v-76.5zm-51-102h51V51h76.5V0H0v127.5zM306 306h-76.5v51H357V229.5h-51V306zM229.5 0v51H306v76.5h51V0H229.5z"></path>
  </symbol>
  <symbol viewBox="0 0 24 23" xmlns="http://www.w3.org/2000/svg" id="print">
    <path d="M4.667 1a.514.514 0 0 0-.49.5v5h-1.22C1.88 6.5 1 7.4 1 8.5V16c0 1.1.88 2 1.956 2h1.222v3.5c0 .262.233.5.489.5h14.666a.514.514 0 0 0 .49-.5V18h1.221C22.12 18 23 17.1 23 16V8.5c0-1.1-.88-2-1.956-2h-1.222v-5c0-.262-.233-.5-.489-.5H4.667zm.489 1h13.688v4.5H5.156V2zm-2.2 5.5h18.088c.55 0 .978.437.978 1V16c0 .563-.427 1-.978 1h-1.222v-3.5c0-.262-.233-.5-.489-.5H4.667a.514.514 0 0 0-.49.5V17h-1.22c-.55 0-.978-.437-.978-1V8.5c0-.563.427-1 .978-1zm16.377 1.25c-.804 0-1.466.677-1.466 1.5 0 .822.662 1.5 1.466 1.5.805 0 1.467-.678 1.467-1.5 0-.823-.662-1.5-1.467-1.5zM5.156 14h13.688v7H5.156v-7z"
      stroke-width=".5"></path>
  </symbol>
  <symbol viewBox="0 0 25 24" xmlns="http://www.w3.org/2000/svg" id="star">
      <path d="M23.9 9.084l-7.945-.692L12.85 1 9.745 8.403 1.8 9.084l6.033 5.282-1.812 7.85 6.829-4.165 6.829 4.165-1.801-7.85L23.9 9.084zM12.845 16.07l-4.097 2.6 1.09-4.901L6.22 10.47l4.772-.435 1.853-4.615 1.863 4.626 4.772.435-3.617 3.298 1.09 4.901-4.108-2.61z"
       ></path>
  </symbol>
  <symbol viewBox="0 0 25 24" xmlns="http://www.w3.org/2000/svg" id="delete">
      <path d="M16.717 8.75V20H8.05V8.75h8.667zM15.092 2H9.675L8.592 3.125H4.8v2.25h15.167v-2.25h-3.792L15.092 2zm3.791 4.5h-13V20c0 1.238.975 2.25 2.167 2.25h8.667c1.191 0 2.166-1.012 2.166-2.25V6.5z"></path>
  </symbol>
  <symbol viewBox="0 0 24 19" xmlns="http://www.w3.org/2000/svg" id="pendrive">
       <path d="M2.669 8.003A2.667 2.667 0 0 0 0 10.672v5.337a2.667 2.667 0 0 0 2.669 2.668h15.21c.28 0 .535-.254.535-.533v-1.068h4.536c.28 0 .534-.254.534-.533v-6.405a.555.555 0 0 0-.534-.534h-4.536V8.537a.555.555 0 0 0-.534-.534H2.669zm0 1.067h14.677v8.54H2.67c-.897 0-1.602-.667-1.602-1.601v-5.337c0-.934.705-1.602 1.602-1.602zm15.745 1.602h4.003v5.337h-4.003v-5.337zm-15.804.792a.553.553 0 0 0-.475.542v2.935c0 .53.203.981.534 1.251.33.27.72.35 1.067.35a.555.555 0 0 0 .541-.533.555.555 0 0 0-.54-.534c-.188 0-.332-.052-.401-.108-.07-.057-.134-.126-.134-.426v-2.935a.557.557 0 0 0-.592-.542zm17.355.275a.555.555 0 0 0-.51.559c.014.28.28.522.56.508h.8a.555.555 0 0 0 .542-.533.555.555 0 0 0-.542-.534h-.85zm0 2.135a.555.555 0 0 0-.51.559c.014.28.28.522.56.508h.8a.555.555 0 0 0 .542-.533.555.555 0 0 0-.542-.534h-.85z"
        ></path>
      <path d="M9.5 11a5.5 5.5 0 1 0 0-11 5.5 5.5 0 0 0 0 11z" ></path>
      <path d="M9.5 10a4.5 4.5 0 1 1 0-9 4.5 4.5 0 0 1 0 9z" fill="#FFF"></path>
      <path d="M10.406 3H8.594v2.143H7L9.5 8 12 5.143h-1.594z"></path>
  </symbol>
   <symbol xmlns="http://www.w3.org/2000/svg" viewBox="0 0 512 512" id="download">
    <path d="M416.127 192.537c-2.361-87.108-73.957-157.248-161.624-157.248-40.274 0-78.862 14.9-108.657 41.953-25.673 23.31-43.021 53.957-49.814 87.53-24.27 5.219-46.423 17.773-63.563 36.25C11.531 223.598 0 252.997 0 283.804c0 30.24 11.139 59.314 31.365 81.866 20.151 22.47 47.6 36.598 77.29 39.781l1.061.114h3.064v-38.574l.133-1.234-.133-.015v-.1h-.871c-41.111-4.917-71.986-39.922-71.986-81.84 0-42.365 33.031-78.196 75.199-81.571l16.568-1.326 1.697-16.533c6.385-62.233 58.455-109.162 121.117-109.162 67.14 0 121.762 54.622 121.762 121.762v34.932h28.943c36.872 0 66.869 29.997 66.869 66.869s-29.997 66.869-66.869 66.869h-4.99v39.922h4.99c58.885 0 106.791-47.906 106.791-106.791 0-55.2-42.095-100.752-95.873-106.236z"></path>
    <path d="M335.345 340.409l-59.883 59.883V201.963H235.54v198.329l-59.883-59.883-28.229 28.229 108.073 108.073 108.073-108.073z"></path>
  </symbol>
</svg>
