<svg id="Layer_1" data-name="Layer 1" xmlns="http://www.w3.org/2000/svg" viewBox="0 0 23.83 23.81">
    <defs>
        <style>.cls-1{stroke-width:0.31px;}</style>
    </defs>
    <g id="Group_593" data-name="Group 593">
        <g id="Analysis-report-document-develop-infromation">
            <path id="Path_20605" data-name="Path 20605" class="cls-1" d="M23.89,4.92,19.58.61A.39.39,0,0,0,19.3.49H9.51A1.19,1.19,0,0,0,8.33,1.67V4a8.21,8.21,0,0,0,0,16.41v2.38A1.18,1.18,0,0,0,9.51,24H22.83A1.18,1.18,0,0,0,24,22.83V5.2A.39.39,0,0,0,23.89,4.92Zm-4.2-3.09,3,3H20.08a.39.39,0,0,1-.39-.39ZM1.28,12.25A7.46,7.46,0,0,1,8.33,4.81v7.27L3.2,17.22a7.43,7.43,0,0,1-1.92-5Zm2.47,5.52,5.13-5.13h7.28A7.43,7.43,0,0,1,3.75,17.77Zm19.47,5.05a.41.41,0,0,1-.39.4H9.51a.4.4,0,0,1-.39-.4V20.45A8.23,8.23,0,0,0,17,12.25a.41.41,0,0,0-.39-.4H9.12V1.67a.38.38,0,0,1,.39-.39h9.4V4.41a1.17,1.17,0,0,0,1.17,1.18h3.14Z" transform="translate(-0.32 -0.34)" />
            <path id="Path_20606" data-name="Path 20606" class="cls-1" d="M10.29,2.45a.39.39,0,0,0-.39.39v7.84a.38.38,0,0,0,.39.39h7.83a.39.39,0,0,0,.4-.39A8.25,8.25,0,0,0,10.29,2.45Zm.39,7.84v-7a7.44,7.44,0,0,1,7,7Z" transform="translate(-0.32 -0.34)" />
            <path id="Path_20607" data-name="Path 20607" class="cls-1" d="M18.91,15.38a3.53,3.53,0,1,0,3.52,3.53,3.53,3.53,0,0,0-3.52-3.53Zm0,6.27a2.75,2.75,0,1,1,2.74-2.74h0A2.74,2.74,0,0,1,18.91,21.65Z" transform="translate(-0.32 -0.34)" />
            <path id="Path_20608" data-name="Path 20608" class="cls-1" d="M18.12,19.53l-.89-.9-.55.55,1.17,1.18a.39.39,0,0,0,.55,0L20.75,18l-.55-.55Z" transform="translate(-0.32 -0.34)" />
            <path id="Path_20609" data-name="Path 20609" class="cls-1" d="M19.3,7.15h3.14v.79H19.3Z" transform="translate(-0.32 -0.34)" />
            <path id="Path_20610" data-name="Path 20610" class="cls-1" d="M19.3,9.5h3.14v.79H19.3Z" transform="translate(-0.32 -0.34)" />
            <path id="Path_20611" data-name="Path 20611" class="cls-1" d="M19.3,11.85h3.14v.79H19.3Z" transform="translate(-0.32 -0.34)" />
        </g>
    </g>
</svg>