<?xml version="1.0" encoding="UTF-8"?>
<svg width="21px" height="26px" viewBox="0 0 21 26" version="1.1" xmlns="http://www.w3.org/2000/svg" xmlns:xlink="http://www.w3.org/1999/xlink">
    <title>हि</title>
    <g id="Page-1" stroke="none" stroke-width="1" fill="none" fill-rule="evenodd">
        <g id="Colors" transform="translate(-262.000000, -431.000000)" stroke="#5AA6B8" stroke-width="0.54">
            <path d="M278.451132,456 L279.755234,453.480892 C275.158809,453.101911 274.111252,451.987261 274.111252,450.716561 C274.111252,449.601911 275.137431,448.799363 276.762213,448.799363 C277.403575,448.799363 277.831149,449.089172 277.831149,449.579618 C277.831149,450.203822 277.403575,450.716561 276.911864,451.229299 L279.349039,452.72293 C279.904885,452.031847 280.460732,451.095541 280.460732,449.847134 C280.460732,448.063694 279.178009,446.39172 276.762213,446.39172 C276.035337,446.39172 275.372596,446.480892 274.773992,446.659236 C274.154009,446.347134 273.854707,445.878981 273.854707,445.455414 C273.854707,445.009554 274.089873,444.697452 274.880886,444.697452 L279.648341,444.697452 L279.648341,440.929936 L282,440.929936 L282,438.5 L269.279661,438.5 L269.279661,440.929936 L276.740835,440.929936 L276.740835,442.267516 L274.154009,442.267516 C272.165788,442.267516 270.947201,443.315287 270.947201,444.853503 C270.947201,445.990446 271.460291,446.971338 272.657499,447.707006 C271.738214,448.464968 271.203746,449.490446 271.203746,450.605096 C271.203746,453.993631 274.560205,455.598726 278.451132,456 Z M268.292047,453.5 L268.292047,441.004654 L269.268103,441.004654 L269.260819,438.581179 L268.292047,438.581179 L268.292047,437.047053 C268.292047,435.468459 269.324641,434.668046 271.067145,434.668046 C273.992829,434.668046 275.885919,436.068769 277.026076,437.513961 L278.940678,435.624095 C278.05867,434.423475 275.412647,432 271.110169,432 C267.668188,432 265.258801,433.778697 265.258801,437.069286 L265.258801,438.581179 L263,438.581179 L263,441.004654 L265.258801,441.004654 L265.258801,453.5 L268.292047,453.5 Z" id="हि"></path>
        </g>
    </g>
</svg>