<svg xmlns="http://www.w3.org/2000/svg" width="25" height="28" stroke="#31ac99" fill="none" stroke-linejoin="round" stroke-width=".54" xmlns:v="https://vecta.io/nano"><circle cx="15.033" cy="11.9" r="7.74"/><path d="M9.267 3.578C6.306 5.65 4.82 9.045 5.045 12.406c.117 1.75.7 3.49 1.778 5.033 3.153 4.502 9.358 5.597 13.86 2.444a9.96 9.96 0 0 0 1.992-1.843"/><path d="M13.773 21.8h2.34v2.16h-2.34z"/><path d="M7.653 26.84h14.76a2.88 2.88 0 0 0-2.88-2.88h-9a2.88 2.88 0 0 0-2.88 2.88h0zm5.22-22.5c-.948.577-.75 1.437.597 2.582 2.02 1.717.33 6.1-.65 6.133s-1.06-3.66-1.786-2.805-2.905 1.006-3.577.796m15.26.604c.207-.87-.618-1.024-2.475-.46-2.785.845-4.756 1.264-4.6 3.3.105 1.356.997 1.244 2.676-.338l.086 1.344-1.075 1.656.196 1.87"/><circle cx="9.903" cy="3.17" r="1"/><circle cx="23.223" cy="17.21" r="1"/></svg>