<?xml version="1.0" encoding="UTF-8"?>
<svg width="21px" height="27px" viewBox="0 0 21 27" version="1.1" xmlns="http://www.w3.org/2000/svg" xmlns:xlink="http://www.w3.org/1999/xlink">
    <title>Group 10</title>
    <g id="Page-1" stroke="none" stroke-width="1" fill="none" fill-rule="evenodd">
        <g id="Colors" transform="translate(-261.000000, -510.000000)" stroke="#C4A23B" stroke-width="0.54">
            <g id="Group-10" transform="translate(262.000000, 511.000000)">
                <circle id="Oval" cx="5.58" cy="13.14" r="1.08"></circle>
                <path d="M9.54,22.86 C13.4170389,22.86 16.56,19.7170389 16.56,15.84 C16.56,14.5517801 16.2130086,13.3446043 15.6073919,12.3068388 C12.830692,13.9956581 11.4543212,16.0934254 9.20064284,17.061058 C8.66862571,17.2894833 5.08336138,18.9181669 2.66622286,17.2722606 C3.32753104,20.4624354 6.15377491,22.86 9.54,22.86 Z" id="Oval"></path>
                <rect id="Rectangle" x="3.6" y="0" width="11.88" height="2.16" rx="1.08"></rect>
                <path d="M13.32,2.16 L13.3205222,7.07839653 C16.7088058,8.54237237 19.08,11.9142751 19.08,15.84 C19.08,21.1087965 14.8087965,25.38 9.54,25.38 C4.27120349,25.38 0,21.1087965 0,15.84 C0,11.9138918 2.37165727,8.54171393 5.76047028,7.07796777 L5.76,2.16 L13.32,2.16 Z" id="Combined-Shape"></path>
            </g>
        </g>
    </g>
</svg>