<svg xmlns="http://www.w3.org/2000/svg" width="21" height="27" stroke="#c4a23b" fill="none" stroke-width=".54" xmlns:v="https://vecta.io/nano"><circle cx="6.58" cy="14.14" r="1.08"/><path d="M10.54 23.86a7.02 7.02 0 0 0 7.02-7.02c0-1.288-.347-2.495-.953-3.533-2.777 1.69-4.153 3.787-6.407 4.754-.532.228-4.117 1.857-6.534.21.66 3.2 3.488 5.588 6.874 5.588z"/><rect x="4.6" y="1" width="11.88" height="2.16" rx="1.08"/><path d="M14.32 3.16v4.918c3.388 1.464 5.76 4.836 5.76 8.762a9.54 9.54 0 1 1-19.08 0c0-3.926 2.372-7.298 5.76-8.762V3.16h7.56z"/></svg>