<?xml version="1.0" encoding="UTF-8"?>
<svg width="27px" height="26px" viewBox="0 0 27 26" version="1.1" xmlns="http://www.w3.org/2000/svg" xmlns:xlink="http://www.w3.org/1999/xlink">
    <title>Group 8 Copy</title>
    <g id="Page-1" stroke="none" stroke-width="1" fill="none" fill-rule="evenodd">
        <g id="Colors" transform="translate(-256.000000, -107.000000)" stroke="#F17377" stroke-width="0.54">
            <g id="Group-8-Copy" transform="translate(257.000000, 108.000000)">
                <line x1="8.01" y1="4.23" x2="9.81" y2="4.23" id="Line" stroke-linecap="round"></line>
                <line x1="8.01" y1="7.65" x2="9.81" y2="7.65" id="Line-Copy-4" stroke-linecap="round"></line>
                <line x1="8.01" y1="5.94" x2="8.91" y2="5.94" id="Line-Copy-3" stroke-linecap="round"></line>
                <line x1="8.01" y1="9.36" x2="8.91" y2="9.36" id="Line-Copy-5" stroke-linecap="round"></line>
                <line x1="8.01" y1="11.07" x2="9.81" y2="11.07" id="Line-Copy-7" stroke-linecap="round"></line>
                <line x1="8.01" y1="12.78" x2="8.91" y2="12.78" id="Line-Copy-6" stroke-linecap="round"></line>
                <line x1="8.01" y1="14.49" x2="9.81" y2="14.49" id="Line-Copy-9" stroke-linecap="round"></line>
                <line x1="8.01" y1="16.2" x2="8.91" y2="16.2" id="Line-Copy-8" stroke-linecap="round"></line>
                <line x1="8.01" y1="17.91" x2="9.81" y2="17.91" id="Line-Copy-11" stroke-linecap="round"></line>
                <line x1="8.01" y1="19.62" x2="8.91" y2="19.62" id="Line-Copy-10" stroke-linecap="round"></line>
                <path d="M8.36987708,0.899324093 C8.76747117,0.60102244 9.33160614,0.681514868 9.62990779,1.07910896 L9.62990779,1.07910896 L24.6143173,21.0512166 C24.7312153,21.2070253 24.7944095,21.3965538 24.7944095,21.5913396 C24.7944095,22.0883958 24.3914658,22.4913396 23.8944095,22.4913396 L23.8944095,22.4913396 L8.91,22.4913396 C8.41294373,22.4913396 8.01,22.0883958 8.01,21.5913396 L8.01,21.5913396 L8.01,1.61923189 C8.01,1.33600439 8.1433241,1.06929928 8.36987708,0.899324093 Z M11.5423969,9.62566978 L11.5423969,18.2656698 L18.0223969,18.2656698 L11.5423969,9.62566978 Z" id="Combined-Shape"></path>
                <rect id="Rectangle" stroke-linejoin="round" x="0" y="3.42" width="5.58" height="15.12"></rect>
                <polygon id="Rectangle" stroke-linejoin="round" transform="translate(2.790000, 21.150000) scale(1, -1) translate(-2.790000, -21.150000) " points="2.79 18.54 5.58 23.76 0 23.76"></polygon>
                <path d="M0,0.18 L5.58,0.18 L5.58,0.63 C5.58,2.17087445 4.33087445,3.42 2.79,3.42 C1.24912555,3.42 1.88702697e-16,2.17087445 0,0.63 L0,0.18 L0,0.18 Z" id="Rectangle" stroke-linejoin="round" transform="translate(2.790000, 1.800000) scale(1, -1) translate(-2.790000, -1.800000) "></path>
                <line x1="0.0754054054" y1="5.31" x2="5.50459459" y2="5.31" id="Line-2" stroke-linecap="round" stroke-linejoin="round"></line>
                <line x1="1.62" y1="20.97" x2="4.14" y2="20.97" id="Line-2-Copy" stroke-linecap="round" stroke-linejoin="round"></line>
                <line x1="2.79" y1="5.29568182" x2="2.79" y2="18.4643182" id="Line-4" stroke-linecap="round" stroke-linejoin="round"></line>
            </g>
        </g>
    </g>
</svg>