<?xml version="1.0" encoding="UTF-8"?>
<svg width="18px" height="23px" viewBox="0 0 18 23" version="1.1" xmlns="http://www.w3.org/2000/svg" xmlns:xlink="http://www.w3.org/1999/xlink">
    <title>E</title>
    <g id="Page-1" stroke="none" stroke-width="1" fill="none" fill-rule="evenodd">
        <g id="Colors" transform="translate(-265.000000, -353.000000)" stroke="#84CB80" stroke-width="0.54">
            <path d="M282,374.64 L282,371.683529 C282,371.484707 281.838823,371.323529 281.64,371.323529 L272.238345,371.323529 C272.039523,371.323529 271.878345,371.162352 271.878345,370.963529 L271.878345,366.271765 C271.878345,366.072942 272.039523,365.911765 272.238345,365.911765 L280.93927,365.911765 C281.138093,365.911765 281.29927,365.750587 281.29927,365.551765 L281.29927,362.624706 C281.29927,362.425883 281.138093,362.264706 280.93927,362.264706 L272.238345,362.264706 C272.039523,362.264706 271.878345,362.103528 271.878345,361.904706 L271.878345,358.007059 C271.878345,357.808236 272.039523,357.647059 272.238345,357.647059 L281.64,357.647059 C281.838823,357.647059 282,357.485881 282,357.287059 L282,354.36 C282,354.161177 281.838823,354 281.64,354 L266.36,354 C266.161177,354 266,354.161177 266,354.36 L266,374.64 C266,374.838823 266.161177,375 266.36,375 L281.64,375 C281.838823,375 282,374.838823 282,374.64 Z" id="E"></path>
        </g>
    </g>
</svg>