<?xml version="1.0" encoding="UTF-8"?>
<svg width="25px" height="28px" viewBox="0 0 25 28" version="1.1" xmlns="http://www.w3.org/2000/svg" xmlns:xlink="http://www.w3.org/1999/xlink">
    <title>@0.5xGroup 15 Copy</title>
    <g id="Page-1" stroke="none" stroke-width="1" fill="none" fill-rule="evenodd" stroke-linejoin="round">
        <g id="Colors" transform="translate(-257.000000, -591.000000)" stroke="#31AC99" stroke-width="0.54">
            <g id="Group-15-Copy" transform="translate(257.000000, 592.000000)">
                <g id="Group-2" transform="translate(0.680000, 0.861357)">
                    <g id="Group">
                        <circle id="Oval" cx="14.3526261" cy="10.038643" r="7.74"></circle>
                        <path d="M7.68854872,21.9046503 C11.3031579,21.9046503 14.4677002,19.9776848 16.2109405,17.0949891 C17.1185401,15.594144 17.6408739,13.8342333 17.6408739,11.9523252 C17.6408739,6.45580775 13.1850661,2 7.68854872,2 C6.75692536,2 5.85519951,2.12800648 5,2.36739063" id="Oval" transform="translate(11.320437, 11.952325) rotate(145.000000) translate(-11.320437, -11.952325) "></path>
                        <rect id="Rectangle" x="13.0926261" y="19.938643" width="2.34" height="2.16"></rect>
                        <path d="M6.97262608,22.098643 L21.7326261,22.098643 C21.7326261,23.6892231 20.4432062,24.978643 18.8526261,24.978643 L9.85262608,24.978643 C8.262046,24.978643 6.97262608,23.6892231 6.97262608,22.098643 L6.97262608,22.098643 L6.97262608,22.098643 Z" id="Rectangle" transform="translate(14.352626, 23.538643) scale(1, -1) translate(-14.352626, -23.538643) "></path>
                        <path d="M12.1926261,2.478643 C11.2447038,3.05539047 11.4436917,3.91596368 12.78959,5.06036264 C14.8084374,6.77696107 13.1192097,11.1612242 12.139849,11.1932984 C11.1604883,11.2253725 11.0787432,7.5345567 10.3533984,8.38832064 C9.62805364,9.24208458 7.44806209,9.39451754 6.77603556,9.18400626" id="Path-3"></path>
                        <path d="M20.1006631,7.77884927 C19.7998787,6.9361597 19.024407,7.25652357 17.7742479,8.73994089 C15.8990092,10.9650669 14.4735595,12.3904352 15.714006,14.0109883 C16.5409703,15.091357 17.2277176,14.5109701 17.7742479,12.2698277 L18.5780868,13.3498277 L18.5780868,15.324436 L19.7603866,16.7860592" id="Path-4" transform="translate(17.674404, 12.053490) rotate(33.000000) translate(-17.674404, -12.053490) "></path>
                    </g>
                    <circle id="Oval" transform="translate(9.222626, 1.308643) scale(1, -1) translate(-9.222626, -1.308643) " cx="9.22262608" cy="1.308643" r="1"></circle>
                    <circle id="Oval-Copy-4" transform="translate(22.542626, 15.348643) scale(1, -1) translate(-22.542626, -15.348643) " cx="22.5426261" cy="15.348643" r="1"></circle>
                </g>
            </g>
        </g>
    </g>
</svg>