<?xml version="1.0" encoding="UTF-8"?>
<svg width="25px" height="27px" viewBox="0 0 25 27" version="1.1" xmlns="http://www.w3.org/2000/svg" xmlns:xlink="http://www.w3.org/1999/xlink">
    <title>C43F02D3-89E9-45D7-945A-F8788493C188@3x</title>
    <g id="Page-1" stroke="none" stroke-width="1" fill="none" fill-rule="evenodd" stroke-linejoin="round">
        <g id="01-Library---More-than-4-subjects" transform="translate(-195.000000, -360.000000)" stroke="#9B91DA" stroke-width="0.54">
            <g id="Group-7" transform="translate(8.000000, 321.000000)">
                <g id="Group-15-Copy" transform="translate(188.000000, 40.000000)">
                    <circle id="Oval" cx="14.0326261" cy="9.9" r="7.74"></circle>
                    <circle id="Oval" transform="translate(8.902626, 1.170000) scale(1, -1) translate(-8.902626, -1.170000) " cx="8.90262608" cy="1.17" r="1"></circle>
                    <circle id="Oval-Copy-4" transform="translate(22.222626, 15.210000) scale(1, -1) translate(-22.222626, -15.210000) " cx="22.2226261" cy="15.21" r="1"></circle>
                    <path d="M7.36854872,21.7660073 C10.9831579,21.7660073 14.1477002,19.8390418 15.8909405,16.9563461 C16.7985401,15.455501 17.3208739,13.6955904 17.3208739,11.8136822 C17.3208739,6.31716475 12.8650661,1.861357 7.36854872,1.861357 C6.43692536,1.861357 5.53519951,1.98936349 4.68,2.22874764" id="Oval" transform="translate(11.000437, 11.813682) rotate(145.000000) translate(-11.000437, -11.813682) "></path>
                    <rect id="Rectangle" x="12.7726261" y="19.8" width="2.34" height="2.16"></rect>
                    <path d="M6.65262608,21.96 L21.4126261,21.96 C21.4126261,23.5505801 20.1232062,24.84 18.5326261,24.84 L9.53262608,24.84 C7.942046,24.84 6.65262608,23.5505801 6.65262608,21.96 L6.65262608,21.96 L6.65262608,21.96 Z" id="Rectangle" transform="translate(14.032626, 23.400000) scale(1, -1) translate(-14.032626, -23.400000) "></path>
                    <path d="M11.8726261,2.34 C10.9247038,2.91674747 11.1236917,3.77732069 12.46959,4.92171964 C14.4884374,6.63831808 12.7992097,11.0225812 11.819849,11.0546554 C10.8404883,11.0867295 10.7587432,7.3959137 10.0333984,8.24967764 C9.30805364,9.10344158 7.12806209,9.25587455 6.45603556,9.04536326" id="Path-3"></path>
                    <path d="M19.7806631,7.64020627 C19.4798787,6.7975167 18.704407,7.11788057 17.4542479,8.60129789 C15.5790092,10.8264239 14.1535595,12.2517922 15.394006,13.8723453 C16.2209703,14.952714 16.9077176,14.3723271 17.4542479,12.1311848 L18.2580868,13.2111848 L18.2580868,15.185793 L19.4403866,16.6474162" id="Path-4" transform="translate(17.354404, 11.914847) rotate(33.000000) translate(-17.354404, -11.914847) "></path>
                </g>
            </g>
        </g>
    </g>
</svg>