<?xml version="1.0" encoding="UTF-8"?>
<svg width="512px" height="512px" viewBox="0 0 512 512" version="1.1" xmlns="http://www.w3.org/2000/svg" xmlns:xlink="http://www.w3.org/1999/xlink">
    <title>Telemetry</title>
    <defs>
        <filter id="filter-1">
            <feColorMatrix in="SourceGraphic" type="matrix" values="0 0 0 0 1.000000 0 0 0 0 1.000000 0 0 0 0 1.000000 0 0 0 1.000000 0"></feColorMatrix>
        </filter>
    </defs>
    <g id="Telemetry" stroke="none" stroke-width="1" fill="none" fill-rule="evenodd">
        <circle id="Oval" fill="#024F9D" cx="256.075" cy="256" r="255.925"></circle>
        <g filter="url(#filter-1)" id="noun_Data_3474630">
            <g transform="translate(86.075000, 86.000000)" id="Group" fill="#000000" fill-rule="nonzero">
                <path d="M260.666667,317.333333 L260.666667,328.666667 L249.333333,328.666667 C247.831032,328.655479 246.39054,328.067109 245.31,327.023333 L216.183333,297.896667 C220.059733,296.529401 223.861638,294.959461 227.573333,293.193333 L251.656667,317.333333 L260.666667,317.333333 Z" id="Path"></path>
                <path d="M84.0366667,64.6566667 C81.0705639,67.0351128 78.2332137,69.5698123 75.5366667,72.25 L54.3433333,51 L45.3333333,51 L45.3333333,39.6666667 L56.6666667,39.6666667 C58.1689684,39.6778543 59.6094597,40.266224 60.69,41.31 L84.0366667,64.6566667 Z" id="Path"></path>
                <path d="M283.333333,34 L283.333333,45.3333333 L274.323333,45.3333333 L255.453333,64.26 C252.494633,61.8168341 249.411631,59.5282256 246.216667,57.4033333 L267.976667,35.6433333 C269.057207,34.5995573 270.497698,34.0111876 272,34 L283.333333,34 Z" id="Path"></path>
                <circle id="Oval" cx="170" cy="170" r="17"></circle>
                <path d="M227.533667,293.187667 C273.501203,271.669701 303.68896,226.374961 305.858333,175.666667 L283.044333,175.666667 C280.008123,235.915002 230.324711,283.234909 170,283.333333 C141.899037,283.384831 114.801759,272.889691 94.0666667,253.923333 L77.9053333,270.084667 C115.209715,304.397859 168.500338,315.119321 216.172,297.902333 L211.276,293.006333 L219.288667,284.993667 L227.533667,293.187667 Z" id="Path"></path>
                <path d="M75.5763333,72.2556667 C22.4099968,123.477597 19.8932986,207.786989 69.9096667,262.089 L86.0766667,245.933333 C67.1103086,225.198241 56.6151691,198.100963 56.6666667,170 C56.7650911,109.675289 104.084998,59.9918769 164.333333,56.9556667 L164.333333,34.1416667 C134.963466,35.3372268 106.781343,46.0626648 84.048,64.6963333 L89.0063333,69.6603333 L80.9936667,77.673 L75.5763333,72.2556667 Z" id="Path"></path>
                <path d="M134.81,184.574667 C136.325792,188.18763 135.851311,192.32914 133.557667,195.505667 L129.313333,201.444333 L138.555667,210.686667 L144.5,206.442333 C147.683244,204.16987 151.813242,203.699318 155.426091,205.19747 C159.038939,206.695621 161.624007,209.950728 162.265,213.809 L163.466333,221 L176.533667,221 L177.735,213.797667 C178.375032,209.937452 180.961048,206.680445 184.575691,205.182028 C188.190335,203.683611 192.32224,204.155765 195.505667,206.431 L201.444333,210.675333 L210.686667,201.433 L206.442333,195.5 C204.16987,192.316756 203.699318,188.186758 205.19747,184.573909 C206.695621,180.961061 209.950728,178.375993 213.809,177.735 L221,176.533667 L221,163.466333 L213.797667,162.265 C209.937452,161.624968 206.680445,159.038952 205.182028,155.424309 C203.683611,151.809665 204.155765,147.67776 206.431,144.494333 L210.675333,138.555667 L201.444333,129.313333 L195.5,133.557667 C192.316756,135.83013 188.186758,136.300682 184.573909,134.80253 C180.961061,133.304379 178.375993,130.049272 177.735,126.191 L176.533667,119 L163.466333,119 L162.265,126.202333 C161.624968,130.062548 159.038952,133.319555 155.424309,134.817972 C151.809665,136.316389 147.67776,135.844235 144.494333,133.569 L138.555667,129.324667 L129.313333,138.555667 L133.557667,144.5 C135.83013,147.683244 136.300682,151.813242 134.80253,155.426091 C133.304379,159.038939 130.049272,161.624007 126.191,162.265 L119,163.466333 L119,176.533667 L126.202333,177.735 C130.063894,178.367067 133.32177,180.955782 134.81,184.574667 Z M170,141.666667 C185.648068,141.666667 198.333333,154.351932 198.333333,170 C198.333333,185.648068 185.648068,198.333333 170,198.333333 C154.351932,198.333333 141.666667,185.648068 141.666667,170 C141.685401,154.359699 154.359699,141.685401 170,141.666667 Z" id="Shape"></path>
                <path d="M68,170 C68,226.333044 113.666956,272 170,272 C226.333044,272 272,226.333044 272,170 C272,113.666956 226.333044,68 170,68 C142.875134,67.7602604 116.791508,78.4296559 97.610582,97.610582 C78.4296559,116.791508 67.7602604,142.875134 68,170 Z M107.666665,158.666665 C107.666665,155.898513 109.668121,153.536079 112.398333,153.079333 L124.332333,151.084667 L117.3,141.236 C115.69159,138.981773 115.948001,135.895255 117.906333,133.937333 L133.931667,117.912 C135.889588,115.953668 138.976106,115.697257 141.230333,117.305667 L151.079,124.338 L153.073667,112.398333 C153.530765,109.666007 155.89637,107.66471 158.666665,107.666665 L181.333333,107.666665 C184.101487,107.666665 186.463921,109.668121 186.920667,112.398333 L188.915333,124.332333 L198.764,117.305667 C201.018227,115.697257 204.104745,115.953668 206.062667,117.912 L222.088,133.937333 C224.046332,135.895255 224.302743,138.981773 222.694333,141.236 L215.662,151.084667 L227.601667,153.079333 C230.331879,153.536079 232.333333,155.898513 232.333333,158.666665 L232.333333,181.333333 C232.333333,184.101487 230.331879,186.463921 227.601667,186.920667 L215.667667,188.915333 L222.694333,198.764 C224.302743,201.018227 224.046332,204.104745 222.088,206.062667 L206.062667,222.088 C204.104745,224.046332 201.018227,224.302743 198.764,222.694333 L188.915333,215.662 L186.920667,227.601667 C186.463921,230.331879 184.101487,232.333333 181.333333,232.333333 L158.666665,232.333333 C155.898513,232.333333 153.536079,230.331879 153.079333,227.601667 L151.084667,215.667667 L141.236,222.7 C138.981773,224.30841 135.895255,224.051999 133.937333,222.093667 L117.912,206.068333 C115.953668,204.110412 115.697257,201.023894 117.305667,198.769667 L124.338,188.921 L112.398333,186.926333 C109.666007,186.469235 107.66471,184.10363 107.666665,181.333333 L107.666665,158.666665 Z" id="Shape"></path>
                <path d="M255.408,64.2713333 L247.673,72.0063333 L239.660333,63.9936667 L246.222333,57.4316667 C225.341425,43.2293134 200.899184,35.1610771 175.666667,34.1416667 L175.666667,56.9556667 C233.702203,59.9094742 280.090526,106.297797 283.044333,164.333333 L305.858333,164.333333 C304.229323,125.272148 285.84447,88.8080646 255.408,64.2713333 Z" id="Path"></path>
                <rect id="Rectangle" x="317.333333" y="22.6666667" width="22.6666667" height="11.3333333"></rect>
                <rect id="Rectangle" x="294.666667" y="22.6666667" width="11.3333333" height="11.3333333"></rect>
                <rect id="Rectangle" x="294.666667" y="45.3333333" width="45.3333333" height="11.3333333"></rect>
                <rect id="Rectangle" x="164.333333" y="0" width="11.3333333" height="11.3333333"></rect>
                <rect id="Rectangle" x="141.666667" y="0" width="11.3333333" height="11.3333333"></rect>
                <rect id="Rectangle" x="119" y="0" width="11.3333333" height="11.3333333"></rect>
                <rect id="Rectangle" x="96.3333333" y="0" width="11.3333333" height="11.3333333"></rect>
                <rect id="Rectangle" x="73.6666667" y="0" width="11.3333333" height="11.3333333"></rect>
                <rect id="Rectangle" x="187" y="0" width="11.3333333" height="11.3333333"></rect>
                <rect id="Rectangle" x="209.666667" y="0" width="11.3333333" height="11.3333333"></rect>
                <rect id="Rectangle" x="232.333333" y="0" width="11.3333333" height="11.3333333"></rect>
                <rect id="Rectangle" x="255" y="0" width="11.3333333" height="11.3333333"></rect>
                <rect id="Rectangle" x="272" y="328.666667" width="45.3333333" height="11.3333333"></rect>
                <rect id="Rectangle" x="272" y="306" width="11.3333333" height="11.3333333"></rect>
                <rect id="Rectangle" x="294.666667" y="306" width="22.6666667" height="11.3333333"></rect>
                <rect id="Rectangle" x="0" y="28.3333333" width="34" height="11.3333333"></rect>
                <rect id="Rectangle" x="0" y="51" width="34" height="11.3333333"></rect>
                <rect id="Rectangle" x="0" y="306" width="56.6666667" height="11.3333333"></rect>
                <rect id="Rectangle" x="0" y="328.666667" width="56.6666667" height="11.3333333"></rect>
            </g>
        </g>
    </g>
</svg>