<?xml version="1.0" encoding="utf-8"?>
<!-- Generator: Adobe Illustrator 24.2.3, SVG Export Plug-In . SVG Version: 6.00 Build 0)  -->
<svg version="1.1" id="Layer_1" xmlns="http://www.w3.org/2000/svg" xmlns:xlink="http://www.w3.org/1999/xlink" x="0px" y="0px"
	 viewBox="0 0 504 288" style="enable-background:new 0 0 504 288;" xml:space="preserve">
<style type="text/css">
	.st0{fill:url(#SVGID_1_);}
	.st1{opacity:0.39;fill:#8500E7;}
	.st2{opacity:0.38;fill:#B3B3B3;}
	.st3{fill:url(#SVGID_2_);}
	.st4{fill:url(#SVGID_3_);}
	.st5{fill:url(#SVGID_4_);}
	.st6{fill:url(#SVGID_5_);}
	.st7{fill:url(#SVGID_6_);}
	.st8{fill:url(#SVGID_7_);}
	.st9{fill:#636363;}
</style>
<g>
	<g>
		
			<linearGradient id="SVGID_1_" gradientUnits="userSpaceOnUse" x1="3095.2866" y1="-85.8384" x2="3182.594" y2="145.4688" gradientTransform="matrix(1 0 0 1 -2718.4094 0)">
			<stop  offset="0" style="stop-color:#009FFF"/>
			<stop  offset="1" style="stop-color:#8316BD"/>
		</linearGradient>
		<path class="st0" d="M555.59,5.6c-5.26-3.63-10.62-7.12-15.96-10.63c-36.91-24.26-21.22-57.57-45.42-66.87
			c-16.04-6.16-39.86,13.1-44.31-6.18c-9.87-42.81-46.64-36.31-66.39-14.29c-10.07,11.23-11.91,20.31-21.01,38.29
			c-13.94,27.52-43.52,4.49-77.6,8.36c-32.31,3.67-45.69,30.76-33.88,53.21c18.44,35.06,63.1,22.42,77.59,55.9
			c25.9,59.85,43.8,36.62,85.85,36.79c36.52,0.15,48.6,26.82,76.71,39.12c22.24,11.28,43.29,11.25,64.29,0.42
			C609.26,111.94,604.48,39.39,555.59,5.6z"/>
		<path class="st1" d="M346.11-172.49c26.84-16.63,54.89-18.86,85.69-6.16c38.74,13.45,57.62,47.72,106.29,44.1
			c56.03-4.17,77.46-36.99,118.21,40.04c22.8,43.09,80.97,21.58,109.21,66.36c18.07,28.67,3.07,66.15-39.58,74.42
			c-44.99,8.72-86.81-18.87-102.5,19.24c-10.25,24.91-11.75,37.19-24,53.2c-24.01,31.41-72.33,43.9-89.94-12.1
			c-7.94-25.22-37.65,2.94-59.67-3.6c-33.22-9.86-15.79-55.88-67.5-84.35c-7.48-4.12-14.99-8.21-22.37-12.5
			C291.28-33.73,277.33-129.88,346.11-172.49z"/>
		<g>
			<g>
				<path class="st2" d="M471.18,61.25c26.44,0,51.28-10.28,69.95-28.95c18.67-18.67,28.95-43.51,28.95-69.95
					s-10.28-51.28-28.95-69.95c-18.67-18.67-43.51-28.95-69.95-28.95s-51.28,10.28-69.95,28.95
					c-18.67,18.67-28.95,43.51-28.95,69.95s10.28,51.28,28.95,69.95C419.9,50.97,444.74,61.25,471.18,61.25z M471.18-136.04
					c54.26,0,98.4,44.14,98.4,98.4c0,54.26-44.14,98.4-98.4,98.4c-54.26,0-98.4-44.14-98.4-98.4
					C372.79-91.9,416.93-136.04,471.18-136.04z"/>
			</g>
			<g>
				<path class="st2" d="M471.18,48.92c47.73,0,86.57-38.83,86.57-86.56s-38.83-86.57-86.57-86.57c-47.73,0-86.56,38.83-86.56,86.57
					S423.45,48.92,471.18,48.92z M471.18-123.71c47.46,0,86.07,38.61,86.07,86.07c0,47.46-38.61,86.06-86.07,86.06
					c-47.46,0-86.06-38.61-86.06-86.06C385.12-85.1,423.73-123.71,471.18-123.71z"/>
			</g>
			<g>
				<path class="st2" d="M471.18,36.59c40.93,0,74.23-33.3,74.23-74.23c0-40.93-33.3-74.23-74.23-74.23
					c-40.93,0-74.23,33.3-74.23,74.23C396.95,3.29,430.25,36.59,471.18,36.59z M471.18-111.38c40.66,0,73.73,33.08,73.73,73.73
					s-33.08,73.73-73.73,73.73c-40.66,0-73.73-33.08-73.73-73.73S430.52-111.38,471.18-111.38z"/>
			</g>
			<g>
				<path class="st2" d="M471.18,24.26c34.13,0,61.9-27.77,61.9-61.9s-27.77-61.9-61.9-61.9s-61.9,27.77-61.9,61.9
					S437.05,24.26,471.18,24.26z M471.18-99.05c33.86,0,61.4,27.55,61.4,61.4c0,33.86-27.55,61.4-61.4,61.4
					c-33.86,0-61.4-27.55-61.4-61.4C409.78-71.5,437.32-99.05,471.18-99.05z"/>
			</g>
			<g>
				<path class="st2" d="M471.18,11.93c27.33,0,49.57-22.24,49.57-49.57c0-27.33-22.24-49.57-49.57-49.57
					c-27.33,0-49.57,22.24-49.57,49.57C421.61-10.31,443.85,11.93,471.18,11.93z M471.18-86.72c27.06,0,49.07,22.01,49.07,49.07
					c0,27.06-22.01,49.07-49.07,49.07s-49.07-22.01-49.07-49.07C422.11-64.7,444.12-86.72,471.18-86.72z"/>
			</g>
		</g>
	</g>
	<g>
		
			<linearGradient id="SVGID_2_" gradientUnits="userSpaceOnUse" x1="98.8358" y1="134.9126" x2="98.8358" y2="121.4344" gradientTransform="matrix(-1 0 0 1 504 0)">
			<stop  offset="0" style="stop-color:#8316BD"/>
			<stop  offset="1" style="stop-color:#009FFF"/>
		</linearGradient>
		<circle class="st3" cx="405.16" cy="128.66" r="8.08"/>
	</g>
	<g>
		
			<linearGradient id="SVGID_3_" gradientUnits="userSpaceOnUse" x1="211.872" y1="81.6136" x2="211.872" y2="53.6205" gradientTransform="matrix(-1 0 0 1 504 0)">
			<stop  offset="0" style="stop-color:#8316BD"/>
			<stop  offset="1" style="stop-color:#009FFF"/>
		</linearGradient>
		<circle class="st4" cx="292.13" cy="68.63" r="16.78"/>
	</g>
	<g>
		
			<linearGradient id="SVGID_4_" gradientUnits="userSpaceOnUse" x1="24.3075" y1="150.7009" x2="25.0146" y2="150.7009" gradientTransform="matrix(-1 0 0 1 504 0)">
			<stop  offset="0" style="stop-color:#000000"/>
			<stop  offset="0.109" style="stop-color:#060606"/>
			<stop  offset="0.252" style="stop-color:#161616"/>
			<stop  offset="0.4141" style="stop-color:#323232"/>
			<stop  offset="0.5902" style="stop-color:#575757"/>
			<stop  offset="0.7775" style="stop-color:#888888"/>
			<stop  offset="0.9716" style="stop-color:#C3C3C3"/>
			<stop  offset="1" style="stop-color:#CCCCCC"/>
		</linearGradient>
		<line class="st5" x1="478.99" y1="151.05" x2="479.69" y2="150.35"/>
		
			<linearGradient id="SVGID_5_" gradientUnits="userSpaceOnUse" x1="151.0165" y1="23.9921" x2="151.7235" y2="23.9921" gradientTransform="matrix(-1 0 0 1 504 0)">
			<stop  offset="0" style="stop-color:#000000"/>
			<stop  offset="0.109" style="stop-color:#060606"/>
			<stop  offset="0.252" style="stop-color:#161616"/>
			<stop  offset="0.4141" style="stop-color:#323232"/>
			<stop  offset="0.5902" style="stop-color:#575757"/>
			<stop  offset="0.7775" style="stop-color:#888888"/>
			<stop  offset="0.9716" style="stop-color:#C3C3C3"/>
			<stop  offset="1" style="stop-color:#CCCCCC"/>
		</linearGradient>
		<line class="st6" x1="352.98" y1="23.64" x2="352.28" y2="24.35"/>
	</g>
	<g>
		
			<linearGradient id="SVGID_6_" gradientUnits="userSpaceOnUse" x1="101.6933" y1="137.0944" x2="102.4003" y2="137.0944" gradientTransform="matrix(-1 0 0 1 504 0)">
			<stop  offset="0" style="stop-color:#000000"/>
			<stop  offset="0.109" style="stop-color:#060606"/>
			<stop  offset="0.252" style="stop-color:#161616"/>
			<stop  offset="0.4141" style="stop-color:#323232"/>
			<stop  offset="0.5902" style="stop-color:#575757"/>
			<stop  offset="0.7775" style="stop-color:#888888"/>
			<stop  offset="0.9716" style="stop-color:#C3C3C3"/>
			<stop  offset="1" style="stop-color:#CCCCCC"/>
		</linearGradient>
		<line class="st7" x1="401.6" y1="137.45" x2="402.31" y2="136.74"/>
		
			<linearGradient id="SVGID_7_" gradientUnits="userSpaceOnUse" x1="167.1737" y1="71.6142" x2="167.8808" y2="71.6142" gradientTransform="matrix(-1 0 0 1 504 0)">
			<stop  offset="0" style="stop-color:#000000"/>
			<stop  offset="0.109" style="stop-color:#060606"/>
			<stop  offset="0.252" style="stop-color:#161616"/>
			<stop  offset="0.4141" style="stop-color:#323232"/>
			<stop  offset="0.5902" style="stop-color:#575757"/>
			<stop  offset="0.7775" style="stop-color:#888888"/>
			<stop  offset="0.9716" style="stop-color:#C3C3C3"/>
			<stop  offset="1" style="stop-color:#CCCCCC"/>
		</linearGradient>
		<line class="st8" x1="336.83" y1="71.26" x2="336.12" y2="71.97"/>
	</g>
</g>
<rect x="37.02" y="-52.08" class="st9" width="39.75" height="32.58"/>
</svg>
