<?xml version="1.0" encoding="UTF-8"?>
<svg width="23px" height="24px" viewBox="0 0 23 24" version="1.1" xmlns="http://www.w3.org/2000/svg" xmlns:xlink="http://www.w3.org/1999/xlink">
    <title>8222D3CB-8C6A-4834-9608-3BC140A83A20</title>
    <g id="Final-layouts" stroke="none" stroke-width="1" fill="none" fill-rule="evenodd">
        <g id="Home-page-your-preferences" transform="translate(-211.000000, -734.000000)">
            <g id="Group-12" transform="translate(8.000000, 258.000000)">
                <g id="Group-2" transform="translate(8.000000, 431.000000)">
                    <g id="tv" transform="translate(196.000000, 46.000000)">
                        <path d="M18.9456522,18.5625 L2.34469565,18.5625 C1.428,18.5625 0.684782609,17.8163333 0.684782609,16.896 L0.684782609,6.479 C0.684782609,5.55866667 1.428,4.8125 2.34469565,4.8125 L18.9456522,4.8125 C19.8623478,4.8125 20.6055652,5.55866667 20.6055652,6.479 L20.6055652,16.896 C20.6055652,17.8163333 19.8623478,18.5625 18.9456522,18.5625 Z" id="Stroke-1" stroke="#E7800B" stroke-width="1.5" stroke-linecap="round" stroke-linejoin="round"></path>
                        <polygon id="Stroke-3" stroke="#E7800B" stroke-width="1.5" stroke-linecap="round" stroke-linejoin="round" points="3.42391304 15.8125 14.3804348 15.8125 14.3804348 7.5625 3.42391304 7.5625"></polygon>
                        <path d="M17.1195652,9.625 C17.0273478,9.625 16.946087,9.60666667 16.8547826,9.57 C16.7726087,9.53333333 16.6995652,9.4875 16.6356522,9.42333333 C16.5078261,9.295 16.4347826,9.12083333 16.4347826,8.9375 C16.4347826,8.84583333 16.4530435,8.75416667 16.4895652,8.67166667 C16.5169565,8.58916667 16.5708261,8.51583333 16.6356522,8.45166667 C16.6995652,8.3875 16.7726087,8.34166667 16.8547826,8.305 C17.0191304,8.23166667 17.2108696,8.23166667 17.3843478,8.305 C17.4665217,8.34166667 17.5395652,8.3875 17.6034783,8.45166667 C17.6673913,8.51583333 17.7121304,8.58916667 17.7486522,8.67166667 C17.7851739,8.75416667 17.8043478,8.84583333 17.8043478,8.9375 C17.8043478,9.12083333 17.7313043,9.295 17.6034783,9.42333333 C17.5395652,9.4875 17.4665217,9.53333333 17.3843478,9.57 C17.3021739,9.60666667 17.2108696,9.625 17.1195652,9.625" id="Fill-5" fill="#E7800B"></path>
                        <path d="M17.1195652,12.375 C17.0273478,12.375 16.946087,12.3566667 16.8547826,12.32 C16.7726087,12.2833333 16.6995652,12.2375 16.6356522,12.1733333 C16.5078261,12.045 16.4347826,11.8708333 16.4347826,11.6875 C16.4347826,11.5958333 16.4530435,11.5041667 16.4895652,11.4216667 C16.5169565,11.3391667 16.5708261,11.2658333 16.6356522,11.2016667 C16.6995652,11.1375 16.7726087,11.0916667 16.8547826,11.055 C17.0191304,10.9816667 17.2108696,10.9816667 17.3843478,11.055 C17.4665217,11.0916667 17.5395652,11.1375 17.6034783,11.2016667 C17.6673913,11.2658333 17.7121304,11.3391667 17.7486522,11.4216667 C17.7851739,11.5041667 17.8043478,11.5958333 17.8043478,11.6875 C17.8043478,11.8708333 17.7313043,12.045 17.6034783,12.1733333 C17.5395652,12.2375 17.4665217,12.2833333 17.3843478,12.32 C17.3021739,12.3566667 17.2108696,12.375 17.1195652,12.375" id="Fill-6" fill="#E7800B"></path>
                        <line x1="6.16304348" y1="18.5625" x2="4.79347826" y2="21.3125" id="Stroke-7" stroke="#E7800B" stroke-width="1.5" stroke-linecap="round" stroke-linejoin="round"></line>
                        <line x1="14.3804348" y1="18.5625" x2="15.75" y2="21.3125" id="Stroke-8" stroke="#E7800B" stroke-width="1.5" stroke-linecap="round" stroke-linejoin="round"></line>
                        <line x1="7.5326087" y1="0.6875" x2="8.90217391" y2="4.8125" id="Stroke-9" stroke="#E7800B" stroke-width="1.5" stroke-linecap="round" stroke-linejoin="round"></line>
                        <line x1="11.6413043" y1="4.8125" x2="13.0108696" y2="0.6875" id="Stroke-10" stroke="#E7800B" stroke-width="1.5" stroke-linecap="round" stroke-linejoin="round"></line>
                    </g>
                </g>
            </g>
        </g>
    </g>
</svg>