<?xml version="1.0" encoding="UTF-8"?>
<svg width="41px" height="37px" viewBox="0 0 41 37" version="1.1" xmlns="http://www.w3.org/2000/svg" xmlns:xlink="http://www.w3.org/1999/xlink">
    <!-- Generator: sketchtool 53.1 (72631) - https://sketchapp.com -->
    <title>E4E06C78-F795-4721-8CF4-D512EE4AD642@1.5x</title>
    <desc>Created with sketchtool.</desc>
    <g id="DIKSHA-Desktop" stroke="none" stroke-width="1" fill="none" fill-rule="evenodd">
        <g id="2-Desktop-DIKSHA-Landing-Page" transform="translate(-48.000000, -155.000000)">
            <g id="Group-23-Copy" transform="translate(67.956099, 173.568320) rotate(-38.703108) translate(-67.956099, -173.568320) translate(46.956099, 155.068320)">
                <path d="M31.0399989,14.5 L31.0399989,22.5 L41.9599989,22.5 L41.9599989,14.5 L31.0399989,14.5 Z M29.9999989,13.5 L42.9999989,13.5 L42.9999989,23.5 L29.9999989,23.5 L29.9999989,13.5 Z" id="Rectangle" stroke="#008840" stroke-width="0.5" fill="#008840" fill-rule="nonzero" transform="translate(36.499999, 18.500000) rotate(-270.000000) translate(-36.499999, -18.500000) "></path>
                <rect id="Rectangle" fill="#008840" transform="translate(36.999999, 16.000000) rotate(-270.000000) translate(-36.999999, -16.000000) " x="35.9999989" y="14.5" width="2" height="3"></rect>
                <rect id="Rectangle-Copy-6" fill="#008840" transform="translate(36.999999, 21.000000) rotate(-270.000000) translate(-36.999999, -21.000000) " x="35.9999989" y="19.5" width="2" height="3"></rect>
                <path d="M9.03030469,30.8168825 C9.03030469,31.5051554 9.49307965,32.1089937 10.1618401,32.2933334 C13.0320437,33.084487 15.2303829,33.4783768 16.741869,33.4783768 C18.2333871,33.4783768 20.2798139,33.0943202 22.8692724,32.3222329 C23.5224993,32.1274666 23.9696978,31.5310832 23.9696978,30.854707 L23.9696978,9.68118961 L25.0000006,9.68118961 L25.0000006,30.854707 C25.0000006,31.9820005 24.2546687,32.9759743 23.1659572,33.3005847 C20.4886296,34.0988716 18.3512267,34.5000018 16.741869,34.5000018 C15.118537,34.5000018 12.8382085,34.0914214 9.88589489,33.2776347 C8.77129372,32.9704019 8.00000187,31.9640043 8.00000187,30.8168825 L8.00000062,6.49999841 C8.00000052,4.29085941 9.79086144,2.49999833 12.0000004,2.49999824 C12.0000005,2.49999824 12.0000006,2.49999824 12.0000006,2.49999824 L21.0000006,2.49999841 C23.2091396,2.49999841 25.0000006,4.29085941 25.0000006,6.49999841 L25.0000006,10.1621893 L23.9696978,10.1621893 L23.9696978,6.52162678 C23.9696978,4.86477253 22.626552,3.52162678 20.9696978,3.52162678 L12.0303035,3.52162664 C10.3734492,3.52162664 9.03030348,4.86477239 9.03030348,6.52162664 C9.03030348,6.52162668 9.03030348,6.52162674 9.03030348,6.52162678 L9.03030469,30.8168825 Z" id="Path-6" stroke="#008840" stroke-width="0.5" fill="#008840" fill-rule="nonzero" transform="translate(16.500001, 18.500000) scale(1, -1) rotate(-270.000000) translate(-16.500001, -18.500000) "></path>
                <rect id="Rectangle-Copy-8" stroke="#008840" fill="#979797" transform="translate(24.452862, 32.388286) rotate(38.473378) translate(-24.452862, -32.388286) " x="18.9528621" y="32.3882857" width="11" height="1" rx="0.5"></rect>
                <rect id="Rectangle-Copy-20" stroke="#008840" fill="#979797" transform="translate(21.237934, 4.287321) rotate(38.473378) translate(-21.237934, -4.287321) " x="15.7379342" y="4.28732062" width="11" height="1" rx="0.5"></rect>
                <rect id="Rectangle-Copy-9" stroke="#008840" fill="#979797" transform="translate(19.294074, 30.843326) rotate(38.473378) translate(-19.294074, -30.843326) " x="15.7940736" y="30.8433257" width="7" height="1" rx="0.5"></rect>
                <rect id="Rectangle-Copy-21" stroke="#008840" fill="#979797" transform="translate(19.993632, 5.853115) rotate(38.473378) translate(-19.993632, -5.853115) " x="16.4936324" y="5.85311526" width="7" height="1" rx="0.5"></rect>
                <rect id="Rectangle" fill="#008840" fill-rule="nonzero" x="7" y="10" width="2" height="17"></rect>
            </g>
        </g>
    </g>
</svg>