<?xml version="1.0"?>
<svg xmlns="http://www.w3.org/2000/svg" xmlns:xlink="http://www.w3.org/1999/xlink" version="1.1" id="Capa_1" x="0px" y="0px" viewBox="0 0 512 512" style="enable-background:new 0 0 512 512;" xml:space="preserve" width="512px" height="512px" class=""><g><path style="fill:#E55A28" d="M256,512c-68.38,0-132.667-26.629-181.02-74.98C26.629,388.667,0,324.38,0,256  S26.629,123.333,74.98,74.98C123.333,26.629,187.62,0,256,0s132.667,26.629,181.02,74.98C485.371,123.333,512,187.62,512,256  s-26.629,132.667-74.98,181.02C388.667,485.371,324.38,512,256,512z" data-original="#0A4EAF" class="" data-old_color="#0A4EAF"/><path style="fill:#FB5252" d="M437.02,74.98C388.667,26.629,324.38,0,256,0v512c68.38,0,132.667-26.629,181.02-74.98  C485.371,388.667,512,324.38,512,256S485.371,123.333,437.02,74.98z" data-original="#063E8B" class="" data-old_color="#063E8B"/><path style="fill:#FFFFFF;" d="M256,185c-30.327,0-55-24.673-55-55s24.673-55,55-55s55,24.673,55,55S286.327,185,256,185z M301,395  V215H191v30h30v150h-30v30h140v-30H301z" data-original="#FFFFFF" class=""/><g>
	<path style="fill:#FFFFFF" d="M256,185c30.327,0,55-24.673,55-55s-24.673-55-55-55V185z" data-original="#CCEFFF" class="active-path" data-old_color="#CCEFFF"/>
	<polygon style="fill:#FFFFFF" points="301,395 301,215 256,215 256,425 331,425 331,395  " data-original="#CCEFFF" class="active-path" data-old_color="#CCEFFF"/>
</g></g> </svg>
