<?xml version="1.0" encoding="UTF-8"?>
<svg width="216px" height="216px" viewBox="0 0 216 216" version="1.1" xmlns="http://www.w3.org/2000/svg" xmlns:xlink="http://www.w3.org/1999/xlink">
    <title>42F0448C-FF2C-4400-8715-265BA39CABDC</title>
    <g id="Page-1" stroke="none" stroke-width="1" fill="none" fill-rule="evenodd">
        <g id="My-group-popup" transform="translate(-408.000000, -264.000000)">
            <g id="Popup" transform="translate(360.000000, 216.000000)">
                <g id="Group_looper" transform="translate(48.000000, 48.000000)">
                    <g id="Group_16" opacity="0.862994088" transform="translate(185.847577, 185.259732) rotate(1128.000000) translate(-185.847577, -185.259732) translate(163.948960, 165.351898)">
                        <ellipse id="Oval-Copy-17" fill="#003872" transform="translate(21.617076, 19.526657) scale(-1, 1) rotate(129.000000) translate(-21.617076, -19.526657) " cx="21.6170762" cy="19.526657" rx="5.70959192" ry="5.7066994"></ellipse>
                        <ellipse id="Oval-Copy-18" fill="#003872" transform="translate(38.126821, 19.526657) scale(-1, 1) rotate(129.000000) translate(-38.126821, -19.526657) " cx="38.1268212" cy="19.526657" rx="3.44954439" ry="3.56668783"></ellipse>
                        <ellipse id="Oval-Copy-20" fill="#003872" transform="translate(5.107331, 19.526657) scale(-1, 1) rotate(129.000000) translate(-5.107331, -19.526657) " cx="5.10733119" cy="19.526657" rx="3.44954439" ry="3.56668783"></ellipse>
                        <ellipse id="Oval-Copy-19" fill="#152B41" transform="translate(21.617076, 3.095690) scale(-1, 1) rotate(129.000000) translate(-21.617076, -3.095690) " cx="21.6170762" cy="3.09568952" rx="2.14109697" ry="2.14001227"></ellipse>
                        <ellipse id="Oval-Copy-21" fill="#152B41" transform="translate(21.617076, 36.195754) scale(-1, 1) rotate(129.000000) translate(-21.617076, -36.195754) " cx="21.6170762" cy="36.1957544" rx="2.14109697" ry="2.14001227"></ellipse>
                        <ellipse id="Oval-Copy-22" fill="#152B41" transform="translate(36.107644, 32.861935) scale(-1, 1) rotate(129.000000) translate(-36.107644, -32.861935) " cx="36.1076438" cy="32.8619349" rx="2.14109697" ry="2.14001227"></ellipse>
                        <ellipse id="Oval-Copy-23" fill="#152B41" transform="translate(9.739562, 6.429509) scale(-1, 1) rotate(129.000000) translate(-9.739562, -6.429509) " cx="9.73956181" cy="6.42950901" rx="2.14109697" ry="2.14001227"></ellipse>
                    </g>
                    <g id="Group_15" opacity="0.652512146" transform="translate(134.337395, 185.001420) rotate(1056.000000) translate(-134.337395, -185.001420) translate(112.438778, 165.093586)">
                        <ellipse id="Oval-Copy-17" fill="#068843" transform="translate(21.617076, 19.526657) scale(-1, 1) rotate(129.000000) translate(-21.617076, -19.526657) " cx="21.6170762" cy="19.526657" rx="5.70959192" ry="5.7066994"></ellipse>
                        <ellipse id="Oval-Copy-18" fill="#003872" transform="translate(38.126821, 19.526657) scale(-1, 1) rotate(129.000000) translate(-38.126821, -19.526657) " cx="38.1268212" cy="19.526657" rx="3.44954439" ry="3.56668783"></ellipse>
                        <ellipse id="Oval-Copy-20" fill="#003872" transform="translate(5.107331, 19.526657) scale(-1, 1) rotate(129.000000) translate(-5.107331, -19.526657) " cx="5.10733119" cy="19.526657" rx="3.44954439" ry="3.56668783"></ellipse>
                        <ellipse id="Oval-Copy-19" fill="#152B41" transform="translate(21.617076, 3.095690) scale(-1, 1) rotate(129.000000) translate(-21.617076, -3.095690) " cx="21.6170762" cy="3.09568952" rx="2.14109697" ry="2.14001227"></ellipse>
                        <ellipse id="Oval-Copy-21" fill="#152B41" transform="translate(21.617076, 36.195754) scale(-1, 1) rotate(129.000000) translate(-21.617076, -36.195754) " cx="21.6170762" cy="36.1957544" rx="2.14109697" ry="2.14001227"></ellipse>
                        <ellipse id="Oval-Copy-22" fill="#152B41" transform="translate(36.107644, 32.861935) scale(-1, 1) rotate(129.000000) translate(-36.107644, -32.861935) " cx="36.1076438" cy="32.8619349" rx="2.14109697" ry="2.14001227"></ellipse>
                        <ellipse id="Oval-Copy-23" fill="#152B41" transform="translate(9.739562, 6.429509) scale(-1, 1) rotate(129.000000) translate(-9.739562, -6.429509) " cx="9.73956181" cy="6.42950901" rx="2.14109697" ry="2.14001227"></ellipse>
                    </g>
                    <g id="Group_14" opacity="0.554989944" transform="translate(82.324150, 184.569781) rotate(984.000000) translate(-82.324150, -184.569781) translate(60.425532, 164.661947)">
                        <ellipse id="Oval-Copy-17" fill="#E66938" transform="translate(21.617076, 19.526657) scale(-1, 1) rotate(129.000000) translate(-21.617076, -19.526657) " cx="21.6170762" cy="19.526657" rx="5.70959192" ry="5.7066994"></ellipse>
                        <ellipse id="Oval-Copy-18" fill="#003872" transform="translate(38.126821, 19.526657) scale(-1, 1) rotate(129.000000) translate(-38.126821, -19.526657) " cx="38.1268212" cy="19.526657" rx="3.44954439" ry="3.56668783"></ellipse>
                        <ellipse id="Oval-Copy-20" fill="#003872" transform="translate(5.107331, 19.526657) scale(-1, 1) rotate(129.000000) translate(-5.107331, -19.526657) " cx="5.10733119" cy="19.526657" rx="3.44954439" ry="3.56668783"></ellipse>
                        <ellipse id="Oval-Copy-19" fill="#152B41" transform="translate(21.617076, 3.095690) scale(-1, 1) rotate(129.000000) translate(-21.617076, -3.095690) " cx="21.6170762" cy="3.09568952" rx="2.14109697" ry="2.14001227"></ellipse>
                        <ellipse id="Oval-Copy-21" fill="#152B41" transform="translate(21.617076, 36.195754) scale(-1, 1) rotate(129.000000) translate(-21.617076, -36.195754) " cx="21.6170762" cy="36.1957544" rx="2.14109697" ry="2.14001227"></ellipse>
                        <ellipse id="Oval-Copy-22" fill="#152B41" transform="translate(36.107644, 32.861935) scale(-1, 1) rotate(129.000000) translate(-36.107644, -32.861935) " cx="36.1076438" cy="32.8619349" rx="2.14109697" ry="2.14001227"></ellipse>
                        <ellipse id="Oval-Copy-23" fill="#152B41" transform="translate(9.739562, 6.429509) scale(-1, 1) rotate(129.000000) translate(-9.739562, -6.429509) " cx="9.73956181" cy="6.42950901" rx="2.14109697" ry="2.14001227"></ellipse>
                    </g>
                    <g id="Group_13" opacity="0.256912196" transform="translate(29.990623, 184.561326) rotate(912.000000) translate(-29.990623, -184.561326) translate(8.092006, 164.653492)">
                        <ellipse id="Oval-Copy-17" fill="#003872" transform="translate(21.617076, 19.526657) scale(-1, 1) rotate(129.000000) translate(-21.617076, -19.526657) " cx="21.6170762" cy="19.526657" rx="5.70959192" ry="5.7066994"></ellipse>
                        <ellipse id="Oval-Copy-18" fill="#003872" transform="translate(38.126821, 19.526657) scale(-1, 1) rotate(129.000000) translate(-38.126821, -19.526657) " cx="38.1268212" cy="19.526657" rx="3.44954439" ry="3.56668783"></ellipse>
                        <ellipse id="Oval-Copy-20" fill="#003872" transform="translate(5.107331, 19.526657) scale(-1, 1) rotate(129.000000) translate(-5.107331, -19.526657) " cx="5.10733119" cy="19.526657" rx="3.44954439" ry="3.56668783"></ellipse>
                        <ellipse id="Oval-Copy-19" fill="#152B41" transform="translate(21.617076, 3.095690) scale(-1, 1) rotate(129.000000) translate(-21.617076, -3.095690) " cx="21.6170762" cy="3.09568952" rx="2.14109697" ry="2.14001227"></ellipse>
                        <ellipse id="Oval-Copy-21" fill="#152B41" transform="translate(21.617076, 36.195754) scale(-1, 1) rotate(129.000000) translate(-21.617076, -36.195754) " cx="21.6170762" cy="36.1957544" rx="2.14109697" ry="2.14001227"></ellipse>
                        <ellipse id="Oval-Copy-22" fill="#152B41" transform="translate(36.107644, 32.861935) scale(-1, 1) rotate(129.000000) translate(-36.107644, -32.861935) " cx="36.1076438" cy="32.8619349" rx="2.14109697" ry="2.14001227"></ellipse>
                        <ellipse id="Oval-Copy-23" fill="#152B41" transform="translate(9.739562, 6.429509) scale(-1, 1) rotate(129.000000) translate(-9.739562, -6.429509) " cx="9.73956181" cy="6.42950901" rx="2.14109697" ry="2.14001227"></ellipse>
                    </g>
                    <g id="Group_12" opacity="0.681400668" transform="translate(185.486147, 133.174846) rotate(840.000000) translate(-185.486147, -133.174846) translate(163.587529, 113.267012)">
                        <ellipse id="Oval-Copy-17" fill="#003872" transform="translate(21.617076, 19.526657) scale(-1, 1) rotate(129.000000) translate(-21.617076, -19.526657) " cx="21.6170762" cy="19.526657" rx="5.7096017" ry="5.70670918"></ellipse>
                        <ellipse id="Oval-Copy-18" fill="#003872" transform="translate(38.126821, 19.526657) scale(-1, 1) rotate(129.000000) translate(-38.126821, -19.526657) " cx="38.1268212" cy="19.526657" rx="3.4495507" ry="3.56669355"></ellipse>
                        <ellipse id="Oval-Copy-20" fill="#003872" transform="translate(5.107331, 19.526657) scale(-1, 1) rotate(129.000000) translate(-5.107331, -19.526657) " cx="5.10733119" cy="19.526657" rx="3.4495507" ry="3.56669355"></ellipse>
                        <ellipse id="Oval-Copy-19" fill="#152B41" transform="translate(21.617076, 3.095690) scale(-1, 1) rotate(129.000000) translate(-21.617076, -3.095690) " cx="21.6170762" cy="3.09568952" rx="2.14110064" ry="2.14001594"></ellipse>
                        <ellipse id="Oval-Copy-21" fill="#152B41" transform="translate(21.617076, 36.195754) scale(-1, 1) rotate(129.000000) translate(-21.617076, -36.195754) " cx="21.6170762" cy="36.1957544" rx="2.14110064" ry="2.14001594"></ellipse>
                        <ellipse id="Oval-Copy-22" fill="#152B41" transform="translate(36.107644, 32.861935) scale(-1, 1) rotate(129.000000) translate(-36.107644, -32.861935) " cx="36.1076438" cy="32.8619349" rx="2.14110064" ry="2.14001594"></ellipse>
                        <ellipse id="Oval-Copy-23" fill="#152B41" transform="translate(9.739562, 6.429509) scale(-1, 1) rotate(129.000000) translate(-9.739562, -6.429509) " cx="9.73956181" cy="6.42950901" rx="2.14110064" ry="2.14001594"></ellipse>
                    </g>
                    <g id="Group_11" opacity="0.589338707" transform="translate(133.966594, 133.446839) rotate(768.000000) translate(-133.966594, -133.446839) translate(112.067977, 113.539005)">
                        <ellipse id="Oval-Copy-17" fill="#E66938" transform="translate(21.617076, 19.526657) scale(-1, 1) rotate(129.000000) translate(-21.617076, -19.526657) " cx="21.6170762" cy="19.526657" rx="5.70959192" ry="5.7066994"></ellipse>
                        <ellipse id="Oval-Copy-18" fill="#003872" transform="translate(38.126821, 19.526657) scale(-1, 1) rotate(129.000000) translate(-38.126821, -19.526657) " cx="38.1268212" cy="19.526657" rx="3.44954439" ry="3.56668783"></ellipse>
                        <ellipse id="Oval-Copy-20" fill="#003872" transform="translate(5.107331, 19.526657) scale(-1, 1) rotate(129.000000) translate(-5.107331, -19.526657) " cx="5.10733119" cy="19.526657" rx="3.44954439" ry="3.56668783"></ellipse>
                        <ellipse id="Oval-Copy-19" fill="#152B41" transform="translate(21.617076, 3.095690) scale(-1, 1) rotate(129.000000) translate(-21.617076, -3.095690) " cx="21.6170762" cy="3.09568952" rx="2.14109697" ry="2.14001227"></ellipse>
                        <ellipse id="Oval-Copy-21" fill="#152B41" transform="translate(21.617076, 36.195754) scale(-1, 1) rotate(129.000000) translate(-21.617076, -36.195754) " cx="21.6170762" cy="36.1957544" rx="2.14109697" ry="2.14001227"></ellipse>
                        <ellipse id="Oval-Copy-22" fill="#152B41" transform="translate(36.107644, 32.861935) scale(-1, 1) rotate(129.000000) translate(-36.107644, -32.861935) " cx="36.1076438" cy="32.8619349" rx="2.14109697" ry="2.14001227"></ellipse>
                        <ellipse id="Oval-Copy-23" fill="#152B41" transform="translate(9.739562, 6.429509) scale(-1, 1) rotate(129.000000) translate(-9.739562, -6.429509) " cx="9.73956181" cy="6.42950901" rx="2.14109697" ry="2.14001227"></ellipse>
                    </g>
                    <g id="Group_10" opacity="0.687573399" transform="translate(82.456412, 133.188527) rotate(696.000000) translate(-82.456412, -133.188527) translate(60.557795, 113.280693)">
                        <ellipse id="Oval-Copy-17" fill="#003872" transform="translate(21.617076, 19.526657) scale(-1, 1) rotate(129.000000) translate(-21.617076, -19.526657) " cx="21.6170762" cy="19.526657" rx="5.70959192" ry="5.7066994"></ellipse>
                        <ellipse id="Oval-Copy-18" fill="#003872" transform="translate(38.126821, 19.526657) scale(-1, 1) rotate(129.000000) translate(-38.126821, -19.526657) " cx="38.1268212" cy="19.526657" rx="3.44954439" ry="3.56668783"></ellipse>
                        <ellipse id="Oval-Copy-20" fill="#003872" transform="translate(5.107331, 19.526657) scale(-1, 1) rotate(129.000000) translate(-5.107331, -19.526657) " cx="5.10733119" cy="19.526657" rx="3.44954439" ry="3.56668783"></ellipse>
                        <ellipse id="Oval-Copy-19" fill="#152B41" transform="translate(21.617076, 3.095690) scale(-1, 1) rotate(129.000000) translate(-21.617076, -3.095690) " cx="21.6170762" cy="3.09568952" rx="2.14109697" ry="2.14001227"></ellipse>
                        <ellipse id="Oval-Copy-21" fill="#152B41" transform="translate(21.617076, 36.195754) scale(-1, 1) rotate(129.000000) translate(-21.617076, -36.195754) " cx="21.6170762" cy="36.1957544" rx="2.14109697" ry="2.14001227"></ellipse>
                        <ellipse id="Oval-Copy-22" fill="#152B41" transform="translate(36.107644, 32.861935) scale(-1, 1) rotate(129.000000) translate(-36.107644, -32.861935) " cx="36.1076438" cy="32.8619349" rx="2.14109697" ry="2.14001227"></ellipse>
                        <ellipse id="Oval-Copy-23" fill="#152B41" transform="translate(9.739562, 6.429509) scale(-1, 1) rotate(129.000000) translate(-9.739562, -6.429509) " cx="9.73956181" cy="6.42950901" rx="2.14109697" ry="2.14001227"></ellipse>
                    </g>
                    <g id="Group_9" opacity="0.963720604" transform="translate(30.443167, 132.756888) rotate(624.000000) translate(-30.443167, -132.756888) translate(8.544549, 112.849054)">
                        <ellipse id="Oval-Copy-17" fill="#5DB285" transform="translate(21.617076, 19.526657) scale(-1, 1) rotate(129.000000) translate(-21.617076, -19.526657) " cx="21.6170762" cy="19.526657" rx="5.70960364" ry="5.70671112"></ellipse>
                        <ellipse id="Oval-Copy-18" fill="#003872" transform="translate(38.126821, 19.526657) scale(-1, 1) rotate(129.000000) translate(-38.126821, -19.526657) " cx="38.1268212" cy="19.526657" rx="3.44955196" ry="3.56669468"></ellipse>
                        <ellipse id="Oval-Copy-20" fill="#003872" transform="translate(5.107331, 19.526657) scale(-1, 1) rotate(129.000000) translate(-5.107331, -19.526657) " cx="5.10733119" cy="19.526657" rx="3.44955196" ry="3.56669468"></ellipse>
                        <ellipse id="Oval-Copy-19" fill="#152B41" transform="translate(21.617076, 3.095690) scale(-1, 1) rotate(129.000000) translate(-21.617076, -3.095690) " cx="21.6170762" cy="3.09568952" rx="2.14110136" ry="2.14001667"></ellipse>
                        <ellipse id="Oval-Copy-21" fill="#152B41" transform="translate(21.617076, 36.195754) scale(-1, 1) rotate(129.000000) translate(-21.617076, -36.195754) " cx="21.6170762" cy="36.1957544" rx="2.14110136" ry="2.14001667"></ellipse>
                        <ellipse id="Oval-Copy-22" fill="#152B41" transform="translate(36.107644, 32.861935) scale(-1, 1) rotate(129.000000) translate(-36.107644, -32.861935) " cx="36.1076438" cy="32.8619349" rx="2.14110136" ry="2.14001667"></ellipse>
                        <ellipse id="Oval-Copy-23" fill="#152B41" transform="translate(9.739562, 6.429509) scale(-1, 1) rotate(129.000000) translate(-9.739562, -6.429509) " cx="9.73956181" cy="6.42950901" rx="2.14110136" ry="2.14001667"></ellipse>
                    </g>
                    <g id="Group_8" opacity="0.92416902" transform="translate(185.633572, 80.935540) rotate(552.000000) translate(-185.633572, -80.935540) translate(163.734954, 61.027706)">
                        <ellipse id="Oval-Copy-17" fill="#E35C27" transform="translate(21.617076, 19.526657) scale(-1, 1) rotate(129.000000) translate(-21.617076, -19.526657) " cx="21.6170762" cy="19.526657" rx="5.7096017" ry="5.70670918"></ellipse>
                        <ellipse id="Oval-Copy-18" fill="#003872" transform="translate(38.126821, 19.526657) scale(-1, 1) rotate(129.000000) translate(-38.126821, -19.526657) " cx="38.1268212" cy="19.526657" rx="3.4495507" ry="3.56669355"></ellipse>
                        <ellipse id="Oval-Copy-20" fill="#003872" transform="translate(5.107331, 19.526657) scale(-1, 1) rotate(129.000000) translate(-5.107331, -19.526657) " cx="5.10733119" cy="19.526657" rx="3.4495507" ry="3.56669355"></ellipse>
                        <ellipse id="Oval-Copy-19" fill="#152B41" transform="translate(21.617076, 3.095690) scale(-1, 1) rotate(129.000000) translate(-21.617076, -3.095690) " cx="21.6170762" cy="3.09568952" rx="2.14110064" ry="2.14001594"></ellipse>
                        <ellipse id="Oval-Copy-21" fill="#152B41" transform="translate(21.617076, 36.195754) scale(-1, 1) rotate(129.000000) translate(-21.617076, -36.195754) " cx="21.6170762" cy="36.1957544" rx="2.14110064" ry="2.14001594"></ellipse>
                        <ellipse id="Oval-Copy-22" fill="#152B41" transform="translate(36.107644, 32.861935) scale(-1, 1) rotate(129.000000) translate(-36.107644, -32.861935) " cx="36.1076438" cy="32.8619349" rx="2.14110064" ry="2.14001594"></ellipse>
                        <ellipse id="Oval-Copy-23" fill="#152B41" transform="translate(9.739562, 6.429509) scale(-1, 1) rotate(129.000000) translate(-9.739562, -6.429509) " cx="9.73956181" cy="6.42950901" rx="2.14110064" ry="2.14001594"></ellipse>
                    </g>
                    <g id="Group_7" opacity="0.493254599" transform="translate(133.605164, 81.361953) rotate(480.000000) translate(-133.605164, -81.361953) translate(111.706546, 61.454119)">
                        <ellipse id="Oval-Copy-17" fill="#003872" transform="translate(21.617076, 19.526657) scale(-1, 1) rotate(129.000000) translate(-21.617076, -19.526657) " cx="21.6170762" cy="19.526657" rx="5.7096017" ry="5.70670918"></ellipse>
                        <ellipse id="Oval-Copy-18" fill="#003872" transform="translate(38.126821, 19.526657) scale(-1, 1) rotate(129.000000) translate(-38.126821, -19.526657) " cx="38.1268212" cy="19.526657" rx="3.4495507" ry="3.56669355"></ellipse>
                        <ellipse id="Oval-Copy-20" fill="#003872" transform="translate(5.107331, 19.526657) scale(-1, 1) rotate(129.000000) translate(-5.107331, -19.526657) " cx="5.10733119" cy="19.526657" rx="3.4495507" ry="3.56669355"></ellipse>
                        <ellipse id="Oval-Copy-19" fill="#152B41" transform="translate(21.617076, 3.095690) scale(-1, 1) rotate(129.000000) translate(-21.617076, -3.095690) " cx="21.6170762" cy="3.09568952" rx="2.14110064" ry="2.14001594"></ellipse>
                        <ellipse id="Oval-Copy-21" fill="#152B41" transform="translate(21.617076, 36.195754) scale(-1, 1) rotate(129.000000) translate(-21.617076, -36.195754) " cx="21.6170762" cy="36.1957544" rx="2.14110064" ry="2.14001594"></ellipse>
                        <ellipse id="Oval-Copy-22" fill="#152B41" transform="translate(36.107644, 32.861935) scale(-1, 1) rotate(129.000000) translate(-36.107644, -32.861935) " cx="36.1076438" cy="32.8619349" rx="2.14110064" ry="2.14001594"></ellipse>
                        <ellipse id="Oval-Copy-23" fill="#152B41" transform="translate(9.739562, 6.429509) scale(-1, 1) rotate(129.000000) translate(-9.739562, -6.429509) " cx="9.73956181" cy="6.42950901" rx="2.14110064" ry="2.14001594"></ellipse>
                    </g>
                    <g id="Group_6" opacity="0.4167942" transform="translate(82.085611, 81.633946) rotate(408.000000) translate(-82.085611, -81.633946) translate(60.186994, 61.726112)">
                        <ellipse id="Oval-Copy-17" fill="#63B58A" transform="translate(21.617076, 19.526657) scale(-1, 1) rotate(129.000000) translate(-21.617076, -19.526657) " cx="21.6170762" cy="19.526657" rx="5.70959192" ry="5.7066994"></ellipse>
                        <ellipse id="Oval-Copy-18" fill="#003872" transform="translate(38.126821, 19.526657) scale(-1, 1) rotate(129.000000) translate(-38.126821, -19.526657) " cx="38.1268212" cy="19.526657" rx="3.44954439" ry="3.56668783"></ellipse>
                        <ellipse id="Oval-Copy-20" fill="#003872" transform="translate(5.107331, 19.526657) scale(-1, 1) rotate(129.000000) translate(-5.107331, -19.526657) " cx="5.10733119" cy="19.526657" rx="3.44954439" ry="3.56668783"></ellipse>
                        <ellipse id="Oval-Copy-19" fill="#152B41" transform="translate(21.617076, 3.095690) scale(-1, 1) rotate(129.000000) translate(-21.617076, -3.095690) " cx="21.6170762" cy="3.09568952" rx="2.14109697" ry="2.14001227"></ellipse>
                        <ellipse id="Oval-Copy-21" fill="#152B41" transform="translate(21.617076, 36.195754) scale(-1, 1) rotate(129.000000) translate(-21.617076, -36.195754) " cx="21.6170762" cy="36.1957544" rx="2.14109697" ry="2.14001227"></ellipse>
                        <ellipse id="Oval-Copy-22" fill="#152B41" transform="translate(36.107644, 32.861935) scale(-1, 1) rotate(129.000000) translate(-36.107644, -32.861935) " cx="36.1076438" cy="32.8619349" rx="2.14109697" ry="2.14001227"></ellipse>
                        <ellipse id="Oval-Copy-23" fill="#152B41" transform="translate(9.739562, 6.429509) scale(-1, 1) rotate(129.000000) translate(-9.739562, -6.429509) " cx="9.73956181" cy="6.42950901" rx="2.14109697" ry="2.14001227"></ellipse>
                    </g>
                    <g id="Group_5" opacity="0.13751" transform="translate(30.575429, 81.375634) rotate(336.000000) translate(-30.575429, -81.375634) translate(8.676812, 61.467800)">
                        <ellipse id="Oval-Copy-17" fill="#003872" transform="translate(21.617076, 19.526657) scale(-1, 1) rotate(129.000000) translate(-21.617076, -19.526657) " cx="21.6170762" cy="19.526657" rx="5.70959192" ry="5.7066994"></ellipse>
                        <ellipse id="Oval-Copy-18" fill="#003872" transform="translate(38.126821, 19.526657) scale(-1, 1) rotate(129.000000) translate(-38.126821, -19.526657) " cx="38.1268212" cy="19.526657" rx="3.44954439" ry="3.56668783"></ellipse>
                        <ellipse id="Oval-Copy-20" fill="#003872" transform="translate(5.107331, 19.526657) scale(-1, 1) rotate(129.000000) translate(-5.107331, -19.526657) " cx="5.10733119" cy="19.526657" rx="3.44954439" ry="3.56668783"></ellipse>
                        <ellipse id="Oval-Copy-19" fill="#152B41" transform="translate(21.617076, 3.095690) scale(-1, 1) rotate(129.000000) translate(-21.617076, -3.095690) " cx="21.6170762" cy="3.09568952" rx="2.14109697" ry="2.14001227"></ellipse>
                        <ellipse id="Oval-Copy-21" fill="#152B41" transform="translate(21.617076, 36.195754) scale(-1, 1) rotate(129.000000) translate(-21.617076, -36.195754) " cx="21.6170762" cy="36.1957544" rx="2.14109697" ry="2.14001227"></ellipse>
                        <ellipse id="Oval-Copy-22" fill="#152B41" transform="translate(36.107644, 32.861935) scale(-1, 1) rotate(129.000000) translate(-36.107644, -32.861935) " cx="36.1076438" cy="32.8619349" rx="2.14109697" ry="2.14001227"></ellipse>
                        <ellipse id="Oval-Copy-23" fill="#152B41" transform="translate(9.739562, 6.429509) scale(-1, 1) rotate(129.000000) translate(-9.739562, -6.429509) " cx="9.73956181" cy="6.42950901" rx="2.14109697" ry="2.14001227"></ellipse>
                    </g>
                    <g id="Group_4" opacity="0.299083854" transform="translate(186.086116, 29.131102) rotate(264.000000) translate(-186.086116, -29.131102) translate(164.187498, 9.223268)">
                        <ellipse id="Oval-Copy-17" fill="#003872" transform="translate(21.617076, 19.526657) scale(-1, 1) rotate(129.000000) translate(-21.617076, -19.526657) " cx="21.6170762" cy="19.526657" rx="5.70959192" ry="5.7066994"></ellipse>
                        <ellipse id="Oval-Copy-18" fill="#003872" transform="translate(38.126821, 19.526657) scale(-1, 1) rotate(129.000000) translate(-38.126821, -19.526657) " cx="38.1268212" cy="19.526657" rx="3.44954439" ry="3.56668783"></ellipse>
                        <ellipse id="Oval-Copy-20" fill="#003872" transform="translate(5.107331, 19.526657) scale(-1, 1) rotate(129.000000) translate(-5.107331, -19.526657) " cx="5.10733119" cy="19.526657" rx="3.44954439" ry="3.56668783"></ellipse>
                        <ellipse id="Oval-Copy-19" fill="#152B41" transform="translate(21.617076, 3.095690) scale(-1, 1) rotate(129.000000) translate(-21.617076, -3.095690) " cx="21.6170762" cy="3.09568952" rx="2.14109697" ry="2.14001227"></ellipse>
                        <ellipse id="Oval-Copy-21" fill="#152B41" transform="translate(21.617076, 36.195754) scale(-1, 1) rotate(129.000000) translate(-21.617076, -36.195754) " cx="21.6170762" cy="36.1957544" rx="2.14109697" ry="2.14001227"></ellipse>
                        <ellipse id="Oval-Copy-22" fill="#152B41" transform="translate(36.107644, 32.861935) scale(-1, 1) rotate(129.000000) translate(-36.107644, -32.861935) " cx="36.1076438" cy="32.8619349" rx="2.14109697" ry="2.14001227"></ellipse>
                        <ellipse id="Oval-Copy-23" fill="#152B41" transform="translate(9.739562, 6.429509) scale(-1, 1) rotate(129.000000) translate(-9.739562, -6.429509) " cx="9.73956181" cy="6.42950901" rx="2.14109697" ry="2.14001227"></ellipse>
                    </g>
                    <g id="Group_3" opacity="0.73000924" transform="translate(133.752589, 29.122647) rotate(192.000000) translate(-133.752589, -29.122647) translate(111.853971, 9.214813)">
                        <ellipse id="Oval-Copy-17" fill="#5DB285" transform="translate(21.617076, 19.526657) scale(-1, 1) rotate(129.000000) translate(-21.617076, -19.526657) " cx="21.6170762" cy="19.526657" rx="5.7096017" ry="5.70670918"></ellipse>
                        <ellipse id="Oval-Copy-18" fill="#003872" transform="translate(38.126821, 19.526657) scale(-1, 1) rotate(129.000000) translate(-38.126821, -19.526657) " cx="38.1268212" cy="19.526657" rx="3.4495507" ry="3.56669355"></ellipse>
                        <ellipse id="Oval-Copy-20" fill="#003872" transform="translate(5.107331, 19.526657) scale(-1, 1) rotate(129.000000) translate(-5.107331, -19.526657) " cx="5.10733119" cy="19.526657" rx="3.4495507" ry="3.56669355"></ellipse>
                        <ellipse id="Oval-Copy-19" fill="#152B41" transform="translate(21.617076, 3.095690) scale(-1, 1) rotate(129.000000) translate(-21.617076, -3.095690) " cx="21.6170762" cy="3.09568952" rx="2.14110064" ry="2.14001594"></ellipse>
                        <ellipse id="Oval-Copy-21" fill="#152B41" transform="translate(21.617076, 36.195754) scale(-1, 1) rotate(129.000000) translate(-21.617076, -36.195754) " cx="21.6170762" cy="36.1957544" rx="2.14110064" ry="2.14001594"></ellipse>
                        <ellipse id="Oval-Copy-22" fill="#152B41" transform="translate(36.107644, 32.861935) scale(-1, 1) rotate(129.000000) translate(-36.107644, -32.861935) " cx="36.1076438" cy="32.8619349" rx="2.14110064" ry="2.14001594"></ellipse>
                        <ellipse id="Oval-Copy-23" fill="#152B41" transform="translate(9.739562, 6.429509) scale(-1, 1) rotate(129.000000) translate(-9.739562, -6.429509) " cx="9.73956181" cy="6.42950901" rx="2.14110064" ry="2.14001594"></ellipse>
                    </g>
                    <g id="Group_2" opacity="0.80072172" transform="translate(81.724181, 29.549060) rotate(120.000000) translate(-81.724181, -29.549060) translate(59.825564, 9.641225)">
                        <ellipse id="Oval-Copy-17" fill="#003872" transform="translate(21.617076, 19.526657) scale(-1, 1) rotate(129.000000) translate(-21.617076, -19.526657) " cx="21.6170762" cy="19.526657" rx="5.70959192" ry="5.7066994"></ellipse>
                        <ellipse id="Oval-Copy-18" fill="#003872" transform="translate(38.126821, 19.526657) scale(-1, 1) rotate(129.000000) translate(-38.126821, -19.526657) " cx="38.1268212" cy="19.526657" rx="3.44954439" ry="3.56668783"></ellipse>
                        <ellipse id="Oval-Copy-20" fill="#003872" transform="translate(5.107331, 19.526657) scale(-1, 1) rotate(129.000000) translate(-5.107331, -19.526657) " cx="5.10733119" cy="19.526657" rx="3.44954439" ry="3.56668783"></ellipse>
                        <ellipse id="Oval-Copy-19" fill="#152B41" transform="translate(21.617076, 3.095690) scale(-1, 1) rotate(129.000000) translate(-21.617076, -3.095690) " cx="21.6170762" cy="3.09568952" rx="2.14109697" ry="2.14001227"></ellipse>
                        <ellipse id="Oval-Copy-21" fill="#152B41" transform="translate(21.617076, 36.195754) scale(-1, 1) rotate(129.000000) translate(-21.617076, -36.195754) " cx="21.6170762" cy="36.1957544" rx="2.14109697" ry="2.14001227"></ellipse>
                        <ellipse id="Oval-Copy-22" fill="#152B41" transform="translate(36.107644, 32.861935) scale(-1, 1) rotate(129.000000) translate(-36.107644, -32.861935) " cx="36.1076438" cy="32.8619349" rx="2.14109697" ry="2.14001227"></ellipse>
                        <ellipse id="Oval-Copy-23" fill="#152B41" transform="translate(9.739562, 6.429509) scale(-1, 1) rotate(129.000000) translate(-9.739562, -6.429509) " cx="9.73956181" cy="6.42950901" rx="2.14109697" ry="2.14001227"></ellipse>
                    </g>
                    <g id="Group_1" opacity="0.875964085" transform="translate(30.204628, 29.821053) rotate(48.000000) translate(-30.204628, -29.821053) translate(8.306011, 9.913219)">
                        <ellipse id="Oval-Copy-17" fill="#E66938" transform="translate(21.617076, 19.526657) scale(-1, 1) rotate(129.000000) translate(-21.617076, -19.526657) " cx="21.6170762" cy="19.526657" rx="5.70959192" ry="5.7066994"></ellipse>
                        <ellipse id="Oval-Copy-18" fill="#003872" transform="translate(38.126821, 19.526657) scale(-1, 1) rotate(129.000000) translate(-38.126821, -19.526657) " cx="38.1268212" cy="19.526657" rx="3.44954439" ry="3.56668783"></ellipse>
                        <ellipse id="Oval-Copy-20" fill="#003872" transform="translate(5.107331, 19.526657) scale(-1, 1) rotate(129.000000) translate(-5.107331, -19.526657) " cx="5.10733119" cy="19.526657" rx="3.44954439" ry="3.56668783"></ellipse>
                        <ellipse id="Oval-Copy-19" fill="#152B41" transform="translate(21.617076, 3.095690) scale(-1, 1) rotate(129.000000) translate(-21.617076, -3.095690) " cx="21.6170762" cy="3.09568952" rx="2.14109697" ry="2.14001227"></ellipse>
                        <ellipse id="Oval-Copy-21" fill="#152B41" transform="translate(21.617076, 36.195754) scale(-1, 1) rotate(129.000000) translate(-21.617076, -36.195754) " cx="21.6170762" cy="36.1957544" rx="2.14109697" ry="2.14001227"></ellipse>
                        <ellipse id="Oval-Copy-22" fill="#152B41" transform="translate(36.107644, 32.861935) scale(-1, 1) rotate(129.000000) translate(-36.107644, -32.861935) " cx="36.1076438" cy="32.8619349" rx="2.14109697" ry="2.14001227"></ellipse>
                        <ellipse id="Oval-Copy-23" fill="#152B41" transform="translate(9.739562, 6.429509) scale(-1, 1) rotate(129.000000) translate(-9.739562, -6.429509) " cx="9.73956181" cy="6.42950901" rx="2.14109697" ry="2.14001227"></ellipse>
                    </g>
                </g>
            </g>
        </g>
    </g>
</svg>