<?xml version="1.0" encoding="UTF-8"?>
<svg width="51px" height="18px" viewBox="0 0 51 18" version="1.1" xmlns="http://www.w3.org/2000/svg" xmlns:xlink="http://www.w3.org/1999/xlink">
    <!-- Generator: Sketch 58 (84663) - https://sketch.com -->
    <title>by</title>
    <desc>Created with Sketch.</desc>
    <g id="Page-1" stroke="none" stroke-width="1" fill="none" fill-rule="evenodd">
        <g id="New-footer-with-CCby" transform="translate(-112.000000, -1106.000000)" fill-rule="nonzero">
            <g id="Group-13" transform="translate(0.000000, 985.000000)">
                <g id="Group-10" transform="translate(0.000000, 51.000000)">
                    <g id="Group-2" transform="translate(112.000000, 43.000000)">
                        <g id="by" transform="translate(0.000000, 27.000000)">
                            <path d="M1.22373682,0 L49.7171004,0.0841236634 C50.3946703,0.0841236634 51,-0.0139860157 51,1.40453805 L50.9406289,17 L0,17 L0,1.34656396 C0,0.647034849 0.0693363852,0 1.22373682,0 Z" id="path3817_1_" fill="#AAB2AB"></path>
                            <path d="M50.0447548,0 L0.955038242,0 C0.428540906,0 0,0.431888561 0,0.962755134 L0,17.7827057 C0,17.9026871 0.096718935,18 0.21571279,18 L50.7842872,18 C50.9032811,18 51,17.9026828 51,17.7827057 L51,0.962755134 C51,0.431888561 50.5714591,0 50.0447548,0 Z M0.955034018,0.435005845 L50.0447506,0.435005845 C50.3336741,0.435005845 50.568566,0.671638327 50.568566,0.962755134 C50.568566,0.962755134 50.568566,7.7544472 50.568566,12.6524449 L15.3678405,12.6524449 C14.0818081,14.9971617 11.6041942,16.5891396 8.76073355,16.5891396 C5.91603539,16.5891396 3.43903813,14.9986181 2.15362659,12.6524449 L0.431421356,12.6524449 C0.431421356,7.75445146 0.431421356,0.962755134 0.431421356,0.962755134 C0.431421356,0.671642586 0.666317438,0.435005845 0.955034018,0.435005845 Z" id="path263" fill="#000000"></path>
                            <g id="g265" transform="translate(30.000000, 14.000000)" fill="#FFFFFF">
                                <path d="M1.74754714,0.358515 C1.88356714,0.358515 2.00787,0.36913875 2.12045571,0.39001125 C2.23262143,0.41088375 2.32846286,0.44530875 2.40882,0.4932825 C2.48875714,0.54088875 2.55111857,0.6046125 2.59506429,0.68371125 C2.63901,0.7631775 2.66119286,0.86095875 2.66119286,0.97777875 C2.66119286,1.10375625 2.62854857,1.20849 2.56284,1.292355 C2.49755143,1.37658375 2.40045,1.44506625 2.27238429,1.4988975 C2.44900286,1.5432075 2.58084,1.6208475 2.66789143,1.73180625 C2.75494286,1.842765 2.79847286,1.97643375 2.79847286,2.13280875 C2.79847286,2.25878625 2.77043143,2.367915 2.71434857,2.4602025 C2.65826571,2.5521225 2.58251143,2.62756125 2.48792571,2.6857875 C2.39292,2.74438125 2.28452143,2.7875925 2.16315,2.815425 C2.04135857,2.843625 1.91663571,2.8575375 1.78815,2.8575375 L0.401142857,2.8575375 L0.401142857,0.358515 L1.74754714,0.358515 L1.74754714,0.358515 Z M1.66719,1.36926375 C1.77935571,1.36926375 1.87143,1.34582625 1.94383714,1.29931875 C2.01582429,1.25281125 2.05181571,1.17736875 2.05181571,1.072635 C2.05181571,1.01440875 2.03967857,0.966435 2.01582429,0.929445 C1.99155,0.89209125 1.95974143,0.86316 1.91956286,0.84192 C1.87938429,0.8210475 1.83334714,0.80639625 1.78144714,0.79834125 C1.72954714,0.79028625 1.67514,0.786255 1.61947714,0.786255 L1.03061143,0.786255 L1.03061143,1.36926375 L1.66719,1.36926375 Z M1.70401714,2.42980875 C1.76553857,2.42980875 1.82413286,2.4246825 1.88021571,2.4140625 C1.93629857,2.4034425 1.98568286,2.3858625 2.02879286,2.36169375 C2.07148286,2.3371575 2.10538286,2.30383125 2.13091286,2.26171875 C2.15644286,2.21997 2.169,2.16613875 2.169,2.1009525 C2.169,1.9727775 2.12756571,1.881225 2.04469714,1.826295 C1.96182857,1.77172875 1.85217429,1.74426375 1.71615429,1.74426375 L1.03060714,1.74426375 L1.03060714,2.42980875 L1.70401714,2.42980875 Z" id="path267"></path>
                                <polygon id="path269" points="2.90937429 0.35851875 3.61375286 0.35851875 4.28256 1.34545875 4.94718 0.35851875 5.64737571 0.35851875 4.58724857 1.8984375 4.58724857 2.857545 3.95778429 2.857545 3.95778429 1.88452125"></polygon>
                            </g>
                            <g id="g5908_1_" transform="translate(2.000000, 2.000000)">
                                <path d="M12.8581354,6.83051895 C12.86019,10.0287047 10.2689226,12.6226505 7.07094684,12.6247186 C3.87297105,12.6267621 1.27860895,10.0356974 1.27675111,6.83753368 C1.27675111,6.83526421 1.27675111,6.83299105 1.27675111,6.83051895 C1.27489526,3.63233316 3.86596368,1.03838737 7.06393947,1.03652195 C10.2623316,1.03447842 12.8562774,3.62554316 12.8581354,6.82372895 C12.8581354,6.82577368 12.8581354,6.82824579 12.8581354,6.83051895 Z" id="path5906_1_" fill="#FFFFFF"></path>
                                <g id="g5706_1_" transform="translate(0.141584, 0.024058)" fill="#000000">
                                    <path d="M11.6331674,2.08986474 C12.9172658,3.37396316 13.5594163,4.94656842 13.5594163,6.80646105 C13.5594163,8.66675895 12.9283958,10.2224721 11.6663547,11.4735858 C10.32703,12.7912805 8.74410526,13.4499142 6.91760263,13.4499142 C5.11316105,13.4499142 3.55765053,12.7966337 2.25150211,11.4900911 C0.945151053,10.1837289 0.292073158,8.62266263 0.292073158,6.80646105 C0.292073158,4.99066474 0.945151053,3.41846842 2.25150211,2.08986474 C3.52447053,0.805361053 5.07997368,0.163210526 6.91760263,0.163210526 C8.77750263,0.163210526 10.3490911,0.805357368 11.6331674,2.08986474 Z M3.11601684,2.95375316 C2.03038316,4.05031421 1.48776895,5.33481789 1.48776895,6.80829947 C1.48776895,8.28137579 2.02503,9.55497421 3.09933105,10.6290726 C4.17383105,11.7035726 5.45298526,12.2406237 6.93719158,12.2406237 C8.42139789,12.2406237 9.71145737,11.6982232 10.8080184,10.6127921 C11.8491505,9.60462632 12.3699174,8.33703316 12.3699174,6.80829947 C12.3699174,5.29112684 11.8406953,4.00334053 10.7828774,2.94552263 C9.72526211,1.88790737 8.44343684,1.35888789 6.93719158,1.35888789 C5.43093895,1.35888789 4.15694632,1.89058579 3.11601684,2.95375316 Z M5.97293421,6.16019158 C5.80703789,5.79851632 5.55871842,5.61756632 5.22753737,5.61756632 C4.64205368,5.61756632 4.34942421,6.01180263 4.34942421,6.79987 C4.34942421,7.58811789 4.64205368,7.98194895 5.22753737,7.98194895 C5.61415105,7.98194895 5.89029737,7.79009368 6.05599105,7.40555053 L6.86753421,7.83769737 C6.48071789,8.52497947 5.90039579,8.86870895 5.12656421,8.86870895 C4.52975895,8.86870895 4.05164789,8.68571421 3.69264737,8.32012632 C3.33303158,7.95413316 3.15374316,7.44964684 3.15374316,6.80646105 C3.15374316,6.17460789 3.33879737,5.67299895 3.70913053,5.30145368 C4.07946368,4.92988632 4.54066421,4.74419105 5.09358684,4.74419105 C5.91152579,4.74419105 6.49720105,5.06651526 6.85125368,5.71050789 L5.97293421,6.16019158 Z M9.79101789,6.16019158 C9.62490789,5.79851632 9.38153632,5.61756632 9.06065263,5.61756632 C8.46343105,5.61756632 8.16460474,6.01180263 8.16460474,6.79987 C8.16460474,7.58811789 8.46343105,7.98194895 9.06065263,7.98194895 C9.44789632,7.98194895 9.71908368,7.79009368 9.87386105,7.40555053 L10.7035489,7.83769737 C10.3173405,8.52497947 9.73783632,8.86870895 8.96544526,8.86870895 C8.36945789,8.86870895 7.89238211,8.68571421 7.53358789,8.32012632 C7.17542,7.95413316 6.99593263,7.44964684 6.99593263,6.80646105 C6.99593263,6.17460789 7.17809842,5.67299895 7.54224579,5.30145368 C7.90619053,4.92988632 8.36946158,4.74419105 8.93248263,4.74419105 C9.74897368,4.74419105 10.3338274,5.06651526 10.6866421,5.71050789 L9.79101789,6.16019158 Z" id="path5708_1_"></path>
                                </g>
                            </g>
                            <g id="g275" transform="translate(27.000000, 1.000000)">
                                <ellipse id="circle277" fill="#FFFFFF" cx="5.5225456" cy="5.13061667" rx="4.7549216" ry="4.50276667"></ellipse>
                                <g id="g279" transform="translate(3.960000, 1.666667)" fill="#000000">
                                    <path d="M2.9384036,2.16125417 C2.9384036,1.9877125 2.789732,1.847125 2.6071144,1.847125 L0.5068008,1.847125 C0.3241832,1.847125 0.1755116,1.98770833 0.1755116,2.16125417 L0.1755116,4.14998333 L0.7611736,4.14998333 L0.7611736,6.504925 L2.3527372,6.504925 L2.3527372,4.14998333 L2.9384036,4.14998333 L2.9384036,2.16125417 L2.9384036,2.16125417 Z" id="path281"></path>
                                    <ellipse id="circle283" cx="1.5569576" cy="0.905150167" rx="1" ry="1"></ellipse>
                                </g>
                                <path d="M5.510516,0.169679167 C4.0882512,0.169679167 2.884266,0.63965 1.8989916,1.57959167 C0.8879376,2.55188333 0.382624,3.7028 0.382624,5.0315375 C0.382624,6.360275 0.8879376,7.50305417 1.8989916,8.45927083 C2.9100456,9.41528333 4.1140308,9.89339167 5.510516,9.89339167 C6.9241876,9.89339167 8.149658,9.41162083 9.1860648,8.4470625 C10.162746,7.53153333 10.6513,6.393025 10.6513,5.03153333 C10.6513,3.67004167 10.1541528,2.51952917 9.160712,1.5795875 C8.1664132,0.63965 6.9499672,0.169679167 5.510516,0.169679167 Z M5.5234036,1.04451667 C6.6887172,1.04451667 7.678286,1.43371667 8.4921144,2.2117125 C9.314536,2.98136667 9.7257468,3.92130833 9.7257468,5.0315375 C9.7257468,6.1497 9.3231292,7.0776375 8.517894,7.81494583 C7.6692616,8.60921667 6.6715264,9.00615 5.5234036,9.00615 C4.3748496,9.00615 3.3852764,8.6132875 2.5546928,7.82715417 C1.7232468,7.04102083 1.3081684,6.10921667 1.3081684,5.03154167 C1.3081684,3.9536625 1.7279724,3.01392083 2.5675804,2.21171667 C3.37282,1.43371667 4.35809,1.04451667 5.5234036,1.04451667 Z" id="path285" fill="#000000"></path>
                            </g>
                        </g>
                    </g>
                </g>
            </g>
        </g>
    </g>
</svg>