<?xml version="1.0" encoding="UTF-8"?>
<svg width="120px" height="120px" viewBox="0 0 120 120" version="1.1" xmlns="http://www.w3.org/2000/svg" xmlns:xlink="http://www.w3.org/1999/xlink">
    <!-- Generator: sketchtool 58 (101010) - https://sketch.com -->
    <title>249E84C9-625D-479E-B5B8-C68AB91C7836hdpi/</title>
    <desc>Created with sketchtool.</desc>
    <defs>
        <rect id="path-1" x="0" y="0" width="80" height="80" rx="40"></rect>
        <filter x="-38.8%" y="-36.2%" width="177.5%" height="177.5%" filterUnits="objectBoundingBox" id="filter-2">
            <feOffset dx="0" dy="2" in="SourceAlpha" result="shadowOffsetOuter1"></feOffset>
            <feGaussianBlur stdDeviation="10" in="shadowOffsetOuter1" result="shadowBlurOuter1"></feGaussianBlur>
            <feComposite in="shadowBlurOuter1" in2="SourceAlpha" operator="out" result="shadowBlurOuter1"></feComposite>
            <feColorMatrix values="0 0 0 0 0.384313725   0 0 0 0 0.721568627   0 0 0 0 0.537254902  0 0 0 0.508468094 0" type="matrix" in="shadowBlurOuter1"></feColorMatrix>
        </filter>
        <polygon id="path-3" points="0.0130169491 0.50391579 6.17925424 0.50391579 6.17925424 6.63018442 0.0130169491 6.63018442"></polygon>
        <polygon id="path-5" points="0 0.0233903158 14.1329415 0.0233903158 14.1329415 18.3211264 0 18.3211264"></polygon>
        <polygon id="path-7" points="0 50.6962998 31.822644 50.6962998 31.822644 0.539162948 0 0.539162948"></polygon>
        <polygon id="path-9" points="0 50.6962998 31.822644 50.6962998 31.822644 0.539162948 0 0.539162948"></polygon>
        <polygon id="path-11" points="0 50.6962998 31.822644 50.6962998 31.822644 0.539162948 0 0.539162948"></polygon>
        <polygon id="path-13" points="0 50.6962998 31.822644 50.6962998 31.822644 0.539162948 0 0.539162948"></polygon>
        <polygon id="path-15" points="0 50.6962998 31.822644 50.6962998 31.822644 0.539162948 0 0.539162948"></polygon>
        <polygon id="path-17" points="0 50.6962998 31.822644 50.6962998 31.822644 0.539162948 0 0.539162948"></polygon>
    </defs>
    <g id="App-Update" stroke="none" stroke-width="1" fill="none" fill-rule="evenodd">
        <g id="App-Update_2" transform="translate(-581.000000, -133.000000)">
            <g id="Group-16" transform="translate(601.000000, 151.000000)">
                <g id="Group-15">
                    <g id="Bg-Copy">
                        <use fill="black" fill-opacity="1" filter="url(#filter-2)" xlink:href="#path-1"></use>
                        <rect stroke-opacity="0.357817963" stroke="#008840" stroke-width="0.5" stroke-linejoin="square" fill="#FFFFFF" fill-rule="evenodd" x="0.25" y="0.25" width="79.5" height="79.5" rx="39.75"></rect>
                    </g>
                    <g id="Group" transform="translate(24.000000, 14.000000)">
                        <g id="Group-3" transform="translate(13.016949, 0.035248)">
                            <g id="Fill-1-Clipped">
                                <mask id="mask-4" fill="white">
                                    <use xlink:href="#path-3"></use>
                                </mask>
                                <g id="path-1"></g>
                                <path d="M3.0958644,0.503430736 C4.79891525,0.503430736 6.17925424,1.87505179 6.17925424,3.56734652 C6.17925424,5.25856336 4.79891525,6.63018442 3.0958644,6.63018442 C1.39335593,6.63018442 0.0130169491,5.25856336 0.0130169491,3.56734652 C0.0130169491,1.87505179 1.39335593,0.503430736 3.0958644,0.503430736" id="Fill-1" fill="#E55A28" fill-rule="nonzero" mask="url(#mask-4)"></path>
                            </g>
                        </g>
                        <path d="M25.1625763,2.4955419 C24.3576949,2.4955419 23.7046779,3.14443452 23.7046779,3.94423242 L23.7046779,15.0142114 L23.646644,15.0460092 C23.3429153,15.2152388 23.0456949,15.3855461 22.7501017,15.5655546 C22.1578305,15.9228766 21.5764068,16.3022956 21.0074576,16.718363 C20.4195254,17.1414366 19.8668475,17.6097819 19.3543051,18.120165 C18.8542373,18.6380934 18.4002712,19.1980598 17.9972881,19.7935966 C17.8454237,20.0129482 17.7033221,20.2360724 17.565017,20.4618914 L17.565017,11.2669104 C17.565017,10.4671124 16.9125424,9.81821979 16.107661,9.81821979 C15.3022373,9.81821979 14.6492203,10.4671124 14.6492203,11.2669104 L14.6492203,20.4683588 C14.5092881,20.240384 14.3661017,20.015104 14.2136949,19.7935966 C13.8101695,19.1980598 13.3562034,18.6380934 12.8566779,18.120165 C12.3441356,17.6108598 11.792,17.1425146 11.2046102,16.7205188 C10.635661,16.3044514 10.0536949,15.9250324 9.46196608,15.5677104 C9.16637285,15.3877019 8.86644068,15.2157776 8.56433898,15.0476261 C8.54481356,15.0368472 8.52583051,15.0266072 8.50684746,15.0158282 L8.50684746,3.94638821 C8.50684746,3.14659032 7.85383051,2.49769768 7.04894916,2.49769768 C6.24352542,2.49769768 5.59105084,3.14659032 5.59105084,3.94638821 L5.59105084,15.8813776 C5.59105084,16.4591292 5.93762712,16.9824472 6.47132203,17.2114998 C6.72461017,17.3230619 7.02345763,17.4626492 7.2978983,17.5973861 C7.57288135,17.732123 7.85491525,17.875483 8.12881356,18.0236934 C8.67606779,18.3174198 9.20976274,18.6283924 9.71308471,18.959845 C10.1979661,19.2718956 10.657356,19.6222114 11.0863728,20.0075588 C11.5018305,20.4020682 11.8847458,20.8305314 12.2286102,21.2875588 C12.9450847,22.2258661 13.5297627,23.2563334 13.968,24.3503966 C14.1795254,24.8844934 14.3482034,25.4347588 14.4718644,25.995803 C14.5749153,26.4991798 14.6345763,27.0106408 14.6497627,27.5242576 L14.6497627,27.5689904 C14.6497627,28.3693272 15.3027797,29.0182198 16.1082034,29.0182198 C16.9130847,29.0182198 17.5655593,28.3693272 17.5655593,27.5689904 L17.5655593,27.4267082 C17.5850847,26.9454282 17.643661,26.4673819 17.739661,25.995803 C17.8649491,25.4347588 18.0336272,24.8844934 18.2462373,24.3503966 C18.6844746,23.2563334 19.2696949,22.2258661 19.9856272,21.2875588 C20.3294916,20.8305314 20.7107797,20.4026072 21.1267797,20.0086366 C21.5557966,19.6232892 22.014644,19.2729734 22.5000678,18.960923 C23.0033898,18.6300092 23.5370847,18.3184976 24.084339,18.0247714 C24.3566102,17.8765608 24.6353898,17.7364346 24.9147119,17.598464 C25.1940339,17.4604934 25.4863728,17.3241398 25.7407458,17.2125776 C26.2755254,16.983525 26.6215593,16.4607461 26.6221017,15.8824556 L26.6221017,3.94423242 C26.6221017,3.14443452 25.9690847,2.4955419 25.1642034,2.4955419 L25.1625763,2.4955419 Z" id="Fill-4" fill="#024F9D" fill-rule="nonzero"></path>
                        <g id="Group-8" transform="translate(0.000000, 15.125774)">
                            <g id="Fill-6-Clipped">
                                <mask id="mask-6" fill="white">
                                    <use xlink:href="#path-5"></use>
                                </mask>
                                <g id="path-3"></g>
                                <path d="M8.51058983,9.92924297 C6.6833356,8.53768084 4.26869153,7.53739452 2.91601356,7.041024 L2.91601356,1.47208084 C2.91601356,0.671744 2.26299661,0.0233903158 1.45811525,0.0233903158 C0.653233898,0.0233903158 0.000216949153,0.671744 0.000216949153,1.47208084 L0.000216949153,8.03214821 L0.000216949153,8.04885558 C-0.0111728814,8.69289768 0.407538983,9.26687662 1.02584407,9.457664 C1.0610983,9.46898185 4.53770847,10.5501104 6.75113221,12.2418661 L6.79126779,12.2715082 C6.82652203,12.2957608 10.2478102,14.7571334 11.3276746,17.4270788 C11.6362847,18.1659756 12.4888949,18.5168304 13.2324881,18.2101692 C13.9657763,17.9088976 14.3210305,17.0805356 14.0330305,16.3459504 C12.6727593,12.979685 8.8750644,10.1911714 8.51058983,9.92924297" id="Fill-6" fill="#008840" fill-rule="nonzero" mask="url(#mask-6)"></path>
                            </g>
                        </g>
                        <path d="M2.4411661,49.6007814 C2.81811525,49.6007814 3.14136949,49.565211 3.38381017,49.3334636 C3.7070644,49.021413 3.89526779,48.4776152 3.89526779,47.5323014 C3.89526779,46.6317204 3.72442034,46.0873836 3.41038644,45.7580868 C3.16794576,45.499931 2.83655593,45.4638214 2.44875932,45.4638214 L1.32062373,45.4638214 L1.32062373,49.6007814 L2.4411661,49.6007814 Z M0.0818440678,50.5547184 L0.0818440678,44.5082678 L2.28008135,44.5082678 C3.2493017,44.5082678 4.03031865,44.7136068 4.50597966,45.212672 C4.97242034,45.7031141 5.21486102,46.4786594 5.21486102,47.5306846 C5.21486102,48.6376826 4.95452203,49.4385584 4.45228475,49.9198384 C3.97662373,50.373093 3.3572339,50.5531014 2.40699661,50.5531014 L0.0818440678,50.5547184 Z" id="Fill-9" fill="#005EA3" fill-rule="nonzero"></path>
                        <g id="Fill-11-Clipped">
                            <mask id="mask-8" fill="white">
                                <use xlink:href="#path-7"></use>
                            </mask>
                            <g id="path-5"></g>
                            <polygon id="Fill-11" fill="#005EA3" fill-rule="nonzero" mask="url(#mask-8)" points="6.36366102 50.5545566 7.60135593 50.5545566 7.60135593 44.5081061 6.36366102 44.5081061"></polygon>
                        </g>
                        <g id="Fill-13-Clipped">
                            <mask id="mask-10" fill="white">
                                <use xlink:href="#path-9"></use>
                            </mask>
                            <g id="path-5"></g>
                            <polygon id="Fill-13" fill="#005EA3" fill-rule="nonzero" mask="url(#mask-10)" points="12.0343865 47.3629104 14.1067932 50.5545566 12.7074712 50.5545566 10.9941153 47.9514408 10.2939119 47.9514408 10.2939119 50.5545566 9.05567458 50.5545566 9.05567458 44.5081061 10.2939119 44.5081061 10.2939119 46.9958872 10.9669966 46.9958872 12.6093017 44.5081061 13.9099119 44.5081061"></polygon>
                        </g>
                        <g id="Fill-14-Clipped">
                            <mask id="mask-12" fill="white">
                                <use xlink:href="#path-11"></use>
                            </mask>
                            <g id="path-5"></g>
                            <path d="M17.9841084,48.8250206 C17.9841084,48.1119932 17.5176678,48.0500144 16.6563797,48.0052816 C15.4631593,47.9422248 14.5384135,47.6393364 14.5384135,46.2213659 C14.5384135,44.9025616 15.5705491,44.367387 17.0957017,44.367387 C17.4097356,44.367387 18.2531254,44.4299048 18.7287865,44.5899722 L18.7287865,45.5088774 C18.2010576,45.3940816 17.6624814,45.3337196 17.1228203,45.329947 C16.2344135,45.329947 15.805939,45.5886416 15.805939,46.096869 C15.805939,46.8104354 16.2821424,46.8373828 17.1347525,46.8724144 C18.2986847,46.917147 19.2516339,47.2561448 19.2516339,48.7339386 C19.2516339,50.0624438 18.1663458,50.6962459 16.5679728,50.6962459 C16.2447186,50.6962459 15.3563119,50.6515132 14.6653288,50.428928 L14.6653288,49.4582838 C15.302617,49.6275132 16.1845153,49.680869 16.5386847,49.680869 C17.6326509,49.680869 17.9841084,49.333248 17.9841084,48.8250206" id="Fill-14" fill="#005EA3" fill-rule="nonzero" mask="url(#mask-12)"></path>
                        </g>
                        <g id="Fill-15-Clipped">
                            <mask id="mask-14" fill="white">
                                <use xlink:href="#path-13"></use>
                            </mask>
                            <g id="path-5"></g>
                            <polygon id="Fill-15" fill="#005EA3" fill-rule="nonzero" mask="url(#mask-14)" points="20.2902237 50.5545028 20.2902237 44.5080522 21.5317153 44.5080522 21.5317153 46.9958332 24.0635119 46.9958332 24.0635119 44.5080522 25.3017491 44.5080522 25.3017491 50.5545028 24.0586305 50.5545028 24.0586305 47.951387 21.5317153 47.951387 21.5317153 50.5545028"></polygon>
                        </g>
                        <g id="Fill-16-Clipped">
                            <mask id="mask-16" fill="white">
                                <use xlink:href="#path-15"></use>
                            </mask>
                            <g id="path-5"></g>
                            <path d="M29.7393898,48.2276514 L29.3179661,46.961664 C29.1471186,46.4356514 29.0212881,45.998565 28.9128135,45.6148346 L28.8856949,45.6148346 C28.7777627,45.998565 28.6519322,46.4356514 28.4805424,46.961664 L28.0634576,48.2276514 L29.7393898,48.2276514 Z M30.0534237,49.1551798 L27.729356,49.1551798 L27.2737627,50.5542872 L26.0246779,50.5542872 L28.2153221,44.5083756 L29.6336272,44.5083756 L31.821017,50.5542872 L30.5198644,50.5542872 L30.0534237,49.1551798 Z" id="Fill-16" fill="#005EA3" fill-rule="nonzero" mask="url(#mask-16)"></path>
                        </g>
                        <g id="Fill-17-Clipped">
                            <mask id="mask-18" fill="white">
                                <use xlink:href="#path-17"></use>
                            </mask>
                            <g id="path-5"></g>
                            <path d="M30.3638779,15.1492176 C29.5589966,15.1492176 28.9059797,15.7975714 28.9059797,16.5979082 L28.9059797,22.1668514 C27.5533017,22.662683 25.1381153,23.6635082 23.310861,25.0550704 L23.3141153,25.058843 C22.4989288,25.6468346 21.7309288,26.296805 21.0171661,27.0028261 C17.1354034,30.8595334 14.8639458,36.056064 14.7684881,36.2754156 C14.4501153,37.0105398 14.7918102,37.8631546 15.5310644,38.1789776 C16.2714034,38.4958788 17.1288949,38.1563419 17.4472678,37.4212176 C17.4689627,37.3710956 19.6026576,32.5076346 23.0787254,29.0529819 C23.6856407,28.4525946 24.3386576,27.8990956 25.0318102,27.3989524 L25.0714034,27.3703882 C27.2848272,25.6780934 30.7614373,24.596965 30.7966916,24.5861861 C31.415539,24.3948598 31.8337084,23.8214198 31.8223186,23.1773776 L31.8223186,23.1601314 L31.8223186,16.5979082 C31.8223186,15.7975714 31.169844,15.1492176 30.3649627,15.1492176 L30.3638779,15.1492176 Z" id="Fill-17" fill="#008840" fill-rule="nonzero" mask="url(#mask-18)"></path>
                        </g>
                    </g>
                </g>
            </g>
        </g>
    </g>
</svg>