<?xml version="1.0" standalone="no"?>
<!DOCTYPE svg PUBLIC "-//W3C//DTD SVG 1.1//EN" "http://www.w3.org/Graphics/SVG/1.1/DTD/svg11.dtd" >
<svg xmlns="http://www.w3.org/2000/svg">
<metadata>Generated by IcoMoon</metadata>
<defs>
<font id="icon" horiz-adv-x="1024">
<font-face units-per-em="1024" ascent="960" descent="-64" />
<missing-glyph horiz-adv-x="1024" />
<glyph unicode="&#x20;" horiz-adv-x="512" d="" />
<glyph unicode="&#xe900;" glyph-name="activity" d="M970.828-62.774c19.846 5.191 38.998 20.931 47.22 38.807 3.619 7.867 4.68 14.32 4.696 28.557 0.039 34.142 29.662 3.687-340.093 349.643-180.553 168.932-329.911 307.442-331.907 307.8s-8.884-1.674-15.308-4.515l-11.68-5.166-6.287-25.782c-3.458-14.18-6.705-27.38-7.215-29.333-0.624-2.39 91.9-102.844 283.039-307.296 156.182-167.060 292.787-312.713 303.566-323.672 13.738-13.967 22.876-21.336 30.553-24.638 11.723-5.043 32.801-7.182 43.416-4.405zM478.504 149.984c10.474 5.386 19.477 19.205 19.477 29.895 0 7.946-8.666 23.852-15.848 29.088-8.563 6.243-29.054 6.239-37.42 0-9.439-7.047-14.208-14.841-15.366-25.112-3.076-27.286 24.718-46.433 49.157-33.864zM297.366 165.562c27.452 10.213 44.85 34.373 45.067 62.582 0.134 17.516-2.844 28.423-11.214 41.058-13.576 20.496-34.896 30.722-61.17 29.341-36.419-1.914-62.105-27.894-63.832-64.562-1.336-28.377 12.25-52.492 36.7-65.14 11.934-6.174 41.828-7.973 54.449-3.278zM151.060 329.366c7.793 4.992 15.819 19.73 15.819 29.048 0 8.517-7.485 22.903-14.639 28.133-4.482 3.277-9.336 4.328-19.986 4.328s-15.504-1.051-19.986-4.328c-7.153-5.23-14.639-19.615-14.639-28.133 0-9.486 8.138-24.213 16.098-29.133 9.699-5.994 27.906-5.953 37.332 0.084zM423.428 340.9c21.835 9.511 26.992 38.534 9.886 55.64-13.265 13.265-32.714 13.971-46.696 1.694-29.049-25.505 1.313-72.797 36.81-57.335zM839.42 419.356c20.863 10.283 26.256 36.391 11.087 53.668-21.77 24.795-63.498 6.533-59.811-26.176 2.631-23.342 28.048-37.683 48.724-27.492zM254.121 519.192c1.933 2.136 10.468 29.647 18.967 61.135s16.4 59.041 17.558 61.23c3.585 6.774 16.965 20.597 24.362 25.169 3.876 2.395 32.139 11.145 62.807 19.444s58.078 16.608 60.912 18.464c6.866 4.499 6.549 11.984-0.8 18.831-3.273 3.050-26.709 18.962-52.080 35.362s-48.47 32.886-51.332 36.637c-2.861 3.751-7.303 11.569-9.87 17.373-5.407 12.223-5.588 21.006-1.843 89.524 1.324 24.227 1.829 46.354 1.123 49.17s-3.279 6.188-5.717 7.492c-6.583 3.523-13.544-0.971-60.472-39.036-22.744-18.449-44.944-35.41-49.334-37.693-4.985-2.592-14.074-4.51-24.211-5.11-16.219-0.96-16.268-0.946-70.358 19.839-53.084 20.399-64.661 23.415-69.873 18.203-4.92-4.92-2.532-13.749 18.309-67.709 31.191-80.757 31.409-79.505-26.162-150.428-30.824-37.972-35.923-45.296-35.395-50.84 1.118-11.745 4.976-12.222 69.787-8.616 87.169 4.85 85.403 5.742 132.146-66.658 16.309-25.261 32.030-48.12 34.935-50.798 6.376-5.877 11.821-6.201 16.541-0.986zM657.732 531.81c3.952 2.015 9.795 7.085 12.984 11.266 7.592 9.954 8.261 29.211 1.337 38.485-19.829 26.559-59.512 17.066-63.138-15.104-2.909-25.81 25.961-46.3 48.817-34.647zM841.118 608.1c10.566 2.733 28.968 13.571 34.79 20.489 2.943 3.498 7.936 11.333 11.095 17.412 4.881 9.392 5.751 13.817 5.791 29.447 0.043 16.845-0.572 19.543-7.306 32.031-8.189 15.186-14.979 21.744-31.286 30.218-9.426 4.898-13.761 5.744-29.447 5.744s-20.022-0.846-29.447-5.744c-16.321-8.481-23.105-15.039-31.256-30.218-6.545-12.187-7.331-15.477-7.394-30.949-0.084-20.525 6.113-36.336 19.478-49.701 15.487-15.487 44.826-23.943 64.984-18.73zM691.925 765.12c3.715 1.617 9.558 6.615 12.984 11.108 5.197 6.813 6.231 10.235 6.231 20.622 0 20.747-12.582 33.329-33.329 33.329-10.389 0-13.808-1.034-20.63-6.236-32.181-24.546-2.389-74.984 34.744-58.823zM510.576 808.81c3.952 2.015 9.795 7.085 12.984 11.266 7.592 9.954 8.261 29.211 1.337 38.485-10.643 14.256-27.377 19.464-42.386 13.193-17.042-7.12-25.793-29.329-18.016-45.718 8.173-17.224 30.047-25.401 46.081-17.226zM874.138 834.778c3.952 2.015 9.795 7.085 12.984 11.266 7.592 9.954 8.261 29.211 1.337 38.485-19.829 26.559-59.512 17.066-63.138-15.104-2.909-25.81 25.961-46.3 48.817-34.647z" />
<glyph unicode="&#xe901;" glyph-name="adjust" d="M575.998 871.264c-0.002 39.413-0.014 39.526-5.763 51.5-11.408 23.761-32.174 36.948-58.236 36.979-12.441 0.014-17.047-0.965-27-5.743-14.609-7.014-25.086-17.613-31.863-32.236-4.918-10.612-5.099-12.395-5.118-50.5l-0.020-39.5h128l-0.002 39.5zM538.999-58.593c14.667 7.19 25.117 17.802 31.863 32.357l5.098 11 0.040 655h64v128h-256v-128h64l0.040-655 5.098-11c6.347-13.694 16.853-24.786 29.863-31.527 7.872-4.079 13.618-5.344 27-5.947 15.584-0.702 17.999-0.276 29 5.117zM959.544 745.264l-0.544 169.5-5.327 10c-11.586 21.75-29.766 33.201-54.896 34.582-14.512 0.797-17.527 0.306-28.583-4.656-8.246-3.701-15.494-8.982-21.777-15.869-17.382-19.054-16.438-7.758-16.427-196.557l0.010-166.5h128.088l-0.544 169.5zM923-58.593c13.635 6.684 24.514 17.226 31.329 30.357l4.671 9 1.056 403h63.944v128h-256v-128h64v-197.77c0-223.55-0.921-210.099 15.65-228.53 13.12-14.593 25.468-20.233 46.35-21.174 15.584-0.702 17.999-0.276 29 5.117zM191.98 615.264l-0.020 295.5-5.098 11c-2.804 6.050-8.42 14.482-12.48 18.737-18.523 19.414-49.277 25.071-73.382 13.498-14.609-7.014-25.086-17.613-31.863-32.236l-5.098-11-0.040-591h128l-0.020 295.5zM154.999-58.593c14.667 7.19 25.117 17.802 31.863 32.357l5.098 11 0.040 143h64v128h-256v-128h63.816l0.592-73.5c0.586-72.767 0.639-73.59 5.304-82.5 6.471-12.36 17.378-23.356 29.288-29.527 7.872-4.079 13.618-5.344 27-5.947 15.584-0.702 17.999-0.276 29 5.117z" />
<glyph unicode="&#xe902;" glyph-name="arrange" d="M930.746 960c-22.516 0.004-53.509-0.047-87.539-0.148l-123.746-0.367 24.605-121.277c13.532-66.702 24.819-121.453 25.082-121.668s13.282 15.323 28.934 34.527c24.782 30.407 28.648 34.901 29.941 34.789 1.18-0.102 4.959-3.168 18.348-14.871 55.608-48.609 92.93-95.427 117.035-146.816 15.315-32.647 25.915-73.566 28.191-108.836 0.267-4.148 0.679-7.54 0.918-7.539 0.719 0.002 6.602 13.825 11.184 26.277 13.882 37.732 21.127 79.371 20.227 116.238-0.743 30.409-6.629 62.906-16.594 91.621-17.136 49.38-48.541 98.731-91.758 144.195-1.412 1.485-2.731 3.232-2.934 3.879-0.286 0.919 5.711 8.631 27.453 35.309 15.3 18.773 27.603 34.305 27.34 34.52-0.132 0.107-14.172 0.164-36.687 0.168zM177.492 853.75c-39.469 0-71.242-31.773-71.242-71.242v-416.777c0-39.469 31.773-71.246 71.242-71.246h416.777c39.469 0 71.246 31.777 71.246 71.246v416.777c0 39.469-31.777 71.242-71.246 71.242h-416.777zM701.742 601.516v-267.402c0-2.648-0.136-5.263-0.398-7.84v-284.023h45.711v559.266h-45.312zM787.055 601.516v-559.266h45.715v559.266h-45.715zM872.77 596.531v-549.297c26.391 10.416 44.98 36.077 44.98 66.258v416.777c0 30.181-18.589 55.845-44.98 66.262zM31.484 388.207c-0.719-0.002-6.602-13.826-11.184-26.277-13.882-37.732-21.127-79.371-20.227-116.238 0.743-30.409 6.629-62.906 16.594-91.621 17.136-49.38 48.541-98.731 91.758-144.195 1.412-1.485 2.731-3.232 2.934-3.879 0.286-0.919-5.711-8.631-27.453-35.309-15.3-18.773-27.603-34.305-27.34-34.52s56.166-0.223 124.227-0.020l123.746 0.367-24.605 121.277c-13.532 66.702-24.819 121.453-25.082 121.668s-13.282-15.323-28.934-34.527c-24.782-30.407-28.648-34.901-29.941-34.789-1.18 0.102-4.959 3.168-18.348 14.871-55.609 48.609-92.93 95.427-117.035 146.816-15.315 32.647-25.915 73.566-28.191 108.836-0.257 4.15-0.679 7.54-0.918 7.539zM661.344 267c-10.573-5.576-22.628-8.742-35.457-8.742h-10.258v-216.008h45.715v224.75zM358.484 258.258v-144.766c0-30.46 18.933-56.321 45.715-66.547v211.312h-45.715zM444.199 258.258v-216.008h45.715v216.008h-45.715zM529.914 258.258v-216.008h45.715v216.008h-45.715z" />
<glyph unicode="&#xe903;" glyph-name="audio" d="M984.615 900.923v-689.231c0-86.769-129.846-118.154-196.923-118.154s-196.923 31.385-196.923 118.154c0 86.769 129.846 118.154 196.923 118.154 40.615 0 81.231-7.385 118.154-24v330.462l-472.615-145.846v-436.308c0-86.769-129.846-118.154-196.923-118.154s-196.923 31.385-196.923 118.154c0 86.769 129.846 118.154 196.923 118.154 40.615 0 81.231-7.385 118.154-24v595.077c0 25.846 17.231 48.615 41.846 56.615l512 157.538c5.538 1.846 11.077 2.462 17.231 2.462 32.615 0 59.077-26.462 59.077-59.077z" />
<glyph unicode="&#xe904;" glyph-name="bold" d="M412.667 31.333c29.333-12.667 61.333-21.333 93.333-21.333 152 0 250.667 60.667 250.667 223.333 0 41.333-5.333 84.667-27.333 120-62 100-151.333 105.333-258.667 105.333-20 0-48.667 0-67.333-6.667 0-70.667-0.667-141.333-0.667-211.333 0-46-6-170.667 10-209.333zM403.333 528.667c24-4 48.667-4.667 72.667-4.667 137.333 0 235.333 38.667 235.333 192.667 0 130-115.333 174.667-226.667 174.667-29.333 0-58-4-86.667-8.667 0-67.333 5.333-134.667 5.333-202 0-35.333-0.667-70.667-0.667-106 0-15.333 0-30.667 0.667-46zM42.667-64l1.333 62.667c42.667 10.667 86 11.333 127.333 28.667 23.333 39.333 20 108.667 20 153.333 0 14.667 1.333 652-14.667 683.333-10 19.333-108 24-130 26.667l-2.667 55.333c158.667 2.667 317.333 14 475.333 14 30 0 60.667-0.667 90.667-0.667 150.667 0 316.667-72 316.667-245.333 0-119.333-90.667-164-184.667-206.667 126.667-28.667 239.333-114.667 239.333-254.667 0-229.333-208.667-305.333-404-305.333-58.667 0-117.333 4-176 4-119.333 0-240-10.667-358.667-15.333z" />
<glyph unicode="&#xe905;" glyph-name="bringforward" d="M701.742 601.516v-267.402c0-2.648-0.136-5.263-0.398-7.84v-284.023h45.711v559.266h-45.312zM787.055 601.516v-559.266h45.715v559.266h-45.715zM872.77 596.531v-549.297c26.391 10.416 44.98 36.077 44.98 66.258v416.777c0 30.181-18.589 55.845-44.98 66.262zM661.344 267c-10.573-5.576-22.628-8.742-35.457-8.742h-10.258v-216.008h45.715v224.75zM358.484 258.258v-144.766c0-30.46 18.933-56.321 45.715-66.547v211.312h-45.715zM444.199 258.258v-216.008h45.715v216.008h-45.715zM529.914 258.258v-216.008h45.715v216.008h-45.715zM177.494 853.75h416.777c39.347 0 71.244-31.897 71.244-71.244v-416.777c0-39.347-31.897-71.244-71.244-71.244h-416.777c-39.347 0-71.244 31.897-71.244 71.244v416.777c0 39.347 31.897 71.244 71.244 71.244zM991.596 515.332c-2.276 35.27-12.874 76.19-28.188 108.837-24.105 51.389-61.427 98.208-117.035 146.817-13.389 11.703-17.168 14.766-18.347 14.868-1.294 0.112-5.16-4.38-29.942-34.787-15.651-19.204-28.672-34.74-28.935-34.526s-11.55 54.964-25.082 121.666l-24.603 121.276 123.746 0.37c68.060 0.204 123.961 0.195 124.225-0.019s-12.040-15.75-27.34-34.523c-21.743-26.677-27.739-34.39-27.452-35.308 0.203-0.647 1.521-2.391 2.934-3.876 43.217-45.464 74.621-94.816 91.757-144.196 9.965-28.715 15.85-61.211 16.594-91.62 0.901-36.867-6.345-78.509-20.227-116.241-4.581-12.452-10.463-26.274-11.181-26.276-0.239 0-0.653 3.392-0.92 7.54z" />
<glyph unicode="&#xe906;" glyph-name="bringfront" d="M177.492 853.75c-39.469 0-71.242-31.773-71.242-71.242v-416.777c0-39.469 31.773-71.246 71.242-71.246h416.777c39.469 0 71.246 31.777 71.246 71.246v416.777c0 39.469-31.777 71.242-71.246 71.242h-416.777zM701.742 601.516v-267.402c0-2.648-0.136-5.263-0.398-7.84v-284.023h45.711v559.266h-45.312zM787.055 601.516v-559.266h45.715v559.266h-45.715zM872.77 596.531v-549.297c26.391 10.416 44.98 36.077 44.98 66.258v416.777c0 30.181-18.589 55.845-44.98 66.262zM661.344 267c-10.573-5.576-22.628-8.742-35.457-8.742h-10.258v-216.008h45.715v224.75zM358.484 258.258v-144.766c0-30.46 18.933-56.321 45.715-66.547v211.312h-45.715zM444.199 258.258v-216.008h45.715v216.008h-45.715zM529.914 258.258v-216.008h45.715v216.008h-45.715z" />
<glyph unicode="&#xe907;" glyph-name="circle" d="M1024 448c0-282.77-229.23-512-512-512v0c-282.77 0-512 229.23-512 512v0c0 282.77 229.23 512 512 512v0c282.77 0 512-229.23 512-512v0z" />
<glyph unicode="&#xe908;" glyph-name="close" d="M1024 135.973c0-21.549-8.62-43.098-24.135-58.613l-117.226-117.226c-15.515-15.515-37.064-24.135-58.613-24.135s-43.098 8.62-58.613 24.135l-253.414 253.414-253.414-253.414c-15.515-15.515-37.064-24.135-58.613-24.135s-43.098 8.62-58.613 24.135l-117.226 117.226c-15.515 15.515-24.135 37.064-24.135 58.613s8.62 43.098 24.135 58.613l253.414 253.414-253.414 253.414c-15.515 15.515-24.135 37.064-24.135 58.613s8.62 43.098 24.135 58.613l117.226 117.226c15.515 15.515 37.064 24.135 58.613 24.135s43.098-8.62 58.613-24.135l253.414-253.414 253.414 253.414c15.515 15.515 37.064 24.135 58.613 24.135s43.098-8.62 58.613-24.135l117.226-117.226c15.515-15.515 24.135-37.064 24.135-58.613s-8.62-43.098-24.135-58.613l-253.414-253.414 253.414-253.414c15.515-15.515 24.135-37.064 24.135-58.613z" />
<glyph unicode="&#xe909;" glyph-name="collaborator" d="M352 448c-106 0-192 86-192 192s86 192 192 192c106 0 192-86 192-192s-86-192-192-192zM832 384h176c8.5 0 16-7.5 16-16v-96c0-8.5-7.5-16-16-16h-176v-176c0-8.5-7.5-16-16-16h-96c-8.5 0-16 7.5-16 16v176h-176c-8.5 0-16 7.5-16 16v96c0 8.5 7.5 16 16 16h176v176c0 8.5 7.5 16 16 16h96c8.5 0 16-7.5 16-16v-176zM464 272c0-35 29-64 64-64h128v-119c-24.5-18-55.5-25-85.5-25h-437c-80 0-133.5 48-133.5 129.5 0 113 26.5 286.5 173 286.5 8 0 13.5-3.5 19.5-8.5 49-37.5 96.5-61 159.5-61s110.5 23.5 159.5 61c6 5 11.5 8.5 19.5 8.5 42.5 0 80-16 108.5-48h-111.5c-35 0-64-29-64-64v-96z" />
<glyph unicode="&#xe90a;" glyph-name="dashline" d="M941.789 920.568l42.445-42.41 30.992 31.020-42.441 42.41zM729.742 708.353l42.441-42.41 169.641 169.773-42.445 42.41zM517.691 496.138l42.441-42.41 169.641 169.773-42.441 42.41zM305.641 283.924l42.445-42.41 169.641 169.773-42.445 42.41zM93.594 71.709l42.441-42.41 169.641 169.773-42.441 42.41zM8.773-13.178l42.441-42.41 42.41 42.445-42.441 42.41z" />
<glyph unicode="&#xe90b;" glyph-name="decagon" d="M857.38 448.663q0-123.454-40.614-182.763-40.292-59.309-124.421-59.309-81.55 0-123.131 61.243-41.259 61.243-41.259 180.829 0 124.743 40.292 183.73 40.292 59.309 124.098 59.309 81.55 0 123.131-61.888 41.903-61.888 41.903-181.151zM626.912 448.663q0-86.708 14.827-124.421 15.15-37.391 50.606-37.391 34.812 0 50.284 38.035t15.472 123.776q0 86.708-15.794 124.421-15.472 38.035-49.962 38.035-35.134 0-50.284-38.035-15.15-37.713-15.15-124.421zM400.312 213.037h-99.601v272.694l0.967 44.804 1.612 48.995q-24.82-24.82-34.49-32.556l-54.152-43.515-48.028 59.954 151.819 120.875h81.873v-471.251zM678.352-36.292l243.054 176.723 9.832 13.548 92.761 285.838-0.005 16.74-92.967 285.767-9.846 13.539-243.181 176.548-15.924 5.169-300.509-0.109-15.92-5.18-243.054-176.723-9.834-13.545-92.761-285.838 0.006-16.74 92.969-285.77 9.843-13.54 243.184-176.547 15.923-5.165 300.51 0.106 15.92 5.18zM653.613 12.696l-282.912-0.101-228.938 166.207-87.523 269.032 87.326 269.096 228.822 166.376 282.909 0.1 228.941-166.206 87.52-269.033-87.326-269.096-228.819-166.374z" />
<glyph unicode="&#xe90c;" glyph-name="dottetline" d="M914.877 893.633l42.441-42.406 42.41 42.441-42.441 42.41zM787.646 766.305l42.445-42.41 42.41 42.445-42.445 42.41zM660.416 638.977l42.445-42.41 42.41 42.445-42.445 42.406zM533.189 511.648l42.441-42.41 42.41 42.441-42.441 42.41zM405.959 384.32l42.441-42.41 42.41 42.441-42.441 42.41zM278.729 256.988l42.445-42.406 42.406 42.441-42.441 42.41zM151.498 129.66l42.445-42.41 42.41 42.445-42.445 42.41zM24.271 2.332l42.441-42.41 42.41 42.445-42.441 42.41z" />
<glyph unicode="&#xe90d;" glyph-name="download" d="M97.755-61.762c-10.058 2.678-22.393 13.754-28.001 25.142l-4.676 9.495v950.001l4.746 9.555c6.001 12.082 17.952 22.391 29.257 25.237 12.348 3.109 465.646 3.109 477.995 0 11.308-2.848 23.413-13.289 29.327-25.297l4.676-9.495v-950.001l-4.746-9.555c-6.001-12.082-17.952-22.391-29.257-25.237-11.417-2.875-468.498-2.726-479.321 0.156zM353.597-26.136c17.801 10.854 19.566 35.010 3.644 49.885-7.368 6.884-25.436 8.058-34.681 2.254-9.157-5.749-14.467-15.338-14.467-26.129 0-10.831 5.352-20.453 14.467-26.011 3.955-2.411 10.058-3.974 15.518-3.974s11.564 1.563 15.518 3.974zM576.078 463.875v398.001h-476v-796.001h476v398.001zM949.682 747.65c-43.561-0.379-92.764-10.268-130.869-26.302-59.98-25.239-112.047-66.472-163.275-129.302-12.334-15.127-15.515-19.413-15.444-20.807 0.078-1.529 6.323-6.416 48.366-37.847 26.553-19.85 48.095-36.336 47.872-36.634s-66.541-10.094-147.373-21.768l-146.968-21.225-21.229 146.967c-11.676 80.832-21.047 147.211-20.824 147.51s21.643-15.334 47.6-34.739c36.886-27.575 47.501-35.204 48.598-34.924 0.772 0.197 2.724 1.649 4.337 3.228 49.39 48.322 105.607 82.363 164.253 99.458 34.103 9.941 73.603 14.789 111.364 13.668 45.781-1.359 98.878-12.707 148.218-31.677 16.283-6.26 34.491-14.155 34.614-15.008 0.041-0.283-4.117-0.552-9.24-0.596z" />
<glyph unicode="&#xe90e;" glyph-name="grid" d="M781.576 239.030h181.818c33.576 0 60.606-27.030 60.606-60.606v-181.818c0-33.576-27.030-60.606-60.606-60.606h-181.818c-33.576 0-60.606 27.030-60.606 60.606v181.818c0 33.576 27.030 60.606 60.606 60.606zM781.576 599.515h181.818c33.576 0 60.606-27.030 60.606-60.606v-181.818c0-33.576-27.030-60.606-60.606-60.606h-181.818c-33.576 0-60.606 27.030-60.606 60.606v181.818c0 33.576 27.030 60.606 60.606 60.606zM421.091 239.030h181.818c33.576 0 60.606-27.030 60.606-60.606v-181.818c0-33.576-27.030-60.606-60.606-60.606h-181.818c-33.576 0-60.606 27.030-60.606 60.606v181.818c0 33.576 27.030 60.606 60.606 60.606zM421.091 599.515h181.818c33.576 0 60.606-27.030 60.606-60.606v-181.818c0-33.576-27.030-60.606-60.606-60.606h-181.818c-33.576 0-60.606 27.030-60.606 60.606v181.818c0 33.576 27.030 60.606 60.606 60.606zM60.606 239.030h181.818c33.576 0 60.606-27.030 60.606-60.606v-181.818c0-33.576-27.030-60.606-60.606-60.606h-181.818c-33.576 0-60.606 27.030-60.606 60.606v181.818c0 33.576 27.030 60.606 60.606 60.606zM60.606 599.515h181.818c33.576 0 60.606-27.030 60.606-60.606v-181.818c0-33.576-27.030-60.606-60.606-60.606h-181.818c-33.576 0-60.606 27.030-60.606 60.606v181.818c0 33.576 27.030 60.606 60.606 60.606zM60.606 960h181.818c33.576 0 60.606-27.030 60.606-60.606v-181.818c0-33.576-27.030-60.606-60.606-60.606h-181.818c-33.576 0-60.606 27.030-60.606 60.606v181.818c0 33.576 27.030 60.606 60.606 60.606zM781.576 960h181.818c33.576 0 60.606-27.030 60.606-60.606v-181.818c0-33.576-27.030-60.606-60.606-60.606h-181.818c-33.576 0-60.606 27.030-60.606 60.606v181.818c0 33.576 27.030 60.606 60.606 60.606zM421.091 960h181.818c33.576 0 60.606-27.030 60.606-60.606v-181.818c0-33.576-27.030-60.606-60.606-60.606h-181.818c-33.576 0-60.606 27.030-60.606 60.606v181.818c0 33.576 27.030 60.606 60.606 60.606z" />
<glyph unicode="&#xe90f;" glyph-name="heptagon" d="M377.299 117.044l209.79 458.557h-275.516v99.354h400.855v-74.133l-211.318-483.778h-123.81zM1018.209 295.746l5.792 25.265-95.259 419.116-16.141 20.278-387.068 186.838-25.92 0.024-387.411-186.133-16.178-20.25-96.022-418.939 5.743-25.276 267.672-336.277 23.342-11.27 429.802-0.391 23.364 11.224 268.284 335.789zM962.556 321.798l-250.325-313.311-401.032 0.364-249.754 313.77 89.592 390.897 361.48 173.672 361.16-174.33 88.88-391.062z" />
<glyph unicode="&#xe910;" glyph-name="hexagon" d="M314.82 406.539q0 165.845 69.93 246.857 70.312 81.012 210.172 81.012 47.766 0 74.898-5.732v-94.386q-34.010 7.643-67.255 7.643-60.759 0-99.354-18.342-38.213-18.342-57.32-54.263t-22.546-102.029h4.968q37.831 64.962 121.136 64.962 74.898 0 117.314-47.002t42.417-129.925q0-89.419-50.441-141.771-50.441-51.97-139.86-51.97-61.905 0-108.143 28.66-45.856 28.66-71.076 83.687-24.839 55.027-24.839 132.599zM516.586 255.979q37.831 0 58.084 25.221 20.253 25.603 20.253 72.605 0 40.888-19.107 64.198-18.724 23.692-56.938 23.692-35.92 0-61.523-23.31-25.221-23.31-25.221-54.263 0-45.474 23.692-76.808 24.074-31.335 60.759-31.335zM527.728-63.787l426.335 243.666 14.968 25.669-0.683 486.16-15.045 25.629-427.018 242.494-30.012-0.043-426.335-243.666-14.968-25.669 0.683-486.16 15.044-25.626 427.018-242.494 30.013 0.040zM512.637-3.963l-396.982 225.436-0.636 451.961 396.344 226.528 396.982-225.436 0.636-451.961-396.344-226.528z" />
<glyph unicode="&#xe911;" glyph-name="hotspot" d="M545.205 449.44c0.25-0.2 1.105-0.931 1.272-1.058 0.641-0.49 0.462 0.123-1.272 1.058zM426.214 948.452c-179.923 48.21-365.555-58.96-413.765-238.883s58.965-365.556 238.888-413.767c55.312-14.821 111.159-14.933 163.392-2.785-8.34 15.224-16.386 29.949-26.499 48.246-39.731-6.978-81.609-5.613-123.228 5.539-152.361 40.825-242.379 196.741-201.554 349.102s196.74 242.374 349.1 201.549c152.361-40.825 242.38-196.736 201.555-349.097-5.034-18.786-11.826-36.614-20.136-53.376 16.499 2.216 33.723 0.664 49.961-4.195 2.96 2.662 6.014 5.142 9.147 7.462 4.635 11.782 8.675 23.93 12.028 36.444 48.21 179.923-58.967 365.551-238.89 413.762zM376.636 763.424c-77.81 20.849-158.305-25.625-179.154-103.435s25.624-158.31 103.434-179.159c3.631-0.973 7.267-1.753 10.904-2.436-9.494 16.947-18.597 33.259-28.434 50.745-0.621 1.104-0.899 1.609-1.487 2.657-38.675 24.214-58.629 71.432-46.166 117.945 15.31 57.138 73.518 90.744 130.656 75.434 46.566-12.477 77.495-53.447 79.062-99.109 1.634-2.42 3.199-4.708 4.863-7.191 10.962-16.354 19.328-28.812 27.762-41.362 0.713 2.228 1.386 4.474 1.997 6.757 20.849 77.81-25.625 158.305-103.435 179.154zM359.311 659.683c-5.849 1.597-11.985 2.163-18.16 1.594-4.403-0.406-9.549-0.888-11.432-1.068-4.248-0.408-19.928-9.511-21.063-12.228-0.459-1.099-2.782-4.34-5.159-7.201-9.066-10.912-12.991-27.608-10.158-43.19 1.332-7.325 3.277-11.206 24.558-49.034 78.839-140.133 150.182-269.223 172.056-311.31l8.19-15.753-5.644-7.856c-22.694-31.571-28.864-43.354-30.828-58.854-4.513-35.604 7.429-63.439 35.894-83.667 4.194-2.981 27.871-16.845 52.615-30.806s73.694-41.579 108.779-61.373c35.086-19.794 66.111-37.552 68.946-39.463l5.155-3.474 290.039 168.094-3.656 19.348c-2.012 10.643-4.74 25.627-6.062 33.295-13.21 76.597-55.667 176.702-108.115 254.922-24.553 36.618-36.98 47.355-61.929 53.501-19.92 4.907-39.562 4.347-61.122-1.74-6.767-1.911-12.976-3.455-13.794-3.43s-5.865 2.918-11.211 6.431c-10.898 7.16-26.756 12.658-37.927 13.146-18.682 0.817-42.185-9.335-55.489-23.966-9.366-10.3-10.852-10.791-19.65-6.516-24.745 12.024-45.21 11.869-66.533-0.498-10.539-6.112-20.673-15.219-27.779-24.964-7.867-10.787-7.309-11.039-22.001 10.048-22.315 32.027-44.112 64.238-110.409 163.146-15.281 22.797-29.883 43.836-32.45 46.755-6.965 7.921-15.913 13.449-25.661 16.111z" />
<glyph unicode="&#xe912;" glyph-name="italics" d="M170.692-62.65l11.399 56.698c42.598 13.35 88.646 18.599 128.544 39.296 15.449 19.349 22.649 44.098 27.449 67.347 8.549 45.298 153.893 699.266 151.943 752.664v16.649c-36.748 19.949-81.297 14.699-121.344 21.299l12.599 68.697c86.096-4.050 173.393-10.649 260.087-10.649 70.647 0 141.294 6.6 211.939 10.649-2.7-19.949-7.35-40.048-12.597-59.397-46.048-15.899-94.646-23.249-140.094-41.248-14.549-35.998-17.999-75.296-24.599-113.394-31.949-172.643-74.697-345.284-109.944-516.575-6.75-31.949-39.448-164.693-36.748-192.742l0.75-11.999c40.648-9.3 81.895-13.947 123.293-20.547-1.35-22.049-5.4-44.098-10.65-65.997-14.699 0-28.649-2.1-43.348-2.1-38.096 0-77.395 12.75-115.343 13.35-46.048 0.75-91.946 1.35-137.394 1.35-59.247 0-117.294-10.050-175.941-13.35z" />
<glyph unicode="&#xe913;" glyph-name="line" d="M993.742 959.26c-7.747-0.239-14.686-3.516-19.701-8.673l-0.006-0.007-964.012-964.766c-5.36-5.216-8.686-12.499-8.686-20.559 0-15.836 12.838-28.674 28.674-28.674 8.068 0 15.357 3.332 20.567 8.695l964.019 964.773c5.355 5.215 8.676 12.494 8.676 20.55 0 15.836-12.838 28.674-28.674 28.674-0.302 0-0.602-0.005-0.902-0.014l0.044 0.001z" />
<glyph unicode="&#xe914;" glyph-name="list" d="M82.957 199.129c46.663 0 82.957-38.886 82.957-82.957s-38.886-82.957-82.957-82.957c-44.071 0-82.957 38.886-82.957 82.957s36.294 82.957 82.957 82.957zM292.65 172.741h699.025c17.908 0 32.325-14.417 32.325-32.325v-48.487c0-17.908-14.417-32.325-32.325-32.325h-699.025c-17.908 0-32.325 14.417-32.325 32.325v48.487c0 17.908 14.417 32.325 32.325 32.325zM82.957 199.129c46.663 0 82.957-36.294 82.957-82.957s-36.294-82.957-82.957-82.957c-46.663 0-82.957 36.294-82.957 82.957s36.294 82.957 82.957 82.957zM292.65 504.569h699.025c17.908 0 32.325-14.417 32.325-32.325v-48.487c0-17.908-14.417-32.325-32.325-32.325h-699.025c-17.908 0-32.325 14.417-32.325 32.325v48.487c0 17.908 14.417 32.325 32.325 32.325zM292.65 836.396h699.025c17.908 0 32.325-14.417 32.325-32.325v-48.487c0-17.908-14.417-32.325-32.325-32.325h-699.025c-17.908 0-32.325 14.417-32.325 32.325v48.487c0 17.908 14.417 32.325 32.325 32.325zM82.957 530.957c46.663 0 82.957-36.294 82.957-82.957s-36.294-82.957-82.957-82.957c-46.663 0-82.957 36.294-82.957 82.957s36.294 82.957 82.957 82.957zM82.957 862.785c46.663 0 82.957-36.294 82.957-82.957s-36.294-82.957-82.957-82.957c-46.663 0-82.957 36.294-82.957 82.957s36.294 82.957 82.957 82.957z" />
<glyph unicode="&#xe915;" glyph-name="media" d="M837.957 960c-102.711 0-186.043-83.332-186.043-186.043s83.332-186.043 186.043-186.043c102.711 0 186.043 83.332 186.043 186.043s-83.332 186.043-186.043 186.043zM822.453 882.48h31.004c8.479 0 15.508-7.025 15.508-15.504v-62.012h62.012c8.479 0 15.504-7.029 15.504-15.508v-31.008c0-8.479-7.025-15.5-15.504-15.5h-62.012v-62.016c0-8.479-7.029-15.504-15.508-15.504h-31.004c-8.479 0-15.504 7.025-15.504 15.504v62.016h-62.016c-8.479 0-15.504 7.021-15.504 15.5v31.008c0 8.479 7.025 15.508 15.504 15.508h62.016v62.012c0 8.479 7.025 15.504 15.504 15.504zM0 960v-1024h1024v642.473c-17.379-16.539-37.099-30.863-58.556-42.371l-1.444-0.707v-539.395h-904v904h539.383c12.299 22.901 26.714 42.622 43.455 60.097l-0.092-0.097h-642.746zM672.895 546.545l-286.038-286.038-89.389 89.389-178.769-178.774v-107.264h786.602v250.28l-232.406 232.406zM225.962 635.935c-59.219 0-107.263-48.045-107.263-107.263s48.045-107.263 107.263-107.263c59.219 0 107.263 48.045 107.263 107.263s-48.045 107.263-107.263 107.263z" />
<glyph unicode="&#xe916;" glyph-name="newstage" d="M878.082 851.033c20.471 0 36.951-16.48 36.951-36.951h-732.163c-20.471 0-36.951-16.48-36.951-36.951v-732.163c-20.471 0-36.951 16.48-36.951 36.951v732.163c0 20.471 16.48 36.951 36.951 36.951h732.163zM254.885 742.066c-20.471 0-36.951-16.48-36.951-36.951v-732.164c0-20.471 16.48-36.951 36.951-36.951h732.164c20.471 0 36.951 16.48 36.951 36.951v732.164c0 20.471-16.48 36.951-36.951 36.951h-732.164zM593.935 528.28h54.064c14.785 0 27.043-12.255 27.043-27.039v-108.132h108.132c14.785 0 27.036-12.258 27.036-27.043v-54.072c0-14.785-12.251-27.029-27.036-27.029h-108.132v-108.139c0-14.785-12.258-27.036-27.043-27.036h-54.064c-14.785 0-27.036 12.251-27.036 27.036v108.139h-108.143c-14.785 0-27.036 12.244-27.036 27.029v54.072c0 14.785 12.251 27.043 27.036 27.043h108.143v108.132c0 14.785 12.251 27.039 27.036 27.039zM769.115 960c20.471 0 36.951-16.48 36.951-36.951h-732.163c-20.471 0-36.951-16.48-36.951-36.951v-732.163c-20.471 0-36.951 16.48-36.951 36.951v732.163c0 20.471 16.48 36.951 36.951 36.951h732.163z" />
<glyph unicode="&#xe917;" glyph-name="nonagon" d="M709.18 489.461q0-165.081-69.548-246.474t-210.554-81.394q-49.677 0-75.28 5.35v94.768q32.099-8.025 67.255-8.025 59.23 0 97.443 17.196 38.213 17.578 58.466 54.645 20.253 37.449 23.31 102.793h-4.586q-22.164-35.92-51.206-50.441t-72.605-14.521q-72.987 0-115.021 46.62-42.034 47.002-42.034 130.307 0 89.801 50.823 141.771 51.206 52.352 139.096 52.352 61.905 0 108.143-29.042 46.62-29.042 71.458-84.451 24.839-55.027 24.839-131.453zM507.032 639.639q-36.685 0-57.32-25.221t-20.635-72.605q0-40.506 18.724-64.198t56.938-23.692q35.92 0 61.523 23.31 25.603 23.692 25.603 54.263 0 45.474-24.074 76.808-23.692 31.335-60.759 31.335zM957.075 168.164l9.335 16.275 57.59 331.908-3.309 18.473-169.231 291.273-14.407 12.023-316.868 114.347-18.765-0.050-316.235-116.082-14.343-12.099-167.636-292.199-3.205-18.488 59.401-331.588 9.43-16.225 258.648-215.829 17.647-6.369 336.869 0.923 17.617 6.465 257.462 217.241zM914.062 203.657l-242.203-204.364-316.897-0.867-243.314 203.033-55.881 311.934 157.696 274.878 297.49 109.2 298.084-107.57 159.201-274.010-54.176-312.233z" />
<glyph unicode="&#xe918;" glyph-name="octagon" d="M512.382 734.789q80.248 0 129.16-36.685 49.295-36.302 49.295-98.208 0-42.799-23.692-76.426-23.692-33.245-76.426-59.612 62.669-33.628 89.801-70.312 27.513-36.302 27.513-79.865 0-68.784-53.88-110.818-53.88-41.652-141.771-41.652-91.711 0-144.063 38.977t-52.352 110.436q0 47.766 25.221 84.833 25.603 37.067 81.776 65.344-47.766 30.188-68.784 64.58t-21.017 75.28q0 59.995 49.677 97.061t129.542 37.067zM425.256 317.502q0-32.863 22.928-51.206t62.669-18.342q43.945 0 65.727 18.724 21.781 19.107 21.781 50.059 0 25.603-21.781 47.766-21.399 22.546-69.93 47.766-81.394-37.449-81.394-94.768zM511.618 648.428q-30.188 0-48.913-15.667-18.342-15.285-18.342-41.27 0-22.928 14.521-41.27 14.903-17.96 53.498-37.067 37.449 17.578 52.352 35.92t14.903 42.417q0 26.367-19.107 41.652t-48.913 15.285zM732.662-55.417l282.813 282.89 8.524 20.586-0.053 400.016-8.53 20.583-282.892 282.816-20.586 8.524-400.016-0.053-20.583-8.53-282.813-282.89-8.527-20.588 0.056-400.014 8.53-20.583 282.889-282.818 20.589-8.522 400.011 0.054 20.589 8.529zM700.011-5.721l-375.899-0.053-265.835 265.765-0.048 375.898 265.762 265.833 375.895 0.051 265.839-265.763 0.048-375.898-265.762-265.833z" />
<glyph unicode="&#xe919;" glyph-name="pentagon" d="M521.935 470.146q81.012 0 128.778-45.474 48.148-45.474 48.148-124.575 0-93.622-57.702-144.063t-165.081-50.441q-93.24 0-150.56 30.188v102.029q30.188-16.050 70.312-26.367 40.124-9.935 76.044-9.935 108.143 0 108.143 88.654 0 84.451-111.964 84.451-20.253 0-44.709-4.203-24.456-3.821-39.742-8.407l-47.002 25.221 21.017 284.688h303.030v-100.118h-199.472l-10.318-109.672 13.375 2.675q23.31 5.35 57.702 5.35zM836.81-11l186.5 560.736-10.836 33.32-481.265 345.641-35.485-0.056-483.937-347.119-11.092-33.352 182.174-560.17 28.628-20.561 596.526 0.914 28.787 20.646zM786.326 27.955l-552.672-0.846-168.784 518.984 448.36 321.597 445.879-320.229-172.784-519.507z" />
<glyph unicode="&#xe91a;" glyph-name="play" d="M512 960c282.667 0 512-229.333 512-512s-229.333-512-512-512c-282.667 0-512 229.333-512 512s229.333 512 512 512zM768 411.333c13.333 7.333 21.333 21.333 21.333 36.667s-8 29.333-21.333 36.667l-362.667 213.333c-12.667 8-29.333 8-42.667 0.667-13.333-8-21.333-22-21.333-37.333v-426.667c0-15.333 8-29.333 21.333-37.333 6.667-3.333 14-5.333 21.333-5.333s14.667 2 21.333 6z" />
<glyph unicode="&#xe91b;" glyph-name="popup" d="M44.633 703.129l-14.246-8.070c-7.988-4.524-17.792-14.328-22.316-22.316l-8.070-14.246v-597.863l8.070-14.246c4.524-7.988 14.328-17.792 22.316-22.316l14.246-8.070h794.762l14.246 8.070c7.988 4.524 17.792 14.328 22.316 22.316l8.070 14.246v310.742h-35.684v-302.117l-17.574-17.574h-777.512l-17.574 17.574v444.246h342.867v189.625h-333.918zM809.082 695.082v-12.5h106.219l-149.911-149.974 18.719-18.719 73.128 73.096c40.22 40.203 73.964 73.096 74.987 73.096s1.859-23.063 1.859-51.25v-51.25h25v150h-150v-12.5zM992.946 431.219l6.136 6.136v310.227h-567.5v-310.227l12.273-12.273h542.955l6.136 6.136zM427.883 405.799c-5.578 3.159-12.424 10.005-15.584 15.584l-5.635 9.949v417.5l5.635 9.949c3.159 5.578 10.006 12.424 15.584 15.584l9.949 5.635h555l9.949-5.635c5.578-3.159 12.424-10.006 15.584-15.584l5.635-9.949v-417.5l-5.635-9.949c-3.159-5.578-10.006-12.424-15.584-15.584l-9.949-5.635h-555l-9.949 5.635z" />
<glyph unicode="&#xe91c;" glyph-name="preview" d="M570.696 168.996c104.69 14.218 209.387 60.819 315.937 140.623 51.198 38.346 126.041 107.56 133.215 123.195 9.377 20.435 4.388 30.138-35.467 68.986-75.64 73.728-152.298 128.74-235.72 169.158-84.092 40.743-156.851 58.797-236.953 58.797-79.484 0-152.624-18.023-235.379-58.003-84.331-40.741-161.256-95.835-237.294-169.952-32.78-31.952-39.137-40.721-39.137-53.989s6.357-22.037 39.137-53.989c131.546-128.222 276.713-206.831 415.286-224.881 28.946-3.77 88.418-3.743 116.374 0.054zM657.005 281.528c42.584 31.743 71.115 73.562 83.058 121.744 6.126 24.715 6.126 64.365 0 89.079-11.943 48.182-40.474 90.001-83.058 121.744-8.619 6.424-14.661 11.681-13.428 11.681s12.783-4.163 25.668-9.251c76.349-30.148 154.833-80.324 229.796-146.912 12.421-11.033 22.584-20.844 22.584-21.802s-10.163-10.769-22.584-21.802c-74.596-66.262-151.33-115.448-228.366-146.383-13.197-5.3-25.198-9.668-26.668-9.708s4.379 5.184 12.997 11.609zM354.17 279.098c-76.349 30.148-154.833 80.324-229.797 146.912-12.421 11.033-22.584 20.844-22.584 21.802s10.163 10.769 22.584 21.802c74.964 66.588 153.447 116.764 229.797 146.912 12.885 5.088 24.435 9.251 25.668 9.251s-4.81-5.256-13.428-11.681c-42.584-31.743-71.115-73.562-83.058-121.744-6.126-24.715-6.126-64.365 0-89.079 11.943-48.182 40.474-90.001 83.058-121.744 8.619-6.424 14.661-11.681 13.428-11.681s-12.783 4.163-25.668 9.251zM583.124 443.703c-14.801 5.691-32.758 22.149-40.961 37.539-21.911 41.108-5.271 91.108 36.981 111.122 12.695 6.013 14.932 6.417 35.543 6.417 20.462 0 22.826-0.418 33.898-5.999 32.467-16.364 51.216-51.63 45.568-85.712-5.078-30.644-26.388-55.855-55.147-65.244-16.089-5.252-39.377-4.47-55.882 1.876z" />
<glyph unicode="&#xe91d;" glyph-name="questions" d="M322.315 276.761c27.602 0 48.302-22.953 48.302-50.553 0-27.602-20.7-48.302-48.302-48.302-27.452 0-48.156 20.7-48.156 48.302 0 27.6 20.704 50.553 48.156 50.553zM542.676 398.419l88.357-50.998-50.109-86.864-88.35 51.158 50.102 86.703zM662.535 706.846c28.5-0.3 56.85-8.258 81.152-22.359 64.805-37.353 103.205-118.21 61.052-191.263-52.354-90.607-112.652-28.647-156.454-104.553l-1.501-2.703-82.959 47.858 1.501 2.703c53.704 92.855 123.604 41.549 159.157 103.052 8.251 14.251 24.003 50.549-19.35 75.6-44.551 25.652-74.399-4.645-85.8-24.297l-80.256 46.204c28.502 49.504 76.055 70.208 123.458 69.758zM127.001 837.495l-66.61-27.451c-50.553-20.701-73.499-75.899-52.797-126.452l119.407-287.27v441.174zM563.679 913.409c-39.003 0-73.508-22.959-89.559-59.711l-243.616-588.339c-4.65-13.801-6.899-25.353-6.899-39.152 0-36.753 22.951-71.25 59.704-87.301l363.177-149.409c13.651-4.5 25.199-6.906 38.999-6.906 36.753 0 71.257 22.954 87.308 59.857l243.616 585.942c20.701 50.554-2.251 108.002-52.804 128.704l-360.925 149.409c-11.401 4.65-25.198 6.907-38.999 6.907zM322.315 913.409c-52.804 0-98.71-45.909-98.71-98.863v-310.219l169.961 409.082h-71.251z" />
<glyph unicode="&#xe91e;" glyph-name="quiz" d="M545.521 884.697c-0.001 0-0.002 0-0.003 0-264.258 0-478.481-190.953-478.482-426.506v0c0.177-93.765 34.271-180.402 91.926-250.717l-0.943 1.206c-14.003-23.74-79.578-129.927-139.138-141.697-55.912-11.050 21.858-55.591 109.167-55.68 69.028-0.071 150.927 36.722 204.176 65.292 62.15-28.261 135.543-44.846 213.274-44.909h0.023c264.257 0.002 478.479 190.954 478.479 426.506v0c0 235.552-214.222 426.504-478.478 426.506h-0.001zM268.847 599.333c16.103 0 31.003-2.525 44.702-7.572 13.94-5.047 26.080-12.497 36.415-22.351 10.335-9.614 18.386-21.628 24.154-36.048 6.009-14.42 9.009-31.004 9.009-49.751 0-23.554-4.323-43.624-12.976-60.208-8.652-16.344-20.431-29.199-35.333-38.573 3.605-1.682 7.814-3.486 12.621-5.409 5.047-1.923 10.212-3.847 15.5-5.769 5.528-1.923 11.174-3.727 16.942-5.409 5.768-1.923 11.18-3.606 16.227-5.048 0.24-1.442 0.361-2.639 0.361-3.6v-3.246c0-13.699-3.608-23.675-10.818-29.924-6.97-6.249-16.224-9.376-27.76-9.376-11.056 0-22.468 3.126-34.245 9.376-11.777 6.009-23.796 14.781-36.054 26.318l-15.86 14.778h-2.885c-16.343 0-31.49 2.526-45.429 7.573-13.94 5.287-25.954 12.858-36.048 22.712s-18.025 21.994-23.794 36.415c-5.768 14.42-8.654 30.884-8.654 49.39 0 18.747 2.886 35.331 8.654 49.751 6.009 14.421 14.060 26.435 24.154 36.048 10.335 9.854 22.348 17.304 36.048 22.351 13.94 5.047 28.966 7.572 45.069 7.572zM448.047 595.727c5.528 0 10.338-0.481 14.424-1.442 4.326-0.721 7.928-2.158 10.812-4.321s5.049-5.169 6.491-9.015c1.442-3.846 2.164-8.896 2.164-15.145v-109.953c0-11.536 3.127-20.55 9.376-27.039 6.489-6.489 14.781-9.736 24.875-9.736 10.335 0 18.626 3.247 24.875 9.736s9.37 15.502 9.37 27.039v136.632c2.644 0.48 6.853 1.082 12.621 1.803 5.768 0.961 11.294 1.442 16.582 1.442 5.528 0 10.338-0.481 14.424-1.442 4.326-0.721 7.928-2.158 10.812-4.321s5.049-5.169 6.491-9.015c1.442-3.846 2.164-8.896 2.164-15.145v-111.035c0-12.978-2.285-24.877-6.851-35.693-4.326-10.575-10.694-19.709-19.106-27.4-8.412-7.451-18.628-13.217-30.645-17.303s-25.594-6.13-40.736-6.13c-15.142 0-28.725 2.044-40.742 6.13s-22.227 9.852-30.639 17.303c-8.412 7.691-14.906 16.825-19.472 27.4-4.326 10.816-6.485 22.715-6.485 35.693v137.714c2.644 0.48 6.847 1.082 12.615 1.803 5.768 0.961 11.294 1.442 16.582 1.442zM688.537 595.727c5.528 0 10.332-0.481 14.418-1.442 4.326-0.721 7.934-2.158 10.818-4.321s5.049-5.169 6.491-9.015c1.442-3.846 2.164-8.896 2.164-15.145v-190.349c-2.644-0.721-6.853-1.442-12.621-2.164-5.528-0.721-11.054-1.082-16.582-1.082s-10.458 0.481-14.785 1.442c-4.086 0.721-7.567 2.164-10.451 4.327s-5.049 5.164-6.491 9.009c-1.442 3.846-2.164 8.896-2.164 15.145v190.349c2.644 0.48 6.853 1.082 12.621 1.803 5.768 0.961 11.294 1.442 16.582 1.442zM783.256 593.564h134.474c10.575-8.653 15.86-20.185 15.86-34.606 0-6.009-1.443-12.021-4.327-18.030-2.644-5.768-6.125-11.294-10.452-16.582l-81.838-98.78h92.29c1.682-2.644 3.246-6.251 4.688-10.818s2.164-9.371 2.164-14.418c0-9.373-2.165-16.102-6.491-20.188-4.086-4.086-9.491-6.13-16.221-6.13h-142.041c-4.086 3.365-7.453 7.929-10.097 13.697s-3.967 12.382-3.967 19.833c0 6.009 1.563 12.136 4.688 18.385s6.847 12.015 11.173 17.303l82.92 98.78h-88.684c-1.682 2.644-3.246 6.251-4.688 10.818s-2.164 9.371-2.164 14.418c0 9.373 2.044 16.108 6.13 20.194 4.326 4.086 9.852 6.124 16.582 6.124zM269.208 548.501c-14.901 0-26.921-5.406-36.054-16.221-8.893-10.575-13.336-26.797-13.336-48.669s4.444-38.214 13.336-49.029c8.893-10.816 20.792-16.227 35.693-16.227 15.142 0 27.155 5.411 36.048 16.227s13.342 27.158 13.342 49.029c0 21.631-4.449 37.854-13.342 48.669-8.652 10.816-20.546 16.221-35.687 16.221z" />
<glyph unicode="&#xe91f;" glyph-name="readalong" d="M552.898 445.277c0.249-0.2 1.105-0.931 1.272-1.058 0.641-0.49 0.462 0.123-1.272 1.058zM0 960v-381.25h286.984c-1.824 4.464-2.629 7.533-3.25 11.047-3.884 21.992 1.499 45.556 13.93 60.957 0.719 0.896 1.39 1.733 2.078 2.594-1.848 1.202-3.571 2.579-5.148 4.156-6.623 6.623-9.938 15.631-9.938 27.023v168.105c0 11.392 3.314 20.4 9.938 27.023s15.631 9.934 27.023 9.934h131.145c1.855-2.914 3.445-6.755 4.77-11.523 1.59-4.769 2.383-9.803 2.383-15.102 0-10.068-2.25-17.222-6.754-21.461-4.239-4.239-9.936-6.359-17.090-6.359h-83.855v-36.957h89.418c1.855-2.914 3.445-6.755 4.77-11.523 1.59-4.504 2.383-9.408 2.383-14.707 0-10.068-2.116-17.218-6.355-21.457s-9.936-6.359-17.090-6.359h-73.125v-41.73h102.137c1.855-2.914 3.445-6.755 4.77-11.523 1.59-4.769 2.383-9.803 2.383-15.102 0-10.068-2.25-17.355-6.754-21.859-4.239-4.239-9.936-6.355-17.090-6.355h-23.074c8.011-11.444 23.358-34.399 39.289-58.863 2.557-3.926 4.031-6.178 6.492-9.957h563.633v381.25h-1024zM129.121 896.348c36.562 0 64.114-7.684 82.66-23.051s27.82-36.162 27.82-62.391c0-16.426-4.241-30.472-12.719-42.129s-18.546-20.665-30.203-27.023c9.538-12.982 18.942-25.166 28.215-36.559s16.561-21.727 21.859-31c-2.649-9.273-7.55-16.427-14.703-21.461-6.888-4.769-14.706-7.152-23.449-7.152-5.829 0-10.863 0.664-15.102 1.988s-7.946 3.178-11.125 5.562c-3.179 2.384-6.097 5.298-8.746 8.742s-5.166 7.155-7.551 11.129l-33.383 53.648h-21.062v-76.301c-2.914-0.795-7.548-1.592-13.906-2.387-6.094-0.795-12.188-1.191-18.281-1.191s-11.528 0.53-16.297 1.59c-4.504 0.795-8.344 2.385-11.523 4.77-2.914 2.384-5.164 5.695-6.754 9.934s-2.387 9.803-2.387 16.691v187.18c0 5.564 1.457 9.804 4.371 12.719 3.179 3.179 7.42 5.696 12.719 7.551 9.008 3.179 19.472 5.433 31.395 6.758 11.922 1.59 24.64 2.383 38.152 2.383zM844.012 896.348c20.665 0 39.344-2.517 56.035-7.551 16.956-5.034 31.394-12.852 43.316-23.449 12.187-10.333 21.591-23.443 28.215-39.34s9.937-34.709 9.937-56.434c0-21.195-3.18-39.74-9.539-55.637-6.359-15.631-15.5-28.88-27.422-39.742-11.657-10.598-25.699-18.545-42.125-23.844s-34.575-7.949-54.445-7.949c-4.504 0-9.671 0.133-15.5 0.398s-11.919 0.795-18.277 1.59c-6.094 0.795-12.321 1.855-18.68 3.18-6.094 1.060-11.791 2.646-17.090 4.766-14.572 5.564-21.855 15.235-21.855 29.012v185.59c0 5.564 1.457 9.804 4.371 12.719 3.179 3.179 7.416 5.696 12.715 7.551 11.392 3.709 23.447 6.093 36.164 7.152 12.717 1.325 24.112 1.988 34.18 1.988zM606.777 893.566c13.247 0 24.905-1.987 34.973-5.961 10.333-3.709 16.953-9.67 19.867-17.883 4.769-13.777 9.936-29.809 15.5-48.090s11.128-37.223 16.691-56.828c5.564-19.341 10.994-38.549 16.293-57.625 5.299-18.811 9.936-35.503 13.91-50.074-3.179-3.709-7.946-6.623-14.305-8.742-6.359-2.384-13.909-3.578-22.652-3.578-6.359 0-11.793 0.53-16.297 1.59-4.239 1.060-7.816 2.65-10.73 4.77-2.649 2.12-4.899 4.903-6.754 8.348-1.59 3.444-3.046 7.418-4.371 11.922l-7.152 27.422h-71.934c-2.12-7.948-4.24-16.163-6.359-24.641s-4.236-16.692-6.355-24.641c-3.709-1.325-7.687-2.385-11.926-3.18-3.974-1.060-8.874-1.59-14.703-1.59-13.512 0-23.58 2.254-30.203 6.758-6.359 4.769-9.539 11.26-9.539 19.473 0 3.709 0.53 7.42 1.59 11.129s2.253 8.079 3.578 13.113c1.855 7.153 4.371 16.027 7.551 26.625 3.444 10.598 7.155 21.992 11.129 34.18 3.974 12.452 8.211 25.17 12.715 38.152s8.745 25.166 12.719 36.559c3.974 11.657 7.551 21.992 10.73 31 3.444 9.008 6.095 15.895 7.949 20.664 4.504 2.649 11.258 5.166 20.266 7.551 9.273 2.384 18.547 3.578 27.82 3.578zM128.723 840.711c-3.974 0-7.155-0.133-9.539-0.398s-5.031-0.662-7.945-1.191v-59.613h25.434c10.068 0 18.015 2.517 23.844 7.551 5.829 5.299 8.742 12.983 8.742 23.051s-3.31 17.618-9.934 22.652c-6.359 5.299-16.56 7.949-30.602 7.949zM848.781 840.313c-3.709 0-7.553-0.134-11.527-0.398-3.709-0.265-7.549-0.662-11.523-1.191v-138.297c2.914-0.53 6.491-1.060 10.73-1.59 4.239-0.265 8.213-0.398 11.922-0.398 9.008 0 17.222 1.323 24.641 3.973 7.683 2.649 14.174 6.757 19.473 12.32 5.564 5.564 9.8 12.718 12.715 21.461 3.179 9.008 4.77 19.739 4.77 32.191 0 23.845-5.564 41.726-16.691 53.648-11.127 12.187-25.962 18.281-44.508 18.281zM606.379 831.172c-3.709-11.127-7.95-23.579-12.719-37.355-4.504-13.512-8.607-27.29-12.316-41.332h49.277c-3.709 14.307-7.549 28.219-11.523 41.73-3.709 13.777-7.157 26.094-10.336 36.957h-2.383zM367.004 655.52c-5.849 1.597-11.985 2.163-18.16 1.594-4.403-0.406-9.549-0.888-11.432-1.068-4.248-0.408-19.928-9.511-21.063-12.228-0.459-1.099-2.782-4.34-5.159-7.201-9.066-10.912-12.991-27.608-10.158-43.19 1.332-7.325 3.277-11.206 24.558-49.034 78.839-140.133 150.182-269.223 172.056-311.31l8.19-15.753-5.644-7.856c-22.693-31.571-28.864-43.353-30.828-58.854-4.513-35.604 7.429-63.439 35.894-83.667 4.194-2.981 27.871-16.845 52.615-30.806s73.693-41.579 108.779-61.373c35.086-19.794 66.111-37.552 68.946-39.463l5.154-3.474 290.039 168.094-3.656 19.348c-2.012 10.643-4.74 25.627-6.062 33.295-13.21 76.597-55.667 176.702-108.115 254.922-24.553 36.618-36.98 47.355-61.929 53.501-19.92 4.907-39.562 4.347-61.122-1.74-6.767-1.911-12.976-3.455-13.794-3.43s-5.865 2.918-11.211 6.431c-10.898 7.16-26.756 12.658-37.927 13.146-18.682 0.817-42.185-9.335-55.489-23.966-9.366-10.3-10.852-10.791-19.65-6.516-24.745 12.024-45.21 11.869-66.533-0.498-10.538-6.112-20.673-15.219-27.779-24.964-7.867-10.787-7.309-11.039-22.001 10.048-22.315 32.027-44.112 64.238-110.409 163.146-15.281 22.797-29.883 43.836-32.45 46.755-6.965 7.921-15.913 13.449-25.661 16.111z" />
<glyph unicode="&#xe920;" glyph-name="readalong2" d="M523.492 959.965c-18.642-0.045-39.943-0.128-64.367-0.219l-173.563-0.641-14.41-7.324c-24.030-12.21-48.549-34.635-135.73-124.148-86.961-89.287-108.858-113.717-121.039-135.035-15.788-27.63-14.741-2.671-14.070-335.008l0.605-299.363 5.188-14.863c9.035-25.885 20.007-43.504 39.141-62.875 20.935-21.195 41.061-33.222 67.023-40.047 16.748-4.403 24.951-4.536 271.070-4.414 242.38 0.12 254.528 0.321 270.004 4.488 25.558 6.883 45.824 19.087 66.32 39.938 14.19 14.435 23.897 27.926 31.359 44.070l-56.047 52.121v-2.41l-5.164-13.141c-6.094-15.511-23.911-36.501-36.887-43.453-19.425-10.407-20.87-10.466-268.422-10.668-160.229-0.13-239.029 0.598-248.035 2.293-7.26 1.366-18.044 5.181-23.965 8.477-14.535 8.091-31.173 27.347-37.461 43.352l-5.164 13.141v272.090c0 253.628 0.26 272.586 3.848 279.324 5.252 9.865 13.537 16.109 27.047 20.391 9.138 2.896 27.108 3.82 91.457 4.695 44.046 0.599 82.259 1.546 84.918 2.105 6.572 1.383 18.342 11.877 21.438 19.109 1.681 3.927 2.928 35.92 3.703 95.090l1.168 89.172 5.563 11.316c10.964 22.305-1.844 20.603 160.883 21.359 151.301 0.703 162.69 0.091 181.652-9.785 14.083-7.335 31.89-27.839 38.258-44.047l5.164-13.141v-363.887l68.961 64.121v313.484l-5.176 16.008c-12.768 39.501-41.531 74.584-75.461 92.039-29.105 14.973-29.313 16.597-159.809 16.285zM387.449 761.457l-1.125-45.227c-0.825-33.231-2.056-47.801-4.637-54.941l-3.512-9.719 103.898 0.145c57.144 0.080 105.901 1.004 108.348 2.051 7.083 3.031 16.582 14.614 18.953 23.113 2.819 10.103 2.795 48.921-0.035 59.395-1.205 4.457-5.756 11.658-10.117 16.004l-7.93 7.902-203.844 1.277zM615.836 523.559l-461.422-1.172-0.617-34.871-0.613-34.867h462.652v35.457zM154.414 364.617v-70.883l301.535-1.172-0.609 36.027-0.613 36.027h-150.156zM153.301 205.707v-70.883h302.535v70.883h-151.266zM800.171 12.771c-6.401 2.213-10.378 5.237-14.066 10.697-4.21 6.233-4.884 10.056-4.891 27.729-0.004 8.866-0.261 16.785-0.573 17.599s-26.923 23.421-59.135 50.239l-58.568 48.76-0.043 196.522 56.249 46.801c30.937 25.741 57.442 47.801 58.899 49.024 2.636 2.21 2.653 2.329 3.185 21.605 0.592 21.463 1.319 24.165 8.416 31.261 6.503 6.503 10.65 7.614 29.887 8.005l17.233 0.351v-510.464l-15.689 0.034c-12.214 0.026-16.845 0.433-20.904 1.837zM902.048 72.069c-2.768 2.768-3.325 7.324-1.239 10.125 0.707 0.949 4.635 3.784 8.727 6.299 24.193 14.865 48.931 39.121 64.863 63.601 24.383 37.463 36.734 85.629 33.176 129.386-3.491 42.938-19.505 83.387-46.025 116.256-13.547 16.79-37.843 37.868-55.1 47.804-8.079 4.651-9.899 9.12-5.824 14.3 3.957 5.030 8.12 3.847 24.102-6.848 42.412-28.382 72.903-68.979 88.856-118.308 7.389-22.846 10.402-42.75 10.415-68.798 0.040-75.614-36.864-144.815-99.75-187.049-15.268-10.254-17.909-11.059-22.202-6.765zM899.639 142.332c-1.193 0.99-2.449 3.253-2.791 5.028-0.575 2.977 0.15 4.057 9.309 13.889 30.145 32.358 44.115 68.905 42.418 110.97-1.521 37.688-15.438 70.023-42.436 98.594-11.415 12.080-12.446 14.893-7.134 19.462 4.905 4.219 7.8 2.84 19.579-9.324 61.848-63.874 61.891-166.232 0.097-229.738-8.869-9.114-10.891-10.699-13.642-10.692-1.776 0.006-4.205 0.819-5.398 1.81zM554.305 171.814c-3.594 1.565-8.436 6.914-9.241 10.206-0.3 1.23-0.416 40.235-0.257 86.678l0.289 84.443 2.812 3.686c4.944 6.482 8.273 7.108 35.885 6.753l24.226-0.312 3.898-2.975c2.144-1.636 4.779-4.968 5.856-7.403 1.881-4.253 1.948-7.725 1.678-87.561l-0.281-83.132-2.264-3.64c-1.245-2.002-4.086-4.664-6.313-5.916-3.87-2.175-5.132-2.274-28.6-2.235-18.077 0.030-25.379 0.401-27.689 1.407zM860.474 266.011l-0.047 75.582 5.736-5.623c13.042-12.785 22.32-28.698 26.843-46.043 3.309-12.686 3.701-32.356 0.886-44.457-4.098-17.621-12.388-32.97-24.932-46.163l-8.441-8.878-0.047 75.582z" />
<glyph unicode="&#xe921;" glyph-name="record" d="M866.462 526.769v-78.769c0-182.154-137.846-332.308-315.077-352v-81.231h157.538c21.538 0 39.385-17.846 39.385-39.385s-17.846-39.385-39.385-39.385h-393.846c-21.538 0-39.385 17.846-39.385 39.385s17.846 39.385 39.385 39.385h157.538v81.231c-177.231 19.692-315.077 169.846-315.077 352v78.769c0 21.538 17.846 39.385 39.385 39.385s39.385-17.846 39.385-39.385v-78.769c0-152 123.692-275.692 275.692-275.692s275.692 123.692 275.692 275.692v78.769c0 21.538 17.846 39.385 39.385 39.385s39.385-17.846 39.385-39.385zM708.923 763.077v-315.077c0-108.308-88.615-196.923-196.923-196.923s-196.923 88.615-196.923 196.923v315.077c0 108.308 88.615 196.923 196.923 196.923s196.923-88.615 196.923-196.923z" />
<glyph unicode="&#xe922;" glyph-name="rectangle" d="M0 788.619h1024v-681.238h-1024v681.238z" />
<glyph unicode="&#xe923;" glyph-name="review" d="M790.406 123.21c3.492 1.591 10.367 9.613 15.279 17.828 21.155 35.381 52.406 75.056 88.54 112.409 23.319 24.106 25.303 26.909 25.231 35.655-0.127 15.428-11.041 24.707-25.803 21.938-11.040-2.071-63.818-56.769-92.151-95.503-11.496-15.716-21.697-28.631-22.669-28.701s-14.525 16.906-30.119 37.723c-15.593 20.817-30.104 38.522-32.245 39.344-9.988 3.833-20.272 1.488-26.633-6.072-12.334-14.658-12.699-13.916 44.704-90.763 35.468-47.482 40.039-51.071 55.866-43.86zM779.371 64.028c-67.377 7.621-125.195 55.78-146.763 122.245-6.185 19.060-6.912 24.753-6.806 53.306 0.108 29.079 0.791 33.891 7.56 53.266 9.219 26.389 20.091 44.698 38.542 64.91 45.509 49.852 117.685 69.058 182.466 48.554 82.596-26.142 135.122-110.986 120.645-194.874-6.738-39.046-21.39-68.6-46.875-94.551-39.864-40.593-92.343-59.238-148.769-52.856zM837.158 457.2c-4.057 1.032-11.527 2.008-16.598 2.168l-9.221 0.291v138.624c0 152.794 0.050 152.248-15.244 168.027-13.007 13.42-23.638 15.478-79.961 15.478h-50.067l1.421 43.032 44.262 0.691c24.344 0.38 51.813-0.472 61.041-1.895 36.468-5.62 65.412-29.42 77.356-63.608 3.468-9.926 4.099-30.618 4.83-158.343l0.841-146.925-5.641 0.291c-3.103 0.16-8.961 1.136-13.018 2.168zM451.094 960c-17.291 0.022-21.687-0.96-36.336-8.105-18.106-8.832-33.392-25.033-38.652-40.973l-2.852-8.645h-78.684c0 0-6.987-2.652-9.531-5.234-2.42-2.457-4.844-9.141-4.844-9.141v-56.199c0-15.531 0.071-27.132 0.363-36.203h340.945c0.374 8.908 0.492 20.231 0.492 35.469 0 56.589-1.545 64.296-13.805 68.957-3.404 1.294-22.661 2.352-42.797 2.352h-36.609l-4.816 10.883c-6.874 15.54-23.216 32.183-39.324 40.043-11.593 5.656-17.116 6.776-33.551 6.797zM450.383 917.027c37.779-0.018 50.209-51.423 16.734-69.211-16.451-8.742-35.030-3.736-47.211 12.719-16.435 22.202 2.071 56.506 30.477 56.492zM239.645 765.414c-27.764-0.748-56.177-1.652-85.551-2.789-24.036-0.93-43.422-19.364-43.422-43.418v-679.383c0-24.054 19.368-43.418 43.422-43.418h593.438c14.44 0 27.185 6.98 35.070 17.762-85.766 7.321-159.873 62.851-190.984 143.109-5.988-1.985-49.054-2.535-183.008-2.535-162.444 0-184.516 0.446-189.344 3.828-6.396 4.48-7.057 11.443-1.602 16.898 3.444 3.444 23.772 3.863 186.77 3.863h179.934c-5.341 19.308-8.084 39.241-8.156 59.273 0.045 23.288 3.699 46.429 10.832 68.598h-179.996c-161.029 0-182.954 0.443-187.781 3.824-6.637 4.648-7.018 11.221-0.969 16.695 4.102 3.712 20.966 4.070 191.805 4.070 95.424 0 174.64-0.684 185.82-1.555 34.629 77.704 110.058 129.291 195.031 133.383v255.586c0 24.054-19.378 42.703-43.422 43.418-34.621 1.029-69.66 1.957-105.098 2.789h-402.789zM450.32 636.672c130.476 0.022 225.47-0.906 228.965-2.234 7.964-3.028 10.062-9.427 5.414-16.52l-3.801-5.801h-229.684c-208.717 0-230.049 0.366-233.68 3.996-5.478 5.478-3.76 13.689 3.645 17.422 4.808 2.424 54.724 3.108 229.141 3.137zM450.672 484.25c224.6 0 227.95-0.071 232.797-4.918 2.705-2.705 4.918-6.026 4.918-7.379s-2.213-4.67-4.918-7.375c-4.847-4.847-8.196-4.918-233.223-4.918-218.056 0-228.488 0.201-232.375 4.496-5.289 5.845-5.154 10.974 0.426 16.023 4.116 3.725 23.782 4.070 232.375 4.070zM111.753-59.045c-28.685 9.305-51.091 31.986-60.234 60.975-4.84 15.346-4.929 22.186-4.929 378.854 0 314.242 0.493 364.886 3.655 375.535 5.677 19.117 20.615 40.169 36.039 50.792 22.247 15.322 30.958 17.049 92.477 18.332l54.713 1.141v-44.452l-53.483-0.787c-44.107-0.649-54.776-1.5-60.86-4.855-11.473-6.328-17.292-12.27-23.008-23.497l-5.271-10.353v-361.65c0-320.86 0.429-362.677 3.806-370.758 5.077-12.151 12.569-19.936 24.473-25.43 9.401-4.339 23.992-4.542 330.2-4.594 353.030-0.058 329.709-1.079 346.475 15.147 4.305 4.166 9.082 10.604 10.615 14.307 2.526 6.098 4.334 6.889 19.222 8.403 9.038 0.92 19.091 2.333 22.338 3.142 5.733 1.427 5.856 1.155 4.228-9.341-4.965-32.013-31.105-60.646-64.895-71.083-15.478-4.78-23.159-4.888-338.322-4.753-312.63 0.134-322.935 0.284-337.239 4.924z" />
<glyph unicode="&#xe924;" glyph-name="roundedrect" d="M111.423 788.619h801.154c61.537 0 111.423-49.886 111.423-111.423v-458.393c0-61.537-49.886-111.423-111.423-111.423h-801.154c-61.537 0-111.423 49.886-111.423 111.423v458.393c0 61.537 49.886 111.423 111.423 111.423z" />
<glyph unicode="&#xe925;" glyph-name="save" d="M682.667 618.667v226.667h-568v-226.667h568zM512 50.667c93.333 0 170.667 77.333 170.667 170.667s-77.333 170.667-170.667 170.667c-93.333 0-170.667-77.333-170.667-170.667s77.333-170.667 170.667-170.667zM797.333 960l226.667-226.667v-682.667c0-61.333-53.333-114.667-114.667-114.667h-794.667c-64 0-114.667 53.333-114.667 114.667v794.667c0 61.333 50.667 114.667 114.667 114.667h682.667z" />
<glyph unicode="&#xe926;" glyph-name="scribble" d="M933.095-58.116c3.678 1.762 21.231 9.644 39.006 17.515l32.32 14.311-0.752 9.818c-1.567 20.465-16.334 35.168-40.231 40.056-6.881 1.408-13.692 2.894-15.134 3.302-4.182 1.185 3.12 18.145 40.948 95.106l34.748 70.693-1.182 13.032c-2.928 32.294-33.708 66.32-55.842 61.731-15.594-3.234-80.145-44.124-103.365-65.479-26.489-24.36-54.547-38.241-84.389-41.748l-13.174-1.548 4.197 6.495c2.308 3.572 43.748 60.042 92.089 125.488s90.734 123.622 94.208 129.279c8.913 14.513 20.657 44.595 32.544 83.359l10.204 33.276-7.708 8.121c-4.239 4.467-12.019 13.937-17.288 21.046-9.748 13.152-14.678 17.165-21.085 17.165-1.97 0-13.879-9.779-26.465-21.732-13.084-12.426-40.501-34.265-64.026-50.999-22.629-16.097-48.963-35.912-58.52-44.035s-29.602-23.461-44.543-34.087c-14.941-10.625-43.492-31.213-63.446-45.75-52.392-38.168-58.085-41.221-53.767-28.836 3.072 8.814 57.188 68.272 163.603 179.755 106.828 111.916 133.52 142.308 170.407 194.025 18.651 26.149 22.396 33.255 22.396 42.488 0 11.945-15.854 34.285-29.142 41.064-17.918 9.141-25.121 6.071-69.213-29.5-89.151-71.922-97.145-77.073-225.956-145.615-70.641-37.589-90.050-46.748-92.939-43.86-3.73 3.73 26.314 39.709 62.848 75.261 19.002 18.491 54.609 52.39 79.127 75.33 51.286 47.986 121.723 120.515 127.431 131.218 8.804 16.507 3.17 45.128-12.077 61.344-9.414 10.013-18.981 9.78-38.242-0.933-28.705-15.966-75.251-44.147-100.95-61.122-26.978-17.819-40.856-24.202-62.18-28.601-6.854-1.414-39.326-13.44-72.159-26.724s-61.555-23.667-63.826-23.073c-5.51 1.441-5.234 1.897 27.968 46.169 28.431 37.911 32.121 45.394 29.12 59.058-2.998 13.648-19.159 26.873-32.832 26.865-6.25-0.003-129.591-56.891-180.507-83.254-30.479-15.781-39.030-19.274-47.183-19.274-17.797 0-18.056 0.843-5.788 18.845 15.789 23.169 22.94 40.276 21.47 51.367-1.509 11.388-22.934 54.003-28.702 57.090-7.058 3.777-24.138 0.272-73.085-15-51.706-16.133-77.843-22.095-111.082-25.342-28.824-2.815-38.234-1.332-51.294 8.085-5.701 4.111-12.574 9.065-15.272 11.009-5.832 4.202-11.433 2.842-20.819-5.056-15.482-13.027-17.932-33.031-6.212-50.725 7.464-11.268 37.273-38.213 46.013-41.591 7.639-2.952 33.462-2.393 65.921 1.428 15.802 1.86 29.069 3.045 29.482 2.631 2.695-2.695-11.124-13.702-47.695-37.992-22.997-15.274-45.991-31.825-51.097-36.781-11.31-10.976-15.149-22.381-10.919-32.443 5.369-12.773 44.742-44.688 58.258-47.224 12.16-2.281 56.3 9.12 95.771 24.737 46.378 18.35 117.907 41.032 120.674 38.266 0.603-0.603-1.728-3.739-5.18-6.97-10.499-9.828-103.511-82.882-156.729-123.098-55.809-42.175-73.275-54.243-105.875-73.158-12.259-7.113-25.171-15.548-28.694-18.745-12.567-11.405-15.757-27.553-8.321-42.121 5.548-10.87 9.945-14.614 25.93-22.082 18.347-8.57 40.822-8.688 60.121-0.316 126.278 54.785 217.959 107.895 323.645 187.483 45.551 34.303 50.817 37.607 84.251 52.854 46.302 21.116 81.739 35.935 84.071 35.158 3.439-1.146-10.291-14.513-68.468-66.653-108.308-97.069-124.372-109.864-242.955-193.521-86.82-61.249-99.185-70.802-140.802-108.787-17.371-15.855-39.939-34.357-50.151-41.116s-30.351-19.993-44.753-29.408c-27.303-17.849-32.881-24.154-32.881-37.158 0-17.023 21.103-35.48 40.568-35.48 22.599 0 75.57 22.601 210.598 89.858 126.166 62.842 146.492 74.825 240.315 141.665 87.299 62.193 154.883 105.324 212.18 135.411 23.558 12.37 25.164 12.889 28.803 9.293 3.645-3.6 0.226-7.528-62.841-72.196-142.614-146.234-148.375-151.686-210.462-199.178-35.329-27.024-76.593-61.442-133.736-111.549-22.679-19.887-51.767-44.293-64.639-54.237-28.801-22.249-65.505-57.614-101.003-97.323-14.795-16.55-33.169-36.703-40.831-44.784s-14.622-17.45-15.468-20.82c-6.007-23.935 27.44-53.103 56.895-49.615 17.831 2.112 167.975 75.683 230.965 113.174 55.733 33.171 131.622 86.74 177.093 125.008 84.061 70.743 211.625 174.886 225.303 183.937 4.75 3.144 10.124 5.074 12.059 4.331 4.547-1.745-9.502-22.799-47.791-71.621-59.166-75.441-118.129-143.713-181.637-210.316-39.154-41.062-79.317-93.083-79.317-102.735 0-10.973 9.718-19.474 37.564-32.86 14.177-6.815 27.824-12.343 30.326-12.285 6.967 0.163 51.295 20.645 78.392 36.221 13.328 7.661 66.861 38.72 118.962 69.019s99.532 57.192 105.402 59.762l10.672 4.672-1.439-8.271c-0.792-4.549-7.079-18.802-13.972-31.674-25.755-48.094-27.204-51.55-28.604-68.249-1.976-23.575 1.818-36.414 14.11-47.745 15.101-13.92 36.369-23.082 55.369-23.854 10.175-0.413 17.929 0.481 22.289 2.571z" />
<glyph unicode="&#xe927;" glyph-name="sendback" d="M191.23 853.75v-559.266h45.711v559.266h-45.711zM276.941 853.75v-559.266h45.715v559.266h-45.715zM362.656 853.75v-559.266h45.715v559.266h-45.715zM448.371 853.75v-559.266h45.715v559.266h-45.715zM534.086 853.75v-559.266h45.715v559.266h-45.715zM619.801 849.055v-549.875c26.781 10.226 45.715 36.090 45.715 66.551v416.777c0 30.46-18.933 56.321-45.715 66.547zM151.23 848.766c-26.392-10.416-44.98-36.077-44.98-66.258v-416.777c0-30.181 18.589-55.846 44.98-66.262v549.297zM701.742 601.516v-267.402c0-42.026-33.83-75.855-75.855-75.855h-267.402v-144.766c0-39.469 31.777-71.242 71.246-71.242h416.777c39.469 0 71.242 31.773 71.242 71.242v416.777c0 39.469-31.773 71.246-71.242 71.246h-144.766z" />
<glyph unicode="&#xe928;" glyph-name="sendbackward" d="M701.743 601.515v-267.4c0-42.026-33.832-75.858-75.858-75.858h-267.4v-144.764c0-39.469 31.777-71.243 71.246-71.243h416.777c39.469 0 71.243 31.774 71.243 71.243v416.777c0 39.469-31.774 71.246-71.243 71.246h-144.764zM191.23 853.75v-559.266h45.711v559.266h-45.711zM276.941 853.75v-559.266h45.715v559.266h-45.715zM362.656 853.75v-559.266h45.715v559.266h-45.715zM448.371 853.75v-559.266h45.715v559.266h-45.715zM534.086 853.75v-559.266h45.715v559.266h-45.715zM619.801 849.055v-549.875c26.781 10.226 45.715 36.090 45.715 66.551v416.777c0 30.46-18.933 56.321-45.715 66.547zM151.23 848.766c-26.392-10.416-44.98-36.077-44.98-66.258v-416.777c0-30.181 18.589-55.846 44.98-66.262v549.297zM32.404 380.668c2.276-35.27 12.874-76.19 28.188-108.837 24.105-51.389 61.427-98.208 117.035-146.817 13.389-11.703 17.168-14.766 18.347-14.868 1.294-0.112 5.16 4.38 29.942 34.787 15.651 19.204 28.672 34.74 28.935 34.526s11.55-54.964 25.082-121.666l24.603-121.276-123.746-0.37c-68.060-0.204-123.961-0.195-124.225 0.019s12.040 15.75 27.34 34.523c21.743 26.677 27.739 34.39 27.452 35.308-0.203 0.647-1.521 2.391-2.934 3.876-43.217 45.464-74.621 94.816-91.757 144.196-9.965 28.715-15.85 61.211-16.594 91.62-0.901 36.867 6.345 78.509 20.227 116.241 4.581 12.452 10.463 26.274 11.181 26.276 0.239 0 0.653-3.392 0.92-7.54z" />
<glyph unicode="&#xe929;" glyph-name="shape" d="M262.812 504.625c0 0 0 0 0 0-145.147 0-262.812-117.665-262.812-262.812 0 0 0 0 0 0v0c0 0 0 0 0 0 0-145.147 117.665-262.812 262.812-262.812 0 0 0 0 0 0v0c145.144 0.003 262.806 117.667 262.806 262.812v0c0 0 0 0 0 0 0 145.145-117.662 262.809-262.806 262.812v0zM762.421 432.066l-261.573-453.066h523.152l-261.579 453.066zM86 917v-408.703c49.712 33.465 110.921 53.444 176.793 53.52h0.019c176.73-0.004 319.996-143.273 319.996-320.004v0c-0.067-5.526-0.261-10.82-0.583-16.080l0.044 0.901 180.148 312.031 175.582-304.125v682.461h-852z" />
<glyph unicode="&#xe92a;" glyph-name="square" d="M0 960h1024v-1024h-1024z" />
<glyph unicode="&#xe92b;" glyph-name="star5" d="M827.927-39.302l-316.332 217.16-316.788-216.495 108.78 367.956-303.792 234.382 383.561 10.249 129.034 361.351 128.274-361.622 383.539-11.055-304.284-233.743z" />
<glyph unicode="&#xe92c;" glyph-name="star6" d="M67.649 193.638l236.267 255.131-234.376 256.869 339.083-77.048 105.268 331.41 102.816-332.179 339.643 74.54-236.267-255.131 234.376-256.869-339.083 77.048-105.268-331.41-102.816 332.179z" />
<glyph unicode="&#xe92d;" glyph-name="star7" d="M0 307.941l304.653 162.992-201.254 280.85 317.381-136.563 94.098 332.454 91.114-333.284 318.592 133.713-203.763-279.035 303.18-165.717-345.203-14.667 59.467-340.358-226.697 260.746-229.026-258.703 62.516 339.811z" />
<glyph unicode="&#xe92e;" glyph-name="star8" d="M0 448.441l319.824 79.355-169.551 282.555 282.262-170.038 79.905 319.687 79.355-319.824 282.555 169.551-170.038-282.262 319.687-79.905-319.824-79.355 169.551-282.555-282.262 170.038-79.905-319.687-79.355 319.824-282.555-169.551 170.038 282.262z" />
<glyph unicode="&#xe92f;" glyph-name="star9" d="M0 523.091l329.027 15.1-150.961 292.741 261.755-199.927 72.528 321.289 72.005-321.406 262.080 199.501-151.437-292.496 329.002-15.635-304.020-126.723 241.98-223.455-314.349 98.345 41.733-326.719-177.59 277.396-178.041-277.106 42.264 326.65-314.508-97.833 242.343 223.062z" />
<glyph unicode="&#xe930;" glyph-name="star10" d="M0 450.725l314.443 62.629-215.058 237.796 291.202-134.157-34.212 318.789 156.732-279.699 159.701 278.015-37.604-318.407 292.614 131.049-217.577-235.493 313.758-65.973-314.443-62.63 215.058-237.796-291.202 134.157 34.212-318.789-156.732 279.699-159.701-278.015 37.604 318.407-292.614-131.049 217.577 235.493z" />
<glyph unicode="&#xe931;" glyph-name="text" d="M446.154 655.385l-104.615-276.923c60.923-0.615 121.846-2.462 182.769-2.462 11.692 0 23.385 0.615 35.077 1.231-32 93.538-69.538 188.923-113.231 278.154zM0-24.615l1.231 48.615c57.846 17.846 120.615 5.538 146.462 72l145.846 379.077 172.308 445.538h78.769c2.462-4.308 4.923-8.615 6.769-12.923l126.154-295.385c46.154-108.923 88.615-219.077 135.385-327.385 27.692-64 49.231-129.846 80-192.615 4.308-9.846 12.923-28.308 21.538-35.077 20.308-16 76.923-19.692 105.846-30.769 1.846-11.692 3.692-23.385 3.692-35.077 0-5.538-0.615-10.462-0.615-16-78.154 0-156.308 9.846-234.462 9.846-80.615 0-161.231-6.769-241.846-9.231 0 16 0.615 32 2.462 48l80.615 17.231c16.615 3.692 49.231 8 49.231 30.769 0 22.154-79.385 204.923-89.231 230.154l-276.923 1.231c-16-35.692-78.154-196.923-78.154-220.308 0-47.385 90.462-49.231 125.538-54.154 0.615-11.692 0.615-23.385 0.615-35.692 0-5.538-0.615-11.077-1.231-16.615-71.385 0-143.385 12.308-214.769 12.308-8.615 0-20.923-3.692-29.538-4.923-38.769-6.769-76.923-8.615-115.692-8.615z" />
<glyph unicode="&#xe932;" glyph-name="textsize" d="M998.378 155.037c25.188 0 33.203-16.029 17.746-36.065l-72.131-92.739c-15.457-20.036-40.645-20.036-56.102 0l-72.131 92.739c-15.457 20.036-7.442 36.065 17.746 36.065h45.797v586.204h-45.797c-25.188 0-33.203 16.029-17.746 36.065l72.131 92.739c15.457 20.036 40.645 20.036 56.102 0l72.131-92.739c15.457-20.036 7.442-36.065-17.746-36.065h-45.797v-586.204h45.797zM46.37 887.22l30.913-15.457c4.007-1.717 108.768-2.862 120.79-2.862 50.377 0 100.754 2.29 151.131 2.29 41.217 0 81.862-0.572 123.080-0.572h167.732c22.899 0 36.065-5.152 51.522 16.601l24.044 0.572c5.152 0 10.877-0.572 16.029-0.572 1.145-64.116 1.145-128.232 1.145-192.348 0-20.036 0.572-42.362-2.862-62.399-12.594-4.58-25.761-8.587-38.928-10.304-13.167 22.899-22.326 48.087-30.913 73.275-4.007 11.449-17.746 88.732-18.891 89.877-12.022 14.884-25.188 12.022-42.935 12.022-52.094 0-106.478 2.29-158-4.007-2.862-25.188-5.152-52.094-4.58-77.855 0.572-160.863 2.29-321.725 2.29-482.588 0-44.080-6.87-90.449 5.725-132.812 43.507-22.326 95.029-25.761 139.681-45.797 1.145-9.159 2.862-18.891 2.862-28.623 0-5.152-0.572-10.877-1.717-16.601l-19.464-0.572c-81.29-2.29-161.435 10.304-243.298 10.304-57.819 0-115.638-10.304-173.457-10.304-0.572 9.732-1.717 20.036-1.717 29.768v5.152c21.754 34.92 100.181 35.493 136.247 56.674 12.594 28.051 10.877 183.189 10.877 219.254 0 115.638-3.435 231.276-3.435 346.914v66.978c0 10.304 2.29 51.522-4.58 59.536-8.015 8.587-83.007 6.87-92.739 6.87-21.181 0-82.435-9.732-99.036-21.754-27.478-18.891-27.478-133.384-61.826-135.674-10.304 6.297-24.616 15.457-32.058 25.188v219.254z" />
<glyph unicode="&#xe933;" glyph-name="triangle" d="M-0.006 2.533l523.317 892.068 500.683-893.211z" />
<glyph unicode="&#xe934;" glyph-name="underline" d="M32 896.667c-12 0.667-22 0.667-30 2.667l-2 58.667c8.667 0.667 17.333 0.667 26.667 0.667 23.333 0 48.667-0.667 74.667-2.667 62.667-3.333 100-4.667 110.667-4.667 38 0 75.333 0.667 112 2 36 1.333 68.667 2.667 97.333 3.333 28 0 47.333 0.667 57.333 1.333l-0.667-9.333 1.333-42.667v-6c-26.667-4-54-6-82.667-6-26.667 0-44-5.333-52.667-16.667-6-6.667-8.667-36-8.667-88 0-16 0.667-28.667 0.667-38.667l0.667-152.667 9.333-186.667c2.667-54 13.333-98.667 34-134.667 15.333-26 36.667-46.667 64-61.333 40-21.333 79.333-31.333 118-31.333 45.333 0 88 6 127.333 18.667 23.333 7.333 45.333 18 66 34 20.667 15.333 35.333 29.333 43.333 42.667 17.333 26.667 28.667 52.667 35.333 76 9.333 32.667 14 83.333 14 152.667 0 119.333-8.667 122.667-18.667 273.333l-2.667 39.333c-2 28.667-6.667 48.667-16 58.667-14.667 15.333-32 23.333-51.333 22.667l-66.667-1.333-9.333 2 1.333 57.333h56l136.667-6.667c45.333-2 88.667 2 130.667 6.667l12-1.333c2.667-16.667 4-28 4-34s-1.333-12.667-2.667-20.667c-18-4.667-36.667-8-56-8.667-31.333-4.667-49.333-8-52.667-11.333-6-6-10-14.667-10-27.333 0-8.667 1.333-22 2-38.667 0 0 5.333-12 14.667-264 3.333-100.667-3.333-168.667-10-202.667s-16-61.333-27.333-81.333c-17.333-29.333-42.667-56.667-74.667-82-32.667-24.667-72.667-44.667-121.333-59.333s-105.333-22-170-22c-73.333 0-136.667 10-189.333 30.667s-92.667 48-119.333 81.333c-26.667 33.333-45.333 76.667-55.333 130-7.333 36.667-10.667 89.333-10.667 158v222c0 84-4 131.333-11.333 142-10.667 15.333-43.333 24.667-98 26zM1024-42.667v42.667c0 12-9.333 21.333-21.333 21.333h-981.333c-12 0-21.333-9.333-21.333-21.333v-42.667c0-12 9.333-21.333 21.333-21.333h981.333c12 0 21.333 9.333 21.333 21.333z" />
<glyph unicode="&#xe935;" glyph-name="utilities" d="M501.093 332.861c-1.050 0-19.101-26.002-40.111-57.776s-40.17-57.77-42.581-57.77c-3.422 0-101.18 36.194-163.751 60.629-8.693 3.394-9.269-0.301-7.876-50.301l1.508-53.96 118.167-43.758c64.994-24.068 122.308-45.137 127.363-46.817 8.583-2.853 9.189 5.301 9.189 123.347 0 69.521-0.858 126.406-1.908 126.406zM566.025 361.574v-135.157c0-74.334 1.775-134.932 3.941-134.663s62.432 27.899 133.925 61.392l129.984 60.898v54.467c0 29.957-1.768 53.428-3.935 52.159-37.797-22.135-138.813-77.093-141.701-77.093-2.136 0-30.508 26.547-63.050 58.996l-59.165 59.002zM242.664 499.027c-5.022 2.051-99.928-133.679-95.847-137.078 0.922-0.768 58.142-22.989 127.156-49.381s126.914-47.873 128.67-47.73c1.756 0.142 23.682 28.322 48.718 62.618l45.515 62.355-124.298 53.46c-68.365 29.402-126.827 54.494-129.915 55.756zM847.006 531.687l-129.984-66.152c-71.493-36.386-129.99-67.577-129.99-69.311s24.227-27.296 53.835-56.8l53.835-53.641 126.681 67.454c69.677 37.1 129.264 69.043 132.411 70.988 3.349 2.069-17.611 25.088-50.532 55.499l-56.256 51.965zM405.977 630.011c-4.5-0.12-21.936-2.369-42.156-5.48-35.595-5.477-57.665-14.141-144.428-56.7-56.328-27.63-98.873-50.263-94.54-50.263 27.386-0.094 109.167 28.781 190.319 67.197 51.235 24.253 92.597 44.578 91.913 45.165-0.086 0.073-0.464 0.099-1.107 0.081zM652.477 814.65c-3.187-4.29-85.243-128.456-88.216-133.487-2.556-4.326 33.357-18.094 118.53-45.44 67.209-21.578 127.206-40.704 133.324-42.506 12.442-3.663 11.346-5.018 57.476 71.057 16.068 26.498 27.293 49.858 24.947 51.915-4.979 4.364-244.704 100.29-246.062 98.462zM625.071 862.317l87.334-30.414c48.033-16.73 123.97-42.878 168.743-58.102s83.423-29.445 85.895-31.609c2.472-2.164-19.168-42.375-48.093-89.354l-52.59-85.419 157.64-153.154-148.106-78.151-0.238-137.184-161.381-82.523c-93.539-47.834-167.667-82.614-176.338-82.723-8.227-0.106-86.811 27.482-174.63 61.304l-159.673 61.498v142.357l-55.643 20.95c-30.606 11.52-56.495 22.31-57.526 23.978s17.697 32.389 41.618 68.273c23.921 35.884 47.555 71.502 52.522 79.151l9.033 13.906-90.849-22.927c-83.857-21.163-91.361-22.249-97.486-14.119-3.65 4.844-5.963 10.837-5.136 13.318s72.877 42.303 160.104 88.491l158.597 83.981 85.501 12.968c47.026 7.131 90.592 14.070 96.811 15.42 7.813 1.696 28.696 29.893 67.597 91.268l56.294 88.816z" />
<glyph unicode="&#xe936;" glyph-name="video" d="M883.088-2.44c73.317 7.671 120.351 47.247 136.17 114.577 4.203 17.891 4.742 35.237 4.742 152.642 0 116.254-0.568 134.912-4.646 152.526-5.345 23.091-19.298 52.843-31.872 67.961-10.848 13.043-35.746 29.313-53.963 35.263-7.634 2.493-14.387 4.979-15.008 5.524s5.862 7.815 14.405 16.156c32.75 31.975 46.657 63.43 48.903 110.608 2.384 50.074-10.574 83.549-46.094 119.082-34.802 34.815-64.098 46.816-114.142 46.758-48.912-0.056-79.090-12.502-113.395-46.766-33.073-33.034-46.808-66.042-46.732-112.311 0.074-45.258 14.363-82.084 43.222-111.395 8.584-8.719 15.609-16.145 15.61-16.503 0.002-1.024-132.257 0.931-133.296 1.97-0.51 0.51 6.449 9.714 15.465 20.452s19.822 25.594 24.013 33.012c35.508 62.852 34.377 148.277-2.794 210.988-13.72 23.147-51.053 61.054-72.597 73.714-37.687 22.145-76.731 31.463-121.128 28.909-34.563-1.989-53.146-6.915-83.758-22.203-52.923-26.43-93.849-77.489-109.088-136.098-6.997-26.91-6.499-80.946 1.002-108.786 10.022-37.194 30.953-70.943 60.587-97.689l17.35-15.659-16.809-8.715c-9.245-4.793-23.656-14.818-32.025-22.277-24.55-21.881-39.569-59.385-43.618-108.923-1.243-15.211-2.797-21.834-4.931-21.015-1.714 0.658-49.848 27.282-106.966 59.165s-105.509 57.333-107.538 56.554c-5.641-2.165-5.496-399.765 0.147-401.931 2.109-0.809 50.657 23.312 107.885 53.602s105.29 55.073 106.806 55.073c1.616 0 3.452-11.903 4.437-28.766 2.867-49.048 15.332-83.476 39.461-108.989 26.445-27.961 57.834-41.736 106.464-46.718 33.592-3.442 480.578-3.262 513.729 0.207z" />
<glyph unicode="&#xe937;" glyph-name="whatsnew" horiz-adv-x="992" d="M884.571 443.429l88.714-86.786c12.857-12 17.143-27 12.857-45-5.143-17.572-16.286-28.5-33.429-32.786l-120.857-30.857 34.071-119.571c5.143-17.572 1.071-32.571-12.214-45-12.429-13.286-27.428-17.357-45-12.214l-119.571 34.071-30.857-120.857c-4.286-17.143-15.214-28.286-32.786-33.429-5.143-0.857-9.214-1.286-12.214-1.286-13.286 0-24.214 4.714-32.786 14.143l-86.786 88.714-86.786-88.714c-12-12.857-27-17.143-45-12.857-17.572 4.714-28.5 15.857-32.786 33.429l-30.857 120.857-119.571-34.071c-17.572-5.143-32.571-1.071-45 12.214-13.286 12.429-17.357 27.428-12.214 45l34.071 119.571-120.857 30.857c-17.143 4.286-28.286 15.214-33.429 32.786-4.286 18 0 33 12.857 45l88.714 86.786-88.714 86.786c-12.857 12-17.143 27-12.857 45 5.143 17.572 16.286 28.5 33.429 32.786l120.857 30.857-34.071 119.571c-5.143 17.572-1.071 32.571 12.214 45 12.429 13.286 27.428 17.357 45 12.214l119.571-34.071 30.857 120.857c4.286 17.572 15.214 28.5 32.786 32.786 17.572 5.143 32.571 1.071 45-12.214l86.786-89.357 86.786 89.357c12.429 12.857 27.428 16.929 45 12.214 17.572-4.286 28.5-15.214 32.786-32.786l30.857-120.857 119.571 34.071c17.572 5.143 32.571 1.071 45-12.214 13.286-12.429 17.357-27.428 12.214-45l-34.071-119.571 120.857-30.857c17.143-4.286 28.286-15.214 33.429-32.786 4.286-18 0-33-12.857-45l-88.714-86.786zM544 176.5v95c0 4.667-1.5 8.583-4.5 11.75s-6.667 4.75-11 4.75h-96c-4.333 0-8.167-1.667-11.5-5s-5-7.167-5-11.5v-95c0-4.333 1.667-8.167 5-11.5s7.167-5 11.5-5h96c4.333 0 8 1.583 11 4.75s4.5 7.083 4.5 11.75zM536 365.095l8 325.286c0 4.19-1.481 7.333-4.444 9.429-2.963 2.794-6.518 4.19-10.667 4.19h-97.778c-4.148 0-7.704-1.397-10.667-4.19-2.963-2.095-4.444-5.238-4.444-9.429l7.556-325.286c0-3.492 1.481-6.548 4.444-9.167s6.518-3.929 10.667-3.929h82.222c4.148 0 7.63 1.31 10.444 3.929s4.37 5.675 4.667 9.167z" />
<glyph unicode="&#xe939;" glyph-name="widget" d="M1023.977 159.947v194.706l-16.349-7.554c-22.503-10.397-45.695-16.074-71.547-17.515-33.537-1.869-53.776 4.973-65.552 22.16-8.191 11.953-8.225 21.709-0.159 44.655 17.47 49.697 4.374 78.33-35.827 78.33-40.797 0-55.231-30.312-38.138-80.095 3.71-10.806 6.746-23.528 6.746-28.271 0-16.481-14.426-30.667-36.123-35.523-15.030-3.364-43.933-0.465-89.257 8.951-17.163 3.566-32.35 6.483-33.751 6.483-3.444 0-6.881-8.072-13.336-31.32-7.529-27.114-9.606-80.492-3.584-92.083 3.507-6.749 5.001-7.646 13.679-8.203 8.009-0.515 13.163 1.122 28.972 9.201 16.39 8.376 21.115 9.827 32.003 9.827 21.030 0 36.689-8.968 50.293-28.804 16.387-23.892 21.549-57.851 11.911-78.355-16.512-35.128-63.131-49.532-97.008-29.973-27.176 15.69-30.472 16.511-35.791 8.917-5.102-7.284-4.237-29.324 3.125-79.622 3.572-24.407 6.495-48.031 6.495-52.498v-8.122h383.199v194.706zM619.128-32.735c0 1.113-0.962 4.555-2.139 7.649-8.654 22.762-16.113 86.056-13.018 110.467 4.653 36.701 24.941 53.635 50.647 42.274 26.308-11.628 38.464-15.196 51.748-15.188 25.902 0.015 36.070 12.829 36.070 45.456 0 27.477-7.892 41.594-26.605 47.59-12.654 4.055-29.712 1.007-47.86-8.551-19.216-10.12-26.521-11.824-37.738-8.804-13.484 3.631-21.378 11.584-25.47 25.661-6.724 23.13-0.811 88.392 11.001 121.429 1.876 5.246 3.092 9.857 2.703 10.247s-4.053-0.256-8.142-1.435c-39.333-11.335-125.446-19.090-142.062-12.794-17.219 6.524-21.087 21.261-8.686 33.088 3.933 3.751 10.853 9.621 15.378 13.044s9.588 9.481 11.251 13.462c3.662 8.765 4.003 38.444 0.56 48.729-6.757 20.181-22.005 30.419-45.195 30.346-23.192-0.073-36.771-7.482-46.096-25.151-6.997-13.257-6.312-38.767 1.539-57.372 12.363-29.295 15.116-47.839 8.324-56.071-5.4-6.544-47.656-14.172-68.842-12.428-26.684 2.197-60.802 14.977-87.677 32.844-8.005 5.322-15.154 9.676-15.887 9.676s-1.333-89.142-1.333-198.094v-198.094h193.764c118.738 0 193.764 0.784 193.764 2.024zM756.603 349.526c11.175 3.951 20.567 14.325 20.567 22.716 0 3.528-2.619 13.986-5.819 23.239-8.432 24.378-8.497 50.89-0.166 67.852 10.572 21.527 32.227 32.549 64.49 32.824 30.142 0.257 48.256-8.554 59.567-28.975 5.984-10.803 6.409-13.1 6.344-34.31-0.049-15.912-1.13-25.33-3.604-31.392-12.99-31.823-13.207-37.466-1.631-42.261 14.929-6.184 82.356 1.111 114.636 12.402l11.907 4.165 1.106 384.020-379.942-1.106-4.769-13.38c-11.358-31.865-17.953-85.228-13.9-112.473 2.593-17.431 4.972-22.448 10.646-22.448 1.863 0 12.703 4.343 24.091 9.652 36.186 16.869 58.946 20.329 74.828 11.374 33.114-18.671 39.696-95.79 10.561-123.736-20.043-19.225-53.487-18.794-85.829 1.106-14.189 8.731-20.285 9.076-26.058 1.475-3.837-5.053-4.659-9.804-5.427-31.392-0.796-22.381 2.763-69.451 7.899-104.459l1.429-9.742 15.872-1.583c8.73-0.871 30.25-5.011 47.823-9.201 35.022-8.35 42.453-8.936 55.378-4.366zM262.991 399.218c43.833 7.094 69.616 18.088 89.834 38.306 8.959 8.959 11.578 15.891 8.318 22.011-3.475 6.525-7.455 9.176-21.543 14.353-15.32 5.63-30.723 19.072-38.28 33.409-5.114 9.701-5.842 13.535-5.801 30.577 0.039 16.444 0.938 21.402 5.756 31.771 7.535 16.215 21.165 30.675 35.547 37.711 23.32 11.409 57.771 5.945 76.38-12.116 11.968-11.614 17.199-22.863 19.856-42.693 4.377-32.672 8.364-37.999 23.012-30.751 4.758 2.354 17.336 12.78 27.951 23.169 20.962 20.515 55.579 60.639 54.555 63.234-0.349 0.885-18.46 20.497-40.245 43.581-43.947 46.567-52.401 59.191-52.401 78.255 0 9.192 0.995 11.69 7.073 17.769 7.417 7.417 21.928 11.978 38.105 11.978 10.985 0 28.694 5.458 35.771 11.025 13.34 10.493 17.928 32.189 11.003 52.028-4.58 13.12-16.724 30.104-26.005 36.369-9.145 6.173-27.13 8.376-38.297 4.69-10.594-3.496-25.594-19.389-34.289-36.33-20.057-39.079-36.76-38.702-70.854 1.597-16.289 19.253-27.622 41.76-38.364 76.186l-7.929 25.41-9.009-6.259c-4.955-3.442-33.462-23.645-63.349-44.895s-98.304-69.812-152.037-107.915c-53.733-38.103-97.72-69.935-97.749-70.737s47.971-69.486 106.667-152.63l106.719-151.172 16.143-0.368c8.879-0.202 23.937 0.893 33.463 2.435z" />
<glyph unicode="&#xe93a;" glyph-name="wordinfo" d="M234.29 733.44c-75.56 0-136.98-61.408-136.98-136.97v-299.5c0-75.562 61.42-136.97 136.98-136.97h-7.37l5.38-97.030c0.562-9.823 8.665-17.577 18.579-17.577 5.347 0 10.168 2.256 13.562 5.867l0.009 0.010 102.010 108.73h417.25c75.56 0 136.98 61.408 136.98 136.97v299.5c0 75.562-61.42 136.97-136.98 136.97h-549.42zM348.050 611.16c13.376 0 24.292-2.996 32.74-8.98 8.8-5.632 14.258-15.312 16.37-29.040 5.632-35.905 10.2-65.823 13.72-89.76 3.872-23.937 6.868-43.652 8.98-59.14 2.464-15.137 4.224-26.932 5.28-35.38s2.114-15.132 3.17-20.060h2.64c3.168 14.080 6.164 27.102 8.98 39.070l8.44 35.91c3.168 12.32 6.342 25.342 9.51 39.070 3.168 14.080 6.51 30.097 10.030 48.050 3.872 1.76 9.854 3.698 17.95 5.81 8.448 2.464 16.902 3.69 25.35 3.69 14.784 0 27.104-2.284 36.96-6.86 9.856-4.224 15.838-10.562 17.95-19.010 3.872-14.432 7.392-27.988 10.56-40.66 3.52-12.32 6.862-24.284 10.030-35.9 3.168-11.264 6.164-22.536 8.98-33.8 3.168-11.264 6.164-23.050 8.98-35.37h2.64c3.168 21.473 5.986 41.889 8.45 61.25 2.464 19.713 4.748 38.893 6.86 57.55 2.112 19.009 4.228 37.665 6.34 55.97 2.112 18.657 4.218 37.491 6.33 56.5 13.024 7.392 26.936 11.090 41.72 11.090 13.024 0 24.286-2.818 33.79-8.45s14.25-15.134 14.25-28.51c0-7.744-0.88-18.838-2.64-33.27-1.408-14.080-3.514-29.919-6.33-47.52-2.464-17.601-5.46-36.079-8.98-55.44s-7.218-37.839-11.090-55.44c-3.872-17.601-7.916-33.618-12.14-48.050-3.872-14.080-7.57-24.996-11.090-32.74-5.28-4.928-13.902-8.982-25.87-12.15s-24.288-4.75-36.96-4.75c-16.545 0-30.624 2.116-42.24 6.34-11.264 4.576-18.136 10.914-20.6 19.010-4.576 14.080-9.5 30.799-14.78 50.16s-10.916 40.657-16.9 63.89c-4.928-22.881-10.030-45.235-15.31-67.060s-10.036-40.304-14.26-55.44c-5.28-4.928-13.2-8.982-23.76-12.15s-22.178-4.75-34.85-4.75c-15.841 0-30.266 2.116-43.29 6.34-12.672 4.576-20.948 10.914-24.82 19.010-3.168 6.336-6.688 15.66-10.56 27.98-3.52 12.672-7.218 26.93-11.090 42.77-3.872 16.193-7.916 33.623-12.14 52.28-3.872 18.657-7.57 37.313-11.090 55.97-3.168 18.657-6.164 36.779-8.98 54.38-2.816 17.953-4.922 34.326-6.33 49.11 4.928 4.576 11.79 8.798 20.59 12.67s18.302 5.81 28.51 5.81z" />
</font>
</defs>
</svg>
