<?xml version="1.0" encoding="utf-8"?>
<!-- Generator: Adobe Illustrator 24.2.1, SVG Export Plug-In . SVG Version: 6.00 Build 0)  -->
<svg version="1.1" id="Layer_1" xmlns="http://www.w3.org/2000/svg" xmlns:xlink="http://www.w3.org/1999/xlink" x="0px" y="0px"
	 viewBox="0 0 322 159" style="enable-background:new 0 0 322 159;" xml:space="preserve">
<style type="text/css">
	.st0{filter:url(#Adobe_OpacityMaskFilter);}
	.st1{fill-rule:evenodd;clip-rule:evenodd;fill:#FFFFFF;}
	.st2{mask:url(#mask-2_1_);fill-rule:evenodd;clip-rule:evenodd;fill:#FFFFFF;opacity:0.2;}
	.st3{opacity:9.577288e-02;fill:none;stroke:#4A00B2;stroke-width:1.5;stroke-linecap:round;enable-background:new    ;}
	.st4{fill:none;stroke:#4A00B2;stroke-width:1.5;stroke-linecap:round;}
	.st5{opacity:9.577288e-02;fill:none;stroke:#000000;stroke-width:1.5;stroke-linecap:round;enable-background:new    ;}
	.st6{fill-rule:evenodd;clip-rule:evenodd;fill:#4BCDA2;}
	.st7{fill:none;stroke:#4A00B2;stroke-linecap:round;}
	.st8{fill-rule:evenodd;clip-rule:evenodd;fill:#FBF272;}
	.st9{fill-rule:evenodd;clip-rule:evenodd;fill:#C1C1C6;}
	.st10{fill-rule:evenodd;clip-rule:evenodd;fill:#556A63;}
	.st11{fill-rule:evenodd;clip-rule:evenodd;fill:#E8E8EF;}
	.st12{fill-rule:evenodd;clip-rule:evenodd;fill:#F0F0F2;}
	.st13{filter:url(#Adobe_OpacityMaskFilter_1_);}
	.st14{mask:url(#mask-4_1_);fill-rule:evenodd;clip-rule:evenodd;fill:#FFFFFF;}
	.st15{fill:none;stroke:#D9CBC3;stroke-width:1.5;}
	.st16{fill:none;stroke:#D7CBC4;stroke-width:1.5;stroke-linecap:round;}
</style>
<g id="Group-3" transform="translate(0.267943, 0.000000)">
	<g id="Clip-2">
	</g>
	<defs>
		<filter id="Adobe_OpacityMaskFilter" filterUnits="userSpaceOnUse" x="0" y="0.1" width="320.8" height="156.5">
			<feColorMatrix  type="matrix" values="1 0 0 0 0  0 1 0 0 0  0 0 1 0 0  0 0 0 1 0"/>
		</filter>
	</defs>
	<mask maskUnits="userSpaceOnUse" x="0" y="0.1" width="320.8" height="156.5" id="mask-2_1_">
		<g class="st0">
			<polygon id="path-1_1_" class="st1" points="0,0.1 320.8,0.1 320.8,156.7 0,156.7 			"/>
		</g>
	</mask>
	<path  class="st2" d="M22,156.7c0,0-29.9-81.1-19.9-106C12,25.7,45.4,77,51.8,96.2c0,0-2.1-96.1,26.3-96.1
		c28.5,0,32,125.9,32,125.9s10-57.6,28.5-57.6c18.5,0-3.6,64,5.7,62.6c9.3-1.4,2.8-118.8,29.2-87.5c26.3,31.3,14.2,79.7,42.7,79
		c28.5-0.7-10-22.8,6.4-44.1c16.4-21.3,57.6,28.5,61.2,41.3c0,0-2.1-69,17.1-69c19.2,0,19.9,98.9,19.9,98.9L22,156.7z"/>
</g>
<line id="Stroke-6" class="st3" x1="80.8" y1="32" x2="80.8" y2="135"/>
<line id="Stroke-8" class="st4" x1="171.3" y1="73" x2="179.3" y2="142"/>
<path id="Stroke-10" class="st4" d="M239.3,95c0,0,25.6,21,27,42"/>
<g>
	<line id="Stroke-4" class="st5" x1="18.3" y1="73" x2="41.3" y2="142"/>
	<path id="Stroke-12" class="st5" d="M304.3,85c0,0,4.5,43.1,0,54"/>
</g>
<path id="Fill-1_1_" class="st6" d="M239.2,141.9c0,0-25.9,1.1-30.6-5.1c-4.7-6.2,9.5-6.3,9.5-6.3s-20.1-3.4-24.3-13.1
	c-4.2-9.7,21.8-8.6,21.8-8.6S198.3,97.1,196,85.5c-2.3-11.7,51.2,21.8,51.2,21.8s1-19.3,5.5-21.6c0,0,10-5.5,6.1,20
	c0,0,15-15.3,19.7-8.4c4.7,6.9-15.9,18.9-15.9,18.9L239.2,141.9z"/>
<g>
	<path id="Stroke-3" class="st4" d="M217.3,134.9c0,0,14.5,2.3,20-16.9"/>
	<path id="Stroke-5" class="st7" d="M208.3,117.8c0,0,28.1-3.7,47,7.2c0,0-18.9-18.8-45.2-30"/>
	<path id="Stroke-7" class="st7" d="M254,95c0,0-6.6,6.8,1,30c0,0,3.5-17.6,18.3-23.3"/>
</g>
<path id="Fill-9" class="st8" d="M238.8,150c0,0-12.3-28.5-8.9-30.4c3.4-1.9,12,10.9,12,10.9s-2.6-15.7,4.2-19.6
	c6.8-3.9,10.2,14.8,10.2,14.8s12.8-20.3,20.9-14.8c8.1,5.5-9.2,24.7-9.2,24.7s16.5-9.6,18.8-2.1c2.4,7.5-7.3,16.5-7.3,16.5H238.8z"
	/>
<g>
	<path id="Stroke-11" class="st7" d="M249.3,122.4c0,0,5.9,14.6,5.9,23.6h4c0,0,7.5-22,13.2-28"/>
	<path id="Stroke-13" class="st4" d="M281.3,139c0,0-4.6,0.2-10,7"/>
</g>
<path id="Fill-15" class="st6" d="M47.4,155.9c0,0-20.3-19.1-19.1-27.4s12,2.5,12,2.5s-12.5-18-8.2-28.5c4.2-10.5,23,10.3,23,10.3
	s-4-22,3.2-32.6C65.5,69.6,80,136,80,136s15.5-13.8,20.7-12c0,0,11.7,3.5-10.7,19.8c0,0,23,0,21.2,8.8c-1.7,8.8-26.5,2-26.5,2
	L47.4,155.9z"/>
<g>
	<path id="Stroke-17" class="st7" d="M36.3,134c0,0,9.1,13.7,28,2.7"/>
	<path id="Stroke-19" class="st7" d="M42.3,113c0,0,24.3,19,30,42c0,0,0.3-29.1-10.8-58"/>
	<path id="Stroke-21" class="st4" d="M94.8,132c0,0-10.3,0.1-22.6,23c0,0,16.3-10.5,32-3.5"/>
</g>
<path id="Fill-23" class="st8" d="M71,101c0,0-30.9-12.1-29.7-16.1c1.2-4,17.4-1,17.4-1s-13.8-9.8-11.5-18
	c2.3-8.1,18.9,3.3,18.9,3.3s-5.4-25.1,4.9-27.2C81.4,40,82.6,67.7,82.6,67.7s5.4-19.9,12.8-16s6.8,18.1,6.8,18.1L71,101z"/>
<g>
	<path id="Stroke-25" class="st7" d="M56.3,72.3c0,0,15.9,6.7,22.9,13.7l3.1-3.1c0,0-11.2-22.8-11.5-31.9"/>
	<path id="Stroke-27" class="st4" d="M94.3,67c0,0-4,3.7-2.8,13"/>
</g>
<polygon id="Fill-35" class="st9" points="171.3,146.1 167.3,141 150.3,147 "/>
<polygon id="Fill-37" class="st9" points="129.5,142 126.3,146.3 151.3,147 "/>
<g>
	<path id="Fill-29" class="st10" d="M236.2,155H66.3c-3.3,0-6.1-2.7-6.1-6.1V51.1c0-3.4,2.7-6.1,6.1-6.1h169.9
		c3.3,0,6.1,2.7,6.1,6.1v97.8C242.3,152.3,239.6,155,236.2,155"/>
	<path id="Fill-31" class="st11" d="M231.4,150h-74.7c-0.8,0-1.5-0.2-2.2-0.7l-3.3-2.3l-3.7,2.4c-0.6,0.4-1.3,0.6-2,0.6H71.1
		c-3.2,0-5.9-2.7-5.9-5.9V45.9c0-3.3,2.6-5.9,5.9-5.9h160.2c3.2,0,5.9,2.7,5.9,5.9v98.2C237.3,147.3,234.6,150,231.4,150"/>
	<path id="Fill-33" class="st12" d="M151,147l-72.8-2c-1.6,0-2.9-1.4-2.9-3V34.1c0-1.8,1.6-3.2,3.4-3l72.1,9.4c0.3,0,0.5,0,0.8,0
		l77.4-9.4c1.8-0.2,3.4,1.2,3.4,3l1,106.2c0,1.6-1.3,3-2.9,3l-79.1,3.7C151.2,147,151.1,147,151,147"/>
	<g id="Group-41" transform="translate(54.052632, 0.000000)">
		<g id="Clip-40">
		</g>
		<defs>
			<filter id="Adobe_OpacityMaskFilter_1_" filterUnits="userSpaceOnUse" x="28.4" y="23.6" width="143.2" height="123.1">
				<feColorMatrix  type="matrix" values="1 0 0 0 0  0 1 0 0 0  0 0 1 0 0  0 0 0 1 0"/>
			</filter>
		</defs>
		<mask maskUnits="userSpaceOnUse" x="28.4" y="23.6" width="143.2" height="123.1" id="mask-4_1_">
			<g class="st13">
				<polygon id="path-3_1_" class="st1" points="28.4,23.6 171.6,23.6 171.6,146.7 28.4,146.7 				"/>
			</g>
		</mask>
		<path id="Fill-39" class="st14" d="M96.4,146.7L31,137.5c-1.5-0.2-2.6-1.5-2.6-3V26.7c0-2,1.9-3.4,3.8-2.9l64,16.3
			c0.5,0.1,1,0.1,1.5,0l69.3-16.4c1.9-0.4,3.7,1,3.7,2.9l1,106.1c0,1.5-1.1,2.8-2.6,3l-71.7,11C97,146.7,96.7,146.7,96.4,146.7"/>
	</g>
	<line id="Stroke-42" class="st15" x1="151.9" y1="44" x2="151.6" y2="144"/>
	<path id="Stroke-44" class="st16" d="M137.7,87.8L94.3,76.6c-2.3-0.6-4-2.7-4-5.2V43.4c0-3.5,3.3-6,6.6-5.2l43.4,11.2
		c2.3,0.6,4,2.7,4,5.2v28.1C144.3,86.1,141,88.7,137.7,87.8z"/>
	<path id="Stroke-46" class="st16" d="M89.3,90c0,0,3.5,6.9,10.7,5c7.2-1.9,10.1,0,16.3,3.8c6.2,3.8,9.6-0.9,14.8-0.3
		c5.1,0.6,11.2,5.5,11.2,5.5"/>
	<path id="Stroke-48" class="st16" d="M89.3,102c0,0,3.5,6.9,10.7,5s10.1,0,16.3,3.8c6.2,3.8,9.6-0.9,14.8-0.3
		c5.1,0.6,11.2,5.5,11.2,5.5"/>
	<path id="Stroke-50" class="st16" d="M212.3,38c0,0-3,7-9.5,5.1c-6.4-2-9-0.1-14.5,3.8c-5.5,3.8-8.6-1-13.1-0.4s-9.9,5.6-9.9,5.6"
		/>
	<path id="Stroke-52" class="st16" d="M212.3,48c0,0-3,7-9.5,5.1c-6.4-2-9-0.1-14.5,3.8c-5.5,3.8-8.6-1-13.1-0.4s-9.9,5.6-9.9,5.6"
		/>
	<path id="Stroke-54" class="st16" d="M212.3,57c0,0-3,7-9.5,5.1c-6.4-2-9-0.1-14.5,3.8c-5.5,3.8-8.6-1-13.1-0.4s-9.9,5.6-9.9,5.6"
		/>
	<path id="Stroke-56" class="st16" d="M212.3,66c0,0-3,7-9.5,5.1c-6.4-2-9-0.1-14.5,3.8c-5.5,3.8-8.6-1-13.1-0.4s-9.9,5.6-9.9,5.6"
		/>
	<path id="Stroke-58" class="st16" d="M212.3,76c0,0-3,7-9.5,5.1c-6.4-2-9-0.1-14.5,3.8c-5.5,3.8-8.6-1-13.1-0.4
		c-4.5,0.6-9.9,5.6-9.9,5.6"/>
	<path id="Stroke-60" class="st16" d="M212.3,85c0,0-3,7-9.5,5.1c-6.4-2-9-0.1-14.5,3.8c-5.5,3.8-8.6-1-13.1-0.4s-9.9,5.6-9.9,5.6"
		/>
	<path id="Stroke-62" class="st16" d="M212.3,95c0,0-3,7-9.5,5.1c-6.4-2-9-0.1-14.5,3.8c-5.5,3.8-8.6-1-13.1-0.4s-9.9,5.6-9.9,5.6"
		/>
	<path id="Stroke-64" class="st16" d="M212.3,104c0,0-3,7-9.5,5.1c-6.4-2-9-0.1-14.5,3.8s-8.6-1-13.1-0.4c-4.5,0.6-9.9,5.6-9.9,5.6"
		/>
	<path id="Stroke-66" class="st16" d="M212.3,114c0,0-3,7-9.5,5.1c-6.4-2-9-0.1-14.5,3.8c-5.5,3.8-8.6-1-13.1-0.4
		c-4.5,0.6-9.9,5.6-9.9,5.6"/>
</g>
<circle class="st6" cx="284.6" cy="95.5" r="3.5"/>
</svg>
